<?xml version="1.0" encoding="utf-8"?>
<!-- Generator: Adobe Illustrator 25.0.0, SVG Export Plug-In . SVG Version: 6.00 Build 0)  -->
<svg version="1.1" id="图层_1" xmlns="http://www.w3.org/2000/svg" xmlns:xlink="http://www.w3.org/1999/xlink" x="0px" y="0px"
	 viewBox="0 0 1024 1024" style="enable-background:new 0 0 1024 1024;" xml:space="preserve">
<style type="text/css">
	.st0{clip-path:url(#SVGID_1_);}
	.st1{clip-path:url(#SVGID_2_);}
	.st2{fill:#4D994D;}
	.st3{opacity:0.4;}
	.st4{clip-path:url(#SVGID_3_);}
	.st5{fill:#FFFFFF;}
	.st6{enable-background:new    ;}
	.st7{clip-path:url(#SVGID_4_);}
</style>
<g>
	<g>
		<g>
			<defs>
				<rect id="SVGID_9_" x="96" y="96" width="832" height="832"/>
			</defs>
			<clipPath id="SVGID_1_">
				<use xlink:href="#SVGID_9_"  style="overflow:visible;"/>
			</clipPath>
			<g id="组_344" class="st0">
				<g id="组_346" transform="translate(8 2)">
					<g id="组_341">
						<g>
							<g>
								<g>
									<defs>
										<rect id="SVGID_11_" x="192" y="120" width="624" height="780"/>
									</defs>
									<clipPath id="SVGID_2_">
										<use xlink:href="#SVGID_11_"  style="overflow:visible;"/>
									</clipPath>
									<g id="组_340" class="st1">
										<path id="路径_181" class="st2" d="M270,120c-43,0.1-77.9,35-78,78v624c0.1,43,35,77.9,78,78h468c43-0.1,77.9-35,78-78
											V352.1L584,120H270z"/>
										<g id="组_339" transform="translate(30.15)" class="st3">
											<g id="组_338">
												<g>
													<g>
														<g>
															<defs>
																<rect id="SVGID_13_" x="553.8" y="120" width="232.1" height="232.1"/>
															</defs>
															<clipPath id="SVGID_3_">
																<use xlink:href="#SVGID_13_"  style="overflow:visible;"/>
															</clipPath>
															<g id="组_337" class="st4">
																<path id="路径_182" class="st5" d="M631.8,352.1h154L553.8,120v154.1C553.9,317.1,588.8,351.9,631.8,352.1"/>
															</g>
														</g>
													</g>
												</g>
											</g>
										</g>
									</g>
								</g>
							</g>
						</g>
					</g>
					<g class="st6">
						<path class="st5" d="M343.8,538.8l12.8,4c-2,7.1-5.2,12.4-9.8,15.8c-4.6,3.5-10.3,5.2-17.3,5.2c-8.7,0-15.8-3-21.3-8.9
							c-5.6-5.9-8.4-14-8.4-24.2c0-10.8,2.8-19.3,8.4-25.3s13-9,22.1-9c8,0,14.4,2.3,19.4,7.1c3,2.8,5.2,6.8,6.7,12l-13,3.1
							c-0.8-3.4-2.4-6-4.8-8c-2.5-2-5.4-2.9-8.9-2.9c-4.8,0-8.7,1.7-11.8,5.2c-3,3.5-4.5,9.1-4.5,16.8c0,8.2,1.5,14.1,4.4,17.6
							s6.8,5.2,11.6,5.2c3.5,0,6.5-1.1,9-3.3C340.9,547,342.7,543.5,343.8,538.8z"/>
						<path class="st5" d="M426.6,562.7h-14.3l-5.7-14.8h-26l-5.4,14.8h-14l25.4-65.1h13.9L426.6,562.7z M402.3,536.9l-9-24.2
							l-8.8,24.2H402.3z"/>
						<path class="st5" d="M433.5,497.6h24c5.4,0,9.6,0.4,12.4,1.2c3.8,1.1,7.1,3.1,9.8,6c2.7,2.9,4.8,6.4,6.2,10.5
							c1.4,4.2,2.1,9.3,2.1,15.4c0,5.4-0.7,10-2,13.9c-1.6,4.7-4,8.6-7,11.5c-2.3,2.2-5.4,4-9.2,5.2c-2.9,0.9-6.8,1.4-11.6,1.4
							h-24.7L433.5,497.6L433.5,497.6z M446.6,508.6v43.2h9.8c3.7,0,6.3-0.2,8-0.6c2.1-0.5,3.9-1.4,5.3-2.7s2.6-3.4,3.4-6.3
							s1.3-6.9,1.3-11.9s-0.4-8.9-1.3-11.6c-0.9-2.7-2.1-4.8-3.7-6.3s-3.6-2.5-6.1-3.1c-1.8-0.4-5.4-0.6-10.8-0.6h-5.9L446.6,508.6
							L446.6,508.6z"/>
					</g>
					<g id="组_343">
						<g>
							<g>
								<g>
									<defs>
										<rect id="SVGID_15_" x="192" y="120" width="624" height="780"/>
									</defs>
									<clipPath id="SVGID_4_">
										<use xlink:href="#SVGID_15_"  style="overflow:visible;"/>
									</clipPath>
									<g id="组_342" class="st7">
										<g id="直线_96">
											<path class="st5" d="M580.7,666.3h-273c-4.5,0-8.1-3.6-8.1-8.1s3.6-8.1,8.1-8.1h273c4.5,0,8.1,3.6,8.1,8.1
												S585.2,666.3,580.7,666.3z"/>
										</g>
										<g id="直线_97">
											<path class="st5" d="M522.7,732.6c-4.5,0-8.1-3.6-8.1-8.1V471c0-4.5,3.6-8.1,8.1-8.1s8.1,3.6,8.1,8.1v253.5
												C530.9,729,527.2,732.6,522.7,732.6z"/>
										</g>
										<g id="路径_186">
											<path class="st5" d="M551.5,697.2H493c-5.4,0-9.8-4.4-9.8-9.8V629c0-5.4,4.4-9.8,9.8-9.8h58.5c5.4,0,9.8,4.4,9.8,9.8
												v58.5C561.2,692.8,556.8,697.2,551.5,697.2"/>
										</g>
									</g>
								</g>
							</g>
						</g>
					</g>
				</g>
			</g>
		</g>
	</g>
</g>
</svg>
