<?xml version="1.0" encoding="utf-8"?>
<!-- Generator: Adobe Illustrator 25.0.0, SVG Export Plug-In . SVG Version: 6.00 Build 0)  -->
<svg version="1.1" id="图层_1" xmlns="http://www.w3.org/2000/svg" xmlns:xlink="http://www.w3.org/1999/xlink" x="0px" y="0px"
	 viewBox="0 0 1024 1024" style="enable-background:new 0 0 1024 1024;" xml:space="preserve">
<style type="text/css">
	.st0{clip-path:url(#SVGID_2_);}
	.st1{clip-path:url(#SVGID_4_);}
	.st2{fill:#3661C7;}
	.st3{opacity:0.4;}
	.st4{clip-path:url(#SVGID_6_);}
	.st5{fill:#FFFFFF;}
	.st6{enable-background:new    ;}
</style>
<g>
	<defs>
		<rect id="SVGID_1_" x="96" y="96" width="832" height="832"/>
	</defs>
	<clipPath id="SVGID_2_">
		<use xlink:href="#SVGID_1_"  style="overflow:visible;"/>
	</clipPath>
	<g id="组_404" class="st0">
		<g id="组_406" transform="translate(8 2)">
			<g id="组_401">
				<g>
					<defs>
						<rect id="SVGID_3_" x="192" y="120" width="624" height="780"/>
					</defs>
					<clipPath id="SVGID_4_">
						<use xlink:href="#SVGID_3_"  style="overflow:visible;"/>
					</clipPath>
					<g id="组_400" class="st1">
						<g id="路径_215">
							<path class="st2" d="M270,120c-43,0.1-77.9,35-78,78v624c0.1,43,35,77.9,78,78h468c43-0.1,77.9-35,78-78V352.1L584,120H270z"
								/>
						</g>
						<g id="组_399" transform="translate(30.15)" class="st3">
							<g id="组_398">
								<g>
									<defs>
										<rect id="SVGID_5_" x="553.8" y="120" width="232.1" height="232.1"/>
									</defs>
									<clipPath id="SVGID_6_">
										<use xlink:href="#SVGID_5_"  style="overflow:visible;"/>
									</clipPath>
									<g id="组_397" class="st4">
										<g id="路径_216">
											<path class="st5" d="M631.8,352.1h154L553.8,120v154.1C553.9,317.1,588.8,351.9,631.8,352.1"/>
										</g>
									</g>
								</g>
							</g>
						</g>
					</g>
				</g>
			</g>
			<g class="st6">
				<path class="st5" d="M297.2,668.8v-17.1l98.6-41.6v18.2l-78.2,32.1l78.2,32.4v18.2L297.2,668.8z"/>
				<path class="st5" d="M407.3,736.4l43.2-154h14.6l-43.1,154H407.3z"/>
				<path class="st5" d="M575.1,668.8l-98.6,42.1v-18.2l78.1-32.4l-78.1-32.1v-18.2l98.6,41.6V668.8z"/>
			</g>
		</g>
	</g>
</g>
</svg>
