<?xml version="1.0" encoding="utf-8"?>
<!-- Generator: Adobe Illustrator 25.0.0, SVG Export Plug-In . SVG Version: 6.00 Build 0)  -->
<svg version="1.1" id="图层_1" xmlns="http://www.w3.org/2000/svg" xmlns:xlink="http://www.w3.org/1999/xlink" x="0px" y="0px"
	 viewBox="0 0 1024 1024" style="enable-background:new 0 0 1024 1024;" xml:space="preserve">
<style type="text/css">
	.st0{clip-path:url(#SVGID_1_);}
	.st1{clip-path:url(#SVGID_2_);}
	.st2{fill:#3A6ACC;}
	.st3{opacity:0.4;}
	.st4{clip-path:url(#SVGID_3_);}
	.st5{fill:#FFFFFF;}
</style>
<g>
	<g>
		<g>
			<defs>
				<rect id="SVGID_7_" x="96" y="96" width="832" height="832"/>
			</defs>
			<clipPath id="SVGID_1_">
				<use xlink:href="#SVGID_7_"  style="overflow:visible;"/>
			</clipPath>
			<g id="组_244" class="st0">
				<g id="组_243" transform="translate(8 2)">
					<g>
						<g>
							<g>
								<defs>
									<rect id="SVGID_9_" x="192" y="120" width="624" height="780"/>
								</defs>
								<clipPath id="SVGID_2_">
									<use xlink:href="#SVGID_9_"  style="overflow:visible;"/>
								</clipPath>
								<g id="组_242" class="st1">
									<g id="路径_134">
										<path class="st2" d="M270,120c-43,0.1-77.9,35-78,78v624c0.1,43,35,77.9,78,78h468c43-0.1,77.9-35,78-78V352.1L584,120
											H270z"/>
									</g>
									<g id="组_241" transform="translate(30.15)" class="st3">
										<g id="组_240">
											<g>
												<g>
													<g>
														<defs>
															<rect id="SVGID_11_" x="553.8" y="120" width="232.1" height="232.1"/>
														</defs>
														<clipPath id="SVGID_3_">
															<use xlink:href="#SVGID_11_"  style="overflow:visible;"/>
														</clipPath>
														<g id="组_239" class="st4">
															<g id="路径_135">
																<path class="st5" d="M631.8,352.1h154L553.8,120v154.1C553.9,317.1,588.8,351.9,631.8,352.1"/>
															</g>
														</g>
													</g>
												</g>
											</g>
										</g>
									</g>
									<g id="直线_87">
										<path class="st5" d="M480.3,754.9h-156c-4.5,0-8.1-3.6-8.1-8.1s3.6-8.1,8.1-8.1h156c4.5,0,8.1,3.6,8.1,8.1
											S484.8,754.9,480.3,754.9z"/>
									</g>
									<g id="直线_88">
										<path class="st5" d="M558.3,676.5h-234c-4.5,0-8.1-3.6-8.1-8.1s3.6-8.1,8.1-8.1h234c4.5,0,8.1,3.6,8.1,8.1
											S562.8,676.5,558.3,676.5z"/>
									</g>
									<g id="直线_89">
										<path class="st5" d="M558.3,598.5h-234c-4.5,0-8.1-3.6-8.1-8.1s3.6-8.1,8.1-8.1h234c4.5,0,8.1,3.6,8.1,8.1
											S562.8,598.5,558.3,598.5z"/>
									</g>
									<g id="直线_90">
										<path class="st5" d="M558.3,520.5h-234c-4.5,0-8.1-3.6-8.1-8.1s3.6-8.1,8.1-8.1h234c4.5,0,8.1,3.6,8.1,8.1
											C566.4,516.9,562.8,520.5,558.3,520.5z"/>
									</g>
								</g>
							</g>
						</g>
					</g>
				</g>
			</g>
		</g>
	</g>
</g>
</svg>
