<?xml version="1.0" encoding="utf-8"?>
<!-- Generator: Adobe Illustrator 25.0.0, SVG Export Plug-In . SVG Version: 6.00 Build 0)  -->
<svg version="1.1" id="图层_1" xmlns="http://www.w3.org/2000/svg" xmlns:xlink="http://www.w3.org/1999/xlink" x="0px" y="0px"
	 viewBox="0 0 1024 1024" style="enable-background:new 0 0 1024 1024;" xml:space="preserve">
<style type="text/css">
	.st0{clip-path:url(#SVGID_1_);}
	.st1{clip-path:url(#SVGID_2_);}
	.st2{fill:#6441A6;}
	.st3{opacity:0.4;}
	.st4{clip-path:url(#SVGID_3_);}
	.st5{fill:#FFFFFF;}
</style>
<g>
	<g>
		<defs>
			<rect id="SVGID_7_" x="96" y="96" width="832" height="832"/>
		</defs>
		<clipPath id="SVGID_1_">
			<use xlink:href="#SVGID_7_"  style="overflow:visible;"/>
		</clipPath>
		<g id="组_237" class="st0">
			<g id="组_236" transform="translate(7.75 2)">
				<g>
					<g>
						<defs>
							<rect id="SVGID_9_" x="189" y="120" width="624" height="780"/>
						</defs>
						<clipPath id="SVGID_2_">
							<use xlink:href="#SVGID_9_"  style="overflow:visible;"/>
						</clipPath>
						<g id="组_235" class="st1">
							<g id="路径_132">
								<path class="st2" d="M267,120c-43,0.1-77.9,35-78,78v624c0.1,43,35,77.9,78,78h468c43-0.1,77.9-35,78-78V352.1L581,120H267z
									"/>
							</g>
							<g id="组_234" transform="translate(30.15)" class="st3">
								<g id="组_233">
									<g>
										<g>
											<defs>
												<rect id="SVGID_11_" x="550.8" y="120" width="232.1" height="232.1"/>
											</defs>
											<clipPath id="SVGID_3_">
												<use xlink:href="#SVGID_11_"  style="overflow:visible;"/>
											</clipPath>
											<g id="组_232" class="st4">
												<g id="路径_133">
													<path class="st5" d="M628.8,352.1h154L550.8,120v154.1C550.9,317.1,585.8,351.9,628.8,352.1"/>
												</g>
											</g>
										</g>
									</g>
								</g>
							</g>
							<g id="椭圆_29">
								<path class="st5" d="M428.5,670.7c-22.8,0-41.3-18.5-41.3-41.3s18.5-41.3,41.3-41.3s41.3,18.5,41.3,41.3
									S451.2,670.7,428.5,670.7z M428.5,604.4c-13.8,0-25,11.2-25,25s11.2,25,25,25s25-11.2,25-25S442.3,604.4,428.5,604.4z"/>
							</g>
							<g id="椭圆_30">
								<path class="st5" d="M465.3,571.2c-18.5,0-33.5-15-33.5-33.5s15-33.5,33.5-33.5s33.5,15,33.5,33.5S483.8,571.2,465.3,571.2z
									 M465.3,520.5c-9.5,0-17.2,7.7-17.2,17.2s7.7,17.2,17.2,17.2s17.2-7.7,17.2-17.2S474.8,520.5,465.3,520.5z"/>
							</g>
							<g id="椭圆_31">
								<path class="st5" d="M346.6,572.6c-18.5,0-33.5-15-33.5-33.5s15-33.5,33.5-33.5s33.5,15,33.5,33.5S365.1,572.6,346.6,572.6z
									 M346.6,521.9c-9.5,0-17.2,7.7-17.2,17.2s7.7,17.2,17.2,17.2s17.2-7.7,17.2-17.2S356.1,521.9,346.6,521.9z"/>
							</g>
							<g id="椭圆_32">
								<path class="st5" d="M346.6,746.4c-18.5,0-33.5-15-33.5-33.5s15-33.5,33.5-33.5s33.5,15,33.5,33.5S365.1,746.4,346.6,746.4z
									 M346.6,695.7c-9.5,0-17.2,7.7-17.2,17.2s7.7,17.2,17.2,17.2s17.2-7.7,17.2-17.2S356.1,695.7,346.6,695.7z"/>
							</g>
							<g id="椭圆_33">
								<path class="st5" d="M478.9,754.5c-18.5,0-33.5-15-33.5-33.5s15-33.5,33.5-33.5s33.5,15,33.5,33.5S497.4,754.5,478.9,754.5z
									 M478.9,703.8c-9.5,0-17.2,7.7-17.2,17.2s7.7,17.2,17.2,17.2s17.2-7.7,17.2-17.2S488.4,703.8,478.9,703.8z"/>
							</g>
							<g id="椭圆_34">
								<path class="st5" d="M529.9,667.1c-18.5,0-33.5-15-33.5-33.5s15-33.5,33.5-33.5s33.5,15,33.5,33.5S548.4,667.1,529.9,667.1z
									 M529.9,616.3c-9.5,0-17.2,7.7-17.2,17.2s7.7,17.2,17.2,17.2s17.2-7.7,17.2-17.2S539.4,616.3,529.9,616.3z"/>
							</g>
							<g id="直线_82">
								<path class="st5" d="M400.2,618.9c-2.5,0-4.9-1.1-6.5-3.2l-33.3-44.4c-2.7-3.6-2-8.7,1.6-11.4s8.7-2,11.4,1.6l33.3,44.4
									c2.7,3.6,2,8.7-1.6,11.4C403.6,618.3,401.9,618.9,400.2,618.9z"/>
							</g>
							<g id="直线_83">
								<path class="st5" d="M470.5,704.3c-2.5,0-5-1.2-6.6-3.4l-23.2-32.4c-2.6-3.7-1.8-8.7,1.9-11.3c3.7-2.6,8.7-1.8,11.3,1.9
									l23.2,32.4c2.6,3.7,1.8,8.7-1.9,11.3C473.7,703.8,472.1,704.3,470.5,704.3z"/>
							</g>
							<g id="直线_84">
								<path class="st5" d="M504.6,641.7h-41.8c-4.5,0-8.1-3.6-8.1-8.1s3.6-8.1,8.1-8.1h41.8c4.5,0,8.1,3.6,8.1,8.1
									S509.1,641.7,504.6,641.7z"/>
							</g>
							<g id="直线_85">
								<path class="st5" d="M446.2,604.5c-1.4,0-2.8-0.3-4-1.1c-3.9-2.2-5.2-7.2-3-11.1l19.2-33.3c2.2-3.9,7.2-5.2,11.1-3
									s5.2,7.2,3,11.1l-19.2,33.3C451.7,603.1,449,604.5,446.2,604.5z"/>
							</g>
							<g id="直线_86">
								<path class="st5" d="M364.5,700.5c-2.2,0-4.5-0.9-6.1-2.8c-3-3.4-2.6-8.5,0.7-11.5l38.7-34.1c3.4-3,8.5-2.7,11.5,0.7
									s2.6,8.5-0.7,11.5l-38.7,34.1C368.3,699.9,366.4,700.5,364.5,700.5z"/>
							</g>
						</g>
					</g>
				</g>
			</g>
		</g>
	</g>
</g>
</svg>
