<?xml version="1.0" encoding="utf-8"?>
<!-- Generator: Adobe Illustrator 25.0.0, SVG Export Plug-In . SVG Version: 6.00 Build 0)  -->
<svg version="1.1" id="图层_1" xmlns="http://www.w3.org/2000/svg" xmlns:xlink="http://www.w3.org/1999/xlink" x="0px" y="0px"
	 viewBox="0 0 1024 1024" style="enable-background:new 0 0 1024 1024;" xml:space="preserve">
<style type="text/css">
	.st0{clip-path:url(#SVGID_2_);}
	.st1{fill:#CC8829;}
	.st2{fill:#E6A82E;}
	.st3{fill:#FFFFFF;}
</style>
<g>
	<defs>
		<rect id="SVGID_1_" x="96" y="96" width="832" height="832"/>
	</defs>
	<clipPath id="SVGID_2_">
		<use xlink:href="#SVGID_1_"  style="overflow:visible;"/>
	</clipPath>
	<g id="组_381" class="st0">
		<g id="路径_204">
			<path class="st1" d="M224,745.9h576.1c35.3-0.1,63.9-28.7,64-64V293.3c-0.1-35.3-28.7-63.9-64-64H224c-35.3,0.1-63.9,28.7-64,64
				v388.6C160.1,717.2,188.7,745.8,224,745.9"/>
		</g>
		<g id="路径_205">
			<path class="st2" d="M842.7,865.1H181.3c-47.1,0-85.3-38.2-85.3-85.3V246.3c0-47.1,38.2-85.3,85.3-85.3h268.5
				c36.6,0,69.1,23.3,80.9,58l24.1,71.4c11.7,34.7,44.3,58,80.9,58h206.6c47.1,0,85.3,38.1,85.3,85.2l0.5,346
				C928,826.8,889.8,865.1,842.7,865.1C842.7,865.1,842.7,865.1,842.7,865.1"/>
		</g>
		<g id="直线_106">
			<path class="st3" d="M411.2,576.4c-2.1,0-4.2-0.8-5.7-2.4l-53.7-53.7c-3.2-3.2-3.2-8.3,0-11.5c3.2-3.2,8.3-3.2,11.5,0l53.7,53.7
				c3.2,3.2,3.2,8.3,0,11.5C415.4,575.6,413.3,576.4,411.2,576.4z"/>
		</g>
		<g id="直线_107">
			<path class="st3" d="M303.9,576.4c-2.1,0-4.2-0.8-5.7-2.4c-3.2-3.2-3.2-8.3,0-11.5l53.7-53.7c3.2-3.2,8.3-3.2,11.5,0
				c3.2,3.2,3.2,8.3,0,11.5L309.6,574C308,575.6,306,576.4,303.9,576.4z"/>
		</g>
		<g id="直线_108">
			<path class="st3" d="M357.5,687.1c-4.5,0-8.1-3.6-8.1-8.1V514.6c0-4.5,3.6-8.1,8.1-8.1s8.1,3.6,8.1,8.1V679
				C365.7,683.5,362,687.1,357.5,687.1z"/>
		</g>
		<g id="路径_214">
			<path class="st3" d="M446,756.7H270.5c-20.5-0.1-37.3-16.8-37.4-37.3V641c0-18.4,15-33.4,33.4-33.4c0,0,0,0,0,0h12.7
				c4.5,0,8.1,3.6,8.1,8.1s-3.6,8.1-8.1,8.1h-12.7h0c-9.5,0-17.2,7.7-17.2,17.2v78.3c0,11.6,9.5,21.1,21.2,21.1H446
				c11.6,0,21.1-9.5,21.1-21.1V641c0-9.5-7.7-17.1-17.2-17.1c0,0,0,0,0,0h-12.6c-4.5,0-8.1-3.6-8.1-8.1s3.6-8.1,8.1-8.1h12.6
				c0,0,0,0,0,0c18.4,0,33.4,15,33.4,33.4v78.3C483.3,739.9,466.6,756.7,446,756.7z"/>
		</g>
	</g>
</g>
</svg>
