<?xml version="1.0" encoding="UTF-8"?>
<svg width="149px" height="36px" viewBox="0 0 149 36" version="1.1" xmlns="http://www.w3.org/2000/svg" xmlns:xlink="http://www.w3.org/1999/xlink">
    <title>logo</title>
    <defs>
        <polygon id="path-1" points="0 0 39.9999579 0 39.9999579 36 0 36"></polygon>
        <polygon id="path-3" points="0 3.00936101e-15 26.7979088 3.00936101e-15 26.7979088 26.9534011 0 26.9534011"></polygon>
    </defs>
    <g id="Dootask官网" stroke="none" stroke-width="1" fill="none" fill-rule="evenodd">
        <g transform="translate(-380.000000, -18.000000)" id="导航栏">
            <g id="logo" transform="translate(380.000000, 18.000000)">
                <g id="编组">
                    <g transform="translate(0.000042, 0.000000)">
                        <mask id="mask-2" fill="white">
                            <use xlink:href="#path-1"></use>
                        </mask>
                        <g id="Clip-2"></g>
                        <path d="M34.7431762,5.28777093 C32.5537013,3.08329775 29.7854894,1.49654294 26.7263299,0.61411837 C25.4092765,0.23421204 23.5263282,0 22.1052748,0 L0,0 L0,9.05295183 L6.24421381,15.3317827 L6.3157928,15.4037828 L6.3157928,6.35294865 L22.1052748,6.35294865 C23.7179072,6.35294865 25.2840133,6.68753728 26.7263299,7.32706744 C28.0292779,7.90518577 29.2313838,8.72895145 30.2755949,9.77930562 C32.4737013,11.9901318 33.6842283,14.9082528 33.6842283,18.0000212 C33.6842283,21.0917895 32.4737013,24.0120282 30.2755949,26.2207367 C28.0800148,28.4315629 25.1768554,29.6470937 22.1052748,29.6470937 L15.2505343,29.6470937 L8.93474154,36.0000424 L22.1052748,36.0000424 C31.9473852,36.0000424 40.0000211,27.9000328 40.0000211,18.0000212 C40.0000211,13.0489565 37.9873884,8.55106888 34.7431762,5.28777093" id="Fill-1" fill="#FFFFFF" mask="url(#mask-2)"></path>
                    </g>
                    <g transform="translate(0.000000, 9.046599)">
                        <mask id="mask-4" fill="white">
                            <use xlink:href="#path-3"></use>
                        </mask>
                        <g id="Clip-4"></g>
                        <polygon id="Fill-3" fill="#FFDD33" mask="url(#mask-4)" points="26.7979088 3.00936101e-15 26.7979088 8.98518704 15.2505343 20.6004948 8.93474154 26.9534435 0 17.9661388 0 8.98730469 0.00210526427 8.98518704 6.3157928 15.3339004 8.93474154 17.9682564"></polygon>
                    </g>
                </g>
                <text id="DooTask" font-family="PingFangSC-Semibold, PingFang SC" font-size="22" font-weight="500" fill="#FFFFFF">
                    <tspan x="56" y="26">DooTask</tspan>
                </text>
            </g>
        </g>
    </g>
</svg>
