<svg xmlns="http://www.w3.org/2000/svg" xml:space="preserve" width="28" height="60"><symbol id="svg-icon-crypted" viewBox="0 0 20 20"><path fill-rule="evenodd" d="M10 3C7 5 4 5 4 5v3.5c0 2 .563 7.477 6 8.5 5.436-1.023 6-6.5 6-8.5V5s-3 0-6-2m4.023 4.965-1.046-.93-3.55 3.993-2.479-2.066-.896 1.076 3.52 2.934z" clip-rule="evenodd"/></symbol><symbol id="svg-icon-users" viewBox="0 0 28 20"><path fill-rule="evenodd" d="M27 10a9 9 0 1 1-18 0 9 9 0 0 1 18 0m1 0c0 5.523-4.477 10-10 10a9.96 9.96 0 0 1-6.798-2.666 8 8 0 1 1 0-14.667A9.96 9.96 0 0 1 18 0c5.523 0 10 4.477 10 10M10.451 3.441A7 7 0 0 0 8 3a7 7 0 0 0-5.69 11.079 11 11 0 0 1 1.124-.76C4.544 12.666 6.132 12 8 12q.1 0 .2.003A10 10 0 0 1 8.05 11H8a3 3 0 1 1 1.198-5.751 10 10 0 0 1 1.253-1.808M8.767 6.152A2 2 0 0 0 8 6a2 2 0 1 0 0 4 10 10 0 0 1 .767-3.848m-.304 6.864A7 7 0 0 0 8 13c-1.632 0-3.043.584-4.059 1.181a10 10 0 0 0-.99.667A6.98 6.98 0 0 0 8 17a7 7 0 0 0 2.451-.441 10 10 0 0 1-1.988-3.543" clip-rule="evenodd"/></symbol></svg>