<svg xmlns="http://www.w3.org/2000/svg" xmlns:xlink="http://www.w3.org/1999/xlink" fill="none" version="1.1" width="120" height="104.24871826171875" viewBox="0 0 120 104.24871826171875"><defs><mask id="master_svg0_127_3505" style="mask-type:alpha" maskUnits="userSpaceOnUse"><g><path d="M104.6041263671875,59.55030107421875C104.6041263671875,75.11780107421875,96.4771263671875,88.83160107421875,84.1278263671875,96.44370107421875C83.4499263671875,96.77840107421875,82.7719263671875,97.28470107421875,82.2656263671875,97.62800107421874C76.0034263671875,101.18090107421875,68.7268263671875,103.21480107421876,61.1113263671875,103.21480107421876C54.0038263671875,103.21480107421876,47.2353263671875,101.51560107421875,41.313026367187504,98.47760107421875C27.0980263671875,91.20020107421875,17.4520263671875,76.47370107421875,17.4520263671875,59.55030107421875C17.4520263671875,35.52120107421875,36.9131263671875,16.06610107421875,60.9422263671875,16.06610107421875C68.8959263671875,16.06610107421875,76.1724263671875,18.09142107421875,82.6003263671875,21.81594107421875C87.0027263671875,24.18453107421875,90.7273263671875,27.40270107421875,93.9369263671875,31.29030107421875C94.6148263671875,31.96830107421875,95.2928263671875,32.81790107421875,95.7991263671875,33.65890107421875C101.3859263671875,40.76470107421875,104.6041263671875,49.74130107421875,104.6041263671875,59.55030107421875Z" fill="#FFFFFF" fill-opacity="1"/></g></mask></defs><g><g><path d="M104.6041492553711,59.55029344482422C104.6041492553711,75.11779344482422,96.47714925537109,88.83159344482422,84.12784925537109,96.44369344482422C83.4499492553711,96.77839344482422,82.7719492553711,97.28469344482421,82.26564925537109,97.62799344482421C76.0034492553711,101.18089344482422,68.72684925537109,103.21479344482422,61.111349255371096,103.21479344482422C54.003849255371094,103.21479344482422,47.23534925537109,101.51559344482422,41.3130492553711,98.47759344482422C27.098049255371095,91.20019344482422,17.452049255371094,76.47369344482422,17.452049255371094,59.55029344482422C17.452049255371094,35.52119344482422,36.913149255371096,16.06609344482422,60.942249255371095,16.06609344482422C68.8959492553711,16.06609344482422,76.17244925537109,18.09141344482422,82.6003492553711,21.815933444824218C87.0027492553711,24.18452344482422,90.7273492553711,27.40269344482422,93.93694925537109,31.29029344482422C94.6148492553711,31.96829344482422,95.2928492553711,32.81789344482422,95.79914925537109,33.658893444824216C101.38594925537109,40.76469344482422,104.6041492553711,49.741293444824215,104.6041492553711,59.55029344482422Z" fill="#F4F5F7" fill-opacity="1"/><path d="M99.86754925537109,81.47229344482422Q105.60424925537109,71.32279344482421,105.6041492553711,59.55029344482422Q105.60424925537109,52.11509344482422,103.2420492553711,45.26489344482422Q100.9445492553711,38.60159344482422,96.62324925537109,33.089093444824215Q95.8156492553711,31.76259344482422,94.67804925537109,30.61729344482422Q89.5565492553711,24.426603444824217,83.08804925537109,20.94279344482422Q72.9379492553711,15.066093444824219,60.942249255371095,15.066093444824219Q51.88734925537109,15.066093444824219,43.620349255371096,18.560293444824218Q35.63514925537109,21.93535344482422,29.479149255371095,28.09009344482422Q23.323089255371094,34.24499344482422,19.947239255371095,42.22919344482422Q16.452049255371094,50.495593444824216,16.452049255371094,59.55029344482422Q16.452049255371094,65.94359344482422,18.221109255371093,72.02809344482422Q19.937179255371092,77.93019344482423,23.203729255371094,83.16089344482423Q26.423459255371093,88.31659344482422,30.911149255371093,92.44119344482422Q35.4170492553711,96.58249344482422,40.856649255371096,99.36739344482422Q50.306349255371096,104.21479344482422,61.111349255371096,104.21479344482422Q66.8768492553711,104.21479344482422,72.4548492553711,102.71959344482421Q77.88164925537109,101.26499344482421,82.7590492553711,98.49779344482423L82.7937492553711,98.47809344482422L82.8267492553711,98.45569344482422Q82.93434925537109,98.38279344482422,83.1644492553711,98.22269344482422Q84.09704925537109,97.57409344482421,84.57054925537109,97.34039344482422L84.6126492553711,97.31959344482422L84.6525492553711,97.29499344482421Q94.2779492553711,91.36189344482422,99.86754925537109,81.47229344482422ZM101.35134925537109,45.91689344482422Q103.6041492553711,52.450193444824215,103.6041492553711,59.55029344482422Q103.6041492553711,70.79669344482423,98.1264492553711,80.48819344482422Q92.8010492553711,89.91029344482422,83.6405492553711,95.56929344482423Q83.0394492553711,95.87349344482422,82.02254925537109,96.58079344482422Q81.8357492553711,96.71069344482422,81.7368492553711,96.77819344482423Q77.09734925537109,99.40459344482421,71.9370492553711,100.78779344482422Q66.6134492553711,102.21479344482422,61.111349255371096,102.21479344482422Q50.78934925537109,102.21479344482422,41.76944925537109,97.58779344482421Q36.5703492553711,94.92619344482422,32.264549255371094,90.96859344482422Q27.976349255371094,87.02739344482421,24.900109255371092,82.10149344482421Q21.780299255371094,77.10589344482422,20.141579255371095,71.46969344482422Q18.452049255371094,65.65879344482423,18.452049255371094,59.55029344482422Q18.452049255371094,50.900993444824216,21.789349255371093,43.00799344482422Q25.01319925537109,35.38339344482422,30.893249255371096,29.504393444824217Q36.7732492553711,23.625633444824217,44.39894925537109,20.40250344482422Q52.29274925537109,17.066089444824218,60.942249255371095,17.066089444824218Q72.40834925537109,17.06609344482422,82.0989492553711,22.681173444824218L82.1126492553711,22.68909344482422L82.12654925537109,22.696573444824217Q88.2771492553711,26.005693444824217,93.1657492553711,31.92699344482422L93.1961492553711,31.96369344482422L93.2298492553711,31.99739344482422Q94.23964925537109,33.00719344482422,94.94244925537109,34.174693444824214L94.97454925537109,34.22799344482422L95.0130492553711,34.276993444824214Q99.15364925537109,39.543293444824215,101.35134925537109,45.91689344482422Z" fill-rule="evenodd" fill="#D1D6DA" fill-opacity="1"/></g><g><path d="M37.79020046875,4.05922Q37.79020046875,4.25863,37.77064046875,4.45709Q37.75109046875,4.65554,37.71216046875,4.85113Q37.67324046875,5.04671,37.61532046875,5.23754Q37.557400468750004,5.42837,37.48105046875,5.61261Q37.40469046875,5.79685,37.31064046875,5.97272Q37.21659046875,6.14859,37.10574046875,6.31439Q36.99489046875,6.4802,36.868310468749996,6.63435Q36.74174046875,6.78851,36.60065046875,6.92951Q36.45957046875,7.07052,36.30534046875,7.19703Q36.15111046875,7.32354,35.98521046875,7.43433Q35.819310468750004,7.54512,35.64335046875,7.63912Q35.46739046875,7.73313,35.28305046875,7.80944Q35.09872046875,7.88575,34.90779046875,7.94364Q34.71686046875,8.00153,34.52117046875,8.04043Q34.32548046875,8.07934,34.12692046875,8.09888Q33.92836046875,8.11843,33.72884046875,8.11843Q33.52932046875,8.11843,33.33076046875,8.09888Q33.13220046875,8.07934,32.93651046875,8.04043Q32.74082046875,8.00153,32.54989046875,7.94364Q32.35896046875,7.88575,32.17462046875,7.80944Q31.99029046875,7.73313,31.81433046875,7.63912Q31.63837046875,7.54512,31.47247046875,7.43433Q31.30657046875,7.32354,31.15234046875,7.19703Q30.99811046875,7.07052,30.85702046875,6.92951Q30.71594046875,6.78851,30.58936646875,6.63435Q30.46279146875,6.4802,30.35194346875,6.31439Q30.24109446875,6.14859,30.14704046875,5.97272Q30.05298646875,5.79685,29.97663346875,5.61261Q29.90027946875,5.42837,29.84236146875,5.23754Q29.78444346875,5.04671,29.745518368749998,4.85113Q29.70659356875,4.65554,29.68703706875,4.45709Q29.66748046875,4.25863,29.66748046875,4.05922Q29.66748046875,3.8598,29.68703706875,3.66134Q29.70659356875,3.46289,29.745518368749998,3.2673Q29.78444346875,3.07172,29.84236146875,2.88089Q29.90027946875,2.69006,29.97663346875,2.50582Q30.05298646875,2.32158,30.14704046875,2.14571Q30.24109446875,1.96984,30.35194346875,1.80404Q30.46279146875,1.63823,30.58936646875,1.48408Q30.71594046875,1.32993,30.85702046875,1.18892Q30.99811046875,1.04791,31.15234046875,0.921399Q31.30657046875,0.794891,31.47247046875,0.684101Q31.63837046875,0.573311,31.81433046875,0.479307Q31.99029046875,0.385303,32.17462046875,0.308989Q32.35896046875,0.232676,32.54989046875,0.174788Q32.74082046875,0.116901,32.93651046875,0.0779967Q33.13220046875,0.0390925,33.33076046875,0.0195462Q33.52932046875,0,33.72884046875,0Q33.92836046875,0,34.12692046875,0.0195462Q34.32548046875,0.0390925,34.52117046875,0.0779967Q34.71686046875,0.116901,34.90779046875,0.174788Q35.09872046875,0.232676,35.28306046875,0.308989Q35.46739046875,0.385303,35.64335046875,0.479307Q35.819310468750004,0.573311,35.98521046875,0.684101Q36.15111046875,0.794891,36.30534046875,0.921399Q36.45957046875,1.04791,36.60066046875,1.18892Q36.74174046875,1.32993,36.868310468749996,1.48408Q36.99489046875,1.63823,37.10574046875,1.80404Q37.21659046875,1.96984,37.31064046875,2.14571Q37.40469046875,2.32158,37.48105046875,2.50582Q37.557400468750004,2.69006,37.61532046875,2.88089Q37.67324046875,3.07172,37.71216046875,3.2673Q37.75109046875,3.46289,37.77064046875,3.66134Q37.79020046875,3.8598,37.79020046875,4.05922Z" fill="#F4F5F7" fill-opacity="1"/></g><g><path d="M119.99999127929688,48.21370379516601Q119.99999127929688,48.41311379516601,119.98044127929687,48.61157379516602Q119.96090127929688,48.81002379516602,119.92199127929688,49.00561379516601Q119.88309127929688,49.20119379516601,119.82520127929688,49.39202379516602Q119.76731127929688,49.58285379516602,119.69100127929687,49.76709379516602Q119.61469127929688,49.951333795166015,119.52068127929688,50.12720379516602Q119.42668127929687,50.303073795166014,119.31589127929688,50.46887379516602Q119.20510127929687,50.63468379516601,119.07859127929687,50.78883379516601Q118.95208127929688,50.94299379516602,118.81107127929687,51.083993795166016Q118.67007127929688,51.22500379516602,118.51591127929687,51.351513795166014Q118.36176127929687,51.47802379516602,118.19595127929688,51.58881379516602Q118.03015127929687,51.69960379516601,117.85428127929687,51.793603795166014Q117.67841127929688,51.88761379516602,117.49417127929688,51.96392379516602Q117.30993127929688,52.04023379516602,117.11910127929687,52.09812379516602Q116.92827127929688,52.15601379516602,116.73269127929687,52.194913795166016Q116.53710127929688,52.23382379516602,116.33865127929687,52.25336379516602Q116.14019127929687,52.27291379516602,115.94078127929687,52.27291379516602Q115.74136127929688,52.27291379516602,115.54290127929687,52.25336379516602Q115.34445127929688,52.23382379516602,115.14886127929688,52.194913795166016Q114.95328127929687,52.15601379516602,114.76245127929687,52.09812379516602Q114.57162127929688,52.04023379516602,114.38738127929687,51.96392379516602Q114.20314127929687,51.88761379516602,114.02727127929687,51.793603795166014Q113.85140127929688,51.69960379516601,113.68560127929688,51.58881379516602Q113.51979127929687,51.47802379516602,113.36564127929688,51.351513795166014Q113.21149127929688,51.22500379516602,113.07048127929687,51.083993795166016Q112.92947127929688,50.94299379516602,112.80296027929687,50.78883379516601Q112.67645227929688,50.63468379516601,112.56566227929687,50.46887379516602Q112.45487227929688,50.303073795166014,112.36086827929688,50.12720379516602Q112.26686427929687,49.951333795166015,112.19055027929687,49.76709379516602Q112.11423727929687,49.58285379516602,112.05634927929688,49.39202379516602Q111.99846227929687,49.20119379516601,111.95955797929687,49.00561379516601Q111.92065377929687,48.81002379516602,111.90110747929687,48.61157379516602Q111.88156127929688,48.41311379516601,111.88156127929688,48.21370379516601Q111.88156127929688,48.014283795166016,111.90110747929687,47.81582379516602Q111.92065377929687,47.61737379516602,111.95955797929687,47.421783795166014Q111.99846227929687,47.226203795166015,112.05634927929688,47.03537379516602Q112.11423727929687,46.84454379516602,112.19055027929687,46.660303795166016Q112.26686427929687,46.47606379516601,112.36086827929688,46.30019379516602Q112.45487227929688,46.12432379516601,112.56566227929687,45.958523795166016Q112.67645227929688,45.792713795166016,112.80296027929687,45.638563795166014Q112.92947127929688,45.48441379516601,113.07048127929687,45.34340379516602Q113.21149127929688,45.20239379516602,113.36564127929688,45.07588279516602Q113.51979127929687,44.949374795166015,113.68560127929688,44.838584795166014Q113.85140127929688,44.72779479516601,114.02727127929687,44.633790795166014Q114.20314127929687,44.539786795166016,114.38738127929687,44.46347279516601Q114.57162127929688,44.38715979516601,114.76245127929687,44.329271795166015Q114.95328127929687,44.271384795166014,115.14886127929688,44.232480495166016Q115.34445127929688,44.19357629516602,115.54290127929687,44.174029995166016Q115.74136127929688,44.154483795166016,115.94078127929687,44.154483795166016Q116.14019127929687,44.154483795166016,116.33865127929687,44.174029995166016Q116.53710127929688,44.19357629516602,116.73269127929687,44.232480495166016Q116.92827127929688,44.271384795166014,117.11910127929687,44.329271795166015Q117.30993127929688,44.38715979516601,117.49417127929688,44.46347279516601Q117.67841127929688,44.539786795166016,117.85428127929687,44.633790795166014Q118.03015127929687,44.72779479516601,118.19595127929688,44.838584795166014Q118.36176127929687,44.949374795166015,118.51591127929687,45.07588279516602Q118.67007127929688,45.20239379516602,118.81107127929687,45.34340379516602Q118.95208127929688,45.48441379516601,119.07859127929687,45.638563795166014Q119.20510127929687,45.792713795166016,119.31589127929688,45.958523795166016Q119.42668127929687,46.12432379516601,119.52068127929688,46.30019379516602Q119.61469127929688,46.47606379516601,119.69100127929687,46.660303795166016Q119.76731127929688,46.84454379516602,119.82520127929688,47.03537379516602Q119.88309127929688,47.226203795166015,119.92199127929688,47.421783795166014Q119.96090127929688,47.61737379516602,119.98044127929687,47.81582379516602Q119.99999127929688,48.014283795166016,119.99999127929688,48.21370379516601Z" fill="#F4F5F7" fill-opacity="1"/></g><g><path d="M108.3029560546875,4.4805990234375L104.0463360546875,4.4805990234375L104.0463360546875,0.2239990234375L100.3990560546875,0.2239990234375L100.3990560546875,4.4805990234375L96.1424560546875,4.4805990234375L96.1424560546875,8.2480290234375L100.3990560546875,8.2480290234375L100.3990560546875,12.5045990234375L104.0463360546875,12.5045990234375L104.0463360546875,8.2480290234375L108.3029560546875,8.2480290234375L108.3029560546875,4.4805990234375Z" fill="#9DA7AF" fill-opacity="0.6000000238418579"/></g><g><path d="M11.6765,24.733759112548828L7.53744,24.733759112548828L7.53744,20.597309112548828L3.99056,20.597309112548828L3.99056,24.733759112548828L0,24.733759112548828L0,28.278069112548827L3.99056,28.278069112548827L3.99056,32.26860911254883L7.53744,32.26860911254883L7.53744,28.278069112548827L11.6765,28.278069112548827L11.6765,24.733759112548828Z" fill="#9DA7AF" fill-opacity="0.6000000238418579"/></g><g><g mask="url(#master_svg0_127_3505)"><g><path d="M15.43465265625,89.6181423828125L24.47437265625,89.6181423828125C27.72837265625,89.6181423828125,30.36397265625,86.9825423828125,30.36397265625,83.72854238281249L30.36397265625,38.0909423828125L14.83933265625,38.0909423828125C9.955372656249999,38.0909423828125,6.14067765625,42.3102223828125,6.62618425625,47.1710623828125L10.43509265625,85.0925423828125C10.69519265625,87.65884238281251,12.85107265625,89.6124423828125,15.43465265625,89.6124423828125L15.43465265625,89.6181423828125Z" fill="#FFFFFF" fill-opacity="1"/><path d="M15.31848265625,90.6114423828125Q13.06946265625,90.5733423828125,11.392682656249999,89.05644238281249Q9.67413265625,87.50164238281249,9.44010265625,85.19254238281249L5.63113665625,47.2704523828125Q5.43115265625,45.2682323828125,6.07075665625,43.3806923828125Q6.68575765625,41.5657623828125,7.97753265625,40.1374223828125Q9.26948265625,38.7088963828125,11.013372656249999,37.9158593828125Q12.827372656249999,37.0909423828125,14.83933265625,37.0909423828125L30.36397265625,37.0909423828125Q30.46247265625,37.0909423828125,30.55907265625,37.1101573828125Q30.65567265625,37.1293723828125,30.74667265625,37.1670633828125Q30.83767265625,37.2047543828125,30.91957265625,37.2594723828125Q31.00147265625,37.3141913828125,31.07107265625,37.3838353828125Q31.14077265625,37.4534793828125,31.19547265625,37.5353723828125Q31.25017265625,37.6172643828125,31.28787265625,37.7082593828125Q31.32557265625,37.7992533828125,31.34477265625,37.8958523828125Q31.36397265625,37.9924509828125,31.36397265625,38.0909423828125L31.36397265625,83.72854238281249Q31.36397265625,86.5832423828125,29.34657265625,88.6007423828125Q27.32907265625,90.6182423828125,24.47437265625,90.6181423828125L15.43465265625,90.6181423828125Q15.37637265625,90.6181423828125,15.31848265625,90.6114423828125ZM15.54211265625,88.6181423828125Q15.48854265625,88.6124423828125,15.43465265625,88.6124423828125Q13.88306265625,88.6124423828125,12.73445265625,87.57324238281251Q11.58637265625,86.5346423828125,11.43009265625,84.9926423828125L7.62123265625,47.0716723828125Q7.46426865625,45.5001523828125,7.96496265625,44.0225623828125Q8.44700265625,42.6000123828125,9.46088265625,41.4789523828125Q10.47476265625,40.3578823828125,11.841292656250001,39.7364523828125Q13.260772656250001,39.0909423828125,14.83933265625,39.0909423828125L29.36397265625,39.0909423828125L29.36397265625,83.72854238281249Q29.36397265625,85.7548423828125,27.93227265625,87.18654238281249Q26.50067265625,88.6181423828125,24.47437265625,88.6181423828125L15.54211265625,88.6181423828125Z" fill-rule="evenodd" fill="#D1D6DA" fill-opacity="1"/></g></g><g><path d="M99.9155,81.50623662109375Q105.6522,71.35673662109375,105.6521,59.58423662109375Q105.6522,52.14903662109375,103.29,45.29883662109375Q100.9925,38.63553662109375,96.6712,33.123036621093746Q95.8636,31.79653662109375,94.726,30.65123662109375Q89.6045,24.460546621093748,83.136,20.97673662109375Q72.9859,15.10003662109375,60.9902,15.10003662109375Q51.9353,15.10003662109375,43.6683,18.59423662109375Q35.683099999999996,21.96929662109375,29.5271,28.12403662109375Q23.37104,34.27893662109375,19.99519,42.26313662109375Q16.5,50.52953662109375,16.5,59.58423662109375Q16.5,65.97753662109375,18.26906,72.06203662109375Q19.985129999999998,77.96413662109376,23.25168,83.19483662109376Q26.47141,88.35053662109375,30.9591,92.47513662109375Q35.465,96.61643662109375,40.9046,99.40133662109375Q50.3543,104.24873662109376,61.1593,104.24873662109376Q66.9248,104.24873662109376,72.50280000000001,102.75353662109374Q77.9296,101.29893662109374,82.807,98.53173662109376L82.8417,98.51203662109376L82.8747,98.48963662109375Q82.9823,98.41673662109375,83.2124,98.25663662109375Q84.145,97.60803662109375,84.6185,97.37433662109375L84.6606,97.35353662109375L84.7005,97.32893662109375Q94.3259,91.39583662109375,99.9155,81.50623662109375ZM101.3993,45.95083662109375Q103.6521,52.48413662109375,103.6521,59.58423662109375Q103.6521,70.83063662109376,98.1744,80.52213662109375Q92.849,89.94423662109375,83.6885,95.60323662109376Q83.0874,95.90743662109375,82.0705,96.61473662109375Q81.8837,96.74463662109375,81.7848,96.81213662109376Q77.14529999999999,99.43853662109375,71.985,100.82173662109375Q66.6614,102.24873662109376,61.1593,102.24873662109376Q50.8373,102.24873662109376,41.8174,97.62173662109375Q36.618300000000005,94.96013662109375,32.3125,91.00253662109375Q28.0243,87.06133662109374,24.948059999999998,82.13543662109375Q21.82825,77.13983662109375,20.18953,71.50363662109375Q18.5,65.69273662109376,18.5,59.58423662109375Q18.5,50.93493662109375,21.8373,43.041936621093754Q25.061149999999998,35.41733662109375,30.941200000000002,29.538336621093748Q36.821200000000005,23.65957662109375,44.4469,20.43644662109375Q52.3407,17.10003262109375,60.9902,17.10003262109375Q72.4563,17.10003662109375,82.1469,22.71511662109375L82.1606,22.72303662109375L82.1745,22.73051662109375Q88.3251,26.03963662109375,93.2137,31.96093662109375L93.2441,31.99763662109375L93.2778,32.03133662109375Q94.2876,33.04113662109375,94.9904,34.208636621093746L95.0225,34.26193662109375L95.061,34.310936621093745Q99.2016,39.577236621093746,101.3993,45.95083662109375Z" fill-rule="evenodd" fill="#D1D6DA" fill-opacity="1"/></g><g><g><path d="M73.64769151611328,89.49679091796875L39.89350151611328,89.59509091796875C35.529721516113284,89.60669091796875,30.24695141611328,86.06369091796876,30.25851356441328,81.69979091796876L30.36255051611328,38.085190917968745Q45.73109151611328,35.57099091796875,45.03179151611328,13.21455091796875C45.03179151611328,1.33699091796875,71.24909151611328,5.81058091796875,60.86269151611328,38.085190917968745L89.89489151611329,38.085190917968745C93.43789151611328,38.085190917968745,96.33359151611329,40.98669091796875,96.33359151611329,44.52389091796875C96.33359151611329,48.06699091796875,93.43209151611327,50.96269091796875,89.89489151611329,50.96269091796875L80.90719151611327,50.96269091796875L89.89489151611329,50.96269091796875C93.43789151611328,50.96269091796875,96.33359151611329,53.86419091796875,96.33359151611329,57.40139091796875C96.33359151611329,60.94449091796875,93.43209151611327,63.84019091796875,89.89489151611329,63.84019091796875L79.17329151611328,63.84019091796875L79.25419151611328,63.84019091796875L88.24179151611328,63.84019091796875C91.78489151611328,63.84019091796875,94.68059151611328,66.74159091796875,94.68059151611328,70.27889091796875C94.68059151611328,73.82189091796874,91.77909151611328,76.71759091796875,88.24179151611328,76.71759091796875L78.09819151611327,76.71759091796875L77.88439151611328,76.71759091796875L83.40409151611328,76.71759091796875C86.94709151611329,76.71759091796875,89.84279151611328,79.61909091796875,89.84279151611328,83.15639091796875C89.84279151611328,86.69939091796876,86.94139151611327,89.59509091796875,83.40409151611328,89.59509091796875L73.64199151611328,89.47369091796875L73.64769151611328,89.49679091796875Z" fill="#FFFFFF" fill-opacity="1"/><path d="M80.90719151611327,51.96269091796875Q80.80869151611327,51.96269091796875,80.71209151611328,51.94349091796875Q80.61549151611328,51.92419091796875,80.52449151611327,51.88649091796875Q80.43349151611328,51.84889091796875,80.35159151611327,51.79409091796875Q80.26969151611328,51.73939091796875,80.20009151611328,51.66979091796875Q80.13039151611328,51.60009091796875,80.07569151611328,51.51819091796875Q80.02099151611328,51.43629091796875,79.98329151611328,51.34529091796875Q79.94559151611328,51.25439091796875,79.92639151611328,51.15779091796875Q79.90719151611327,51.06119091796875,79.90719151611327,50.96269091796875Q79.90719151611327,50.86419091796875,79.92639151611328,50.76759091796875Q79.94559151611328,50.67099091796875,79.98329151611328,50.57999091796875Q80.02099151611328,50.48899091796875,80.07569151611328,50.40709091796875Q80.13039151611328,50.32519091796875,80.20009151611328,50.25559091796875Q80.26969151611328,50.18589091796875,80.35159151611327,50.13119091796875Q80.43349151611328,50.07649091796875,80.52449151611327,50.03879091796875Q80.61549151611328,50.00109091796875,80.71209151611328,49.98189091796875Q80.80869151611327,49.96269091796875,80.90719151611327,49.96269091796875L89.89489151611329,49.96269091796875Q92.13479151611328,49.96269091796875,93.73379151611329,48.36459091796875Q95.33359151611329,46.76579091796875,95.33359151611329,44.52389091796875Q95.33359151611329,42.28399091796875,93.73559151611329,40.68499091796875Q92.13679151611328,39.085190917968745,89.89489151611329,39.085190917968745L60.86269151611328,39.085190917968745Q60.76429151611328,39.085190917968745,60.66769151611328,39.06599091796875Q60.571091516113285,39.04679091796875,60.480091516113276,39.00909091796875Q60.38909151611328,38.97139091796875,60.30719151611328,38.91669091796875Q60.22529151611328,38.86189091796875,60.155591516113276,38.79229091796875Q60.08599151611328,38.72269091796875,60.031291516113285,38.64079091796875Q59.97659151611328,38.55889091796875,59.93889151611328,38.467890917968745Q59.901191516113286,38.37689091796875,59.88199151611328,38.28029091796875Q59.86269151611328,38.18369091796875,59.86269151611328,38.085190917968745Q59.86269151611328,37.92829091796875,59.91079151611328,37.77889091796875Q63.415691516113284,26.88759091796875,61.79209151611328,19.117590917968748Q61.114791516113286,15.87688091796875,59.57259151611328,13.43501091796875Q58.197791516113284,11.25828091796875,56.269891516113276,9.91285091796875Q54.52039151611328,8.69199091796875,52.598091516113286,8.337670917968751Q50.79989151611328,8.00622691796875,49.27519151611328,8.50209091796875Q47.790691516113284,8.98492091796875,46.94489151611328,10.14007091796875Q46.03549151611328,11.382050917968751,46.03179151611328,13.19980091796875Q46.38729151611328,24.65579091796875,42.57549151611328,31.11849091796875Q38.87359151611328,37.394690917968745,31.360561516113282,38.91899091796875L31.25851151611328,81.70219091796875Q31.255064516113283,83.00279091796875,32.00516151611328,84.26529091796876Q32.73220151611328,85.48909091796875,34.04373151611328,86.49469091796875Q35.32831151611328,87.47959091796875,36.88384151611328,88.03899091796875Q38.44091151611328,88.59899091796875,39.89085151611328,88.59509091796875L73.42529151611328,88.49749091796875Q73.53849151611328,88.47239091796875,73.65439151611328,88.47379091796876L83.41659151611327,88.59519091796875Q85.64399151611329,88.59509091796875,87.24309151611328,86.99709091796875Q88.84279151611328,85.39829091796875,88.84279151611328,83.15639091796875Q88.84279151611328,80.91649091796874,87.24479151611328,79.31739091796875Q85.64599151611328,77.71759091796875,83.40409151611328,77.71759091796875L77.88439151611328,77.71759091796875Q77.78589151611328,77.71759091796875,77.68929151611329,77.69839091796875Q77.59269151611329,77.67919091796875,77.50169151611328,77.64149091796875Q77.41069151611327,77.60379091796875,77.32879151611328,77.54909091796875Q77.24689151611328,77.49429091796875,77.17729151611329,77.42469091796875Q77.10759151611327,77.35509091796875,77.05289151611328,77.27319091796875Q76.99819151611328,77.19129091796874,76.96049151611328,77.10029091796875Q76.92279151611328,77.00929091796876,76.90359151611328,76.91269091796875Q76.88439151611328,76.81609091796875,76.88439151611328,76.71759091796875Q76.88439151611328,76.61909091796875,76.90359151611328,76.52249091796875Q76.92279151611328,76.42589091796874,76.96049151611328,76.33489091796875Q76.99819151611328,76.24389091796876,77.05289151611328,76.16199091796875Q77.10759151611327,76.08009091796875,77.17729151611329,76.01049091796875Q77.24689151611328,75.94079091796876,77.32879151611328,75.88609091796874Q77.41069151611327,75.83139091796875,77.50169151611328,75.79369091796875Q77.59269151611329,75.75599091796875,77.68929151611329,75.73679091796875Q77.78589151611328,75.71759091796875,77.88439151611328,75.71759091796875L88.24179151611328,75.71759091796875Q90.48169151611327,75.71759091796875,92.08079151611328,74.11959091796875Q93.68059151611328,72.52079091796875,93.68059151611328,70.27889091796875Q93.68059151611328,68.03899091796876,92.08249151611328,66.43989091796874Q90.48369151611328,64.84019091796876,88.24179151611328,64.84019091796876L79.17329151611328,64.84019091796876Q79.07479151611328,64.84019091796876,78.97819151611328,64.82089091796874Q78.88159151611328,64.80169091796876,78.79059151611328,64.76399091796875Q78.69959151611329,64.72629091796875,78.61769151611328,64.67159091796876Q78.53579151611328,64.61689091796876,78.46619151611328,64.54729091796875Q78.39649151611329,64.47759091796874,78.34179151611329,64.39569091796875Q78.28709151611328,64.31379091796876,78.24939151611329,64.22279091796875Q78.21169151611329,64.13179091796874,78.19249151611328,64.03519091796875Q78.17329151611328,63.93859091796875,78.17329151611328,63.84019091796875Q78.17329151611328,63.74169091796875,78.19249151611328,63.64509091796875Q78.21169151611329,63.54849091796875,78.24939151611329,63.45749091796875Q78.28709151611328,63.36649091796875,78.34179151611329,63.28459091796875Q78.39649151611329,63.20269091796875,78.46619151611328,63.13299091796875Q78.53579151611328,63.06339091796875,78.61769151611328,63.00869091796875Q78.69959151611329,62.95399091796875,78.79059151611328,62.91629091796875Q78.88159151611328,62.87859091796875,78.97819151611328,62.85939091796875Q79.07479151611328,62.84019091796875,79.17329151611328,62.84019091796875L89.89489151611329,62.84019091796875Q92.13479151611328,62.84019091796875,93.73379151611329,61.24209091796875Q95.33359151611329,59.64329091796875,95.33359151611329,57.40139091796875Q95.33359151611329,55.16149091796875,93.73559151611329,53.56249091796875Q92.13679151611328,51.96269091796875,89.89489151611329,51.96269091796875L80.90719151611327,51.96269091796875ZM93.64309151611329,50.96259091796875Q94.44309151611328,51.44109091796875,95.15019151611328,52.14869091796875Q97.33359151611329,54.33349091796875,97.33359151611329,57.40139091796875Q97.33359151611329,60.47209091796875,95.14759151611328,62.65679091796875Q94.03349151611329,63.77019091796875,92.68959151611328,64.31589091796874Q93.10749151611327,64.63619091796875,93.49719151611328,65.02619091796875Q95.68059151611328,67.21089091796875,95.68059151611328,70.27889091796875Q95.68049151611328,73.34959091796875,93.49449151611327,75.53419091796874Q91.38949151611328,77.63789091796875,88.46459151611327,77.71469091796875Q88.56289151611328,77.80709091796875,88.65939151611329,77.90359091796876Q90.84279151611328,80.08839091796875,90.84279151611328,83.15639091796875Q90.84279151611328,86.22709091796875,88.65679151611329,88.41169091796876Q86.47209151611328,90.59509091796875,83.39169151611328,90.59499091796874L73.84889151611328,90.47639091796874Q73.75079151611328,90.49649091796876,73.65059151611328,90.49679091796875L39.89615151611328,90.59509091796875Q38.094821516113285,90.59989091796875,36.20704151611328,89.92099091796875Q34.35848151611328,89.25629091796876,32.82678151611328,88.08179091796875Q31.209526516113282,86.84179091796875,30.28572911611328,85.28689091796875Q29.25361151611328,83.54959091796874,29.258516516113282,81.69749091796875L29.36255351611328,38.08279091796875Q29.362763516113283,37.994690917968754,29.378380516113282,37.907990917968746Q29.39399751611328,37.82119091796875,29.42453951611328,37.73859091796875Q29.45508151611328,37.65589091796875,29.499607516113283,37.579890917968754Q29.54413351611328,37.50379091796875,29.601271516113282,37.43679091796875Q29.65840851611328,37.369690917968754,29.72639751611328,37.31359091796875Q29.79438551611328,37.25759091796875,29.87112951611328,37.21429091796875Q29.94787351611328,37.17099091796875,30.03100751611328,37.141690917968745Q30.11414051611328,37.11249091796875,30.20110281611328,37.098290917968754Q37.42335151611328,35.916790917968754,40.852791516113285,30.10239091796875Q44.372891516113285,24.13439091796875,44.03229151611328,13.24582091796875Q44.03179151611328,13.23019091796875,44.03179151611328,13.21455091796875Q44.03179151611328,10.73315091796875,45.33119151611328,8.95852091796875Q46.558291516113286,7.28260331796875,48.656691516113284,6.60015491796875Q50.66369151611328,5.94742091796875,52.960691516113286,6.37080191796875Q55.30939151611328,6.80372191796875,57.414391516113284,8.27275091796875Q59.67319151611328,9.84910091796875,61.26349151611328,12.367000917968749Q62.99869151611328,15.11425091796875,63.749791516113284,18.70849091796875Q65.38169151611328,26.51769091796875,62.22039151611328,37.085190917968745L89.89489151611329,37.085190917968745Q92.96549151611327,37.085190917968745,95.15019151611328,39.27119091796875Q97.33359151611329,41.45599091796875,97.33359151611329,44.52389091796875Q97.33359151611329,47.59459091796875,95.14759151611328,49.77929091796875Q94.44149151611329,50.48499091796875,93.64309151611329,50.96259091796875Z" fill-rule="evenodd" fill="#D1D6DA" fill-opacity="1"/></g></g></g></g></svg>