<?xml version="1.0" encoding="utf-8"?>
<!-- Generator: Adobe Illustrator 25.0.0, SVG Export Plug-In . SVG Version: 6.00 Build 0)  -->
<svg version="1.1" id="图层_1" xmlns="http://www.w3.org/2000/svg" xmlns:xlink="http://www.w3.org/1999/xlink" x="0px" y="0px"
	 viewBox="0 0 1024 1024" style="enable-background:new 0 0 1024 1024;" xml:space="preserve">
<style type="text/css">
	.st0{clip-path:url(#SVGID_1_);}
	.st1{clip-path:url(#SVGID_2_);}
	.st2{fill:#33C481;}
	.st3{opacity:0.4;}
	.st4{clip-path:url(#SVGID_3_);}
	.st5{fill:#FFFFFF;}
</style>
<g>
	<g>
		<g>
			<defs>
				<rect id="SVGID_7_" x="96" y="96" width="832" height="832"/>
			</defs>
			<clipPath id="SVGID_1_">
				<use xlink:href="#SVGID_7_"  style="overflow:visible;"/>
			</clipPath>
			<g id="组_258" class="st0">
				<g id="组_257" transform="translate(8 2)">
					<g>
						<g>
							<g>
								<defs>
									<rect id="SVGID_9_" x="192" y="120" width="624" height="780"/>
								</defs>
								<clipPath id="SVGID_2_">
									<use xlink:href="#SVGID_9_"  style="overflow:visible;"/>
								</clipPath>
								<g id="组_256" class="st1">
									<path id="路径_139" class="st2" d="M270,120c-43,0.1-77.9,35-78,78v624c0.1,43,35,77.9,78,78h468c43-0.1,77.9-35,78-78
										V352.1L584,120H270z"/>
									<g id="组_255" transform="translate(30.15)" class="st3">
										<g id="组_254">
											<g>
												<g>
													<g>
														<defs>
															<rect id="SVGID_11_" x="553.8" y="120" width="232.1" height="232.1"/>
														</defs>
														<clipPath id="SVGID_3_">
															<use xlink:href="#SVGID_11_"  style="overflow:visible;"/>
														</clipPath>
														<g id="组_253" class="st4">
															<path id="路径_140" class="st5" d="M631.8,352.1h154L553.8,120v154.1C553.9,317.1,588.8,351.9,631.8,352.1"/>
														</g>
													</g>
												</g>
											</g>
										</g>
									</g>
									<path id="路径_141" class="st5" d="M351.8,735.6l69.8-110.4l-64.6-102h40.5l29.3,49.8c5.5,9.5,9.9,17.4,13.4,23.8
										c5.3-8.8,10.1-16.6,14.5-23.4l32.2-50.2h38.7l-66.1,100l71.1,112.4h-39.7l-39.2-66l-10.4-17.8l-50.2,83.7h-39.3
										L351.8,735.6L351.8,735.6z"/>
								</g>
							</g>
						</g>
					</g>
				</g>
			</g>
		</g>
	</g>
</g>
</svg>
