<?xml version="1.0" encoding="utf-8"?>
<!-- Generator: Adobe Illustrator 25.0.0, SVG Export Plug-In . SVG Version: 6.00 Build 0)  -->
<svg version="1.1" id="图层_1" xmlns="http://www.w3.org/2000/svg" xmlns:xlink="http://www.w3.org/1999/xlink" x="0px" y="0px"
	 viewBox="0 0 1024 1024" style="enable-background:new 0 0 1024 1024;" xml:space="preserve">
<style type="text/css">
	.st0{clip-path:url(#SVGID_1_);}
	.st1{clip-path:url(#SVGID_2_);}
	.st2{fill:#6067DC;}
	.st3{opacity:0.4;}
	.st4{clip-path:url(#SVGID_3_);}
	.st5{fill:#FFFFFF;}
</style>
<g>
	<g>
		<defs>
			<rect id="SVGID_7_" x="96" y="96" width="832" height="832"/>
		</defs>
		<clipPath id="SVGID_1_">
			<use xlink:href="#SVGID_7_"  style="overflow:visible;"/>
		</clipPath>
		<g id="组_395" class="st0">
			<g id="组_394" transform="translate(8 2)">
				<g>
					<g>
						<defs>
							<rect id="SVGID_9_" x="192" y="120" width="624" height="780"/>
						</defs>
						<clipPath id="SVGID_2_">
							<use xlink:href="#SVGID_9_"  style="overflow:visible;"/>
						</clipPath>
						<g id="组_393" class="st1">
							<path id="路径_210" class="st2" d="M270,120c-43,0.1-77.9,35-78,78v624c0.1,43,35,77.9,78,78h468c43-0.1,77.9-35,78-78
								V352.1L584,120H270z"/>
							<g id="组_392" transform="translate(30.15)" class="st3">
								<g id="组_391">
									<g>
										<g>
											<defs>
												<rect id="SVGID_11_" x="553.8" y="120" width="232.1" height="232.1"/>
											</defs>
											<clipPath id="SVGID_3_">
												<use xlink:href="#SVGID_11_"  style="overflow:visible;"/>
											</clipPath>
											<g id="组_390" class="st4">
												<path id="路径_211" class="st5" d="M631.8,352.1h154L553.8,120v154.1C553.9,317.1,588.8,351.9,631.8,352.1"/>
											</g>
										</g>
									</g>
								</g>
							</g>
							<path id="路径_212" class="st5" d="M508.9,615.6v27.7l52.8,46.3c6.6,5.7,16.6,5.1,22.3-1.5c2.5-2.9,3.9-6.6,3.9-10.4v-96.3
								c0-8.7-7-15.8-15.8-15.8c-3.8,0-7.5,1.4-10.4,3.9L508.9,615.6z"/>
							<path id="路径_213" class="st5" d="M469.9,526.6H334.5c-21.5,0-38.9,17.5-39,39v127.5c0.1,21.5,17.5,38.9,39,39h135.4
								c21.5-0.1,38.9-17.5,39-39V565.6C508.8,544.1,491.4,526.7,469.9,526.6 M440.1,635.6l-50.9,40.8c-3.4,2.8-8.5,2.2-11.2-1.2
								c-1.1-1.4-1.8-3.2-1.8-5v-81.5c0-4.4,3.6-8,8-8c1.8,0,3.6,0.6,5,1.7l50.9,40.8c3.4,2.7,4,7.8,1.3,11.2
								C441,634.9,440.6,635.3,440.1,635.6"/>
						</g>
					</g>
				</g>
			</g>
		</g>
	</g>
</g>
</svg>
