<?xml version="1.0" encoding="utf-8"?>
<!-- Generator: Adobe Illustrator 26.1.0, SVG Export Plug-In . SVG Version: 6.00 Build 0)  -->
<svg version="1.1" id="图层_1" xmlns="http://www.w3.org/2000/svg" xmlns:xlink="http://www.w3.org/1999/xlink" x="0px" y="0px"
	 viewBox="0 0 1024 1024" style="enable-background:new 0 0 1024 1024;" xml:space="preserve">
<style type="text/css">
	.st0{fill:#8BCF70;}
</style>
<g>
	<path class="st0" d="M852.2,116.8H171.8c-47,0-85,38.1-85,85v662.7c0,37.9,45.8,56.9,72.6,30.1l86.4-86.4
		c16-16,37.6-24.9,60.1-24.9h546.3c47,0,85-38.1,85-85V201.9C937.2,154.9,899.1,116.8,852.2,116.8z M356.6,494.6
		c-23.5,0-42.7-19-42.7-42.5s18.8-42.5,42.3-42.5h0.4c23.5,0,42.5,19,42.5,42.5S380.1,494.6,356.6,494.6z M526.7,494.6
		c-23.5,0-42.7-19-42.7-42.5s18.8-42.5,42.3-42.5h0.4c23.5,0,42.5,19,42.5,42.5S550.2,494.6,526.7,494.6z M696.8,494.6
		c-23.5,0-42.7-19-42.7-42.5s18.8-42.5,42.3-42.5h0.4c23.5,0,42.5,19,42.5,42.5S720.3,494.6,696.8,494.6z"/>
</g>
</svg>
