<?xml version="1.0" standalone="no"?><!DOCTYPE svg PUBLIC "-//W3C//DTD SVG 1.1//EN" "http://www.w3.org/Graphics/SVG/1.1/DTD/svg11.dtd"><svg t="1656913775634" class="icon" viewBox="0 0 1024 1024" version="1.1" xmlns="http://www.w3.org/2000/svg" p-id="8737" xmlns:xlink="http://www.w3.org/1999/xlink"><defs><style type="text/css">@font-face { font-family: feedback-iconfont; src: url("//at.alicdn.com/t/font_1031158_u69w8yhxdu.woff2?t=1630033759944") format("woff2"), url("//at.alicdn.com/t/font_1031158_u69w8yhxdu.woff?t=1630033759944") format("woff"), url("//at.alicdn.com/t/font_1031158_u69w8yhxdu.ttf?t=1630033759944") format("truetype"); }
</style></defs><path d="M516.266667 640c-21.333333 0-38.4-4.266667-59.733334-17.066667l-337.066666-192c-21.333333-8.533333-38.4-34.133333-38.4-59.733333 0-25.6 12.8-51.2 38.4-64l337.066666-192c34.133333-21.333333 81.066667-21.333333 115.2 0L900.266667 298.666667c25.6 12.8 38.4 38.4 38.4 68.266666 0 29.866667-17.066667 55.466667-38.4 68.266667l-328.533334 187.733333c-17.066667 12.8-38.4 17.066667-55.466666 17.066667z m366.933333-230.4z" p-id="8738" fill="#6E99EB"></path><path d="M516.266667 785.066667c-25.6 0-55.466667-8.533333-81.066667-21.333334l-332.8-187.733333c-17.066667-8.533333-21.333333-29.866667-12.8-42.666667 8.533333-17.066667 29.866667-21.333333 42.666667-12.8l332.8 187.733334c29.866667 17.066667 64 17.066667 93.866666 0l332.8-187.733334c17.066667-8.533333 34.133333-4.266667 42.666667 12.8 8.533333 17.066667 4.266667 34.133333-12.8 42.666667l-332.8 187.733333c-21.333333 17.066667-46.933333 21.333333-72.533333 21.333334z" p-id="8739" fill="#6E99EB"></path><path d="M516.266667 925.866667c-34.133333 0-68.266667-8.533333-98.133334-25.6L102.4 725.333333c-17.066667-8.533333-21.333333-29.866667-12.8-42.666666 8.533333-17.066667 29.866667-21.333333 42.666667-12.8l311.466666 174.933333c42.666667 25.6 93.866667 25.6 136.533334 0l311.466666-174.933333c17.066667-8.533333 34.133333-4.266667 42.666667 12.8 8.533333 17.066667 4.266667 34.133333-12.8 42.666666l-311.466667 174.933334c-25.6 17.066667-59.733333 25.6-93.866666 25.6z" p-id="8740" fill="#6E99EB"></path></svg>
