<?xml version="1.0" standalone="no"?><!DOCTYPE svg PUBLIC "-//W3C//DTD SVG 1.1//EN" "http://www.w3.org/Graphics/SVG/1.1/DTD/svg11.dtd"><svg t="1656913800388" class="icon" viewBox="0 0 1024 1024" version="1.1" xmlns="http://www.w3.org/2000/svg" p-id="8906" xmlns:xlink="http://www.w3.org/1999/xlink"><defs><style type="text/css">@font-face { font-family: feedback-iconfont; src: url("//at.alicdn.com/t/font_1031158_u69w8yhxdu.woff2?t=1630033759944") format("woff2"), url("//at.alicdn.com/t/font_1031158_u69w8yhxdu.woff?t=1630033759944") format("woff"), url("//at.alicdn.com/t/font_1031158_u69w8yhxdu.ttf?t=1630033759944") format("truetype"); }
</style></defs><path d="M362.666667 648.533333m-34.133334 0a34.133333 34.133333 0 1 0 68.266667 0 34.133333 34.133333 0 1 0-68.266667 0Z" p-id="8907" fill="#9B96DF"></path><path d="M776.533333 85.333333H247.466667C179.2 85.333333 128 136.533333 128 204.8v618.666667C128 887.466667 179.2 938.666667 247.466667 938.666667h533.333333c64 0 119.466667-51.2 119.466667-119.466667V204.8C896 136.533333 844.8 85.333333 776.533333 85.333333zM362.666667 746.666667c-51.2 0-93.866667-42.666667-93.866667-93.866667s42.666667-93.866667 93.866667-93.866667 93.866667 42.666667 93.866666 93.866667-42.666667 93.866667-93.866666 93.866667zM469.333333 332.8l-106.666666 106.666667c-4.266667 4.266667-12.8 8.533333-21.333334 8.533333s-17.066667-4.266667-21.333333-8.533333l-42.666667-42.666667c-12.8-12.8-12.8-34.133333 0-46.933333s34.133333-12.8 46.933334 0l17.066666 21.333333 85.333334-85.333333c12.8-12.8 34.133333-12.8 46.933333 0s8.533333 34.133333-4.266667 46.933333z m256 349.866667h-170.666666c-17.066667 0-34.133333-12.8-34.133334-34.133334s12.8-34.133333 34.133334-34.133333h170.666666c17.066667 0 34.133333 12.8 34.133334 34.133333s-17.066667 34.133333-34.133334 34.133334z m0-298.666667h-170.666666c-17.066667 0-34.133333-12.8-34.133334-34.133333s12.8-34.133333 34.133334-34.133334h170.666666c17.066667 0 34.133333 12.8 34.133334 34.133334s-17.066667 34.133333-34.133334 34.133333z" p-id="8908" fill="#9B96DF"></path></svg>
