<svg id="图层_1" data-name="图层 1" xmlns="http://www.w3.org/2000/svg" viewBox="0 0 160.43 158.14"><defs><style>.cls-1{fill:#cefff8;opacity:0.3;}.cls-2{opacity:0.6;}.cls-3{fill:#28d5b6;}.cls-4{fill:#5993ff;}.cls-5{fill:#fff;}</style></defs><title>1</title><path class="cls-1" d="M157.22,94.42c4.26,2.45,4.28,6.47.05,8.93L73.81,151.86c-4.23,2.45-11.17,2.45-15.42,0L3.22,120c-4.26-2.45-4.28-6.47-.05-8.93l83.46-48.5c4.23-2.46,11.17-2.46,15.42,0Z"/><g class="cls-2"><path class="cls-3" d="M157.27,103.35,73.81,151.86c-4.23,2.45-11.17,2.45-15.42,0L3.22,120C1.08,118.77,0,117.13,0,115.51V120c0,1.63,1.06,3.26,3.2,4.5L58.38,156.3c4.25,2.46,11.19,2.46,15.41,0l83.47-48.5c2.1-1.22,3.15-2.83,3.16-4.44V98.91C160.42,100.52,159.37,102.13,157.27,103.35Z"/></g><path class="cls-4" d="M120.06,25.48c.23-.12.46-.22.69-.32l.34-.15.83-.31.18-.07c.33-.11.65-.21,1-.3l.27-.06c.24-.06.47-.12.7-.16a1.91,1.91,0,0,1,.33-.06L125,24l.33,0,.66,0,.25,0c.29,0,.59,0,.88,0s.44,0,.66.06l.18,0,.5.08.2,0,.57.14.06,0a6.26,6.26,0,0,1,.61.21l.17.06.45.19.16.08a6.19,6.19,0,0,1,.57.3h0l-6.94-4a6,6,0,0,0-.56-.3l-.17-.08-.44-.19-.17-.06a6.26,6.26,0,0,0-.61-.21h-.07c-.18-.06-.37-.1-.57-.15l-.19,0-.5-.08-.18,0c-.21,0-.42,0-.64-.06h0c-.29,0-.58,0-.88,0l-.24,0-.67,0-.32,0-.63.1-.34.06c-.23,0-.46.1-.69.16l-.27.06q-.5.14-1,.3l-.18.07c-.27.1-.54.2-.82.32l-.35.14-.69.32-.37.18c-.24.12-.48.24-.71.37l-.24.13-.23.13-6.13,3.34,6.93,4,6.13-3.34L119,26l.71-.37A3.26,3.26,0,0,1,120.06,25.48Z"/><path class="cls-4" d="M77.87,8l.92-.47.13-.06L80,7l.3-.14L81,6.55l.36-.15.69-.27L82.4,6l.77-.28.24-.08c.33-.12.67-.23,1-.33l.25-.07c.24-.08.49-.15.74-.21l.34-.1.66-.16.34-.08.69-.14.28-.06c.32-.06.64-.12,1-.16l.13,0,.81-.11.31,0,.63-.06.33,0c.2,0,.41,0,.62,0h1.19l.88,0,.21,0,.83.07.24,0,1,.14.17,0,.81.16.23.06c.31.07.62.15.92.24l.12,0,.8.26.22.08c.3.11.59.22.88.35l.06,0c.27.11.53.23.79.36L101,6l.82.44-6.94-4c-.27-.16-.54-.31-.82-.45l-.21-.11c-.26-.12-.52-.25-.79-.36l-.07,0c-.28-.13-.58-.24-.87-.35l-.23-.08L91.12.81,91,.77c-.31-.09-.61-.17-.92-.24L89.84.47,89,.31l-.16,0c-.32-.05-.64-.1-1-.13l-.23,0L86.83.05h-.21l-.87,0H84.56l-.63,0-.33,0L83,.13l-.3,0-.81.11-.13,0c-.32,0-.63.1-1,.16L80.5.51l-.69.14-.35.08L78.81.9a3.37,3.37,0,0,0-.34.09c-.25.06-.5.14-.75.21l-.25.07c-.33.11-.66.21-1,.33l-.24.08L75.46,2l-.35.14-.68.27-.37.15-.73.32L73,3l-1,.49-.12.06L70.93,4l-.34.19-.73.39-.18.1L69.21,5c-.53.31-1,.62-1.58,1l-.52.34-1,.67-.61.43L64.54,8l-.64.48L63,9.13l-.65.52-.84.68-.65.55c-.28.24-.56.47-.83.72l-.64.56-.82.75L58,13.5l-.82.79c-.19.2-.39.39-.59.59s-.56.57-.83.86l-.55.57-.89,1c-.15.18-.31.35-.47.52l-1.15,1.32c-.05.07-.11.13-.17.2-.44.52-.87,1-1.29,1.57l-.39.49L50,22.48l-.48.64c-.25.33-.5.66-.74,1l-.5.7-.69,1-.5.73c-.22.33-.44.65-.65,1l-.22.33c-.14.2-.27.41-.4.62l-.31.48c-.3.47-.59.95-.89,1.44a.41.41,0,0,1,0,.09c-.31.51-.61,1-.91,1.55l-.27.47c-.21.37-.42.74-.62,1.12l-.3.54c-.2.38-.4.75-.59,1.13-.09.16-.17.32-.25.48-.27.53-.54,1.07-.8,1.6a1,1,0,0,0-.07.15c-.24.49-.47,1-.7,1.47-.08.17-.15.35-.23.52l-.51,1.14L39,41.2c-.17.4-.34.8-.5,1.2l-.19.45c-.22.55-.43,1.1-.64,1.65,0,.1-.07.19-.11.29-.16.46-.33.91-.49,1.37l-.19.54-.39,1.16-.18.55L36,49.69l-.12.4,0,.11c-.11.36-.2.73-.3,1.09-.06.19-.11.39-.17.58-.15.59-.3,1.19-.44,1.78l-4.69,2.7L29.06,57l-.37.24-.75.51-.44.3-.68.5-.45.34-.65.51-.45.36-.65.56-.42.36-.69.62-.36.34c-.3.28-.59.56-.89.86l-.14.13c-.34.34-.67.69-1,1l-.3.33-.68.75-.37.43-.59.69-.38.46-.56.7-.38.48-.55.72-.35.48c-.19.25-.37.52-.56.78l-.31.44-.66,1-.17.26,0,0-.09.16c-.3.46-.59.93-.88,1.4l-.3.5c-.23.38-.45.77-.66,1.15L13,75c-.24.44-.48.89-.71,1.34,0,.1-.11.2-.16.31-.28.55-.55,1.1-.81,1.66l-.21.45c-.19.42-.37.84-.55,1.25l-.24.57c-.17.41-.34.82-.5,1.24-.06.16-.12.32-.19.49Q9.31,83.15,9,84a1.72,1.72,0,0,0-.07.21c-.17.5-.33,1-.47,1.51,0,.07-.05.13-.07.2s-.09.35-.14.52l-.18.67c-.07.26-.13.52-.2.78s-.11.44-.16.66-.11.52-.17.78-.09.44-.13.65-.1.53-.14.8-.08.42-.11.63l-.12.81c0,.21,0,.41-.08.61s-.06.56-.08.85l-.06.55-.06.94c0,.15,0,.31,0,.46,0,.46,0,.92,0,1.37,0,7.4,2.66,12.61,6.89,15.07l6.93,4c-4.23-2.46-6.86-7.67-6.89-15.07,0-.45,0-.91,0-1.37l0-.47c0-.31,0-.61.06-.93s0-.37.05-.56.05-.56.09-.84.05-.41.08-.61.07-.54.11-.81.08-.42.11-.63.09-.53.14-.8.09-.43.14-.65.11-.52.17-.78.1-.44.16-.66.12-.52.19-.78l.18-.67.21-.72c.15-.5.3-1,.47-1.5A1.42,1.42,0,0,1,16,88c.19-.57.39-1.14.61-1.71.06-.17.13-.33.19-.5.16-.41.32-.82.49-1.23l.24-.57c.18-.42.37-.83.56-1.25.06-.15.13-.3.2-.45.26-.56.53-1.11.81-1.66.05-.11.11-.21.17-.32.23-.45.46-.89.71-1.33.09-.18.19-.36.29-.53l.66-1.15.3-.5c.29-.47.58-.94.88-1.4l.12-.19.17-.25L23,74l.3-.44.57-.79.35-.47.55-.72.37-.48.56-.7.38-.46.6-.7.36-.42.69-.75.3-.33c.33-.35.66-.7,1-1l.14-.13.89-.87.36-.32q.35-.33.69-.63l.42-.36.66-.56.44-.36.66-.51.44-.34.69-.5.43-.3.76-.51.37-.24c.37-.24.75-.47,1.13-.69l4.69-2.7c.14-.6.29-1.19.45-1.78,0-.2.11-.4.16-.6.11-.39.22-.79.34-1.18,0-.14.08-.27.12-.41.12-.42.25-.84.39-1.27l.18-.56c.12-.38.25-.76.38-1.15.07-.18.13-.36.19-.55l.49-1.35.12-.3c.2-.55.42-1.1.64-1.65l.18-.45.5-1.2c.08-.19.16-.38.25-.56.16-.38.33-.76.5-1.14L47,43q.33-.73.69-1.47l.07-.15c.26-.54.53-1.07.8-1.6l.25-.48.6-1.13.29-.54.62-1.12.27-.47c.3-.52.6-1,.91-1.55l.06-.09c.29-.49.59-1,.89-1.44l.3-.48c.21-.32.41-.64.62-1s.43-.66.65-1l.5-.73.69-1,.5-.7.75-1,.47-.63.87-1.11.39-.49,1.29-1.57.18-.2,1.14-1.32.48-.52.88-1,.55-.57c.28-.29.55-.58.83-.86l.6-.59.81-.79.63-.59.81-.75.64-.56c.28-.25.55-.49.83-.72l.65-.55c.28-.23.56-.46.85-.68s.43-.35.65-.52l.88-.66.64-.48.92-.65.61-.43,1-.68.52-.33c.52-.33,1-.64,1.57-.95l.66-.37.72-.39Z"/><path class="cls-5" d="M76.14,9c19.94-11.51,36.17-2.27,36.23,20.65l6.13-3.34c9.87-5.7,18-1.08,18,10.26s-8,25.29-17.89,31L78.11,90.93c-.58.36-1.15.71-1.74,1s-1.15.65-1.73,1l-12.56,7.25-5.27,3L37.29,114.5C24.34,122,13.71,115.91,13.66,101S24.18,67.86,37.13,60.38l4.69-2.7C46.43,38.26,60,18.28,76.14,9Z"/><path class="cls-3" d="M67,77.48c0-3-2.15-4.25-4.79-2.73A10.5,10.5,0,0,0,57.47,83c0,2.49,1.46,3.76,3.43,3.29v2L61,118l-15.84,9.14v3.11l18.54-10.7-.1-32.86v-2A10.63,10.63,0,0,0,67,77.48Zm-6.12,5h0v0Z"/><path class="cls-3" d="M100.91,70.72,101,98.24l16.85-9.73V85.4L103.7,93.57l-.08-24.42a7.68,7.68,0,0,0,2.13-5c0-2.22-1.57-3.12-3.51-2a7.74,7.74,0,0,0-3.49,6C98.76,69.92,99.65,70.84,100.91,70.72Z"/><path class="cls-3" d="M86.49,61.62l6.41-3.7c.57-.33.93-1.25.64-1.66L83.48,42.13c-.15-.21-.4-.21-.65-.06a1.56,1.56,0,0,0-.65.81l-10,25.68c-.28.74.08,1.25.66.92l6.38-3.69-.33,43.63,0,0,26.3,15,7.14-4.21L86.16,105.29Z"/></svg>