<svg id="图层_1" data-name="图层 1" xmlns="http://www.w3.org/2000/svg" viewBox="0 0 158.64 150.77"><defs><style>.cls-1{fill:#a8cbff;}.cls-2{opacity:0.2;}.cls-3{opacity:0.3;}.cls-4{fill:#5993ff;}.cls-5{fill:#fff;}.cls-6{isolation:isolate;}.cls-7{fill:#fdfdfd;}.cls-8{fill:#26d1b2;}</style></defs><title>2</title><path class="cls-1" d="M135.59,132c-30.87,17.94-81.1,18-112.18,0C9,123.66,1.25,112.93.15,102c-1.25,12.66,6.5,25.59,23.26,35.27,31.08,17.94,81.31,17.94,112.18,0,16.55-9.62,24.17-22.44,22.9-35C157.43,113.09,149.81,123.72,135.59,132Z"/><g class="cls-2"><ellipse class="cls-1" cx="79.32" cy="99.49" rx="45.95" ry="79.32" transform="translate(-20.4 178.53) rotate(-89.84)"/></g><g class="cls-3"><ellipse class="cls-1" cx="79.32" cy="99.49" rx="22.01" ry="41.97" transform="translate(-20.36 178.58) rotate(-89.87)"/></g><path class="cls-4" d="M120.31,25.48c.23-.12.46-.22.69-.32l.35-.15.83-.31.17-.07,1-.3.27-.06c.23-.06.46-.12.69-.16l.34-.06.63-.1.32,0,.67,0,.24,0c.3,0,.59,0,.88,0s.45,0,.67.06l.18,0,.5.08.19,0,.57.14.07,0a6.26,6.26,0,0,1,.61.21l.17.06.44.19.17.08a6,6,0,0,1,.56.3h0l-6.93-4a6,6,0,0,0-.56-.3l-.17-.08-.44-.19-.17-.06c-.2-.08-.41-.15-.61-.21h-.07c-.19-.06-.38-.1-.57-.15l-.2,0-.5-.08-.17,0c-.21,0-.43,0-.65-.06h0c-.29,0-.58,0-.88,0l-.25,0-.66,0-.33,0-.62.1-.34.06c-.23,0-.46.1-.7.16l-.27.06-1,.3-.18.07c-.27.1-.55.2-.83.32l-.34.14-.69.32-.37.18-.72.37-.24.13-.23.13-6.13,3.34,6.94,4,6.13-3.34.47-.26c.23-.13.47-.25.71-.37A3.14,3.14,0,0,1,120.31,25.48Z"/><path class="cls-4" d="M78.12,8l.93-.47.12-.06,1-.49.31-.14.73-.32.37-.15.68-.27L82.65,6l.78-.28.24-.08,1-.33.25-.07L85.66,5l.34-.1.65-.16L87,4.68l.68-.14L88,4.48c.32-.06.63-.12,1-.16l.13,0,.81-.11.3,0,.63-.06.33,0c.21,0,.42,0,.63,0h1.18c.3,0,.59,0,.88,0l.21,0,.84.07.23,0,1,.14.16,0L97,4.5l.24.06c.31.07.61.15.92.24l.12,0,.79.26.23.08c.29.11.59.22.87.35l.07,0c.27.11.53.23.79.36l.21.11c.28.14.55.29.82.44l-6.93-4c-.27-.16-.54-.31-.82-.45l-.22-.11-.78-.36-.07,0c-.29-.13-.58-.24-.87-.35l-.23-.08L91.38.81l-.13,0C91,.68,90.64.6,90.33.53L90.1.47,89.29.31l-.17,0c-.31-.05-.64-.1-1-.13l-.24,0L87.09.05h-.21L86,0H84.81l-.62,0-.33,0-.63.06-.31,0-.8.11L82,.29c-.31,0-.63.1-.94.16l-.29.06-.68.14-.35.08L79.07.9,78.72,1,78,1.2l-.25.07-1,.33-.23.08L75.72,2l-.35.14-.69.27-.36.15-.73.32L73.28,3l-1,.49-.12.06L71.19,4l-.34.19-.73.39-.19.1L69.46,5c-.52.31-1,.62-1.57,1l-.52.34-1,.67-.61.43L64.8,8l-.64.48-.88.66-.65.52-.85.68-.65.55c-.27.24-.55.47-.82.72s-.43.37-.64.56l-.82.75-.62.59-.82.79c-.2.2-.4.39-.59.59l-.84.86-.55.57-.88,1-.47.52-1.15,1.32c-.06.07-.12.13-.17.2-.44.52-.87,1-1.29,1.57-.14.16-.27.33-.4.49l-.86,1.11-.48.64-.75,1-.5.7-.69,1-.5.73-.65,1-.22.33-.4.62-.3.48c-.3.47-.6.95-.89,1.44a.41.41,0,0,0,0,.09c-.31.51-.62,1-.91,1.55l-.27.47c-.21.37-.42.74-.62,1.12l-.3.54-.6,1.13-.24.48c-.28.53-.55,1.07-.81,1.6l-.06.15c-.24.49-.47,1-.7,1.47L40,39.5c-.17.38-.34.76-.5,1.14l-.24.56c-.17.4-.34.8-.5,1.2-.07.15-.13.3-.19.45-.22.55-.43,1.1-.64,1.65l-.11.29c-.17.46-.33.91-.49,1.37-.07.18-.13.36-.19.54l-.39,1.16-.18.55-.39,1.28-.12.4a.76.76,0,0,1,0,.11l-.3,1.09-.16.58c-.16.59-.31,1.19-.45,1.78l-4.68,2.7q-.57.33-1.14.69l-.37.24-.76.51-.43.3-.68.5-.45.34-.66.51-.44.36-.65.56-.42.36c-.24.2-.46.41-.69.62l-.36.34c-.3.28-.6.56-.89.86l-.14.13c-.34.34-.68.69-1,1l-.3.33-.68.75c-.13.14-.25.29-.37.43l-.6.69c-.12.16-.25.31-.38.46l-.56.7-.37.48-.55.72-.35.48c-.19.25-.38.52-.56.78l-.31.44c-.23.32-.45.65-.66,1l-.18.26,0,0a.86.86,0,0,1-.1.16c-.29.46-.59.93-.87,1.4l-.3.5c-.23.38-.45.77-.67,1.15-.1.17-.19.35-.29.53-.24.44-.48.89-.71,1.34l-.17.31c-.28.55-.55,1.1-.81,1.66l-.2.45L10.8,80c-.08.19-.16.38-.23.57-.17.41-.34.82-.5,1.24-.06.16-.13.32-.19.49-.21.57-.42,1.14-.61,1.71a1.72,1.72,0,0,1-.07.21c-.16.5-.32,1-.47,1.51l-.06.2c-.05.18-.1.35-.14.52s-.13.44-.19.67-.13.52-.19.78-.11.44-.16.66-.11.52-.17.78-.09.44-.13.65l-.15.8c0,.21-.07.42-.1.63s-.08.54-.12.81-.06.41-.08.61l-.09.85c0,.18,0,.37-.05.55s0,.63-.06.94l0,.46c0,.46,0,.92,0,1.37,0,7.4,2.65,12.61,6.89,15.07l6.93,4c-4.23-2.46-6.87-7.67-6.89-15.07,0-.45,0-.91,0-1.37,0-.16,0-.31,0-.47l.06-.93.06-.56c0-.28.05-.56.08-.84l.09-.61c0-.27.07-.54.11-.81s.07-.42.11-.63.09-.53.14-.8.09-.43.13-.65.11-.52.17-.78.11-.44.16-.66.13-.52.2-.78l.18-.67c.07-.24.13-.48.21-.72.14-.5.3-1,.47-1.5a1.42,1.42,0,0,1,.07-.22q.28-.86.6-1.71l.2-.5c.15-.41.32-.82.49-1.23l.24-.57c.18-.42.36-.83.55-1.25l.21-.45c.26-.56.53-1.11.81-1.66.05-.11.11-.21.16-.32.23-.45.47-.89.71-1.33l.3-.53c.21-.39.43-.77.66-1.15l.3-.5.87-1.4c.05-.06.08-.13.13-.19s.11-.16.16-.25l.67-1,.31-.44.56-.79c.12-.15.24-.31.35-.47l.55-.72.38-.48.56-.7.38-.46.59-.7.37-.42.68-.75.3-.33c.34-.35.67-.7,1-1a1.59,1.59,0,0,0,.13-.13l.9-.87.36-.32q.35-.33.69-.63l.42-.36c.22-.19.43-.38.66-.56l.44-.36.65-.51.45-.34.68-.5.44-.3.75-.51.37-.24q.57-.36,1.14-.69l4.69-2.7c.14-.6.29-1.19.44-1.78.06-.2.12-.4.17-.6L43,54.12l.12-.41.39-1.27c.06-.18.12-.37.19-.56.12-.38.25-.76.38-1.15.06-.18.13-.36.19-.55.16-.45.32-.9.49-1.35l.11-.3c.21-.55.42-1.1.64-1.65l.19-.45c.16-.4.33-.8.5-1.2l.24-.56L47,43.53c.08-.17.15-.35.23-.52.23-.49.46-1,.7-1.47a1,1,0,0,1,.07-.15c.26-.54.53-1.07.8-1.6.08-.16.16-.32.25-.48.19-.38.39-.75.59-1.13l.3-.54c.2-.38.41-.75.62-1.12l.27-.47c.3-.52.6-1,.91-1.55a.41.41,0,0,0,0-.09c.3-.49.59-1,.89-1.44l.31-.48.61-1,.66-1c.16-.25.33-.49.5-.73l.69-1,.5-.7c.24-.34.49-.67.74-1l.48-.63L58,25.4l.39-.49c.42-.53.85-1.05,1.29-1.57.06-.07.12-.13.17-.2L61,21.82c.16-.17.32-.34.47-.52l.89-1,.55-.57c.27-.29.55-.58.83-.86l.59-.59.82-.79.62-.59.82-.75c.21-.19.42-.38.64-.56s.55-.49.83-.72.43-.37.65-.55l.84-.68.65-.52.88-.66.64-.48.93-.65.61-.43,1-.68.51-.33c.52-.33,1.05-.64,1.58-.95l.65-.37.73-.39Z"/><path class="cls-5" d="M76.4,9c19.94-11.51,36.16-2.27,36.23,20.65l6.13-3.34c9.87-5.7,18-1.08,18,10.26s-8,25.29-17.89,31L78.36,90.93c-.57.36-1.15.71-1.73,1s-1.16.65-1.73,1l-12.57,7.25-5.26,3L37.54,114.5C24.59,122,14,115.91,13.92,101S24.44,67.86,37.39,60.38l4.69-2.7C46.69,38.26,60.29,18.28,76.4,9Z"/><g class="cls-6"><path class="cls-7" d="M118.88,75.33c2.78,0,4.7,2.21,4.71,6l-17.08,9.86c0-3.82,1.89-8.22,4.66-11.44a4.21,4.21,0,0,0,3.86-.52A11.51,11.51,0,0,0,118.88,75.33Z"/><path class="cls-8" d="M114.49,58.78c9.23-5.33,16.74-1.05,16.77,9.55S123.83,91.87,114.6,97.2s-16.74,1-16.77-9.56S105.26,64.11,114.49,58.78Zm-8,32.44,17.08-9.86c0-3.82-1.93-6-4.71-6A11.51,11.51,0,0,1,115,79.26a4.21,4.21,0,0,1-3.86.52c-2.77,3.22-4.67,7.62-4.66,11.44M115,67.42a10,10,0,0,0-4.53,7.85c0,1.78.79,2.9,2,3.17l.19,0h.68l.34,0,.13,0,.27-.07.15-.06.28-.11.13-.06a4,4,0,0,0,.41-.21,3.74,3.74,0,0,0,.42-.27l.14-.09.28-.21.14-.12.27-.24.13-.11c.12-.11.23-.23.34-.35l.18-.19.17-.19.19-.23.14-.18a2.35,2.35,0,0,0,.19-.25,9.69,9.69,0,0,0,2-5.43c0-2.88-2-4-4.57-2.6"/><path class="cls-7" d="M115,67.42c2.52-1.45,4.56-.28,4.57,2.6a9.69,9.69,0,0,1-2,5.43,2.35,2.35,0,0,1-.19.25l-.14.18-.19.23-.17.19-.18.19c-.11.12-.22.24-.34.35l-.13.11-.27.24-.14.12-.28.21-.14.09a3.74,3.74,0,0,1-.42.27,4,4,0,0,1-.41.21l-.13.06-.28.11-.15.06-.27.07-.13,0-.34,0h-.68l-.19,0c-1.19-.27-2-1.39-2-3.17A10,10,0,0,1,115,67.42Z"/></g><path class="cls-4" d="M83.86,57.38l0-11c0-2-1.44-2.83-3.19-1.82l-2.73,1.58a7,7,0,0,0-3.17,5.49l0,11A17.92,17.92,0,0,0,71,72.87c0,5.3,3.76,7.43,8.37,4.77s8.33-9.11,8.32-14.41C87.68,59.86,86.15,57.77,83.86,57.38Z"/></svg>