<svg id="图层_1" data-name="图层 1" xmlns="http://www.w3.org/2000/svg" xmlns:xlink="http://www.w3.org/1999/xlink" viewBox="0 0 220.13 176.98"><defs><style>.cls-1,.cls-7{opacity:0.5;}.cls-1{fill:url(#未命名的渐变_5);}.cls-2{fill:#00ba8f;}.cls-3{fill:#26d1b2;}.cls-4{fill:#c2d6f9;}.cls-5{fill:#5993ff;}.cls-6{fill:#fff;}.cls-8{fill:#cefff8;}.cls-9{opacity:0.8;fill:url(#未命名的渐变_3);}</style><linearGradient id="未命名的渐变_5" x1="132.58" y1="82.1" x2="143.84" y2="172.94" gradientUnits="userSpaceOnUse"><stop offset="0" stop-color="#c2d6f9" stop-opacity="0"/><stop offset="1" stop-color="#a8cbff"/></linearGradient><linearGradient id="未命名的渐变_3" x1="68.66" y1="84.64" x2="64.16" y2="160.14" xlink:href="#未命名的渐变_5"/></defs><title>3</title><polygon class="cls-1" points="176.9 129.85 95.04 176.98 95.04 89.07 176.9 41.94 176.9 129.85"/><polygon class="cls-2" points="149.31 108.61 129.55 97.12 129.53 89.12 149.29 100.61 149.31 108.61"/><polygon class="cls-3" points="109.91 131.36 90.14 119.87 129.55 97.12 149.31 108.61 109.91 131.36"/><path class="cls-3" d="M101,132a3.06,3.06,0,0,0,0-.32,2,2,0,0,0,0-.24s0-.09,0-.13a3,3,0,0,0-.2-.55s0-.05,0-.08a3.3,3.3,0,0,0-.31-.48l-.11-.12a2.07,2.07,0,0,0-.46-.38L80,118.23a2,2,0,0,1,.47.39,1.31,1.31,0,0,1,.11.12,3.15,3.15,0,0,1,.3.47.56.56,0,0,0,.05.08,4.51,4.51,0,0,1,.22.68,2.17,2.17,0,0,0,0,.25,4.59,4.59,0,0,1,.07.77,6.35,6.35,0,0,1-.08,1l0,.18a6.83,6.83,0,0,1-.22,1l0,.13a8.21,8.21,0,0,1-.29.78l-.18.41c-.1.22-.21.43-.32.64l-.15.27q-.27.45-.57.87l0,0q-.3.39-.63.75l-.21.22a5.68,5.68,0,0,1-.51.47,3.47,3.47,0,0,1-.29.25,5.22,5.22,0,0,1-.75.51,3.67,3.67,0,0,1-.48.25l-.15.06-.31.12-.17,0-.28.07-.17,0-.32,0H75a2.63,2.63,0,0,1-.49-.07l-.09,0a1.8,1.8,0,0,1-.47-.2l19.76,11.49a2.43,2.43,0,0,0,.47.19l.05,0h0a2.07,2.07,0,0,0,.5.06h.12l.33,0h.08l.08,0,.29-.06.11,0,0,0,.31-.11.12,0a.05.05,0,0,0,0,0l.48-.24h0c.2-.12.39-.24.58-.38a1.07,1.07,0,0,0,.16-.14l.3-.24c.08-.08.17-.14.25-.21l.25-.27.21-.21a9.41,9.41,0,0,0,.63-.76l0,0c.2-.28.39-.58.57-.88l.15-.26.19-.36a2.55,2.55,0,0,0,.13-.29,3.52,3.52,0,0,0,.18-.4,2.56,2.56,0,0,0,.11-.24c.07-.18.12-.36.18-.54a.78.78,0,0,1,0-.14s0,0,0,0c.07-.22.12-.43.17-.65s0-.16,0-.25a1,1,0,0,0,0-.17c0-.07,0-.13,0-.19s0-.41,0-.61v-.17A3.39,3.39,0,0,0,101,132Z"/><polygon class="cls-4" points="81.26 131.37 61.5 119.88 143.06 72.8 162.82 84.28 81.26 131.37"/><polygon class="cls-5" points="81.33 155.95 61.57 144.46 61.5 119.88 81.26 131.37 81.33 155.95"/><path class="cls-6" d="M81.26,131.37l81.56-47.09.07,24.58L81.33,156Zm68.05-22.76,0-8-39.41,22.75,0,8,39.4-22.75M96.73,139.92a9.47,9.47,0,0,0,4.29-7.44c0-2.73-1.94-3.84-4.32-2.46a9.48,9.48,0,0,0-4.3,7.43c0,2.74,1.95,3.84,4.33,2.47"/><polygon class="cls-2" points="149.21 72 129.45 60.51 129.42 52.52 149.19 64 149.21 72"/><polygon class="cls-3" points="109.8 94.75 90.04 83.27 129.45 60.51 149.21 72 109.8 94.75"/><path class="cls-3" d="M100.9,95.41c0-.11,0-.21-.05-.32s0-.16,0-.24a.59.59,0,0,0,0-.13,3.93,3.93,0,0,0-.19-.55l0-.08a2.33,2.33,0,0,0-.31-.48l-.1-.12a2.12,2.12,0,0,0-.47-.38L79.9,81.62a2.07,2.07,0,0,1,.46.38l.11.13a2.55,2.55,0,0,1,.31.47s0,.05,0,.08a3,3,0,0,1,.22.68,2.17,2.17,0,0,1,0,.25,4.67,4.67,0,0,1,.08.78,6.56,6.56,0,0,1-.08,1l0,.17a8.14,8.14,0,0,1-.22,1,1.21,1.21,0,0,1,0,.14c-.08.26-.18.52-.28.77l-.18.41c-.1.22-.21.43-.33.64s-.09.18-.15.27a7.24,7.24,0,0,1-.57.87l0,0a7.7,7.7,0,0,1-.63.76l-.2.21c-.17.17-.34.33-.51.47l-.29.25a7.2,7.2,0,0,1-.75.52q-.24.14-.48.24l-.16.07-.3.11-.17,0c-.1,0-.19,0-.29.06l-.16,0-.33,0h-.12a2.63,2.63,0,0,1-.49-.06l-.1,0a2.72,2.72,0,0,1-.47-.19h0l19.77,11.48a1.54,1.54,0,0,0,.46.19l.06,0h0a2.63,2.63,0,0,0,.49.07h.12l.33,0h.08l.08,0,.29-.07a.35.35,0,0,0,.11,0l.06,0,.3-.11.13-.05h0a3.67,3.67,0,0,0,.48-.25h0a6.39,6.39,0,0,0,.58-.38l.16-.13.29-.25a2.52,2.52,0,0,0,.25-.21c.09-.08.17-.18.26-.26l.21-.22a9.41,9.41,0,0,0,.63-.76s0,0,0,0a10.11,10.11,0,0,0,.58-.87c0-.09.1-.18.14-.27s.14-.23.2-.35.08-.2.13-.29l.18-.41c0-.08.07-.15.1-.23s.13-.37.19-.55,0-.09,0-.14a.08.08,0,0,0,0,0c.06-.21.12-.43.16-.65a2,2,0,0,0,0-.24l0-.18,0-.19c0-.21,0-.41,0-.61v-.17C100.92,95.71,100.91,95.56,100.9,95.41Z"/><polygon class="cls-4" points="81.16 94.97 61.4 83.49 142.95 36.4 162.72 47.89 81.16 94.97"/><polygon class="cls-5" points="81.23 119.55 61.47 108.06 61.4 83.49 81.16 94.97 81.23 119.55"/><path class="cls-6" d="M81.16,95l81.56-47.08.07,24.57L81.23,119.55Zm68.05-23,0-8L109.78,86.75l0,8L149.21,72M96.62,103.31a9.45,9.45,0,0,0,4.3-7.44c0-2.74-1.94-3.84-4.32-2.46a9.45,9.45,0,0,0-4.3,7.44c0,2.73,2,3.83,4.32,2.46"/><polygon class="cls-2" points="149.11 35.39 129.34 23.91 129.32 15.9 149.08 27.39 149.11 35.39"/><polygon class="cls-3" points="109.7 58.14 89.94 46.66 129.34 23.91 149.11 35.39 109.7 58.14"/><path class="cls-3" d="M100.79,58.8a2.87,2.87,0,0,0-.05-.31,1.87,1.87,0,0,0,0-.25s0-.08,0-.12a3.08,3.08,0,0,0-.2-.56l0-.08a2.25,2.25,0,0,0-.31-.47l-.11-.13a2.07,2.07,0,0,0-.46-.38L79.8,45a2.12,2.12,0,0,1,.46.39l.11.12a2.3,2.3,0,0,1,.3.48.22.22,0,0,1,0,.08,3.88,3.88,0,0,1,.22.68A2,2,0,0,1,81,47a4.81,4.81,0,0,1,.07.78,6.45,6.45,0,0,1-.08,1,.88.88,0,0,1,0,.17c-.06.32-.13.63-.22.95a.78.78,0,0,0,0,.14,8.21,8.21,0,0,1-.29.78,3.52,3.52,0,0,1-.18.4c-.1.22-.21.44-.32.65l-.15.26c-.18.3-.37.6-.57.88l0,0a9.41,9.41,0,0,1-.63.76L78.3,54c-.16.17-.33.33-.5.48l-.3.24a7.09,7.09,0,0,1-.74.52l-.48.24-.16.07-.31.11-.16,0-.29.07-.16,0-.33,0h-.12a2.74,2.74,0,0,1-.5-.07l-.09,0a2.43,2.43,0,0,1-.47-.19L93.45,67a2.14,2.14,0,0,0,.47.2l0,0h0a1.93,1.93,0,0,0,.49.07h.12a1.84,1.84,0,0,0,.33,0H95l.08,0,.29-.07.11,0,.06,0,.3-.12L96,67l0,0a3.67,3.67,0,0,0,.48-.25h0a5.25,5.25,0,0,0,.58-.38l.16-.13.3-.25c.08-.07.17-.13.25-.21a3.07,3.07,0,0,0,.25-.26,1.45,1.45,0,0,0,.21-.22q.33-.36.63-.75l0,0a10,10,0,0,0,.57-.87l.15-.27c.07-.12.14-.23.2-.35s.08-.19.13-.29l.18-.41c0-.08.07-.15.1-.23a5.05,5.05,0,0,0,.18-.55.69.69,0,0,0,0-.13.08.08,0,0,1,0,0c.06-.22.11-.44.16-.65a1.87,1.87,0,0,1,0-.25l0-.18,0-.19c0-.2,0-.41,0-.61,0,0,0-.11,0-.17S100.81,59,100.79,58.8Z"/><polygon class="cls-4" points="81.06 58.57 61.29 47.09 142.85 0 162.61 11.48 81.06 58.57"/><polygon class="cls-5" points="81.13 83.15 61.36 71.67 61.29 47.09 81.06 58.57 81.13 83.15"/><path class="cls-6" d="M81.06,58.57l81.55-47.09.07,24.59L81.13,83.15Zm68.05-23.18,0-8L109.67,50.14l0,8,39.41-22.75M96.52,66.7a9.48,9.48,0,0,0,4.3-7.44c0-2.73-1.95-3.84-4.33-2.46a9.44,9.44,0,0,0-4.29,7.44c0,2.74,1.94,3.84,4.32,2.46"/><g class="cls-7"><ellipse class="cls-8" cx="11.77" cy="137.22" rx="6.82" ry="11.77" transform="translate(-125.48 148.6) rotate(-89.84)"/></g><path class="cls-3" d="M12.43,134.39l.52-8.63a5.89,5.89,0,1,0-2.35,0l.72,11.89h.91l.13-2.16Zm-.66-16.16A1.77,1.77,0,1,1,13.54,120,1.77,1.77,0,0,1,11.77,118.23Z"/><g class="cls-7"><ellipse class="cls-8" cx="203.74" cy="126.28" rx="8.74" ry="16.39" transform="translate(76.97 329.71) rotate(-89.86)"/></g><path class="cls-3" d="M203,124.07l.17,2.76h1.16l.93-15.24a7.54,7.54,0,1,0-3,0l.67,11.05Zm-1.51-19.86a2.27,2.27,0,1,1,2.26-2.27A2.27,2.27,0,0,1,201.48,104.21Z"/><polygon class="cls-9" points="95.04 176.98 38.5 143.79 38.5 55.88 95.04 89.07 95.04 176.98"/></svg>