<?xml version="1.0" encoding="utf-8"?>
<!-- Generator: Adobe Illustrator 25.0.0, SVG Export Plug-In . SVG Version: 6.00 Build 0)  -->
<svg version="1.1" id="图层_1" xmlns="http://www.w3.org/2000/svg" xmlns:xlink="http://www.w3.org/1999/xlink" x="0px" y="0px"
	 viewBox="0 0 200 200" style="enable-background:new 0 0 200 200;" xml:space="preserve">
<style type="text/css">
	.st0{clip-path:url(#XMLID_4_);fill:url(#SVGID_1_);}
	.st1{clip-path:url(#XMLID_4_);fill:url(#SVGID_2_);}
	.st2{clip-path:url(#XMLID_4_);fill:url(#SVGID_3_);}
	.st3{fill:url(#SVGID_4_);}
	.st4{fill:none;stroke:url(#SVGID_5_);stroke-width:0.5;stroke-miterlimit:10;}
	.st5{fill:url(#SVGID_6_);}
	.st6{opacity:0.35;fill:url(#SVGID_7_);}
	.st7{opacity:0.35;fill:url(#SVGID_8_);}
	.st8{opacity:0.35;fill:url(#SVGID_9_);}
	.st9{filter:url(#Adobe_OpacityMaskFilter);}
	.st10{fill:url(#SVGID_11_);}
	.st11{fill:url(#SVGID_12_);}
	.st12{mask:url(#SVGID_10_);fill:none;stroke:#FFFFFF;stroke-width:0.5;stroke-miterlimit:10;}
	.st13{fill:url(#SVGID_13_);}
	.st14{fill:url(#XMLID_5_);}
	.st15{opacity:0.5;}
	.st16{fill:#29F8FF;}
	.st17{fill:url(#SVGID_14_);}
	.st18{filter:url(#Adobe_OpacityMaskFilter_1_);}
	.st19{fill:#FFFFFF;}
	.st20{opacity:0.15;mask:url(#SVGID_15_);}
	.st21{fill:url(#SVGID_16_);}
	.st22{fill:none;stroke:url(#SVGID_17_);stroke-width:0.5;stroke-miterlimit:10;}
	.st23{fill:url(#SVGID_18_);}
	.st24{opacity:0.35;fill:url(#SVGID_19_);}
	.st25{opacity:0.35;fill:url(#SVGID_20_);}
	.st26{opacity:0.35;fill:url(#SVGID_21_);}
	.st27{filter:url(#Adobe_OpacityMaskFilter_2_);}
	.st28{fill:url(#SVGID_22_);}
	.st29{fill:url(#SVGID_23_);}
	.st30{fill:none;stroke:#FFFFFF;stroke-width:0.5;stroke-miterlimit:10;}
</style>
<g>
	<g>
		<g>
			<g>
				<defs>
					<path id="XMLID_32_" d="M164.9,138.1h-44.3l-36.8-13.3c-2.8-1-7.3-1-10.1,0l-29.3,10.5l-29.5-5.2v3.1h0c-0.1,0.7,0.5,1.5,1.7,2
						l78.1,28.3c3.4,1.5,9,1.5,12.4,0l55.9-20.3c1.3-0.6,1.8-1.3,1.7-2h0V138.1z"/>
				</defs>
				<linearGradient id="XMLID_3_" gradientUnits="userSpaceOnUse" x1="14.9102" y1="144.3077" x2="164.8985" y2="144.3077">
					<stop  offset="0" style="stop-color:#AFDAFE"/>
					<stop  offset="1" style="stop-color:#6FA7EE"/>
				</linearGradient>
				<use xlink:href="#XMLID_32_"  style="overflow:visible;fill:url(#XMLID_3_);"/>
				<clipPath id="XMLID_4_">
					<use xlink:href="#XMLID_32_"  style="overflow:visible;"/>
				</clipPath>
				<linearGradient id="SVGID_1_" gradientUnits="userSpaceOnUse" x1="93.053" y1="162.3988" x2="106.7471" y2="162.3988">
					<stop  offset="0" style="stop-color:#D0EAFE;stop-opacity:0"/>
					<stop  offset="0.5" style="stop-color:#D4ECFE"/>
					<stop  offset="1" style="stop-color:#D1EBFE;stop-opacity:0.1594"/>
				</linearGradient>
				<rect x="93.1" y="154.9" class="st0" width="13.7" height="15.1"/>
				<linearGradient id="SVGID_2_" gradientUnits="userSpaceOnUse" x1="-14.1575" y1="141.4092" x2="21.7572" y2="141.4092">
					<stop  offset="0" style="stop-color:#D0EAFE;stop-opacity:0"/>
					<stop  offset="0.5" style="stop-color:#D4ECFE"/>
					<stop  offset="1" style="stop-color:#D1EBFE;stop-opacity:0.1594"/>
				</linearGradient>
				<polygon class="st1" points="21.8,144.9 -14.2,152.9 -14.2,137.9 21.8,129.9 				"/>
				<linearGradient id="SVGID_3_" gradientUnits="userSpaceOnUse" x1="158.0632" y1="140.5732" x2="171.7572" y2="140.5732">
					<stop  offset="0" style="stop-color:#D0EAFE;stop-opacity:0"/>
					<stop  offset="0.5" style="stop-color:#D4ECFE"/>
					<stop  offset="1" style="stop-color:#D1EBFE;stop-opacity:0.1594"/>
				</linearGradient>
				<rect x="158.1" y="133" class="st2" width="13.7" height="15.1"/>
			</g>
			<linearGradient id="SVGID_4_" gradientUnits="userSpaceOnUse" x1="14.9102" y1="134.0674" x2="164.9102" y2="134.0674">
				<stop  offset="0" style="stop-color:#C6E4FF"/>
				<stop  offset="1" style="stop-color:#BADFFE"/>
			</linearGradient>
			<path class="st3" d="M94.8,160.3l-78.1-28.3c-2.8-1.2-2.2-3.3,1.1-4.5l55.9-20.2c2.8-1,7.3-1,10.1,0l78.1,28.2
				c3.4,1.2,3.9,3.2,1.1,4.5l-55.9,20.3C103.8,161.9,98.2,161.9,94.8,160.3z"/>
			<linearGradient id="SVGID_5_" gradientUnits="userSpaceOnUse" x1="24.2232" y1="133.8459" x2="155.4176" y2="133.8459">
				<stop  offset="0" style="stop-color:#D1EAFE"/>
				<stop  offset="0.8" style="stop-color:#79AFF0"/>
				<stop  offset="1" style="stop-color:#A6D4FC"/>
			</linearGradient>
			<path class="st4" d="M96.1,156.7l-69.8-25.2c-2.8-1.2-2.2-3.3,1.1-4.5l44.9-16.4c2.8-1,7.3-1,10.1,0l69.8,25.1
				c3.4,1.2,3.9,3.2,1.1,4.5l-44.9,16.4C105.1,158.2,99.5,158.2,96.1,156.7z"/>
			<linearGradient id="SVGID_6_" gradientUnits="userSpaceOnUse" x1="57.3167" y1="140.2066" x2="101.5032" y2="140.2066">
				<stop  offset="0" style="stop-color:#5DCBFF"/>
				<stop  offset="1" style="stop-color:#2E71DD"/>
			</linearGradient>
			<path class="st5" d="M101.2,142.3L85,148.2c-0.7,0.2-1.4,0.2-2.1,0L57.6,139c-0.4-0.2-0.4-0.8,0-0.9l16-5.8c0.7-0.2,1.4-0.2,2,0
				l25.5,9.2C101.6,141.5,101.6,142.2,101.2,142.3z"/>
			<linearGradient id="SVGID_7_" gradientUnits="userSpaceOnUse" x1="62.145" y1="131.9205" x2="128.7948" y2="131.9205">
				<stop  offset="0" style="stop-color:#5DCBFF"/>
				<stop  offset="1" style="stop-color:#2E71DD"/>
			</linearGradient>
			<path class="st6" d="M128.5,142.8l-3.2,1.1c-0.7,0.2-1.4,0.2-2.1,0l-60.7-22c-0.4-0.2-0.4-0.8,0-0.9l3-1.1c0.7-0.2,1.4-0.2,2,0
				l60.9,22C128.9,142,128.9,142.6,128.5,142.8z"/>
			<linearGradient id="SVGID_8_" gradientUnits="userSpaceOnUse" x1="68.7646" y1="129.2352" x2="135.4144" y2="129.2352">
				<stop  offset="0" style="stop-color:#5DCBFF"/>
				<stop  offset="1" style="stop-color:#2E71DD"/>
			</linearGradient>
			<path class="st7" d="M135.1,140.1l-3.2,1.1c-0.7,0.2-1.4,0.2-2.1,0l-60.7-22c-0.4-0.2-0.4-0.8,0-0.9l3-1.1c0.7-0.2,1.4-0.2,2,0
				l60.9,22C135.5,139.3,135.5,140,135.1,140.1z"/>
			<linearGradient id="SVGID_9_" gradientUnits="userSpaceOnUse" x1="75.5008" y1="126.4636" x2="142.1506" y2="126.4636">
				<stop  offset="0" style="stop-color:#5DCBFF"/>
				<stop  offset="1" style="stop-color:#2E71DD"/>
			</linearGradient>
			<path class="st8" d="M141.8,137.3l-3.2,1.1c-0.7,0.2-1.4,0.2-2.1,0l-60.7-22c-0.4-0.2-0.4-0.8,0-0.9l3-1.1c0.7-0.2,1.4-0.2,2,0
				l60.9,22C142.3,136.6,142.3,137.2,141.8,137.3z"/>
		</g>
		<defs>
			<filter id="Adobe_OpacityMaskFilter" filterUnits="userSpaceOnUse" x="14.7" y="127.4" width="150.5" height="34.4">
				<feColorMatrix  type="matrix" values="1 0 0 0 0  0 1 0 0 0  0 0 1 0 0  0 0 0 1 0"/>
			</filter>
		</defs>
		<mask maskUnits="userSpaceOnUse" x="14.7" y="127.4" width="150.5" height="34.4" id="SVGID_10_">
			<g class="st9">
				<g>
					<linearGradient id="SVGID_11_" gradientUnits="userSpaceOnUse" x1="80.0301" y1="156.6353" x2="151.3122" y2="129.7749">
						<stop  offset="0" style="stop-color:#000000"/>
						<stop  offset="0.5" style="stop-color:#FFFFFF"/>
						<stop  offset="1" style="stop-color:#000000"/>
					</linearGradient>
					<path class="st10" d="M165,73.6H85.5c-3.3,0-6,2.7-6,6v120c0,3.3,2.7,6,6,6H165c3.3,0,6-2.7,6-6v-120
						C171,76.3,168.3,73.6,165,73.6z"/>
				</g>
				<linearGradient id="SVGID_12_" gradientUnits="userSpaceOnUse" x1="6.1584" y1="160.6456" x2="72.1352" y2="186.1912">
					<stop  offset="0" style="stop-color:#000000"/>
					<stop  offset="0.5" style="stop-color:#FFFFFF"/>
					<stop  offset="1" style="stop-color:#000000"/>
				</linearGradient>
				<path class="st11" d="M72.4,239.8h-70c-2.9,0-5.2-2.3-5.2-5.2V110.8c0-2.9,2.3-5.2,5.2-5.2h70c2.9,0,5.2,2.3,5.2,5.2v123.8
					C77.6,237.5,75.2,239.8,72.4,239.8z"/>
			</g>
		</mask>
		<path class="st12" d="M162,135.6c3.4,1.2,3.9,3.2,1.1,4.5l-55.9,20.3c-3.4,1.5-9,1.5-12.4,0l-78.1-28.3c-2.8-1.2-2.2-3.3,1.1-4.5"
			/>
	</g>
	<g>
		<linearGradient id="SVGID_13_" gradientUnits="userSpaceOnUse" x1="85.5209" y1="49.8476" x2="185.5386" y2="107.5928">
			<stop  offset="0.6" style="stop-color:#AFDAFE"/>
			<stop  offset="1" style="stop-color:#6FA7EE"/>
		</linearGradient>
		<path class="st13" d="M184,67.3C184,67.3,184,67.2,184,67.3c0-0.1,0-0.1,0-0.2c0,0,0-0.1,0-0.1c0,0,0,0,0-0.1c0,0,0,0,0,0
			c0,0,0,0,0-0.1c0-0.1,0-0.2,0-0.2c0,0,0,0,0,0c-0.1-0.2-0.1-0.4-0.2-0.5c0,0,0,0,0-0.1c0,0,0-0.1-0.1-0.1c0,0,0,0,0-0.1
			c0,0,0,0,0,0c0,0-0.1-0.1-0.1-0.1c0,0-0.1-0.1-0.1-0.1c0,0,0,0,0,0c0,0,0,0,0,0c0,0-0.1-0.1-0.1-0.1c0,0-0.1,0-0.1-0.1
			c0,0-0.1,0-0.1-0.1c0,0,0,0,0,0c0,0,0,0,0,0c0,0,0,0,0,0c0,0-0.1,0-0.1,0c0,0-0.1,0-0.1,0c0,0-0.1,0-0.1,0c0,0,0,0,0,0L97.4,34.1
			c0,0,0,0-0.1,0c0,0-0.1,0-0.1,0c0,0-0.1,0-0.1,0c0,0-0.1,0-0.1,0c0,0,0,0,0,0c0,0,0,0,0,0c0,0-0.1,0-0.1,0c0,0-0.1,0-0.1,0
			c0,0-0.1,0-0.1,0c0,0,0,0,0,0l-2.2,0.3c0.1,0,0.2,0,0.3,0c0,0,0,0,0,0c0.1,0,0.2,0,0.3,0.1l85.4,31.1c0.1,0,0.2,0.1,0.3,0.2
			c0,0,0,0,0,0c0.1,0.1,0.2,0.1,0.3,0.2c0,0,0,0,0,0c0.1,0.1,0.2,0.2,0.2,0.3c0,0,0,0,0,0.1c0,0,0.1,0.1,0.1,0.2
			c0.1,0.2,0.2,0.3,0.2,0.5c0,0.1,0.1,0.2,0.1,0.3c0,0,0,0,0,0c0,0.1,0,0.2,0,0.4c0,0,0,0,0,0c0,0.1,0,0.3,0,0.4l-14.6,67.7
			c0,0.2-0.1,0.4-0.2,0.5c0,0,0,0,0,0c-0.1,0.2-0.2,0.3-0.3,0.4c0,0,0,0,0,0c-0.1,0.1-0.2,0.1-0.3,0.2c0,0-0.1,0.1-0.1,0.1
			c-0.1,0.1-0.3,0.1-0.4,0.1l2.2-0.3c0.2,0,0.3-0.1,0.4-0.1c0,0,0.1-0.1,0.1-0.1c0.1-0.1,0.2-0.1,0.2-0.2c0,0,0,0,0,0c0,0,0,0,0,0
			c0,0,0.1-0.1,0.1-0.1c0,0,0.1-0.1,0.1-0.1c0,0,0-0.1,0.1-0.1c0,0,0-0.1,0.1-0.1c0,0,0,0,0,0c0,0,0,0,0,0c0,0,0,0,0-0.1
			c0,0,0-0.1,0-0.1c0,0,0-0.1,0-0.1c0,0,0-0.1,0-0.1c0,0,0-0.1,0-0.1c0,0,0-0.1,0-0.1L184,67.7c0,0,0,0,0,0c0,0,0-0.1,0-0.1
			c0,0,0-0.1,0-0.1C184,67.4,184,67.4,184,67.3C184,67.3,184,67.3,184,67.3C184,67.3,184,67.3,184,67.3z"/>
		<linearGradient id="XMLID_5_" gradientUnits="userSpaceOnUse" x1="94.9596" y1="50.4887" x2="153.506" y2="109.0351">
			<stop  offset="0" style="stop-color:#5DCBFF"/>
			<stop  offset="1" style="stop-color:#2E71DD"/>
		</linearGradient>
		<path id="XMLID_33_" class="st14" d="M180.5,65.5c0.9,0.3,1.4,1.4,1.2,2.5l-14.6,67.7c-0.2,1-1.1,1.6-2,1.3l-85.4-31.1
			c-0.9-0.3-1.4-1.4-1.2-2.5l14.6-67.7c0.2-1,1.1-1.6,2-1.3L180.5,65.5z"/>
	</g>
	<g class="st15">
		<path class="st16" d="M106.1,84.1v0.2c0.1,0,0.3,0,0.4,0.1l42.1,15.5c0.8,0.3,1.2,1.3,1,2.2l-0.7,3.1c-0.2,0.7-0.7,1.2-1.3,1.2
			c-0.1,0-0.3,0-0.4-0.1l-42.1-15.5c-0.8-0.3-1.2-1.3-1-2.2l0.7-3.1c0.2-0.7,0.7-1.2,1.3-1.2V84.1 M106.1,84.1
			c-0.7,0-1.3,0.6-1.5,1.4l-0.7,3c-0.2,1,0.3,2.2,1.2,2.5l42.1,15.5c0.2,0.1,0.3,0.1,0.5,0.1c0.7,0,1.3-0.6,1.5-1.4l0.7-3
			c0.2-1-0.3-2.2-1.2-2.5l-42.1-15.5C106.4,84.1,106.3,84.1,106.1,84.1L106.1,84.1z"/>
	</g>
	<g>
		<linearGradient id="SVGID_14_" gradientUnits="userSpaceOnUse" x1="86.4296" y1="41.9587" x2="173.8715" y2="129.4005">
			<stop  offset="0" style="stop-color:#B3D6F2"/>
			<stop  offset="0.5" style="stop-color:#2E71DD"/>
			<stop  offset="1" style="stop-color:#55BDFA"/>
		</linearGradient>
		<path class="st17" d="M94.7,34.8L94.7,34.8c0.1,0,0.2,0,0.3,0.1l85.4,31.1c0.7,0.2,1.1,1.1,0.9,1.9l-14.6,67.7c-0.1,0.6-0.6,1-1,1
			c-0.1,0-0.2,0-0.3-0.1l-85.4-31.1c-0.7-0.2-1.1-1.1-0.9-1.9l14.6-67.7C93.7,35.2,94.2,34.8,94.7,34.8 M94.7,34.3
			c-0.7,0-1.3,0.6-1.5,1.4l-14.6,67.7c-0.2,1,0.3,2.2,1.2,2.5l85.4,31.1c0.2,0.1,0.3,0.1,0.5,0.1c0.7,0,1.3-0.6,1.5-1.4L181.7,68
			c0.2-1-0.3-2.2-1.2-2.5L95.2,34.4C95,34.3,94.8,34.3,94.7,34.3L94.7,34.3z"/>
	</g>
	<g class="st15">
		<path class="st16" d="M133.7,66.6c4.9,1.8,7.9,8,6.6,13.8l0,0c-1.2,5.8-6.3,9.1-11.2,7.3l-0.2-0.1c-4.9-1.8-7.9-8-6.6-13.8l0,0
			c1.2-5.8,6.3-9.1,11.2-7.3L133.7,66.6z"/>
	</g>
	<defs>
		<filter id="Adobe_OpacityMaskFilter_1_" filterUnits="userSpaceOnUse" x="76.3" y="84.1" width="150.5" height="55.1">
			<feColorMatrix  type="matrix" values="1 0 0 0 0  0 1 0 0 0  0 0 1 0 0  0 0 0 1 0"/>
		</filter>
	</defs>
	<mask maskUnits="userSpaceOnUse" x="76.3" y="84.1" width="150.5" height="55.1" id="SVGID_15_">
		<g class="st18">
			<path id="XMLID_2_" class="st19" d="M180.5,65.5c0.9,0.3,1.4,1.4,1.2,2.5l-14.6,67.7c-0.2,1-1.1,1.6-2,1.3l-85.4-31.1
				c-0.9-0.3-1.4-1.4-1.2-2.5l14.6-67.7c0.2-1,1.1-1.6,2-1.3L180.5,65.5z"/>
		</g>
	</mask>
	<g class="st20">
		<g>
			
				<linearGradient id="SVGID_16_" gradientUnits="userSpaceOnUse" x1="207.9925" y1="1256.333" x2="357.9925" y2="1256.333" gradientTransform="matrix(-1 0 0 -1 434.5104 1368.1125)">
				<stop  offset="0" style="stop-color:#C6E4FF"/>
				<stop  offset="1" style="stop-color:#BADFFE"/>
			</linearGradient>
			<path class="st21" d="M146.6,85.5l78.1,28.3c2.8,1.2,2.2,3.3-1.1,4.5l-55.9,20.2c-2.8,1-7.3,1-10.1,0l-78.1-28.2
				c-3.4-1.2-3.9-3.2-1.1-4.5l55.9-20.3C137.6,84,143.2,84,146.6,85.5z"/>
			
				<linearGradient id="SVGID_17_" gradientUnits="userSpaceOnUse" x1="219.3055" y1="1256.1116" x2="350.4999" y2="1256.1116" gradientTransform="matrix(-1 0 0 -1 434.5104 1368.1125)">
				<stop  offset="0" style="stop-color:#D1EAFE"/>
				<stop  offset="0.8" style="stop-color:#79AFF0"/>
				<stop  offset="1" style="stop-color:#A6D4FC"/>
			</linearGradient>
			<path class="st22" d="M143.4,89.2l69.8,25.2c2.8,1.2,2.2,3.3-1.1,4.5l-44.9,16.4c-2.8,1-7.3,1-10.1,0l-69.8-25.1
				c-3.4-1.2-3.9-3.2-1.1-4.5l44.9-16.4C134.3,87.6,140,87.6,143.4,89.2z"/>
			
				<linearGradient id="SVGID_18_" gradientUnits="userSpaceOnUse" x1="256.399" y1="1263.4722" x2="300.5855" y2="1263.4722" gradientTransform="matrix(-1 0 0 -1 434.5104 1368.1125)">
				<stop  offset="0" style="stop-color:#5DCBFF"/>
				<stop  offset="1" style="stop-color:#2E71DD"/>
			</linearGradient>
			<path class="st23" d="M134.3,102.5l16.1-5.9c0.7-0.2,1.4-0.2,2.1,0l25.3,9.2c0.4,0.2,0.4,0.8,0,0.9l-16,5.8c-0.7,0.2-1.4,0.2-2,0
				l-25.5-9.2C133.8,103.3,133.8,102.7,134.3,102.5z"/>
			
				<linearGradient id="SVGID_19_" gradientUnits="userSpaceOnUse" x1="261.2272" y1="1255.1862" x2="327.877" y2="1255.1862" gradientTransform="matrix(-1 0 0 -1 434.5104 1368.1125)">
				<stop  offset="0" style="stop-color:#5DCBFF"/>
				<stop  offset="1" style="stop-color:#2E71DD"/>
			</linearGradient>
			<path class="st24" d="M107,102l3.2-1.1c0.7-0.2,1.4-0.2,2.1,0l60.7,22c0.4,0.2,0.4,0.8,0,0.9l-3,1.1c-0.7,0.2-1.4,0.2-2,0
				L107,103C106.5,102.8,106.5,102.2,107,102z"/>
			
				<linearGradient id="SVGID_20_" gradientUnits="userSpaceOnUse" x1="267.8468" y1="1252.5009" x2="334.4966" y2="1252.5009" gradientTransform="matrix(-1 0 0 -1 434.5104 1368.1125)">
				<stop  offset="0" style="stop-color:#5DCBFF"/>
				<stop  offset="1" style="stop-color:#2E71DD"/>
			</linearGradient>
			<path class="st25" d="M100.3,104.7l3.2-1.1c0.7-0.2,1.4-0.2,2.1,0l60.7,22c0.4,0.2,0.4,0.8,0,0.9l-3,1.1c-0.7,0.2-1.4,0.2-2,0
				l-60.9-22C99.9,105.5,99.9,104.9,100.3,104.7z"/>
			
				<linearGradient id="SVGID_21_" gradientUnits="userSpaceOnUse" x1="274.583" y1="1249.7292" x2="341.2328" y2="1249.7292" gradientTransform="matrix(-1 0 0 -1 434.5104 1368.1125)">
				<stop  offset="0" style="stop-color:#5DCBFF"/>
				<stop  offset="1" style="stop-color:#2E71DD"/>
			</linearGradient>
			<path class="st26" d="M93.6,107.5l3.2-1.1c0.7-0.2,1.4-0.2,2.1,0l60.7,22c0.4,0.2,0.4,0.8,0,0.9l-3,1.1c-0.7,0.2-1.4,0.2-2,0
				l-60.9-22C93.2,108.3,93.2,107.7,93.6,107.5z"/>
		</g>
		<defs>
			<filter id="Adobe_OpacityMaskFilter_2_" filterUnits="userSpaceOnUse" x="76.3" y="84.1" width="150.5" height="34.4">
				<feColorMatrix  type="matrix" values="1 0 0 0 0  0 1 0 0 0  0 0 1 0 0  0 0 0 1 0"/>
			</filter>
		</defs>
		<mask maskUnits="userSpaceOnUse" x="76.3" y="84.1" width="150.5" height="34.4" id="SVGID_15_">
			<g class="st27">
				<g>
					
						<linearGradient id="SVGID_22_" gradientUnits="userSpaceOnUse" x1="273.1124" y1="1278.9009" x2="344.3944" y2="1252.0405" gradientTransform="matrix(-1 0 0 -1 434.5104 1368.1125)">
						<stop  offset="0" style="stop-color:#000000"/>
						<stop  offset="0.5" style="stop-color:#FFFFFF"/>
						<stop  offset="1" style="stop-color:#000000"/>
					</linearGradient>
					<path class="st28" d="M76.4,172.3h79.5c3.3,0,6-2.7,6-6v-120c0-3.3-2.7-6-6-6H76.4c-3.3,0-6,2.7-6,6v120
						C70.4,169.6,73.1,172.3,76.4,172.3z"/>
				</g>
				
					<linearGradient id="SVGID_23_" gradientUnits="userSpaceOnUse" x1="199.2407" y1="1282.9111" x2="265.2174" y2="1308.4568" gradientTransform="matrix(-1 0 0 -1 434.5104 1368.1125)">
					<stop  offset="0" style="stop-color:#000000"/>
					<stop  offset="0.5" style="stop-color:#FFFFFF"/>
					<stop  offset="1" style="stop-color:#000000"/>
				</linearGradient>
				<path class="st29" d="M169.1,6h70c2.9,0,5.2,2.3,5.2,5.2V135c0,2.9-2.3,5.2-5.2,5.2h-70c-2.9,0-5.2-2.3-5.2-5.2V11.2
					C163.8,8.4,166.2,6,169.1,6z"/>
			</g>
		</mask>
		<path class="st30" d="M79.4,110.2c-3.4-1.2-3.9-3.2-1.1-4.5l55.9-20.3c3.4-1.5,9-1.5,12.4,0l78.1,28.3c2.8,1.2,2.2,3.3-1.1,4.5"/>
	</g>
</g>
</svg>
