<?xml version="1.0" encoding="utf-8"?>
<!-- Generator: Adobe Illustrator 25.0.0, SVG Export Plug-In . SVG Version: 6.00 Build 0)  -->
<svg version="1.1" id="图层_1" xmlns="http://www.w3.org/2000/svg" xmlns:xlink="http://www.w3.org/1999/xlink" x="0px" y="0px"
	 viewBox="0 0 1024 1024" style="enable-background:new 0 0 1024 1024;" xml:space="preserve">
<style type="text/css">
	.st0{opacity:0.1;fill:#1F8EEC;}
	.st1{fill:#FFFFFF;stroke:#1F8EEC;stroke-width:32;stroke-linecap:round;stroke-linejoin:round;stroke-miterlimit:10;}
	.st2{opacity:0.5;fill:none;stroke:#1F8EEC;stroke-width:32;stroke-linecap:round;stroke-linejoin:round;stroke-miterlimit:10;}
	.st3{opacity:0.5;}
	.st4{fill:none;stroke:#1F8EEC;stroke-width:32;stroke-linecap:round;stroke-linejoin:round;stroke-miterlimit:10;}
</style>
<circle class="st0" cx="512" cy="512" r="448"/>
<g>
	<path class="st1" d="M904,800H120c-13.2,0-24-10.8-24-24V248c0-13.2,10.8-24,24-24h784c13.2,0,24,10.8,24,24v528
		C928,789.2,917.2,800,904,800z"/>
	<line class="st2" x1="223.47" y1="672" x2="800.53" y2="672"/>
	<g class="st3">
		<circle class="st4" cx="384" cy="532" r="12"/>
		<line class="st4" x1="384" y1="532" x2="451.88" y2="464.12"/>
		<path class="st4" d="M227.25,544.25c-2.13-10.42-3.25-21.2-3.25-32.25c0-88.37,71.63-160,160-160s160,71.63,160,160
			c0,11.05-1.12,21.83-3.25,32.25"/>
	</g>
	<line class="st2" x1="640" y1="352" x2="736.53" y2="352"/>
	<line class="st2" x1="640" y1="448" x2="800.53" y2="448"/>
	<line class="st2" x1="640" y1="544" x2="768" y2="544"/>
</g>
</svg>
