<?xml version="1.0" encoding="utf-8"?>
<!-- Generator: Adobe Illustrator 25.0.0, SVG Export Plug-In . SVG Version: 6.00 Build 0)  -->
<svg version="1.1" id="图层_1" xmlns="http://www.w3.org/2000/svg" xmlns:xlink="http://www.w3.org/1999/xlink" x="0px" y="0px"
	 viewBox="0 0 200 200" style="enable-background:new 0 0 200 200;" xml:space="preserve">
<style type="text/css">
	.st0{fill:url(#SVGID_1_);}
	.st1{enable-background:new    ;}
	.st2{fill:url(#SVGID_2_);}
	.st3{fill:url(#SVGID_3_);}
	.st4{fill:#AAAAAA;}
	.st5{fill:url(#SVGID_7_);}
	.st6{fill:url(#SVGID_8_);}
	.st7{fill:#182AAE;}
	.st8{fill:#1A4BC0;}
	.st9{clip-path:url(#XMLID_3_);fill:url(#SVGID_9_);}
	.st10{clip-path:url(#XMLID_3_);fill:url(#SVGID_10_);}
	.st11{clip-path:url(#XMLID_3_);fill:url(#SVGID_11_);}
	
		.st12{clip-path:url(#XMLID_5_);fill:none;stroke:#1A4BC0;stroke-width:2;stroke-linecap:round;stroke-linejoin:round;stroke-miterlimit:10;}
	.st13{opacity:0.2;}
	.st14{fill:#FFFFFF;}
	.st15{filter:url(#Adobe_OpacityMaskFilter);}
	.st16{opacity:0.8;fill:url(#SVGID_13_);}
	.st17{opacity:0.8;fill:url(#SVGID_14_);}
	.st18{mask:url(#SVGID_12_);}
	.st19{fill:#64EDDC;}
	.st20{fill:#35D3BC;}
	.st21{fill:none;stroke:#FFFFFF;stroke-width:2;stroke-linecap:round;stroke-linejoin:round;stroke-miterlimit:10;}
</style>
<g>
	<g>
		<g>
			<linearGradient id="SVGID_1_" gradientUnits="userSpaceOnUse" x1="152.9803" y1="120.0797" x2="164.9832" y2="120.0797">
				<stop  offset="0" style="stop-color:#5DCBFF"/>
				<stop  offset="1" style="stop-color:#2E71DD"/>
			</linearGradient>
			<path class="st0" d="M162.8,117.7c2.6,1.1,3,3,0.9,4.3c-2.1,1.3-5.9,1.5-8.4,0.4c-2.6-1.1-3-3-0.9-4.3
				C156.4,116.8,160.2,116.6,162.8,117.7z"/>
		</g>
		<g>
			<g class="st1">
				<linearGradient id="SVGID_2_" gradientUnits="userSpaceOnUse" x1="154.8372" y1="98.1025" x2="163.1305" y2="98.1025">
					<stop  offset="0" style="stop-color:#D1EAFE"/>
					<stop  offset="0.8" style="stop-color:#79AFF0"/>
					<stop  offset="1" style="stop-color:#A6D4FC"/>
				</linearGradient>
				<path class="st2" d="M163.1,119.3c0-0.1,0-0.1,0-0.2c0,0,0,0,0,0L162.8,75c0,0.1,0,0.2,0,0.3c0,0,0,0,0,0c0,0.1-0.1,0.2-0.1,0.3
					c0,0,0,0,0,0c-0.1,0.1-0.1,0.2-0.2,0.3c0,0,0,0-0.1,0.1c-0.1,0.1-0.2,0.2-0.3,0.3c-0.1,0-0.2,0.1-0.2,0.1
					c-0.2,0.1-0.3,0.2-0.5,0.2c-0.1,0-0.2,0.1-0.3,0.1c-0.2,0.1-0.4,0.1-0.5,0.2c-0.1,0-0.2,0.1-0.3,0.1c-0.1,0-0.1,0-0.2,0
					c-0.2,0-0.4,0.1-0.6,0.1c0,0,0,0,0,0c-0.3,0-0.5,0-0.8,0c0,0,0,0,0,0c-0.2,0-0.5,0-0.7-0.1c0,0,0,0-0.1,0
					c-0.2,0-0.4-0.1-0.7-0.1c0,0-0.1,0-0.1,0c-0.2-0.1-0.4-0.1-0.6-0.2c-1-0.4-1.5-1-1.5-1.6l0.3,44.1c0,0.6,0.5,1.2,1.5,1.6
					c0,0,0,0,0,0c0.1,0.1,0.3,0.1,0.4,0.1c0.1,0,0.1,0,0.2,0c0,0,0.1,0,0.1,0c0,0,0.1,0,0.1,0c0.1,0,0.2,0,0.3,0.1
					c0.1,0,0.1,0,0.2,0c0,0,0,0,0.1,0c0,0,0.1,0,0.1,0c0.1,0,0.2,0,0.3,0c0.1,0,0.2,0,0.3,0c0,0,0,0,0,0c0,0,0,0,0,0
					c0.1,0,0.2,0,0.4,0c0.1,0,0.3,0,0.4,0c0,0,0,0,0,0c0,0,0,0,0,0c0.1,0,0.3,0,0.4,0c0.1,0,0.1,0,0.2,0c0.1,0,0.1,0,0.2,0
					c0,0,0.1,0,0.1,0c0.1,0,0.1,0,0.2,0c0.2,0,0.4-0.1,0.5-0.2c0.1,0,0.2-0.1,0.3-0.1c0.2-0.1,0.3-0.2,0.5-0.2c0,0,0.1,0,0.1-0.1
					c0,0,0.1,0,0.1-0.1c0.1-0.1,0.2-0.1,0.3-0.2c0,0,0.1-0.1,0.1-0.1c0,0,0,0,0.1-0.1c0,0,0,0,0.1-0.1c0.1-0.1,0.1-0.1,0.1-0.2
					c0,0,0,0,0,0c0,0,0,0,0,0c0,0,0-0.1,0.1-0.1c0-0.1,0.1-0.1,0.1-0.2c0,0,0,0,0,0c0,0,0,0,0,0
					C163.1,119.4,163.1,119.3,163.1,119.3z"/>
				<linearGradient id="SVGID_3_" gradientUnits="userSpaceOnUse" x1="154.8372" y1="75.0175" x2="162.8384" y2="75.0175">
					<stop  offset="0" style="stop-color:#5DCBFF"/>
					<stop  offset="1" style="stop-color:#2E71DD"/>
				</linearGradient>
				<path class="st3" d="M161.3,73.4c1.7,0.7,2,2,0.7,2.9c-1.4,0.9-3.9,1.1-5.6,0.4c-1.7-0.7-2-2-0.7-2.9
					C157.1,72.8,159.6,72.7,161.3,73.4z"/>
				<g class="st1">
					<defs>
						<path id="SVGID_4_" class="st1" d="M161.3,73.4c1.7,0.7,2,2,0.7,2.9c-1.4,0.9-3.9,1.1-5.6,0.4c-1.7-0.7-2-2-0.7-2.9
							C157.1,72.8,159.6,72.7,161.3,73.4z"/>
					</defs>
					<linearGradient id="SVGID_5_" gradientUnits="userSpaceOnUse" x1="154.8372" y1="75.0175" x2="162.8384" y2="75.0175">
						<stop  offset="0" style="stop-color:#5DCBFF"/>
						<stop  offset="1" style="stop-color:#2E71DD"/>
					</linearGradient>
					<use xlink:href="#SVGID_4_"  style="overflow:visible;fill:url(#SVGID_5_);"/>
					<clipPath id="SVGID_6_">
						<use xlink:href="#SVGID_4_"  style="overflow:visible;"/>
					</clipPath>
				</g>
			</g>
		</g>
		<g>
			<g class="st1">
				<g>
					<ellipse transform="matrix(1 -8.564752e-03 8.564752e-03 1 -0.3413 1.3593)" class="st4" cx="158.5" cy="40.5" rx="2" ry="1"/>
					<linearGradient id="SVGID_7_" gradientUnits="userSpaceOnUse" x1="156.5399" y1="40.5341" x2="160.5394" y2="40.5341">
						<stop  offset="0" style="stop-color:#5DCBFF"/>
						<stop  offset="1" style="stop-color:#2E71DD"/>
					</linearGradient>
					<path class="st5" d="M159.8,39.7c0.9,0.4,1,1,0.3,1.5c-0.7,0.5-1.9,0.5-2.8,0.2c-0.9-0.4-1-1-0.3-1.5
						C157.7,39.4,158.9,39.4,159.8,39.7z"/>
				</g>
				<linearGradient id="SVGID_8_" gradientUnits="userSpaceOnUse" x1="156.5399" y1="58.1045" x2="160.8315" y2="58.1045">
					<stop  offset="0" style="stop-color:#D1EAFE"/>
					<stop  offset="0.8" style="stop-color:#79AFF0"/>
					<stop  offset="1" style="stop-color:#A6D4FC"/>
				</linearGradient>
				<path class="st6" d="M160.8,72.9l-0.3-32.4c0,0.1,0,0.2-0.1,0.3c0,0,0,0,0,0c-0.1,0.1-0.2,0.2-0.3,0.3c-0.2,0.1-0.3,0.2-0.6,0.2
					c0,0-0.1,0-0.1,0c-0.2,0.1-0.4,0.1-0.6,0.1c0,0,0,0,0,0c-0.3,0-0.5,0-0.8,0c0,0,0,0,0,0c-0.2,0-0.5-0.1-0.7-0.2
					c-0.5-0.2-0.8-0.5-0.8-0.8l0.3,34.1c0,0.3,0.3,0.6,0.8,0.8c0,0,0,0,0,0c0.1,0,0.1,0.1,0.2,0.1c0.1,0,0.1,0,0.2,0
					c0.1,0,0.1,0,0.2,0c0,0,0.1,0,0.1,0c0,0,0,0,0,0c0,0,0,0,0,0c0.1,0,0.1,0,0.2,0c0.1,0,0.1,0,0.2,0c0.1,0,0.1,0,0.2,0
					c0.1,0,0.1,0,0.2,0c0,0,0,0,0,0c0,0,0,0,0,0c0.1,0,0.1,0,0.2,0c0.1,0,0.2,0,0.3,0c0.1,0,0.1,0,0.2,0c0,0,0.1,0,0.1,0
					c0.2-0.1,0.4-0.1,0.5-0.2c0,0,0,0,0,0c0,0,0.1-0.1,0.1-0.1c0,0,0.1-0.1,0.1-0.1c0,0,0.1-0.1,0.1-0.1c0,0,0,0,0,0c0,0,0,0,0,0
					c0,0,0,0,0-0.1c0,0,0-0.1,0-0.1c0,0,0-0.1,0-0.1c0,0,0-0.1,0-0.1L160.8,72.9z"/>
			</g>
		</g>
	</g>
	<g>
		<path id="XMLID_27_" class="st7" d="M170,124.1h-33.6l-50.1-18.1c-2.1-0.8-5.6-0.8-7.7,0l-14.9,5.4H30v17.2h0
			c0,0.6,0.4,1.1,1.3,1.5l81.5,29.5c2.6,1.2,6.9,1.2,9.4,0l46.3-16.8c1-0.4,1.4-1,1.3-1.5h0V124.1z"/>
		<path id="XMLID_26_" class="st8" d="M170,123.4h-33.6l-50.1-18.1c-2.1-0.8-5.6-0.8-7.7,0l-14.9,5.4H30v17.2h0
			c0,0.6,0.4,1.1,1.3,1.5l81.5,29.5c2.6,1.2,6.9,1.2,9.4,0l46.3-16.8c1-0.4,1.4-1,1.3-1.5h0V123.4z"/>
		<g>
			<defs>
				<path id="XMLID_25_" d="M170,121.5h-33.6l-50.1-18.1c-2.1-0.8-5.6-0.8-7.7,0l-14.9,5.4H30V126h0c0,0.6,0.4,1.1,1.3,1.5
					l81.5,29.5c2.6,1.2,6.9,1.2,9.4,0l46.3-16.8c1-0.4,1.4-1,1.3-1.5h0V121.5z"/>
			</defs>
			<linearGradient id="XMLID_2_" gradientUnits="userSpaceOnUse" x1="30" y1="130.3364" x2="169.9911" y2="130.3364">
				<stop  offset="0" style="stop-color:#AFDAFE"/>
				<stop  offset="1" style="stop-color:#6FA7EE"/>
			</linearGradient>
			<use xlink:href="#XMLID_25_"  style="overflow:visible;fill:url(#XMLID_2_);"/>
			<clipPath id="XMLID_3_">
				<use xlink:href="#XMLID_25_"  style="overflow:visible;"/>
			</clipPath>
			<linearGradient id="SVGID_9_" gradientUnits="userSpaceOnUse" x1="111.5627" y1="149.5769" x2="121.9641" y2="149.5769">
				<stop  offset="0" style="stop-color:#D0EAFE;stop-opacity:0"/>
				<stop  offset="0.5" style="stop-color:#D4ECFE"/>
				<stop  offset="1" style="stop-color:#D1EBFE;stop-opacity:0.1594"/>
			</linearGradient>
			<rect x="111.6" y="137.2" class="st9" width="10.4" height="24.8"/>
			<linearGradient id="SVGID_10_" gradientUnits="userSpaceOnUse" x1="24.7993" y1="121.0289" x2="35.2007" y2="121.0289">
				<stop  offset="0" style="stop-color:#D0EAFE;stop-opacity:0"/>
				<stop  offset="0.5" style="stop-color:#D4ECFE"/>
				<stop  offset="1" style="stop-color:#D1EBFE;stop-opacity:0.1594"/>
			</linearGradient>
			<rect x="24.8" y="108.6" class="st10" width="10.4" height="24.8"/>
			<linearGradient id="SVGID_11_" gradientUnits="userSpaceOnUse" x1="164.7993" y1="130.0485" x2="175.2007" y2="130.0485">
				<stop  offset="0" style="stop-color:#D0EAFE;stop-opacity:0"/>
				<stop  offset="0.5" style="stop-color:#D4ECFE"/>
				<stop  offset="1" style="stop-color:#D1EBFE;stop-opacity:0.1594"/>
			</linearGradient>
			<rect x="164.8" y="117.7" class="st11" width="10.4" height="24.8"/>
		</g>
		<g>
			<defs>
				<path id="XMLID_16_" d="M112.9,139.8l-81.5-29.5c-2.1-0.9-1.7-2.5,0.9-3.4l46.3-16.8c2.1-0.8,5.6-0.8,7.7,0l81.6,29.5
					c2.6,0.9,3,2.5,0.9,3.4l-46.3,16.8C119.7,141,115.5,141,112.9,139.8z"/>
			</defs>
			<linearGradient id="XMLID_4_" gradientUnits="userSpaceOnUse" x1="30" y1="115.1262" x2="170" y2="115.1262">
				<stop  offset="0" style="stop-color:#C6E4FF"/>
				<stop  offset="1" style="stop-color:#BADFFE"/>
			</linearGradient>
			<use xlink:href="#XMLID_16_"  style="overflow:visible;fill:url(#XMLID_4_);"/>
			<clipPath id="XMLID_5_">
				<use xlink:href="#XMLID_16_"  style="overflow:visible;"/>
			</clipPath>
			<line class="st12" x1="27.4" y1="109.2" x2="118.1" y2="142"/>
		</g>
		<g class="st13">
			<path class="st14" d="M82.4,89.8c1.4,0,2.8,0.2,3.8,0.6l81.6,29.5c1.3,0.5,2,1.1,2,1.7c0,0.5-0.4,0.9-1.2,1.2l-46.3,16.8
				c-1.2,0.5-2.9,0.9-4.6,0.9c-1.8,0-3.4-0.3-4.6-0.9l-81.5-29.5c-0.8-0.4-1.2-0.8-1.2-1.3c0-0.6,0.8-1.2,2-1.7l46.3-16.8
				C79.6,90,81,89.8,82.4,89.8 M82.4,89.6c-1.4,0-2.8,0.2-3.8,0.6l-46.3,16.8c-2.6,0.9-3,2.5-0.9,3.4l81.5,29.5
				c1.3,0.6,3,0.9,4.7,0.9c1.7,0,3.4-0.3,4.7-0.9l46.3-16.8c2.1-0.9,1.7-2.5-0.9-3.4L86.2,90.1C85.2,89.7,83.8,89.6,82.4,89.6
				L82.4,89.6z"/>
		</g>
		<defs>
			<filter id="Adobe_OpacityMaskFilter" filterUnits="userSpaceOnUse" x="30" y="89.6" width="140" height="51.1">
				<feColorMatrix  type="matrix" values="1 0 0 0 0  0 1 0 0 0  0 0 1 0 0  0 0 0 1 0"/>
			</filter>
		</defs>
		<mask maskUnits="userSpaceOnUse" x="30" y="89.6" width="140" height="51.1" id="SVGID_12_">
			<g class="st15">
				<linearGradient id="SVGID_13_" gradientUnits="userSpaceOnUse" x1="116.5713" y1="139.26" x2="166.4854" y2="139.26">
					<stop  offset="0.2" style="stop-color:#000000"/>
					<stop  offset="0.5" style="stop-color:#FFFFFF"/>
					<stop  offset="0.8" style="stop-color:#000000"/>
				</linearGradient>
				<rect x="116.6" y="121.7" class="st16" width="49.9" height="35.1"/>
				<linearGradient id="SVGID_14_" gradientUnits="userSpaceOnUse" x1="-27.4641" y1="94.3522" x2="54.731" y2="94.3522">
					<stop  offset="0.2" style="stop-color:#000000"/>
					<stop  offset="0.5" style="stop-color:#FFFFFF"/>
					<stop  offset="0.8" style="stop-color:#000000"/>
				</linearGradient>
				<rect x="-27.5" y="76.8" class="st17" width="82.2" height="35.1"/>
			</g>
		</mask>
		<g class="st18">
			<path class="st14" d="M82.4,90.3c1.4,0,2.7,0.2,3.6,0.5l81.6,29.5c1.2,0.4,1.7,1,1.7,1.2c0,0.2-0.3,0.5-0.9,0.8l-46.3,16.8l0,0
				l0,0c-1.1,0.5-2.8,0.8-4.4,0.8c-1.7,0-3.3-0.3-4.4-0.8l0,0l0,0l-81.5-29.5c-0.6-0.3-0.9-0.6-0.9-0.8c0-0.2,0.5-0.8,1.7-1.2
				l46.3-16.8C79.7,90.5,81,90.3,82.4,90.3 M82.4,89.6c-1.4,0-2.8,0.2-3.8,0.6l-46.3,16.8c-2.6,0.9-3,2.5-0.9,3.4l81.5,29.5
				c1.3,0.6,3,0.9,4.7,0.9c1.7,0,3.4-0.3,4.7-0.9l46.3-16.8c2.1-0.9,1.7-2.5-0.9-3.4L86.2,90.1C85.2,89.7,83.8,89.6,82.4,89.6
				L82.4,89.6z"/>
		</g>
	</g>
	<g>
		<g>
			<path class="st8" d="M102.2,139.6c1.2,0.4,2.2,2,2.2,3.6c0,1.5-0.9,2.4-2.1,2c-1.2-0.4-2.2-2-2.2-3.6
				C100.1,140,101,139.1,102.2,139.6z"/>
		</g>
		<g>
			<path class="st8" d="M94.2,136.7c1.2,0.4,2.2,2,2.2,3.6c0,1.5-0.9,2.4-2.1,2c-1.2-0.4-2.2-2-2.2-3.6
				C92.1,137.1,93,136.2,94.2,136.7z"/>
		</g>
		<g>
			<path class="st8" d="M86.5,133.8c1.2,0.4,2.2,2,2.2,3.6c0,1.5-0.9,2.4-2.1,2c-1.2-0.4-2.2-2-2.2-3.6S85.3,133.4,86.5,133.8z"/>
		</g>
	</g>
	<polygon class="st19" points="37.4,116.5 52.9,122.2 52.9,131.4 37.4,125.6 	"/>
	<polygon class="st20" points="37.8,117.2 52.9,122.7 52.9,122.2 37.4,116.5 37.4,125.6 37.8,125.8 	"/>
	<g>
		<line class="st21" x1="79.5" y1="117.8" x2="98.3" y2="124.6"/>
	</g>
</g>
</svg>
