<?xml version="1.0" encoding="utf-8"?>
<!-- Generator: Adobe Illustrator 25.0.0, SVG Export Plug-In . SVG Version: 6.00 Build 0)  -->
<svg version="1.1" id="图层_1" xmlns="http://www.w3.org/2000/svg" xmlns:xlink="http://www.w3.org/1999/xlink" x="0px" y="0px"
	 viewBox="0 0 200 200" style="enable-background:new 0 0 200 200;" xml:space="preserve">
<style type="text/css">
	.st0{clip-path:url(#XMLID_3_);fill:url(#SVGID_1_);}
	.st1{clip-path:url(#XMLID_3_);fill:url(#SVGID_2_);}
	.st2{clip-path:url(#XMLID_3_);fill:url(#SVGID_3_);}
	.st3{fill:url(#SVGID_4_);}
	.st4{filter:url(#Adobe_OpacityMaskFilter);}
	.st5{fill:url(#SVGID_6_);}
	.st6{fill:url(#SVGID_7_);}
	.st7{mask:url(#SVGID_5_);fill:none;stroke:#FFFFFF;stroke-width:0.5;stroke-miterlimit:10;}
	.st8{clip-path:url(#XMLID_5_);fill:url(#SVGID_8_);}
	.st9{clip-path:url(#XMLID_5_);fill:url(#SVGID_9_);}
	.st10{clip-path:url(#XMLID_5_);fill:url(#SVGID_10_);}
	.st11{fill:url(#SVGID_11_);}
	.st12{filter:url(#Adobe_OpacityMaskFilter_1_);}
	.st13{fill:url(#SVGID_13_);}
	.st14{fill:url(#SVGID_14_);}
	.st15{mask:url(#SVGID_12_);fill:none;stroke:#FFFFFF;stroke-width:0.5;stroke-miterlimit:10;}
	.st16{clip-path:url(#XMLID_16_);fill:url(#SVGID_15_);}
	.st17{clip-path:url(#XMLID_16_);fill:url(#SVGID_16_);}
	.st18{clip-path:url(#XMLID_16_);fill:url(#SVGID_17_);}
	.st19{fill:url(#SVGID_18_);}
	.st20{filter:url(#Adobe_OpacityMaskFilter_2_);}
	.st21{fill:url(#SVGID_20_);}
	.st22{fill:url(#SVGID_21_);}
	.st23{mask:url(#SVGID_19_);fill:none;stroke:#FFFFFF;stroke-width:0.5;stroke-miterlimit:10;}
	.st24{fill:#182AAE;}
	.st25{fill:#1A4BC0;}
	.st26{clip-path:url(#XMLID_18_);fill:url(#SVGID_22_);}
	.st27{clip-path:url(#XMLID_18_);fill:url(#SVGID_23_);}
	.st28{clip-path:url(#XMLID_18_);fill:url(#SVGID_24_);}
	.st29{fill:url(#SVGID_25_);}
	.st30{opacity:0.2;}
	.st31{fill:#FFFFFF;}
	.st32{fill:none;stroke:#FFFFFF;stroke-width:2;stroke-linecap:round;stroke-linejoin:round;stroke-miterlimit:10;}
	.st33{filter:url(#Adobe_OpacityMaskFilter_3_);}
	.st34{opacity:0.15;mask:url(#SVGID_26_);}
	.st35{clip-path:url(#XMLID_20_);fill:url(#SVGID_27_);}
	.st36{clip-path:url(#XMLID_20_);fill:url(#SVGID_28_);}
	.st37{clip-path:url(#XMLID_20_);fill:url(#SVGID_29_);}
</style>
<g>
	<g>
		<g>
			<g>
				<defs>
					<path id="XMLID_15_" d="M170.7,121.3h-36l-29.9-10.8c-2.3-0.8-6-0.8-8.2,0l-29.9,10.8h-36v28.1h0c-0.1,0.6,0.4,1.2,1.4,1.6
						l63.5,23c2.8,1.2,7.3,1.2,10.1,0l63.5-23c1-0.5,1.5-1,1.4-1.6h0V121.3z"/>
				</defs>
				<linearGradient id="XMLID_2_" gradientUnits="userSpaceOnUse" x1="30.6753" y1="142.4217" x2="170.6658" y2="142.4217">
					<stop  offset="0" style="stop-color:#B8DFFE"/>
					<stop  offset="1" style="stop-color:#6FA7EE"/>
				</linearGradient>
				<use xlink:href="#XMLID_15_"  style="overflow:visible;fill:url(#XMLID_2_);"/>
				<clipPath id="XMLID_3_">
					<use xlink:href="#XMLID_15_"  style="overflow:visible;"/>
				</clipPath>
				<linearGradient id="SVGID_1_" gradientUnits="userSpaceOnUse" x1="94.1984" y1="161.1925" x2="105.3304" y2="161.1925">
					<stop  offset="0" style="stop-color:#D0EAFE;stop-opacity:0"/>
					<stop  offset="0.5" style="stop-color:#D4ECFE"/>
					<stop  offset="1" style="stop-color:#D1EBFE;stop-opacity:0.1594"/>
				</linearGradient>
				<rect x="94.2" y="143.1" class="st0" width="11.1" height="36.2"/>
				<linearGradient id="SVGID_2_" gradientUnits="userSpaceOnUse" x1="25.1093" y1="139.2525" x2="36.2413" y2="139.2525">
					<stop  offset="0" style="stop-color:#D0EAFE;stop-opacity:0"/>
					<stop  offset="0.5" style="stop-color:#D4ECFE"/>
					<stop  offset="1" style="stop-color:#D1EBFE;stop-opacity:0.1594"/>
				</linearGradient>
				<rect x="25.1" y="121.1" class="st1" width="11.1" height="36.2"/>
				<linearGradient id="SVGID_3_" gradientUnits="userSpaceOnUse" x1="165.1093" y1="135.3214" x2="176.2413" y2="135.3214">
					<stop  offset="0" style="stop-color:#D0EAFE;stop-opacity:0"/>
					<stop  offset="0.5" style="stop-color:#D4ECFE"/>
					<stop  offset="1" style="stop-color:#D1EBFE;stop-opacity:0.1594"/>
				</linearGradient>
				<rect x="165.1" y="117.2" class="st2" width="11.1" height="36.2"/>
			</g>
			<linearGradient id="SVGID_4_" gradientUnits="userSpaceOnUse" x1="30.6753" y1="121.2843" x2="170.6753" y2="121.2843">
				<stop  offset="0" style="stop-color:#5DCBFF"/>
				<stop  offset="1" style="stop-color:#2E71DD"/>
			</linearGradient>
			<path class="st3" d="M95.6,145.9l-63.5-23c-2.2-1-1.8-2.6,0.9-3.6l63.5-22.9c2.3-0.8,6-0.8,8.2,0l63.5,22.9
				c2.7,1,3.2,2.6,0.9,3.6l-63.5,23C103,147.1,98.4,147.1,95.6,145.9z"/>
		</g>
		<defs>
			<filter id="Adobe_OpacityMaskFilter" filterUnits="userSpaceOnUse" x="30.4" y="119.1" width="140.5" height="28">
				<feColorMatrix  type="matrix" values="1 0 0 0 0  0 1 0 0 0  0 0 1 0 0  0 0 0 1 0"/>
			</filter>
		</defs>
		<mask maskUnits="userSpaceOnUse" x="30.4" y="119.1" width="140.5" height="28" id="SVGID_5_">
			<g class="st4">
				<g>
					<linearGradient id="SVGID_6_" gradientUnits="userSpaceOnUse" x1="101.9032" y1="136.2926" x2="159.4903" y2="114.5927">
						<stop  offset="0" style="stop-color:#000000"/>
						<stop  offset="0.5" style="stop-color:#FFFFFF"/>
						<stop  offset="1" style="stop-color:#000000"/>
					</linearGradient>
					<path class="st5" d="M169.7,68.8h-62.4c-3.3,0-6,2.7-6,6v95.3c0,3.3,2.7,6,6,6h62.4c3.3,0,6-2.7,6-6V74.8
						C175.7,71.5,173,68.8,169.7,68.8z"/>
				</g>
				<linearGradient id="SVGID_7_" gradientUnits="userSpaceOnUse" x1="41.773" y1="139.696" x2="95.0919" y2="160.3406">
					<stop  offset="0" style="stop-color:#000000"/>
					<stop  offset="0.5" style="stop-color:#FFFFFF"/>
					<stop  offset="1" style="stop-color:#000000"/>
				</linearGradient>
				<path class="st6" d="M94.5,204H39.5c-2.9,0-5.2-2.3-5.2-5.2v-98.7c0-2.9,2.3-5.2,5.2-5.2h54.9c2.9,0,5.2,2.3,5.2,5.2v98.7
					C99.7,201.7,97.3,204,94.5,204z"/>
			</g>
		</mask>
		<path class="st7" d="M168.3,119.3c2.7,1,3.2,2.6,0.9,3.6l-63.5,23c-2.8,1.2-7.3,1.2-10.1,0l-63.5-23c-2.2-1-1.8-2.6,0.9-3.6"/>
	</g>
	<g>
		<g>
			<g>
				<defs>
					<path id="XMLID_14_" d="M170.7,86.3h-36l-29.9-10.8c-2.3-0.8-6-0.8-8.2,0L66.7,86.3h-36v28.1h0c-0.1,0.6,0.4,1.2,1.4,1.6
						l63.5,23c2.8,1.2,7.3,1.2,10.1,0l63.5-23c1-0.5,1.5-1,1.4-1.6h0V86.3z"/>
				</defs>
				<linearGradient id="XMLID_4_" gradientUnits="userSpaceOnUse" x1="30.6753" y1="107.4093" x2="170.6658" y2="107.4093">
					<stop  offset="0" style="stop-color:#B8DFFE"/>
					<stop  offset="1" style="stop-color:#6FA7EE"/>
				</linearGradient>
				<use xlink:href="#XMLID_14_"  style="overflow:visible;fill:url(#XMLID_4_);"/>
				<clipPath id="XMLID_5_">
					<use xlink:href="#XMLID_14_"  style="overflow:visible;"/>
				</clipPath>
				<linearGradient id="SVGID_8_" gradientUnits="userSpaceOnUse" x1="94.1984" y1="126.1802" x2="105.3304" y2="126.1802">
					<stop  offset="0" style="stop-color:#D0EAFE;stop-opacity:0"/>
					<stop  offset="0.5" style="stop-color:#D4ECFE"/>
					<stop  offset="1" style="stop-color:#D1EBFE;stop-opacity:0.1594"/>
				</linearGradient>
				<rect x="94.2" y="108.1" class="st8" width="11.1" height="36.2"/>
				<linearGradient id="SVGID_9_" gradientUnits="userSpaceOnUse" x1="25.1093" y1="104.2402" x2="36.2413" y2="104.2402">
					<stop  offset="0" style="stop-color:#D0EAFE;stop-opacity:0"/>
					<stop  offset="0.5" style="stop-color:#D4ECFE"/>
					<stop  offset="1" style="stop-color:#D1EBFE;stop-opacity:0.1594"/>
				</linearGradient>
				<rect x="25.1" y="86.1" class="st9" width="11.1" height="36.2"/>
				<linearGradient id="SVGID_10_" gradientUnits="userSpaceOnUse" x1="165.1093" y1="100.309" x2="176.2413" y2="100.309">
					<stop  offset="0" style="stop-color:#D0EAFE;stop-opacity:0"/>
					<stop  offset="0.5" style="stop-color:#D4ECFE"/>
					<stop  offset="1" style="stop-color:#D1EBFE;stop-opacity:0.1594"/>
				</linearGradient>
				<rect x="165.1" y="82.2" class="st10" width="11.1" height="36.2"/>
			</g>
			<linearGradient id="SVGID_11_" gradientUnits="userSpaceOnUse" x1="30.6753" y1="86.272" x2="170.6753" y2="86.272">
				<stop  offset="0" style="stop-color:#5DCBFF"/>
				<stop  offset="1" style="stop-color:#2E71DD"/>
			</linearGradient>
			<path class="st11" d="M95.6,110.9l-63.5-23c-2.2-1-1.8-2.6,0.9-3.6l63.5-22.9c2.3-0.8,6-0.8,8.2,0l63.5,22.9
				c2.7,1,3.2,2.6,0.9,3.6l-63.5,23C103,112.1,98.4,112.1,95.6,110.9z"/>
		</g>
		<defs>
			<filter id="Adobe_OpacityMaskFilter_1_" filterUnits="userSpaceOnUse" x="30.4" y="84" width="140.5" height="28">
				<feColorMatrix  type="matrix" values="1 0 0 0 0  0 1 0 0 0  0 0 1 0 0  0 0 0 1 0"/>
			</filter>
		</defs>
		<mask maskUnits="userSpaceOnUse" x="30.4" y="84" width="140.5" height="28" id="SVGID_12_">
			<g class="st12">
				<g>
					<linearGradient id="SVGID_13_" gradientUnits="userSpaceOnUse" x1="101.9032" y1="101.2803" x2="159.4903" y2="79.5804">
						<stop  offset="0" style="stop-color:#000000"/>
						<stop  offset="0.5" style="stop-color:#FFFFFF"/>
						<stop  offset="1" style="stop-color:#000000"/>
					</linearGradient>
					<path class="st13" d="M169.7,33.8h-62.4c-3.3,0-6,2.7-6,6v95.3c0,3.3,2.7,6,6,6h62.4c3.3,0,6-2.7,6-6V39.8
						C175.7,36.5,173,33.8,169.7,33.8z"/>
				</g>
				<linearGradient id="SVGID_14_" gradientUnits="userSpaceOnUse" x1="41.773" y1="104.6837" x2="95.0919" y2="125.3282">
					<stop  offset="0" style="stop-color:#000000"/>
					<stop  offset="0.5" style="stop-color:#FFFFFF"/>
					<stop  offset="1" style="stop-color:#000000"/>
				</linearGradient>
				<path class="st14" d="M94.5,169H39.5c-2.9,0-5.2-2.3-5.2-5.2V65.1c0-2.9,2.3-5.2,5.2-5.2h54.9c2.9,0,5.2,2.3,5.2,5.2v98.7
					C99.7,166.7,97.3,169,94.5,169z"/>
			</g>
		</mask>
		<path class="st15" d="M168.3,84.3c2.7,1,3.2,2.6,0.9,3.6l-63.5,23c-2.8,1.2-7.3,1.2-10.1,0l-63.5-23c-2.2-1-1.8-2.6,0.9-3.6"/>
	</g>
	<g>
		<g>
			<g>
				<defs>
					<path id="XMLID_13_" d="M170.7,51.4h-36l-29.9-10.8c-2.3-0.8-6-0.8-8.2,0L66.7,51.4h-36v28.1h0c-0.1,0.6,0.4,1.2,1.4,1.6
						l63.5,23c2.8,1.2,7.3,1.2,10.1,0l63.5-23c1-0.5,1.5-1,1.4-1.6h0V51.4z"/>
				</defs>
				<linearGradient id="XMLID_6_" gradientUnits="userSpaceOnUse" x1="30.6753" y1="72.5137" x2="170.6658" y2="72.5137">
					<stop  offset="0" style="stop-color:#B8DFFE"/>
					<stop  offset="1" style="stop-color:#6FA7EE"/>
				</linearGradient>
				<use xlink:href="#XMLID_13_"  style="overflow:visible;fill:url(#XMLID_6_);"/>
				<clipPath id="XMLID_16_">
					<use xlink:href="#XMLID_13_"  style="overflow:visible;"/>
				</clipPath>
				<linearGradient id="SVGID_15_" gradientUnits="userSpaceOnUse" x1="94.1984" y1="91.2846" x2="105.3304" y2="91.2846">
					<stop  offset="0" style="stop-color:#D0EAFE;stop-opacity:0"/>
					<stop  offset="0.5" style="stop-color:#D4ECFE"/>
					<stop  offset="1" style="stop-color:#D1EBFE;stop-opacity:0.1594"/>
				</linearGradient>
				<rect x="94.2" y="73.2" class="st16" width="11.1" height="36.2"/>
				<linearGradient id="SVGID_16_" gradientUnits="userSpaceOnUse" x1="25.1093" y1="69.3446" x2="36.2413" y2="69.3446">
					<stop  offset="0" style="stop-color:#D0EAFE;stop-opacity:0"/>
					<stop  offset="0.5" style="stop-color:#D4ECFE"/>
					<stop  offset="1" style="stop-color:#D1EBFE;stop-opacity:0.1594"/>
				</linearGradient>
				<rect x="25.1" y="51.2" class="st17" width="11.1" height="36.2"/>
				<linearGradient id="SVGID_17_" gradientUnits="userSpaceOnUse" x1="165.1093" y1="65.4134" x2="176.2413" y2="65.4134">
					<stop  offset="0" style="stop-color:#D0EAFE;stop-opacity:0"/>
					<stop  offset="0.5" style="stop-color:#D4ECFE"/>
					<stop  offset="1" style="stop-color:#D1EBFE;stop-opacity:0.1594"/>
				</linearGradient>
				<rect x="165.1" y="47.3" class="st18" width="11.1" height="36.2"/>
			</g>
			<linearGradient id="SVGID_18_" gradientUnits="userSpaceOnUse" x1="30.6753" y1="51.3763" x2="170.6753" y2="51.3763">
				<stop  offset="0" style="stop-color:#5DCBFF"/>
				<stop  offset="1" style="stop-color:#2E71DD"/>
			</linearGradient>
			<path class="st19" d="M95.6,76L32.1,53c-2.2-1-1.8-2.6,0.9-3.6l63.5-22.9c2.3-0.8,6-0.8,8.2,0l63.5,22.9c2.7,1,3.2,2.6,0.9,3.6
				l-63.5,23C103,77.2,98.4,77.2,95.6,76z"/>
		</g>
		<defs>
			<filter id="Adobe_OpacityMaskFilter_2_" filterUnits="userSpaceOnUse" x="30.4" y="49.2" width="140.5" height="28">
				<feColorMatrix  type="matrix" values="1 0 0 0 0  0 1 0 0 0  0 0 1 0 0  0 0 0 1 0"/>
			</filter>
		</defs>
		<mask maskUnits="userSpaceOnUse" x="30.4" y="49.2" width="140.5" height="28" id="SVGID_19_">
			<g class="st20">
				<g>
					<linearGradient id="SVGID_20_" gradientUnits="userSpaceOnUse" x1="101.9032" y1="66.3846" x2="159.4903" y2="44.6847">
						<stop  offset="0" style="stop-color:#000000"/>
						<stop  offset="0.5" style="stop-color:#FFFFFF"/>
						<stop  offset="1" style="stop-color:#000000"/>
					</linearGradient>
					<path class="st21" d="M169.7-1.1h-62.4c-3.3,0-6,2.7-6,6v95.3c0,3.3,2.7,6,6,6h62.4c3.3,0,6-2.7,6-6V4.9
						C175.7,1.6,173-1.1,169.7-1.1z"/>
				</g>
				<linearGradient id="SVGID_21_" gradientUnits="userSpaceOnUse" x1="41.773" y1="69.788" x2="95.0919" y2="90.4326">
					<stop  offset="0" style="stop-color:#000000"/>
					<stop  offset="0.5" style="stop-color:#FFFFFF"/>
					<stop  offset="1" style="stop-color:#000000"/>
				</linearGradient>
				<path class="st22" d="M94.5,134.1H39.5c-2.9,0-5.2-2.3-5.2-5.2V30.2c0-2.9,2.3-5.2,5.2-5.2h54.9c2.9,0,5.2,2.3,5.2,5.2v98.7
					C99.7,131.8,97.3,134.1,94.5,134.1z"/>
			</g>
		</mask>
		<path class="st23" d="M168.3,49.4c2.7,1,3.2,2.6,0.9,3.6l-63.5,23c-2.8,1.2-7.3,1.2-10.1,0L32.1,53c-2.2-1-1.8-2.6,0.9-3.6"/>
	</g>
	<g>
		<path id="XMLID_7_" class="st24" d="M151,41.1h-25.9l-21.5-7.8c-1.6-0.6-4.3-0.6-5.9,0l-21.5,7.8H50.4v10.2h0c0,0.4,0.3,0.9,1,1.2
			L97,69c2,0.9,5.3,0.9,7.3,0l45.6-16.5c0.7-0.3,1.1-0.8,1-1.2h0V41.1z"/>
		<path id="XMLID_12_" class="st25" d="M151,40.6h-25.9l-21.5-7.8c-1.6-0.6-4.3-0.6-5.9,0l-21.5,7.8H50.4v10.2h0
			c0,0.4,0.3,0.9,1,1.2L97,68.4c2,0.9,5.3,0.9,7.3,0l45.6-16.5c0.7-0.3,1.1-0.8,1-1.2h0V40.6z"/>
		<g>
			<defs>
				<path id="XMLID_11_" d="M151,39.1h-25.9l-21.5-7.8c-1.6-0.6-4.3-0.6-5.9,0l-21.5,7.8H50.4v10.2h0c0,0.4,0.3,0.9,1,1.2L97,67
					c2,0.9,5.3,0.9,7.3,0l45.6-16.5c0.7-0.3,1.1-0.8,1-1.2h0V39.1z"/>
			</defs>
			<linearGradient id="XMLID_17_" gradientUnits="userSpaceOnUse" x1="50.37" y1="49.2973" x2="150.9738" y2="49.2973">
				<stop  offset="0" style="stop-color:#AFDAFE"/>
				<stop  offset="1" style="stop-color:#6FA7EE"/>
			</linearGradient>
			<use xlink:href="#XMLID_11_"  style="overflow:visible;fill:url(#XMLID_17_);"/>
			<clipPath id="XMLID_18_">
				<use xlink:href="#XMLID_11_"  style="overflow:visible;"/>
			</clipPath>
			<linearGradient id="SVGID_22_" gradientUnits="userSpaceOnUse" x1="96.0207" y1="62.7869" x2="104.0207" y2="62.7869">
				<stop  offset="0" style="stop-color:#D0EAFE;stop-opacity:0"/>
				<stop  offset="0.5" style="stop-color:#D4ECFE"/>
				<stop  offset="1" style="stop-color:#D1EBFE;stop-opacity:0.1594"/>
			</linearGradient>
			<rect x="96" y="54.8" class="st26" width="8" height="16"/>
			<linearGradient id="SVGID_23_" gradientUnits="userSpaceOnUse" x1="46.37" y1="47.0198" x2="54.37" y2="47.0198">
				<stop  offset="0" style="stop-color:#D0EAFE;stop-opacity:0"/>
				<stop  offset="0.5" style="stop-color:#D4ECFE"/>
				<stop  offset="1" style="stop-color:#D1EBFE;stop-opacity:0.1594"/>
			</linearGradient>
			<rect x="46.4" y="39" class="st27" width="8" height="16"/>
			<linearGradient id="SVGID_24_" gradientUnits="userSpaceOnUse" x1="146.9807" y1="44.1947" x2="154.9807" y2="44.1947">
				<stop  offset="0" style="stop-color:#D0EAFE;stop-opacity:0"/>
				<stop  offset="0.5" style="stop-color:#D4ECFE"/>
				<stop  offset="1" style="stop-color:#D1EBFE;stop-opacity:0.1594"/>
			</linearGradient>
			<rect x="147" y="36.2" class="st28" width="8" height="16"/>
		</g>
		<linearGradient id="SVGID_25_" gradientUnits="userSpaceOnUse" x1="50.37" y1="39.1378" x2="150.9807" y2="39.1378">
			<stop  offset="0" style="stop-color:#C6E4FF"/>
			<stop  offset="1" style="stop-color:#BADFFE"/>
		</linearGradient>
		<path class="st29" d="M97,56.8L51.4,40.3c-1.6-0.7-1.3-1.9,0.7-2.6l45.6-16.5c1.6-0.6,4.3-0.6,5.9,0l45.6,16.5
			c2,0.7,2.3,1.9,0.7,2.6l-45.6,16.5C102.3,57.7,99,57.7,97,56.8z"/>
		<g class="st30">
			<path class="st31" d="M100.7,21c1.1,0,2.1,0.2,2.9,0.4l45.6,16.5c0.9,0.3,1.5,0.8,1.5,1.2c0,0.3-0.3,0.6-0.9,0.9l-45.7,16.5
				c-0.9,0.4-2.2,0.6-3.5,0.6c-1.3,0-2.6-0.2-3.5-0.7L51.5,40.1c-0.6-0.3-0.9-0.6-0.9-0.9c0-0.4,0.6-0.9,1.5-1.2l45.6-16.5
				C98.6,21.2,99.6,21,100.7,21 M100.7,20.8c-1.1,0-2.1,0.1-3,0.4L52.1,37.7c-2,0.7-2.3,1.9-0.7,2.6L97,56.8c1,0.4,2.3,0.7,3.6,0.7
				c1.3,0,2.6-0.2,3.6-0.7l45.6-16.5c1.6-0.7,1.3-1.9-0.7-2.6l-45.6-16.5C102.8,20.9,101.7,20.8,100.7,20.8L100.7,20.8z"/>
		</g>
	</g>
	<line class="st32" x1="53.7" y1="46.3" x2="96.6" y2="61.8"/>
	<line class="st32" x1="148" y1="46.3" x2="105.1" y2="61.8"/>
	<g>
		<g>
			<path class="st25" d="M163.8,62.2c-0.4,0.2-0.7,0.8-0.7,1.2l0,13c0,0.4,0.3,0.6,0.7,0.4c0.4-0.2,0.7-0.8,0.7-1.2l0-13
				C164.5,62.1,164.2,62,163.8,62.2z"/>
		</g>
		<g>
			<path class="st25" d="M156.5,65.1c-0.4,0.2-0.7,0.8-0.7,1.2l0,13c0,0.4,0.3,0.6,0.7,0.4c0.4-0.2,0.7-0.8,0.7-1.2l0-13
				C157.2,65,156.9,64.8,156.5,65.1z"/>
		</g>
		<g>
			<path class="st25" d="M149.2,67.8c-0.4,0.2-0.7,0.8-0.7,1.2l0,13c0,0.4,0.3,0.6,0.7,0.4c0.4-0.2,0.7-0.8,0.7-1.2l0-13
				C149.9,67.8,149.6,67.6,149.2,67.8z"/>
		</g>
		<g>
			<path class="st25" d="M142,70.4c-0.4,0.2-0.7,0.8-0.7,1.2l0,13c0,0.4,0.3,0.6,0.7,0.4c0.4-0.2,0.7-0.8,0.7-1.2l0-13
				C142.7,70.3,142.4,70.2,142,70.4z"/>
		</g>
		<g>
			<path class="st25" d="M134.8,73.1c-0.4,0.2-0.7,0.8-0.7,1.2l0,13c0,0.4,0.3,0.6,0.7,0.4c0.4-0.2,0.7-0.8,0.7-1.2l0-13
				C135.5,73,135.2,72.8,134.8,73.1z"/>
		</g>
		<g>
			<path class="st25" d="M127.4,75.8c-0.4,0.2-0.7,0.8-0.7,1.2l0,13c0,0.4,0.3,0.6,0.7,0.4c0.4-0.2,0.7-0.8,0.7-1.2l0-13
				C128.1,75.7,127.8,75.6,127.4,75.8z"/>
		</g>
		<g>
			<path class="st25" d="M120.3,78.5c-0.4,0.2-0.7,0.8-0.7,1.2l0,13c0,0.4,0.3,0.6,0.7,0.4c0.4-0.2,0.7-0.8,0.7-1.2l0-13
				C121,78.4,120.7,78.3,120.3,78.5z"/>
		</g>
		<g>
			<path class="st25" d="M113.2,81.1c-0.4,0.2-0.7,0.8-0.7,1.2l0,13c0,0.4,0.3,0.6,0.7,0.4c0.4-0.2,0.7-0.8,0.7-1.2l0-13
				C113.9,81,113.6,80.8,113.2,81.1z"/>
		</g>
	</g>
	<g>
		<g>
			<path class="st25" d="M163.8,97.1c-0.4,0.2-0.7,0.8-0.7,1.2l0,13c0,0.4,0.3,0.6,0.7,0.4c0.4-0.2,0.7-0.8,0.7-1.2l0-13
				C164.5,97,164.2,96.8,163.8,97.1z"/>
		</g>
		<g>
			<path class="st25" d="M156.5,99.9c-0.4,0.2-0.7,0.8-0.7,1.2l0,13c0,0.4,0.3,0.6,0.7,0.4c0.4-0.2,0.7-0.8,0.7-1.2l0-13
				C157.2,99.9,156.9,99.7,156.5,99.9z"/>
		</g>
		<g>
			<path class="st25" d="M149.2,102.7c-0.4,0.2-0.7,0.8-0.7,1.2l0,13c0,0.4,0.3,0.6,0.7,0.4c0.4-0.2,0.7-0.8,0.7-1.2l0-13
				C149.9,102.7,149.6,102.5,149.2,102.7z"/>
		</g>
		<g>
			<path class="st25" d="M142,105.3c-0.4,0.2-0.7,0.8-0.7,1.2l0,13c0,0.4,0.3,0.6,0.7,0.4c0.4-0.2,0.7-0.8,0.7-1.2l0-13
				C142.7,105.2,142.4,105.1,142,105.3z"/>
		</g>
		<g>
			<path class="st25" d="M134.8,107.9c-0.4,0.2-0.7,0.8-0.7,1.2l0,13c0,0.4,0.3,0.6,0.7,0.4c0.4-0.2,0.7-0.8,0.7-1.2l0-13
				C135.5,107.9,135.2,107.7,134.8,107.9z"/>
		</g>
		<g>
			<path class="st25" d="M127.4,110.7c-0.4,0.2-0.7,0.8-0.7,1.2l0,13c0,0.4,0.3,0.6,0.7,0.4c0.4-0.2,0.7-0.8,0.7-1.2l0-13
				C128.1,110.6,127.8,110.4,127.4,110.7z"/>
		</g>
		<g>
			<path class="st25" d="M120.3,113.4c-0.4,0.2-0.7,0.8-0.7,1.2l0,13c0,0.4,0.3,0.6,0.7,0.4c0.4-0.2,0.7-0.8,0.7-1.2l0-13
				C121,113.3,120.7,113.2,120.3,113.4z"/>
		</g>
		<g>
			<path class="st25" d="M113.2,115.9c-0.4,0.2-0.7,0.8-0.7,1.2l0,13c0,0.4,0.3,0.6,0.7,0.4c0.4-0.2,0.7-0.8,0.7-1.2l0-13
				C113.9,115.9,113.6,115.7,113.2,115.9z"/>
		</g>
	</g>
	<g>
		<g>
			<path class="st25" d="M163.8,130.8c-0.4,0.2-0.7,0.8-0.7,1.2l0,13c0,0.4,0.3,0.6,0.7,0.4c0.4-0.2,0.7-0.8,0.7-1.2l0-13
				C164.5,130.8,164.2,130.6,163.8,130.8z"/>
		</g>
		<g>
			<path class="st25" d="M156.5,133.7c-0.4,0.2-0.7,0.8-0.7,1.2l0,13c0,0.4,0.3,0.6,0.7,0.4c0.4-0.2,0.7-0.8,0.7-1.2l0-13
				C157.2,133.6,156.9,133.5,156.5,133.7z"/>
		</g>
		<g>
			<path class="st25" d="M149.2,136.5c-0.4,0.2-0.7,0.8-0.7,1.2l0,13c0,0.4,0.3,0.6,0.7,0.4c0.4-0.2,0.7-0.8,0.7-1.2l0-13
				C149.9,136.4,149.6,136.3,149.2,136.5z"/>
		</g>
		<g>
			<path class="st25" d="M142,139c-0.4,0.2-0.7,0.8-0.7,1.2l0,13c0,0.4,0.3,0.6,0.7,0.4c0.4-0.2,0.7-0.8,0.7-1.2l0-13
				C142.7,139,142.4,138.8,142,139z"/>
		</g>
		<g>
			<path class="st25" d="M134.8,141.7c-0.4,0.2-0.7,0.8-0.7,1.2l0,13c0,0.4,0.3,0.6,0.7,0.4c0.4-0.2,0.7-0.8,0.7-1.2l0-13
				C135.5,141.6,135.2,141.5,134.8,141.7z"/>
		</g>
		<g>
			<path class="st25" d="M127.4,144.4c-0.4,0.2-0.7,0.8-0.7,1.2l0,13c0,0.4,0.3,0.6,0.7,0.4c0.4-0.2,0.7-0.8,0.7-1.2l0-13
				C128.1,144.4,127.8,144.2,127.4,144.4z"/>
		</g>
		<g>
			<path class="st25" d="M120.3,147.1c-0.4,0.2-0.7,0.8-0.7,1.2l0,13c0,0.4,0.3,0.6,0.7,0.4c0.4-0.2,0.7-0.8,0.7-1.2l0-13
				C121,147.1,120.7,146.9,120.3,147.1z"/>
		</g>
		<g>
			<path class="st25" d="M113.2,149.7c-0.4,0.2-0.7,0.8-0.7,1.2l0,13c0,0.4,0.3,0.6,0.7,0.4c0.4-0.2,0.7-0.8,0.7-1.2l0-13
				C113.9,149.6,113.6,149.5,113.2,149.7z"/>
		</g>
	</g>
	<g>
		<g>
			<path class="st25" d="M84.3,83.1c1,0.4,1.8,1.7,1.8,3c0,1.3-0.8,2-1.8,1.7L52.6,76.1c-1-0.4-1.8-1.7-1.8-3c0-1.3,0.8-2,1.8-1.7
				L84.3,83.1z"/>
		</g>
		<g>
			<path class="st25" d="M40,66.7c1.2,0.4,2.2,2,2.2,3.6c0,1.5-0.9,2.4-2.1,2c-1.2-0.4-2.2-2-2.2-3.6C37.8,67.1,38.8,66.2,40,66.7z"
				/>
		</g>
		<g>
			<path class="st25" d="M45.9,70c0.6,0.2,1.1,1,1.1,1.8c0,0.8-0.5,1.2-1.1,1s-1.1-1-1.1-1.8C44.8,70.3,45.3,69.8,45.9,70z"/>
		</g>
	</g>
	<g>
		<g>
			<path class="st25" d="M84.3,118.5c1,0.4,1.8,1.7,1.8,3c0,1.3-0.8,2-1.8,1.7l-31.7-11.5c-1-0.4-1.8-1.7-1.8-3c0-1.3,0.8-2,1.8-1.7
				L84.3,118.5z"/>
		</g>
		<g>
			<path class="st25" d="M40,102.1c1.2,0.4,2.2,2,2.2,3.6c0,1.5-0.9,2.4-2.1,2c-1.2-0.4-2.2-2-2.2-3.6
				C37.8,102.6,38.8,101.7,40,102.1z"/>
		</g>
		<g>
			<path class="st25" d="M45.9,105.5c0.6,0.2,1.1,1,1.1,1.8c0,0.8-0.5,1.2-1.1,1c-0.6-0.2-1.1-1-1.1-1.8
				C44.8,105.7,45.3,105.3,45.9,105.5z"/>
		</g>
	</g>
	<g>
		<g>
			<path class="st25" d="M84.3,152.9c1,0.4,1.8,1.7,1.8,3c0,1.3-0.8,2-1.8,1.7L52.6,146c-1-0.4-1.8-1.7-1.8-3c0-1.3,0.8-2,1.8-1.7
				L84.3,152.9z"/>
		</g>
		<g>
			<path class="st25" d="M40,136.5c1.2,0.4,2.2,2,2.2,3.6c0,1.5-0.9,2.4-2.1,2c-1.2-0.4-2.2-2-2.2-3.6S38.8,136.1,40,136.5z"/>
		</g>
		<g>
			<path class="st25" d="M45.9,139.9c0.6,0.2,1.1,1,1.1,1.8c0,0.8-0.5,1.2-1.1,1c-0.6-0.2-1.1-1-1.1-1.8S45.3,139.7,45.9,139.9z"/>
		</g>
	</g>
	<defs>
		<filter id="Adobe_OpacityMaskFilter_3_" filterUnits="userSpaceOnUse" x="46.4" y="50.6" width="108.6" height="41.5">
			<feColorMatrix  type="matrix" values="1 0 0 0 0  0 1 0 0 0  0 0 1 0 0  0 0 0 1 0"/>
		</filter>
	</defs>
	<mask maskUnits="userSpaceOnUse" x="46.4" y="50.6" width="108.6" height="41.5" id="SVGID_26_">
		<g class="st33">
			<path class="st31" d="M95.6,77L32.1,54c-2.2-1-1.8-2.6,0.9-3.6l63.5-22.9c2.3-0.8,6-0.8,8.2,0l63.5,22.9c2.7,1,3.2,2.6,0.9,3.6
				l-63.5,23C103,78.2,98.4,78.2,95.6,77z"/>
		</g>
	</mask>
	<g class="st34">
		<g>
			<path id="XMLID_10_" class="st24" d="M151,71.1l-25.9,20l-21.5-7.8c-1.6-0.6-4.3-0.6-5.9,0l-21.5,7.8l-25.9-20V51.3h0
				c0,0.4,0.3,0.9,1,1.2L97,69c2,0.9,5.3,0.9,7.3,0l45.6-16.5c0.7-0.3,1.1-0.8,1-1.2h0V71.1z"/>
			<path id="XMLID_9_" class="st25" d="M151,70.6l-25.9,20l-21.5-7.8c-1.6-0.6-4.3-0.6-5.9,0l-21.5,7.8l-25.9-20V50.7h0
				c0,0.4,0.3,0.9,1,1.2L97,68.4c2,0.9,5.3,0.9,7.3,0l45.6-16.5c0.7-0.3,1.1-0.8,1-1.2h0V70.6z"/>
			<g>
				<defs>
					<path id="XMLID_8_" d="M151,72.1l-25.9,20l-21.5-7.8c-1.6-0.6-4.3-0.6-5.9,0l-21.5,7.8l-25.9-20V52.3h0c0,0.4,0.3,0.9,1,1.2
						L97,70c2,0.9,5.3,0.9,7.3,0l45.6-16.5c0.7-0.3,1.1-0.8,1-1.2h0V72.1z"/>
				</defs>
				<linearGradient id="XMLID_19_" gradientUnits="userSpaceOnUse" x1="50.37" y1="72.1934" x2="150.9738" y2="72.1934">
					<stop  offset="0" style="stop-color:#AFDAFE"/>
					<stop  offset="1" style="stop-color:#6FA7EE"/>
				</linearGradient>
				<use xlink:href="#XMLID_8_"  style="overflow:visible;fill:url(#XMLID_19_);"/>
				<clipPath id="XMLID_20_">
					<use xlink:href="#XMLID_8_"  style="overflow:visible;"/>
				</clipPath>
				<linearGradient id="SVGID_27_" gradientUnits="userSpaceOnUse" x1="96.0207" y1="74.1138" x2="104.0207" y2="74.1138">
					<stop  offset="0" style="stop-color:#D0EAFE;stop-opacity:0"/>
					<stop  offset="0.5" style="stop-color:#D4ECFE"/>
					<stop  offset="1" style="stop-color:#D1EBFE;stop-opacity:0.1594"/>
				</linearGradient>
				<rect x="96" y="66.1" class="st35" width="8" height="16"/>
				<linearGradient id="SVGID_28_" gradientUnits="userSpaceOnUse" x1="46.37" y1="57.6328" x2="54.37" y2="57.6328">
					<stop  offset="0" style="stop-color:#D0EAFE;stop-opacity:0"/>
					<stop  offset="0.5" style="stop-color:#D4ECFE"/>
					<stop  offset="1" style="stop-color:#D1EBFE;stop-opacity:0.1594"/>
				</linearGradient>
				<rect x="46.4" y="50.6" class="st36" width="8" height="14"/>
				<linearGradient id="SVGID_29_" gradientUnits="userSpaceOnUse" x1="146.9807" y1="58.4731" x2="154.9807" y2="58.4731">
					<stop  offset="0" style="stop-color:#D0EAFE;stop-opacity:0"/>
					<stop  offset="0.5" style="stop-color:#D4ECFE"/>
					<stop  offset="1" style="stop-color:#D1EBFE;stop-opacity:0.1594"/>
				</linearGradient>
				<rect x="147" y="51.5" class="st37" width="8" height="14"/>
			</g>
			<g class="st30">
				<path class="st31" d="M100.7,54c1.1,0,2.1,0.2,2.9,0.4l45.6,16.5c0.9,0.3,1.5,0.8,1.5,1.2c0,0.3-0.3,0.6-0.9,0.9l-45.7,16.5
					c-0.9,0.4-2.2,0.6-3.5,0.6c-1.3,0-2.6-0.2-3.5-0.7L51.5,73.1c-0.6-0.3-0.9-0.6-0.9-0.9c0-0.4,0.6-0.9,1.5-1.2l45.6-16.5
					C98.6,54.2,99.6,54,100.7,54 M100.7,53.8c-1.1,0-2.1,0.1-3,0.4L52.1,70.7c-2,0.7-2.3,1.9-0.7,2.6L97,89.8c1,0.4,2.3,0.7,3.6,0.7
					c1.3,0,2.6-0.2,3.6-0.7l45.6-16.5c1.6-0.7,1.3-1.9-0.7-2.6l-45.6-16.5C102.8,53.9,101.7,53.8,100.7,53.8L100.7,53.8z"/>
			</g>
		</g>
		<line class="st32" x1="53.7" y1="58.8" x2="96.6" y2="74.3"/>
		<line class="st32" x1="148" y1="58.8" x2="105.1" y2="74.3"/>
	</g>
</g>
</svg>
