<?xml version="1.0" encoding="utf-8"?>
<!-- Generator: Adobe Illustrator 26.1.0, SVG Export Plug-In . SVG Version: 6.00 Build 0)  -->
<svg version="1.1" id="图层_1" xmlns="http://www.w3.org/2000/svg" xmlns:xlink="http://www.w3.org/1999/xlink" x="0px" y="0px"
	 viewBox="0 0 1024 1024" style="enable-background:new 0 0 1024 1024;" xml:space="preserve">
<style type="text/css">
	.st0{fill:#619BF2;}
</style>
<g>
	<g>
		<path class="st0" d="M591.3,685.1c-27.9,0-56.1-5.5-83.1-16.7c-24.9-10.3-47.6-25.7-67.5-45.5l-39.6-39.6
			c-13.1-13.1-13.1-34.4,0-47.5c13.1-13.1,34.4-13.1,47.5,0l39.6,39.6c13.6,13.6,29,24.1,45.8,31c55.3,23,118,10.9,160-31
			l110.8-110.8c56.7-56.7,56.7-149,0-205.8l-39.6-39.6c-56.8-56.8-149.1-56.7-205.8,0c-13.1,13.1-34.4,13.1-47.5,0
			c-13.1-13.1-13.1-34.4,0-47.5c82.9-82.9,217.8-83,300.7,0l39.6,39.6c82.9,82.9,82.9,217.8,0,300.7L741.5,622.8
			C700.8,663.5,646.7,685.1,591.3,685.1z"/>
	</g>
	<g>
		<path class="st0" d="M361.6,914.5c-54.5,0-108.9-20.7-150.4-62.2l-39.6-39.6c-82.9-82.9-82.9-217.8,0-300.7l110.6-110.6
			c61.3-61.3,152.8-79.1,233.3-45.6c24.9,10.3,47.6,25.7,67.5,45.6l39.6,39.5c13.1,13.1,13.1,34.4,0,47.5
			c-13.1,13.1-34.4,13.1-47.5,0l-39.6-39.6c-13.6-13.7-29.1-24.1-45.8-31c-55.3-23.2-118-10.8-160,31L219.2,559.5
			c-56.7,56.7-56.7,149,0,205.8l39.6,39.6c56.8,56.8,149,56.8,205.8,0c13.1-13.1,34.4-13.1,47.5,0c13.1,13.1,13.1,34.4,0,47.5
			C470.6,893.8,416.1,914.5,361.6,914.5z"/>
	</g>
</g>
</svg>
