<?xml version="1.0" encoding="utf-8"?>
<!-- Generator: Adobe Illustrator 26.1.0, SVG Export Plug-In . SVG Version: 6.00 Build 0)  -->
<svg version="1.1" id="图层_1" xmlns="http://www.w3.org/2000/svg" xmlns:xlink="http://www.w3.org/1999/xlink" x="0px" y="0px"
	 viewBox="0 0 1024 1024" style="enable-background:new 0 0 1024 1024;" xml:space="preserve">
<style type="text/css">
	.st0{fill:#9D95E5;}
</style>
<path class="st0" d="M909.9,408.7L614.8,113.6c-31.1-31.1-81.9-31.1-113.1,0L106.3,509l0,0c-15.9,15.9-24.4,37.9-23.3,60.3
	l13.4,281.7c2,41.4,34.7,74,76.1,76l281.7,13.4c1.2,0,2.5,0.1,3.7,0.1c21.1,0,41.6-8.4,56.6-23.4l395.4-395.4
	C941.1,490.6,941.1,439.9,909.9,408.7z M386.1,739.4c-56.3,0-102.1-45.8-102.1-102.1s45.8-102.1,102.1-102.1
	c56.3,0,102,45.8,102,102.1S442.3,739.4,386.1,739.4z"/>
</svg>
