<svg xmlns="http://www.w3.org/2000/svg" xmlns:xlink="http://www.w3.org/1999/xlink" fill="none" version="1.1" width="56.36572265625" height="65.4945068359375" viewBox="0 0 56.36572265625 65.4945068359375"><g><g><path d="M49.51862123535156,24.511324931640626C50.628301235351564,24.511324931640626,51.52738123535156,23.613284931640624,51.52738123535156,22.505184931640624C51.52738123535156,21.391837931640627,50.628301235351564,20.493804931640625,49.51862123535156,20.493804931640625C48.40947423535156,20.493804931640625,47.51039123535156,21.391837931640627,47.51039123535156,22.505184931640624C47.51039123535156,23.613284931640624,48.40947423535156,24.511324931640626,49.51862123535156,24.511324931640626Z" fill="#9DA7AF" fill-opacity="0.20000000298023224"/></g><g><path d="M15.16555828125,17.38230265625C15.89500828125,17.38230265625,16.48686828125,16.79412265625,16.48686828125,16.06414265625C16.48686828125,15.33415965625,15.89500828125,14.74072265625,15.16555828125,14.74072265625C14.43557428125,14.74072265625,13.84423828125,15.33415965625,13.84423828125,16.06414265625C13.84423828125,16.79412265625,14.43557428125,17.38230265625,15.16555828125,17.38230265625Z" fill="#9DA7AF" fill-opacity="0.20000000298023224"/></g><g><path d="M2.2395500567626954,59.1617340222168C2.969530056762695,59.1617340222168,3.5608600567626953,58.56830402221679,3.5608600567626953,57.838324022216796C3.5608600567626953,57.1083410222168,2.969530056762695,56.5149040222168,2.2395500567626954,56.5149040222168C1.5100910567626953,56.5149040222168,0.9182300567626953,57.1083410222168,0.9182300567626953,57.838324022216796C0.9182300567626953,58.56830402221679,1.5100910567626953,59.1617340222168,2.2395500567626954,59.1617340222168Z" fill="#9DA7AF" fill-opacity="0.20000000298023224"/></g><g><path d="M9.303022384643555,59.16170422058106L27.846122384643554,53.353404220581055L27.846122384643554,29.531904220581055L9.303022384643555,35.29297422058106L9.303022384643555,59.16170422058106Z" fill="#9DA7AF" fill-opacity="0.20000000298023224"/><path d="M27.995522384643554,53.830504220581055L28.346122384643554,53.353404220581055L28.346122384643554,29.531904220581055L27.697722384643555,29.054418220581056L9.154674384643554,34.815484220581055L8.803022384643555,35.29297422058106L8.803022384643555,59.16170422058106L9.452479384643555,59.638904220581054L27.995522384643554,53.830504220581055ZM27.346122384643554,52.986104220581055L9.803022384643555,58.481204220581056L9.803022384643555,35.661204220581055L27.346122384643554,30.210822220581054L27.346122384643554,52.986104220581055Z" fill-rule="evenodd" fill="#C4CACF" fill-opacity="1"/></g><g><path d="M46.38919222412109,59.16170422058106L27.846092224121094,53.353404220581055L27.846092224121094,29.531904220581055L46.38919222412109,35.29297422058106L46.38919222412109,59.16170422058106Z" fill="#9DA7AF" fill-opacity="0.20000000298023224"/><path d="M27.696635224121092,53.830504220581055L46.23969222412109,59.638904220581054L46.88919222412109,59.16170422058106L46.88919222412109,35.29297422058106L46.537492224121095,34.815484220581055L27.994440224121092,29.054418220581056L27.346092224121094,29.531904220581055L27.346092224121094,53.353404220581055L27.696635224121092,53.830504220581055ZM45.88919222412109,58.481204220581056L28.346092224121094,52.986104220581055L28.346092224121094,30.210822220581054L45.88919222412109,35.661204220581055L45.88919222412109,58.481204220581056Z" fill-rule="evenodd" fill="#C4CACF" fill-opacity="1"/></g><g><path d="M27.846122384643554,65.01734792480468L9.303022384643555,59.209047924804686L9.303022384643555,35.38224792480469L27.846122384643554,41.19582792480469L27.846122384643554,65.01734792480468Z" fill="#FFFFFF" fill-opacity="1"/><path d="M9.153565384643555,59.686147924804686L27.696622384643554,65.49444792480469L28.346122384643554,65.01734792480468L28.346122384643554,41.19582792480469L27.995622384643553,40.71872792480469L9.452602384643555,34.905145924804685L8.803022384643555,35.38224792480469L8.803022384643555,59.209047924804686L9.153565384643555,59.686147924804686ZM27.346122384643554,64.33674792480468L9.803022384643555,58.84164792480469L9.803022384643555,36.06300392480469L27.346122384643554,41.563067924804685L27.346122384643554,64.33674792480468Z" fill-rule="evenodd" fill="#C4CACF" fill-opacity="1"/></g><g><path d="M27.846092224121094,65.01734792480468L46.38919222412109,59.209047924804686L46.38919222412109,35.38224792480469L27.846092224121094,41.19582792480469L27.846092224121094,65.01734792480468Z" fill="#FFFFFF" fill-opacity="1"/><path d="M46.53859222412109,59.686147924804686L46.88919222412109,59.209047924804686L46.88919222412109,35.38224792480469L46.2395922241211,34.905145924804685L27.696512224121093,40.71872792480469L27.346092224121094,41.19582792480469L27.346092224121094,65.01734792480468L27.995549224121095,65.49444792480469L46.53859222412109,59.686147924804686ZM45.88919222412109,58.84164792480469L28.346092224121094,64.33674792480468L28.346092224121094,41.563067924804685L45.88919222412109,36.06300392480469L45.88919222412109,58.84164792480469Z" fill-rule="evenodd" fill="#C4CACF" fill-opacity="1"/></g><g><path d="M27.84610234375,29.531905077514647L19.12780234375,23.00409507751465L0.27490234375,29.353345077514646L9.30302234375,35.29299507751465L27.84610234375,29.531905077514647Z" fill="#9DA7AF" fill-opacity="0.20000000298023224"/><path d="M27.99440234375,30.009385077514647L28.14580234375,29.131665077514647L19.42750234375,22.60385507751465L18.96820234375,22.53024507751465L0.11532034375,28.879495077514648L0.00009234375000000128,29.77105507751465L9.02821234375,35.71069507751465L9.45137234375,35.77049507751465L27.99440234375,30.009385077514647ZM26.76230234375,29.345045077514648L9.38038234375,34.74539507751465L1.40702234375,29.49966507751465L19.03840234375,23.56179207751465L26.76230234375,29.345045077514648Z" fill-rule="evenodd" fill="#C4CACF" fill-opacity="1"/></g><g><path d="M27.846092224121094,29.531905077514647L36.5643622241211,23.00409507751465L55.4172922241211,29.353345077514646L46.38919222412109,35.29299507751465L27.846092224121094,29.531905077514647Z" fill="#9DA7AF" fill-opacity="0.20000000298023224"/><path d="M46.663992224121095,35.71069507751465L55.6920922241211,29.77105507751465L55.576892224121096,28.879495077514648L36.72395222412109,22.53024507751465L36.264682224121096,22.60385507751465L27.546412224121095,29.131665077514647L27.697744224121095,30.009385077514647L46.240792224121094,35.77049507751465L46.663992224121095,35.71069507751465ZM54.28519222412109,29.49966507751465L36.65375222412109,23.56179207751465L28.929882224121094,29.345045077514648L46.31179222412109,34.74539507751465L54.28519222412109,29.49966507751465Z" fill-rule="evenodd" fill="#C4CACF" fill-opacity="1"/></g><g><path d="M9.30302234375,35.38224792480469L27.84610234375,41.19582792480469L18.59690234375,47.093447924804686L0.27490234375,41.01727792480469L9.30302234375,35.38224792480469Z" fill="#9DA7AF" fill-opacity="0.20000000298023224"/><path d="M18.86570234375,47.51504792480469L28.11490234375,41.617417924804684L27.99570234375,40.71872792480469L9.45260234375,34.905145924804685L9.03828234375,34.95808992480469L0.01015834375000002,40.59311792480469L0.11751534375,41.49185792480469L18.43950234375,47.56804792480469L18.86570234375,47.51504792480469ZM26.67170234375,41.35164792480469L9.37277234375,35.928113924804684L1.44270234375,40.87777792480469L18.52860234375,46.54404792480469L26.67170234375,41.35164792480469Z" fill-rule="evenodd" fill="#C4CACF" fill-opacity="1"/></g><g><path d="M46.38919222412109,35.38224792480469L27.846092224121094,41.19582792480469L37.095312224121095,47.093447924804686L55.4172922241211,41.01727792480469L46.38919222412109,35.38224792480469Z" fill="#9DA7AF" fill-opacity="0.20000000298023224"/><path d="M55.574692224121094,41.49185792480469L55.68199222412109,40.59311792480469L46.653892224121094,34.95808992480469L46.2395922241211,34.905145924804685L27.696512224121093,40.71872792480469L27.577273224121093,41.617417924804684L36.8264922241211,47.51504792480469L37.25269222412109,47.56804792480469L55.574692224121094,41.49185792480469ZM54.2494922241211,40.87777792480469L37.16362222412109,46.54404792480469L29.020452224121094,41.35164792480469L46.31939222412109,35.928113924804684L54.2494922241211,40.87777792480469Z" fill-rule="evenodd" fill="#C4CACF" fill-opacity="1"/></g><g><path d="M34.200481314086915,8.409505415496826L33.488921314086916,6.487360415496826L32.55111131408691,6.834530415496826L33.26268131408691,8.756665415496826L34.200481314086915,8.409505415496826ZM36.606281314086914,16.247425415496828Q36.27998131408691,14.400615415496826,35.579381314086916,12.267515415496826L34.62928131408691,12.579565415496827Q35.30768131408691,14.644895415496826,35.62158131408691,16.421445415496827L36.606281314086914,16.247425415496828ZM37.14538131408691,22.203345415496827Q37.10858131408691,21.19504541549683,37.057281314086914,20.346445415496824L36.05908131408691,20.406845415496825Q36.109081314086914,21.233245415496825,36.14518131408691,22.215445415496827Q36.13938131408692,22.310945415496825,36.129181314086914,22.480445415496824Q36.05268131408691,23.758945415496825,35.968481314086915,24.385145415496826L36.95958131408692,24.518445415496828Q37.04868131408691,23.855545415496827,37.12738131408692,22.540245415496827Q37.13898131408691,22.347845415496828,37.14478131408691,22.252345415496826L37.14628131408691,22.227845415496827L37.14538131408691,22.203345415496827ZM24.147181314086914,22.104845415496825Q23.691994914086916,22.662045415496827,23.454930314086916,23.371145415496827L24.403341314086916,23.688245415496826Q24.579723314086912,23.160545415496827,24.911781314086912,22.749545415496826Q25.738061314086913,21.866845415496826,27.059621314086915,21.783345415496825L26.996531314086916,20.785345415496828Q25.267701314086914,20.894645415496825,24.167708314086916,22.081245415496824L24.157076314086915,22.09274541549683L24.147181314086914,22.104845415496825ZM32.236451314086914,25.286445415496825Q31.899051314086915,23.748545415496825,30.977951314086916,22.628945415496826L30.205711314086912,23.264245415496827Q30.973861314086914,24.197945415496825,31.259681314086915,25.500745415496826Q31.391001314086914,26.097245415496825,31.424091314086915,26.750545415496827L32.422811314086914,26.699945415496828Q32.38551131408691,25.963545415496828,32.236451314086914,25.286445415496825ZM24.096291314086915,27.686545415496827Q25.254821314086914,29.631345415496828,27.356461314086914,30.518645415496827L27.745411314086915,29.597345415496825Q25.946031314086913,28.837745415496826,24.955411314086913,27.174745415496826L24.096291314086915,27.686545415496827ZM31.672211314086915,30.797745415496827Q33.87418131408691,30.190445415496825,35.315181314086914,28.489245415496825L34.55208131408691,27.842945415496825Q33.31065131408691,29.308545415496827,31.406331314086913,29.833745415496825L31.672211314086915,30.797745415496827ZM30.501391314086913,34.679945415496825Q31.441081314086915,32.48824541549683,31.850231314086912,30.901245415496827L30.881891314086914,30.651545415496827Q30.491841314086912,32.164545415496825,29.582301314086912,34.285945415496826L29.551361314086915,34.358045415496825L30.470471314086915,34.75204541549682L30.501391314086913,34.679945415496825ZM28.297121314086915,40.437045415496826Q28.640521314086914,39.422245415496825,28.969501314086912,38.51854541549683L28.029831314086913,38.17644541549683Q27.696951314086913,39.09084541549683,27.349891314086914,40.11654541549682L28.297121314086915,40.437045415496826Z" fill-rule="evenodd" fill="#B1B9BF" fill-opacity="1"/></g><g><path d="M36.1815176953125,2.927013984375C36.1752176953125,3.966843984375,35.2104876953125,4.597043984375,33.9873776953125,4.2661939843750005C32.6991436953125,4.050873984375,31.7874561953125,3.819803984375,31.7286376953125,2.895503984375C31.7585720953125,1.950210984375,32.7936776953125,1.577342984375,34.0052276953125,1.157210984375C35.4583676953125,0.579528984375,36.0990676953125,1.913448984375,36.1815176953125,2.927013984375Z" fill="#9DA7AF" fill-opacity="0.20000000298023224"/><path d="M36.0697976953125,4.959203984375Q37.1733876953125,4.271173984375,37.1814976953125,2.933073984375L37.1782276953125,2.8459439843750003Q37.0747776953125,1.574223984375,36.3478676953125,0.773321984375Q35.2723476953125,-0.41166601562500005,33.6578076953125,0.21927698437499998Q32.4070976953125,0.6541729843749999,31.8862756953125,0.986191084375Q30.7659826953125,1.700363984375,30.7291386953125,2.863853984375L30.7306566953125,2.959013984375Q30.8073356953125,4.163973984375,31.9460406953125,4.739273984375Q32.5257926953125,5.032173984375,33.7763676953125,5.244733984375Q35.0751976953125,5.579273984375,36.0697976953125,4.959203984375ZM35.1802476953125,2.957653984375Q35.1249476953125,2.401783984375,34.8668976953125,2.1174739843749997Q34.7157076953125,1.950889984375,34.3746476953125,2.086473984375L34.3328576953125,2.102013984375Q32.8841776953125,2.604373984375,32.7432676953125,2.874563984375Q32.8811676953125,3.067423984375,34.1522276953125,3.279873984375L34.2484876953125,3.300883984375Q34.7372776953125,3.433103984375,35.0116976953125,3.262013984375Q35.1667176953125,3.165373984375,35.1802476953125,2.957653984375Z" fill-rule="evenodd" fill="#C4CACF" fill-opacity="1"/></g><g><path d="M27.858170811035155,6.099013975906372C28.510953811035158,6.771233975906372,29.887413811035156,6.965543975906372,30.558043811035155,5.941463975906371C31.293273811035156,4.801863975906372,31.922953811035157,3.972093975906372,31.246533811035157,3.215859975906372C30.593753811035157,2.543647975906372,29.958303811035158,2.9952899759063722,28.505173811035156,3.572971975906372C27.340882411035157,4.166413975906372,27.093529811035157,5.363783975906372,27.858170811035155,6.099013975906372Z" fill="#9DA7AF" fill-opacity="0.20000000298023224"/><path d="M31.991883811035155,2.549184975906372L31.963933811035155,2.519196975906372Q31.243883811035158,1.777713975906372,30.254703811035156,1.8965099759063722Q29.786153811035156,1.952781975906372,28.762543811035158,2.384734975906372Q28.361742811035157,2.553869975906372,28.135752811035157,2.643709975906372L28.051061811035158,2.682027975906372Q26.778713811035157,3.330540975906372,26.485978811035157,4.549263975906372Q26.172293811035157,5.855223975906372,27.152766811035157,6.807963975906372Q27.974681811035158,7.645323975906372,29.192393811035156,7.656313975906372Q30.621953811035155,7.669203975906372,31.394623811035157,6.4893239759063714L31.398343811035154,6.483593975906372Q31.449433811035156,6.4044139759063725,31.550683811035157,6.2489139759063725Q32.247043811035155,5.179503975906372,32.41718381103516,4.643443975906372Q32.79641381103516,3.448654975906372,31.991883811035155,2.549184975906372ZM30.507663811035158,3.891663975906372Q30.496513811035157,3.881843975906372,30.493183811035156,3.882243975906372Q30.304253811035156,3.9049339759063724,29.540123811035155,4.227383975906372Q29.160023811035156,4.387783975906372,28.922903811035155,4.482933975906372Q28.504953811035158,4.707093975906372,28.430663811035156,5.016373975906372Q28.382696811035157,5.216083975906372,28.551283811035155,5.3781839759063725L28.575573811035156,5.402353975906372Q28.818833811035155,5.652853975906372,29.210433811035156,5.656393975906372Q29.545973811035157,5.6594139759063715,29.719993811035156,5.3958539759063715Q29.773253811035158,5.313333975906373,29.874683811035155,5.157573975906372Q30.596053811035155,4.049743975906372,30.507663811035158,3.891663975906372Z" fill-rule="evenodd" fill="#C4CACF" fill-opacity="1"/></g><g><path d="M30.86999434375,1.8084163219299316C31.46447734375,1.5563363219299315,32.17607734375,1.7401446219299317,32.49380734375,2.2232973219299317C32.62877734375,2.3755953219299317,32.78737734375,2.6119193219299315,32.83463734375,2.790472321929932C33.34037734375,3.9721023219299316,33.18124734375,5.143222321929931,32.49905734375,5.421552321929932C31.75174734375,5.810182321929932,30.72242334375,5.143222321929931,30.32854834375,4.024612321929931C30.23454434375,3.6727523219299316,30.18780444375,3.4994523219299314,30.11690704375,3.236862321929932C30.04075804375,2.5961643219299315,30.27603234375,2.0604953219299316,30.86999434375,1.8084163219299316C30.95822234375,1.7874095219299317,30.86999434375,1.8084163219299316,30.86999434375,1.8084163219299316Z" fill="#9DA7AF" fill-opacity="0.20000000298023224"/></g><g><path d="M30.635788864501954,0.8615425234375Q31.392384864501953,0.5407315234375001,32.19018486450195,0.7452465234375Q33.034414864501954,0.9616675234375,33.48551486450195,1.6476264234375L32.64998486450195,2.1970765234375L33.398384864501956,1.5338345234375Q33.82783486450195,2.0184195234375,33.957524864501956,2.5083645234375L32.99081486450196,2.7642515234375002L33.910154864501955,2.3707795234375Q34.39574486450195,3.5053415234375,34.26013486450195,4.5475515234375Q34.08522486450195,5.8919215234375,33.033004864501955,6.3212315234375L32.655234864501956,5.3953315234375L33.11660486450195,6.2825415234375Q32.041464864501954,6.8416415234375,30.895409864501953,6.1024315234375Q29.950890864501954,5.4932115234375,29.541490864501952,4.3305215234375005L29.51885286450195,4.2574115234375L29.372762864501954,3.7126315234375L29.307604864501954,3.4711215234374997L29.280073864501954,3.3286715234375Q29.185814864501953,2.5355975234375,29.505058864501954,1.9011815234375Q29.863221864501952,1.1894225234375,30.635496864501953,0.8616665234375L30.635788864501954,0.8615425234375ZM31.416554864501954,2.7028515234375L31.026171864501954,1.7821955234375L31.416844864501954,2.7027215234375Q31.229218864501952,2.7823515234375,31.26609486450195,3.0926215234375L30.273084564501954,3.2106415234375003L31.238564864501953,2.9501715234375L31.304514864501954,3.1946015234375L31.450604864501955,3.7393815234375L30.484725864501954,3.9983915234375L31.427964864501952,3.6662715234375Q31.610064864501954,4.183451523437499,31.979474864501952,4.4217115234375Q32.149344864501955,4.5312815234374995,32.193864864501954,4.5081315234375L32.27746486450195,4.4694315234375Q32.22635486450195,4.4902815234375,32.21478486450195,4.5091115234375Q32.25727486450195,4.440021523437499,32.276854864501956,4.2895015234375Q32.341904864501956,3.7895615234375,32.071484864501954,3.1577315234375L32.02411486450195,3.0201415234375Q32.015974864501956,2.9894015234375,31.901574864501953,2.8603215234375L31.814454864501954,2.7465215234375Q31.788414864501952,2.7069215234375,31.693544864501952,2.6826015234375Q31.550674864501953,2.6459775234375,31.416554864501954,2.7028515234375Z" fill="#C4CACF" fill-opacity="1"/></g><g><path d="M3.56086234375,20.835159057006837L2.41075234375,20.835159057006837L2.41075234375,19.685049057006836L1.42501234375,19.685049057006836L1.42501234375,20.835159057006837L0.27490234375,20.835159057006837L0.27490234375,21.853979057006836L1.42501234375,21.853979057006836L1.42501234375,23.004099057006837L2.41075234375,23.004099057006837L2.41075234375,21.853979057006836L3.56086234375,21.853979057006836L3.56086234375,20.835159057006837Z" fill="#C4CACF" fill-opacity="1"/></g><g><path d="M6.087434571228028,49.693002456054685L4.937324571228027,49.693002456054685L4.937324571228027,48.54289245605469L3.951584571228027,48.54289245605469L3.951584571228027,49.693002456054685L2.8014745712280273,49.693002456054685L2.8014745712280273,50.71182245605469L3.951584571228027,50.71182245605469L3.951584571228027,51.861942456054685L4.937324571228027,51.861942456054685L4.937324571228027,50.71182245605469L6.087434571228028,50.71182245605469L6.087434571228028,49.693002456054685Z" fill="#C4CACF" fill-opacity="1"/></g><g><path d="M56.36573186523437,49.7560283959961L54.958281865234376,49.047058395996096L55.668831865234374,47.639610395996094L54.462531865234375,47.030418395996094L53.75198186523438,48.437858395996095L52.345059865234376,47.728888395996094L51.715911865234375,48.97352839599609L53.122831865234375,49.682508395996095L52.41228086523437,51.089948395996096L53.618581865234376,51.699138395996094L54.32913186523437,50.29169839599609L55.73658186523438,51.000668395996094L56.36573186523437,49.7560283959961Z" fill="#C4CACF" fill-opacity="1"/></g></g></svg>