<svg width="172" height="92" viewBox="0 0 172 92" fill="none" xmlns="http://www.w3.org/2000/svg">
<path opacity="0.05" d="M47.92 91.6C37.8933 91.6 29.3067 89.3067 22.16 84.72C15.12 80.1333 9.73333 73.5733 6 65.04C2.26667 56.4 0.4 46.0533 0.4 34C0.4 21.9467 2.26667 11.6533 6 3.11999C9.73333 -5.52 15.12 -12.1333 22.16 -16.72C29.3067 -21.3067 37.8933 -23.6 47.92 -23.6C57.9467 -23.6 66.5333 -21.3067 73.68 -16.72C80.8267 -12.1333 86.2667 -5.52 90 3.11999C93.7333 11.6533 95.6 21.9467 95.6 34C95.6 46.0533 93.7333 56.4 90 65.04C86.2667 73.5733 80.8267 80.1333 73.68 84.72C66.5333 89.3067 57.9467 91.6 47.92 91.6ZM47.92 68.56C54.8533 68.56 60.1867 65.5733 63.92 59.6C67.76 53.6267 69.68 45.0933 69.68 34C69.68 22.5867 67.76 13.84 63.92 7.76C60.1867 1.57333 54.8533 -1.52 47.92 -1.52C40.9867 -1.52 35.6 1.57333 31.76 7.76C28.0267 13.84 26.16 22.5867 26.16 34C26.16 45.0933 28.0267 53.6267 31.76 59.6C35.6 65.5733 40.9867 68.56 47.92 68.56ZM111.409 90L106.129 76.88L138.769 41.2C140.582 39.1733 142.555 36.88 144.689 34.32C146.822 31.76 148.902 29.1467 150.929 26.48C152.955 23.7067 154.555 21.04 155.729 18.48C157.009 15.92 157.649 13.5733 157.649 11.44C157.649 9.30666 157.169 7.43999 156.209 5.84C155.249 4.24 153.862 3.01333 152.049 2.16C150.235 1.2 147.942 0.719995 145.169 0.719995C142.715 0.719995 140.369 1.36 138.129 2.64C135.889 3.81333 133.755 5.68 131.729 8.23999C129.809 10.8 127.995 13.9467 126.289 17.68L106.129 6.79999C108.369 0.61333 111.515 -4.82667 115.569 -9.52001C119.729 -14.32 124.582 -18 130.129 -20.56C135.675 -23.2267 141.595 -24.56 147.889 -24.56C154.502 -24.4533 160.475 -23.0133 165.809 -20.24C171.142 -17.5733 175.355 -13.7867 178.449 -8.88C181.649 -4.08 183.249 1.57333 183.249 8.08C183.249 10.32 182.982 12.6667 182.449 15.12C181.915 17.5733 181.115 20.1333 180.049 22.8C178.982 25.36 177.542 28.1333 175.729 31.12C174.022 34 171.942 37.04 169.489 40.24C167.035 43.44 164.155 46.8533 160.849 50.48L135.409 78.16L132.209 66H188.209V90H111.409Z" fill="#959595"/>
</svg>
