<svg width="172" height="92" viewBox="0 0 172 92" fill="none" xmlns="http://www.w3.org/2000/svg">
<path opacity="0.05" d="M47.92 91.6C37.8933 91.6 29.3067 89.3067 22.16 84.72C15.12 80.1333 9.73333 73.5733 6 65.04C2.26667 56.4 0.4 46.0533 0.4 34C0.4 21.9467 2.26667 11.6533 6 3.11999C9.73333 -5.52 15.12 -12.1333 22.16 -16.72C29.3067 -21.3067 37.8933 -23.6 47.92 -23.6C57.9467 -23.6 66.5333 -21.3067 73.68 -16.72C80.8267 -12.1333 86.2667 -5.52 90 3.11999C93.7333 11.6533 95.6 21.9467 95.6 34C95.6 46.0533 93.7333 56.4 90 65.04C86.2667 73.5733 80.8267 80.1333 73.68 84.72C66.5333 89.3067 57.9467 91.6 47.92 91.6ZM47.92 68.56C54.8533 68.56 60.1867 65.5733 63.92 59.6C67.76 53.6267 69.68 45.0933 69.68 34C69.68 22.5867 67.76 13.84 63.92 7.76C60.1867 1.57333 54.8533 -1.52 47.92 -1.52C40.9867 -1.52 35.6 1.57333 31.76 7.76C28.0267 13.84 26.16 22.5867 26.16 34C26.16 45.0933 28.0267 53.6267 31.76 59.6C35.6 65.5733 40.9867 68.56 47.92 68.56ZM147.889 91.6C138.822 91.6 130.875 89.7333 124.049 86C117.329 82.16 111.195 75.6 105.649 66.32L125.169 53.68C127.515 57.4133 129.915 60.4 132.369 62.64C134.929 64.88 137.542 66.5333 140.209 67.6C142.982 68.56 145.862 69.04 148.849 69.04C151.835 69.04 154.555 68.4 157.009 67.12C159.569 65.7333 161.595 63.8133 163.089 61.36C164.689 58.9067 165.489 56.1333 165.489 53.04C165.489 49.7333 164.795 46.96 163.409 44.72C162.129 42.3733 160.209 40.6133 157.649 39.44C155.195 38.2667 152.209 37.68 148.689 37.68C147.089 37.68 145.382 37.8933 143.569 38.32C141.755 38.64 139.835 39.12 137.809 39.76C135.782 40.4 133.702 41.2533 131.569 42.32L125.649 26.48L152.849 -3.12L160.209 0.879993L113.489 -0.0800037V-22.96H182.289L187.249 -13.04L150.289 26.64L143.889 19.12C144.742 18.6933 146.129 18.32 148.049 18C150.075 17.5733 151.995 17.36 153.809 17.36C158.822 17.36 163.515 18.2667 167.889 20.08C172.262 21.8933 176.155 24.4 179.569 27.6C182.982 30.8 185.649 34.5867 187.569 38.96C189.489 43.2267 190.449 47.8133 190.449 52.72C190.449 60.1867 188.529 66.8533 184.689 72.72C180.955 78.48 175.835 83.0667 169.329 86.48C162.929 89.8933 155.782 91.6 147.889 91.6Z" fill="#959595"/>
</svg>
