<svg width="172" height="92" viewBox="0 0 172 92" fill="none" xmlns="http://www.w3.org/2000/svg">
<path opacity="0.05" d="M47.92 91.6C37.8933 91.6 29.3067 89.3067 22.16 84.72C15.12 80.1333 9.73333 73.5733 6 65.04C2.26667 56.4 0.4 46.0533 0.4 34C0.4 21.9467 2.26667 11.6533 6 3.11999C9.73333 -5.52 15.12 -12.1333 22.16 -16.72C29.3067 -21.3067 37.8933 -23.6 47.92 -23.6C57.9467 -23.6 66.5333 -21.3067 73.68 -16.72C80.8267 -12.1333 86.2667 -5.52 90 3.11999C93.7333 11.6533 95.6 21.9467 95.6 34C95.6 46.0533 93.7333 56.4 90 65.04C86.2667 73.5733 80.8267 80.1333 73.68 84.72C66.5333 89.3067 57.9467 91.6 47.92 91.6ZM47.92 68.56C54.8533 68.56 60.1867 65.5733 63.92 59.6C67.76 53.6267 69.68 45.0933 69.68 34C69.68 22.5867 67.76 13.84 63.92 7.76C60.1867 1.57333 54.8533 -1.52 47.92 -1.52C40.9867 -1.52 35.6 1.57333 31.76 7.76C28.0267 13.84 26.16 22.5867 26.16 34C26.16 45.0933 28.0267 53.6267 31.76 59.6C35.6 65.5733 40.9867 68.56 47.92 68.56ZM157.809 90V-0.560007L172.369 -0.240002L131.889 49.36L128.049 44.56H202.289V66.96H115.889L105.009 46L162.129 -22.96H184.049V90H157.809Z" fill="#959595"/>
</svg>
