<svg width="24" height="24" viewBox="0 0 24 24" fill="none" xmlns="http://www.w3.org/2000/svg">
<g clip-path="url(#clip0_97_162)">
<path d="M17.6197 10.7501C17.4163 10.7475 17.222 10.6655 17.0781 10.5217C16.9343 10.3779 16.8523 10.1835 16.8497 9.9801C16.7075 9.28938 16.3588 8.65817 15.8497 8.1701C15.3909 7.60883 14.7303 7.24981 14.0097 7.1701C13.8015 7.17142 13.6014 7.08999 13.4532 6.94371C13.305 6.79743 13.2211 6.59829 13.2197 6.3901C13.2184 6.1819 13.2998 5.98171 13.4461 5.83355C13.5924 5.6854 13.7915 5.60142 13.9997 5.6001C14.5772 5.63487 15.1413 5.7877 15.6573 6.04914C16.1733 6.31058 16.6302 6.67508 16.9997 7.1201C17.7857 7.88911 18.2805 8.90699 18.3997 10.0001C18.392 10.2017 18.3064 10.3925 18.1609 10.5323C18.0155 10.6722 17.8215 10.7502 17.6197 10.7501Z" fill="#8BCF70"/>
<path d="M21.2305 10.75C21.0263 10.75 20.8304 10.6689 20.686 10.5245C20.5416 10.3801 20.4605 10.1842 20.4605 9.98C20.4592 9.13297 20.291 8.2945 19.9657 7.51245C19.6403 6.7304 19.1641 6.0201 18.5642 5.42209C17.9644 4.82408 17.2526 4.35008 16.4695 4.02715C15.6865 3.70422 14.8475 3.53869 14.0005 3.54C13.7963 3.54 13.6004 3.45888 13.456 3.31447C13.3116 3.17007 13.2305 2.97422 13.2305 2.77C13.2305 2.56578 13.3116 2.36993 13.456 2.22553C13.6004 2.08112 13.7963 2 14.0005 2C16.1222 2 18.157 2.84285 19.6573 4.34315C21.1576 5.84344 22.0005 7.87827 22.0005 10C21.9928 10.1999 21.9086 10.3892 21.7653 10.5288C21.622 10.6684 21.4305 10.7476 21.2305 10.75Z" fill="#8BCF70"/>
<path d="M11.0501 15L9.20011 16.8C9.01318 16.9832 8.76187 17.0859 8.50011 17.0859C8.23836 17.0859 7.98704 16.9832 7.80011 16.8L7.47011 16.48C6.45887 15.462 5.5262 14.3689 4.68011 13.21C3.88911 12.151 3.21832 11.0073 2.68011 9.80001C2.23867 8.76946 2.00748 7.66111 2.00011 6.54001C1.99574 5.87959 2.11794 5.22445 2.36011 4.61001C2.61446 3.97474 3.00734 3.40421 3.51011 2.94001C3.77629 2.65213 4.09753 2.4206 4.45481 2.25914C4.8121 2.09768 5.19815 2.00956 5.59011 2.00001C5.87015 1.99894 6.14689 2.06044 6.40011 2.18001C6.67022 2.30227 6.90187 2.49589 7.07011 2.74001L9.39011 6.00001C9.55058 6.21676 9.68485 6.45173 9.79011 6.70001C9.87699 6.89198 9.92459 7.09938 9.93011 7.31001C9.92349 7.55472 9.85094 7.79311 9.72011 8.00001C9.56589 8.26056 9.37756 8.49934 9.16011 8.71001L8.40011 9.50001C8.34742 9.55214 8.30602 9.61455 8.2785 9.68337C8.25097 9.75218 8.2379 9.82593 8.24011 9.90001C8.23039 9.97637 8.23039 10.0537 8.24011 10.13L8.32011 10.33C8.58865 10.7853 8.90006 11.2139 9.25011 11.61C9.70011 12.13 10.1801 12.61 10.7001 13.19L11.0101 13.49C11.1207 13.581 11.2105 13.6947 11.2734 13.8233C11.3363 13.952 11.3708 14.0927 11.3746 14.2359C11.3784 14.3791 11.3514 14.5214 11.2954 14.6532C11.2394 14.785 11.1558 14.9033 11.0501 15Z" fill="#8BCF70"/>
<path d="M22.0002 18.3302C21.999 18.62 21.9483 18.9075 21.8502 19.1802C21.8211 19.2619 21.7877 19.342 21.7502 19.4202C21.5738 19.7851 21.3447 20.122 21.0702 20.4202C20.6198 20.9325 20.059 21.3359 19.4302 21.6002C18.8204 21.8474 18.1681 21.9731 17.5102 21.9702C16.3853 21.9495 15.2764 21.7012 14.2502 21.2402C13.0314 20.706 11.8773 20.035 10.8102 19.2402C10.4202 18.9502 10.0302 18.6602 9.66016 18.3502L12.9302 15.0802C13.1639 15.2593 13.4113 15.4198 13.6702 15.5602L13.8502 15.6402C13.9328 15.6554 14.0175 15.6554 14.1002 15.6402C14.1766 15.6419 14.2525 15.6277 14.3231 15.5984C14.3937 15.5691 14.4574 15.5255 14.5102 15.4702L15.2702 14.7202C15.4809 14.4987 15.7236 14.31 15.9902 14.1602C16.2022 14.0244 16.4484 13.9516 16.7002 13.9502C16.91 13.9531 17.1173 13.9973 17.3102 14.0802C17.5564 14.1856 17.7909 14.3163 18.0102 14.4702L21.3202 16.8202C21.5602 16.9773 21.7509 17.1992 21.8702 17.4602C21.9759 17.7374 22.0203 18.0342 22.0002 18.3302Z" fill="#8BCF70"/>
</g>
<defs>
<clipPath id="clip0_97_162">
<rect width="24" height="24" fill="white"/>
</clipPath>
</defs>
</svg>
