<svg width="64" height="64" viewBox="0 0 64 64" fill="none" xmlns="http://www.w3.org/2000/svg">
<path d="M32 64C49.6731 64 64 49.6731 64 32C64 14.3269 49.6731 0 32 0C14.3269 0 0 14.3269 0 32C0 49.6731 14.3269 64 32 64Z" fill="#8BCF70"/>
<path d="M40.0569 43.9927H23.5838C19.581 44.1679 16.1881 41.1691 16.0076 37.292C15.8254 33.4157 18.9232 30.1304 22.926 29.9543C22.9153 25.2439 26.6834 21.3341 31.5368 21.02C36.3902 20.7069 40.6613 24.0966 41.2969 28.7672C45.3876 29.3776 48.3006 32.9407 47.9752 36.9364C47.6499 40.9329 44.1965 44.0104 40.0569 43.9927ZM24.5455 41.4398H40.0569C41.9405 41.4398 43.6809 40.4667 44.6223 38.8878C45.5639 37.3151 45.5639 35.3555 44.6223 33.7828C43.68 32.203 41.9405 31.2299 40.0569 31.2308C39.7075 31.2308 39.3724 31.0963 39.1253 30.8566C38.8791 30.6203 38.7396 30.2948 38.7386 29.9543C38.7386 26.4302 35.7893 23.573 32.1501 23.573C28.5109 23.573 25.5607 26.4302 25.5607 29.9543V30.2224C28.6763 31.0822 30.8265 33.8359 30.8319 36.9735C30.8319 37.4291 30.5812 37.851 30.1732 38.0793C29.7637 38.3074 29.2645 38.3074 28.8549 38.0793C28.4507 37.8564 28.1991 37.4334 28.1972 36.9735C28.1972 34.5117 26.1393 32.5135 23.5971 32.5064C21.0495 32.5064 18.9846 34.5064 18.9846 36.9735C18.9846 39.4397 21.0495 41.4407 23.5971 41.4407H24.1109C24.2549 41.4168 24.4024 41.4168 24.5464 41.4407L24.5455 41.4398Z" fill="white"/>
</svg>
