<svg width="64" height="64" viewBox="0 0 64 64" fill="none" xmlns="http://www.w3.org/2000/svg">
<g clip-path="url(#clip0_91_283)">
<path d="M32 64C49.6731 64 64 49.6731 64 32C64 14.3269 49.6731 0 32 0C14.3269 0 0 14.3269 0 32C0 49.6731 14.3269 64 32 64Z" fill="#8BCF70"/>
<path d="M38.8977 44.5958H25.1024C21.9606 44.5958 19.4043 42.0395 19.4043 38.8977V25.1024C19.4043 21.9606 21.9606 19.4043 25.1024 19.4043H38.8977C42.0395 19.4043 44.5958 21.9606 44.5958 25.1024V38.8977C44.5958 42.0395 42.0395 44.5958 38.8977 44.5958ZM25.1024 21.8035C23.2813 21.8056 21.8056 23.2813 21.8035 25.1024V38.8977C21.8056 40.7188 23.2813 42.1945 25.1024 42.1966H38.8977C40.7188 42.1945 42.1945 40.7188 42.1966 38.8977V25.1024C42.1945 23.2813 40.7188 21.8056 38.8977 21.8035H25.1024Z" fill="white"/>
<path d="M26.3241 21.3742C25.6663 21.3742 25.1331 20.8409 25.1331 20.183V17.1911C25.1331 16.5333 25.6663 16 26.3241 16C26.9819 16 27.5152 16.5333 27.5152 17.1911V20.183C27.5152 20.8409 26.9819 21.3742 26.3241 21.3742ZM31.9991 21.3742C31.3413 21.3742 30.808 20.8409 30.808 20.183V17.1911C30.808 16.5333 31.3413 16 31.9991 16C32.6569 16 33.1901 16.5333 33.1901 17.1911V20.183C33.1901 20.8409 32.6569 21.3742 31.9991 21.3742ZM37.674 21.3742C37.0162 21.3742 36.483 20.8409 36.483 20.183V17.1911C36.483 16.5333 37.0162 16 37.674 16C38.3318 16 38.8651 16.5333 38.8651 17.1911V20.183C38.8651 20.8409 38.3318 21.3742 37.674 21.3742ZM26.3241 48C25.6663 48 25.1331 47.4667 25.1331 46.8089V43.817C25.1331 43.1591 25.6663 42.6258 26.3241 42.6258C26.9819 42.6258 27.5152 43.1591 27.5152 43.817V46.8089C27.5152 47.4667 26.9819 48 26.3241 48ZM31.9991 48C31.3413 48 30.808 47.4667 30.808 46.8089V43.817C30.808 43.1591 31.3413 42.6258 31.9991 42.6258C32.6569 42.6258 33.1901 43.1591 33.1901 43.817V46.8089C33.1901 47.4667 32.6569 48 31.9991 48ZM37.674 48C37.0162 48 36.483 47.4667 36.483 46.8089V43.817C36.483 43.1591 37.0162 42.6258 37.674 42.6258C38.3318 42.6258 38.8651 43.1591 38.8651 43.817V46.8089C38.8651 47.4667 38.3318 48 37.674 48ZM46.809 27.5158H43.8153C43.1575 27.5158 42.6243 26.9826 42.6243 26.3247C42.6243 25.6669 43.1575 25.1336 43.8153 25.1336H46.809C47.4668 25.1336 48 25.6669 48 26.3247C48 26.9826 47.4668 27.5158 46.809 27.5158ZM46.809 33.1911H43.8153C43.1575 33.1911 42.6243 32.6578 42.6243 32C42.6243 31.3422 43.1575 30.8089 43.8153 30.8089H46.809C47.4668 30.8089 48 31.3422 48 32C48 32.6578 47.4668 33.1911 46.809 33.1911ZM46.809 38.8664H43.8153C43.1575 38.8664 42.6243 38.3331 42.6243 37.6753C42.6243 37.0174 43.1575 36.4842 43.8153 36.4842H46.809C47.4668 36.4842 48 37.0174 48 37.6753C48 38.3331 47.4668 38.8664 46.809 38.8664ZM20.1828 27.5158H17.191C16.5332 27.5158 16 26.9826 16 26.3247C16 25.6669 16.5332 25.1336 17.191 25.1336H20.1828C20.8406 25.1336 21.3738 25.6669 21.3738 26.3247C21.3738 26.9826 20.8406 27.5158 20.1828 27.5158ZM20.1828 33.1911H17.191C16.5332 33.1911 16 32.6578 16 32C16 31.3422 16.5332 30.8089 17.191 30.8089H20.1828C20.8406 30.8089 21.3738 31.3422 21.3738 32C21.3738 32.6578 20.8406 33.1911 20.1828 33.1911ZM20.1828 38.8664H17.191C16.5332 38.8664 16 38.3331 16 37.6753C16 37.0174 16.5332 36.4842 17.191 36.4842H20.1828C20.8406 36.4842 21.3738 37.0174 21.3738 37.6753C21.3738 38.3331 20.8406 38.8664 20.1828 38.8664Z" fill="white"/>
<path d="M24.8506 31.6596C24.8506 32.4116 25.4602 33.0213 26.2123 33.0213C26.9643 33.0213 27.574 32.4116 27.574 31.6596C27.574 30.9075 26.9643 30.2979 26.2123 30.2979C25.4602 30.2979 24.8506 30.9075 24.8506 31.6596Z" fill="white"/>
<path d="M30.2979 31.6596C30.2979 32.4116 30.9075 33.0213 31.6596 33.0213C32.4116 33.0213 33.0213 32.4116 33.0213 31.6596C33.0213 30.9075 32.4116 30.2979 31.6596 30.2979C30.9075 30.2979 30.2979 30.9075 30.2979 31.6596Z" fill="white"/>
<path d="M36.4258 31.6596C36.4258 32.4116 37.0354 33.0213 37.7875 33.0213C38.5395 33.0213 39.1492 32.4116 39.1492 31.6596C39.1492 30.9075 38.5395 30.2979 37.7875 30.2979C37.0354 30.2979 36.4258 30.9075 36.4258 31.6596Z" fill="white"/>
</g>
<defs>
<clipPath id="clip0_91_283">
<rect width="64" height="64" fill="white"/>
</clipPath>
</defs>
</svg>
