<svg width="28" height="28" viewBox="0 0 28 28" fill="none" xmlns="http://www.w3.org/2000/svg">
<path d="M22.68 25.4737C22.8346 25.4737 22.96 25.5994 22.96 25.7544V27.7193C22.96 27.8743 22.8346 28 22.68 28H5.32C5.16536 28 5.04 27.8743 5.04 27.7193V25.7544C5.04 25.5994 5.16536 25.4737 5.32 25.4737H22.68ZM26.88 0C27.4986 0 28 0.502702 28 1.12281V21.4737C28 22.0938 27.4986 22.5965 26.88 22.5965H1.12C0.501445 22.5965 0 22.0938 0 21.4737V1.12281C0 0.502702 0.501445 0 1.12 0H26.88ZM25.48 2.52632H2.52V20.0702H25.48V2.52632Z" fill="white"/>
<path d="M8.1745 12.0116L11.7058 7.01155C11.7504 6.94844 11.819 6.90656 11.8954 6.8958C11.9718 6.88504 12.0492 6.90635 12.1094 6.95471L18.4056 12.0116H22.8214C22.976 12.0116 23.1014 12.1373 23.1014 12.2923V13.6958C23.1014 13.8509 22.976 13.9765 22.8214 13.9765H17.8156C17.7519 13.9765 17.6902 13.9548 17.6405 13.9149L12.2752 9.60562L9.272 13.858C9.21951 13.9323 9.1343 13.9765 9.04345 13.9765H4.97141C4.81677 13.9765 4.69141 13.8508 4.69141 13.6958V12.2923C4.69141 12.1373 4.81677 12.0116 4.97141 12.0116L8.1745 12.0116Z" fill="white"/>
</svg>
