<svg width="24" height="24" viewBox="0 0 24 24" fill="none" xmlns="http://www.w3.org/2000/svg">
<g clip-path="url(#clip0_97_179)">
<path d="M17 3.5H7C4 3.5 2 5 2 8.5V15.5C2 19 4 20.5 7 20.5H17C20 20.5 22 19 22 15.5V8.5C22 5 20 3.5 17 3.5ZM17.47 9.59L14.34 12.09C13.6649 12.5963 12.8438 12.87 12 12.87C11.1562 12.87 10.3351 12.5963 9.66 12.09L6.53 9.59C6.377 9.463 6.27907 9.28173 6.2567 9.08415C6.23433 8.88657 6.28927 8.68799 6.41 8.53C6.53553 8.37481 6.71707 8.27523 6.91541 8.25277C7.11375 8.23032 7.31296 8.2868 7.47 8.41L10.59 10.92C11.0017 11.2133 11.4945 11.3709 12 11.3709C12.5055 11.3709 12.9983 11.2133 13.41 10.92L16.53 8.41C16.6865 8.28535 16.8861 8.22796 17.0849 8.25047C17.2836 8.27297 17.4653 8.37352 17.59 8.53C17.7147 8.68648 17.772 8.88606 17.7495 9.08485C17.727 9.28364 17.6265 9.46535 17.47 9.59Z" fill="#8BCF70"/>
</g>
<defs>
<clipPath id="clip0_97_179">
<rect width="24" height="24" fill="white"/>
</clipPath>
</defs>
</svg>
