<svg width="64" height="64" viewBox="0 0 64 64" fill="none" xmlns="http://www.w3.org/2000/svg">
<g clip-path="url(#clip0_91_565)">
<path d="M32 64C49.6731 64 64 49.6731 64 32C64 14.3269 49.6731 0 32 0C14.3269 0 0 14.3269 0 32C0 49.6731 14.3269 64 32 64Z" fill="#8BCF70"/>
<path d="M42.9892 33.3683C43.0234 33.4074 43.0569 33.4472 43.0894 33.4877C43.5121 34.0145 43.7644 34.6482 43.7644 35.348C43.7644 36.0479 43.512 36.6817 43.0894 37.2084C42.7859 37.5867 42.4062 37.898 41.9588 38.1678C41.2695 38.5834 40.383 38.918 39.3206 39.1889C37.3444 39.6929 34.75 39.9728 32.0004 39.9728C29.2508 39.9728 26.6564 39.6929 24.6801 39.1889C23.6177 38.918 22.7313 38.5834 22.042 38.1678C21.5946 37.898 21.2149 37.5867 20.9114 37.2084C20.494 36.6882 20.2427 36.0637 20.2363 35.3743V35.348H22.3998C22.3998 36.7002 26.6981 37.7964 32.0004 37.7964C37.2496 37.7964 41.5149 36.7221 41.5996 35.3886L41.6009 35.348H42.9891L42.9892 33.3683ZM42.9892 27.3218C43.0234 27.3608 43.0569 27.4006 43.0894 27.4411C43.5121 27.9679 43.7644 28.6016 43.7644 29.3015C43.7644 30.0014 43.512 30.6351 43.0894 31.1618C42.7859 31.5401 42.4062 31.8514 41.9588 32.1212C41.2695 32.5368 40.383 32.8714 39.3206 33.1423C37.3444 33.6464 34.75 33.9262 32.0004 33.9262C29.2508 33.9262 26.6564 33.6464 24.6801 33.1423C23.6177 32.8714 22.7313 32.5368 22.042 32.1212C21.5946 31.8514 21.2149 31.5401 20.9114 31.1618C20.494 30.6417 20.2427 30.0172 20.2363 29.3277V29.3015H22.3998C22.3998 30.6537 26.6981 31.7499 32.0004 31.7499C37.2496 31.7499 41.5149 30.6755 41.5996 29.342L41.6009 29.3015H42.9891L42.9892 27.3218Z" fill="white"/>
<path d="M32 18C34.7628 18 37.3716 18.2855 39.3656 18.8013C40.4482 19.0814 41.3553 19.4288 42.0685 19.865C42.5399 20.1534 42.9424 20.4882 43.2671 20.8987C43.7251 21.4777 44 22.178 44 22.9533V40.7715H43.9883C43.9961 40.8621 44 40.9538 44 41.0467C44 41.822 43.7251 42.5223 43.2671 43.1013C42.9424 43.5118 42.5399 43.8466 42.0684 44.135C41.3554 44.5712 40.4482 44.9186 39.3656 45.1987C37.3716 45.7145 34.7628 46 32 46C29.2372 46 26.6284 45.7145 24.6344 45.1987C23.5518 44.9186 22.6447 44.5712 21.9315 44.135C21.4601 43.8466 21.0576 43.5118 20.7329 43.1013C20.2749 42.5223 20 41.822 20 41.0467C20 40.9538 20.0039 40.8621 20.0117 40.7715H20V22.9533V22.9263C20.0064 22.1617 20.2802 21.471 20.7329 20.8987C21.0576 20.4882 21.4601 20.1534 21.9316 19.865C22.6446 19.4288 23.5518 19.0814 24.6344 18.8013C26.6284 18.2855 29.2372 18 32 18ZM22.3933 41.0467L22.3945 41.0876C22.4792 42.4366 26.7398 43.5233 31.9831 43.5233C37.2795 43.5233 41.573 42.4145 41.573 41.0467V26.3152C40.9503 26.6265 40.2115 26.8864 39.3656 27.1053C37.3716 27.6211 34.7628 27.9066 32 27.9066C29.2372 27.9066 26.6284 27.6212 24.6344 27.1053C23.7732 26.8825 23.0231 26.6171 22.3933 26.2983V41.0467ZM32 20.4767C26.713 20.4767 22.427 21.5855 22.427 22.9533C22.427 24.3212 26.713 25.43 32 25.43C37.287 25.43 41.573 24.3212 41.573 22.9533C41.573 21.5855 37.287 20.4767 32 20.4767Z" fill="white"/>
</g>
<defs>
<clipPath id="clip0_91_565">
<rect width="64" height="64" fill="white"/>
</clipPath>
</defs>
</svg>
