<svg width="32" height="32" viewBox="0 0 32 32" fill="none" xmlns="http://www.w3.org/2000/svg">
<path d="M22.8958 28.5958H9.10042C5.95861 28.5958 3.40234 26.0395 3.40234 22.8977V9.10237C3.40234 5.96056 5.95861 3.4043 9.10042 3.4043H22.8958C26.0376 3.4043 28.5938 5.96056 28.5938 9.10237V22.8977C28.5938 26.0395 26.0376 28.5958 22.8958 28.5958ZM9.10042 5.80349C7.27935 5.80555 5.8036 7.2813 5.80153 9.10237V22.8977C5.8036 24.7188 7.27935 26.1945 9.10042 26.1966H22.8958C24.7168 26.1945 26.1926 24.7188 26.1946 22.8977V9.10237C26.1926 7.2813 24.7168 5.80555 22.8958 5.80349H9.10042Z" fill="white"/>
<path d="M10.3241 5.37415C9.66632 5.37415 9.13307 4.84087 9.13307 4.18304V1.19111C9.13307 0.53328 9.66632 0 10.3241 0C10.9819 0 11.5152 0.53328 11.5152 1.19111V4.18304C11.5152 4.84087 10.9819 5.37415 10.3241 5.37415ZM15.9991 5.37415C15.3413 5.37415 14.808 4.84087 14.808 4.18304V1.19111C14.808 0.53328 15.3413 0 15.9991 0C16.6569 0 17.1901 0.53328 17.1901 1.19111V4.18304C17.1901 4.84087 16.6569 5.37415 15.9991 5.37415ZM21.674 5.37415C21.0162 5.37415 20.483 4.84087 20.483 4.18304V1.19111C20.483 0.53328 21.0162 0 21.674 0C22.3318 0 22.8651 0.53328 22.8651 1.19111V4.18304C22.8651 4.84087 22.3318 5.37415 21.674 5.37415ZM10.3241 32C9.66632 32 9.13307 31.4667 9.13307 30.8089V27.817C9.13307 27.1591 9.66632 26.6258 10.3241 26.6258C10.9819 26.6258 11.5152 27.1591 11.5152 27.817V30.8089C11.5152 31.4667 10.9819 32 10.3241 32ZM15.9991 32C15.3413 32 14.808 31.4667 14.808 30.8089V27.817C14.808 27.1591 15.3413 26.6258 15.9991 26.6258C16.6569 26.6258 17.1901 27.1591 17.1901 27.817V30.8089C17.1901 31.4667 16.6569 32 15.9991 32ZM21.674 32C21.0162 32 20.483 31.4667 20.483 30.8089V27.817C20.483 27.1591 21.0162 26.6258 21.674 26.6258C22.3318 26.6258 22.8651 27.1591 22.8651 27.817V30.8089C22.8651 31.4667 22.3318 32 21.674 32ZM30.809 11.5158H27.8153C27.1575 11.5158 26.6243 10.9826 26.6243 10.3247C26.6243 9.66688 27.1575 9.13361 27.8153 9.13361H30.809C31.4668 9.13361 32 9.66688 32 10.3247C32 10.9826 31.4668 11.5158 30.809 11.5158ZM30.809 17.1911H27.8153C27.1575 17.1911 26.6243 16.6578 26.6243 16C26.6243 15.3422 27.1575 14.8089 27.8153 14.8089H30.809C31.4668 14.8089 32 15.3422 32 16C32 16.6578 31.4668 17.1911 30.809 17.1911ZM30.809 22.8664H27.8153C27.1575 22.8664 26.6243 22.3331 26.6243 21.6753C26.6243 21.0174 27.1575 20.4842 27.8153 20.4842H30.809C31.4668 20.4842 32 21.0174 32 21.6753C32 22.3331 31.4668 22.8664 30.809 22.8664ZM4.1828 11.5158H1.19104C0.533248 11.5158 0 10.9826 0 10.3247C0 9.66688 0.533248 9.13361 1.19104 9.13361H4.1828C4.84059 9.13361 5.37384 9.66688 5.37384 10.3247C5.37384 10.9826 4.84059 11.5158 4.1828 11.5158ZM4.1828 17.1911H1.19104C0.533248 17.1911 0 16.6578 0 16C0 15.3422 0.533248 14.8089 1.19104 14.8089H4.1828C4.84059 14.8089 5.37384 15.3422 5.37384 16C5.37384 16.6578 4.84059 17.1911 4.1828 17.1911ZM4.1828 22.8664H1.19104C0.533248 22.8664 0 22.3331 0 21.6753C0 21.0174 0.533248 20.4842 1.19104 20.4842H4.1828C4.84059 20.4842 5.37384 21.0174 5.37384 21.6753C5.37384 22.3331 4.84059 22.8664 4.1828 22.8664Z" fill="white"/>
<path d="M8.85156 15.6596C8.85156 16.4116 9.46122 17.0213 10.2133 17.0213C10.9653 17.0213 11.575 16.4116 11.575 15.6596C11.575 14.9075 10.9653 14.2979 10.2133 14.2979C9.46122 14.2979 8.85156 14.9075 8.85156 15.6596Z" fill="white"/>
<path d="M14.2969 15.6596C14.2969 16.4116 14.9065 17.0213 15.6586 17.0213C16.4106 17.0213 17.0203 16.4116 17.0203 15.6596C17.0203 14.9075 16.4106 14.2979 15.6586 14.2979C14.9065 14.2979 14.2969 14.9075 14.2969 15.6596Z" fill="white"/>
<path d="M20.4258 15.6596C20.4258 16.4116 21.0354 17.0213 21.7875 17.0213C22.5395 17.0213 23.1492 16.4116 23.1492 15.6596C23.1492 14.9075 22.5395 14.2979 21.7875 14.2979C21.0354 14.2979 20.4258 14.9075 20.4258 15.6596Z" fill="white"/>
</svg>
