<svg width="24" height="28" viewBox="0 0 24 28" fill="none" xmlns="http://www.w3.org/2000/svg">
<path d="M22.9872 15.3683C23.0215 15.4074 23.0549 15.4472 23.0874 15.4877C23.5101 16.0145 23.7625 16.6482 23.7625 17.348C23.7625 18.0479 23.5101 18.6817 23.0874 19.2084C22.7839 19.5867 22.4042 19.898 21.9568 20.1678C21.2675 20.5834 20.3811 20.918 19.3187 21.1889C17.3424 21.6929 14.748 21.9728 11.9984 21.9728C9.2488 21.9728 6.65444 21.6929 4.67815 21.1889C3.61578 20.918 2.72933 20.5834 2.04004 20.1678C1.5926 19.898 1.21291 19.5867 0.909409 19.2084C0.492038 18.6882 0.240712 18.0637 0.234375 17.3743V17.348H2.39788C2.39788 18.7002 6.69617 19.7964 11.9984 19.7964C17.2476 19.7964 21.5129 18.7221 21.5977 17.3886L21.599 17.348H22.9872L22.9872 15.3683ZM22.9872 9.32178C23.0215 9.3608 23.0549 9.4006 23.0874 9.44114C23.5101 9.96791 23.7625 10.6016 23.7625 11.3015C23.7625 12.0014 23.5101 12.6351 23.0874 13.1618C22.7839 13.5401 22.4042 13.8514 21.9568 14.1212C21.2675 14.5368 20.3811 14.8714 19.3187 15.1423C17.3424 15.6464 14.748 15.9262 11.9984 15.9262C9.2488 15.9262 6.65444 15.6464 4.67815 15.1423C3.61578 14.8714 2.72933 14.5368 2.04004 14.1212C1.5926 13.8514 1.21291 13.5401 0.909409 13.1618C0.492038 12.6417 0.240712 12.0172 0.234375 11.3277V11.3015H2.39788C2.39788 12.6537 6.69617 13.7499 11.9984 13.7499C17.2476 13.7499 21.5129 12.6755 21.5977 11.342L21.599 11.3015H22.9872L22.9872 9.32178Z" fill="white"/>
<path d="M12 0C14.7628 0 17.3716 0.285469 19.3656 0.801337C20.4482 1.08144 21.3553 1.42883 22.0685 1.86499C22.5399 2.15335 22.9424 2.48818 23.2671 2.89865C23.7251 3.47771 24 4.17799 24 4.95332V22.7715H23.9883C23.9961 22.8621 24 22.9538 24 23.0467C24 23.822 23.7251 24.5223 23.2671 25.1013C22.9424 25.5118 22.5399 25.8466 22.0684 26.135C21.3554 26.5712 20.4482 26.9186 19.3656 27.1987C17.3716 27.7145 14.7628 28 12 28C9.23724 28 6.62845 27.7145 4.63443 27.1987C3.55176 26.9186 2.64465 26.5712 1.93153 26.135C1.46012 25.8466 1.05758 25.5118 0.73291 25.1013C0.274888 24.5223 0 23.822 0 23.0467C0 22.9538 0.00394382 22.8621 0.0116629 22.7715H0V4.95332V4.92631C0.00640449 4.16175 0.280213 3.47097 0.73291 2.89865C1.05758 2.48818 1.46012 2.15335 1.93156 1.86499C2.64462 1.42883 3.55176 1.08144 4.63443 0.801337C6.62845 0.285504 9.23724 0 12 0ZM2.39326 23.0467L2.39454 23.0876C2.47921 24.4366 6.73975 25.5233 11.9831 25.5233C17.2795 25.5233 21.573 24.4145 21.573 23.0467V8.31524C20.9503 8.62651 20.2115 8.88642 19.3656 9.1053C17.3716 9.62113 14.7628 9.90663 12 9.90663C9.23724 9.90663 6.62845 9.62116 4.63443 9.1053C3.77319 8.88247 3.02306 8.61709 2.39326 8.29832V23.0467ZM12 2.47666C6.71295 2.47666 2.42697 3.58548 2.42697 4.95332C2.42697 6.32115 6.71295 7.42998 12 7.42998C17.287 7.42998 21.573 6.32115 21.573 4.95332C21.573 3.58548 17.287 2.47666 12 2.47666Z" fill="white"/>
</svg>
