<svg width="64" height="64" viewBox="0 0 64 64" fill="none" xmlns="http://www.w3.org/2000/svg">
<g clip-path="url(#clip0_91_585)">
<path d="M32 64C49.6731 64 64 49.6731 64 32C64 14.3269 49.6731 0 32 0C14.3269 0 0 14.3269 0 32C0 49.6731 14.3269 64 32 64Z" fill="#8BCF70"/>
<path d="M40.68 43.4737C40.8346 43.4737 40.96 43.5994 40.96 43.7544V45.7193C40.96 45.8743 40.8346 46 40.68 46H23.32C23.1654 46 23.04 45.8743 23.04 45.7193V43.7544C23.04 43.5994 23.1654 43.4737 23.32 43.4737H40.68ZM44.88 18C45.4986 18 46 18.5027 46 19.1228V39.4737C46 40.0938 45.4986 40.5965 44.88 40.5965H19.12C18.5014 40.5965 18 40.0938 18 39.4737V19.1228C18 18.5027 18.5014 18 19.12 18H44.88ZM43.48 20.5263H20.52V38.0702H43.48V20.5263Z" fill="white"/>
<path d="M26.1735 30.0116L29.7048 25.0115C29.7494 24.9484 29.818 24.9066 29.8944 24.8958C29.9708 24.885 30.0482 24.9064 30.1084 24.9547L36.4046 30.0116H40.8204C40.9751 30.0116 41.1004 30.1373 41.1004 30.2923V31.6958C41.1004 31.8509 40.9751 31.9765 40.8204 31.9765H35.8146C35.7509 31.9765 35.6892 31.9548 35.6395 31.9149L30.2743 27.6056L27.271 31.858C27.2185 31.9323 27.1333 31.9765 27.0425 31.9765H22.9704C22.8158 31.9765 22.6904 31.8508 22.6904 31.6958V30.2923C22.6904 30.1373 22.8158 30.0116 22.9704 30.0116L26.1735 30.0116Z" fill="white"/>
</g>
<defs>
<clipPath id="clip0_91_585">
<rect width="64" height="64" fill="white"/>
</clipPath>
</defs>
</svg>
