<svg width="32" height="23" viewBox="0 0 32 23" fill="none" xmlns="http://www.w3.org/2000/svg">
<path d="M24.0569 22.9927H7.58375C3.58103 23.1679 0.188091 20.1691 0.00764439 16.292C-0.17458 12.4157 2.92324 9.13038 6.92597 8.95435C6.9153 4.24394 10.6834 0.334076 15.5368 0.0200483C20.3902 -0.293095 24.6613 3.09663 25.2969 7.76724C29.3876 8.3776 32.3006 11.9407 31.9752 15.9364C31.6499 19.9329 28.1965 23.0104 24.0569 22.9927ZM8.54555 20.4398H24.0569C25.9405 20.4398 27.6809 19.4667 28.6223 17.8878C29.5639 16.3151 29.5639 14.3555 28.6223 12.7828C27.68 11.203 25.9405 10.2299 24.0569 10.2308C23.7075 10.2308 23.3724 10.0963 23.1253 9.85663C22.8791 9.62027 22.7396 9.29477 22.7386 8.95435C22.7386 5.43017 19.7893 2.57296 16.1501 2.57296C12.5109 2.57296 9.56067 5.43017 9.56067 8.95435V9.22238C12.6763 10.0822 14.8265 12.8359 14.8319 15.9735C14.8319 16.4291 14.5812 16.851 14.1732 17.0793C13.7637 17.3074 13.2645 17.3074 12.8549 17.0793C12.4507 16.8564 12.1991 16.4334 12.1972 15.9735C12.1972 13.5117 10.1393 11.5135 7.59709 11.5064C5.04949 11.5064 2.98458 13.5064 2.98458 15.9735C2.98458 18.4397 5.04949 20.4407 7.59709 20.4407H8.11087C8.25488 20.4168 8.40243 20.4168 8.54643 20.4407L8.54555 20.4398Z" fill="white"/>
</svg>
