<svg width="24" height="25" viewBox="0 0 24 25" fill="none" xmlns="http://www.w3.org/2000/svg">
<path d="M6.33058 17.8835C6.33058 18.4319 6.77823 18.8796 7.32898 18.8796H8.47043V21.7015C8.47043 22.4163 9.04462 22.9999 9.7501 22.9999C10.4579 22.9999 11.0298 22.4187 11.0298 21.7015V18.8773H13.022V21.6991C13.022 22.414 13.5962 22.9976 14.3017 22.9976C15.0095 22.9976 15.5813 22.4163 15.5813 21.6991V18.8773H16.7228C17.2736 18.8773 17.7212 18.4296 17.7212 17.8812V8.61865H6.33058V17.8835ZM14.7001 3.81866L15.7524 2.29522C15.8134 2.20616 15.7994 2.08662 15.7173 2.02803C15.6353 1.97178 15.5181 1.99991 15.4571 2.08897L14.3649 3.67335C13.6454 3.38975 12.8438 3.23272 12.0024 3.23272C11.161 3.23272 10.3595 3.38975 9.63994 3.67335L8.54773 2.09131C8.48683 2.00225 8.36963 1.97178 8.28758 2.03037C8.20558 2.08662 8.19148 2.20381 8.25243 2.29756L9.30478 3.821C7.63133 4.59912 6.45948 6.07337 6.30948 7.79602H17.7001C17.5454 6.07102 16.3712 4.59678 14.7001 3.81866ZM9.59776 6.22102C9.47308 6.22102 9.35116 6.18402 9.24748 6.11477C9.1438 6.04547 9.06298 5.94702 9.01528 5.83182C8.96758 5.71662 8.95508 5.58982 8.97938 5.46753C9.0037 5.34523 9.06376 5.2329 9.1519 5.14473C9.24016 5.05656 9.35242 4.9965 9.47476 4.97218C9.59704 4.94785 9.72382 4.96034 9.83902 5.00805C9.95422 5.05578 10.0527 5.13658 10.122 5.24026C10.1912 5.34394 10.2282 5.46584 10.2282 5.59052C10.2278 5.75762 10.1612 5.91772 10.0431 6.03587C9.92494 6.15402 9.76486 6.22057 9.59776 6.22102ZM14.4821 6.22102C14.3574 6.22102 14.2355 6.18402 14.1319 6.11477C14.0282 6.04547 13.9474 5.94702 13.8996 5.83182C13.8519 5.71662 13.8394 5.58982 13.8638 5.46753C13.8881 5.34523 13.9481 5.2329 14.0363 5.14473C14.1245 5.05656 14.2368 4.9965 14.3591 4.97218C14.4815 4.94785 14.6082 4.96034 14.7234 5.00805C14.8386 5.05578 14.9371 5.13658 15.0063 5.24026C15.0756 5.34394 15.1126 5.46584 15.1126 5.59052C15.1122 5.75762 15.0456 5.91772 14.9275 6.03587C14.8094 6.15402 14.6492 6.22057 14.4821 6.22102ZM19.7181 8.58115C19.0102 8.58115 18.4384 9.16243 18.4384 9.87961V14.9515C18.4384 15.6663 19.0126 16.2499 19.7181 16.2499C20.4259 16.2499 20.9978 15.6687 20.9978 14.9515V9.87727C21.0001 9.16009 20.4282 8.58115 19.7181 8.58115ZM4.28213 8.58115C3.57432 8.58115 3.00244 9.16243 3.00244 9.87961V14.9515C3.00244 15.6663 3.57666 16.2499 4.28213 16.2499C4.98994 16.2499 5.56183 15.6687 5.56183 14.9515V9.87727C5.56183 9.16009 4.9876 8.58115 4.28213 8.58115Z" fill="black"/>
</svg>
