<svg width="118" height="269" viewBox="0 0 118 269" fill="none" xmlns="http://www.w3.org/2000/svg">
<g opacity="0.7" clip-path="url(#clip0_797_4558)">
<path d="M-1.79758 164.632L-22.0763 144.303C-28.0315 138.333 -37.6868 138.333 -43.642 144.303L-63.9207 164.632C-69.8759 170.602 -69.8759 180.281 -63.9207 186.251L-43.642 206.58C-37.6868 212.55 -28.0315 212.55 -22.0763 206.58L-1.79757 186.251C4.15764 180.281 4.15763 170.602 -1.79758 164.632Z" stroke="#BAF2A4" stroke-width="2" stroke-miterlimit="10"/>
<path d="M41.2326 221.872L22.3762 202.969C16.0283 196.606 5.73615 196.606 -0.611831 202.969L-19.4682 221.872C-25.8162 228.236 -25.8162 238.554 -19.4682 244.917L-0.611842 263.82C5.73614 270.184 16.0282 270.184 22.3762 263.82L41.2326 244.917C47.5805 238.554 47.5805 228.236 41.2326 221.872Z" stroke="#D0F6C0" stroke-width="2" stroke-miterlimit="10"/>
<path d="M66.2934 75.269L-4.16804 4.63299C-10.516 -1.73072 -20.8081 -1.73072 -27.1561 4.63299L-97.6176 75.269C-103.966 81.6327 -103.966 91.9504 -97.6176 98.3141L-27.1561 168.95C-20.8081 175.314 -10.516 175.314 -4.16804 168.95L66.2934 98.3141C72.6414 91.9504 72.6414 81.6328 66.2934 75.269Z" stroke="#A5E18E" stroke-width="2" stroke-miterlimit="10"/>
<path d="M112.83 75.2697L92.2459 54.6348C85.8979 48.2711 75.6058 48.2711 69.2578 54.6348L48.674 75.2697C42.326 81.6334 42.326 91.9511 48.674 98.3148L69.2578 118.95C75.6058 125.313 85.8979 125.313 92.2459 118.95L112.83 98.3148C119.178 91.9511 119.178 81.6334 112.83 75.2697Z" stroke="#D0F6C0" stroke-width="2" stroke-miterlimit="10"/>
<path d="M77.2951 162.922L52.7436 138.31C49.0671 134.624 43.1064 134.624 39.4299 138.31L14.8783 162.922C11.2019 166.608 11.2019 172.583 14.8783 176.269L39.4299 200.881C43.1064 204.567 49.0671 204.567 52.7436 200.881L77.2951 176.269C80.9716 172.583 80.9716 166.608 77.2951 162.922Z" stroke="#B9EDA4" stroke-width="2" stroke-miterlimit="10"/>
<path d="M-3.42321 153.774L-23.7019 133.445C-29.6571 127.475 -39.3124 127.475 -45.2676 133.445L-65.5463 153.774C-71.5015 159.744 -71.5015 169.423 -65.5463 175.393L-45.2676 195.722C-39.3124 201.692 -29.6571 201.692 -23.7019 195.722L-3.42322 175.393C2.53199 169.423 2.532 159.744 -3.42321 153.774Z" fill="#BAF2A3"/>
<path d="M39.6069 211.014L20.7506 192.111C14.4026 185.747 4.11051 185.747 -2.23747 192.111L-21.0938 211.014C-27.4418 217.378 -27.4418 227.695 -21.0938 234.059L-2.23748 252.962C4.1105 259.326 14.4026 259.326 20.7506 252.962L39.6069 234.059C45.9549 227.695 45.9549 217.378 39.6069 211.014Z" fill="#D0F7C0"/>
<path d="M-28.7757 158.092L-99.2196 87.4739C-100.729 85.9611 -101.927 84.1649 -102.744 82.1881C-103.561 80.2112 -103.981 78.0923 -103.981 75.9525C-103.981 73.8127 -103.561 71.6938 -102.744 69.717C-101.927 67.7401 -100.729 65.9439 -99.2196 64.4311L-28.7554 -6.18732C-27.2463 -7.70064 -25.4546 -8.90109 -23.4826 -9.72012C-21.5106 -10.5391 -19.397 -10.9607 -17.2624 -10.9607C-15.1279 -10.9607 -13.0143 -10.5391 -11.0423 -9.72012C-9.07032 -8.90109 -7.2786 -7.70064 -5.7695 -6.18732L64.6744 64.4107C66.1839 65.9235 67.3814 67.7197 68.1984 69.6966C69.0154 71.6734 69.4359 73.7923 69.4359 75.9321C69.4359 78.0719 69.0154 80.1908 68.1984 82.1676C67.3814 84.1445 66.1839 85.9407 64.6744 87.4535L-5.7695 158.092C-7.27898 159.609 -9.07198 160.812 -11.0458 161.633C-13.0197 162.453 -15.1357 162.876 -17.2726 162.876C-19.4096 162.876 -21.5255 162.453 -23.4994 161.633C-25.4733 160.812 -27.2663 159.609 -28.7757 158.092Z" fill="#A4E28B"/>
<path d="M111.204 64.4115L90.6203 43.7766C84.2723 37.4129 73.9802 37.4129 67.6322 43.7766L47.0483 64.4115C40.7004 70.7752 40.7004 81.0928 47.0483 87.4565L67.6322 108.091C73.9802 114.455 84.2723 114.455 90.6203 108.091L111.204 87.4565C117.552 81.0928 117.552 70.7752 111.204 64.4115Z" fill="#D0F7C0"/>
<path d="M75.6695 152.064L51.118 127.452C47.4415 123.766 41.4807 123.766 37.8042 127.452L13.2527 152.064C9.57623 155.75 9.57623 161.725 13.2527 165.411L37.8042 190.023C41.4807 193.709 47.4415 193.709 51.118 190.023L75.6695 165.411C79.346 161.725 79.346 155.75 75.6695 152.064Z" fill="#B9EDA4"/>
<path d="M104.725 134.602L96.3927 126.249C93.5256 123.375 88.8771 123.375 86.0101 126.249L77.6774 134.602C74.8104 137.476 74.8104 142.136 77.6774 145.011L86.01 153.364C88.8771 156.238 93.5256 156.238 96.3927 153.364L104.725 145.011C107.592 142.136 107.592 137.476 104.725 134.602Z" stroke="#B9EDA4" stroke-width="2" stroke-miterlimit="10"/>
<path d="M96.801 180.098L94.1031 177.394C92.7101 175.997 90.4517 175.997 89.0587 177.394L86.3608 180.098C84.9678 181.495 84.9678 183.759 86.3608 185.155L89.0587 187.86C90.4517 189.256 92.7101 189.256 94.1031 187.86L96.801 185.155C98.194 183.759 98.194 181.495 96.801 180.098Z" stroke="#D0F6C0" stroke-width="2" stroke-miterlimit="10"/>
<path d="M104.925 128.438L96.592 120.085C93.725 117.211 89.0765 117.211 86.2094 120.085L77.8768 128.438C75.0097 131.312 75.0097 135.972 77.8768 138.846L86.2094 147.2C89.0765 150.074 93.725 150.074 96.592 147.2L104.925 138.846C107.792 135.972 107.792 131.312 104.925 128.438Z" fill="#B9EDA4"/>
<path d="M97.0033 173.941L94.3054 171.236C92.9124 169.84 90.6539 169.84 89.2609 171.236L86.563 173.941C85.17 175.337 85.17 177.601 86.563 178.998L89.2609 181.702C90.6539 183.099 92.9124 183.099 94.3054 181.702L97.0033 178.998C98.3963 177.601 98.3963 175.337 97.0033 173.941Z" fill="#CFF6C0"/>
</g>
<defs>
<clipPath id="clip0_797_4558">
<rect width="222" height="280" fill="white" transform="translate(-104 -11)"/>
</clipPath>
</defs>
</svg>
