<svg width="48" height="48" viewBox="0 0 48 48" fill="none" xmlns="http://www.w3.org/2000/svg">
<path d="M12.6612 34.7671C12.6612 35.8639 13.5565 36.7593 14.658 36.7593H16.9409V42.403C16.9409 43.8327 18.0892 45 19.5002 45C20.9158 45 22.0596 43.8374 22.0596 42.403V36.7547H26.0439V42.3984C26.0439 43.828 27.1923 44.9953 28.6034 44.9953C30.0189 44.9953 31.1626 43.8327 31.1626 42.3984V36.7547H33.4455C34.5471 36.7547 35.4423 35.8593 35.4423 34.7624V16.2374H12.6612V34.7671ZM29.4002 6.63742L31.5049 3.59054C31.6268 3.41242 31.5987 3.17335 31.4346 3.05617C31.2705 2.94367 31.0362 2.99992 30.9142 3.17804L28.7299 6.34679C27.2908 5.7796 25.6876 5.46554 24.0049 5.46554C22.322 5.46554 20.7189 5.7796 19.2799 6.34679L17.0955 3.18273C16.9737 3.0046 16.7393 2.94367 16.5752 3.06085C16.4112 3.17335 16.383 3.40773 16.5049 3.59523L18.6096 6.6421C15.2627 8.19834 12.919 11.1468 12.619 14.5921H35.4002C35.0908 11.1421 32.7423 8.19366 29.4002 6.63742ZM19.1955 11.4421C18.9462 11.4421 18.7023 11.3681 18.495 11.2296C18.2876 11.091 18.126 10.8941 18.0306 10.6637C17.9352 10.4333 17.9102 10.1797 17.9588 9.93516C18.0074 9.69057 18.1275 9.46589 18.3038 9.28955C18.4803 9.11321 18.7048 8.9931 18.9495 8.94446C19.1941 8.89581 19.4476 8.92078 19.678 9.0162C19.9084 9.11165 20.1054 9.27327 20.244 9.48063C20.3824 9.68799 20.4565 9.93178 20.4565 10.1811C20.4555 10.5153 20.3224 10.8355 20.0862 11.0718C19.8499 11.3081 19.5297 11.4412 19.1955 11.4421ZM28.9642 11.4421C28.7149 11.4421 28.471 11.3681 28.2638 11.2296C28.0563 11.091 27.8948 10.8941 27.7993 10.6637C27.7039 10.4333 27.6788 10.1797 27.7275 9.93516C27.7761 9.69057 27.8962 9.46589 28.0726 9.28955C28.2489 9.11321 28.4737 8.9931 28.7182 8.94446C28.9629 8.89581 29.2164 8.92078 29.4468 9.0162C29.6772 9.11165 29.8742 9.27327 30.0127 9.48063C30.1513 9.68799 30.2252 9.93178 30.2252 10.1811C30.2244 10.5153 30.0912 10.8355 29.855 11.0718C29.6187 11.3081 29.2984 11.4412 28.9642 11.4421ZM39.4362 16.1624C38.0204 16.1624 36.8768 17.325 36.8768 18.7593V28.903C36.8768 30.3327 38.0252 31.5 39.4362 31.5C40.8518 31.5 41.9955 30.3374 41.9955 28.903V18.7546C42.0002 17.3203 40.8565 16.1624 39.4362 16.1624ZM8.56425 16.1624C7.14863 16.1624 6.00488 17.325 6.00488 18.7593V28.903C6.00488 30.3327 7.15331 31.5 8.56425 31.5C9.97988 31.5 11.1237 30.3374 11.1237 28.903V18.7546C11.1237 17.3203 9.97519 16.1624 8.56425 16.1624Z" fill="#959595"/>
</svg>
