<svg width="48" height="48" viewBox="0 0 48 48" fill="none" xmlns="http://www.w3.org/2000/svg">
<path d="M24 4C35.046 4 44 12.954 44 24C44 35.046 35.046 44 24 44C12.954 44 4 35.046 4 24C4 12.954 12.954 4 24 4ZM17.618 30.62C16.772 29.594 15.688 29.28 14.364 29.684L13.19 31.712C13.0821 31.8986 13.0119 32.1047 12.9836 32.3184C12.9553 32.5321 12.9693 32.7493 13.025 32.9576C13.0806 33.1658 13.1767 33.3611 13.3078 33.5323C13.4389 33.7034 13.6024 33.8471 13.789 33.955C13.9756 34.0629 14.1817 34.1331 14.3954 34.1614C14.6091 34.1897 14.8263 34.1757 15.0346 34.12C15.2428 34.0644 15.4381 33.9683 15.6093 33.8372C15.7804 33.7061 15.9241 33.5426 16.032 33.356L17.618 30.62ZM26.39 17.264C25.412 18.068 24.436 20.45 25.808 22.832C27.162 25.166 29.184 28.682 31.886 33.356C32.1047 33.7319 32.4632 34.006 32.8833 34.1184C33.3033 34.2308 33.7508 34.1724 34.128 33.956C34.5044 33.7373 34.7789 33.3784 34.8913 32.9579C35.0038 32.5373 34.9451 32.0894 34.728 31.712L33.118 28.928H35.5C35.9357 28.928 36.3537 28.7549 36.6618 28.4468C36.9699 28.1387 37.143 27.7207 37.143 27.285C37.143 26.8492 36.9699 26.4313 36.6618 26.1232C36.3537 25.8151 35.9357 25.642 35.5 25.642H31.228C29.076 21.922 27.468 19.128 26.39 17.262V17.264ZM26.924 11.194C26.7374 11.086 26.5314 11.0159 26.3177 10.9876C26.104 10.9594 25.8868 10.9735 25.6786 11.0292C25.4704 11.0849 25.2752 11.1812 25.1042 11.3124C24.9332 11.4436 24.7897 11.6073 24.682 11.794L23.95 13.058L23.22 11.792C23.0013 11.4161 22.6428 11.142 22.2227 11.0296C21.8027 10.9172 21.3552 10.9756 20.978 11.192C20.6016 11.4107 20.3271 11.7696 20.2147 12.1901C20.1022 12.6107 20.1609 13.0586 20.378 13.436L22.062 16.344L16.69 25.644H12.5C12.0653 25.6456 11.6489 25.8188 11.3414 26.126C11.0338 26.4331 10.8601 26.8493 10.858 27.284C10.858 28.188 11.598 28.928 12.5 28.928H27.44C28.164 27.588 27.236 25.642 25.578 25.642H20.476L27.524 13.436C27.632 13.2494 27.7021 13.0434 27.7304 12.8297C27.7586 12.616 27.7445 12.3988 27.6888 12.1906C27.6331 11.9824 27.5368 11.7872 27.4056 11.6162C27.2744 11.4452 27.1107 11.3017 26.924 11.194Z" fill="#959595"/>
</svg>
