<svg width="20" height="20" viewBox="0 0 20 20" fill="none" xmlns="http://www.w3.org/2000/svg">
<path d="M18.3334 14.4444C18.2223 14.1111 17.889 14 17.5556 14C13.5556 13.8889 10.4445 10.6667 10.4445 6.77777C10.4445 5.33332 11.0001 3.77777 11.889 2.55554C12.1112 2.33332 12.1112 1.99999 12.0001 1.66665C11.889 1.33332 11.5556 1.22221 11.2223 1.22221H10.7779C5.77786 0.999988 1.66675 4.99999 1.66675 9.99999C1.66675 15 5.77786 19 10.7779 19C13.6667 19 16.3334 17.6667 18.1112 15.4444L18.2223 15.3333L18.3334 15.2222C18.3334 14.8889 18.4445 14.6667 18.3334 14.4444ZM8.77786 6.66666C8.77786 10.8889 11.6667 14.4444 15.7779 15.4444C14.4445 16.6667 12.6667 17.3333 10.7779 17.3333C6.66675 17.2222 3.33341 14 3.33341 9.99999C3.33341 6.44443 6.00008 3.33332 9.55564 2.77777C9.00008 3.99999 8.77786 5.33332 8.77786 6.66666Z" fill="#959595"/>
</svg>
