<svg width="20" height="20" viewBox="0 0 20 20" fill="none" xmlns="http://www.w3.org/2000/svg">
<path d="M20 10.2528C20 12.4904 19.3592 14.4916 18.088 16.278C16.816 18.0632 15.1748 19.2952 13.1628 19.982C12.9328 20.024 12.7528 19.9924 12.6528 19.89C12.5988 19.8386 12.5565 19.7762 12.5287 19.7071C12.501 19.6379 12.4884 19.5636 12.492 19.4892V16.6772C12.492 15.816 12.262 15.1792 11.812 14.7796C12.2609 14.7342 12.7058 14.6549 13.1428 14.5424C13.5718 14.4245 13.9828 14.2487 14.3644 14.02C14.7848 13.7732 15.1348 13.4856 15.4156 13.1368C15.6956 12.7884 15.9256 12.3152 16.1056 11.7308C16.2864 11.1456 16.3764 10.4788 16.3764 9.71878C16.3764 8.64158 16.0364 7.72838 15.3448 6.96919C15.6656 6.15759 15.6356 5.25439 15.2448 4.24919C15.0048 4.16639 14.6548 4.21839 14.1944 4.39239C13.7336 4.56679 13.3336 4.76239 12.9928 4.97759L12.502 5.29559C11.6888 5.06101 10.8463 4.94369 9.99998 4.94719C9.13918 4.94719 8.30838 5.05999 7.49798 5.29559C7.31798 5.16999 7.13439 5.05039 6.94719 4.93679C6.71639 4.79279 6.35639 4.61879 5.85559 4.42319C5.36559 4.21839 4.98519 4.16639 4.73439 4.23879C4.35439 5.24439 4.32439 6.14799 4.64439 6.95879C3.96359 7.72838 3.61359 8.64158 3.61359 9.71878C3.61359 10.4788 3.70359 11.1456 3.88439 11.7204C4.06359 12.2952 4.29439 12.7676 4.56479 13.1268C4.85185 13.4917 5.20916 13.7954 5.61559 14.02C6.03639 14.256 6.44639 14.43 6.83719 14.5424C7.27478 14.6548 7.71958 14.7344 8.16838 14.7796C7.81798 15.0964 7.60798 15.5588 7.52798 16.154C7.34134 16.2467 7.14239 16.3123 6.93719 16.3488C6.69279 16.3929 6.44472 16.4135 6.19639 16.4104C5.90559 16.4104 5.62559 16.3184 5.34519 16.1232C5.06519 15.9284 4.82519 15.6512 4.62519 15.292C4.46739 15.0168 4.25226 14.7787 3.99439 14.594C3.74359 14.41 3.52359 14.3064 3.35359 14.2756L3.09359 14.2344C2.91279 14.2344 2.78279 14.256 2.71279 14.296C2.64279 14.3372 2.62279 14.3884 2.65279 14.45C2.68279 14.5116 2.72279 14.574 2.77279 14.6352C2.82279 14.6968 2.88279 14.748 2.94279 14.7992L3.03279 14.8608C3.22359 14.9528 3.41359 15.118 3.60359 15.364C3.79439 15.61 3.92439 15.836 4.01439 16.0412L4.14439 16.3492C4.25439 16.688 4.44439 16.9648 4.71479 17.17C4.97024 17.3689 5.26829 17.5059 5.58559 17.5704C5.89559 17.632 6.19639 17.6624 6.48639 17.6624C6.77639 17.6624 7.01719 17.6524 7.20718 17.6116L7.50798 17.56C7.50798 17.8984 7.50798 18.2992 7.51718 18.7508C7.51718 19.2028 7.52798 19.4488 7.52798 19.4692C7.52982 19.5442 7.51551 19.6187 7.48605 19.6877C7.45658 19.7567 7.41263 19.8186 7.35718 19.8692C7.24719 19.9716 7.06718 20.0024 6.83719 19.9612C4.82519 19.274 3.18359 18.0428 1.912 16.2568C0.630799 14.4916 0 12.48 0 10.2528C0 8.39558 0.450799 6.68079 1.3416 5.11119C2.232 3.54079 3.44359 2.2992 4.98519 1.3752C6.51599 0.462399 8.18798 0 9.99998 0C11.812 0 13.4836 0.461999 15.0148 1.3756C16.5464 2.2884 17.758 3.53079 18.6588 5.11119C19.5492 6.67119 20 8.39518 20 10.2528Z" fill="#727570"/>
</svg>
