<svg width="30" height="30" viewBox="0 0 30 30" fill="none" xmlns="http://www.w3.org/2000/svg">
<path d="M18.7575 19.2262C18.2419 19.2262 17.82 19.6481 17.82 20.1637V25.7887C17.82 26.0373 17.9188 26.2758 18.0946 26.4516C18.2704 26.6274 18.5089 26.7262 18.7575 26.7262C19.0062 26.7262 19.2446 26.6274 19.4205 26.4516C19.5963 26.2758 19.695 26.0373 19.695 25.7887V20.1637C19.695 19.9151 19.5963 19.6766 19.4205 19.5008C19.2446 19.325 19.0062 19.2262 18.7575 19.2262ZM26.2575 12.6637C26.0089 12.6637 25.7704 12.7625 25.5946 12.9383C25.4188 13.1141 25.32 13.3526 25.32 13.6012V25.7887C25.32 26.0373 25.4188 26.2758 25.5946 26.4516C25.7704 26.6274 26.0089 26.7262 26.2575 26.7262C26.5062 26.7262 26.7446 26.6274 26.9205 26.4516C27.0963 26.2758 27.195 26.0373 27.195 25.7887V13.6012C27.195 13.3526 27.0963 13.1141 26.9205 12.9383C26.7446 12.7625 26.5062 12.6637 26.2575 12.6637ZM13.1325 15.4762C13.1436 14.9768 13.0547 14.4803 12.8712 14.0157C12.6877 13.5511 12.4133 13.1278 12.0639 12.7708C11.7146 12.4137 11.2975 12.1301 10.837 11.9365C10.3765 11.7428 9.88203 11.6432 9.38252 11.6433C8.88301 11.6434 8.38855 11.7433 7.92819 11.9372C7.46782 12.131 7.05082 12.4149 6.70167 12.7721C6.35252 13.1294 6.07826 13.5527 5.89499 14.0174C5.71171 14.4821 5.62312 14.9787 5.63442 15.4781C5.65657 16.4579 6.06142 17.3901 6.76229 18.0751C7.46316 18.7601 8.40435 19.1435 9.3844 19.1433C10.3644 19.1431 11.3054 18.7592 12.006 18.0738C12.7065 17.3884 13.1109 16.456 13.1325 15.4762ZM7.52254 15.4762C7.52254 14.9827 7.7186 14.5093 8.0676 14.1603C8.41659 13.8113 8.88993 13.6153 9.38348 13.6153C9.87703 13.6153 10.3504 13.8113 10.6994 14.1603C11.0484 14.5093 11.2444 14.9827 11.2444 15.4762C11.2444 15.9698 11.0484 16.4431 10.6994 16.7921C10.3504 17.1411 9.87703 17.3371 9.38348 17.3371C8.88993 17.3371 8.41659 17.1411 8.0676 16.7921C7.7186 16.4431 7.52254 15.9698 7.52254 15.4762ZM9.38254 21.1012C6.27754 21.1012 3.75754 23.6212 3.75754 26.7262H5.63254C5.63254 25.7316 6.02763 24.7778 6.73089 24.0746C7.43415 23.3713 8.38798 22.9762 9.38254 22.9762C10.3771 22.9762 11.3309 23.3713 12.0342 24.0746C12.7375 24.7778 13.1325 25.7316 13.1325 26.7262H15.0075C15.0075 23.6212 12.4875 21.1012 9.38254 21.1012ZM26.5838 3.35621C26.4366 3.29617 26.2768 3.27362 26.1188 3.29058H22.5075C22.2589 3.29058 22.0204 3.38935 21.8446 3.56517C21.6688 3.74098 21.57 3.97944 21.57 4.22808C21.57 4.47672 21.6688 4.71518 21.8446 4.89099C22.0204 5.06681 22.2589 5.16558 22.5075 5.16558H23.9025L18.7425 10.3256L11.9775 3.56058C11.8817 3.4653 11.7669 3.39121 11.6406 3.34308C11.5143 3.29496 11.3794 3.27388 11.2444 3.28121C11.1114 3.27499 10.9786 3.29644 10.8544 3.34421C10.7301 3.39198 10.6171 3.46502 10.5225 3.55871L3.08817 10.9931C2.91777 11.1774 2.82535 11.4205 2.83026 11.6715C2.83518 11.9224 2.93707 12.1617 3.11455 12.3392C3.29204 12.5167 3.53134 12.6186 3.7823 12.6235C4.03325 12.6284 4.27636 12.536 4.46067 12.3656L11.2369 5.58933L18.0075 12.3618C18.2082 12.5643 18.4763 12.6525 18.7425 12.6412C18.8778 12.6487 19.0131 12.6277 19.1397 12.5796C19.2663 12.5314 19.3814 12.4573 19.4775 12.3618L25.32 6.51933V7.97621C25.32 8.22485 25.4188 8.4633 25.5946 8.63912C25.7704 8.81493 26.0089 8.91371 26.2575 8.91371C26.5062 8.91371 26.7446 8.81493 26.9205 8.63912C27.0963 8.4633 27.195 8.22485 27.195 7.97621V4.22621C27.194 4.03616 27.1349 3.85098 27.0257 3.69547C26.9164 3.53997 26.7622 3.42159 26.5838 3.35621Z" fill="#8BCF70"/>
</svg>
