<svg width="30" height="30" viewBox="0 0 30 30" fill="none" xmlns="http://www.w3.org/2000/svg">
<path d="M9.18 26.953C8.79728 26.9603 8.41442 26.9509 8.03251 26.9249L8.03063 26.9418C4.46063 26.7806 1.66125 23.788 1.66125 20.1318V18.4199C1.66125 15.1218 3.46313 12.5549 6.26813 11.8143V11.1974C4.90875 10.5805 4.16251 9.20617 4.16251 7.30492C4.16251 4.95742 6.03 3.04492 8.32688 3.04492C10.6256 3.04492 12.4931 4.95742 12.4931 7.30492C12.4931 9.20617 11.7469 10.5824 10.3875 11.1993V11.818C10.8431 11.9474 11.1338 12.1368 11.4469 12.3674C11.9925 11.8987 13.2525 11.0249 14.445 11.0249C15.8194 11.0249 17.0719 11.698 17.8538 12.8437C18.376 12.4055 18.9722 12.0639 19.6144 11.8349V11.1974C18.255 10.5805 17.5069 9.20617 17.5069 7.30492C17.5069 4.95742 19.3781 3.04492 21.6713 3.04492C23.9719 3.04492 25.8394 4.95742 25.8394 7.30492C25.8394 9.20617 25.095 10.5824 23.7338 11.1993V11.8162C26.5406 12.5568 28.3406 15.1237 28.3406 18.4218V20.1337C28.3406 23.893 25.35 26.9549 21.6713 26.9549C21.5775 26.9549 21.4538 26.9549 21.3244 26.9512L21.1256 26.9474V26.9549H19.4606L19.4344 26.7149C19.1438 24.0543 17.445 22.2487 15.105 22.123L14.85 22.1099V17.8874L15.0919 17.8612C16.2731 17.7412 16.98 16.7737 16.98 15.2849C16.98 13.8468 15.8419 12.6805 14.4431 12.6805C13.0481 12.6805 11.91 13.8468 11.91 15.2849C11.91 16.7737 12.615 17.7412 13.7963 17.8612L14.0381 17.8874L14.0363 22.1099L13.7813 22.1212C11.4413 22.2468 9.7425 24.0524 9.45 26.713L9.42188 26.9568L9.18 26.953ZM20.8069 24.8999C21.1219 24.958 21.4031 24.988 21.6731 24.988C24.4388 24.988 26.6888 22.6593 26.6888 19.7962V18.7499C26.6888 16.2337 25.4231 14.3174 23.3869 13.7437L22.0781 13.5318V9.90367L22.3238 9.87742C23.7113 9.7368 24.21 8.4543 24.21 7.30305C24.21 5.8668 23.07 4.69867 21.6731 4.69867C20.28 4.69867 19.14 5.8668 19.14 7.30305C19.14 8.4543 19.6369 9.73492 21.0263 9.87742L21.27 9.90367V13.543L21.03 13.573C20.6704 13.6123 20.3131 13.6699 19.9594 13.7455C19.5431 13.8618 19.05 14.278 18.5681 14.6999C18.5981 14.9062 18.6094 15.0955 18.6094 15.2868C18.6094 17.1937 17.8669 18.5662 16.5056 19.1868V20.3643C18.5606 20.9099 20.0756 22.5093 20.8069 24.8999ZM8.32501 4.69867C6.93001 4.69867 5.79188 5.8668 5.79188 7.30305C5.79188 8.4543 6.28875 9.73492 7.67813 9.87742L7.92 9.90367V13.5318L6.58313 13.753C4.57875 14.3193 3.315 16.2355 3.315 18.7518V19.798C3.315 22.5562 5.42625 24.838 8.06063 24.9824C8.76188 22.5487 10.2881 20.9193 12.3825 20.3643V19.1868C11.025 18.5643 10.2788 17.1918 10.2788 15.2849C10.2788 14.8593 10.3031 14.4149 10.4625 13.9949C10.3101 13.8705 10.1385 13.7717 9.95438 13.7024C9.81376 13.6499 9.30188 13.5955 8.98313 13.573L8.73188 13.5562V9.90367L8.97375 9.87742C10.3631 9.7368 10.86 8.45617 10.86 7.30492C10.86 5.8668 9.72375 4.69867 8.32501 4.69867Z" fill="#8BCF70"/>
</svg>
