<svg width="30" height="30" viewBox="0 0 30 30" fill="none" xmlns="http://www.w3.org/2000/svg">
<path d="M18.75 16.8749C18.75 17.6166 18.9699 18.3416 19.382 18.9583C19.794 19.575 20.3797 20.0556 21.0649 20.3395C21.7502 20.6233 22.5042 20.6976 23.2316 20.5529C23.959 20.4082 24.6272 20.051 25.1516 19.5266C25.6761 19.0021 26.0333 18.3339 26.1779 17.6065C26.3226 16.8791 26.2484 16.1251 25.9645 15.4399C25.6807 14.7546 25.2001 14.169 24.5834 13.7569C23.9667 13.3449 23.2417 13.1249 22.5 13.1249C21.4912 13.1249 20.5819 13.528 19.905 14.1768C18.9469 12.4387 17.1225 11.2499 15 11.2499C12.8775 11.2499 11.0531 12.4387 10.095 14.1768C9.39913 13.5029 8.46867 13.1258 7.5 13.1249C6.75832 13.1249 6.0333 13.3449 5.41661 13.7569C4.79993 14.169 4.31928 14.7546 4.03545 15.4399C3.75162 16.1251 3.67736 16.8791 3.82206 17.6065C3.96675 18.3339 4.3239 19.0021 4.84835 19.5266C5.3728 20.051 6.04098 20.4082 6.76841 20.5529C7.49584 20.6976 8.24984 20.6233 8.93506 20.3395C9.62029 20.0556 10.206 19.575 10.618 18.9583C11.0301 18.3416 11.25 17.6166 11.25 16.8749C11.25 15.8804 11.6451 14.9265 12.3483 14.2233C13.0516 13.52 14.0054 13.1249 15 13.1249C15.9946 13.1249 16.9484 13.52 17.6516 14.2233C18.3549 14.9265 18.75 15.8804 18.75 16.8749ZM22.5 15.0149C22.9933 15.0149 23.4664 15.2109 23.8152 15.5597C24.164 15.9085 24.36 16.3816 24.36 16.8749C24.36 17.3682 24.164 17.8413 23.8152 18.1901C23.4664 18.539 22.9933 18.7349 22.5 18.7349C22.0067 18.7349 21.5336 18.539 21.1848 18.1901C20.836 17.8413 20.64 17.3682 20.64 16.8749C20.64 16.3816 20.836 15.9085 21.1848 15.5597C21.5336 15.2109 22.0067 15.0149 22.5 15.0149ZM7.5 18.7349C7.0067 18.7349 6.5336 18.539 6.18478 18.1901C5.83596 17.8413 5.64 17.3682 5.64 16.8749C5.64 16.3816 5.83596 15.9085 6.18478 15.5597C6.5336 15.2109 7.0067 15.0149 7.5 15.0149C7.9933 15.0149 8.4664 15.2109 8.81522 15.5597C9.16404 15.9085 9.36 16.3816 9.36 16.8749C9.36 17.3682 9.16404 17.8413 8.81522 18.1901C8.4664 18.539 7.9933 18.7349 7.5 18.7349ZM15 9.37492C15.4926 9.3748 15.9803 9.27766 16.4354 9.08904C16.8904 8.90042 17.3038 8.62403 17.652 8.27564C18.0003 7.92724 18.2764 7.51367 18.4648 7.05854C18.6532 6.60341 18.7501 6.11563 18.75 5.62305C18.7499 5.13047 18.6527 4.64273 18.4641 4.1877C18.2755 3.73266 17.9991 3.31923 17.6507 2.97101C17.3023 2.62279 16.8887 2.3466 16.4336 2.15821C15.9785 1.96982 15.4907 1.87292 14.9981 1.87305C14.0033 1.8733 13.0493 2.26872 12.3461 2.97233C11.6428 3.67595 11.2479 4.63011 11.2481 5.62492C11.2484 6.61973 11.6438 7.5737 12.3474 8.27696C13.051 8.98022 14.0052 9.37517 15 9.37492ZM15 3.76492C15.4933 3.76492 15.9664 3.96089 16.3152 4.3097C16.664 4.65852 16.86 5.13162 16.86 5.62492C16.86 6.11823 16.664 6.59132 16.3152 6.94014C15.9664 7.28896 15.4933 7.48492 15 7.48492C14.5067 7.48492 14.0336 7.28896 13.6848 6.94014C13.336 6.59132 13.14 6.11823 13.14 5.62492C13.14 5.13162 13.336 4.65852 13.6848 4.3097C14.0336 3.96089 14.5067 3.76492 15 3.76492ZM7.5 22.4999C6.00816 22.4999 4.57742 23.0926 3.52252 24.1474C2.46763 25.2023 1.875 26.6331 1.875 28.1249H3.75C3.75 27.1304 4.14509 26.1765 4.84835 25.4733C5.55161 24.77 6.50544 24.3749 7.5 24.3749C8.49456 24.3749 9.44839 24.77 10.1517 25.4733C10.8549 26.1765 11.25 27.1304 11.25 28.1249H13.125C13.125 26.6331 12.5324 25.2023 11.4775 24.1474C10.4226 23.0926 8.99184 22.4999 7.5 22.4999ZM22.5 22.4999C21.0082 22.4999 19.5774 23.0926 18.5225 24.1474C17.4676 25.2023 16.875 26.6331 16.875 28.1249H18.75C18.75 27.1304 19.1451 26.1765 19.8484 25.4733C20.5516 24.77 21.5054 24.3749 22.5 24.3749C23.4946 24.3749 24.4484 24.77 25.1516 25.4733C25.8549 26.1765 26.25 27.1304 26.25 28.1249H28.125C28.125 26.6331 27.5324 25.2023 26.4775 24.1474C25.4226 23.0926 23.9918 22.4999 22.5 22.4999Z" fill="#8BCF70"/>
</svg>
