<svg width="30" height="30" viewBox="0 0 30 30" fill="none" xmlns="http://www.w3.org/2000/svg">
<path d="M25.3125 5.625H14.0625C14.0625 4.63044 13.6674 3.67661 12.9642 2.97335C12.2609 2.27009 11.3071 1.875 10.3125 1.875H4.6875C3.69294 1.875 2.73911 2.27009 2.03585 2.97335C1.33259 3.67661 0.9375 4.63044 0.9375 5.625V24.375C0.9375 25.3696 1.33259 26.3234 2.03585 27.0266C2.73911 27.7299 3.69294 28.125 4.6875 28.125H25.3125C26.3071 28.125 27.2609 27.7299 27.9641 27.0266C28.6674 26.3234 29.0625 25.3696 29.0625 24.375V9.375C29.0625 8.38044 28.6674 7.42661 27.9641 6.72335C27.2609 6.02009 26.3071 5.625 25.3125 5.625ZM4.6875 3.75H10.3125C10.8098 3.75 11.2867 3.94754 11.6383 4.29917C11.99 4.65081 12.1875 5.12772 12.1875 5.625H2.8125C2.8125 5.12772 3.01004 4.65081 3.36167 4.29917C3.71331 3.94754 4.19022 3.75 4.6875 3.75ZM27.1875 24.375C27.1875 24.8723 26.99 25.3492 26.6383 25.7008C26.2867 26.0525 25.8098 26.25 25.3125 26.25H4.6875C4.19022 26.25 3.71331 26.0525 3.36167 25.7008C3.01004 25.3492 2.8125 24.8723 2.8125 24.375V7.5H25.3125C25.8098 7.5 26.2867 7.69754 26.6383 8.04918C26.99 8.40081 27.1875 8.87772 27.1875 9.375V24.375Z" fill="#8BCF70"/>
<path d="M20.8556 14.8725H20.7994C19.8581 14.8725 19.0931 14.0625 19.0931 13.065C19.0931 12.7369 19.2413 12.3769 19.2413 12.375C19.3119 12.2045 19.3246 12.0155 19.2775 11.837C19.2305 11.6585 19.1262 11.5004 18.9806 11.3869L18.9638 11.3756L17.3231 10.4081L17.3062 10.4006C17.1496 10.3349 16.9767 10.3185 16.8105 10.3537C16.6443 10.3889 16.4928 10.4739 16.3763 10.5975C16.1756 10.8169 15.5438 11.385 15.0319 11.385C14.52 11.385 13.8825 10.8056 13.6819 10.5825C13.6037 10.4973 13.5087 10.4292 13.4028 10.3827C13.2969 10.3363 13.1825 10.3123 13.0669 10.3125C12.9596 10.3118 12.8535 10.3342 12.7556 10.3781L12.7369 10.3856L11.0381 11.3738L11.0212 11.385C10.8755 11.4988 10.7709 11.6571 10.7235 11.8359C10.6761 12.0146 10.6885 12.204 10.7587 12.375C10.7587 12.3788 10.9069 12.7369 10.9069 13.065C10.9069 14.0625 10.1419 14.8725 9.20063 14.8725H9.14437C8.86875 14.8669 8.64562 15.12 8.57437 15.5175C8.56875 15.5494 8.4375 16.2938 8.4375 16.8806C8.4375 17.4675 8.56875 18.2119 8.57437 18.2438C8.64562 18.6356 8.86312 18.8906 9.13312 18.8906H9.19875C10.14 18.8906 10.905 19.7006 10.905 20.6981C10.905 21.0263 10.7569 21.3863 10.7569 21.3881C10.6869 21.5588 10.6745 21.7476 10.7215 21.9259C10.7685 22.1042 10.8725 22.2624 11.0175 22.3763L11.0325 22.3875L12.6431 23.3419L12.66 23.3494C12.7594 23.3949 12.8676 23.4179 12.9769 23.4169C13.0928 23.4167 13.2074 23.3923 13.3134 23.3451C13.4193 23.298 13.5141 23.2292 13.5919 23.1431C13.7812 22.9275 14.4375 22.3069 14.9644 22.3069C15.4913 22.3069 16.14 22.9238 16.3444 23.16C16.4575 23.2885 16.6081 23.3783 16.775 23.4167C16.9418 23.455 17.1165 23.44 17.2744 23.3738L17.2931 23.3663L18.96 22.3894L18.9787 22.3781C19.1233 22.2638 19.2268 22.1057 19.2738 21.9275C19.3208 21.7494 19.3087 21.5607 19.2394 21.39C19.2394 21.3881 19.0913 21.0281 19.0913 20.7C19.0913 19.7025 19.8562 18.8925 20.7975 18.8925H20.8537C21.1275 18.8981 21.3525 18.6431 21.4237 18.2456C21.4312 18.2119 21.5625 17.4656 21.5625 16.8806C21.5625 16.2956 21.4312 15.5494 21.4256 15.5175C21.3544 15.12 21.1313 14.8669 20.8556 14.8725ZM19.6013 17.8519C18.5419 17.9081 17.6944 18.8456 17.6944 19.9894C17.6944 20.37 17.8331 20.7356 17.8631 20.8106L16.5994 21.5531L16.5956 21.555C16.5769 21.555 16.56 21.5475 16.5562 21.5419C16.4132 21.3804 16.2556 21.2323 16.0856 21.0994C15.6919 20.7881 15.3188 20.6306 14.9719 20.6306C14.6288 20.6306 14.2575 20.7844 13.8656 21.09C13.6031 21.2944 13.4212 21.5006 13.3987 21.525C13.3865 21.5315 13.3731 21.5353 13.3594 21.5363H13.3556L12.135 20.8106C12.2406 20.5487 12.2984 20.2699 12.3056 19.9875C12.3056 18.8456 11.46 17.9081 10.3988 17.85C10.3415 17.5298 10.3083 17.2058 10.2994 16.8806C10.2994 16.5019 10.3819 15.9956 10.3969 15.9075C11.4581 15.8494 12.3056 14.9119 12.3056 13.7681C12.3056 13.3875 12.1669 13.0238 12.1369 12.9469L13.425 12.195H13.4288C13.4513 12.195 13.47 12.2025 13.4756 12.2081C13.4981 12.2306 13.6781 12.4294 13.9406 12.6281C14.325 12.9206 14.6906 13.0688 15.0262 13.0688C15.3581 13.0688 15.72 12.9225 16.1044 12.6356C16.3669 12.4406 16.545 12.2456 16.5675 12.225C16.5816 12.2163 16.5978 12.2118 16.6144 12.2119H16.6181L17.8631 12.9469C17.8331 13.0219 17.6944 13.3894 17.6944 13.77C17.6944 14.9119 18.54 15.8494 19.6013 15.9094C19.6181 15.9994 19.7006 16.5019 19.7006 16.8806C19.7006 17.2575 19.6181 17.7638 19.6013 17.8519Z" fill="#8BCF70"/>
<path d="M13.1475 16.875C13.1475 17.3753 13.3426 17.8551 13.69 18.2088C14.0375 18.5625 14.5086 18.7613 15 18.7613C15.4913 18.7613 15.9625 18.5625 16.3099 18.2088C16.6573 17.8551 16.8525 17.3753 16.8525 16.875C16.8525 16.3748 16.6573 15.895 16.3099 15.5412C15.9625 15.1875 15.4913 14.9888 15 14.9888C14.5086 14.9888 14.0375 15.1875 13.69 15.5412C13.3426 15.895 13.1475 16.3748 13.1475 16.875Z" fill="#8BCF70"/>
</svg>
