<svg width="30" height="30" viewBox="0 0 30 30" fill="none" xmlns="http://www.w3.org/2000/svg">
<path d="M23.4375 0.9375H6.5625C5.56794 0.9375 4.61411 1.33259 3.91085 2.03585C3.20759 2.73911 2.8125 3.69294 2.8125 4.6875V25.3125C2.8125 26.3071 3.20759 27.2609 3.91085 27.9641C4.61411 28.6674 5.56794 29.0625 6.5625 29.0625H23.4375C24.4321 29.0625 25.3859 28.6674 26.0891 27.9641C26.7924 27.2609 27.1875 26.3071 27.1875 25.3125V4.6875C27.1875 3.69294 26.7924 2.73911 26.0891 2.03585C25.3859 1.33259 24.4321 0.9375 23.4375 0.9375ZM25.3125 25.3125C25.3125 25.8098 25.115 26.2867 24.7633 26.6383C24.4117 26.99 23.9348 27.1875 23.4375 27.1875H6.5625C6.06522 27.1875 5.58831 26.99 5.23667 26.6383C4.88504 26.2867 4.6875 25.8098 4.6875 25.3125V4.6875C4.6875 4.19022 4.88504 3.71331 5.23667 3.36167C5.58831 3.01004 6.06522 2.8125 6.5625 2.8125H23.4375C23.9348 2.8125 24.4117 3.01004 24.7633 3.36167C25.115 3.71331 25.3125 4.19022 25.3125 4.6875V25.3125Z" fill="#8BCF70"/>
<path d="M8.4375 21.5626H21.5625C21.8111 21.5626 22.0496 21.6614 22.2254 21.8372C22.4012 22.013 22.5 22.2515 22.5 22.5001C22.5 22.7488 22.4012 22.9872 22.2254 23.163C22.0496 23.3388 21.8111 23.4376 21.5625 23.4376H8.4375C8.18886 23.4376 7.9504 23.3388 7.77459 23.163C7.59877 22.9872 7.5 22.7488 7.5 22.5001C7.5 22.2515 7.59877 22.013 7.77459 21.8372C7.9504 21.6614 8.18886 21.5626 8.4375 21.5626ZM8.4375 16.8751H21.5625C21.8111 16.8751 22.0496 16.9739 22.2254 17.1497C22.4012 17.3255 22.5 17.564 22.5 17.8126C22.5 18.0613 22.4012 18.2997 22.2254 18.4755C22.0496 18.6513 21.8111 18.7501 21.5625 18.7501H8.4375C8.18886 18.7501 7.9504 18.6513 7.77459 18.4755C7.59877 18.2997 7.5 18.0613 7.5 17.8126C7.5 17.564 7.59877 17.3255 7.77459 17.1497C7.9504 16.9739 8.18886 16.8751 8.4375 16.8751ZM19.6406 5.67199C19.8164 5.8478 19.9151 6.08621 19.9151 6.3348C19.9151 6.58339 19.8164 6.82181 19.6406 6.99761L13.0106 13.6276L10.3594 14.9532L11.6869 12.302L18.315 5.67386C18.4906 5.49786 18.7288 5.39879 18.9774 5.39844C19.226 5.39809 19.4646 5.49648 19.6406 5.67199Z" fill="#8BCF70"/>
</svg>
