<svg width="20" height="20" viewBox="0 0 20 20" fill="none" xmlns="http://www.w3.org/2000/svg">
<g clip-path="url(#clip0_6_163)">
<path d="M10.0778 18.4437C14.6983 18.4437 18.4439 14.6981 18.4439 10.0776C18.4439 5.45708 14.6983 1.71143 10.0778 1.71143C5.45731 1.71143 1.71167 5.45708 1.71167 10.0776C1.71167 14.6981 5.45731 18.4437 10.0778 18.4437Z" stroke="#959595" stroke-width="1.5" stroke-linejoin="round"/>
<path d="M2.86256 12.9299C3.70334 13.2909 4.64145 13.4294 5.67688 13.3455C6.54738 13.2749 7.40047 13.0609 8.23615 12.7034C8.9169 12.4121 9.38766 12.1283 9.64843 11.8519L9.66913 11.8356C9.60941 11.9549 9.59913 12.0912 9.63828 12.2447C9.69349 12.461 9.81695 12.6103 10.0087 12.6927C10.042 12.707 10.0717 12.7162 10.0978 12.7203C10.0978 12.7203 10.0902 12.7201 10.0778 12.7201C8.98046 12.7201 8.08186 12.2646 7.38195 11.3537C6.81471 10.6154 6.53108 9.82651 6.53108 8.98705C6.53108 8.45676 6.82026 7.87714 7.39861 7.24818C7.58649 7.04385 7.68727 6.92238 7.70096 6.88377C7.68361 6.93273 7.68312 6.98699 7.69949 7.04656L7.67961 7.04927C7.00292 6.37259 6.56994 5.59795 6.38066 4.72535C6.12843 3.5625 6.38951 2.48971 7.16393 1.50701C7.1978 1.46403 7.23553 1.42477 7.27713 1.38922C7.31873 1.35368 7.3634 1.32254 7.41113 1.29579C7.45886 1.26905 7.50875 1.24721 7.56078 1.2303C7.61282 1.21338 7.66601 1.2017 7.72035 1.19526C7.77468 1.18882 7.82912 1.18774 7.88367 1.19202C7.93823 1.1963 7.99184 1.20586 8.0445 1.22071C8.09716 1.23555 8.14788 1.25539 8.19664 1.28022C8.2454 1.30505 8.29126 1.3344 8.33424 1.36827C8.37722 1.40214 8.41648 1.43987 8.45202 1.48147C8.48757 1.52307 8.51871 1.56774 8.54545 1.61548C8.5722 1.66321 8.59403 1.7131 8.61095 1.76513C8.62787 1.81717 8.63955 1.87036 8.64598 1.92469C8.65243 1.97903 8.65351 2.03347 8.64923 2.08802C8.64495 2.14257 8.63538 2.19618 8.62054 2.24885C8.60569 2.30151 8.58586 2.35222 8.56103 2.40098C8.53619 2.44974 8.50684 2.49561 8.47297 2.53859C8.02275 3.1099 7.86824 3.72105 8.00945 4.37204C8.1295 4.92545 8.41238 5.42503 8.85812 5.87077C9.33567 6.34833 9.47358 6.87164 9.27183 7.44071C9.18233 7.69312 8.96687 8.00498 8.62544 8.3763C8.34031 8.68638 8.19775 8.88996 8.19775 8.98705C8.19775 9.44895 8.36635 9.89933 8.70355 10.3382C9.06989 10.815 9.52796 11.0534 10.0778 11.0534C10.7288 11.0534 11.1206 11.3131 11.2532 11.8326C11.3532 12.2246 11.2224 12.6122 10.8607 12.9956C10.4413 13.4401 9.785 13.8535 8.89173 14.2357C7.88942 14.6645 6.86269 14.9215 5.81154 15.0067C4.5013 15.1129 3.29912 14.9311 2.20499 14.4614C2.15471 14.4398 2.10702 14.4135 2.06192 14.3825C2.01682 14.3515 1.97517 14.3164 1.93698 14.2772C1.89879 14.2381 1.86479 14.1955 1.83498 14.1497C1.80517 14.1038 1.78012 14.0554 1.75983 14.0046C1.73955 13.9538 1.72441 13.9015 1.71443 13.8477C1.70444 13.7939 1.69981 13.7396 1.70051 13.6849C1.70121 13.6302 1.70725 13.5761 1.71861 13.5226C1.72998 13.469 1.74645 13.4171 1.76804 13.3668C1.78963 13.3166 1.81591 13.2689 1.8469 13.2238C1.87788 13.1787 1.91296 13.137 1.95215 13.0988C1.99133 13.0606 2.03387 13.0266 2.07975 12.9968C2.12564 12.967 2.17399 12.942 2.2248 12.9217C2.27562 12.9014 2.32793 12.8863 2.38173 12.8763C2.43553 12.8663 2.48978 12.8616 2.5445 12.8624C2.59921 12.8631 2.65333 12.8691 2.70685 12.8805C2.76038 12.8918 2.81228 12.9083 2.86256 12.9299Z" fill="#959595"/>
<path d="M14.7332 3.19385C13.994 4.78152 13.6244 5.84277 13.6244 6.37762C13.6244 6.56663 13.6421 6.69593 13.6774 6.76553C13.7031 6.81631 13.7961 6.92521 13.9564 7.09222C14.1924 7.33832 14.3871 7.55833 14.5403 7.75224C14.8424 8.13519 14.9576 8.61135 14.8858 9.18069C14.8537 9.43532 14.7608 9.7877 14.6071 10.2378C14.5154 10.5063 14.4697 10.6548 14.4698 10.6835C14.4692 10.5427 14.4082 10.4146 14.2868 10.2991C14.1814 10.1989 14.0784 10.1488 13.9777 10.1488C13.9812 10.1488 14.1486 10.0393 14.4799 9.82028C15.2886 9.28565 15.9609 8.996 16.4969 8.95132C17.5118 8.86672 18.3794 9.38769 19.0998 10.5142C19.1293 10.5603 19.154 10.6089 19.1739 10.6598C19.1938 10.7108 19.2086 10.7632 19.2182 10.8171C19.2278 10.8709 19.232 10.9252 19.2309 10.9799C19.2298 11.0346 19.2234 11.0887 19.2116 11.1422C19.1999 11.1956 19.183 11.2474 19.1611 11.2975C19.1391 11.3476 19.1125 11.3951 19.0812 11.44C19.0499 11.4849 19.0145 11.5263 18.975 11.5642C18.9356 11.6021 18.8928 11.6358 18.8467 11.6652C18.8006 11.6947 18.7521 11.7194 18.7011 11.7393C18.6501 11.7593 18.5977 11.774 18.5439 11.7836C18.49 11.7932 18.4357 11.7974 18.381 11.7963C18.3263 11.7952 18.2722 11.7888 18.2188 11.7771C18.1653 11.7653 18.1135 11.7485 18.0634 11.7265C18.0133 11.7046 17.9658 11.6779 17.9209 11.6466C17.8761 11.6153 17.8347 11.5799 17.7968 11.5405C17.7589 11.501 17.7252 11.4582 17.6957 11.4121C17.3362 10.8499 16.9827 10.5833 16.6354 10.6122C16.3827 10.6333 15.9706 10.8327 15.3991 11.2106C14.7891 11.6139 14.3153 11.8155 13.9777 11.8155C13.6345 11.8155 13.3548 11.7127 13.1384 11.507C12.9162 11.2957 12.8044 11.0233 12.8031 10.6899C12.8023 10.4746 12.8779 10.1444 13.0298 9.69934C13.2158 9.15455 13.2834 8.8499 13.2325 8.78541C13.1124 8.63339 12.9528 8.45359 12.7536 8.24602C12.4791 7.9598 12.2915 7.71764 12.191 7.51953C12.0355 7.21298 11.9578 6.83234 11.9578 6.37762C11.9578 5.59679 12.3793 4.30105 13.2223 2.4904C13.2454 2.44079 13.2731 2.39392 13.3054 2.34977C13.3377 2.30563 13.374 2.26506 13.4144 2.22807C13.4547 2.19108 13.4982 2.15837 13.545 2.12996C13.5918 2.10155 13.6408 2.07797 13.6922 2.05922C13.7436 2.04048 13.7964 2.02693 13.8505 2.01857C13.9045 2.01021 13.9589 2.00721 14.0136 2.00956C14.0682 2.01192 14.1222 2.01958 14.1753 2.03256C14.2285 2.04553 14.2799 2.06356 14.3295 2.08666C14.3791 2.10975 14.4259 2.13747 14.4701 2.16979C14.5142 2.20212 14.5548 2.23845 14.5918 2.27877C14.6288 2.31909 14.6615 2.36263 14.6899 2.40939C14.7183 2.45615 14.7419 2.50523 14.7606 2.55664C14.7794 2.60805 14.7929 2.66079 14.8013 2.71486C14.8096 2.76894 14.8126 2.82331 14.8103 2.87798C14.8079 2.93264 14.8003 2.98656 14.7873 3.03971C14.7743 3.09287 14.7563 3.14425 14.7332 3.19385Z" fill="#959595"/>
</g>
<defs>
<clipPath id="clip0_6_163">
<rect width="20" height="20" fill="white"/>
</clipPath>
</defs>
</svg>
