<svg width="88" height="88" viewBox="0 0 88 88" fill="none" xmlns="http://www.w3.org/2000/svg">
<g clip-path="url(#clip0_784_4603)">
<path d="M68.9333 0H19.0667C8.53644 0 0 8.53644 0 19.0667V68.9333C0 79.4636 8.53644 88 19.0667 88H68.9333C79.4636 88 88 79.4636 88 68.9333V19.0667C88 8.53644 79.4636 0 68.9333 0Z" fill="#8BCF70"/>
<path d="M65.6327 25.4468C62.3534 22.2085 58.3024 19.8599 53.8627 18.6232C51.6476 18.044 49.3689 17.7435 47.0794 17.7285H14.6367V30.9285L23.8034 40.0952L23.9097 40.2015V27.0015H47.0904C49.4255 26.9979 51.7358 27.4811 53.8737 28.4205C55.8182 29.2821 57.5861 30.4967 59.0877 32.0028C61.456 34.38 63.0677 37.4048 63.7199 40.6963C64.3721 43.9878 64.0355 47.3987 62.7527 50.4992C61.4698 53.5998 59.2979 56.2513 56.5108 58.1198C53.7236 59.9882 50.4459 60.99 47.0904 60.9988H37.0327L27.7524 70.2718H47.0904C52.2857 70.2761 57.3653 68.738 61.6856 65.8524C66.0059 62.9668 69.3722 58.8636 71.3581 54.0628C73.344 49.2621 73.86 43.9798 72.8408 38.8854C71.8215 33.7911 69.3129 29.114 65.6327 25.4468Z" fill="white"/>
<path d="M53.9801 30.9321V44.0478L37.0254 60.9988L27.7524 70.2718L14.6367 57.1561V44.0515L14.6404 44.0478L23.9097 53.3135L27.7524 57.1561L53.9801 30.9321Z" fill="#FFDD33"/>
</g>
<defs>
<clipPath id="clip0_784_4603">
<rect width="88" height="88" fill="white"/>
</clipPath>
</defs>
</svg>
