<svg width="49" height="48" viewBox="0 0 49 48" fill="none" xmlns="http://www.w3.org/2000/svg">
<g clip-path="url(#clip0_108_3487)">
<path opacity="0.4" d="M43.6596 16.74V31.64C43.6612 31.8003 43.63 31.9592 43.5681 32.1071C43.5063 32.2549 43.4149 32.3886 43.2996 32.5L32.2796 43.6C32.1595 43.7286 32.0139 43.8306 31.852 43.8995C31.6901 43.9684 31.5155 44.0027 31.3396 44H15.3396C14.0605 44 12.794 43.7481 11.6123 43.2586C10.4306 42.7691 9.35683 42.0517 8.45239 41.1472C7.54795 40.2428 6.8305 39.169 6.34102 37.9873C5.85154 36.8056 5.59961 35.5391 5.59961 34.26V16.74C5.59959 15.4559 5.85349 14.1844 6.34672 12.9988C6.83995 11.8131 7.56276 10.7367 8.47357 9.83148C9.38438 8.92625 10.4652 8.21006 11.6538 7.72412C12.8425 7.23818 14.1155 6.99209 15.3996 7H33.9196C35.1987 7 36.4652 7.25193 37.6469 7.74141C38.8287 8.2309 39.9024 8.94834 40.8068 9.85278C41.7113 10.7572 42.4287 11.831 42.9182 13.0127C43.4077 14.1944 43.6596 15.4609 43.6596 16.74Z" fill="#8BCF70"/>
<path d="M17.2397 12.58C16.84 12.58 16.4564 12.4226 16.1719 12.1419C15.8874 11.8612 15.725 11.4797 15.7197 11.08V5.5C15.7624 5.12947 15.9399 4.78757 16.2183 4.53939C16.4968 4.29121 16.8567 4.15407 17.2297 4.15407C17.6027 4.15407 17.9627 4.29121 18.2411 4.53939C18.5196 4.78757 18.697 5.12947 18.7397 5.5V11.08C18.7345 11.4762 18.5748 11.8547 18.2947 12.1349C18.0145 12.4151 17.6359 12.5748 17.2397 12.58Z" fill="#8BCF70"/>
<path d="M32.0796 12.58C31.6869 12.5697 31.3134 12.4077 31.0375 12.1281C30.7616 11.8484 30.6046 11.4728 30.5996 11.08V5.5C30.6423 5.12947 30.8198 4.78757 31.0982 4.53939C31.3767 4.29121 31.7366 4.15407 32.1096 4.15407C32.4826 4.15407 32.8426 4.29121 33.121 4.53939C33.3994 4.78757 33.5769 5.12947 33.6196 5.5V11.08C33.617 11.2796 33.5751 11.4768 33.4963 11.6602C33.4175 11.8436 33.3033 12.0097 33.1603 12.149C33.0173 12.2883 32.8483 12.398 32.6628 12.472C32.4774 12.5459 32.2792 12.5826 32.0796 12.58Z" fill="#8BCF70"/>
<path d="M30.2196 25.42H15.3796C15.1667 25.4445 14.9511 25.4238 14.7468 25.3591C14.5424 25.2944 14.3541 25.1873 14.1942 25.0447C14.0342 24.9021 13.9062 24.7273 13.8185 24.5317C13.7309 24.3362 13.6855 24.1243 13.6855 23.91C13.6855 23.6957 13.7309 23.4838 13.8185 23.2883C13.9062 23.0927 14.0342 22.9179 14.1942 22.7753C14.3541 22.6327 14.5424 22.5256 14.7468 22.4609C14.9511 22.3962 15.1667 22.3755 15.3796 22.4H30.2196C30.5901 22.4427 30.932 22.6202 31.1802 22.8986C31.4284 23.177 31.5655 23.537 31.5655 23.91C31.5655 24.283 31.4284 24.643 31.1802 24.9214C30.932 25.1998 30.5901 25.3773 30.2196 25.42Z" fill="#8BCF70"/>
<path d="M24.5996 32.84H15.3796C15.1667 32.8645 14.9511 32.8438 14.7468 32.7791C14.5424 32.7144 14.3541 32.6073 14.1942 32.4647C14.0342 32.3221 13.9062 32.1473 13.8185 31.9517C13.7309 31.7562 13.6855 31.5443 13.6855 31.33C13.6855 31.1157 13.7309 30.9038 13.8185 30.7083C13.9062 30.5127 14.0342 30.3379 14.1942 30.1953C14.3541 30.0527 14.5424 29.9456 14.7468 29.8809C14.9511 29.8162 15.1667 29.7955 15.3796 29.82H24.5996C24.9701 29.8627 25.312 30.0402 25.5602 30.3186C25.8084 30.597 25.9455 30.957 25.9455 31.33C25.9455 31.703 25.8084 32.063 25.5602 32.3414C25.312 32.6198 24.9701 32.7973 24.5996 32.84Z" fill="#8BCF70"/>
<path d="M43.66 31.64C43.6616 31.8003 43.6305 31.9592 43.5686 32.1071C43.5067 32.2549 43.4153 32.3886 43.3 32.5L32.28 43.6C32.16 43.7286 32.0143 43.8306 31.8524 43.8995C31.6905 43.9684 31.516 44.0027 31.34 44C30.9987 44 30.671 43.8658 30.4278 43.6263C30.1846 43.3868 30.0453 43.0613 30.04 42.72V35.72C30.0716 34.2824 30.6689 32.9152 31.7024 31.9154C32.7359 30.9156 34.1222 30.3639 35.56 30.38H42.36C42.5281 30.3774 42.6951 30.4078 42.8514 30.4697C43.0077 30.5316 43.1503 30.6237 43.271 30.7407C43.3918 30.8577 43.4882 30.9974 43.555 31.1517C43.6217 31.306 43.6574 31.4719 43.66 31.64Z" fill="#8BCF70"/>
</g>
<defs>
<clipPath id="clip0_108_3487">
<rect width="48" height="48" fill="white" transform="translate(0.599609)"/>
</clipPath>
</defs>
</svg>
