<svg width="48" height="48" viewBox="0 0 48 48" fill="none" xmlns="http://www.w3.org/2000/svg">
<g clip-path="url(#clip0_52_278)">
<path opacity="0.4" d="M31.06 26.3H26.72C25.0067 26.3 23.3636 25.6194 22.1521 24.4079C20.9406 23.1964 20.26 21.5533 20.26 19.84V15.5C20.26 15.1022 20.102 14.7206 19.8207 14.4393C19.5394 14.158 19.1579 14 18.76 14H12.4C11.2853 13.943 10.171 14.1199 9.1287 14.5193C8.08642 14.9187 7.13926 15.5318 6.34812 16.3192C5.55697 17.1066 4.93935 18.0508 4.53496 19.0912C4.13056 20.1315 3.94835 21.245 4.00004 22.36V35.64C3.94835 36.755 4.13056 37.8685 4.53496 38.9088C4.93935 39.9492 5.55697 40.8934 6.34812 41.6808C7.13926 42.4682 8.08642 43.0813 9.1287 43.4807C10.171 43.8801 11.2853 44.057 12.4 44H24.2C25.3115 44.0513 26.4214 43.8701 27.4589 43.4681C28.4964 43.0661 29.4386 42.4521 30.2254 41.6653C31.0121 40.8786 31.6261 39.9364 32.0281 38.8989C32.4301 37.8614 32.6113 36.7515 32.56 35.64V27.8C32.56 27.4022 32.402 27.0206 32.1207 26.7393C31.8394 26.458 31.4579 26.3 31.06 26.3Z" fill="#8BCF70"/>
<path d="M35.7 4H24C22.9104 3.92499 21.8172 4.07727 20.7897 4.44717C19.7622 4.81707 18.8227 5.39651 18.031 6.14874C17.2393 6.90096 16.6126 7.80954 16.1907 8.81681C15.7687 9.82409 15.5607 10.9081 15.58 12H27.7C28.8065 11.9573 29.9098 12.1448 30.9402 12.5506C31.9705 12.9565 32.9053 13.5718 33.6855 14.3576C34.4657 15.1434 35.0743 16.0827 35.4727 17.1159C35.8711 18.1491 36.0506 19.2538 36 20.36V33.64C36 33.76 36 33.86 36 33.98C37.0798 33.981 38.1486 33.7633 39.142 33.3402C40.1355 32.9171 41.033 32.2972 41.7805 31.518C42.528 30.7387 43.11 29.8162 43.4914 28.806C43.8729 27.7958 44.0458 26.7188 44 25.64V12.36C44.0506 11.2538 43.8711 10.1491 43.4727 9.11591C43.0743 8.0827 42.4657 7.14345 41.6855 6.35761C40.9053 5.57177 39.9705 4.95647 38.9402 4.55064C37.9098 4.14482 36.8065 3.95732 35.7 4Z" fill="#8BCF70"/>
<path d="M23.9999 14.3C23.8641 14.1613 23.69 14.0661 23.4999 14.0265C23.3098 13.9868 23.1122 14.0046 22.9322 14.0774C22.7522 14.1503 22.5979 14.275 22.4889 14.4357C22.3799 14.5964 22.3211 14.7858 22.3199 14.98V20.2C22.3196 20.7373 22.4275 21.2691 22.6372 21.7638C22.847 22.2584 23.1542 22.7058 23.5406 23.0791C23.927 23.4524 24.3846 23.7441 24.8862 23.9367C25.3878 24.1292 25.923 24.2188 26.4599 24.2H31.5399C31.7279 24.2062 31.9134 24.156 32.0725 24.0556C32.2316 23.9553 32.3569 23.8096 32.4323 23.6373C32.5077 23.465 32.5297 23.274 32.4954 23.0891C32.4611 22.9042 32.3721 22.7338 32.2399 22.6L23.9999 14.3Z" fill="#8BCF70"/>
</g>
<defs>
<clipPath id="clip0_52_278">
<rect width="48" height="48" fill="white"/>
</clipPath>
</defs>
</svg>
