<svg width="25" height="25" viewBox="0 0 25 25" fill="none" xmlns="http://www.w3.org/2000/svg">
<g clip-path="url(#clip0_475_3733)">
<path d="M20.9625 9.06571C20.5216 7.12465 19.4218 5.39632 17.8502 4.17477C16.2786 2.95323 14.3323 2.31395 12.3425 2.36571C10.3545 2.31537 8.41027 2.95394 6.83926 4.1732C5.26826 5.39246 4.16714 7.11741 3.72252 9.05571C2.54252 14.2157 5.70252 18.6157 8.56252 21.3357C9.5744 22.3204 10.9306 22.8714 12.3425 22.8714C13.7544 22.8714 15.1106 22.3204 16.1225 21.3357C18.9725 18.6157 22.1325 14.2257 20.9625 9.06571ZM12.3425 14.0657C11.7195 14.0657 11.1105 13.881 10.5925 13.5348C10.0745 13.1887 9.67072 12.6967 9.4323 12.1212C9.19389 11.5456 9.13151 10.9122 9.25305 10.3012C9.37459 9.69013 9.6746 9.12885 10.1151 8.68832C10.5557 8.24778 11.1169 7.94778 11.728 7.82623C12.339 7.70469 12.9724 7.76707 13.548 8.00549C14.1236 8.2439 14.6155 8.64764 14.9617 9.16566C15.3078 9.68367 15.4925 10.2927 15.4925 10.9157C15.4925 11.7521 15.161 12.5543 14.5705 13.1466C13.9801 13.739 13.1789 14.0731 12.3425 14.0757V14.0657Z" fill="#58A738"/>
</g>
<defs>
<clipPath id="clip0_475_3733">
<rect width="24" height="24" fill="white" transform="translate(0.34375 0.615723)"/>
</clipPath>
</defs>
</svg>
