<svg width="48" height="48" viewBox="0 0 48 48" fill="none" xmlns="http://www.w3.org/2000/svg">
<g clip-path="url(#clip0_101_1190)">
<path opacity="0.4" d="M31.06 26.3H26.72C25.0067 26.3 23.3636 25.6194 22.1521 24.4079C20.9406 23.1964 20.26 21.5533 20.26 19.84V15.5C20.26 15.1022 20.102 14.7206 19.8207 14.4393C19.5394 14.158 19.1579 14 18.76 14H12.4C11.2853 13.943 10.171 14.1199 9.1287 14.5193C8.08642 14.9187 7.13926 15.5318 6.34812 16.3192C5.55697 17.1066 4.93935 18.0508 4.53496 19.0912C4.13056 20.1315 3.94835 21.245 4.00004 22.36V35.64C3.94835 36.755 4.13056 37.8685 4.53496 38.9088C4.93935 39.9492 5.55697 40.8934 6.34812 41.6808C7.13926 42.4682 8.08642 43.0813 9.1287 43.4807C10.171 43.8801 11.2853 44.057 12.4 44H24.2C25.3115 44.0513 26.4214 43.8701 27.4589 43.4681C28.4964 43.0661 29.4386 42.4521 30.2254 41.6653C31.0121 40.8786 31.6261 39.9364 32.0281 38.8989C32.4301 37.8614 32.6113 36.7515 32.56 35.64V27.8C32.56 27.4022 32.402 27.0206 32.1207 26.7393C31.8394 26.458 31.4579 26.3 31.06 26.3Z" fill="#959595"/>
<path d="M35.7001 4H24.0001C22.9106 3.92499 21.8174 4.07727 20.7898 4.44717C19.7623 4.81707 18.8229 5.39651 18.0312 6.14874C17.2394 6.90096 16.6127 7.80954 16.1908 8.81681C15.7688 9.82409 15.5609 10.9081 15.5801 12H27.7001C28.8066 11.9573 29.91 12.1448 30.9403 12.5506C31.9706 12.9565 32.9054 13.5718 33.6856 14.3576C34.4658 15.1434 35.0744 16.0827 35.4728 17.1159C35.8712 18.1491 36.0507 19.2538 36.0001 20.36V33.64C36.0001 33.76 36.0001 33.86 36.0001 33.98C37.0799 33.981 38.1487 33.7633 39.1422 33.3402C40.1356 32.9171 41.0331 32.2972 41.7806 31.518C42.5281 30.7387 43.1101 29.8162 43.4915 28.806C43.873 27.7958 44.046 26.7188 44.0001 25.64V12.36C44.0507 11.2538 43.8712 10.1491 43.4728 9.11591C43.0744 8.0827 42.4658 7.14345 41.6856 6.35761C40.9054 5.57177 39.9706 4.95647 38.9403 4.55064C37.91 4.14482 36.8066 3.95732 35.7001 4Z" fill="#959595"/>
<path d="M24.0001 14.3C23.8642 14.1613 23.6901 14.0661 23.5 14.0265C23.3099 13.9868 23.1124 14.0046 22.9324 14.0774C22.7524 14.1503 22.5981 14.275 22.4891 14.4357C22.38 14.5964 22.3212 14.7858 22.3201 14.98V20.2C22.3197 20.7373 22.4277 21.2691 22.6374 21.7638C22.8471 22.2584 23.1543 22.7058 23.5407 23.0791C23.9271 23.4524 24.3847 23.7441 24.8863 23.9367C25.3879 24.1292 25.9231 24.2188 26.4601 24.2H31.5401C31.728 24.2062 31.9136 24.156 32.0726 24.0556C32.2317 23.9553 32.3571 23.8096 32.4324 23.6373C32.5078 23.465 32.5298 23.274 32.4955 23.0891C32.4612 22.9042 32.3722 22.7338 32.2401 22.6L24.0001 14.3Z" fill="#959595"/>
</g>
<defs>
<clipPath id="clip0_101_1190">
<rect width="48" height="48" fill="white"/>
</clipPath>
</defs>
</svg>
