<svg width="49" height="48" viewBox="0 0 49 48" fill="none" xmlns="http://www.w3.org/2000/svg">
<g clip-path="url(#clip0_54_66)">
<path opacity="0.4" d="M44.2 12.82V25.84H4.19995V12.82C4.19992 11.6567 4.43003 10.5048 4.87703 9.43081C5.32402 8.35679 5.97907 7.38181 6.80445 6.56201C7.62982 5.74221 8.60923 5.09378 9.68625 4.65408C10.7633 4.21438 11.9167 3.99208 13.08 4H35.38C37.7175 4.00528 39.9579 4.93622 41.6108 6.58915C43.2637 8.24208 44.1947 10.4824 44.2 12.82Z" fill="#959595"/>
<path d="M4.19997 25.84V26.24C4.19734 27.399 4.42367 28.5471 4.86599 29.6184C5.3083 30.6897 5.95787 31.663 6.77741 32.4826C7.59695 33.3021 8.57031 33.9517 9.64159 34.394C10.7129 34.8363 11.861 35.0626 13.02 35.06H20.7C21.2304 35.06 21.7391 35.2707 22.1142 35.6458C22.4893 36.0209 22.7 36.5296 22.7 37.06V39.06C22.7 39.5904 22.4893 40.0991 22.1142 40.4742C21.7391 40.8493 21.2304 41.06 20.7 41.06H15.9C15.5021 41.06 15.1206 41.218 14.8393 41.4993C14.558 41.7806 14.4 42.1622 14.4 42.56C14.4 42.9578 14.558 43.3393 14.8393 43.6207C15.1206 43.902 15.5021 44.06 15.9 44.06H32.6C32.9978 44.06 33.3793 43.902 33.6606 43.6207C33.9419 43.3393 34.1 42.9578 34.1 42.56C34.1 42.1622 33.9419 41.7806 33.6606 41.4993C33.3793 41.218 32.9978 41.06 32.6 41.06H27.76C27.2295 41.06 26.7208 40.8493 26.3458 40.4742C25.9707 40.0991 25.76 39.5904 25.76 39.06V37.06C25.76 36.5296 25.9707 36.0209 26.3458 35.6458C26.7208 35.2707 27.2295 35.06 27.76 35.06H35.38C36.5382 35.06 37.6852 34.8319 38.7552 34.3886C39.8253 33.9454 40.7976 33.2957 41.6167 32.4767C42.4357 31.6577 43.0853 30.6854 43.5286 29.6153C43.9718 28.5452 44.2 27.3983 44.2 26.24V25.84H4.19997Z" fill="#959595"/>
<path d="M14.8801 23.4C14.5553 23.4015 14.239 23.296 13.9801 23.1C13.6636 22.8547 13.4566 22.4945 13.4042 22.0976C13.3518 21.7006 13.4581 21.299 13.7001 20.98L18.4601 14.82C18.7381 14.4489 19.0891 14.1385 19.4915 13.9081C19.8939 13.6777 20.3392 13.532 20.8001 13.48C21.2595 13.4231 21.7256 13.4575 22.1718 13.581C22.6179 13.7046 23.0353 13.9149 23.4001 14.2L27.0401 17.06C27.0913 17.105 27.1523 17.1374 27.2183 17.1548C27.2842 17.1721 27.3533 17.1739 27.42 17.16C27.4861 17.1551 27.5504 17.1365 27.6089 17.1056C27.6674 17.0746 27.7189 17.0318 27.76 16.98L32.3801 10.98C32.6277 10.6723 32.9854 10.4731 33.3774 10.4246C33.7694 10.376 34.1648 10.482 34.48 10.72C34.7682 10.9587 34.9552 11.2978 35.0035 11.6689C35.0517 12.0399 34.9576 12.4155 34.7401 12.72L30.2001 18.82C29.9162 19.1833 29.5633 19.4869 29.1617 19.7135C28.7602 19.94 28.3178 20.0849 27.8601 20.14C27.4037 20.1986 26.9402 20.1651 26.4971 20.0414C26.0539 19.9178 25.6401 19.7064 25.2801 19.42L21.5401 16.56C21.4807 16.5316 21.4158 16.5169 21.35 16.5169C21.2843 16.5169 21.2194 16.5316 21.16 16.56C21.0966 16.5638 21.0348 16.582 20.9793 16.6132C20.9239 16.6444 20.8763 16.6877 20.84 16.74L16.0801 22.82C15.9372 23.0015 15.7549 23.148 15.547 23.2485C15.3391 23.349 15.111 23.4008 14.8801 23.4Z" fill="#959595"/>
</g>
<defs>
<clipPath id="clip0_54_66">
<rect width="48" height="48" fill="white" transform="translate(0.199951)"/>
</clipPath>
</defs>
</svg>
