<svg width="49" height="48" viewBox="0 0 49 48" fill="none" xmlns="http://www.w3.org/2000/svg">
<g clip-path="url(#clip0_54_71)">
<path opacity="0.4" d="M43.6601 16.74V31.64C43.6617 31.8003 43.6305 31.9592 43.5686 32.1071C43.5067 32.2549 43.4154 32.3886 43.3001 32.5L32.2801 43.6C32.16 43.7286 32.0144 43.8306 31.8525 43.8995C31.6906 43.9684 31.516 44.0027 31.3401 44H15.3401C14.061 44 12.7945 43.7481 11.6128 43.2586C10.4311 42.7691 9.35732 42.0517 8.45288 41.1472C7.54843 40.2428 6.83099 39.169 6.34151 37.9873C5.85203 36.8056 5.6001 35.5391 5.6001 34.26V16.74C5.60007 15.4559 5.85398 14.1844 6.34721 12.9988C6.84044 11.8131 7.56325 10.7367 8.47406 9.83148C9.38487 8.92625 10.4657 8.21006 11.6543 7.72412C12.843 7.23818 14.116 6.99209 15.4001 7H33.9201C35.1992 7 36.4657 7.25193 37.6474 7.74141C38.8291 8.2309 39.9029 8.94834 40.8073 9.85278C41.7118 10.7572 42.4292 11.831 42.9187 13.0127C43.4082 14.1944 43.6601 15.4609 43.6601 16.74Z" fill="#959595"/>
<path d="M17.2402 12.58C16.8405 12.58 16.4569 12.4226 16.1724 12.1419C15.8879 11.8612 15.7255 11.4797 15.7202 11.08V5.5C15.7629 5.12947 15.9404 4.78757 16.2188 4.53939C16.4973 4.29121 16.8572 4.15407 17.2302 4.15407C17.6032 4.15407 17.9632 4.29121 18.2416 4.53939C18.52 4.78757 18.6975 5.12947 18.7402 5.5V11.08C18.735 11.4762 18.5753 11.8547 18.2951 12.1349C18.015 12.4151 17.6364 12.5748 17.2402 12.58Z" fill="#959595"/>
<path d="M32.0801 12.58C31.6874 12.5697 31.3139 12.4077 31.038 12.1281C30.7621 11.8484 30.6051 11.4728 30.6001 11.08V5.5C30.6428 5.12947 30.8203 4.78757 31.0987 4.53939C31.3771 4.29121 31.7371 4.15407 32.1101 4.15407C32.4831 4.15407 32.8431 4.29121 33.1215 4.53939C33.3999 4.78757 33.5774 5.12947 33.6201 5.5V11.08C33.6175 11.2796 33.5756 11.4768 33.4968 11.6602C33.418 11.8436 33.3038 12.0097 33.1608 12.149C33.0178 12.2883 32.8487 12.398 32.6633 12.472C32.4779 12.5459 32.2797 12.5826 32.0801 12.58Z" fill="#959595"/>
<path d="M30.2201 25.42H15.3801C15.1672 25.4445 14.9515 25.4238 14.7472 25.3591C14.5429 25.2944 14.3546 25.1873 14.1946 25.0447C14.0347 24.9021 13.9067 24.7273 13.819 24.5317C13.7313 24.3362 13.686 24.1243 13.686 23.91C13.686 23.6957 13.7313 23.4838 13.819 23.2883C13.9067 23.0927 14.0347 22.9179 14.1946 22.7753C14.3546 22.6327 14.5429 22.5256 14.7472 22.4609C14.9515 22.3962 15.1672 22.3755 15.3801 22.4H30.2201C30.5906 22.4427 30.9325 22.6202 31.1807 22.8986C31.4289 23.177 31.566 23.537 31.566 23.91C31.566 24.283 31.4289 24.643 31.1807 24.9214C30.9325 25.1998 30.5906 25.3773 30.2201 25.42Z" fill="#959595"/>
<path d="M24.6001 32.84H15.3801C15.1672 32.8645 14.9515 32.8438 14.7472 32.7791C14.5429 32.7144 14.3546 32.6073 14.1946 32.4647C14.0347 32.3221 13.9067 32.1473 13.819 31.9517C13.7313 31.7562 13.686 31.5443 13.686 31.33C13.686 31.1157 13.7313 30.9038 13.819 30.7083C13.9067 30.5127 14.0347 30.3379 14.1946 30.1953C14.3546 30.0527 14.5429 29.9456 14.7472 29.8809C14.9515 29.8162 15.1672 29.7955 15.3801 29.82H24.6001C24.9706 29.8627 25.3125 30.0402 25.5607 30.3186C25.8089 30.597 25.946 30.957 25.946 31.33C25.946 31.703 25.8089 32.063 25.5607 32.3414C25.3125 32.6198 24.9706 32.7973 24.6001 32.84Z" fill="#959595"/>
<path d="M43.66 31.64C43.6616 31.8003 43.6305 31.9592 43.5686 32.1071C43.5067 32.2549 43.4153 32.3886 43.3 32.5L32.28 43.6C32.16 43.7286 32.0143 43.8306 31.8524 43.8995C31.6905 43.9684 31.516 44.0027 31.34 44C30.9987 44 30.671 43.8658 30.4278 43.6263C30.1846 43.3868 30.0453 43.0613 30.04 42.72V35.72C30.0716 34.2824 30.6689 32.9152 31.7024 31.9154C32.7359 30.9156 34.1222 30.3639 35.56 30.38H42.36C42.5281 30.3774 42.6951 30.4078 42.8514 30.4697C43.0077 30.5316 43.1503 30.6237 43.271 30.7407C43.3918 30.8577 43.4882 30.9974 43.555 31.1517C43.6217 31.306 43.6574 31.4719 43.66 31.64Z" fill="#959595"/>
</g>
<defs>
<clipPath id="clip0_54_71">
<rect width="48" height="48" fill="white" transform="translate(0.600098)"/>
</clipPath>
</defs>
</svg>
