<svg width="49" height="48" viewBox="0 0 49 48" fill="none" xmlns="http://www.w3.org/2000/svg">
<g clip-path="url(#clip0_54_45)">
<path d="M40.4601 13.5C43.4976 13.5 45.9601 11.0376 45.9601 8C45.9601 4.96243 43.4976 2.5 40.4601 2.5C37.4225 2.5 34.9601 4.96243 34.9601 8C34.9601 11.0376 37.4225 13.5 40.4601 13.5Z" fill="#959595"/>
<path opacity="0.4" d="M40.4 16C38.9981 15.9951 37.6221 15.6218 36.4099 14.9177C35.1977 14.2135 34.1918 13.2031 33.493 11.9878C32.7941 10.7725 32.427 9.39487 32.4282 7.99296C32.4294 6.59105 32.7991 5.21408 33.5 4H14.4C11.7479 4 9.20432 5.05357 7.32896 6.92893C5.45359 8.8043 4.40002 11.3478 4.40002 14V28C4.40002 30.6522 5.45359 33.1957 7.32896 35.0711C9.20432 36.9464 11.7479 38 14.4 38H17.4C17.7066 38.0197 18.0062 38.1007 18.281 38.2381C18.5558 38.3755 18.8003 38.5665 19 38.8L22 42.8C22.2561 43.2048 22.6105 43.5383 23.0301 43.7693C23.4497 44.0004 23.921 44.1216 24.4 44.1216C24.8791 44.1216 25.3503 44.0004 25.7699 43.7693C26.1896 43.5383 26.5439 43.2048 26.8 42.8L29.8 38.8C29.9863 38.5516 30.2279 38.35 30.5056 38.2111C30.7833 38.0723 31.0895 38 31.4 38H34.4C37.0522 38 39.5957 36.9464 41.4711 35.0711C43.3465 33.1957 44.4 30.6522 44.4 28V14.88C43.192 15.6071 41.8099 15.9941 40.4 16Z" fill="#959595"/>
<path d="M24.4 24C24.0045 24 23.6178 23.8827 23.2889 23.6629C22.96 23.4432 22.7036 23.1308 22.5523 22.7654C22.4009 22.3999 22.3613 21.9978 22.4385 21.6098C22.5156 21.2219 22.7061 20.8655 22.9858 20.5858C23.2655 20.3061 23.6219 20.1156 24.0098 20.0384C24.3978 19.9613 24.7999 20.0009 25.1654 20.1522C25.5308 20.3036 25.8432 20.56 26.063 20.8889C26.2827 21.2178 26.4 21.6044 26.4 22C26.4 22.5304 26.1893 23.0391 25.8142 23.4142C25.4392 23.7893 24.9305 24 24.4 24Z" fill="#959595"/>
<path d="M32.4 24C32.0045 24 31.6178 23.8827 31.2889 23.6629C30.96 23.4432 30.7036 23.1308 30.5523 22.7654C30.4009 22.3999 30.3613 21.9978 30.4385 21.6098C30.5156 21.2219 30.7061 20.8655 30.9858 20.5858C31.2655 20.3061 31.6219 20.1156 32.0098 20.0384C32.3978 19.9613 32.7999 20.0009 33.1654 20.1522C33.5308 20.3036 33.8432 20.56 34.063 20.8889C34.2827 21.2178 34.4 21.6044 34.4 22C34.4 22.5304 34.1893 23.0391 33.8142 23.4142C33.4392 23.7893 32.9305 24 32.4 24Z" fill="#959595"/>
<path d="M16.4 24C16.0045 24 15.6178 23.8827 15.2889 23.6629C14.96 23.4432 14.7036 23.1308 14.5523 22.7654C14.4009 22.3999 14.3613 21.9978 14.4385 21.6098C14.5156 21.2219 14.7061 20.8655 14.9858 20.5858C15.2655 20.3061 15.6219 20.1156 16.0098 20.0384C16.3978 19.9613 16.7999 20.0009 17.1654 20.1522C17.5308 20.3036 17.8432 20.56 18.063 20.8889C18.2827 21.2178 18.4 21.6044 18.4 22C18.4 22.5304 18.1893 23.0391 17.8142 23.4142C17.4392 23.7893 16.9305 24 16.4 24Z" fill="#959595"/>
</g>
<defs>
<clipPath id="clip0_54_45">
<rect width="48" height="48" fill="white" transform="translate(0.400024)"/>
</clipPath>
</defs>
</svg>
