<svg width="48" height="48" viewBox="0 0 48 48" fill="none" xmlns="http://www.w3.org/2000/svg">
<g clip-path="url(#clip0_108_4708)">
<path opacity="0.4" d="M39.6404 8.44001C37.2431 6.05726 34.1183 4.54398 30.7625 4.1406C27.4067 3.73722 24.0123 4.46687 21.1186 6.21362C18.225 7.96038 15.9981 10.6241 14.7917 13.7814C13.5853 16.9388 13.4687 20.4088 14.4604 23.64L5.06037 33.04C4.69291 33.4362 4.40953 33.9028 4.22735 34.4115C4.04517 34.9202 3.96795 35.4606 4.00037 36L4.60037 40.36C4.74289 41.1028 5.10497 41.7858 5.63979 42.3206C6.17461 42.8554 6.85757 43.2175 7.60037 43.36L12.0004 44C12.5394 44.0504 13.0829 43.9875 13.5962 43.8153C14.1094 43.6431 14.5809 43.3654 14.9804 43L16.6204 41.36C16.7141 41.267 16.7885 41.1564 16.8393 41.0346C16.89 40.9127 16.9162 40.782 16.9162 40.65C16.9162 40.518 16.89 40.3873 16.8393 40.2654C16.7885 40.1436 16.7141 40.033 16.6204 39.94L12.7804 36C12.6143 35.7079 12.5511 35.3686 12.6009 35.0363C12.6507 34.704 12.8106 34.3981 13.055 34.1675C13.2994 33.937 13.6141 33.7951 13.9487 33.7648C14.2833 33.7344 14.6185 33.8172 14.9004 34L18.9004 37.9C19.0873 38.0832 19.3386 38.1859 19.6004 38.1859C19.8621 38.1859 20.1134 38.0832 20.3004 37.9L24.5404 33.68C27.7714 34.6833 31.2454 34.5755 34.408 33.3738C37.5706 32.1721 40.2396 29.9457 41.989 27.0499C43.7384 24.1541 44.4676 20.7558 44.06 17.3972C43.6524 14.0386 42.1317 10.9133 39.7404 8.52001L39.6404 8.44001ZM29.0604 24C28.069 24.0119 27.0965 23.7288 26.2664 23.1867C25.4363 22.6446 24.7861 21.8679 24.3984 20.9554C24.0108 20.0428 23.9031 19.0357 24.0892 18.0619C24.2753 17.088 24.7467 16.1915 25.4436 15.4862C26.1404 14.781 27.0311 14.2988 28.0026 14.1009C28.9741 13.9031 29.9825 13.9985 30.8997 14.3751C31.8168 14.7518 32.6013 15.3925 33.1534 16.216C33.7055 17.0395 34.0003 18.0086 34.0004 19C34.0005 20.3158 33.4819 21.5785 32.5572 22.5145C31.6324 23.4505 30.376 23.9842 29.0604 24Z" fill="#8BCF70"/>
<path d="M29.0605 24C31.822 24 34.0605 21.7614 34.0605 19C34.0605 16.2386 31.822 14 29.0605 14C26.2991 14 24.0605 16.2386 24.0605 19C24.0605 21.7614 26.2991 24 29.0605 24Z" fill="#8BCF70"/>
</g>
<defs>
<clipPath id="clip0_108_4708">
<rect width="48" height="48" fill="white"/>
</clipPath>
</defs>
</svg>
