<svg width="48" height="48" viewBox="0 0 48 48" fill="none" xmlns="http://www.w3.org/2000/svg">
<g clip-path="url(#clip0_108_4281)">
<path opacity="0.4" d="M18.299 5C15.9756 5.07313 13.7701 6.03997 12.142 7.69904C10.5139 9.35811 9.58871 11.5814 9.55932 13.9058C9.52993 16.2301 10.3986 18.4761 11.9842 20.1758C13.5699 21.8755 15.7503 22.8978 18.071 23.0297H18.679C21.0043 22.8857 23.1838 21.848 24.7614 20.1338C26.3391 18.4196 27.1927 16.1617 27.1436 13.8324C27.0945 11.5032 26.1466 9.28326 24.4981 7.63702C22.8496 5.99079 20.6283 5.04588 18.299 5Z" fill="#8BCF70"/>
<path d="M27.9883 28.0833C25.0823 26.3669 21.7691 25.4615 18.394 25.4615C15.019 25.4615 11.7057 26.3669 8.79972 28.0833C7.70046 28.703 6.7757 29.5905 6.11139 30.6634C5.44707 31.7362 5.06477 32.9596 5 34.2199C5.06404 35.4752 5.44641 36.6937 6.11113 37.7606C6.77585 38.8274 7.70106 39.7077 8.79972 40.3184C11.6448 42.1014 14.9416 43.0311 18.299 42.9972C21.7017 43.0579 25.0485 42.1271 27.9313 40.3184C29.0314 39.7046 29.9574 38.821 30.6221 37.7509C31.2868 36.6807 31.6684 35.4591 31.731 34.2009C31.6725 32.9486 31.2988 31.7313 30.6445 30.6619C29.9903 29.5925 29.0766 28.7056 27.9883 28.0833Z" fill="#8BCF70"/>
<path opacity="0.4" d="M39.1975 15.1452C39.3536 16.9027 38.8206 18.6521 37.711 20.024C36.6015 21.3958 35.0023 22.2828 33.251 22.4977H33.156C33.0491 22.48 32.9399 22.48 32.833 22.4977C31.0901 22.5905 29.3756 22.028 28.0264 20.9208C29.5957 19.5084 30.5993 17.5745 30.8509 15.4781C31.1025 13.3818 30.5849 11.2653 29.3943 9.52166C30.3954 9.02592 31.5033 8.78442 32.62 8.81851C33.7366 8.8526 34.8277 9.16123 35.7968 9.71712C36.7658 10.273 37.583 11.0591 38.1762 12.0058C38.7693 12.9525 39.1201 14.0308 39.1975 15.1452Z" fill="#8BCF70"/>
<path d="M42.9967 32.719C42.8946 33.6996 42.5398 34.637 41.9671 35.4395C41.3943 36.242 40.6232 36.8823 39.729 37.2976C37.6731 38.3638 35.3744 38.8746 33.0605 38.7795C34.3978 37.6496 35.2371 36.0392 35.3973 34.2958C35.4561 33.0295 35.1923 31.7691 34.6307 30.6326C34.0691 29.4961 33.2281 28.5209 32.1865 27.7983C30.8558 26.7978 29.3744 26.0154 27.7979 25.4805C29.9633 24.8829 32.2356 24.781 34.4459 25.1823C36.6562 25.5836 38.7477 26.4777 40.5649 27.7983C41.3369 28.3617 41.9613 29.1034 42.3847 29.9602C42.8081 30.817 43.0181 31.7635 42.9967 32.719Z" fill="#8BCF70"/>
</g>
<defs>
<clipPath id="clip0_108_4281">
<rect width="48" height="48" fill="white"/>
</clipPath>
</defs>
</svg>
