<svg width="49" height="48" viewBox="0 0 49 48" fill="none" xmlns="http://www.w3.org/2000/svg">
<g clip-path="url(#clip0_107_2768)">
<path opacity="0.4" d="M44.2002 12.82V25.84H4.2002V12.82C4.20017 11.6567 4.43028 10.5048 4.87727 9.43081C5.32426 8.35679 5.97931 7.38181 6.80469 6.56201C7.63007 5.74221 8.60947 5.09378 9.6865 4.65408C10.7635 4.21438 11.9169 3.99208 13.0802 4H35.3802C37.7178 4.00528 39.9581 4.93622 41.611 6.58915C43.264 8.24208 44.1949 10.4824 44.2002 12.82Z" fill="#8BCF70"/>
<path d="M4.20022 25.84V26.24C4.19758 27.399 4.42392 28.5471 4.86623 29.6184C5.30854 30.6897 5.95812 31.663 6.77766 32.4826C7.59719 33.3021 8.57055 33.9517 9.64183 34.394C10.7131 34.8363 11.8612 35.0626 13.0202 35.06H20.7002C21.2307 35.06 21.7394 35.2707 22.1144 35.6458C22.4895 36.0209 22.7002 36.5296 22.7002 37.06V39.06C22.7002 39.5904 22.4895 40.0991 22.1144 40.4742C21.7394 40.8493 21.2307 41.06 20.7002 41.06H15.9002C15.5024 41.06 15.1209 41.218 14.8396 41.4993C14.5583 41.7806 14.4002 42.1622 14.4002 42.56C14.4002 42.9578 14.5583 43.3393 14.8396 43.6207C15.1209 43.902 15.5024 44.06 15.9002 44.06H32.6002C32.998 44.06 33.3796 43.902 33.6609 43.6207C33.9422 43.3393 34.1002 42.9578 34.1002 42.56C34.1002 42.1622 33.9422 41.7806 33.6609 41.4993C33.3796 41.218 32.998 41.06 32.6002 41.06H27.7602C27.2298 41.06 26.7211 40.8493 26.346 40.4742C25.9709 40.0991 25.7602 39.5904 25.7602 39.06V37.06C25.7602 36.5296 25.9709 36.0209 26.346 35.6458C26.7211 35.2707 27.2298 35.06 27.7602 35.06H35.3802C36.5385 35.06 37.6854 34.8319 38.7555 34.3886C39.8256 33.9454 40.7979 33.2957 41.6169 32.4767C42.4359 31.6577 43.0856 30.6854 43.5288 29.6153C43.9721 28.5452 44.2002 27.3983 44.2002 26.24V25.84H4.20022Z" fill="#8BCF70"/>
<path d="M14.8805 23.4C14.5557 23.4015 14.2395 23.296 13.9805 23.1C13.6641 22.8547 13.4571 22.4945 13.4047 22.0976C13.3523 21.7006 13.4586 21.299 13.7005 20.98L18.4605 14.82C18.7386 14.4489 19.0896 14.1385 19.492 13.9081C19.8944 13.6777 20.3397 13.532 20.8005 13.48C21.26 13.4231 21.7261 13.4575 22.1723 13.581C22.6184 13.7046 23.0358 13.9149 23.4005 14.2L27.0405 17.06C27.0918 17.105 27.1528 17.1374 27.2188 17.1548C27.2847 17.1721 27.3538 17.1739 27.4205 17.16C27.4866 17.1551 27.5508 17.1365 27.6094 17.1056C27.6679 17.0746 27.7193 17.0318 27.7605 16.98L32.3805 10.98C32.6282 10.6723 32.9859 10.4731 33.3779 10.4246C33.7698 10.376 34.1653 10.482 34.4805 10.72C34.7687 10.9587 34.9557 11.2978 35.0039 11.6689C35.0522 12.0399 34.9581 12.4155 34.7405 12.72L30.2005 18.82C29.9167 19.1833 29.5638 19.4869 29.1622 19.7135C28.7607 19.94 28.3183 20.0849 27.8605 20.14C27.4042 20.1986 26.9407 20.1651 26.4976 20.0414C26.0544 19.9178 25.6406 19.7064 25.2805 19.42L21.5405 16.56C21.4812 16.5316 21.4163 16.5169 21.3505 16.5169C21.2848 16.5169 21.2199 16.5316 21.1605 16.56C21.0971 16.5638 21.0353 16.582 20.9798 16.6132C20.9244 16.6444 20.8768 16.6877 20.8405 16.74L16.0805 22.82C15.9377 23.0015 15.7554 23.148 15.5475 23.2485C15.3396 23.349 15.1115 23.4008 14.8805 23.4Z" fill="#8BCF70"/>
</g>
<defs>
<clipPath id="clip0_107_2768">
<rect width="48" height="48" fill="white" transform="translate(0.200195)"/>
</clipPath>
</defs>
</svg>
