<svg width="48" height="48" viewBox="0 0 48 48" fill="none" xmlns="http://www.w3.org/2000/svg">
<g clip-path="url(#clip0_54_125)">
<path d="M37.9271 11.9339L26.014 5.51188C25.3959 5.17597 24.7036 5 24 5C23.2965 5 22.6042 5.17597 21.986 5.51188L10.073 11.9339C9.62753 12.1786 9.25962 12.5433 9.01108 12.9867C8.76254 13.43 8.64333 13.9342 8.66701 14.4419C8.65894 14.9341 8.78568 15.4191 9.03351 15.8445C9.28134 16.2698 9.64082 16.6192 10.073 16.8549L21.986 23.2959C22.6077 23.6206 23.2987 23.7901 24 23.7901C24.7014 23.7901 25.3924 23.6206 26.014 23.2959L37.9271 16.8549C38.3593 16.6192 38.7187 16.2698 38.9666 15.8445C39.2144 15.4191 39.3411 14.9341 39.3331 14.4419C39.3568 13.9342 39.2375 13.43 38.989 12.9867C38.7405 12.5433 38.3725 12.1786 37.9271 11.9339Z" fill="#959595"/>
<path opacity="0.4" d="M20.0291 25.4429L8.93305 19.8949C8.51864 19.6875 8.05807 19.5895 7.59512 19.6103C7.13218 19.6311 6.68224 19.77 6.2881 20.0137C5.89395 20.2574 5.56869 20.5979 5.34324 21.0028C5.1178 21.4077 4.99965 21.8635 5.00005 22.3269V32.7959C4.99611 33.6794 5.23964 34.5463 5.70304 35.2985C6.16644 36.0507 6.83121 36.6581 7.62205 37.0519L18.7181 42.5999C19.1325 42.8073 19.5931 42.9053 20.056 42.8845C20.5189 42.8637 20.9689 42.7248 21.363 42.4811C21.7572 42.2374 22.0824 41.8969 22.3079 41.492C22.5333 41.0871 22.6515 40.6313 22.6511 40.1679V29.6419C22.6466 28.7676 22.399 27.9119 21.9359 27.1703C21.4729 26.4288 20.8126 25.8307 20.0291 25.4429Z" fill="#959595"/>
<path opacity="0.4" d="M41.7079 20.0089C41.3138 19.7666 40.8644 19.629 40.4022 19.6091C39.94 19.5891 39.4804 19.6875 39.0669 19.8949L27.9709 25.4429C27.1873 25.8307 26.5271 26.4288 26.064 27.1704C25.601 27.9119 25.3534 28.7677 25.3489 29.6419V40.1109C25.3481 40.5755 25.4664 41.0326 25.6926 41.4384C25.9188 41.8442 26.2453 42.1853 26.6409 42.4289C27.0356 42.6695 27.4849 42.8061 27.9467 42.8261C28.4085 42.846 28.8679 42.7486 29.2819 42.5429L40.3779 36.9949C41.1601 36.6054 41.8191 36.0069 42.2819 35.2657C42.7448 34.5246 42.9933 33.6697 42.9999 32.7959V22.3269C43.0007 21.8623 42.8824 21.4053 42.6562 20.9994C42.43 20.5936 42.1035 20.2526 41.7079 20.0089Z" fill="#959595"/>
</g>
<defs>
<clipPath id="clip0_54_125">
<rect width="48" height="48" fill="white"/>
</clipPath>
</defs>
</svg>
