<svg width="49" height="48" viewBox="0 0 49 48" fill="none" xmlns="http://www.w3.org/2000/svg">
<g clip-path="url(#clip0_101_1197)">
<path d="M40.46 13.5C43.4975 13.5 45.96 11.0376 45.96 8C45.96 4.96243 43.4975 2.5 40.46 2.5C37.4224 2.5 34.96 4.96243 34.96 8C34.96 11.0376 37.4224 13.5 40.46 13.5Z" fill="#8BCF70"/>
<path opacity="0.4" d="M40.3999 16C38.998 15.9951 37.622 15.6218 36.4098 14.9177C35.1975 14.2135 34.1916 13.2031 33.4928 11.9878C32.794 10.7725 32.4268 9.39487 32.4281 7.99296C32.4293 6.59105 32.7989 5.21408 33.4999 4H14.3999C11.7477 4 9.2042 5.05357 7.32883 6.92893C5.45347 8.8043 4.3999 11.3478 4.3999 14V28C4.3999 30.6522 5.45347 33.1957 7.32883 35.0711C9.2042 36.9464 11.7477 38 14.3999 38H17.3999C17.7065 38.0197 18.0061 38.1007 18.2809 38.2381C18.5557 38.3755 18.8002 38.5665 18.9999 38.8L21.9999 42.8C22.256 43.2048 22.6104 43.5383 23.03 43.7693C23.4496 44.0004 23.9209 44.1216 24.3999 44.1216C24.8789 44.1216 25.3502 44.0004 25.7698 43.7693C26.1894 43.5383 26.5438 43.2048 26.7999 42.8L29.7999 38.8C29.9862 38.5516 30.2278 38.35 30.5055 38.2111C30.7832 38.0723 31.0894 38 31.3999 38H34.3999C37.0521 38 39.5956 36.9464 41.471 35.0711C43.3463 33.1957 44.3999 30.6522 44.3999 28V14.88C43.1919 15.6071 41.8098 15.9941 40.3999 16Z" fill="#8BCF70"/>
<path d="M24.3999 24C24.0043 24 23.6177 23.8827 23.2888 23.6629C22.9599 23.4432 22.7035 23.1308 22.5521 22.7654C22.4008 22.3999 22.3612 21.9978 22.4383 21.6098C22.5155 21.2219 22.706 20.8655 22.9857 20.5858C23.2654 20.3061 23.6218 20.1156 24.0097 20.0384C24.3977 19.9613 24.7998 20.0009 25.1653 20.1522C25.5307 20.3036 25.8431 20.56 26.0628 20.8889C26.2826 21.2178 26.3999 21.6044 26.3999 22C26.3999 22.5304 26.1892 23.0391 25.8141 23.4142C25.439 23.7893 24.9303 24 24.3999 24Z" fill="#8BCF70"/>
<path d="M32.3999 24C32.0043 24 31.6177 23.8827 31.2888 23.6629C30.9599 23.4432 30.7035 23.1308 30.5521 22.7654C30.4008 22.3999 30.3612 21.9978 30.4383 21.6098C30.5155 21.2219 30.706 20.8655 30.9857 20.5858C31.2654 20.3061 31.6218 20.1156 32.0097 20.0384C32.3977 19.9613 32.7998 20.0009 33.1653 20.1522C33.5307 20.3036 33.8431 20.56 34.0628 20.8889C34.2826 21.2178 34.3999 21.6044 34.3999 22C34.3999 22.5304 34.1892 23.0391 33.8141 23.4142C33.439 23.7893 32.9303 24 32.3999 24Z" fill="#8BCF70"/>
<path d="M16.3999 24C16.0043 24 15.6177 23.8827 15.2888 23.6629C14.9599 23.4432 14.7035 23.1308 14.5521 22.7654C14.4008 22.3999 14.3612 21.9978 14.4383 21.6098C14.5155 21.2219 14.706 20.8655 14.9857 20.5858C15.2654 20.3061 15.6218 20.1156 16.0097 20.0384C16.3977 19.9613 16.7998 20.0009 17.1653 20.1522C17.5307 20.3036 17.8431 20.56 18.0628 20.8889C18.2826 21.2178 18.3999 21.6044 18.3999 22C18.3999 22.5304 18.1892 23.0391 17.8141 23.4142C17.439 23.7893 16.9303 24 16.3999 24Z" fill="#8BCF70"/>
</g>
<defs>
<clipPath id="clip0_101_1197">
<rect width="48" height="48" fill="white" transform="translate(0.399902)"/>
</clipPath>
</defs>
</svg>
