<svg width="48" height="48" viewBox="0 0 48 48" fill="none" xmlns="http://www.w3.org/2000/svg">
<g clip-path="url(#clip0_54_95)">
<path opacity="0.4" d="M39.6399 8.44001C37.2426 6.05726 34.1178 4.54398 30.762 4.1406C27.4062 3.73722 24.0118 4.46687 21.1181 6.21362C18.2245 7.96038 15.9976 10.6241 14.7912 13.7814C13.5849 16.9388 13.4682 20.4088 14.4599 23.64L5.05988 33.04C4.69242 33.4362 4.40904 33.9028 4.22686 34.4115C4.04468 34.9202 3.96746 35.4606 3.99988 36L4.59988 40.36C4.7424 41.1028 5.10448 41.7858 5.6393 42.3206C6.17412 42.8554 6.85708 43.2175 7.59988 43.36L11.9999 44C12.5389 44.0504 13.0825 43.9875 13.5957 43.8153C14.1089 43.6431 14.5804 43.3654 14.9799 43L16.6199 41.36C16.7136 41.267 16.788 41.1564 16.8388 41.0346C16.8895 40.9127 16.9157 40.782 16.9157 40.65C16.9157 40.518 16.8895 40.3873 16.8388 40.2654C16.788 40.1436 16.7136 40.033 16.6199 39.94L12.7799 36C12.6138 35.7079 12.5506 35.3686 12.6004 35.0363C12.6502 34.704 12.8101 34.3981 13.0545 34.1675C13.2989 33.937 13.6136 33.7951 13.9482 33.7648C14.2828 33.7344 14.618 33.8172 14.8999 34L18.8999 37.9C19.0868 38.0832 19.3381 38.1859 19.5999 38.1859C19.8616 38.1859 20.1129 38.0832 20.2999 37.9L24.5399 33.68C27.7709 34.6833 31.2449 34.5755 34.4075 33.3738C37.5701 32.1721 40.2391 29.9457 41.9885 27.0499C43.738 24.1541 44.4671 20.7558 44.0595 17.3972C43.6519 14.0386 42.1312 10.9133 39.7399 8.52001L39.6399 8.44001ZM29.0599 24C28.0685 24.0119 27.096 23.7288 26.2659 23.1867C25.4358 22.6446 24.7856 21.8679 24.3979 20.9554C24.0103 20.0428 23.9027 19.0357 24.0888 18.0619C24.2748 17.088 24.7463 16.1915 25.4431 15.4862C26.1399 14.781 27.0306 14.2988 28.0021 14.1009C28.9737 13.9031 29.982 13.9985 30.8992 14.3751C31.8163 14.7518 32.6008 15.3925 33.1529 16.216C33.705 17.0395 33.9998 18.0086 33.9999 19C34 20.3158 33.4814 21.5785 32.5567 22.5145C31.6319 23.4505 30.3755 23.9842 29.0599 24Z" fill="#959595"/>
<path d="M29.0601 24C31.8215 24 34.0601 21.7614 34.0601 19C34.0601 16.2386 31.8215 14 29.0601 14C26.2986 14 24.0601 16.2386 24.0601 19C24.0601 21.7614 26.2986 24 29.0601 24Z" fill="#959595"/>
</g>
<defs>
<clipPath id="clip0_54_95">
<rect width="48" height="48" fill="white"/>
</clipPath>
</defs>
</svg>
