<svg width="49" height="48" viewBox="0 0 49 48" fill="none" xmlns="http://www.w3.org/2000/svg">
<g clip-path="url(#clip0_54_52)">
<path d="M39.6 9.78L27.88 4.58C25.953 3.81601 23.8071 3.81601 21.88 4.58L10.1 9.78C7.14005 11.1 6.80005 12.9 6.80005 13.86C6.80005 14.82 7.24005 16.62 10.2 17.86L21.92 23.08C22.8843 23.475 23.9181 23.6722 24.96 23.66C25.9955 23.6722 27.0228 23.475 27.98 23.08L39.6 18C42.56 16.68 43 14.88 43 14C43 13.12 42.56 11.1 39.6 9.78Z" fill="#959595"/>
<path opacity="0.4" d="M24.8 34C24.0341 34.0011 23.277 33.8373 22.58 33.52L9.1 27.52C8.07015 26.9944 7.19591 26.2083 6.5643 25.2398C5.9327 24.2713 5.56576 23.1544 5.5 22C5.5 21.6075 5.65593 21.231 5.93348 20.9535C6.21104 20.6759 6.58748 20.52 6.98 20.52C7.37438 20.52 7.75291 20.6753 8.03365 20.9522C8.31439 21.2292 8.47474 21.6057 8.48 22C8.52706 22.6043 8.72347 23.1875 9.05161 23.6972C9.37975 24.2068 9.82934 24.627 10.36 24.92L23.84 30.92C24.156 31.0554 24.4962 31.1251 24.84 31.1251C25.1838 31.1251 25.524 31.0554 25.84 30.92L39.32 24.92C39.857 24.6306 40.3136 24.2122 40.6487 23.7025C40.9839 23.1927 41.1871 22.6077 41.24 22C41.24 21.6075 41.3959 21.231 41.6735 20.9535C41.951 20.6759 42.3275 20.52 42.72 20.52C43.1125 20.52 43.489 20.6759 43.7665 20.9535C44.0441 21.231 44.2 21.6075 44.2 22C44.1492 23.1813 43.7829 24.3274 43.1393 25.3192C42.4957 26.3111 41.5981 27.1124 40.54 27.64L27.06 33.64C26.3417 33.9225 25.5705 34.0454 24.8 34Z" fill="#959595"/>
<path opacity="0.4" d="M24.8 44C24.0365 43.998 23.2814 43.8415 22.58 43.54L9.1 37.54C8.03575 37.0538 7.13198 36.2746 6.49444 35.2935C5.8569 34.3124 5.51197 33.17 5.5 32C5.5 31.6075 5.65593 31.231 5.93348 30.9535C6.21104 30.6759 6.58748 30.52 6.98 30.52C7.37438 30.52 7.75291 30.6753 8.03365 30.9522C8.31439 31.2292 8.47474 31.6057 8.48 32C8.48152 32.6155 8.65941 33.2177 8.9926 33.7352C9.32579 34.2527 9.80033 34.6639 10.36 34.92L23.84 40.92C24.1534 41.0651 24.4946 41.1403 24.84 41.1403C25.1854 41.1403 25.5266 41.0651 25.84 40.92L39.32 34.92C39.8857 34.6677 40.3671 34.2586 40.7074 33.7411C41.0477 33.2235 41.2325 32.6193 41.24 32C41.24 31.6075 41.3959 31.231 41.6735 30.9535C41.951 30.6759 42.3275 30.52 42.72 30.52C43.1125 30.52 43.489 30.6759 43.7665 30.9535C44.0441 31.231 44.2 31.6075 44.2 32C44.2045 33.1942 43.8607 34.3638 43.2106 35.3655C42.5605 36.3672 41.6324 37.1577 40.54 37.64L27.06 43.64C26.3392 43.9132 25.57 44.0357 24.8 44Z" fill="#959595"/>
</g>
<defs>
<clipPath id="clip0_54_52">
<rect width="48" height="48" fill="white" transform="translate(0.800049)"/>
</clipPath>
</defs>
</svg>
