<svg width="48" height="48" viewBox="0 0 48 48" fill="none" xmlns="http://www.w3.org/2000/svg">
<g clip-path="url(#clip0_108_3867)">
<path d="M6 25C6 23.8954 5.10457 23 4 23C2.89543 23 2 23.8954 2 25V33C2 34.1046 2.89543 35 4 35C5.10457 35 6 34.1046 6 33V25Z" fill="#8BCF70"/>
<path d="M46 25C46 23.8954 45.1046 23 44 23C42.8954 23 42 23.8954 42 25V33C42 34.1046 42.8954 35 44 35C45.1046 35 46 34.1046 46 33V25Z" fill="#8BCF70"/>
<rect opacity="0.4" x="8" y="14" width="32" height="28" rx="4" fill="#8BCF70"/>
<path d="M16.5 30C16.0055 30 15.5222 29.8534 15.1111 29.5787C14.7 29.304 14.3795 28.9135 14.1903 28.4567C14.0011 27.9999 13.9516 27.4972 14.048 27.0123C14.1445 26.5273 14.3826 26.0819 14.7322 25.7322C15.0819 25.3826 15.5273 25.1445 16.0123 25.048C16.4972 24.9516 16.9999 25.0011 17.4567 25.1903C17.9135 25.3795 18.304 25.7 18.5787 26.1111C18.8534 26.5222 19 27.0055 19 27.5C19 28.163 18.7366 28.7989 18.2678 29.2678C17.7989 29.7366 17.163 30 16.5 30Z" fill="#8BCF70"/>
<path d="M31.5 30C31.0055 30 30.5222 29.8534 30.1111 29.5787C29.7 29.304 29.3795 28.9135 29.1903 28.4567C29.0011 27.9999 28.9516 27.4972 29.048 27.0123C29.1445 26.5273 29.3826 26.0819 29.7322 25.7322C30.0819 25.3826 30.5273 25.1445 31.0123 25.048C31.4972 24.9516 31.9999 25.0011 32.4567 25.1903C32.9135 25.3795 33.304 25.7 33.5787 26.1111C33.8534 26.5222 34 27.0055 34 27.5C34 28.163 33.7366 28.7989 33.2678 29.2678C32.7989 29.7366 32.163 30 31.5 30Z" fill="#8BCF70"/>
<path d="M15.7073 14.338C15.3398 14.495 14.9252 14.5009 14.5533 14.3545C14.1814 14.208 13.8821 13.921 13.7203 13.5555L11.5286 8.42395C11.4224 8.06642 11.4513 7.6823 11.6099 7.3447C11.7685 7.0071 12.0456 6.7396 12.3886 6.5931C12.7317 6.4466 13.1166 6.43133 13.4701 6.55021C13.8236 6.66908 14.1211 6.9138 14.3059 7.23778L16.4976 12.3693C16.6485 12.7357 16.6503 13.1466 16.5027 13.5143C16.3551 13.882 16.0697 14.1776 15.7073 14.338Z" fill="#8BCF70"/>
<path d="M31.3796 14.338C31.7471 14.495 32.1617 14.5009 32.5336 14.3545C32.9055 14.208 33.2048 13.921 33.3666 13.5555L35.5583 8.42395C35.6645 8.06642 35.6356 7.6823 35.477 7.3447C35.3184 7.0071 35.0413 6.7396 34.6983 6.5931C34.3553 6.4466 33.9703 6.43133 33.6168 6.55021C33.2633 6.66908 32.9658 6.9138 32.781 7.23778L30.5893 12.3693C30.4384 12.7357 30.4366 13.1466 30.5842 13.5143C30.7319 13.882 31.0172 14.1776 31.3796 14.338Z" fill="#8BCF70"/>
</g>
<defs>
<clipPath id="clip0_108_3867">
<rect width="48" height="48" fill="white"/>
</clipPath>
</defs>
</svg>
