<svg width="49" height="48" viewBox="0 0 49 48" fill="none" xmlns="http://www.w3.org/2000/svg">
<g clip-path="url(#clip0_65_622)">
<path opacity="0.4" d="M23.6378 43.9992H23.4078C19.8839 43.9992 16.358 43.9992 12.834 43.9992C11.0021 43.9992 9.58808 43.1992 8.6341 41.6212C8.2666 40.9994 8.05397 40.2984 8.01411 39.5773C8.01411 39.4373 8.00211 39.2993 8.00211 39.1613V26.5995C7.98018 25.8229 8.15211 25.0531 8.50233 24.3596C8.85256 23.6661 9.37006 23.0708 10.0081 22.6275C10.8345 22.035 11.8314 21.7275 12.848 21.7516C13.974 21.7516 15.1 21.7516 16.226 21.7516C16.2883 21.7424 16.3517 21.7583 16.4023 21.7958C16.4529 21.8333 16.4866 21.8893 16.496 21.9516L23.5738 43.7812L23.6378 43.9972V43.9992Z" fill="#8BCF70"/>
<path d="M24.8479 4.00007C26.5803 3.99295 28.2758 4.50012 29.7198 5.45736C31.1637 6.41459 32.291 7.77882 32.959 9.37726C33.627 10.9757 33.8056 12.7364 33.4721 14.4364C33.1387 16.1364 32.3082 17.6992 31.0859 18.9269C29.8636 20.1545 28.3044 20.9918 26.6058 21.3326C24.9073 21.6735 23.1458 21.5026 21.5445 20.8415C19.9432 20.1805 18.5741 19.0591 17.6106 17.6194C16.647 16.1796 16.1325 14.4863 16.1321 12.7539C16.1289 10.4379 17.0449 8.21519 18.6791 6.57392C20.3132 4.93266 22.5319 4.00696 24.8479 4.00007Z" fill="#8BCF70"/>
<path d="M24.842 39.6115L24.166 37.5415C22.9994 33.9416 21.832 30.3483 20.6641 26.7617C20.626 26.686 20.6175 26.5989 20.64 26.5172C20.6626 26.4356 20.7146 26.3652 20.7861 26.3197C22.098 25.2277 23.4027 24.1277 24.7 23.0198C24.7168 22.9974 24.7385 22.9793 24.7635 22.9668C24.7885 22.9543 24.816 22.9478 24.844 22.9478C24.8719 22.9478 24.8995 22.9543 24.9245 22.9668C24.9495 22.9793 24.9712 22.9974 24.988 23.0198C26.3093 24.1411 27.6359 25.2597 28.9679 26.3757C29.0163 26.4056 29.0518 26.4526 29.0674 26.5074C29.0829 26.5622 29.0774 26.6208 29.0519 26.6717C27.6679 30.9236 26.2866 35.1782 24.908 39.4355L24.842 39.6115Z" fill="#8BCF70"/>
<path opacity="0.4" fill-rule="evenodd" clip-rule="evenodd" d="M41.6003 26.8584V33.1403L41.5843 33.1463C41.5843 33.8471 41.5854 34.5477 41.5865 35.2481C41.5887 36.6485 41.591 38.0484 41.5843 39.4482C41.5743 41.2782 40.7783 42.6761 39.2243 43.6261C38.4989 44.0571 37.668 44.278 36.8244 44.2641H26.1626C25.9643 44.2641 25.9877 44.1963 26.0266 44.0833C26.0305 44.072 26.0346 44.0603 26.0386 44.0481L32.4385 24.3225C32.4916 24.1583 32.5449 23.9942 32.5982 23.83C32.7754 23.2841 32.9527 22.7379 33.1264 22.1905C33.1644 22.0805 33.2004 22.0085 33.3484 22.0085C33.8198 22.0159 34.2916 22.011 34.7637 22.0061C35.5715 21.9978 36.3797 21.9895 37.1864 22.0425C38.9363 22.1565 40.2243 23.0365 41.0643 24.5685C41.4361 25.2733 41.6206 26.0618 41.6003 26.8584ZM37.9997 36.6315C38.1309 36.6373 38.262 36.6176 38.3857 36.5735L38.3777 36.5795C38.5172 36.52 38.6326 36.4152 38.7052 36.282C38.7778 36.1488 38.8033 35.995 38.7777 35.8455C38.75 35.6925 38.6684 35.5545 38.5477 35.4566C38.4269 35.3586 38.2751 35.3071 38.1197 35.3115H35.1597H32.7918H32.1138C31.9771 35.3191 31.8465 35.3708 31.7416 35.4587C31.6367 35.5467 31.5631 35.6663 31.5318 35.7995C31.5044 35.9026 31.5022 36.0108 31.5255 36.1149C31.5488 36.219 31.5968 36.3159 31.6654 36.3976C31.7341 36.4792 31.8214 36.5431 31.92 36.5838C32.0186 36.6245 32.1255 36.6409 32.2318 36.6315H34.5577H37.9997Z" fill="#8BCF70"/>
</g>
<defs>
<clipPath id="clip0_65_622">
<rect width="48" height="48" fill="white" transform="translate(0.666748)"/>
</clipPath>
</defs>
</svg>
