<svg width="48" height="48" viewBox="0 0 48 48" fill="none" xmlns="http://www.w3.org/2000/svg">
<g clip-path="url(#clip0_65_588)">
<path opacity="0.4" d="M25.06 14.8202V44.0002H8.22C7.11295 44.0056 6.04854 43.5737 5.25828 42.7984C4.46801 42.0231 4.0158 40.9672 4 39.8602V10.1802C4 4.94021 8 2.56021 12.7 4.90021L21.56 9.28021C22.5628 9.83405 23.4095 10.6323 24.0214 11.6008C24.6332 12.5693 24.9905 13.6767 25.06 14.8202Z" fill="#8BCF70"/>
<path d="M18.0001 19.5H11.0601C10.6622 19.5 10.2807 19.342 9.9994 19.0607C9.71809 18.7794 9.56006 18.3978 9.56006 18C9.56006 17.6022 9.71809 17.2206 9.9994 16.9393C10.2807 16.658 10.6622 16.5 11.0601 16.5H18.0001C18.3979 16.5 18.7794 16.658 19.0607 16.9393C19.342 17.2206 19.5001 17.6022 19.5001 18C19.5001 18.3978 19.342 18.7794 19.0607 19.0607C18.7794 19.342 18.3979 19.5 18.0001 19.5Z" fill="#8BCF70"/>
<path d="M18.0001 27.5H11.0601C10.6622 27.5 10.2807 27.342 9.9994 27.0607C9.71809 26.7794 9.56006 26.3978 9.56006 26C9.56006 25.6022 9.71809 25.2206 9.9994 24.9393C10.2807 24.658 10.6622 24.5 11.0601 24.5H18.0001C18.3979 24.5 18.7794 24.658 19.0607 24.9393C19.342 25.2206 19.5001 25.6022 19.5001 26C19.5001 26.3978 19.342 26.7794 19.0607 27.0607C18.7794 27.342 18.3979 27.5 18.0001 27.5Z" fill="#8BCF70"/>
<path opacity="0.6" d="M44 30.0998V38.9998C44 40.3259 43.4732 41.5977 42.5355 42.5354C41.5979 43.4731 40.3261 43.9998 39 43.9998H25V20.8398L25.94 21.0398L33.94 22.8398L34.9 23.0598L38.9 23.9798C39.8432 24.1594 40.7451 24.512 41.56 25.0198C41.7669 25.1627 41.9609 25.3233 42.14 25.4998C43.274 26.627 43.9387 28.1421 44 29.7398C44 29.8598 44 29.9998 44 30.0998Z" fill="#8BCF70"/>
<path d="M25.0601 20.8398V32.8398C25.6897 33.6794 26.5675 34.2995 27.5692 34.6124C28.5709 34.9253 29.6456 34.9151 30.6412 34.5833C31.6368 34.2514 32.5027 33.6147 33.1163 32.7634C33.7299 31.9121 34.0601 30.8893 34.0601 29.8398V22.8398L26.0601 21.0398L25.0601 20.8398Z" fill="#8BCF70"/>
<path d="M44 29.7398C43.9878 28.1763 43.3963 26.6727 42.34 25.5198C42.1609 25.3433 41.9669 25.1827 41.76 25.0398C40.9512 24.5343 40.0563 24.1817 39.12 23.9998L35.12 23.0798L34 22.8398V29.8398C33.9629 31.1659 34.4541 32.4524 35.3655 33.4164C36.2769 34.3803 37.5339 34.9427 38.86 34.9798C40.1861 35.017 41.4726 34.5258 42.4365 33.6144C43.4005 32.7029 43.9629 31.4459 44 30.1198C44 29.9998 44 29.8598 44 29.7398Z" fill="#8BCF70"/>
</g>
<defs>
<clipPath id="clip0_65_588">
<rect width="48" height="48" fill="white"/>
</clipPath>
</defs>
</svg>
