<svg width="49" height="48" viewBox="0 0 49 48" fill="none" xmlns="http://www.w3.org/2000/svg">
<g clip-path="url(#clip0_65_633)">
<path d="M38.9934 11.3599L26.4534 4.59986C25.8027 4.24626 25.074 4.06104 24.3334 4.06104C23.5929 4.06104 22.8641 4.24626 22.2134 4.59986L9.67341 11.3599C9.20449 11.6174 8.81721 12.0014 8.55559 12.468C8.29396 12.9347 8.16849 13.4654 8.19341 13.9999C8.18491 14.518 8.31832 15.0285 8.5792 15.4762C8.84008 15.924 9.21847 16.2918 9.67341 16.5399L22.2134 23.3199C22.8678 23.6616 23.5951 23.8401 24.3334 23.8401C25.0717 23.8401 25.799 23.6616 26.4534 23.3199L38.9934 16.5399C39.4484 16.2918 39.8268 15.924 40.0876 15.4762C40.3485 15.0285 40.4819 14.518 40.4734 13.9999C40.4983 13.4654 40.3729 12.9347 40.1112 12.468C39.8496 12.0014 39.4623 11.6174 38.9934 11.3599Z" fill="#8BCF70"/>
<path opacity="0.4" d="M20.1534 25.5799L8.47342 19.7399C8.0372 19.5216 7.55239 19.4185 7.06508 19.4404C6.57777 19.4623 6.10415 19.6084 5.68926 19.865C5.27437 20.1215 4.932 20.4799 4.69468 20.9061C4.45737 21.3323 4.33301 21.8121 4.33342 22.2999V33.3199C4.32928 34.2499 4.58562 35.1624 5.07342 35.9542C5.56121 36.746 6.26096 37.3854 7.09342 37.7999L18.7734 43.6399C19.2096 43.8582 19.6945 43.9614 20.1818 43.9395C20.6691 43.9176 21.1427 43.7714 21.5576 43.5149C21.9725 43.2583 22.3149 42.8999 22.5522 42.4737C22.7895 42.0475 22.9138 41.5677 22.9134 41.0799V29.9999C22.9087 29.0797 22.6481 28.1789 22.1606 27.3983C21.6732 26.6177 20.9782 25.9881 20.1534 25.5799Z" fill="#8BCF70"/>
<path opacity="0.4" d="M42.9734 19.8601C42.5586 19.6051 42.0855 19.4602 41.599 19.4392C41.1125 19.4182 40.6287 19.5218 40.1934 19.7401L28.5134 25.5801C27.6886 25.9882 26.9936 26.6178 26.5062 27.3984C26.0188 28.179 25.7581 29.0798 25.7534 30.0001V41.0201C25.7526 41.5091 25.8772 41.9902 26.1153 42.4174C26.3534 42.8446 26.697 43.2036 27.1134 43.4601C27.5289 43.7133 28.0018 43.8571 28.488 43.8781C28.9741 43.8991 29.4576 43.7965 29.8934 43.5801L41.5734 37.7401C42.3968 37.3301 43.0905 36.7001 43.5777 35.9199C44.0648 35.1397 44.3264 34.2398 44.3334 33.3201V22.3001C44.3343 21.811 44.2097 21.3299 43.9716 20.9027C43.7335 20.4756 43.3898 20.1166 42.9734 19.8601Z" fill="#8BCF70"/>
</g>
<defs>
<clipPath id="clip0_65_633">
<rect width="48" height="48" fill="white" transform="translate(0.333374)"/>
</clipPath>
</defs>
</svg>
