<?xml version="1.0" encoding="utf-8"?>
<!-- Generator: Adobe Illustrator 25.0.0, SVG Export Plug-In . SVG Version: 6.00 Build 0)  -->
<svg version="1.1" id="图层_1" xmlns="http://www.w3.org/2000/svg" xmlns:xlink="http://www.w3.org/1999/xlink" x="0px" y="0px"
	 viewBox="0 0 1024 1024" style="enable-background:new 0 0 1024 1024;" xml:space="preserve">
<style type="text/css">
	.st0{clip-path:url(#SVGID_2_);}
	.st1{clip-path:url(#SVGID_4_);}
	.st2{fill:#1370AD;}
	.st3{opacity:0.4;}
	.st4{clip-path:url(#SVGID_6_);}
	.st5{fill:#FFFFFF;}
</style>
<g>
	<defs>
		<rect id="SVGID_1_" x="96" y="96" width="832" height="832"/>
	</defs>
	<clipPath id="SVGID_2_">
		<use xlink:href="#SVGID_1_"  style="overflow:visible;"/>
	</clipPath>
	<g id="组_388" class="st0">
		<g id="组_387" transform="translate(8 2)">
			<g>
				<defs>
					<rect id="SVGID_3_" x="192" y="120" width="624" height="780"/>
				</defs>
				<clipPath id="SVGID_4_">
					<use xlink:href="#SVGID_3_"  style="overflow:visible;"/>
				</clipPath>
				<g id="组_386" class="st1">
					<g id="路径_207">
						<path class="st2" d="M270,120c-43,0.1-77.9,35-78,78v624c0.1,43,35,77.9,78,78h468c43-0.1,77.9-35,78-78V352.1L584,120H270z"
							/>
					</g>
					<g id="组_385" transform="translate(30.15)" class="st3">
						<g id="组_384">
							<g>
								<defs>
									<rect id="SVGID_5_" x="553.8" y="120" width="232.1" height="232.1"/>
								</defs>
								<clipPath id="SVGID_6_">
									<use xlink:href="#SVGID_5_"  style="overflow:visible;"/>
								</clipPath>
								<g id="组_383" class="st4">
									<g id="路径_208">
										<path class="st5" d="M631.8,352.1h154L553.8,120v154.1C553.9,317.1,588.8,351.9,631.8,352.1"/>
									</g>
								</g>
							</g>
						</g>
					</g>
					<g id="直线_103">
						<path class="st5" d="M494.2,574.4c-2.1,0-4.2-0.8-5.7-2.4l-53.7-53.7c-3.2-3.2-3.2-8.3,0-11.5s8.3-3.2,11.5,0l53.7,53.7
							c3.2,3.2,3.2,8.3,0,11.5C498.4,573.6,496.3,574.4,494.2,574.4z"/>
					</g>
					<g id="直线_104">
						<path class="st5" d="M386.9,574.4c-2.1,0-4.2-0.8-5.7-2.4c-3.2-3.2-3.2-8.3,0-11.5l53.7-53.7c3.2-3.2,8.3-3.2,11.5,0
							s3.2,8.3,0,11.5L392.6,572C391,573.6,389,574.4,386.9,574.4z"/>
					</g>
					<g id="直线_105">
						<path class="st5" d="M440.5,685.1c-4.5,0-8.1-3.6-8.1-8.1V512.6c0-4.5,3.6-8.1,8.1-8.1s8.1,3.6,8.1,8.1V677
							C448.7,681.5,445,685.1,440.5,685.1z"/>
					</g>
					<g id="路径_209">
						<path class="st5" d="M529,754.7H353.5c-20.5-0.1-37.3-16.8-37.4-37.3V639c0-18.4,15-33.4,33.4-33.4c0,0,0,0,0,0h12.7
							c4.5,0,8.1,3.6,8.1,8.1s-3.6,8.1-8.1,8.1h-12.7h0c-9.5,0-17.2,7.7-17.2,17.2v78.3c0,11.6,9.5,21.1,21.2,21.1H529
							c11.6,0,21.1-9.5,21.1-21.1V639c0-9.5-7.7-17.1-17.2-17.1c0,0,0,0,0,0h-12.6c-4.5,0-8.1-3.6-8.1-8.1s3.6-8.1,8.1-8.1h12.6h0
							c18.4,0,33.4,15,33.4,33.4v78.3C566.3,737.9,549.6,754.7,529,754.7z"/>
					</g>
				</g>
			</g>
		</g>
	</g>
</g>
</svg>
