<?xml version="1.0" encoding="utf-8"?>
<!-- Generator: Adobe Illustrator 25.0.0, SVG Export Plug-In . SVG Version: 6.00 Build 0)  -->
<svg version="1.1" id="图层_1" xmlns="http://www.w3.org/2000/svg" xmlns:xlink="http://www.w3.org/1999/xlink" x="0px" y="0px"
	 viewBox="0 0 1024 1024" style="enable-background:new 0 0 1024 1024;" xml:space="preserve">
<style type="text/css">
	.st0{clip-path:url(#SVGID_2_);}
	.st1{clip-path:url(#SVGID_4_);}
	.st2{fill:#3282BA;}
	.st3{opacity:0.4;}
	.st4{clip-path:url(#SVGID_6_);}
	.st5{fill:#FFFFFF;}
</style>
<g>
	<defs>
		<rect id="SVGID_1_" x="96" y="96" width="832" height="832"/>
	</defs>
	<clipPath id="SVGID_2_">
		<use xlink:href="#SVGID_1_"  style="overflow:visible;"/>
	</clipPath>
	<g id="组_251" class="st0">
		<g id="组_250" transform="translate(8 2)">
			<g>
				<defs>
					<rect id="SVGID_3_" x="192" y="120" width="624" height="780"/>
				</defs>
				<clipPath id="SVGID_4_">
					<use xlink:href="#SVGID_3_"  style="overflow:visible;"/>
				</clipPath>
				<g id="组_249" class="st1">
					<path id="路径_136" class="st2" d="M270,120c-43,0.1-77.9,35-78,78v624c0.1,43,35,77.9,78,78h468c43-0.1,77.9-35,78-78V352.1
						L584,120H270z"/>
					<g id="组_248" transform="translate(30.15)" class="st3">
						<g id="组_247">
							<g>
								<defs>
									<rect id="SVGID_5_" x="553.8" y="120" width="232.1" height="232.1"/>
								</defs>
								<clipPath id="SVGID_6_">
									<use xlink:href="#SVGID_5_"  style="overflow:visible;"/>
								</clipPath>
								<g id="组_246" class="st4">
									<path id="路径_137" class="st5" d="M631.8,352.1h154L553.8,120v154.1C553.9,317.1,588.8,351.9,631.8,352.1"/>
								</g>
							</g>
						</g>
					</g>
					<path id="路径_138" class="st5" d="M368.7,735.8l-58.5-212.4h33.4L374,646l11.3,45.6c0.5-2.3,3.8-16.9,9.9-43.8l30.4-124.4
						h33.3l28.6,123.2l9.5,40.6l11-41l32.8-122.8h31.6l-59.8,212.4H479l-30.4-127.1l-7.4-36.2l-38.6,163.3H368.7z"/>
				</g>
			</g>
		</g>
	</g>
</g>
</svg>
