<svg width="41" height="37" viewBox="0 0 41 37" fill="none" xmlns="http://www.w3.org/2000/svg">
<mask id="mask0_108_4798" style="mask-type:luminance" maskUnits="userSpaceOnUse" x="0" y="0" width="41" height="37">
<path d="M0.5 0.941162H40.5V36.9412H0.5V0.941162Z" fill="white"/>
</mask>
<g mask="url(#mask0_108_4798)">
<path fill-rule="evenodd" clip-rule="evenodd" d="M35.2432 6.22893C33.0537 4.02446 30.2855 2.43771 27.2263 1.55528C25.9093 1.17537 24.0263 0.941162 22.6053 0.941162H0.5V9.99411L6.74421 16.2729L6.81579 16.3449V7.29411H22.6053C24.2179 7.29411 25.784 7.6287 27.2263 8.26823C28.5293 8.84635 29.7314 9.67011 30.7756 10.7205C32.9737 12.9313 34.1842 15.8494 34.1842 18.9412C34.1842 22.033 32.9737 24.9532 30.7756 27.1619C28.58 29.3727 25.6769 30.5883 22.6053 30.5883H15.7505L9.43474 36.9412H22.6053C32.4474 36.9412 40.5 28.8412 40.5 18.9412C40.5 13.9901 38.4874 9.49223 35.2432 6.22893Z" fill="#8BCF70"/>
</g>
<mask id="mask1_108_4798" style="mask-type:luminance" maskUnits="userSpaceOnUse" x="0" y="9" width="28" height="28">
<path d="M0.5 9.98779H27.2979V36.9412H0.5V9.98779Z" fill="#FFDD33"/>
</mask>
<g mask="url(#mask1_108_4798)">
<path fill-rule="evenodd" clip-rule="evenodd" d="M27.2979 9.98779V18.973L15.7505 30.5883L9.43474 36.9412L0.5 27.9539V18.9751L0.502105 18.973L6.81579 25.3217L9.43474 27.956L27.2979 9.98779Z" fill="#FFDD33"/>
</g>
</svg>
