<svg width="364" height="430" viewBox="0 0 364 430" fill="none" xmlns="http://www.w3.org/2000/svg">
<g clip-path="url(#clip0_108_4722)">
<rect width="364" height="430" rx="20" fill="#FAFAFA"/>
<path d="M168.5 63.5H258C264.627 63.5 270 68.8726 270 75.5V188" stroke="#8BCF70" stroke-width="2" stroke-dasharray="6 6"/>
<rect x="40" y="188" width="353" height="288" rx="10" fill="#EAF2E7"/>
<rect x="58" y="206" width="326" height="260" fill="#F5FAFA"/>
<path d="M216.236 273.802L168.636 290.177V343.834C168.636 360.284 183.567 375.204 214.299 389.45L215.91 390.198L217.558 389.511C247.95 376.833 263.365 361.467 263.365 343.834V290.587L216.236 273.802ZM242.738 319.427L218.365 348.497C216.859 350.278 214.609 351.311 212.235 351.315C210.053 351.315 207.879 350.436 206.33 348.732L191.306 332.225C189.864 330.639 190.016 328.216 191.648 326.814C193.183 325.493 193.359 325.003 195.002 323.487C195.214 323.29 195.474 323.15 195.755 323.082L196.817 322.826L212.536 340.384L235.468 311.716C236.846 310.075 240.482 312.696 242.171 314.034C243.86 315.371 244.113 317.784 242.738 319.427Z" fill="#8BCF70"/>
<rect x="-24" y="-22" width="205.917" height="168" rx="10" fill="#E9EFFC"/>
<rect x="-12" y="-10" width="181" height="144" fill="#F5FAFA"/>
<path d="M100.253 48.6899H57.7452C54.0737 48.6899 51.0977 51.6597 51.0977 55.3242V83.467C51.0977 87.1316 54.0737 90.1014 57.7452 90.1014H100.253C103.925 90.1014 106.902 87.1316 106.902 83.467V55.3242C106.901 51.6597 103.925 48.6899 100.253 48.6899ZM81.7988 69.2052V76.5921C81.7988 78.1377 80.5463 79.3919 78.9991 79.3919C77.4528 79.3919 76.1994 78.1377 76.1994 76.5921V69.2052C74.5277 68.2369 73.3997 66.4319 73.3997 64.3602C73.3997 61.2675 75.9064 58.7607 78.9991 58.7607C82.0918 58.7607 84.5994 61.2675 84.5994 64.3602C84.5994 66.4319 83.4723 68.2369 81.7988 69.2052ZM78.9991 22.0891C68.1749 22.0891 59.3994 30.7409 59.3994 42.108V50.8019L98.5998 52.6684V42.108C98.5998 30.7409 89.8243 22.0891 78.9991 22.0891ZM65.0023 50.3107V41.9134C65.0023 34.1843 71.2691 27.9166 78.999 27.9166C86.7298 27.9166 92.9958 34.1843 92.9958 41.9134V50.5072L65.0023 50.3107Z" fill="#72A1F7"/>
<g filter="url(#filter0_d_108_4722)">
<rect x="246" y="28" width="66" height="66" rx="10" fill="white"/>
</g>
<path fill-rule="evenodd" clip-rule="evenodd" d="M289.586 61.0006C289.856 60.1148 290 59.1802 290 58.2143C290 52.5731 285.075 48 279 48C272.925 48 268 52.5731 268 58.2143C268 59.1802 268.144 60.1148 268.414 61.0006C264.864 61.0465 262 63.9388 262 67.5C262 71.0899 264.91 74 268.5 74H289.5C293.09 74 296 71.0899 296 67.5C296 63.9388 293.136 61.0465 289.586 61.0006Z" fill="#8BCF70"/>
</g>
<defs>
<filter id="filter0_d_108_4722" x="237" y="23" width="84" height="84" filterUnits="userSpaceOnUse" color-interpolation-filters="sRGB">
<feFlood flood-opacity="0" result="BackgroundImageFix"/>
<feColorMatrix in="SourceAlpha" type="matrix" values="0 0 0 0 0 0 0 0 0 0 0 0 0 0 0 0 0 0 127 0" result="hardAlpha"/>
<feOffset dy="4"/>
<feGaussianBlur stdDeviation="4.5"/>
<feComposite in2="hardAlpha" operator="out"/>
<feColorMatrix type="matrix" values="0 0 0 0 0 0 0 0 0 0 0 0 0 0 0 0 0 0 0.05 0"/>
<feBlend mode="normal" in2="BackgroundImageFix" result="effect1_dropShadow_108_4722"/>
<feBlend mode="normal" in="SourceGraphic" in2="effect1_dropShadow_108_4722" result="shape"/>
</filter>
<clipPath id="clip0_108_4722">
<rect width="364" height="430" rx="20" fill="white"/>
</clipPath>
</defs>
</svg>
