<svg width="364" height="430" viewBox="0 0 364 430" fill="none" xmlns="http://www.w3.org/2000/svg">
<g clip-path="url(#clip0_107_2213)">
<rect width="364" height="430" rx="20" fill="#FAFAFA"/>
<rect x="20" y="98" width="353" height="351" rx="10" fill="#EAF2E7"/>
<rect x="38" y="116" width="326" height="314" fill="#F5FAFA"/>
<path d="M139 293.5H349.5" stroke="#E7E9E4" stroke-width="2" stroke-dasharray="12 12"/>
<path d="M139 332H349.5" stroke="#E7E9E4" stroke-width="2" stroke-dasharray="12 12"/>
<path d="M139 370.5H349.5" stroke="#E7E9E4" stroke-width="2" stroke-dasharray="12 12"/>
<rect x="94.5" y="268.5" width="265" height="133" rx="8.5" stroke="#E7E9E4"/>
<rect x="146" y="321" width="18" height="64" rx="9" fill="#8BCF70"/>
<rect x="191" y="289" width="18" height="64" rx="9" fill="#8BCF70"/>
<rect x="236" y="303" width="18" height="64" rx="9" fill="#8BCF70"/>
<rect x="281" y="321" width="18" height="64" rx="9" fill="#8BCF70"/>
<rect x="326" y="294" width="18" height="64" rx="9" fill="#8BCF70"/>
<mask id="path-13-inside-1_107_2213" fill="white">
<path d="M275 116C275 103.524 272.543 91.171 267.769 79.6451C262.994 68.1191 255.997 57.6464 247.175 48.8249C238.354 40.0033 227.881 33.0056 216.355 28.2314C204.829 23.4572 192.476 21 180 21C167.524 21 155.171 23.4572 143.645 28.2314C132.119 33.0056 121.646 40.0033 112.825 48.8249C104.003 57.6464 97.0056 68.1191 92.2314 79.6451C87.4572 91.171 85 103.524 85 116H119.013C119.013 107.991 120.591 100.061 123.655 92.6613C126.72 85.262 131.213 78.5389 136.876 72.8757C142.539 67.2126 149.262 62.7203 156.661 59.6554C164.061 56.5906 171.991 55.0131 180 55.0131C188.009 55.0131 195.939 56.5906 203.339 59.6554C210.738 62.7203 217.461 67.2126 223.124 72.8757C228.787 78.5389 233.28 85.262 236.345 92.6613C239.409 100.061 240.987 107.991 240.987 116H275Z"/>
</mask>
<path d="M275 116C275 103.524 272.543 91.171 267.769 79.6451C262.994 68.1191 255.997 57.6464 247.175 48.8249C238.354 40.0033 227.881 33.0056 216.355 28.2314C204.829 23.4572 192.476 21 180 21C167.524 21 155.171 23.4572 143.645 28.2314C132.119 33.0056 121.646 40.0033 112.825 48.8249C104.003 57.6464 97.0056 68.1191 92.2314 79.6451C87.4572 91.171 85 103.524 85 116H119.013C119.013 107.991 120.591 100.061 123.655 92.6613C126.72 85.262 131.213 78.5389 136.876 72.8757C142.539 67.2126 149.262 62.7203 156.661 59.6554C164.061 56.5906 171.991 55.0131 180 55.0131C188.009 55.0131 195.939 56.5906 203.339 59.6554C210.738 62.7203 217.461 67.2126 223.124 72.8757C228.787 78.5389 233.28 85.262 236.345 92.6613C239.409 100.061 240.987 107.991 240.987 116H275Z" stroke="#52459F" stroke-width="68" mask="url(#path-13-inside-1_107_2213)"/>
<mask id="path-14-inside-2_107_2213" fill="white">
<path d="M275 116C275 90.8044 264.991 66.6408 247.175 48.8249C229.359 31.0089 205.196 21 180 21C154.804 21 130.641 31.0089 112.825 48.8248C95.0089 66.6408 85 90.8044 85 116L119.03 116C119.03 99.8297 125.454 84.3218 136.888 72.8877C148.322 61.4536 163.83 55.03 180 55.03C196.17 55.03 211.678 61.4536 223.112 72.8877C234.546 84.3218 240.97 99.8298 240.97 116H275Z"/>
</mask>
<path d="M275 116C275 90.8044 264.991 66.6408 247.175 48.8249C229.359 31.0089 205.196 21 180 21C154.804 21 130.641 31.0089 112.825 48.8248C95.0089 66.6408 85 90.8044 85 116L119.03 116C119.03 99.8297 125.454 84.3218 136.888 72.8877C148.322 61.4536 163.83 55.03 180 55.03C196.17 55.03 211.678 61.4536 223.112 72.8877C234.546 84.3218 240.97 99.8298 240.97 116H275Z" stroke="#72A1F7" stroke-width="68" mask="url(#path-14-inside-2_107_2213)"/>
<mask id="path-15-inside-3_107_2213" fill="white">
<path d="M275 116C275 96.391 268.932 77.2623 257.629 61.2389C246.325 45.2155 230.341 33.0824 211.868 26.5045L200.452 58.5627C212.308 62.7844 222.567 70.5712 229.821 80.8549C237.076 91.1386 240.97 103.415 240.97 116H275Z"/>
</mask>
<path d="M275 116C275 96.391 268.932 77.2623 257.629 61.2389C246.325 45.2155 230.341 33.0824 211.868 26.5045L200.452 58.5627C212.308 62.7844 222.567 70.5712 229.821 80.8549C237.076 91.1386 240.97 103.415 240.97 116H275Z" stroke="#8BCF70" stroke-width="68" mask="url(#path-15-inside-3_107_2213)"/>
<mask id="path-16-inside-4_107_2213" fill="white">
<path d="M275 116C275 101.548 271.703 87.2861 265.359 74.3005C259.015 61.315 249.793 49.948 238.393 41.0648L217.476 67.9073C224.792 73.6085 230.711 80.9037 234.783 89.2377C238.854 97.5717 240.97 106.725 240.97 116H275Z"/>
</mask>
<path d="M275 116C275 101.548 271.703 87.2861 265.359 74.3005C259.015 61.315 249.793 49.948 238.393 41.0648L217.476 67.9073C224.792 73.6085 230.711 80.9037 234.783 89.2377C238.854 97.5717 240.97 106.725 240.97 116H275Z" stroke="#FFDD33" stroke-width="68" mask="url(#path-16-inside-4_107_2213)"/>
<path opacity="0.8" d="M93.5341 140.139C93.08 140.133 92.6326 140.05 92.1918 139.891C91.7543 139.732 91.3565 139.466 90.9986 139.095C90.6406 138.724 90.3539 138.225 90.1385 137.599C89.9264 136.972 89.8203 136.19 89.8203 135.252C89.8203 134.364 89.9081 133.575 90.0838 132.886C90.2628 132.196 90.5196 131.615 90.8544 131.141C91.1892 130.663 91.5935 130.3 92.0675 130.052C92.5414 129.803 93.0734 129.679 93.6634 129.679C94.2699 129.679 94.8085 129.798 95.2791 130.037C95.7498 130.276 96.1309 130.605 96.4226 131.026C96.7176 131.447 96.9048 131.926 96.9844 132.463H95.468C95.3653 132.039 95.1615 131.692 94.8565 131.424C94.5516 131.156 94.1539 131.021 93.6634 131.021C92.9176 131.021 92.3359 131.346 91.9183 131.996C91.504 132.645 91.2952 133.549 91.2919 134.705H91.3665C91.5421 134.417 91.7576 134.172 92.0128 133.969C92.2713 133.764 92.5597 133.607 92.8778 133.497C93.1993 133.384 93.5374 133.328 93.892 133.328C94.482 133.328 95.0156 133.472 95.4929 133.761C95.9735 134.046 96.3563 134.44 96.6413 134.944C96.9264 135.448 97.0689 136.024 97.0689 136.674C97.0689 137.324 96.9214 137.912 96.6264 138.439C96.3348 138.966 95.9238 139.384 95.3935 139.692C94.8632 139.997 94.2434 140.146 93.5341 140.139ZM93.5291 138.847C93.9202 138.847 94.2699 138.75 94.5781 138.558C94.8864 138.366 95.13 138.107 95.3089 137.783C95.4879 137.458 95.5774 137.095 95.5774 136.694C95.5774 136.303 95.4896 135.946 95.3139 135.625C95.1416 135.304 94.9029 135.048 94.598 134.859C94.2964 134.67 93.9517 134.576 93.5639 134.576C93.2689 134.576 92.9955 134.632 92.7436 134.745C92.495 134.858 92.2763 135.013 92.0874 135.212C91.8984 135.411 91.7493 135.64 91.6399 135.898C91.5339 136.154 91.4808 136.424 91.4808 136.709C91.4808 137.09 91.5687 137.443 91.7443 137.768C91.9233 138.093 92.1669 138.354 92.4751 138.553C92.7867 138.749 93.138 138.847 93.5291 138.847ZM102.425 140.169C101.639 140.166 100.968 139.959 100.411 139.548C99.8542 139.137 99.4283 138.538 99.1333 137.753C98.8384 136.967 98.6909 136.021 98.6909 134.914C98.6909 133.81 98.8384 132.867 99.1333 132.085C99.4316 131.303 99.8592 130.706 100.416 130.295C100.976 129.884 101.646 129.679 102.425 129.679C103.203 129.679 103.871 129.886 104.428 130.3C104.985 130.711 105.411 131.308 105.706 132.09C106.004 132.869 106.153 133.81 106.153 134.914C106.153 136.024 106.006 136.972 105.711 137.758C105.416 138.54 104.99 139.138 104.433 139.553C103.876 139.964 103.207 140.169 102.425 140.169ZM102.425 138.842C103.114 138.842 103.653 138.505 104.04 137.832C104.431 137.16 104.627 136.187 104.627 134.914C104.627 134.069 104.537 133.355 104.358 132.771C104.183 132.185 103.929 131.741 103.598 131.439C103.27 131.134 102.879 130.982 102.425 130.982C101.738 130.982 101.2 131.32 100.809 131.996C100.418 132.672 100.22 133.645 100.217 134.914C100.217 135.763 100.305 136.48 100.481 137.067C100.66 137.65 100.913 138.093 101.241 138.394C101.569 138.692 101.964 138.842 102.425 138.842ZM113.232 138.091V137.554C113.232 137.17 113.311 136.818 113.47 136.5C113.633 136.179 113.868 135.922 114.176 135.729C114.488 135.534 114.864 135.436 115.305 135.436C115.755 135.436 116.133 135.532 116.438 135.724C116.743 135.917 116.973 136.174 117.129 136.495C117.288 136.817 117.368 137.17 117.368 137.554V138.091C117.368 138.475 117.288 138.828 117.129 139.15C116.97 139.468 116.737 139.725 116.428 139.92C116.123 140.113 115.749 140.209 115.305 140.209C114.857 140.209 114.479 140.113 114.171 139.92C113.863 139.725 113.629 139.468 113.47 139.15C113.311 138.828 113.232 138.475 113.232 138.091ZM114.39 137.554V138.091C114.39 138.376 114.458 138.634 114.594 138.866C114.73 139.098 114.967 139.214 115.305 139.214C115.639 139.214 115.873 139.098 116.006 138.866C116.138 138.634 116.205 138.376 116.205 138.091V137.554C116.205 137.269 116.14 137.01 116.011 136.778C115.885 136.546 115.649 136.43 115.305 136.43C114.973 136.43 114.738 136.546 114.599 136.778C114.46 137.01 114.39 137.269 114.39 137.554ZM108.111 132.264V131.727C108.111 131.343 108.19 130.99 108.349 130.668C108.512 130.347 108.747 130.09 109.055 129.898C109.367 129.705 109.743 129.609 110.184 129.609C110.635 129.609 111.013 129.705 111.317 129.898C111.622 130.09 111.853 130.347 112.009 130.668C112.164 130.99 112.242 131.343 112.242 131.727V132.264C112.242 132.649 112.163 133.002 112.004 133.323C111.848 133.641 111.616 133.898 111.308 134.094C111.003 134.286 110.628 134.382 110.184 134.382C109.733 134.382 109.354 134.286 109.045 134.094C108.741 133.898 108.509 133.641 108.349 133.323C108.19 133.002 108.111 132.649 108.111 132.264ZM109.274 131.727V132.264C109.274 132.549 109.34 132.808 109.473 133.04C109.609 133.272 109.846 133.388 110.184 133.388C110.515 133.388 110.747 133.272 110.88 133.04C111.016 132.808 111.084 132.549 111.084 132.264V131.727C111.084 131.442 111.019 131.184 110.89 130.952C110.761 130.72 110.525 130.604 110.184 130.604C109.853 130.604 109.617 130.72 109.478 130.952C109.342 131.184 109.274 131.442 109.274 131.727ZM108.583 140L115.583 129.818H116.771L109.771 140H108.583Z" fill="black"/>
<path opacity="0.8" d="M249.524 140.139C248.841 140.139 248.232 140.022 247.695 139.786C247.161 139.551 246.738 139.224 246.427 138.807C246.119 138.386 245.953 137.899 245.93 137.345H247.491C247.511 137.647 247.612 137.909 247.794 138.131C247.98 138.349 248.222 138.518 248.52 138.638C248.818 138.757 249.15 138.817 249.514 138.817C249.915 138.817 250.27 138.747 250.578 138.608C250.89 138.469 251.133 138.275 251.309 138.026C251.485 137.774 251.572 137.484 251.572 137.156C251.572 136.815 251.485 136.515 251.309 136.256C251.137 135.995 250.883 135.789 250.548 135.64C250.217 135.491 249.816 135.416 249.345 135.416H248.485V134.163H249.345C249.723 134.163 250.054 134.095 250.339 133.96C250.628 133.824 250.853 133.635 251.016 133.393C251.178 133.147 251.259 132.861 251.259 132.533C251.259 132.218 251.188 131.944 251.045 131.712C250.906 131.477 250.707 131.293 250.449 131.161C250.194 131.028 249.892 130.962 249.544 130.962C249.213 130.962 248.903 131.023 248.614 131.146C248.329 131.265 248.097 131.437 247.918 131.663C247.739 131.885 247.643 132.152 247.63 132.463H246.143C246.16 131.913 246.322 131.429 246.631 131.011C246.942 130.594 247.353 130.267 247.864 130.032C248.374 129.797 248.941 129.679 249.564 129.679C250.217 129.679 250.78 129.807 251.254 130.062C251.732 130.314 252.099 130.65 252.358 131.071C252.62 131.492 252.749 131.953 252.746 132.453C252.749 133.023 252.59 133.507 252.268 133.905C251.95 134.303 251.526 134.569 250.996 134.705V134.785C251.672 134.888 252.196 135.156 252.567 135.59C252.941 136.024 253.127 136.563 253.124 137.206C253.127 137.766 252.971 138.268 252.656 138.712C252.345 139.156 251.919 139.506 251.379 139.761C250.838 140.013 250.22 140.139 249.524 140.139ZM258.866 129.818V140H257.325V131.359H257.265L254.829 132.95V131.479L257.369 129.818H258.866ZM266.935 138.091V137.554C266.935 137.17 267.014 136.818 267.173 136.5C267.336 136.179 267.571 135.922 267.879 135.729C268.191 135.534 268.567 135.436 269.008 135.436C269.459 135.436 269.836 135.532 270.141 135.724C270.446 135.917 270.677 136.174 270.832 136.495C270.991 136.817 271.071 137.17 271.071 137.554V138.091C271.071 138.475 270.991 138.828 270.832 139.15C270.673 139.468 270.44 139.725 270.131 139.92C269.826 140.113 269.452 140.209 269.008 140.209C268.56 140.209 268.183 140.113 267.874 139.92C267.566 139.725 267.332 139.468 267.173 139.15C267.014 138.828 266.935 138.475 266.935 138.091ZM268.093 137.554V138.091C268.093 138.376 268.161 138.634 268.297 138.866C268.433 139.098 268.67 139.214 269.008 139.214C269.343 139.214 269.576 139.098 269.709 138.866C269.841 138.634 269.908 138.376 269.908 138.091V137.554C269.908 137.269 269.843 137.01 269.714 136.778C269.588 136.546 269.353 136.43 269.008 136.43C268.676 136.43 268.441 136.546 268.302 136.778C268.163 137.01 268.093 137.269 268.093 137.554ZM261.814 132.264V131.727C261.814 131.343 261.893 130.99 262.053 130.668C262.215 130.347 262.45 130.09 262.759 129.898C263.07 129.705 263.446 129.609 263.887 129.609C264.338 129.609 264.716 129.705 265.021 129.898C265.326 130.09 265.556 130.347 265.712 130.668C265.867 130.99 265.945 131.343 265.945 131.727V132.264C265.945 132.649 265.866 133.002 265.707 133.323C265.551 133.641 265.319 133.898 265.011 134.094C264.706 134.286 264.331 134.382 263.887 134.382C263.436 134.382 263.057 134.286 262.749 134.094C262.444 133.898 262.212 133.641 262.053 133.323C261.893 133.002 261.814 132.649 261.814 132.264ZM262.977 131.727V132.264C262.977 132.549 263.044 132.808 263.176 133.04C263.312 133.272 263.549 133.388 263.887 133.388C264.219 133.388 264.451 133.272 264.583 133.04C264.719 132.808 264.787 132.549 264.787 132.264V131.727C264.787 131.442 264.722 131.184 264.593 130.952C264.464 130.72 264.228 130.604 263.887 130.604C263.556 130.604 263.32 130.72 263.181 130.952C263.045 131.184 262.977 131.442 262.977 131.727ZM262.286 140L269.286 129.818H270.474L263.474 140H262.286Z" fill="black"/>
<circle cx="180" cy="116" r="39" fill="#FEFEFD"/>
<circle cx="180" cy="116" r="30" fill="#F1F6FF"/>
<path d="M172.48 128.757C177.533 131.897 183.885 130.197 186.699 124.952C187.68 123.123 188.054 121.027 188.041 119.106L187.825 104.714C187.826 103.783 187.261 102.966 186.552 102.526C185.842 102.085 184.939 101.989 184.155 102.433L172.47 109.421C170.911 110.366 169.434 111.735 168.436 113.595C165.622 118.84 167.427 125.617 172.48 128.757ZM179.068 116.476C180.903 117.617 181.567 120.104 180.546 122.009C179.524 123.914 177.19 124.538 175.355 123.398C173.52 122.258 172.856 119.77 173.878 117.865C174.903 115.954 177.233 115.336 179.068 116.476Z" fill="#72A1F7"/>
<g filter="url(#filter0_d_107_2213)">
<rect x="94" y="174" width="59.3793" height="59.3793" rx="29.6897" fill="#72A1F7"/>
</g>
<path fill-rule="evenodd" clip-rule="evenodd" d="M126.713 203.743C129.415 202.645 131.303 200.141 131.303 197.227C131.303 193.3 127.875 190.117 123.647 190.117C119.418 190.117 115.99 193.3 115.99 197.227C115.99 200.14 117.878 202.645 120.58 203.743C115.532 205.094 111.814 209.7 111.814 215.174V217.262H135.479V215.174C135.479 209.7 131.761 205.094 126.713 203.743Z" fill="#DBE5FA"/>
<rect x="179" y="177" width="147" height="13" rx="6.5" fill="#E0E5E4"/>
<rect x="179" y="210" width="75" height="14" rx="7" fill="#E0E5E4"/>
</g>
<defs>
<filter id="filter0_d_107_2213" x="85" y="169" width="77.3794" height="77.3793" filterUnits="userSpaceOnUse" color-interpolation-filters="sRGB">
<feFlood flood-opacity="0" result="BackgroundImageFix"/>
<feColorMatrix in="SourceAlpha" type="matrix" values="0 0 0 0 0 0 0 0 0 0 0 0 0 0 0 0 0 0 127 0" result="hardAlpha"/>
<feOffset dy="4"/>
<feGaussianBlur stdDeviation="4.5"/>
<feComposite in2="hardAlpha" operator="out"/>
<feColorMatrix type="matrix" values="0 0 0 0 0 0 0 0 0 0 0 0 0 0 0 0 0 0 0.05 0"/>
<feBlend mode="normal" in2="BackgroundImageFix" result="effect1_dropShadow_107_2213"/>
<feBlend mode="normal" in="SourceGraphic" in2="effect1_dropShadow_107_2213" result="shape"/>
</filter>
<clipPath id="clip0_107_2213">
<rect width="364" height="430" rx="20" fill="white"/>
</clipPath>
</defs>
</svg>
