<?xml version="1.0" standalone="no"?><!DOCTYPE svg PUBLIC "-//W3C//DTD SVG 1.1//EN" "http://www.w3.org/Graphics/SVG/1.1/DTD/svg11.dtd"><svg t="1639134784950" class="icon" viewBox="0 0 1024 1024" version="1.1" xmlns="http://www.w3.org/2000/svg" p-id="5982" xmlns:xlink="http://www.w3.org/1999/xlink"><defs><style type="text/css"></style></defs><path d="M256 85.333333c-46.933333 0-85.333333 38.4-85.333333 85.333334v682.666666c0 46.933333 38.4 85.333333 85.333333 85.333334h512c46.933333 0 85.333333-38.4 85.333333-85.333334V339.2L599.466667 85.333333H256z" fill="#66CC66" p-id="5983"></path><path d="M684.8 339.2h168.533333L599.466667 85.333333v168.533334c0 46.933333 38.4 85.333333 85.333333 85.333333z" fill="#FFFFFF" opacity=".4" p-id="5984"></path><path d="M349.866667 545.706667c0 2.346667-0.64 5.12-1.706667 7.893333-1.066667 2.773333-2.773333 5.546667-5.12 8.32-2.346667 2.773333-5.333333 4.906667-8.96 6.613333-3.626667 1.706667-7.68 2.56-12.586667 2.56-3.626667 0-6.826667-0.426667-9.813333-1.066666-2.986667-0.853333-5.76-1.92-8.106667-3.626667-2.346667-1.706667-4.693333-3.626667-6.613333-6.4-1.706667-2.346667-3.413333-5.12-4.693333-7.893333-1.28-2.986667-2.346667-5.973333-2.773334-9.386667-0.64-3.413333-0.853333-6.826667-0.853333-10.666667 0-6.186667 0.853333-11.52 2.346667-16.426666 1.706667-4.906667 3.84-8.96 6.826666-12.373334 2.986667-3.413333 6.613333-5.973333 10.666667-7.893333 4.053333-1.706667 8.32-2.56 12.8-2.56 5.546667 0 10.453333 1.28 14.933333 3.626667 4.266667 2.56 7.68 5.546667 10.026667 8.96 2.346667 3.626667 3.413333 7.04 3.413333 10.24 0 1.706667-0.64 3.2-1.706666 4.693333-1.066667 1.28-2.56 1.92-4.053334 1.92-1.706667 0-3.2-0.426667-4.053333-1.493333-0.853333-0.853333-1.92-2.56-2.986667-4.693334-1.706667-3.84-3.84-6.613333-6.4-8.32-2.56-1.92-5.546667-2.773333-8.96-2.773333-5.76 0-10.24 2.346667-13.653333 7.253333s-5.12 11.52-5.12 20.48c0 5.973333 0.853333 10.666667 2.346667 14.72 1.493333 3.84 3.626667 6.826667 6.4 8.746667 2.773333 1.92 5.973333 2.986667 9.6 2.986667 4.053333 0 7.466667-1.066667 10.24-3.2 2.773333-2.133333 4.906667-5.333333 6.186666-9.6 0.64-1.92 1.28-3.626667 2.133334-4.906667 0.853333-1.28 2.346667-1.92 4.266666-1.92 1.706667 0 2.986667 0.64 4.266667 1.92s1.706667 2.346667 1.706667 4.266667zM406.4 561.066667l-3.2-9.386667h-27.946667l-3.2 9.6c-1.28 3.84-2.346667 6.4-3.2 7.68-0.853333 1.28-2.346667 1.92-4.48 1.92-1.706667 0-3.2-0.64-4.693333-2.133333-1.28-1.493333-1.92-2.986667-1.92-4.693334 0-1.066667 0.213333-2.133333 0.426667-3.2s0.853333-2.56 1.493333-4.693333l17.493333-49.066667c0.426667-1.493333 1.066667-3.2 1.706667-5.12 0.64-1.92 1.493333-3.626667 2.346667-4.906666s1.92-2.346667 3.2-3.2c1.28-0.853333 2.986667-1.28 4.693333-1.28 1.92 0 3.626667 0.426667 4.906667 1.28s2.346667 1.92 3.2 3.2 1.493333 2.56 1.92 4.053333c0.64 1.493333 1.28 3.413333 2.133333 5.76l17.92 48.853333c1.493333 3.626667 2.133333 6.4 2.133333 8.106667 0 1.706667-0.64 3.413333-1.92 4.906667s-2.986667 2.133333-4.693333 2.133333c-1.066667 0-2.133333-0.213333-2.773333-0.64-0.853333-0.426667-1.493333-1.066667-1.92-1.706667-0.64-0.853333-1.066667-1.92-1.706667-3.413333-0.853333-1.493333-1.493333-2.773333-1.92-4.053333z m-27.52-20.906667h20.48l-10.453333-31.146667-10.026667 31.146667zM440.106667 494.08h18.133333c4.693333 0 8.746667 0.426667 12.16 1.493333s6.4 2.773333 9.173333 5.333334c7.253333 6.826667 10.666667 17.066667 10.666667 30.72 0 4.48-0.426667 8.746667-1.066667 12.373333-0.64 3.84-1.92 7.04-3.413333 10.24-1.493333 2.986667-3.413333 5.76-5.76 8.106667-1.92 1.92-3.84 3.2-5.973333 4.48-2.133333 1.066667-4.48 1.92-7.04 2.346666-2.56 0.426667-5.333333 0.64-8.533334 0.64h-18.133333c-2.56 0-4.48-0.426667-5.76-1.28-1.28-0.853333-2.133333-1.92-2.56-3.626666-0.426667-1.493333-0.64-3.626667-0.64-5.973334v-55.466666c0-3.2 0.64-5.76 1.92-7.253334 1.706667-1.493333 3.84-2.133333 6.826667-2.133333z m5.333333 12.16v51.413333h10.453333c2.346667 0 4.053333 0 5.333334-0.213333s2.56-0.426667 4.053333-1.066667 2.56-1.28 3.626667-2.346666c4.693333-4.266667 7.04-11.733333 7.04-22.4 0-7.466667-1.066667-13.013333-2.986667-16.853334-2.133333-3.626667-4.48-6.186667-7.466667-7.04-2.986667-1.066667-6.613333-1.493333-10.88-1.493333h-9.173333z" fill="#FFFFFF" p-id="5985"></path><path d="M595.84 663.466667h-21.333333v-21.333334c0-5.973333-4.693333-10.666667-10.666667-10.666666h-20.693333v-162.133334c0-5.973333-4.693333-10.666667-10.666667-10.666666s-10.666667 4.693333-10.666667 10.666666v162.133334h-21.973333c-5.973333 0-10.666667 4.693333-10.666667 10.666666v21.333334h-192c-5.973333 0-10.666667 4.693333-10.666666 10.666666s4.693333 10.666667 10.666666 10.666667h192v21.333333c0 5.973333 4.693333 10.666667 10.666667 10.666667h21.973333v29.866667c0 5.973333 4.693333 10.666667 10.666667 10.666666s10.666667-4.693333 10.666667-10.666666v-29.866667h20.693333c5.973333 0 10.666667-4.693333 10.666667-10.666667v-21.333333h21.333333c5.973333 0 10.666667-4.693333 10.666667-10.666667s-4.693333-10.666667-10.666667-10.666666z" fill="#FFFFFF" p-id="5986"></path></svg>
