<svg t="1625905714964" class="icon" viewBox="0 0 1024 1024" version="1.1" xmlns="http://www.w3.org/2000/svg" p-id="5142"><path d="M208.50324948 98.14070655a39.70462592 39.70462592 0 0 0-28.9701507 12.41577865C171.94621747 118.83367123 167.11812845 129.18015316 167.11812845 139.52663591v744.94672818a39.70462592 39.70462592 0 0 0 12.41577864 28.97015071 40.85728849 40.85728849 0 0 0 28.97015071 12.41577865h606.99255288a39.70462592 39.70462592 0 0 0 28.97014989-12.41577865 40.85809681 40.85809681 0 0 0 12.41577946-28.97015071V332.661512L622.36254291 98.14070655z" fill="#00B632" p-id="5143"></path><path d="M856.88254003 332.66070368H663.74847227a42.43108545 42.43108545 0 0 1-41.38592936-41.38592935V98.14070655z" fill="#7FDA98" p-id="5144"></path><path d="M470.5979835 562.96619147L347.70913646 395.26361736h84.93973992l80.40136879 120.04282628L597.13826555 395.26361736h82.2319775L553.70711404 562.96619147l131.93558998 178.4253654H599.85450603l-88.63487023-127.20352768L422.81106469 742.21197275H338.69434864z" fill="#FFFFFF" p-id="5145"></path></svg>
