<?xml version="1.0" standalone="no"?><!DOCTYPE svg PUBLIC "-//W3C//DTD SVG 1.1//EN" "http://www.w3.org/Graphics/SVG/1.1/DTD/svg11.dtd"><svg t="1625028302681" class="icon" viewBox="0 0 1024 1024" version="1.1" xmlns="http://www.w3.org/2000/svg" p-id="9763" xmlns:xlink="http://www.w3.org/1999/xlink" width="1024" height="1024"><defs><style type="text/css"></style></defs><path d="M256 85.333333c-46.933333 0-85.333333 38.4-85.333333 85.333334v682.666666c0 46.933333 38.4 85.333333 85.333333 85.333334h512c46.933333 0 85.333333-38.4 85.333333-85.333334V337.066667L601.6 85.333333H256z" fill="#434343" p-id="9764"></path><path d="M686.933333 337.066667H853.333333L601.6 85.333333v166.4c0 46.933333 38.4 85.333333 85.333333 85.333334z" fill="#FFFFFF" opacity=".4" p-id="9765"></path><path d="M469.333333 682.666667h102.4c4.266667 0 8.533333-4.266667 8.533334-8.533334v-42.666666c0-4.266667-4.266667-8.533333-8.533334-8.533334H469.333333c-4.266667 0-8.533333 4.266667-8.533333 8.533334v8.533333H405.333333l-38.4-38.4v-38.4c12.8-4.266667 21.333333-17.066667 21.333334-29.866667 0-17.066667-12.8-34.133333-34.133334-34.133333s-34.133333 12.8-34.133333 34.133333c0 12.8 8.533333 25.6 21.333333 29.866667v38.4l-38.4 38.4c-4.266667 4.266667-4.266667 12.8 0 17.066667l38.4 38.4v51.2c0 4.266667 4.266667 8.533333 8.533334 8.533333h102.4v8.533333c0 4.266667 4.266667 8.533333 8.533333 8.533334h102.4c4.266667 0 8.533333-4.266667 8.533333-8.533334v-42.666666c0-4.266667-4.266667-8.533333-8.533333-8.533334H469.333333c-4.266667 0-8.533333 4.266667-8.533333 8.533334v8.533333H366.933333v-42.666667l38.4-38.4h55.466667v8.533334c0 21.333333 4.266667 25.6 8.533333 25.6z m12.8 55.466666h81.066667v21.333334h-81.066667v-21.333334z m-123.733333-59.733333l-25.6-25.6 25.6-25.6 25.6 21.333333-25.6 29.866667z m123.733333-38.4h81.066667v21.333333h-81.066667V640z" fill="#FFFFFF" p-id="9766"></path></svg>