<?xml version="1.0" standalone="no"?><!DOCTYPE svg PUBLIC "-//W3C//DTD SVG 1.1//EN" "http://www.w3.org/Graphics/SVG/1.1/DTD/svg11.dtd"><svg t="1639131652752" class="icon" viewBox="0 0 1024 1024" version="1.1" xmlns="http://www.w3.org/2000/svg" p-id="11826" xmlns:xlink="http://www.w3.org/1999/xlink"><defs><style type="text/css"></style></defs><path d="M256 85.333333c-46.933333 0-85.333333 38.4-85.333333 85.333334v682.666666c0 46.933333 38.4 85.333333 85.333333 85.333334h512c46.933333 0 85.333333-38.4 85.333333-85.333334V337.066667L601.6 85.333333H256z" fill="#6067DC" p-id="11827"></path><path d="M686.933333 337.066667H853.333333L601.6 85.333333v166.4c0 46.933333 38.4 85.333333 85.333333 85.333334z" fill="#FFFFFF" opacity=".4" p-id="11828"></path><path d="M516.266667 627.2v29.866667l59.733333 51.2c12.8 8.533333 29.866667 0 29.866667-12.8v-106.666667c0-12.8-17.066667-21.333333-29.866667-12.8l-59.733333 51.2z" fill="#FFFFFF" p-id="11829"></path><path d="M473.6 529.066667H328.533333c-21.333333 0-42.666667 21.333333-42.666666 42.666666v140.8c0 21.333333 21.333333 42.666667 42.666666 42.666667h149.333334c21.333333 0 42.666667-21.333333 42.666666-42.666667v-140.8c-4.266667-21.333333-21.333333-42.666667-46.933333-42.666666z m-29.866667 119.466666l-55.466666 42.666667c-4.266667 4.266667-12.8 0-12.8-8.533333v-85.333334c0-8.533333 8.533333-12.8 12.8-8.533333l55.466666 42.666667c4.266667 8.533333 4.266667 12.8 0 17.066666z" fill="#FFFFFF" p-id="11830"></path></svg>
