<?xml version="1.0" standalone="no"?><!DOCTYPE svg PUBLIC "-//W3C//DTD SVG 1.1//EN" "http://www.w3.org/Graphics/SVG/1.1/DTD/svg11.dtd"><svg t="1639159863770" class="icon" viewBox="0 0 1024 1024" version="1.1" xmlns="http://www.w3.org/2000/svg" p-id="6249" xmlns:xlink="http://www.w3.org/1999/xlink"><defs><style type="text/css"></style></defs><path d="M208.50324948 98.14070655a39.70462592 39.70462592 0 0 0-28.9701507 12.41577865C171.94621747 118.83367123 167.11812845 129.18015316 167.11812845 139.52663591v744.94672818a39.70462592 39.70462592 0 0 0 12.41577864 28.97015071 40.85728849 40.85728849 0 0 0 28.97015071 12.41577865h606.99255288a39.70462592 39.70462592 0 0 0 28.97014989-12.41577865 40.85809681 40.85809681 0 0 0 12.41577946-28.97015071V332.661512L622.36173459 98.14070655z" fill="#356FFE" p-id="6250"></path><path d="M856.88173172 332.66070368H663.74766394a42.43108545 42.43108545 0 0 1-41.38592935-41.38592935V98.14070655z" fill="#AEC5FE" p-id="6251"></path><path d="M624.92653026 367.31091116a25.01908736 25.01908736 0 0 1 0 50.03494147 75.0564546 75.0564546 0 0 0-75.05645379 75.0564546v180.13872416a125.09462933 125.09462933 0 1 1-79.91040983-116.68811302 25.01827905 25.01827905 0 1 1-18.06431179 46.66182727 75.0564546 75.0564546 0 1 0 47.81125657 74.43000711l0.12528949-4.40372136V487.40123788a22.77923608 22.77923608 0 0 1 0.250579-3.22761753A125.09462933 125.09462933 0 0 1 624.92653026 367.31091116z m75.0564546 195.14678132a25.01908736 25.01908736 0 1 1 0 50.03494228H599.90825121a25.01908736 25.01908736 0 0 1 0-50.03494228h100.07554196z" fill="#FFFFFF" p-id="6252"></path></svg>
