<svg t="1626148939398" class="icon" viewBox="0 0 1024 1024" version="1.1" xmlns="http://www.w3.org/2000/svg" p-id="10646"><path d="M256 85.333333c-46.933333 0-85.333333 38.4-85.333333 85.333334v682.666666c0 46.933333 38.4 85.333333 85.333333 85.333334h512c46.933333 0 85.333333-38.4 85.333333-85.333334V337.066667L601.6 85.333333H256z" fill="#FF8F6B" p-id="10647"></path><path d="M686.933333 337.066667H853.333333L601.6 85.333333v166.4c0 46.933333 38.4 85.333333 85.333333 85.333334z" fill="#FFFFFF" opacity=".4" p-id="10648"></path><path d="M520.533333 563.2c-4.266667-8.533333-8.533333-17.066667-17.066666-21.333333l-25.6-12.8c-8.533333 0-17.066667-4.266667-29.866667-4.266667h-85.333333v234.666667h34.133333v-93.866667h51.2c29.866667 0 51.2-8.533333 64-21.333333 12.8-12.8 17.066667-29.866667 17.066667-51.2-4.266667-8.533333-4.266667-21.333333-8.533334-29.866667z m-29.866666 34.133333c0 12.8-4.266667 21.333333-8.533334 29.866667-8.533333 8.533333-17.066667 8.533333-34.133333 8.533333H396.8v-76.8H473.6c8.533333 0 12.8 4.266667 17.066667 12.8v25.6z" fill="#FFFFFF" p-id="10649"></path></svg>