<svg t="1626148962029" class="icon" viewBox="0 0 1024 1024" version="1.1" xmlns="http://www.w3.org/2000/svg" p-id="10780"><path d="M520.533333 226.133333L554.666667 298.666667c12.8 29.866667 42.666667 46.933333 76.8 46.933333h174.933333c21.333333 0 38.4 4.266667 55.466667 12.8V290.133333c0-34.133333-29.866667-64-64-64h-277.333334z" fill="#F9B552" p-id="10781"></path><path d="M844.8 345.6h-209.066667c-34.133333 0-64-17.066667-76.8-46.933333L512 209.066667c-12.8-29.866667-42.666667-46.933333-76.8-46.933334h-256c-46.933333 0-85.333333 38.4-85.333333 85.333334v529.066666c0 46.933333 38.4 85.333333 85.333333 85.333334h661.333333c46.933333 0 85.333333-38.4 85.333334-85.333334v-341.333333c4.266667-51.2-34.133333-89.6-81.066667-89.6z" fill="#FFCF5C" p-id="10782"></path><path d="M315.733333 554.666667c4.266667 0 8.533333 0 12.8-4.266667l29.866667-29.866667v140.8c0 8.533333 8.533333 17.066667 17.066667 17.066667s17.066667-8.533333 17.066666-17.066667v-140.8l29.866667 29.866667s4.266667 4.266667 8.533333 4.266667 8.533333 0 12.8-4.266667c4.266667-4.266667 4.266667-17.066667 0-21.333333L384 465.066667c-4.266667-4.266667-8.533333-4.266667-12.8-4.266667-4.266667 0-8.533333 0-12.8 4.266667L298.666667 524.8c-4.266667 4.266667-4.266667 17.066667 0 21.333333 8.533333 4.266667 12.8 8.533333 17.066666 8.533334z" fill="#FFFFFF" p-id="10783"></path><path d="M473.6 571.733333h-12.8c-8.533333 0-17.066667 8.533333-17.066667 17.066667s8.533333 17.066667 17.066667 17.066667h12.8c8.533333 0 12.8 4.266667 12.8 12.8v85.333333c0 8.533333-8.533333 17.066667-17.066667 17.066667H277.333333c-8.533333 0-17.066667-8.533333-17.066666-17.066667v-85.333333c0-8.533333 4.266667-12.8 12.8-12.8h12.8c8.533333 0 17.066667-8.533333 17.066666-17.066667s-8.533333-17.066667-17.066666-17.066667h-12.8c-25.6 0-42.666667 21.333333-42.666667 42.666667v85.333333c0 25.6 21.333333 46.933333 46.933333 46.933334H469.333333c25.6 0 46.933333-21.333333 46.933334-46.933334v-85.333333c0-21.333333-17.066667-42.666667-42.666667-42.666667z" fill="#FFFFFF" p-id="10784"></path></svg>