<?xml version="1.0" standalone="no"?><!DOCTYPE svg PUBLIC "-//W3C//DTD SVG 1.1//EN" "http://www.w3.org/Graphics/SVG/1.1/DTD/svg11.dtd"><svg t="1625931291710" class="icon" viewBox="0 0 1024 1024" version="1.1" xmlns="http://www.w3.org/2000/svg" p-id="5154" xmlns:xlink="http://www.w3.org/1999/xlink"><defs><style type="text/css"></style></defs><path d="M209.60960101 98.14049639C187.14116856 98.70748393 169.06378546 116.81383719 168.49679793 139.31123981V880.87297556a39.37045459 39.37045459 0 0 0 12.34542899 28.80462145 40.39268755 40.39268755 0 0 0 28.76737408 12.36612197h603.27885982a39.31665284 39.31665284 0 0 0 28.76737408-12.36198337 40.71549797 40.71549797 0 0 0 12.34542901-28.80876005V331.51587048L620.90317569 98.14049639H209.60960101z" fill="#2171ff" p-id="5155"></path><path d="M854.00126391 331.51587048h-191.93148339c-22.48912543-0.53801736-40.59961731-18.65264783-41.16660483-41.17074341V98.14049639l233.09808822 233.37537409z" fill="#C4EAFF" p-id="5156"></path><path d="M384.41971674 536.88537197h71.97430626v116.68768702a14.12502485 14.12502485 0 0 0 13.74013553 13.7566899h82.22974477a14.12502485 14.12502485 0 0 0 13.74013552-13.7566899v-116.68768702h71.97016768a5.95957685 5.95957685 0 0 0 6.17478379-4.13859506c0.95187686-2.57420611 0.41385952-5.46294544-1.39470654-7.52396576L520.8567793 408.42752063a15.44523667 15.44523667 0 0 0-9.60567909-4.13859504 12.44475529 12.44475529 0 0 0-9.60981767 4.13859504L379.64791667 525.11520768a6.13339783 6.13339783 0 0 0-1.39470653 7.52396577c1.00153999 2.52454297 3.45572686 4.1758424 6.17064519 4.13859503v0.10760349z m298.20646532 178.49760389H339.87187977a13.73599692 13.73599692 0 0 0-12.61029907 6.60519767 13.77738286 13.77738286 0 0 0 0 14.25332131 13.73599692 13.73599692 0 0 0 12.61029905 6.60519767h342.75430231a13.75255131 13.75255131 0 0 0 12.87930775-13.73185833 13.75255131 13.75255131 0 0 0-12.87930775-13.73185832z" fill="#FFFFFF" p-id="5157"></path></svg>