<svg t="1626149003520" class="icon" viewBox="0 0 1024 1024" version="1.1" xmlns="http://www.w3.org/2000/svg" p-id="11049"><path d="M256 85.333333c-46.933333 0-85.333333 38.4-85.333333 85.333334v682.666666c0 46.933333 38.4 85.333333 85.333333 85.333334h512c46.933333 0 85.333333-38.4 85.333333-85.333334V337.066667L601.6 85.333333H256z" fill="#188FE1" p-id="11050"></path><path d="M686.933333 337.066667H853.333333L601.6 85.333333v166.4c0 46.933333 38.4 85.333333 85.333333 85.333334z" fill="#FFFFFF" opacity=".4" p-id="11051"></path><path d="M384 588.8c4.266667 0 8.533333 0 12.8-4.266667l29.866667-29.866666v140.8c0 8.533333 8.533333 17.066667 17.066666 17.066666s17.066667-8.533333 17.066667-17.066666V554.666667l29.866667 29.866666c4.266667 4.266667 8.533333 4.266667 12.8 4.266667s8.533333 0 12.8-4.266667c4.266667-4.266667 4.266667-17.066667 0-21.333333l-59.733334-59.733333c-4.266667-4.266667-8.533333-4.266667-12.8-4.266667-4.266667 0-8.533333 0-12.8 4.266667l-59.733333 59.733333c-4.266667 4.266667-4.266667 17.066667 0 21.333333 4.266667 4.266667 8.533333 4.266667 12.8 4.266667z" fill="#FFFFFF" p-id="11052"></path><path d="M541.866667 610.133333h-12.8c-8.533333 0-17.066667 8.533333-17.066667 17.066667s8.533333 17.066667 17.066667 17.066667h12.8c8.533333 0 12.8 4.266667 12.8 12.8v85.333333c0 8.533333-8.533333 17.066667-17.066667 17.066667H345.6c-8.533333 0-17.066667-8.533333-17.066667-17.066667v-85.333333c4.266667-8.533333 8.533333-17.066667 12.8-17.066667h12.8c8.533333 0 17.066667-8.533333 17.066667-17.066667s-8.533333-17.066667-17.066667-17.066666H341.333333c-25.6 0-42.666667 21.333333-42.666666 42.666666v85.333334c0 25.6 21.333333 46.933333 46.933333 46.933333h192c25.6 0 46.933333-21.333333 46.933333-46.933333v-85.333334c4.266667-21.333333-17.066667-38.4-42.666666-38.4z" fill="#FFFFFF" p-id="11053"></path></svg>