<?xml version="1.0" standalone="no"?><!DOCTYPE svg PUBLIC "-//W3C//DTD SVG 1.1//EN" "http://www.w3.org/Graphics/SVG/1.1/DTD/svg11.dtd"><svg t="1625904736194" class="icon" viewBox="0 0 1024 1024" version="1.1" xmlns="http://www.w3.org/2000/svg" p-id="5418" xmlns:xlink="http://www.w3.org/1999/xlink"><defs><style type="text/css"></style></defs><path d="M208.50324948 98.14070655a39.70462592 39.70462592 0 0 0-28.9701507 12.41577865C171.94621747 118.83367123 167.11812845 129.18015316 167.11812845 139.52663591v744.94672818a39.70462592 39.70462592 0 0 0 12.41577864 28.97015071 40.85728849 40.85728849 0 0 0 28.97015071 12.41577865h606.99255288a39.70462592 39.70462592 0 0 0 28.97014989-12.41577865 40.85809681 40.85809681 0 0 0 12.41577946-28.97015071V332.661512L622.36254291 98.14070655z" fill="#2F97FE" p-id="5419"></path><path d="M856.88254003 332.66070368H663.74847227a42.43108545 42.43108545 0 0 1-41.38592936-41.38592935V98.14070655z" fill="#97C6FF" p-id="5420"></path><path d="M293.81888752 435.20970121h71.63564876l58.5837236 217.26723794L482.05050089 435.20970121h59.71456156l58.01870757 217.26723794 58.58129785-217.26400465h71.63564875l-98.97703599 294.03409547h-60.32484266l-58.57887287-214.95463713-59.14712138 214.95463713h-60.27715101z m0 0" fill="#FFFFFF" p-id="5421"></path></svg>