<?xml version="1.0" standalone="no"?><!DOCTYPE svg PUBLIC "-//W3C//DTD SVG 1.1//EN" "http://www.w3.org/Graphics/SVG/1.1/DTD/svg11.dtd"><svg t="1639159884437" class="icon" viewBox="0 0 1024 1024" version="1.1" xmlns="http://www.w3.org/2000/svg" p-id="6546" xmlns:xlink="http://www.w3.org/1999/xlink"><defs><style type="text/css"></style></defs><path d="M208.50324948 98.14070655a39.70462592 39.70462592 0 0 0-28.9701507 12.41577865C171.94621747 118.83367123 167.11812845 129.18015316 167.11812845 139.52663591v744.94672818a39.70462592 39.70462592 0 0 0 12.41577864 28.97015071 40.85728849 40.85728849 0 0 0 28.97015071 12.41577865h606.99255288a39.70462592 39.70462592 0 0 0 28.97014989-12.41577865 40.85809681 40.85809681 0 0 0 12.41577946-28.97015071V332.661512L622.36254291 98.14070655z" fill="#4D97FF" p-id="6547"></path><path d="M856.88254003 332.66070368H663.74847227a42.43108545 42.43108545 0 0 1-41.38592936-41.38592935V98.14070655z" fill="#A5D2FF" p-id="6548"></path><path d="M333.03124777 465.31149819h91.02883673l42.47150141 79.68327209c3.89205602 7.23283745 13.2370311 10.1444029 20.92333569 6.51990059a14.87306864 14.87306864 0 0 0 7.81967728-8.4558246 13.84003652 13.84003652 0 0 0-0.86409337-11.19521643L447.62823946 444.1117181a15.73392793 15.73392793 0 0 0-13.90793534-8.09127258H308.97648457a15.88023374 15.88023374 0 0 0-13.07455891 6.6581232 13.84731139 13.84731139 0 0 0-1.22379469 13.87156097l124.73977715 263.2646259a15.66441246 15.66441246 0 0 0 13.56440043 8.6684126 15.85275087 15.85275087 0 0 0 14.31532829-7.51736586l151.55980003-255.65996238H690.44724642L588.83104859 679.69465434l-31.9916468-60.10982972c-3.89690594-7.2271792-13.23622277-10.13712802-20.92333568-6.51989977a14.87306864 14.87306864 0 0 0-7.81806064 8.45582379 13.83922819 13.83922819 0 0 0 0.86409337 11.19521724l46.78469101 87.74787014a16.04998079 16.04998079 0 0 0 28.15940722-0.5892648l124.74543538-263.26947582a13.84650307 13.84650307 0 0 0-1.16317073-13.92895164A15.88185037 15.88185037 0 0 0 714.3880366 436.01802056H589.69837524a15.78889364 15.78889364 0 0 0-13.62664101 7.51736585L435.27470142 681.17387792z" fill="#FFFFFF" p-id="6549"></path></svg>
