<svg width="528" height="240" viewBox="0 0 528 240" fill="none" xmlns="http://www.w3.org/2000/svg">
<g clip-path="url(#clip0_1358_671)">
<rect width="528" height="240" rx="20" fill="#F8F6F6"/>
<rect x="50" y="96" width="501" height="351" rx="10" fill="#F8D7CF"/>
<rect x="76" y="114" width="463" height="314" fill="#F5FAFA"/>
<path d="M169 181H522" stroke="#E7E9E4" stroke-width="2" stroke-dasharray="12 12"/>
<path d="M169 220H522" stroke="#E7E9E4" stroke-width="2" stroke-dasharray="12 12"/>
<rect x="124.5" y="156.5" width="414" height="133" rx="8.5" stroke="#E7E9E4"/>
<rect x="492" y="191" width="18" height="64" rx="9" fill="url(#paint0_linear_1358_671)"/>
<rect x="401" y="191" width="18" height="64" rx="9" fill="url(#paint1_linear_1358_671)"/>
<rect x="446" y="209" width="18" height="64" rx="9" fill="url(#paint2_linear_1358_671)"/>
<rect x="176" y="209" width="18" height="64" rx="9" fill="url(#paint3_linear_1358_671)"/>
<rect x="221" y="177" width="18" height="64" rx="9" fill="url(#paint4_linear_1358_671)"/>
<rect x="266" y="191" width="18" height="64" rx="9" fill="url(#paint5_linear_1358_671)"/>
<rect x="311" y="209" width="18" height="64" rx="9" fill="url(#paint6_linear_1358_671)"/>
<rect x="356" y="182" width="18" height="64" rx="9" fill="url(#paint7_linear_1358_671)"/>
<mask id="path-15-inside-1_1358_671" fill="white">
<path d="M305 114C305 101.524 302.543 89.171 297.769 77.6451C292.994 66.1191 285.997 55.6464 277.175 46.8249C268.354 38.0033 257.881 31.0056 246.355 26.2314C234.829 21.4572 222.476 19 210 19C197.524 19 185.171 21.4572 173.645 26.2314C162.119 31.0056 151.646 38.0033 142.825 46.8249C134.003 55.6464 127.006 66.1191 122.231 77.6451C117.457 89.171 115 101.524 115 114H149.013C149.013 105.991 150.591 98.0606 153.655 90.6613C156.72 83.262 161.213 76.5389 166.876 70.8757C172.539 65.2126 179.262 60.7203 186.661 57.6554C194.061 54.5906 201.991 53.0131 210 53.0131C218.009 53.0131 225.939 54.5906 233.339 57.6554C240.738 60.7203 247.461 65.2126 253.124 70.8757C258.787 76.5389 263.28 83.262 266.345 90.6613C269.409 98.0606 270.987 105.991 270.987 114H305Z"/>
</mask>
<path d="M305 114C305 101.524 302.543 89.171 297.769 77.6451C292.994 66.1191 285.997 55.6464 277.175 46.8249C268.354 38.0033 257.881 31.0056 246.355 26.2314C234.829 21.4572 222.476 19 210 19C197.524 19 185.171 21.4572 173.645 26.2314C162.119 31.0056 151.646 38.0033 142.825 46.8249C134.003 55.6464 127.006 66.1191 122.231 77.6451C117.457 89.171 115 101.524 115 114H149.013C149.013 105.991 150.591 98.0606 153.655 90.6613C156.72 83.262 161.213 76.5389 166.876 70.8757C172.539 65.2126 179.262 60.7203 186.661 57.6554C194.061 54.5906 201.991 53.0131 210 53.0131C218.009 53.0131 225.939 54.5906 233.339 57.6554C240.738 60.7203 247.461 65.2126 253.124 70.8757C258.787 76.5389 263.28 83.262 266.345 90.6613C269.409 98.0606 270.987 105.991 270.987 114H305Z" stroke="#52459F" stroke-width="68" mask="url(#path-15-inside-1_1358_671)"/>
<mask id="path-16-inside-2_1358_671" fill="white">
<path d="M305 114C305 88.8044 294.991 64.6408 277.175 46.8249C259.359 29.0089 235.196 19 210 19C184.804 19 160.641 29.0089 142.825 46.8248C125.009 64.6408 115 88.8044 115 114L149.03 114C149.03 97.8297 155.454 82.3218 166.888 70.8877C178.322 59.4536 193.83 53.03 210 53.03C226.17 53.03 241.678 59.4536 253.112 70.8877C264.546 82.3218 270.97 97.8298 270.97 114H305Z"/>
</mask>
<path d="M305 114C305 88.8044 294.991 64.6408 277.175 46.8249C259.359 29.0089 235.196 19 210 19C184.804 19 160.641 29.0089 142.825 46.8248C125.009 64.6408 115 88.8044 115 114L149.03 114C149.03 97.8297 155.454 82.3218 166.888 70.8877C178.322 59.4536 193.83 53.03 210 53.03C226.17 53.03 241.678 59.4536 253.112 70.8877C264.546 82.3218 270.97 97.8298 270.97 114H305Z" stroke="#FF7155" stroke-width="68" mask="url(#path-16-inside-2_1358_671)"/>
<mask id="path-17-inside-3_1358_671" fill="white">
<path d="M305 114C305 94.391 298.932 75.2623 287.629 59.2389C276.325 43.2155 260.341 31.0824 241.868 24.5045L230.452 56.5627C242.308 60.7844 252.567 68.5712 259.821 78.8549C267.076 89.1386 270.97 101.415 270.97 114H305Z"/>
</mask>
<path d="M305 114C305 94.391 298.932 75.2623 287.629 59.2389C276.325 43.2155 260.341 31.0824 241.868 24.5045L230.452 56.5627C242.308 60.7844 252.567 68.5712 259.821 78.8549C267.076 89.1386 270.97 101.415 270.97 114H305Z" stroke="#F3474C" stroke-width="68" mask="url(#path-17-inside-3_1358_671)"/>
<mask id="path-18-inside-4_1358_671" fill="white">
<path d="M305 114C305 99.5478 301.703 85.2861 295.359 72.3005C289.015 59.315 279.793 47.948 268.393 39.0648L247.476 65.9073C254.792 71.6085 260.711 78.9037 264.783 87.2377C268.854 95.5717 270.97 104.725 270.97 114H305Z"/>
</mask>
<path d="M305 114C305 99.5478 301.703 85.2861 295.359 72.3005C289.015 59.315 279.793 47.948 268.393 39.0648L247.476 65.9073C254.792 71.6085 260.711 78.9037 264.783 87.2377C268.854 95.5717 270.97 104.725 270.97 114H305Z" stroke="#EE61D4" stroke-width="68" mask="url(#path-18-inside-4_1358_671)"/>
<path opacity="0.8" d="M123.534 138.139C123.08 138.133 122.633 138.05 122.192 137.891C121.754 137.732 121.357 137.466 120.999 137.095C120.641 136.724 120.354 136.225 120.138 135.599C119.926 134.972 119.82 134.19 119.82 133.252C119.82 132.364 119.908 131.575 120.084 130.886C120.263 130.196 120.52 129.615 120.854 129.141C121.189 128.663 121.594 128.3 122.067 128.052C122.541 127.803 123.073 127.679 123.663 127.679C124.27 127.679 124.808 127.798 125.279 128.037C125.75 128.276 126.131 128.605 126.423 129.026C126.718 129.447 126.905 129.926 126.984 130.463H125.468C125.365 130.039 125.161 129.692 124.857 129.424C124.552 129.156 124.154 129.021 123.663 129.021C122.918 129.021 122.336 129.346 121.918 129.996C121.504 130.645 121.295 131.549 121.292 132.705H121.366C121.542 132.417 121.758 132.172 122.013 131.969C122.271 131.764 122.56 131.607 122.878 131.497C123.199 131.384 123.537 131.328 123.892 131.328C124.482 131.328 125.016 131.472 125.493 131.761C125.973 132.046 126.356 132.44 126.641 132.944C126.926 133.448 127.069 134.024 127.069 134.674C127.069 135.324 126.921 135.912 126.626 136.439C126.335 136.966 125.924 137.384 125.393 137.692C124.863 137.997 124.243 138.146 123.534 138.139ZM123.529 136.847C123.92 136.847 124.27 136.75 124.578 136.558C124.886 136.366 125.13 136.107 125.309 135.783C125.488 135.458 125.577 135.095 125.577 134.694C125.577 134.303 125.49 133.946 125.314 133.625C125.142 133.304 124.903 133.048 124.598 132.859C124.296 132.67 123.952 132.576 123.564 132.576C123.269 132.576 122.996 132.632 122.744 132.745C122.495 132.858 122.276 133.013 122.087 133.212C121.898 133.411 121.749 133.64 121.64 133.898C121.534 134.154 121.481 134.424 121.481 134.709C121.481 135.09 121.569 135.443 121.744 135.768C121.923 136.093 122.167 136.354 122.475 136.553C122.787 136.749 123.138 136.847 123.529 136.847ZM132.425 138.169C131.639 138.166 130.968 137.959 130.411 137.548C129.854 137.137 129.428 136.538 129.133 135.753C128.838 134.967 128.691 134.021 128.691 132.914C128.691 131.81 128.838 130.867 129.133 130.085C129.432 129.303 129.859 128.706 130.416 128.295C130.976 127.884 131.646 127.679 132.425 127.679C133.203 127.679 133.871 127.886 134.428 128.3C134.985 128.711 135.411 129.308 135.706 130.09C136.004 130.869 136.153 131.81 136.153 132.914C136.153 134.024 136.006 134.972 135.711 135.758C135.416 136.54 134.99 137.138 134.433 137.553C133.876 137.964 133.207 138.169 132.425 138.169ZM132.425 136.842C133.114 136.842 133.653 136.505 134.04 135.832C134.431 135.16 134.627 134.187 134.627 132.914C134.627 132.069 134.537 131.355 134.358 130.771C134.183 130.185 133.929 129.741 133.598 129.439C133.27 129.134 132.879 128.982 132.425 128.982C131.738 128.982 131.2 129.32 130.809 129.996C130.418 130.672 130.22 131.645 130.217 132.914C130.217 133.763 130.305 134.48 130.481 135.067C130.66 135.65 130.913 136.093 131.241 136.394C131.569 136.692 131.964 136.842 132.425 136.842ZM143.232 136.091V135.554C143.232 135.17 143.311 134.818 143.47 134.5C143.633 134.179 143.868 133.922 144.176 133.729C144.488 133.534 144.864 133.436 145.305 133.436C145.755 133.436 146.133 133.532 146.438 133.724C146.743 133.917 146.973 134.174 147.129 134.495C147.288 134.817 147.368 135.17 147.368 135.554V136.091C147.368 136.475 147.288 136.828 147.129 137.15C146.97 137.468 146.737 137.725 146.428 137.92C146.123 138.113 145.749 138.209 145.305 138.209C144.857 138.209 144.479 138.113 144.171 137.92C143.863 137.725 143.629 137.468 143.47 137.15C143.311 136.828 143.232 136.475 143.232 136.091ZM144.39 135.554V136.091C144.39 136.376 144.458 136.634 144.594 136.866C144.73 137.098 144.967 137.214 145.305 137.214C145.639 137.214 145.873 137.098 146.006 136.866C146.138 136.634 146.205 136.376 146.205 136.091V135.554C146.205 135.269 146.14 135.01 146.011 134.778C145.885 134.546 145.649 134.43 145.305 134.43C144.973 134.43 144.738 134.546 144.599 134.778C144.46 135.01 144.39 135.269 144.39 135.554ZM138.111 130.264V129.727C138.111 129.343 138.19 128.99 138.349 128.668C138.512 128.347 138.747 128.09 139.055 127.898C139.367 127.705 139.743 127.609 140.184 127.609C140.635 127.609 141.013 127.705 141.317 127.898C141.622 128.09 141.853 128.347 142.009 128.668C142.164 128.99 142.242 129.343 142.242 129.727V130.264C142.242 130.649 142.163 131.002 142.004 131.323C141.848 131.641 141.616 131.898 141.308 132.094C141.003 132.286 140.628 132.382 140.184 132.382C139.733 132.382 139.354 132.286 139.045 132.094C138.741 131.898 138.509 131.641 138.349 131.323C138.19 131.002 138.111 130.649 138.111 130.264ZM139.274 129.727V130.264C139.274 130.549 139.34 130.808 139.473 131.04C139.609 131.272 139.846 131.388 140.184 131.388C140.515 131.388 140.747 131.272 140.88 131.04C141.016 130.808 141.084 130.549 141.084 130.264V129.727C141.084 129.442 141.019 129.184 140.89 128.952C140.761 128.72 140.525 128.604 140.184 128.604C139.853 128.604 139.617 128.72 139.478 128.952C139.342 129.184 139.274 129.442 139.274 129.727ZM138.583 138L145.583 127.818H146.771L139.771 138H138.583Z" fill="black"/>
<path opacity="0.8" d="M279.524 138.139C278.841 138.139 278.232 138.022 277.695 137.786C277.161 137.551 276.738 137.224 276.427 136.807C276.119 136.386 275.953 135.899 275.93 135.345H277.491C277.511 135.647 277.612 135.909 277.794 136.131C277.98 136.349 278.222 136.518 278.52 136.638C278.818 136.757 279.15 136.817 279.514 136.817C279.915 136.817 280.27 136.747 280.578 136.608C280.89 136.469 281.133 136.275 281.309 136.026C281.485 135.774 281.572 135.484 281.572 135.156C281.572 134.815 281.485 134.515 281.309 134.256C281.137 133.995 280.883 133.789 280.548 133.64C280.217 133.491 279.816 133.416 279.345 133.416H278.485V132.163H279.345C279.723 132.163 280.054 132.095 280.339 131.96C280.628 131.824 280.853 131.635 281.016 131.393C281.178 131.147 281.259 130.861 281.259 130.533C281.259 130.218 281.188 129.944 281.045 129.712C280.906 129.477 280.707 129.293 280.449 129.161C280.194 129.028 279.892 128.962 279.544 128.962C279.213 128.962 278.903 129.023 278.614 129.146C278.329 129.265 278.097 129.437 277.918 129.663C277.739 129.885 277.643 130.152 277.63 130.463H276.143C276.16 129.913 276.322 129.429 276.631 129.011C276.942 128.594 277.353 128.267 277.864 128.032C278.374 127.797 278.941 127.679 279.564 127.679C280.217 127.679 280.78 127.807 281.254 128.062C281.732 128.314 282.099 128.65 282.358 129.071C282.62 129.492 282.749 129.953 282.746 130.453C282.749 131.023 282.59 131.507 282.268 131.905C281.95 132.303 281.526 132.569 280.996 132.705V132.785C281.672 132.888 282.196 133.156 282.567 133.59C282.941 134.024 283.127 134.563 283.124 135.206C283.127 135.766 282.971 136.268 282.656 136.712C282.345 137.156 281.919 137.506 281.379 137.761C280.838 138.013 280.22 138.139 279.524 138.139ZM288.866 127.818V138H287.325V129.359H287.265L284.829 130.95V129.479L287.369 127.818H288.866ZM296.935 136.091V135.554C296.935 135.17 297.014 134.818 297.173 134.5C297.336 134.179 297.571 133.922 297.879 133.729C298.191 133.534 298.567 133.436 299.008 133.436C299.459 133.436 299.836 133.532 300.141 133.724C300.446 133.917 300.677 134.174 300.832 134.495C300.991 134.817 301.071 135.17 301.071 135.554V136.091C301.071 136.475 300.991 136.828 300.832 137.15C300.673 137.468 300.44 137.725 300.131 137.92C299.826 138.113 299.452 138.209 299.008 138.209C298.56 138.209 298.183 138.113 297.874 137.92C297.566 137.725 297.332 137.468 297.173 137.15C297.014 136.828 296.935 136.475 296.935 136.091ZM298.093 135.554V136.091C298.093 136.376 298.161 136.634 298.297 136.866C298.433 137.098 298.67 137.214 299.008 137.214C299.343 137.214 299.576 137.098 299.709 136.866C299.841 136.634 299.908 136.376 299.908 136.091V135.554C299.908 135.269 299.843 135.01 299.714 134.778C299.588 134.546 299.353 134.43 299.008 134.43C298.676 134.43 298.441 134.546 298.302 134.778C298.163 135.01 298.093 135.269 298.093 135.554ZM291.814 130.264V129.727C291.814 129.343 291.893 128.99 292.053 128.668C292.215 128.347 292.45 128.09 292.759 127.898C293.07 127.705 293.446 127.609 293.887 127.609C294.338 127.609 294.716 127.705 295.021 127.898C295.326 128.09 295.556 128.347 295.712 128.668C295.867 128.99 295.945 129.343 295.945 129.727V130.264C295.945 130.649 295.866 131.002 295.707 131.323C295.551 131.641 295.319 131.898 295.011 132.094C294.706 132.286 294.331 132.382 293.887 132.382C293.436 132.382 293.057 132.286 292.749 132.094C292.444 131.898 292.212 131.641 292.053 131.323C291.893 131.002 291.814 130.649 291.814 130.264ZM292.977 129.727V130.264C292.977 130.549 293.044 130.808 293.176 131.04C293.312 131.272 293.549 131.388 293.887 131.388C294.219 131.388 294.451 131.272 294.583 131.04C294.719 130.808 294.787 130.549 294.787 130.264V129.727C294.787 129.442 294.722 129.184 294.593 128.952C294.464 128.72 294.228 128.604 293.887 128.604C293.556 128.604 293.32 128.72 293.181 128.952C293.045 129.184 292.977 129.442 292.977 129.727ZM292.286 138L299.286 127.818H300.474L293.474 138H292.286Z" fill="black"/>
<circle cx="210" cy="114" r="39" fill="#FEFEFD"/>
<circle cx="210" cy="114" r="30" fill="#F1F6FF"/>
<path d="M202.48 126.757C207.533 129.897 213.885 128.197 216.699 122.952C217.68 121.123 218.054 119.027 218.041 117.106L217.825 102.714C217.826 101.783 217.261 100.966 216.552 100.526C215.842 100.085 214.939 99.9891 214.155 100.433L202.47 107.421C200.911 108.366 199.434 109.735 198.436 111.595C195.622 116.84 197.427 123.617 202.48 126.757ZM209.068 114.476C210.903 115.617 211.567 118.104 210.546 120.009C209.524 121.914 207.19 122.538 205.355 121.398C203.52 120.258 202.856 117.77 203.878 115.865C204.903 113.954 207.233 113.336 209.068 114.476Z" fill="#FF7155"/>
</g>
<defs>
<linearGradient id="paint0_linear_1358_671" x1="506" y1="185" x2="521.937" y2="189.386" gradientUnits="userSpaceOnUse">
<stop stop-color="#FF7155"/>
<stop offset="0.497468" stop-color="#EF3E56"/>
</linearGradient>
<linearGradient id="paint1_linear_1358_671" x1="415" y1="185" x2="430.937" y2="189.386" gradientUnits="userSpaceOnUse">
<stop stop-color="#FF7155"/>
<stop offset="0.497468" stop-color="#EF3E56"/>
</linearGradient>
<linearGradient id="paint2_linear_1358_671" x1="460" y1="203" x2="475.937" y2="207.386" gradientUnits="userSpaceOnUse">
<stop stop-color="#FF7155"/>
<stop offset="0.497468" stop-color="#EF3E56"/>
</linearGradient>
<linearGradient id="paint3_linear_1358_671" x1="190" y1="203" x2="205.937" y2="207.386" gradientUnits="userSpaceOnUse">
<stop stop-color="#FF7155"/>
<stop offset="0.497468" stop-color="#EF3E56"/>
</linearGradient>
<linearGradient id="paint4_linear_1358_671" x1="235" y1="171" x2="250.937" y2="175.386" gradientUnits="userSpaceOnUse">
<stop stop-color="#FF7155"/>
<stop offset="0.497468" stop-color="#EF3E56"/>
</linearGradient>
<linearGradient id="paint5_linear_1358_671" x1="280" y1="185" x2="295.937" y2="189.386" gradientUnits="userSpaceOnUse">
<stop stop-color="#FF7155"/>
<stop offset="0.497468" stop-color="#EF3E56"/>
</linearGradient>
<linearGradient id="paint6_linear_1358_671" x1="325" y1="203" x2="340.937" y2="207.386" gradientUnits="userSpaceOnUse">
<stop stop-color="#FF7155"/>
<stop offset="0.497468" stop-color="#EF3E56"/>
</linearGradient>
<linearGradient id="paint7_linear_1358_671" x1="370" y1="176" x2="385.937" y2="180.386" gradientUnits="userSpaceOnUse">
<stop stop-color="#FF7155"/>
<stop offset="0.497468" stop-color="#EF3E56"/>
</linearGradient>
<clipPath id="clip0_1358_671">
<rect width="528" height="240" rx="20" fill="white"/>
</clipPath>
</defs>
</svg>
