<svg width="528" height="240" viewBox="0 0 528 240" fill="none" xmlns="http://www.w3.org/2000/svg">
<g clip-path="url(#clip0_1358_798)">
<rect width="528" height="240" rx="20" fill="#F8F6F6"/>
<rect x="117" y="31" width="372" height="15" fill="#E5E0E0"/>
<rect x="117" y="56" width="338.757" height="15" fill="#E5E0E0"/>
<rect x="117" y="81" width="300.766" height="15" fill="#E5E0E0"/>
<rect x="117" y="106" width="265.94" height="15" fill="#E5E0E0"/>
<rect x="32" y="31" width="63" height="90" rx="2" fill="#F3474C"/>
<circle cx="326" cy="61" r="25" transform="rotate(180 326 61)" fill="#FF7155"/>
<path d="M378.5 51.2588L366 31L420 40.3882L376 73L378.5 51.2588Z" fill="#F3474C" stroke="white" stroke-width="2"/>
<circle cx="242.922" cy="180.922" r="40.9219" fill="#E5E0E0"/>
<circle cx="347.5" cy="180.922" r="40.9219" fill="#EE61D4"/>
<circle cx="451.922" cy="180.922" r="40.9219" fill="url(#paint0_linear_1358_798)"/>
<circle cx="472" cy="181" r="4" fill="white"/>
<circle cx="457" cy="181" r="6" fill="white"/>
<circle cx="437" cy="181" r="9" fill="white"/>
</g>
<defs>
<linearGradient id="paint0_linear_1358_798" x1="417.088" y1="121.051" x2="505.941" y2="143.913" gradientUnits="userSpaceOnUse">
<stop stop-color="#FF7155"/>
<stop offset="0.497468" stop-color="#EF3E56"/>
<stop offset="1" stop-color="#EE61D4"/>
</linearGradient>
<clipPath id="clip0_1358_798">
<rect width="528" height="240" rx="20" fill="white"/>
</clipPath>
</defs>
</svg>
