<?xml version="1.0" encoding="utf-8"?>
<!-- Generator: Adobe Illustrator 26.1.0, SVG Export Plug-In . SVG Version: 6.00 Build 0)  -->
<svg version="1.1" id="图层_1" xmlns="http://www.w3.org/2000/svg" xmlns:xlink="http://www.w3.org/1999/xlink" x="0px" y="0px"
	 viewBox="0 0 48 48" style="enable-background:new 0 0 48 48;" xml:space="preserve">
<style type="text/css">
	.st0{fill:#FFAA64;}
	.st1{fill:#FFFFFF;}
</style>
<path class="st0" d="M36,48H12C5.4,48,0,42.6,0,36V12C0,5.4,5.4,0,12,0h24c6.6,0,12,5.4,12,12v24C48,42.6,42.6,48,36,48z"/>
<g>
	<g>
		<path class="st1" d="M28.7,18.4h3.8c0.5,0,0.8-0.6,0.4-1l-4.7-4.7c-0.4-0.4-1-0.1-1,0.4V17C27.3,17.8,27.9,18.4,28.7,18.4z"/>
		<path class="st1" d="M28.7,20.2c-1.8,0-3.2-1.4-3.2-3.2v-4c0-0.3-0.3-0.6-0.6-0.6H17c-1.3,0-2.3,1.1-2.3,2.3v18.7
			c0,1.3,1,2.3,2.3,2.3h14c1.3,0,2.3-1,2.3-2.3V20.7c0-0.3-0.3-0.6-0.6-0.6H28.7z"/>
	</g>
</g>
</svg>
