<?xml version="1.0" encoding="utf-8"?>
<!-- Generator: Adobe Illustrator 26.1.0, SVG Export Plug-In . SVG Version: 6.00 Build 0)  -->
<svg version="1.1" id="图层_1" xmlns="http://www.w3.org/2000/svg" xmlns:xlink="http://www.w3.org/1999/xlink" x="0px" y="0px"
	 viewBox="0 0 48 48" style="enable-background:new 0 0 48 48;" xml:space="preserve">
<style type="text/css">
	.st0{fill:#87D068;}
	.st1{clip-path:url(#SVGID_00000110451965135261372140000002995710644970903720_);fill:#FFFFFF;}
</style>
<g>
	<path class="st0" d="M12,0h24c6.6,0,12,5.4,12,12v24c0,6.6-5.4,12-12,12H12C5.4,48,0,42.6,0,36V12C0,5.4,5.4,0,12,0z"/>
	<g>
		<defs>
			<rect id="SVGID_1_" x="12" y="12" width="24" height="24"/>
		</defs>
		<clipPath id="SVGID_00000062903037985041173510000002112159436546237855_">
			<use xlink:href="#SVGID_1_"  style="overflow:visible;"/>
		</clipPath>
		<path style="clip-path:url(#SVGID_00000062903037985041173510000002112159436546237855_);fill:#FFFFFF;" d="M24,24.3"/>
		<path style="clip-path:url(#SVGID_00000062903037985041173510000002112159436546237855_);fill:#FFFFFF;" d="M34.9,19.3L34.9,19.3
			c-0.7-0.3-1.4-0.2-2,0.3l-2.2,2V19c0-1.6-1.3-2.9-2.9-2.9H14.9C13.3,16,12,17.3,12,19v10.7c0,1.6,1.3,2.9,2.9,2.9h12.8
			c1.6,0,2.9-1.3,2.9-2.9V27l2.2,2c0.3,0.3,0.8,0.5,1.2,0.5c0.3,0,0.5-0.1,0.8-0.2c0.7-0.3,1.1-1,1.1-1.7V21
			C36,20.3,35.6,19.7,34.9,19.3z M24.6,25.1h-2.5v2.5c0,0.5-0.4,0.8-0.8,0.8c-0.5,0-0.8-0.4-0.8-0.8v-2.5H18c-0.5,0-0.8-0.4-0.8-0.8
			c0-0.5,0.4-0.8,0.8-0.8h2.5V21c0-0.5,0.4-0.8,0.8-0.8c0.5,0,0.8,0.4,0.8,0.8v2.5h2.5c0.5,0,0.8,0.4,0.8,0.8
			C25.4,24.8,25.1,25.1,24.6,25.1z"/>
	</g>
</g>
</svg>
