<?xml version="1.0" encoding="utf-8"?>
<!-- Generator: Adobe Illustrator 26.1.0, SVG Export Plug-In . SVG Version: 6.00 Build 0)  -->
<svg version="1.1" id="图层_1" xmlns="http://www.w3.org/2000/svg" xmlns:xlink="http://www.w3.org/1999/xlink" x="0px" y="0px"
	 viewBox="0 0 48 48" style="enable-background:new 0 0 48 48;" xml:space="preserve">
<style type="text/css">
	.st0{fill:#F57775;}
	.st1{fill:#FFFFFF;}
</style>
<path class="st0" d="M36,48H12C5.4,48,0,42.6,0,36V12C0,5.4,5.4,0,12,0h24c6.6,0,12,5.4,12,12v24C48,42.6,42.6,48,36,48z"/>
<g>
	<g>
		<path class="st1" d="M21.5,24.5c-3.3,0-6-2.7-6-6s2.7-6,6-6s6,2.7,6,6C27.6,21.8,24.9,24.5,21.5,24.5z"/>
	</g>
	<g>
		<path class="st1" d="M28.8,35.5H14.3c-1.1,0-2-0.9-2-2v-4.1c0-1.7,1.4-3.1,3.1-3.1h12.2c1.7,0,3.1,1.4,3.1,3.1v4.1
			C30.7,34.6,29.9,35.5,28.8,35.5z"/>
	</g>
	<g>
		<path class="st1" d="M29.6,22.5c-0.3,0-0.5-0.1-0.7-0.3c-0.2-0.3-0.2-0.7,0-1c0.6-0.8,0.9-1.7,0.9-2.7s-0.3-1.9-0.9-2.7
			c-0.2-0.3-0.2-0.7,0-1s0.6-0.4,0.9-0.3c1.7,0.6,2.9,2.2,2.9,4s-1.2,3.4-2.9,4C29.8,22.5,29.7,22.5,29.6,22.5z"/>
	</g>
	<g>
		<path class="st1" d="M34,34.7h-0.7c-0.3,0-0.5-0.1-0.7-0.3s-0.2-0.5-0.1-0.7c0-0.1,0-0.1,0-0.1v-4c0-0.4-0.2-0.7-0.3-0.9
			c-0.2-0.2-0.2-0.6-0.1-0.9c0.1-0.3,0.4-0.5,0.7-0.5H33c1.4,0,2.6,1.2,2.6,2.6V33C35.7,34,34.9,34.7,34,34.7z"/>
	</g>
</g>
</svg>
