<svg xmlns="http://www.w3.org/2000/svg" xmlns:xlink="http://www.w3.org/1999/xlink" fill="none" version="1.1" viewBox="0 0 48 48"><defs><clipPath id="master_svg0_3054_25679"><rect x="12" y="12" width="24" height="24" rx="0"/></clipPath></defs><g><rect x="0" y="0" width="48" height="48" rx="12" fill="#9D95E5" fill-opacity="1"/><g clip-path="url(#master_svg0_3054_25679)"><g><path d="M35.6226,12.187076C35.9089,12.366451,36.0526,12.70563,35.9824,13.03611L32.5574,33.5856C32.4912,34.000299999999996,32.1282,34.3018,31.7084,34.290800000000004C31.599,34.289100000000005,31.4912,34.2646,31.3918,34.2188L25.333399999999997,31.7437L22.095599999999997,35.6866C21.9377,35.8896,21.69045,36.0025,21.43364,35.9888C21.33001,35.990700000000004,21.22712,35.9711,21.131439999999998,35.9313C20.96605,35.8728,20.82448,35.7615,20.72851,35.6147C20.62727,35.4715,20.57206,35.300799999999995,20.57021,35.1254L20.57021,30.4629L32.125699999999995,16.28835L17.821640000000002,28.6641L12.540347,26.4912C12.225567,26.3831,12.0117595,26.09,12.0050232,25.7573C11.9677587,25.428800000000003,12.140421,25.112299999999998,12.436736,24.9658L34.7016,12.115123C34.833200000000005,12.040216,34.981899999999996,12.000561138,35.1333,12C35.3072,12.0294109,35.4735,12.092995,35.6226,12.187076Z" fill="#FFFFFF" fill-opacity="1"/></g></g></g></svg>
