<svg xmlns="http://www.w3.org/2000/svg" xmlns:xlink="http://www.w3.org/1999/xlink" fill="none" version="1.1" viewBox="0 0 48 48"><defs><clipPath id="master_svg0_3054_25613"><rect x="12" y="12" width="24" height="24" rx="0"/></clipPath></defs><g><rect x="0" y="0" width="48" height="48" rx="12" fill="#F57775" fill-opacity="1"/><g clip-path="url(#master_svg0_3054_25613)"><g><g><path d="M32.753299999999996,26.9593L30.357,26.9593C29.1345,26.957700000000003,28.1438,25.967100000000002,28.142200000000003,24.744500000000002C28.139499999999998,24.1851,28.3448,23.6446,28.7182,23.228099999999998C31.2206,20.597839999999998,31.1498,16.44632,28.5592,13.9029C25.9685,11.359486,21.816380000000002,11.365081,19.23258,13.91547C16.648789999999998,16.46586,16.58916,20.61755,19.09864,23.2411C19.45887,23.6577,19.65585,24.1909,19.65307,24.7416C19.65997,25.8988,18.7744,26.8659,17.62114,26.9608L15.40058,26.9608C14.07758,26.9608,13.00396661,28.0311,13,29.3541L13,31.5142C13,32.024,13.413276,32.4373,13.923077,32.4373L34.227900000000005,32.4373C34.737700000000004,32.4373,35.150999999999996,32.024,35.150999999999996,31.5142L35.150999999999996,29.3541C35.145399999999995,28.0327,34.0747,26.9633,32.753299999999996,26.9593Z" fill="#FFFFFF" fill-opacity="1"/></g><g><path d="M34.2308,35.999994833374025L13.923077,35.999994833374025C13.413276,35.999994833374025,13.000000054161,35.58672483337402,13.000000054161,35.07692183337402C13.000000054161,34.56712083337403,13.413276,34.15384483337402,13.923077,34.15384483337402L34.227900000000005,34.15384483337402C34.737700000000004,34.15384483337402,35.150999999999996,34.56712083337403,35.150999999999996,35.07692183337402C35.150999999999996,35.58672483337402,34.737700000000004,35.999994833374025,34.227900000000005,35.999994833374025L34.2308,35.999994833374025Z" fill="#FFFFFF" fill-opacity="1"/></g></g></g></g></svg>
