<?xml version="1.0" encoding="utf-8"?>
<!-- Generator: Adobe Illustrator 26.1.0, SVG Export Plug-In . SVG Version: 6.00 Build 0)  -->
<svg version="1.1" id="图层_1" xmlns="http://www.w3.org/2000/svg" xmlns:xlink="http://www.w3.org/1999/xlink" x="0px" y="0px"
	 viewBox="0 0 1024 1024" style="enable-background:new 0 0 1024 1024;" xml:space="preserve">
<style type="text/css">
	.st0{fill:#F9B552;}
	.st1{fill:#FFCF5C;}
</style>
<g>
	<path class="st0" d="M220.3,750h583.6c37.4,0,68-30.6,68-68V290c0-37.4-30.6-68-68-68H220.3c-37.4,0-68,30.6-68,68v392
		C152.2,719.4,182.8,750,220.3,750z"/>
	<path class="st1" d="M850,871.8H174c-48.2,0-87.2-39.1-87.2-87.2V239.4c0-48.2,39.1-87.2,87.2-87.2h274.4
		c37.4,0,70.7,23.9,82.6,59.3l24.7,73c12,35.4,45.2,59.3,82.6,59.3h211.2c48.1,0,87.2,39,87.2,87.1l0.5,353.6
		C937.3,832.7,898.2,871.8,850,871.8z"/>
</g>
</svg>
