<?xml version="1.0" standalone="no"?>
<!DOCTYPE svg PUBLIC "-//W3C//DTD SVG 1.1//EN" "http://www.w3.org/Graphics/SVG/1.1/DTD/svg11.dtd" >
<!--
2013-9-30: Created.
-->
<svg>
<metadata>
Created by iconfont
</metadata>
<defs>

<font id="iconfont" horiz-adv-x="1024" >
  <font-face
    font-family="iconfont"
    font-weight="500"
    font-stretch="normal"
    units-per-em="1024"
    ascent="896"
    descent="-128"
  />
    <missing-glyph />
    
    <glyph glyph-name="md" unicode="&#58884;" d="M471.289899 141.73866699999996c-6.827051 16.384-16.043051 37.205333-27.648 62.464-10.923008 25.258667-22.869683 52.565333-35.839991 81.92-12.970995 29.354667-26.965649 59.392-41.984 90.112-14.336286 31.402667-27.989606 60.757333-40.96 88.064-12.970914 27.989333-25.258901 52.906667-36.864 74.752-10.92288 21.841067-19.797538 38.5664-26.624 50.176-7.509521-80.554667-13.653517-167.936-18.432-262.144-4.778842-93.525333-8.874837-188.074667-12.288-283.648l-97.28 0c2.730581 61.44 5.80259 123.221333 9.216 185.344 3.413248 62.805333 7.167915 124.245333 11.264 184.32 4.778573 60.757333 9.557235 119.808 14.336 177.152 5.461222 57.339733 11.263885 111.611733 17.408 162.816l87.04 0c18.431774-30.0416 38.229086-65.540267 59.392-106.496 21.162377-40.964267 42.325022-83.972267 63.488-129.024 21.162313-44.373333 41.642274-89.088 61.439991-134.144 19.796949-44.373333 37.887573-84.992 54.272-121.856 16.383531 36.864 34.474197 77.482667 54.272 121.856 19.796821 45.056 40.276821 89.770667 61.44 134.144 21.162112 45.051733 42.324736 88.059733 63.488 129.024 21.162027 40.955733 40.95936 76.4544 59.392 106.496l87.04 0c22.126421-218.018133 38.979968-435.549867 50.560683-667.84 0.56704-11.370667 44.931072 2.005333 45.472853-9.412267l-82.925739-85.713067-109.592363 85.713067c-0.523093 14.647467 50.366165-3.114667 49.810987 11.485867-3.06816 80.661333-6.62464 160.5888-10.670421 239.7824-4.779349 94.208-10.923349 181.589333-18.432 262.144-6.827349-11.6096-16.043349-28.334933-27.648-50.176-10.923307-21.845333-22.869973-46.762667-35.84-74.752-12.971264-27.306667-26.965931-56.661333-41.984-88.064-14.336555-30.72-27.989888-60.757333-40.96-90.112-12.971179-29.354667-25.259179-56.661333-36.864-81.92-10.923179-25.258667-19.797803-46.08-26.624-62.464l-79.872 0"  horiz-adv-x="1024" />

    
    <glyph glyph-name="redo" unicode="&#58919;" d="M564.734375 601.21289063l0 204.66210937 316.40625-316.40625-316.40625-316.40625 0 209.14453125c-368.11230469 8.6484375-352.31835938-250.30371094-258.609375-420.08203125-231.29296875 250.01367187-182.17089844 650.58398438 258.609375 639.08789063z"  horiz-adv-x="1024" />

    
    <glyph glyph-name="undo" unicode="&#58931;" d="M717.875-37.875c93.70898438 169.77832031 109.50292969 428.73046875-258.609375 420.08203125l0-209.14453125-316.40625 316.40625 316.40625 316.40625 0-204.66210938c440.80664063 11.49609375 489.90234375-389.10058594 258.609375-639.08789062z"  horiz-adv-x="1024" />

    
    <glyph glyph-name="checked" unicode="&#59011;" d="M841.589844-11.5078125L182.410156-11.5078125c-36.25488256 0-65.9179685 29.66308594-65.9179685 65.9179685L116.4921875 713.589844c0 36.25488256 29.66308594 65.9179685 65.9179685 65.9179685l659.17968724 0c36.25488256 0 65.9179685-29.66308594 65.91796848-65.9179685l0-659.17968724C907.5078125 18.155273439999974 877.84472656-11.5078125 841.589844-11.5078125zM841.589844 697.1103513099999c0 9.88769531-6.59179662 16.47949193-16.47949193 16.47949193L198.88964869 713.589844C189.00195338 713.589844 182.410156 706.99804662 182.410156 697.1103513099999l0-626.22070338c0-9.88769531 6.59179662-16.47949193 16.47949193-16.47949193l626.22070338 0c9.88769531 0 16.47949193 6.59179662 16.47949193 16.47949193L841.589844 697.1103513099999zM469.15332006 229.09277368999994C464.20947241 222.50097631000006 455.96972682 219.20507838000003 446.0820315 219.20507838000003s-18.12744166 3.29589869-23.07128931 9.88769531l-131.83593776 131.83593776C284.58300781 365.87255833999996 281.28710912 374.11230469 281.28710912 384c0 18.12744166 14.83154297 32.95898463 32.95898463 32.95898463 9.88769531 0 18.12744166-3.29589869 23.07128932-9.88769531l108.76464843-108.76464845 240.6005862 240.6005862c6.59179662 6.59179662 14.83154297 9.88769531 23.07128932 9.88769531 18.12744166 0 32.95898463-14.83154297 32.95898464-32.95898463 0-9.88769531-3.29589869-18.12744166-9.88769532-23.07128931L469.15332006 229.09277368999994z"  horiz-adv-x="1024" />

    
    <glyph glyph-name="checked-false" unicode="&#59012;" d="M841.589844-11.5078125L182.410156-11.5078125c-36.25488256 0-65.9179685 29.66308594-65.9179685 65.9179685L116.4921875 713.589844c0 36.25488256 29.66308594 65.9179685 65.9179685 65.9179685l659.17968724 0c36.25488256 0 65.9179685-29.66308594 65.91796848-65.9179685l0-659.17968724C907.5078125 18.155273439999974 877.84472656-11.5078125 841.589844-11.5078125zM841.589844 697.1103513099999c0 9.88769531-6.59179662 16.47949193-16.47949193 16.47949193L198.88964869 713.589844C189.00195338 713.589844 182.410156 706.99804662 182.410156 697.1103513099999l0-626.22070338c0-9.88769531 6.59179662-16.47949193 16.47949193-16.47949193l626.22070338 0c9.88769531 0 16.47949193 6.59179662 16.47949193 16.47949193L841.589844 697.1103513099999z"  horiz-adv-x="1024" />

    
    <glyph glyph-name="preview" unicode="&#58938;" d="M491.343533 212.40738798999996c-144.109142 0-261.096577 173.524079-261.096577 179.39888 0 6.523577 116.987435 180.040493 261.096577 180.040493 144.760988 0 263.693728-181.025936 261.74125899-180.040493C751.11697499 393.44048699 636.104521 212.40738798999996 491.343533 212.40738798999996L491.343533 212.40738798999996 491.343533 212.40738798999996 491.343533 212.40738798999996zM490.359113 514.34923099c-61.108776 0-110.446461-53.270251-110.446461-119.608122 0-65.689095 49.337685-119.248941 110.446461-119.248941 61.435211 0 111.106494 53.559846 111.106494 119.248941C601.46663 461.08000399 551.795347 514.34923099 490.359113 514.34923099L490.359113 514.34923099 490.359113 514.34923099 490.359113 514.34923099zM490.04188799 342.45118599c-29.097712 0-52.622498 25.494651-52.62249799 56.543807 0 31.05325 23.541159 56.196906 52.62249799 56.196906 29.067013 0 52.277644-25.142633 52.27764401-56.196906C542.31953099 367.94583699 519.10889999 342.45118599 490.04188799 342.45118599L490.04188799 342.45118599 490.04188799 342.45118599 490.04188799 342.45118599zM490.04188799 342.45118599M845.475016 823.27513899c-73.579809 0-133.237537-59.648518-133.23753701-133.225257 0-73.579809 59.657728-133.228327 133.23753701-133.228327 73.576739 0 133.233444 59.648518 133.233444 133.228327C978.70846 763.62662099 919.05175499 823.27513899 845.475016 823.27513899L845.475016 823.27513899zM907.560026 720.0286609899999c-3.413749 0-6.682189 0.537236-9.779737 1.538029l-34.13135501-59.529815c7.270591-6.92062 11.794627-16.676821 11.79462701-27.494191 0-20.945031-16.97051-37.916565-37.907355-37.916565-20.939915 0-37.910425 16.971533-37.91042501 37.916565 0 9.342786 3.382027 17.899672 9.002025 24.49488l-21.225417 19.398816c-3.330862-1.642406-7.04751-2.572592-10.967796-2.572592-13.685697 0-24.76401 11.081383-24.76401 24.762987 0 13.670348 11.078313 24.750707 24.76401 24.750707 13.667278 0 24.749684-11.079336 24.74968401-24.750707 0-5.489014-1.795902-10.562567-4.826935-14.667048l21.08113099-19.262716c5.858428 3.64297 12.747325 5.747911 20.09875701 5.747911 5.937223 0 11.523451-1.356904 16.539698-3.77907l33.511231 58.459437c-7.175423 5.815449-11.746532 14.673188-11.74653201 24.626887 0 17.509792 14.20963 31.718399 31.71839901 31.718399 17.526165 0 31.717376-14.208607 31.717376-31.718399C939.277402 734.23419699 925.08619199 720.0286609899999 907.560026 720.0286609899999L907.560026 720.0286609899999zM894.305141 713.62071699M845.475016 498.03875399c-0.206708 0-0.397043 0.030699-0.60375101 0.030699l0-327.000566c0-25.508977-20.685111-46.162366-46.179762-46.162366L184.680155 124.90652098999999c-25.51 0-46.187949 20.654412-46.187949 46.162366L138.492206 613.20572699c0 25.494651 20.677948 46.139853 46.187949 46.139853l471.457632 0c-1.620917 10.019191-2.683109 20.225647-2.68310901 30.704302 0 10.05603 1.000793 19.848047 2.49379701 29.485545L135.35781899 719.53542699c-27.637454 0-50.068326-22.423709-50.068326-50.069349l0-554.673915c0-27.635407 22.430872-50.068326 50.068326-50.068326l712.63964601 0c27.652803 0 50.069349 22.432918 50.069349 50.068326L898.06681499 505.51502899C881.33371199 500.75256199 863.72875199 498.03875399 845.475016 498.03875399z"  horiz-adv-x="1024" />

    
    <glyph glyph-name="on" unicode="&#59096;" d="M932 654L92 654c-33.135 0-60-26.865-60-60l0-420c0-33.135 26.865-60 60-60l840 0c33.135 0 60 26.865 60 60L992 594C992 627.135 965.135 654 932 654zM947 204c0-33.135-11.865-45-45-45L122 159c-33.135 0-45 11.865-45 45L77 564c0 33.135 11.865 45 45 45l780 0c33.135 0 45-11.865 45-45L947 204zM842 564L602 564c-33.135 0-60-26.865-60-60l0-240c0-33.135 26.865-60 60-60l240 0c33.135 0 60 26.865 60 60L902 504C902 537.135 875.135 564 842 564z"  horiz-adv-x="1024" />

    
    <glyph glyph-name="off" unicode="&#59097;" d="M932 654L92 654c-33.135 0-60-26.865-60-60l0-420c0-33.135 26.865-60 60-60l840 0c33.135 0 60 26.865 60 60L992 594C992 627.135 965.135 654 932 654zM947 204c0-33.135-11.865-45-45-45L122 159c-33.135 0-45 11.865-45 45L77 564c0 33.135 11.865 45 45 45l780 0c33.135 0 45-11.865 45-45L947 204zM422 564L182 564c-33.135 0-60-26.865-60-60l0-240c0-33.135 26.865-60 60-60l240 0c33.135 0 60 26.865 60 60L482 504C482 537.135 455.135 564 422 564z"  horiz-adv-x="1024" />

    
    <glyph glyph-name="download" unicode="&#59054;" d="M391.38165448 725.93326272l240.95928598 0 0-64.1844201-240.95928598 0 0 64.1844201ZM391.38165448 788.7264396l240.95928598 0 0-33.48092532-240.95928598 0 0 33.48092532ZM861.69471958 252.86553432999995L833.07556085 93.04951446999996 190.59307034 93.04951446999996 162.00173642 252.86553432999995 90.5339419 252.86553432999995 90.5339419-1.8628535200000442 933.85644986-1.8628535200000442 933.85644986 252.86553432999995ZM843.99050449 537.55120495L632.34094046 537.55120495 632.34094046 629.63133654 391.38165448 629.63133654 391.38165448 536.8294444 182.40918149 536.8294444 511.15260556 176.78976975Z"  horiz-adv-x="1024" />

    
    <glyph glyph-name="bold" unicode="&#58999;" d="M414.43029135 69.92901042999995L418.38184079 69.36452961999998C441.71467202 68.23550699999998 459.02592692 67.67102620000003 470.31597166 67.67102620000003 538.05654134 67.67102620000003 587.35586019 79.99584066 618.21544841 104.64589520000004 649.07503663 129.29588948000003 664.50464844 168.90471922999996 664.50464844 223.47347979999995 664.50464844 272.77358888000003 650.01591958 309.55989258 621.03797445 333.83360675999995 592.06009113 358.10732017 548.59390382 370.24399495 490.63807536 370.24399495 473.70291749 370.24399495 459.59052977 370.05579425999997 448.30042478 369.67945312999996 437.01031903 369.30317302000003 425.72039634 368.73863119 414.43029135 367.98594969L414.43029135 69.92901042999995ZM414.99483317 435.16167397C418.00549966 434.78533284 421.76878663 434.50312257 426.28487791 434.31492187 430.80090739 434.1267822 437.38666016 434.0327116 446.04243978 434.0327116 506.25625324 434.0327116 550.56919188 446.16938638 578.98259442 470.44303954 607.39599771 494.71675296 621.60251629 532.6320792700001 621.60251629 584.19017335 621.60251629 629.35053305 608.43088948 662.84395998 582.08733074 684.67148924 555.74383303 706.49901772 515.28825195 717.41259928 460.71949138 717.41259928 451.68737062 717.41259928 437.38684246 716.6599780399999 417.81729898 715.15461427L414.43029135 715.15461427 414.99483317 435.16167397ZM177.33954344 779.5078125L524.50814777 779.5078125C609.56021646 779.5078125 673.53646484 764.36047199 716.4387793 734.06542482 759.34115477 703.7703174000001 780.79197751 658.51655759 780.79197751 598.30274414 780.79197751 552.7660433 766.86778973 514.66251629 739.018868 483.99112875 711.16994627 453.31968097 670.14994465 430.83390544 615.95746418 416.53313395 682.19267087 415.40411133 733.74997394 398.46925781 770.63095541 365.72796469 807.51193766 332.98667235000005 825.95215414 287.82698160999996 825.95215414 230.24755453 825.95215414 157.23827310000001 800.92618488 101.25907064 750.87339354 62.30824461999998 700.82066244 23.357417820000023 628.75329754 3.882309540000051 534.66923014 3.882309540000051L177.33954344 3.882309540000051 177.33954344 60.33246988999997 245.64429035 66.54200358000003 264.2728296 84.60606201999997 264.2728296 701.04204426 245.64429035 717.41259928 177.33954344 723.05765139 177.33954344 779.5078125Z"  horiz-adv-x="1024" />

    
    <glyph glyph-name="group" unicode="&#58951;" d="M34.45656213 145.22855360000005l397.95204694 0L432.408608 622.7725376000001 34.45656213 622.7725376000001 34.45656213 145.22855360000005zM87.5167616 569.71233813l291.83055467 0 0-371.4224928-291.83055467 0L87.5167616 569.71233813zM591.58920853 622.7725376000001l0-477.543984 397.95313814 0L989.54234667 622.7725376000001 591.58920853 622.7725376000001zM936.4832384 198.28875413000003l-291.83055467 0L644.65268373 569.71233813l291.83055467 0L936.4832384 198.28875413000003zM565.0585632 808.48378347c0 29.302032-23.73088 53.06020053-53.05910827 53.06020053-29.27583573 0-53.06020053-23.75816853-53.06020053-53.06020053 0-19.63110613 10.68167893-36.75934187 26.53064533-45.93689707L485.46989973 5.454204799999957c-15.8489664-9.17755627-26.53064533-26.3068832-26.53064533-45.93689707 0-29.3031232 23.7843648-53.06020053 53.06020053-53.06020053 29.32822827 0 53.05910827 23.75816853 53.05910827 53.06020053 0 19.63983787-10.66748907 36.77571413-26.53064533 45.95108694L538.5279168 762.5326965300001C554.39107307 771.70697813 565.0585632 788.8428544 565.0585632 808.48378347z"  horiz-adv-x="1024" />

    
    <glyph glyph-name="img" unicode="&#58954;" d="M427.6145024 231.03597014000002L349.16493547 339.57724800999995C338.77152641 353.95736426999997 321.92075947 353.95721601 311.52745601 339.57724800999995L166.90305387 139.47777068000005C156.5096448 125.09765333999997 162.71110507 113.44053226999995 180.7541664 113.44053226999995L443.41864427 113.44053226999995 843.36921812 113.44053226999995C861.4224096 113.44053226999995 867.48577707 125.07215999000005 856.99141332 139.42049921L627.80094081 452.779408C617.23710081 467.22273919 600.2918496 467.1277472 589.79748587 452.779408L427.6145024 231.03597014000002 427.6145024 231.03597014000002ZM257.35579521 559.0678912000001a62.29333333 62.29333333 0 1 1 127.32210239 0 62.29333333 62.29333333 0 1 1-127.32210239 0ZM82.22029653 718.22051947L941.77970453 718.22051947C932.83477333 718.22051947 925.79683307 725.3427648100001 925.79683307 734.07920001L925.79683307 33.92079998999998C925.79683307 42.675572269999975 932.86973547 49.77948053 941.77970453 49.77948053L82.22029653 49.77948053C91.16522667 49.77948053 98.20316693 42.65723519000005 98.20316693 33.92079998999998L98.20316693 734.07920001C98.20316693 725.32442773 91.1302656 718.22051947 82.22029653 718.22051947ZM34.54211628 33.92079998999998C34.54211628 7.666775479999956 55.83539627-13.88157013 82.22029653-13.88157013L941.77970453-13.88157013C968.0912512-13.88157013 989.45788372 7.578731729999959 989.45788372 33.92079998999998L989.45788372 734.07920001C989.45788372 760.3332245199999 968.16460373 781.88157013 941.77970453 781.88157013L82.22029653 781.88157013C55.9087488 781.88157013 34.54211628 760.42126827 34.54211628 734.07920001L34.54211628 33.92079998999998Z"  horiz-adv-x="1024" />

    
    <glyph glyph-name="under-line" unicode="&#58970;" d="M166.12017822 73.63925171000005h684.40402222v-57.03552246H166.12017822v57.03552246z m0 684.40237427h294.74972535v-44.84481812l-63.66192628-4.48406982-14.53656005-13.00396729v-321.53302002c0-61.28723145 13.0328064-105.0856018 39.09924316-131.39511108 26.06643677-26.3053894 68.83895874-39.46426391 128.32580567-39.46426392 54.80667114 0 94.48928833 13.97872925 119.05197143 41.93206787 24.5626831 27.95745849 36.84402466 73.7663269 36.84402466 137.4472046V692.12118531l-15.54016114 15.69424438-65.66665649 5.38055419V758.0416259799999h233.09335328v-44.84481812l-62.66326905-5.38055419-14.03640747-15.69424439v-318.84439087c0-85.20309448-21.38626099-146.93939209-64.16290283-185.20394898-42.77252198-38.26950073-111.78451538-57.40219117-207.02114869-57.40219115-49.79690552 0-93.48980713 6.50527954-131.08364868 19.50759887-37.5954895 13.00643921-67.0880127 31.61178589-88.47592163 55.83251953-16.37402344 19.13269043-27.98794555 41.03393555-34.83764649 65.69549561-6.85134888 24.66567993-10.27661133 60.01831055-10.27661132 106.05789184V695.70794677l-14.53656006 13.00396729-64.66305542 4.48406982V758.0416259799999z"  horiz-adv-x="1024" />

    
    <glyph glyph-name="close" unicode="&#59024;" d="M869.16373333 77.84106667000003l-303.82826666 303.82826666 303.82826666 303.95733334c14.62826667 14.62826667 14.62826667 38.448 0 53.07626666s-38.448 14.62826667-53.07626666 0l-303.82826667-303.82826666-303.95733333 303.82826666c-14.62826667 14.62826667-38.448 14.62826667-53.07626667 0s-14.62826667-38.448 0-53.07626666l303.95733333-303.95733334-303.95733333-303.82826666c-14.62826667-14.62826667-14.62826667-38.448 0-53.07626667s38.448-14.62826667 53.07626667 0l303.95733333 303.95733333 303.95733333-303.95733333c14.62826667-14.62826667 38.448-14.62826667 53.07626667 0 14.4992 14.62826667 14.4992 38.448-0.13013333 53.07626667z"  horiz-adv-x="1024" />

    
    <glyph glyph-name="italic" unicode="&#58920;" d="M529.86255689 686.13901881c3.17041097 15.82995963 0.67384989 27.45111514-7.63328765 34.97393593-8.28504494 7.5228208-25.17549033 12.83629586-50.46144746 16.00670683-11.09091393 2.37504665-16.60323006 8.69377339-16.60323005 18.96723041 0 2.35295277 0.38663585 4.9157929 1.25932683 7.72166188 0.77327042 2.75063491 1.55758845 6.11988697 2.33085887 10.07461464 23.71732241-2.36399906 46.9817286-4.14252247 69.94787316-5.34661653 22.95509827-1.14886 44.27528016-1.77852341 64.03787359-1.77852212 16.61427636 0 36.78559952 0.62966341 60.41454768 1.77852212 23.72836869 1.20409277 46.31892499 2.99366247 67.63910688 5.34661653 1.53549456-7.90945667 2.30876628-13.84154884 2.30876629-17.79627652 0-11.04672615-5.47917596-16.98986592-16.59218376-17.75209006-25.28595715-3.18145726-43.02699962-8.73796115-53.35568941-16.59218377-10.25136183-7.90945667-16.97881834-19.77364101-20.14922928-35.60359934L515.67855995 76.77948738999999c-3.19250356-15.82995963-0.38663585-27.25227405 8.29609124-34.38846029 8.6716808-7.10304476 26.41272325-12.64850238 53.3556894-16.59218375 10.22926924-2.37504665 15.41018358-8.30713883 15.41018359-17.75208876 0-4.78323218-0.83955078-11.09091393-2.39713924-18.96723041a1387.5240922 1387.5240922 0 0 1-72.25663816 5.30242877 1364.38120044 1364.38120044 0 0 1-66.4681543 1.7785234c-16.59218377 0-36.57571215-0.57442935-59.82907074-1.7785234-23.34173284-1.14886-45.63402752-2.949476-66.95421069-5.30242877-1.6349151 7.87631649-2.41923312 14.18399693-2.41923312 18.96723041 0 9.44495123 4.750092 14.99040754 14.19504452 16.59218247 25.37433139 3.95472769 43.51305602 9.64379231 54.59292235 17.17766069 10.99149339 7.5338671 18.13872462 19.14397761 21.30913558 34.97393594l117.34937651 609.34848512z"  horiz-adv-x="1024" />

    
    <glyph glyph-name="overline" unicode="&#58939;" d="M837.8784338 392.6585736h-651.7568676a27.61681602 27.61681602 0 1 1 0-55.23363334h651.7568676a27.61681602 27.61681602 0 1 1 0 55.23363334zM642.50602786 31.309099859999947c-29.74883513 3.32506427-55.68654829 8.08620386-68.2466764 14.39388431-12.57117442 6.27454027-23.59580798 17.00091221-23.59580798 32.23434862V293.23803435h-88.37381311v-215.30070156c0-15.23343638-4.28612948-25.78305985-17.50906121-31.73724592s-33.51576802-10.91416543-63.28669702-14.89098701c-6.60594207-1.3145609-9.32343681-6.62803595-9.32343681-15.86309981 0-4.63962516 0.91687873-10.25136183 2.27562481-16.8462576 21.14343469 1.3145609 43.93283205 2.46341959 68.09202309 3.46867258a1716.09792816 1716.09792816 0 0 0 141.91729601 0c23.45220097-1.01629929 45.78868212-2.15411168 66.96525698-3.46867258 1.29246701 6.60594207 1.99945709 12.20663245 1.99945708 16.8462576 0 10.58276364-3.63437348 15.86309981-10.91416544 15.86309981zM224.48684676 623.9217942099999a12.15139967 12.15139967 0 0 1 6.42919486 6.93734386 656.28602594 656.28602594 0 0 0 22.80044368 43.65666433c7.29083955 12.53803424 15.88519239 22.81148996 25.80515373 30.73199292 9.89786746 7.94259684 21.64053738 11.40022183 35.21696479 15.36599712 13.53223964 3.96577526 30.24593782 3.44657869 50.0748116 3.44657869H462.28973037v-287.21489162h88.37381311v287.21489162h111.67135817c19.82887378 0 36.53152438 0.51919658 50.07481162-3.44657869 13.55433353-3.95472769 25.10920996-8.6716808 34.74195597-16.61427765a109.78236923 109.78236923 0 0 0 25.26386326-30.10232951 442.53186655 442.53186655 0 0 0 21.83937845-43.33630882c1.3145609-3.31401797 3.62332589-5.46812965 6.92629757-6.78268926 3.32506427-1.3256072 6.29663415-1.90003654 8.93680224-1.90003783 3.96577526 0 7.44549414 0.69594378 10.41706274 2.02155095 2.98261618 1.3256072 6.10883937 2.67330827 9.43390493 3.98786917-7.29083955 22.46904187-12.40547351 42.99385943-15.388091 61.50817362a997.55255074 997.55255074 0 0 1-8.43969824 46.61718533c-2.65121438 12.56012813-5.45708336 22.31438726-8.41760566 29.26277871-2.98261618 6.93734386-7.78794224 10.40601645-14.39388559 10.40601646-5.29138246 0-12.08511932-0.3424481-20.3259765-1.0052517-8.28504494-0.66280359-17.34336031-1.3256072-27.27436793-1.98841079-9.91996004-0.66280359-19.85096767-2.05469115-29.74883512-2.72854103-9.91996004-0.66280359-18.83466839-1.71224305-26.77726525-1.71224306H347.93401634c-8.58330656 0-17.840463 1.06048575-27.74937675 1.71224306-9.94205392 0.67384989-19.67422048 1.69014917-29.27382502 2.35295276-9.57751195 0.67384989-18.68001508 1.51340197-27.27436795 2.17620428-8.58330656 0.66280359-15.21134251 1.09362593-19.82887507 1.09362593-6.62803595 0-11.41126813-3.28087779-14.39388431-9.88681987-2.96052229-6.62803595-5.77743757-16.00670683-8.41760565-28.24647944-2.65121438-12.22872633-5.63383056-27.60576973-8.93680224-46.10903763-3.32506427-18.51431419-8.28504494-39.65774886-14.890987-63.46344422 5.30242877-3.96577526 11.56592274-5.95418606 18.85676227-5.95418477 2.65121438 0.01104629 5.45708336 0.66280359 8.46179214 1.99945708z"  horiz-adv-x="1024" />

    
    <glyph glyph-name="horizontal" unicode="&#59376;" d="M962.23301298 384c0-28.40586801-23.07976821-51.48563623-51.48563622-51.48563623l-804.59622112 0c-28.40586801 0-51.48563623 23.07976821-51.48563623 51.48563623s23.07976821 51.48563623 51.48563623 51.48563623L910.74737676 435.48563623c28.40586801 0 51.48563623-23.07976821 51.48563622-51.48563623z"  horiz-adv-x="1024" />

    
    <glyph glyph-name="theme" unicode="&#59010;" d="M412.99413333 774.11946667h-271.33866666c-12.9152 0-23.3856-10.46933333-23.3856-23.38453334v-271.3408c0-39.01546667 31.74293333-70.7552 70.75733333-70.7552h271.33866667c12.9152 0 23.38453333 10.46933333 23.38453333 23.38453334V703.36426667c0 39.0144-31.7408 70.7552-70.75626667 70.7552z m23.9872-318.71253334H189.0272c-13.22666667 0-23.9872 10.76053333-23.9872 23.98613334V727.34933333h247.95733333c13.22346667 0 23.98506667-10.76053333 23.98506667-23.98613333v-247.95733333zM878.7168 690.21013333c-12.9152 0-23.38346667-10.46933333-23.38346667-23.38453333v-187.43146667c0-13.22666667-10.76266667-23.98613333-23.98933333-23.98613333H583.38986667V703.3632c0 13.2256 10.75946667 23.98613333 23.9872 23.98613333h185.96906666c12.9152 0 23.38346667 10.46933333 23.38346667 23.38453334 0 12.9152-10.46933333 23.38453333-23.38346667 23.38453333H607.376c-39.01546667 0-70.7552-31.7408-70.7552-70.75626667V432.02133333c0-12.9152 10.46933333-23.38453333 23.38346667-23.38453333h271.33866666c39.0176 0 70.75733333 31.7408 70.75733334 70.7552V666.82453333c0 12.91733333-10.46826667 23.3856-23.38346667 23.3856zM830.96853333 355.73013332999994H559.62773333c-12.9152 0-23.38346667-10.46933333-23.38346666-23.38453333v-271.3408c0-39.0144 31.7408-70.7552 70.75733333-70.7552h271.33866667c12.9152 0 23.38453333 10.46933333 23.38453333 23.38453333V284.97493333c0 39.0144-31.7408 70.7552-70.75626667 70.7552z m23.98613334-318.7104H607.0016c-13.22666667 0-23.98933333 10.76053333-23.98933333 23.98506667V308.96106667000004h247.95733333c13.22453333 0 23.984-10.76053333 23.984-23.98613334v-247.9552zM460.36586667 355.73013332999994h-271.33866667c-39.01546667 0-70.75733333-31.7408-70.75733333-70.75626666v-271.33973334c0-12.91626667 10.47146667-23.38453333 23.3856-23.38453333h271.3408c39.01333333 0 70.75413333 31.7408 70.75413333 70.7552V332.3456c0 12.9152-10.46933333 23.38453333-23.38453333 23.38453333zM436.98133333 61.004800000000046c0-13.22666667-10.7616-23.98506667-23.98506666-23.98506667h-247.95733334V284.97493333c0 13.2256 10.7616 23.98613333 23.9872 23.98613334H436.98133333v-247.95626667zM878.7168 723.71946667c14.896 0 27.0144 12.1184 27.0144 27.01546666 0 14.896-12.1184 27.01546667-27.0144 27.01546667s-27.01653333-12.11946667-27.01653333-27.01546667c0-14.896 12.12053333-27.01546667 27.01653333-27.01546666z"  horiz-adv-x="1025" />

    
    <glyph glyph-name="quote" unicode="&#58934;" d="M310.726085 360.026512h151.998727v-290.768856H171.941361V326.98420899999996c-8.876637 162.934578 72.698904 286.334186 244.522282 370.071112l66.084604-99.123259c-110.173443-57.307705-167.481148-136.606312-171.825811-237.90555h0.003649z m370.084491 0h152.001159v-290.768856h-290.783451V326.98420899999996c-8.883935 162.934578 72.696471 286.334186 244.519849 370.071112l66.087038-99.123259c-114.611762-61.754538-171.824595-141.054361-171.824595-237.90555z m0 0"  horiz-adv-x="1024" />

    
    <glyph glyph-name="table" unicode="&#58883;" d="M513.7 775.9h385.5c44.3 0 59.5-15 59.5-59 0-221.1 0-442.3-0.1-663.4 0-44.6-14.8-59.6-58.8-59.6-259.2-0.1-518.5-0.1-777.7 0-41 0-57.1 15.7-57.1 56.8-0.2 223.4-0.2 446.8 0 670.1 0 39.6 16.2 55 56.5 55.1 130.7 0.1 261.4 0 392.2 0zM345.3 202.79999999999995h-222v-150.7h222V202.79999999999995z m277-151.6V202.10000000000002H401.5v-150.9h220.8z m55.9 1.2h222.2V202.5H678.2v-150.1zM123.6 405.1v-149.4h221V405.1h-221zM678 253.70000000000005c72.4 0 142.3-0.2 212.2 0.5 3.8 0 10.7 6.6 10.7 10.3 0.7 46.7 0.5 93.3 0.5 139.8H677.9c0.1-50.4 0.1-98.7 0.1-150.6z m-277.5 1.8h222.1V404.4H400.5v-148.9z m-55.7 200.9V606.6H121.9c0-46.8-0.5-91.5 0.6-136.1 0.1-4.8 9.2-13.4 14.2-13.5 68.6-0.9 137.3-0.6 208.1-0.6z m56.3 2.1h221V607.2h-221v-148.7z m498.8-0.7V607.3H678.5v-149.5h221.4z"  horiz-adv-x="1024" />

    
    <glyph glyph-name="clear" unicode="&#58921;" d="M118.25 110.49999998999999h787.5v-56.25H118.25zM884.70019531 524.30664062L645.11035156 764.40624999a70.76953125 70.76953125 0 0 1-49.86914062 21.09375c-15.99609375 0-31.57910156-5.79199219-43.26855469-17.51660156L135.67871094 350.34472655c-24.609375-24.67089844-22.96582031-66.64746094 3.61230469-93.28710937L229.4140625 166.74999999h395.5078125l263.39941406 264.26953125c24.59179688 24.67089844 22.95703125 66.64746094-3.62109375 93.28710938zM601.55175781 222.99999999H252.72265625l-73.63476563 73.828125c-5.2734375 5.32617188-5.35253906 12.08496094-3.59472656 13.84277344L404.68554687 540.54003905l257.10644532-257.09765625z"  horiz-adv-x="1024" />

    
    <glyph glyph-name="ul" unicode="&#58916;" d="M149.3 746.7c47.1 0 85.3-38.2 85.3-85.3 0-47.1-38.2-85.3-85.3-85.3S64 614.2 64 661.3c0 47.2 38.2 85.4 85.3 85.4zM149.3 469.3c47.1 0 85.3-38.2 85.3-85.3s-38.2-85.3-85.3-85.3S64 336.9 64 384s38.2 85.3 85.3 85.3zM149.3 192c47.1 0 85.3-38.2 85.3-85.3 0-47.1-38.2-85.3-85.3-85.3S64 59.5 64 106.70000000000005c0 47.1 38.2 85.3 85.3 85.3zM362.7 704h554.7c23.6 0 42.7-19.1 42.7-42.7s-19.1-42.7-42.7-42.7H362.7c-23.6 0-42.7 19.1-42.7 42.7s19.1 42.7 42.7 42.7zM362.7 426.7h554.7c23.6 0 42.7-19.1 42.7-42.7s-19.1-42.7-42.7-42.7H362.7c-23.6 0-42.7 19.1-42.7 42.7s19.1 42.7 42.7 42.7zM362.7 149.29999999999995h554.7c23.6 0 42.7-19.1 42.7-42.7s-19.1-42.7-42.7-42.7H362.7c-23.6 0-42.7 19.1-42.7 42.7s19.1 42.7 42.7 42.7z"  horiz-adv-x="1024" />

    
    <glyph glyph-name="code" unicode="&#58895;" d="M288.145625 154.39312500000005c-7.205625 0-14.431875 2.60625-20.165625 7.865625L45.374375 367.25250000000005a29.806875 29.806875 0 0 0-9.58875 21.890625 29.8125 29.8125 0 0 0 9.58875 21.890625l222.60375 204.995625c12.1275 11.1 30.9375 10.35375 42.05625-1.734375 11.139375-12.088125 10.363125-30.9075-1.725-42.046875L109.458125 389.143125l198.855-183.105c12.088125-11.139375 12.8625-29.95875 1.725-42.046875a29.67375 29.67375 0 0 0-21.8925-9.598125zM735.854375 148.27125c-8.019375 0-16.02 3.225-21.890625 9.598125-11.139375 12.088125-10.363125 30.91875 1.74375 42.046875l198.834375 183.095625-198.855 183.105c-12.088125 11.139375-12.8625 29.95875-1.725 42.046875 11.158125 12.0975 29.949375 12.834375 42.05625 1.734375l222.60375-204.995625a29.75625 29.75625 0 0 0-0.020625-43.78125l-222.6-204.98625a29.664375 29.664375 0 0 0-20.146875-7.86375zM394.20875 48.94124999999997c-3.6225 0-7.303125 0.6675-10.88625 2.071875-15.285 6.015-22.820625 23.285625-16.815 38.58L606.52625 700.18125c6.024375 15.30375 23.24625 22.820625 38.589375 16.805625 15.285-6.015 22.820625-23.285625 16.815-38.58L421.91 67.81875000000002c-4.610625-11.720625-15.826875-18.8775-27.70125-18.8775z"  horiz-adv-x="1024" />

    
    <glyph glyph-name="link" unicode="&#59362;" d="M574 230.60000000000002c-3.1 3.1-8.2 3.1-11.3 0L446.5 114.39999999999998c-53.8-53.8-144.6-59.5-204 0-59.5 59.5-53.8 150.2 0 204l116.2 116.2c3.1 3.1 3.1 8.2 0 11.3l-39.8 39.8c-3.1 3.1-8.2 3.1-11.3 0L191.4 369.5c-84.6-84.6-84.6-221.5 0-306s221.5-84.6 306 0l116.2 116.2c3.1 3.1 3.1 8.2 0 11.3L574 230.60000000000002zM832.6 704.6c-84.6 84.6-221.5 84.6-306 0L410.3 588.4c-3.1-3.1-3.1-8.2 0-11.3l39.7-39.7c3.1-3.1 8.2-3.1 11.3 0l116.2 116.2c53.8 53.8 144.6 59.5 204 0 59.5-59.5 53.8-150.2 0-204L665.3 333.4c-3.1-3.1-3.1-8.2 0-11.3l39.8-39.8c3.1-3.1 8.2-3.1 11.3 0l116.2 116.2c84.5 84.6 84.5 221.5 0 306.1zM610.1 523.7c-3.1 3.1-8.2 3.1-11.3 0L372.3 297.29999999999995c-3.1-3.1-3.1-8.2 0-11.3l39.6-39.6c3.1-3.1 8.2-3.1 11.3 0l226.4 226.4c3.1 3.1 3.1 8.2 0 11.3l-39.5 39.6z"  horiz-adv-x="1024" />

    
    <glyph glyph-name="fullscreen" unicode="&#59372;" d="M275.2 677.9733333300001l46.82666667 46.82666667c5.01333333 5.01333333 2.02666667 13.65333333-5.01333334 14.50666667L146.13333333 759.46666667c-5.44 0.64-10.13333333-3.94666667-9.49333333-9.49333334L156.8 579.09333333c0.85333333-7.04 9.49333333-10.02666667 14.50666667-5.01333333l46.61333333 46.61333333L360.53333333 478.18666667c3.30666667-3.30666667 8.74666667-3.30666667 12.05333334 0l45.22666666 45.12c3.30666667 3.30666667 3.30666667 8.74666667 0 12.05333333L275.2 677.9733333300001zM651.41333333 478.18666667c3.30666667-3.30666667 8.74666667-3.30666667 12.05333334 0l142.61333333 142.50666666 46.61333333-46.61333333c5.01333333-5.01333333 13.65333333-2.02666667 14.50666667 5.01333333L887.36 749.86666667c0.64 5.44-3.94666667 10.13333333-9.49333333 9.49333333L706.98666667 739.2c-7.04-0.85333333-10.02666667-9.49333333-5.01333334-14.50666667l46.82666667-46.82666666L606.18666667 535.46666667c-3.30666667-3.30666667-3.30666667-8.74666667 0-12.05333334l45.22666666-45.22666666zM867.2 188.90666667000005c-0.85333333 7.04-9.49333333 10.02666667-14.50666667 5.01333333l-46.61333333-46.61333333L663.46666667 289.81333333c-3.30666667 3.30666667-8.74666667 3.30666667-12.05333334 0l-45.22666666-45.12c-3.30666667-3.30666667-3.30666667-8.74666667 0-12.05333333L748.8 90.02666667000005l-46.82666667-46.82666667c-5.01333333-5.01333333-2.02666667-13.65333333 5.01333334-14.50666667L877.86666667 8.533333330000005c5.44-0.64 10.13333333 3.94666667 9.49333333 9.49333334L867.2 188.90666667000005zM372.58666667 289.81333333c-3.30666667 3.30666667-8.74666667 3.30666667-12.05333334 0L217.92 147.30666667000003l-46.61333333 46.61333333c-5.01333333 5.01333333-13.65333333 2.02666667-14.50666667-5.01333333L136.64 18.133333330000028c-0.64-5.44 3.94666667-10.13333333 9.49333333-9.49333333L317.01333333 28.799999999999955c7.04 0.85333333 10.02666667 9.49333333 5.01333334 14.50666667L275.2 90.02666667000005 417.81333333 232.53333333c3.30666667 3.30666667 3.30666667 8.74666667 0 12.05333334l-45.22666666 45.22666666z"  horiz-adv-x="1024" />

    
    <glyph glyph-name="quite" unicode="&#59373;" d="M382.93333333 673.17333333c-0.85333333 7.04-9.49333333 10.02666667-14.50666666 5.01333334l-46.61333334-46.61333334L179.2 774.08c-3.30666667 3.30666667-8.74666667 3.30666667-12.05333333 0l-45.22666667-45.12c-3.30666667-3.30666667-3.30666667-8.74666667 0-12.05333333L264.53333333 574.29333333l-46.82666666-46.82666666c-5.01333333-5.01333333-2.02666667-13.65333333 5.01333333-14.50666667L393.6 492.8c5.44-0.64 10.13333333 3.94666667 9.49333333 9.49333333L382.93333333 673.17333333zM393.70666667 275.09333332999995L222.72 254.93333332999998c-7.04-0.85333333-10.02666667-9.49333333-5.01333333-14.50666666l46.82666666-46.82666667L121.92 51.200000000000045c-3.30666667-3.30666667-3.30666667-8.74666667 0-12.05333333l45.22666667-45.12c3.30666667-3.30666667 8.74666667-3.30666667 12.05333333 0L321.81333333 136.53333333l46.61333334-46.61333333c5.01333333-5.01333333 13.65333333-2.02666667 14.50666666 5.01333333l20.16 170.77333334c0.64 5.44-3.94666667 10.02666667-9.38666666 9.38666666zM630.29333333 492.90666667L801.28 513.06666667c7.04 0.85333333 10.02666667 9.49333333 5.01333333 14.50666666L759.46666667 574.29333333 902.08 716.8c3.30666667 3.30666667 3.30666667 8.74666667 0 12.05333333l-45.22666667 45.12c-3.30666667 3.30666667-8.74666667 3.30666667-12.05333333 0L702.18666667 631.57333333l-46.61333334 46.61333334c-5.01333333 5.01333333-13.65333333 2.02666667-14.50666666-5.01333334L620.90666667 502.4c-0.64-5.54666667 3.94666667-10.13333333 9.38666666-9.49333333zM759.46666667 193.70666667l46.82666666 46.82666666c5.01333333 5.01333333 2.02666667 13.65333333-5.01333333 14.50666667L630.4 275.20000000000005c-5.44 0.64-10.13333333-3.94666667-9.49333333-9.49333333L641.06666667 94.82666667000001c0.85333333-7.04 9.49333333-10.02666667 14.50666666-5.01333334l46.61333334 46.61333334L844.8-6.080000000000041c3.30666667-3.30666667 8.74666667-3.30666667 12.05333333 0l45.22666667 45.12c3.30666667 3.30666667 3.30666667 8.74666667 0 12.05333333L759.46666667 193.70666667z"  horiz-adv-x="1024" />

    
    <glyph glyph-name="daoru" unicode="&#58933;" d="M917.00000001 76.5L917 696.7C917.00000001 755.3 869.3 803 810.7 803l-356 0c-17.6 0-31.9-14.3-31.9-31.9s14.3-31.9 31.9-31.9l356 0c23.4 0 42.5-19.1 42.5-42.5l1e-8-620.2c0-23.4-19.1-42.5-42.5-42.5l-584.50000001 0c-23.4 0-42.5 19.1-42.5 42.5l0 413c0 17.6-14.3 31.9-31.9 31.9s-31.9-14.3-31.9-31.9l0-413c0-58.6 47.7-106.3 106.3-106.3L810.70000001-29.799999999999955c58.6 0 106.3 47.7 106.3 106.3zM352.1 364.79999999999995l-61.4 0c-19.3 0.1-30.00000001-22.3-17.9-37.3l185.3-229.1c9.2-11.4 26.5-11.3 35.7 0.1l205.1 228c12 15 1.39999999 38.3-17.8 38.4L619 364.9c-11.7 0-20.1 8-22.7 19.4C527 688.5 170.4 765.4 145.9 762.8c93.7-99 238.6-199.00000001 229.2-375.7-0.7-12.6-10.5-22.4-23-22.3z"  horiz-adv-x="1024" />

    
    <glyph glyph-name="ol" unicode="&#59120;" d="M349.29890773 763.63588267h542.33697494a54.23369707 54.23369707 0 0 0 0-108.4673952h-542.33697494a54.23369707 54.23369707 0 0 0 0 108.4673952z m0-325.4021856h542.33697494a54.23369707 54.23369707 0 0 0 0-108.46739414h-542.33697494a54.23369707 54.23369707 0 0 0 0 108.46739414z m0-325.40218454h542.33697494a54.23369707 54.23369707 0 0 0 0-108.4673952h-542.33697494a54.23369707 54.23369707 0 0 0 0 108.4673952zM97.1122144 760.3818602700001v25.48983786a167.03978773 167.03978773 0 0 1 24.9475008 0 35.25190293 35.25190293 0 0 1 18.43945707 10.30440214 33.08255573 33.08255573 0 0 1 7.59271786 13.55842453 31.45554453 31.45554453 0 0 1 0 7.59271787H182.801456v-189.27560427h-40.67527253V760.3818602700001z m0-420.3111552a108.4673952 108.4673952 0 0 0 37.96358827 40.6752736 279.8458784 279.8458784 0 0 1 33.6248928 26.57451093 39.59059947 39.59059947 0 0 1 11.93141333 27.65918613 30.3708704 30.3708704 0 0 1-6.50804373 20.06646827 23.86282667 23.86282667 0 0 1-19.5241312 8.13505387 23.3204896 23.3204896 0 0 1-26.03217494-12.4737504 63.45342613 63.45342613 0 0 1-4.33869546-23.3204896h-35.251904a92.7396224 92.7396224 0 0 0 8.677392 39.59059946 54.23369707 54.23369707 0 0 0 54.23369706 28.7438592 67.7921216 67.7921216 0 0 0 48.26799147-16.81244586 58.5723936 58.5723936 0 0 0 17.89712-44.471632 60.7417408 60.7417408 0 0 0-12.4737504-37.96358827 126.90685227 126.90685227 0 0 0-27.65918613-24.40516373l-15.18543467-10.8467392-19.5241312-14.64309867a42.8446208 42.8446208 0 0 1-8.677392-10.30440213h83.5198944v-33.08255574H86.80781227a90.02793813 90.02793813 0 0 0 8.67739093 37.4212512z m27.11684907-304.2510432a43.38695787 43.38695787 0 0 1 3.7963584-18.98179414 25.48983787 25.48983787 0 0 1 24.9475008-14.10076053 27.65918613 27.65918613 0 0 1 17.35478293 5.4233696 28.2015232 28.2015232 0 0 1 8.13505493 21.6934784 24.9475008 24.9475008 0 0 1-15.18543466 25.48983787 78.0965248 78.0965248 0 0 1-27.11684907 7.0503808v27.11684906a71.58848107 71.58848107 0 0 1 25.48983787 3.7963584 22.23581547 22.23581547 0 0 1 12.4737504 23.32049067 24.9475008 24.9475008 0 0 1-6.50804374 17.89712 23.3204896 23.3204896 0 0 1-17.89712 7.0503808 22.77815253 22.77815253 0 0 1-19.5241312-8.677392 35.79424 35.79424 0 0 1-5.96570666-22.77815253h-35.251904a94.90897067 94.90897067 0 0 0 4.8810336 27.116848 61.28407787 61.28407787 0 0 0 14.6430976 20.60880533 50.97967573 50.97967573 0 0 0 17.354784 10.30440213 76.4695136 76.4695136 0 0 0 24.9475008 2.71168534 66.70744747 66.70744747 0 0 0 44.47163093-14.1007616 47.18331627 47.18331627 0 0 0 16.81244693-37.96358827 42.30228373 42.30228373 0 0 0-10.3044032-28.7438592 34.16722987 34.16722987 0 0 0-13.01608746-9.76206613 27.11684907 27.11684907 0 0 0 14.64309866-8.67739094 47.18331627 47.18331627 0 0 0 14.64309867-36.33657706 61.28407787 61.28407787 0 0 0-16.81244587-42.84462187 64.53810027 64.53810027 0 0 0-49.89500266-18.43945707 60.7417408 60.7417408 0 0 0-54.23369707 26.574512 79.18119787 79.18119787 0 0 0-9.219728 36.87891414z"  horiz-adv-x="1024" />

    
    <glyph glyph-name="upload-img" unicode="&#59001;" d="M885.94295467 791.41546667h-748.96725334C102.64029867 791.41546667 74.5472 762.93461333 74.5472 728.113152V95.09546666999995c0-34.816 28.09309867-63.30231467 62.42304-63.30231467h530.51938133V95.09546666999995h-499.318784c-18.726912 0-31.20059733 15.826944-31.20059733 31.653888V696.46472533c0 15.82148267 12.47368533 31.64842667 31.20059733 31.64842667h686.56605867c18.73237333 0 31.20605867-15.826944 31.20605867-31.64842667v-411.46231466H948.36053333v443.11074133c0 34.82146133-28.082176 63.30231467-62.41757866 63.30231467zM819.02523733 296.52582399999994c-6.23684267 6.30237867-12.46276267 9.44810667-21.81256533 9.44810667-9.34434133 0-15.58664533-3.145728-21.81256533-9.44810667l-87.25572267-88.15684267c-12.468224-12.599296-12.468224-31.490048 0-44.089344 12.46276267-12.58837333 31.162368-12.58837333 43.62513067 0l34.28625066 34.64123734v-195.22082134C766.05576533-12.039509329999987 778.51306667-27.784533330000045 797.212672-27.784533330000045c18.694144 0 31.15690667 12.59383467 31.15690667 31.48458666v195.22082134l37.39921066-37.781504c12.46276267-12.59383467 31.162368-12.59383467 43.630592 0 12.46276267 12.58837333 12.46276267 31.490048 0 44.07842133l-90.374144 91.308032z m-408.223744 236.158976c15.57572267 34.63031467 6.23684267 75.56846933-18.69960533 103.90186667-28.04394667 28.33885867-71.67453867 34.63031467-105.94440533 22.04194133-34.291712-15.75594667-56.098816-53.53745067-56.098816-91.31895467 0-50.37533867 40.50670933-91.308032 90.36868266-91.308032 37.404672 0 74.79842133 22.03648 90.374144 56.672256v0.01092267zM292.388864 567.31511467c0 9.44810667 3.10749867 15.745024 9.34980267 22.04194133 3.10749867 9.44264533 12.45730133 12.59383467 21.80164266 12.59383467 15.58664533 0 31.17329067-12.59383467 31.17329067-28.33885867 0-15.73956267-12.47368533-31.48458667-28.049408-34.63031467-18.70506667 0-34.28078933 12.58837333-34.28078933 28.33339734h0.00546133z m-104.333312-384.62532267c12.54468267-12.53376 31.36989867-12.53376 43.91458133 0l131.72736 131.57444267 109.7728-109.64718934c3.14026667-3.129344 3.14026667-3.129344 6.275072-3.129344 12.550144-6.26961067 25.08936533-6.26961067 37.63950934 3.129344L827.88352 514.74432c12.54468267 12.53376 12.54468267 31.326208 0 43.86542933-12.55560533 12.52829867-31.37536 12.52829867-43.91458133 0l-288.54408534-288.21640533L385.65751467 383.17533867l-3.13480534 3.13480533c-12.550144 9.39349333-28.229632 9.39349333-40.779776-3.13480533L184.93166933 226.53883732999998c-9.404416-12.53376-9.404416-31.33166933 3.13480534-43.859968l-0.01092267 0.01092267z m0 0"  horiz-adv-x="1024" />

    
    <glyph glyph-name="save" unicode="&#58952;" d="M788.69067383 752.15185547h-26.03759766v0.65917969H261.42932128v-0.65917969h-26.03759764c-50.92163086 0-92.20275879-41.19873047-92.2027588-92.12036133v-552.72216797c0-50.92163086 41.28112793-92.12036133 92.2027588-92.12036133h553.29895019c50.92163086 0 92.20275879 41.28112793 92.20275879 92.12036133V660.03149414c0 50.8392334-41.36352539 92.12036133-92.20275879 92.12036133z m-467.93518067-58.58459473H703.16210938v-118.48754882c0-21.83532715-19.03381348-39.55078125-42.51708985-39.55078125H363.272583c-23.48327637 0-42.51708984 17.71545411-42.51708983 39.55078125V693.5672607500001z m501.47094727-575.46386719c0-24.38964844-19.85778809-44.24743653-44.32983399-44.24743652H246.02099609c-24.4720459 0-44.32983398 19.77539063-44.32983398 44.24743652V649.31982422c0 24.38964844 19.85778809 44.24743653 44.32983398 44.24743653h15.32592774V568.5703125c0-50.92163086 40.78674317-92.12036133 91.1315918-92.12036133h318.96057129c50.34484864 0 91.1315918 41.28112793 91.13159179 92.12036133V693.5672607500001h15.24353027c24.4720459 0 44.32983398-19.77539063 44.32983399-44.24743653v-531.21643067zM607.58105469 568.2407226600001c16.31469727 0 29.66308594 13.34838867 29.66308593 29.66308593v32.95898438c0 16.31469727-13.34838867 29.66308594-29.66308593 29.66308594s-29.66308594-13.34838867-29.66308594-29.66308594v-32.95898438c0-16.31469727 13.34838867-29.66308594 29.66308594-29.66308593z"  horiz-adv-x="1024" />

    
    <glyph glyph-name="check-box" unicode="&#60504;" d="M810.666667 768H213.333333c-47.146667 0-85.333333-38.186667-85.333333-85.333333v-597.333334c0-47.146667 38.186667-85.333333 85.333333-85.333333h597.333334c47.146667 0 85.333333 38.186667 85.333333 85.333333V682.666667c0 47.146667-38.186667 85.333333-85.333333 85.333333zM426.666667 170.66666699999996L213.333333 384l60.373334 60.373333L426.666667 291.41333299999997l323.626666 323.626667L810.666667 554.666667 426.666667 170.66666699999996z"  horiz-adv-x="1024" />

    


  </font>
</defs>
</svg>
