<?xml version="1.0" encoding="utf-8"?>
<!-- Generator: Adobe Illustrator 26.1.0, SVG Export Plug-In . SVG Version: 6.00 Build 0)  -->
<svg version="1.1" id="图层_1" xmlns="http://www.w3.org/2000/svg" xmlns:xlink="http://www.w3.org/1999/xlink" x="0px" y="0px"
	 viewBox="0 0 1024 1024" style="enable-background:new 0 0 1024 1024;" xml:space="preserve">
<style type="text/css">
	.st0{fill:#53CBAE;}
	.st1{fill:#FFFFFF;}
</style>
<g>
	<path class="st0" d="M821.4,109.5H202.6c-51.4,0-93.1,41.8-93.1,93.1v618.8c0,51.4,41.8,93.1,93.1,93.1h618.8
		c51.4,0,93.1-41.8,93.1-93.1V202.6C914.5,151.3,872.7,109.5,821.4,109.5z"/>
	<path class="st1" d="M622.4,310.3c50.3,0,91.3,40.9,91.3,91.3s-40.9,91.3-91.3,91.3s-91.3-41-91.3-91.3S572.1,310.3,622.4,310.3z"
		/>
	<path class="st1" d="M852.4,821.4c0,17.1-13.9,31-31,31H202.6c-17.1,0-31-13.9-31-31v-73.2l163.1-163.1
		c31.4-31.4,82.2-31.4,113.6,0l167.9,167.9l58.7-58.7c31.4-31.4,82.2-31.4,113.6,0l64,64V821.4z"/>
</g>
</svg>
