<svg xmlns="http://www.w3.org/2000/svg" xmlns:xlink="http://www.w3.org/1999/xlink" fill="none" version="1.1" viewBox="0 0 48 48"><defs><clipPath id="master_svg0_3054_25658"><rect x="12" y="12" width="24" height="24" rx="0"/></clipPath></defs><g><rect x="0" y="0" width="48" height="48" rx="12" fill="#72A1F7" fill-opacity="1"/><g clip-path="url(#master_svg0_3054_25658)"><g><path d="M33.1767,19.46395L30.5723,21.34133L30.5723,19.01332C30.5723,17.34516,29.217,15.99442094,27.5489,16L15.01332,16C13.34911,15.999999801611,12,17.34911,12,19.01332L12,29.5822C12,31.2464,13.34911,32.595600000000005,15.01332,32.595600000000005L27.5489,32.595600000000005C29.217,32.6011,30.5723,31.2504,30.5723,29.5822L30.5723,27.2542L33.182500000000005,29.1259C33.7237,29.5146,34.436800000000005,29.5683,35.0302,29.2651C35.623599999999996,28.9619,35.9979,28.3525,36,27.6861L36,20.907980000000002C36.0011,20.23879,35.626599999999996,19.62559,35.0308,19.32086C34.4351,19.01614,33.7187,19.07142,33.1767,19.46395Z" fill="#FFFFFF" fill-opacity="1"/></g></g></g></svg>
