<?xml version="1.0" encoding="utf-8"?>
<!-- Generator: Adobe Illustrator 26.1.0, SVG Export Plug-In . SVG Version: 6.00 Build 0)  -->
<svg version="1.1" id="图层_1" xmlns="http://www.w3.org/2000/svg" xmlns:xlink="http://www.w3.org/1999/xlink" x="0px" y="0px"
	 viewBox="0 0 48 48" style="enable-background:new 0 0 48 48;" xml:space="preserve">
<style type="text/css">
	.st0{fill:#72A1F7;}
	.st1{fill:#FFFFFF;}
</style>
<path class="st0" d="M36,48H12C5.4,48,0,42.6,0,36V12C0,5.4,5.4,0,12,0h24c6.6,0,12,5.4,12,12v24C48,42.6,42.6,48,36,48z"/>
<g>
	<g>
		<g>
			<g>
				<g>
					<path class="st1" d="M20.3,35.8h-4.7c-1.9,0-3.4-1.5-3.4-3.4v-4.7c0-0.4,0.3-0.8,0.8-0.8s0.8,0.3,0.8,0.8v4.7
						c0,1.1,0.9,1.9,1.9,1.9h4.7c0.4,0,0.8,0.3,0.8,0.8S20.7,35.8,20.3,35.8z"/>
				</g>
				<g>
					<path class="st1" d="M13,21.1c-0.4,0-0.8-0.3-0.8-0.8v-4.7c0-1.9,1.5-3.4,3.4-3.4h4.7c0.4,0,0.8,0.3,0.8,0.8s-0.3,0.8-0.8,0.8
						h-4.7c-1.1,0-1.9,0.9-1.9,1.9v4.7C13.8,20.7,13.4,21.1,13,21.1z"/>
				</g>
			</g>
			<g>
				<g>
					<path class="st1" d="M35,21.1c-0.4,0-0.8-0.3-0.8-0.8v-4.7c0-1.1-0.9-1.9-1.9-1.9h-4.7c-0.4,0-0.8-0.3-0.8-0.8s0.3-0.8,0.8-0.8
						h4.7c1.9,0,3.4,1.5,3.4,3.4v4.7C35.8,20.7,35.4,21.1,35,21.1z"/>
				</g>
				<g>
					<path class="st1" d="M32.3,35.8h-4.7c-0.4,0-0.8-0.3-0.8-0.8s0.3-0.8,0.8-0.8h4.7c1.1,0,1.9-0.9,1.9-1.9v-4.7
						c0-0.4,0.3-0.8,0.8-0.8s0.8,0.3,0.8,0.8v4.7C35.8,34.2,34.2,35.8,32.3,35.8z"/>
				</g>
			</g>
		</g>
		<g>
			<path class="st1" d="M29.5,16.5H18.5c-1.1,0-1.9,0.9-1.9,1.9v11.1c0,1.1,0.9,1.9,1.9,1.9h11.1c1.1,0,1.9-0.9,1.9-1.9V18.5
				C31.5,17.4,30.6,16.5,29.5,16.5z M27.7,24.8h-7.3c-0.4,0-0.8-0.3-0.8-0.8s0.3-0.8,0.8-0.8h7.3c0.4,0,0.8,0.3,0.8,0.8
				S28.1,24.8,27.7,24.8z"/>
		</g>
	</g>
</g>
</svg>
