<svg xmlns="http://www.w3.org/2000/svg" xmlns:xlink="http://www.w3.org/1999/xlink" fill="none" version="1.1" viewBox="0 0 48 48"><defs><clipPath id="master_svg0_3054_25526"><rect x="12" y="12" width="24" height="24" rx="0"/></clipPath></defs><g><rect x="0" y="0" width="48" height="48" rx="12" fill="#72A1F7" fill-opacity="1"/><g clip-path="url(#master_svg0_3054_25526)"><g><g><path d="M34.0464,21.911920000000002C34.0464,16.439700000000002,29.336,12,23.523899999999998,12C17.71187,12,13,16.43682,13,21.911920000000002C13,24.689799999999998,14.21541,27.1998,16.16813,28.9999L23.5211,36L30.7962,29.0676C30.9402,28.9365,31.0842,28.8026,31.2196,28.6643C33.0192,26.8769,34.0359,24.4483,34.0464,21.911920000000002ZM23.397199999999998,26.7015C20.95156,26.6984,18.97124,24.7138,18.97336,22.2681C18.97548,19.82244,20.959229999999998,17.84126,23.404899999999998,17.84232C25.8506,17.84338,27.8326,19.82627,27.8326,22.271900000000002C27.8326,24.720599999999997,25.8459,26.704700000000003,23.397199999999998,26.7015Z" fill="#FFFFFF" fill-opacity="1"/></g><g><ellipse cx="23.397215843200684" cy="22.271930694580078" rx="2.733229160308838" ry="2.733229160308838" fill="#FFFFFF" fill-opacity="1"/></g></g></g></g></svg>
