<?xml version="1.0" encoding="utf-8"?>
<!-- Generator: Adobe Illustrator 26.1.0, SVG Export Plug-In . SVG Version: 6.00 Build 0)  -->
<svg version="1.1" id="图层_1" xmlns="http://www.w3.org/2000/svg" xmlns:xlink="http://www.w3.org/1999/xlink" x="0px" y="0px"
	 viewBox="0 0 48 48" style="enable-background:new 0 0 48 48;" xml:space="preserve">
<style type="text/css">
	.st0{fill:#87D068;}
	.st1{fill:#FFFFFF;}
</style>
<path class="st0" d="M36,48H12C5.4,48,0,42.6,0,36V12C0,5.4,5.4,0,12,0h24c6.6,0,12,5.4,12,12v24C48,42.6,42.6,48,36,48z"/>
<g>
	<g>
		<path class="st1" d="M35.7,20.1c0-0.8-0.4-1.5-1.1-1.9l-8.9-5.1c-1-0.6-2.2-0.6-3.1,0l-9.1,5.2c-0.6,0.4-1,1-1,1.8s0.4,1.4,1,1.8
			l9.1,5.2c0.5,0.3,1,0.4,1.6,0.4c0.5,0,1.1-0.1,1.6-0.4l8.9-5.1C35.3,21.6,35.7,20.9,35.7,20.1z"/>
		<path class="st1" d="M24,29.7c-0.4,0-0.8-0.1-1.2-0.3l-9-5.1c-0.4-0.2-0.9-0.1-1.2,0.3c-0.2,0.4-0.1,0.9,0.3,1.2l9,5.1
			c0.6,0.4,1.3,0.6,2,0.6c0,0,0,0,0,0c0.5,0,0.9-0.4,0.9-0.9C24.9,30.1,24.5,29.7,24,29.7z"/>
		<path class="st1" d="M24,33.5c-0.6,0-1.3-0.2-1.8-0.5l-8.4-4.8c-0.4-0.2-0.9-0.1-1.2,0.3c-0.2,0.4-0.1,0.9,0.3,1.2l8.4,4.8
			c0.8,0.5,1.7,0.7,2.6,0.7c0,0,0,0,0,0c0.5,0,0.9-0.4,0.9-0.9C24.9,33.9,24.5,33.5,24,33.5z"/>
		<path class="st1" d="M34.8,30h-2.6v-2.6c0-0.5-0.4-0.9-0.9-0.9c-0.5,0-0.9,0.4-0.9,0.9V30h-2.6c-0.5,0-0.9,0.4-0.9,0.9
			s0.4,0.9,0.9,0.9h2.6v2.6c0,0.5,0.4,0.9,0.9,0.9c0.5,0,0.9-0.4,0.9-0.9v-2.6h2.6c0.5,0,0.9-0.4,0.9-0.9S35.3,30,34.8,30z"/>
	</g>
</g>
</svg>
