<?xml version="1.0" encoding="utf-8"?>
<!-- Generator: Adobe Illustrator 26.1.0, SVG Export Plug-In . SVG Version: 6.00 Build 0)  -->
<svg version="1.1" id="图层_1" xmlns="http://www.w3.org/2000/svg" xmlns:xlink="http://www.w3.org/1999/xlink" x="0px" y="0px"
	 viewBox="0 0 48 48" style="enable-background:new 0 0 48 48;" xml:space="preserve">
<style type="text/css">
	.st0{fill:#87D068;}
	.st1{fill:#FFFFFF;}
</style>
<path class="st0" d="M36,48H12C5.4,48,0,42.6,0,36V12C0,5.4,5.4,0,12,0h24c6.6,0,12,5.4,12,12v24C48,42.6,42.6,48,36,48z"/>
<g>
	<g>
		<circle class="st1" cx="19.7" cy="26.6" r="0.9"/>
		<g>
			<path class="st1" d="M29,26.9c0.5,0,0.9,0.4,0.9,0.9l0,2.6l2.6,0c0.5,0,0.9,0.4,0.9,0.9c0,0.5-0.4,0.9-0.9,0.9l-2.6,0l0,2.6
				c0,0.5-0.4,0.9-0.9,0.9c-0.5,0-0.9-0.4-0.9-0.9l0-2.6l-2.6,0c-0.5,0-0.9-0.4-0.9-0.9c0-0.5,0.4-0.9,0.9-0.9l2.6,0l0-2.6
				C28.1,27.3,28.5,26.9,29,26.9"/>
		</g>
		<g>
			<path class="st1" d="M26.6,34.8l0-1.2l-1.2,0c0,0,0,0,0,0c-0.6,0-1.2-0.2-1.6-0.7c-0.4-0.4-0.7-1-0.7-1.6c0-0.6,0.2-1.2,0.7-1.6
				c0.4-0.4,1-0.7,1.6-0.7l1.2,0l0-1.2c0-1.3,1-2.3,2.3-2.3c0,0,0,0,0,0c1.3,0,2.3,1,2.3,2.3l0,1.2l1.2,0c0,0,0,0,0,0
				c0.3,0,0.6,0.1,0.9,0.2V14.7c0-1.3-1.1-2.3-2.3-2.3H17c-1.3,0-2.3,1.1-2.3,2.3v18.7c0,1.3,1,2.3,2.3,2.3h9.8
				C26.7,35.4,26.6,35.1,26.6,34.8z M19.7,29.3c-1.4,0-2.6-1.2-2.6-2.6s1.2-2.6,2.6-2.6s2.6,1.2,2.6,2.6S21.1,29.3,19.7,29.3z
				 M22.6,17.9l-2.9,2.9c-0.2,0.2-0.4,0.3-0.6,0.3s-0.4-0.1-0.6-0.3l-1.2-1.2c-0.3-0.3-0.3-0.9,0-1.2s0.9-0.3,1.2,0l0.5,0.5l2.3-2.3
				c0.3-0.3,0.9-0.3,1.2,0S23,17.6,22.6,17.9z M24.9,17.6h4.7c0.5,0,0.9,0.4,0.9,0.9s-0.4,0.9-0.9,0.9h-4.7c-0.5,0-0.9-0.4-0.9-0.9
				S24.4,17.6,24.9,17.6z"/>
		</g>
	</g>
</g>
</svg>
