<?xml version="1.0" encoding="UTF-8"?>
<svg width="49px" height="48px" viewBox="0 0 49 48" version="1.1" xmlns="http://www.w3.org/2000/svg">
    <g stroke="none" stroke-width="1" fill="none" fill-rule="evenodd">
        <g fill-rule="nonzero">
            <path d="M36.600098,48 L12.600098,48 C6.0001,48 0.600098,42.6 0.600098,36 L0.600098,12 C0.600098,5.4 6.0001,0 12.600098,0 L36.600098,0 C43.2001,0 48.600098,5.4 48.600098,12 L48.600098,36 C48.600098,42.6 43.2001,48 36.600098,48 Z" id="路径" fill="#72A1F7"></path>
            <path d="M21.2010979,13 C21.6568178,13 22.0468388,13.1576611 22.3711612,13.4735036 C22.6949622,13.7888257 22.8571233,14.1738726 22.8571233,14.6296849 L22.8571233,21.2009782 C22.8571233,21.6567904 22.6954836,22.0465203 22.3711612,22.3706882 C22.0652854,22.6872082 21.6416897,22.8631508 21.2010979,22.8566798 L14.630181,22.8566798 C14.1930882,22.8647376 13.7729052,22.6882462 13.4731532,22.3706882 C13.1635117,22.0606328 12.992901,21.6386541 13.0002265,21.2009782 L13.0002265,14.6296849 C13.0002265,14.1738726 13.1576949,13.7888257 13.4731532,13.4729833 C13.7886114,13.1576611 14.1744612,13 14.630181,13 L21.2010979,13 Z M21.2010979,26.1425866 C21.6568178,26.1425866 22.0468388,26.3002477 22.3711612,26.6160902 C22.6949622,26.930892 22.8571233,27.3164592 22.8571233,27.7722715 L22.8571233,34.3701018 C22.8571233,34.8253937 22.6954836,35.2109609 22.3711612,35.5262831 C22.0468389,35.8416052 21.6568178,35.9997867 21.2010979,35.9997867 L14.630181,35.9997867 C14.1744612,35.9997867 13.7886114,35.8416053 13.4731532,35.5262831 C13.1576949,35.2109609 13.0002265,34.8253937 13.0002265,34.3695815 L13.0002265,27.7717512 C13.0002265,27.3164593 13.1576949,26.930892 13.4731532,26.6155699 C13.7886114,26.3002477 14.1744612,26.1420662 14.630181,26.1420662 L21.2010979,26.1420662 L21.2010979,26.1425866 Z M34.3705669,26.1425866 C34.8257654,26.1425866 35.2116151,26.3002477 35.5270734,26.6160902 C35.8425316,26.930892 36,27.3164592 36,27.7722715 L36,34.3701018 C36,34.8253937 35.8425316,35.2109609 35.5270734,35.5262831 C35.2116151,35.8416052 34.8257654,35.9997867 34.3705669,35.9997867 L27.7991286,35.9997867 C27.3608865,36.0068969 26.9385621,35.8359898 26.6290653,35.5262831 C26.3113415,35.2260289 26.1349499,34.8061764 26.1431032,34.3695815 L26.1431032,27.7717512 C26.1431032,27.3164593 26.304743,26.930892 26.6290653,26.6155699 C26.9385621,26.3058632 27.3608865,26.1349561 27.7991286,26.1420662 L34.3705669,26.1420662 L34.3705669,26.1425866 Z" id="形状" fill="#FFFFFF"></path>
            <path d="M33.1351352,11.5675676 L38.4324324,16.8648648 C39.1891892,17.6216216 39.1891892,18.3783784 38.4324324,19.1351351 L33.1351352,24.4324324 C32.3783784,25.1891892 31.6216216,25.1891892 30.8648649,24.4324324 L25.5675676,19.1351351 C24.8108108,18.3783784 24.8108108,17.6216216 25.5675676,16.8648648 L30.8648649,11.5675676 C31.6216216,10.8108108 32.3783784,10.8108108 33.1351352,11.5675676 Z" id="路径" fill-opacity="0.7" fill="#FFFFFF"></path>
        </g>
    </g>
</svg>
