<?xml version="1.0" encoding="utf-8"?>
<!-- Generator: Adobe Illustrator 26.1.0, SVG Export Plug-In . SVG Version: 6.00 Build 0)  -->
<svg version="1.1" id="图层_1" xmlns="http://www.w3.org/2000/svg" xmlns:xlink="http://www.w3.org/1999/xlink" x="0px" y="0px"
	 viewBox="0 0 48 48" style="enable-background:new 0 0 48 48;" xml:space="preserve">
<style type="text/css">
	.st0{fill:#FFAA64;}
	.st1{fill:#FFFFFF;}
</style>
<path class="st0" d="M36,48H12C5.4,48,0,42.6,0,36V12C0,5.4,5.4,0,12,0h24c6.6,0,12,5.4,12,12v24C48,42.6,42.6,48,36,48z"/>
<path class="st1" d="M32.5,14.5h-4.3v-1c0-0.4-0.3-0.8-0.8-0.8s-0.8,0.3-0.8,0.8v1h-5.3v-1c0-0.4-0.3-0.8-0.8-0.8s-0.8,0.3-0.8,0.8
	v1h-4.3c-1.5,0-2.8,1.2-2.8,2.8v15.3c0,1.5,1.2,2.8,2.8,2.8h17c1.5,0,2.8-1.2,2.8-2.8V17.2C35.2,15.7,34,14.5,32.5,14.5z M15.5,16
	h4.3v1c0,0.4,0.3,0.8,0.8,0.8s0.8-0.3,0.8-0.8v-1h5.3v1c0,0.4,0.3,0.8,0.8,0.8s0.8-0.3,0.8-0.8v-1h4.3c0.7,0,1.2,0.6,1.2,1.2v2.9
	H14.2v-2.9C14.2,16.5,14.8,16,15.5,16z M18.3,28.1L18.3,28.1c0.6,0,1.1,0.5,1.1,1.1c0,0.6-0.5,1-1,1c-0.6,0-1.1-0.5-1.1-1
	C17.3,28.5,17.8,28.1,18.3,28.1z M17.3,25.1c0-0.6,0.5-1,1-1h0c0.6,0,1,0.5,1,1s-0.5,1-1,1C17.8,26.2,17.3,25.7,17.3,25.1z M24,28.1
	L24,28.1c0.6,0,1.1,0.5,1.1,1.1c0,0.6-0.5,1-1,1c-0.6,0-1.1-0.5-1.1-1C23,28.5,23.4,28.1,24,28.1z M23,25.1c0-0.6,0.5-1,1-1h0
	c0.6,0,1,0.5,1,1s-0.5,1-1,1C23.4,26.2,23,25.7,23,25.1z M29.7,28.1L29.7,28.1c0.6,0,1.1,0.5,1.1,1.1c0,0.6-0.5,1-1,1
	c-0.6,0-1.1-0.5-1.1-1C28.6,28.5,29.1,28.1,29.7,28.1z M28.6,25.1c0-0.6,0.5-1,1-1h0c0.6,0,1,0.5,1,1s-0.5,1-1,1
	C29.1,26.2,28.6,25.7,28.6,25.1z"/>
</svg>
