<svg xmlns="http://www.w3.org/2000/svg" xmlns:xlink="http://www.w3.org/1999/xlink" fill="none" version="1.1" viewBox="0 0 48 48"><defs><clipPath id="master_svg0_3054_25401"><rect x="12" y="12" width="24" height="24" rx="0"/></clipPath></defs><g><rect x="0" y="0" width="48" height="48" rx="12" fill="#F57775" fill-opacity="1"/><g clip-path="url(#master_svg0_3054_25401)"><g><path d="M36,19.35553L36,31.6471C36,32.8166,35.0519,33.764700000000005,33.882400000000004,33.764700000000005L14.11765,33.764700000000005C12.948108,33.764700000000005,12.00000549316,32.8166,12.00000549316,31.6471L12.00000549316,19.35553L20.804470000000002,26.8202C22.6481,28.3834,25.3519,28.3834,27.1955,26.8202L36,19.35553ZM33.882400000000004,14.000000646254C34.1404,14.000286291,34.3963,14.0471559,34.6376,14.138353C34.984700000000004,14.270521,35.2905,14.492136,35.5242,14.780706C35.6509,14.935896,35.7549,15.10818,35.8334,15.29247C35.925200000000004,15.50988,35.9816,15.74565,35.9958,15.99341L36,16.11765L36,16.823529999999998L25.3744,25.8871C24.6211,26.5295,23.5233,26.5644,22.730800000000002,25.9711L22.625700000000002,25.886400000000002L12.00000517004,16.823529999999998L12.00000517004,16.11765C11.9982451,15.318200000000001,12.448325,14.586376,13.16259,14.227294C13.45869,14.0776132,13.78587,13.999747961,14.11765,14.000000646254L33.882400000000004,14.000000646254Z" fill="#FFFFFF" fill-opacity="1"/></g></g></g></svg>
