<svg xmlns="http://www.w3.org/2000/svg" xmlns:xlink="http://www.w3.org/1999/xlink" fill="none" version="1.1" width="52" height="52" viewBox="0 0 52 52"><defs><clipPath id="master_svg0_3138_30094"><rect x="12" y="12" width="28" height="28" rx="0"/></clipPath></defs><g><rect x="0" y="0" width="52" height="52" rx="12" fill="#FFAA6B" fill-opacity="1"/><g clip-path="url(#master_svg0_3138_30094)"><g><path d="M35.4072,13L16.5768,13C14.60395,13,13,14.60395,13,16.5768L13,35.4232C13,37.379999999999995,14.60395,38.984,16.5768,38.984L35.4232,38.984C37.396100000000004,38.984,39,37.379999999999995,39,35.4072L39,16.5768C38.984,14.58791,37.396100000000004,13,35.4072,13ZM21.48489,32.1351C21.48489,32.1993,21.48489,32.2795,21.46885,32.343599999999995C21.45281,32.4078,21.43677,32.471900000000005,21.404690000000002,32.536100000000005C21.37261,32.6002,21.34053,32.6644,21.30845,32.7286C21.22825,32.8408,21.13202,32.9531,21.01974,33.0173C20.95558,33.0494,20.89142,33.0814,20.82727,33.1135C20.76311,33.1456,20.68291,33.1616,20.61875,33.1777C20.5546,33.1937,20.4744,33.1937,20.41024,33.1937C20.34608,33.1937,20.26588,33.1937,20.20173,33.1777C20.13757,33.1616,20.07341,33.1456,20.00925,33.1135C19.94509,33.0814,19.88094,33.0494,19.81678,33.0173C19.75262,32.9852,19.7045,32.9371,19.65638,32.888999999999996C19.60827,32.8408,19.56015,32.776700000000005,19.51203,32.7286C19.47995,32.6644,19.44787,32.6002,19.41579,32.536100000000005C19.38371,32.471900000000005,19.36767,32.4078,19.35163,32.327600000000004C19.33559,32.263400000000004,19.33559,32.1832,19.33559,32.1191L19.33559,23.8908C19.33559,23.8106,19.33559,23.746499999999997,19.35163,23.682299999999998C19.36767,23.6181,19.38371,23.554000000000002,19.41579,23.489800000000002C19.44787,23.4257,19.47995,23.3615,19.51203,23.2973C19.59223,23.1851,19.68846,23.0728,19.80074,23.0086C19.8649,22.97656,19.92905,22.928440000000002,19.99321,22.912399999999998C20.05737,22.880319999999998,20.12153,22.86428,20.20173,22.84824C20.26588,22.8322,20.34608,22.81616,20.41024,22.8322C20.4744,22.8322,20.5546,22.8322,20.61875,22.84824C20.68291,22.86428,20.74707,22.880319999999998,20.811230000000002,22.912399999999998C20.87538,22.94448,20.93954,22.97656,21.003700000000002,23.0086C21.11598,23.0888,21.22825,23.1851,21.29241,23.2973C21.32449,23.3615,21.37261,23.4257,21.38865,23.489800000000002C21.42073,23.554000000000002,21.43677,23.6181,21.45281,23.6983C21.46884,23.7625,21.46884,23.8427,21.46884,23.9068Q21.48489,23.9068,21.48489,32.1351ZM27.0987,32.0709C27.0987,32.1351,27.0987,32.2153,27.082700000000003,32.2795C27.0666,32.343599999999995,27.0506,32.4078,27.0185,32.471900000000005C26.9864,32.536100000000005,26.9543,32.6002,26.9223,32.6644C26.8902,32.7286,26.842100000000002,32.776700000000005,26.794,32.824799999999996C26.7458,32.8729,26.6817,32.921,26.6336,32.9692C26.5694,33.0012,26.505200000000002,33.0333,26.4411,33.0654C26.3769,33.0975,26.3128,33.1135,26.232599999999998,33.1295C26.1684,33.1456,26.0882,33.1456,26.0241,33.1456C25.959899999999998,33.1456,25.8797,33.1456,25.8155,33.1295C25.7514,33.1135,25.6872,33.0975,25.6231,33.0654C25.5589,33.0333,25.494799999999998,33.0012,25.4306,32.9692C25.3183,32.888999999999996,25.206,32.792699999999996,25.1419,32.6804C25.1098,32.616299999999995,25.061700000000002,32.552099999999996,25.0456,32.488C25.0136,32.4238,24.997500000000002,32.3596,24.9815,32.2795C24.9655,32.2153,24.9655,32.1351,24.9655,32.0709L24.9655,19.88094C24.9655,19.81678,24.9655,19.73658,24.9815,19.67242C24.997500000000002,19.60827,25.0136,19.52807,25.0456,19.47995C25.0777,19.41579,25.1098,19.35163,25.1419,19.287480000000002C25.222099999999998,19.1752,25.3183,19.06292,25.4306,18.99877C25.494799999999998,18.96669,25.5589,18.91857,25.6231,18.90253C25.6872,18.870449999999998,25.7514,18.85441,25.8316,18.83837C25.9759,18.80629,26.1203,18.80629,26.2486,18.83837C26.3128,18.85441,26.3769,18.870449999999998,26.4411,18.90253C26.505200000000002,18.93461,26.5694,18.96669,26.6336,18.99877C26.7458,19.078960000000002,26.8581,19.1752,26.9223,19.287480000000002C26.9543,19.35163,26.9864,19.41579,27.0185,19.47995C27.0506,19.54411,27.0666,19.62431,27.082700000000003,19.68846C27.0987,19.75262,27.0987,19.832819999999998,27.0987,19.89698L27.0987,32.0709ZM32.616299999999995,32.0709C32.616299999999995,32.1351,32.616299999999995,32.2153,32.6002,32.2795C32.584199999999996,32.343599999999995,32.568200000000004,32.4078,32.536100000000005,32.471900000000005C32.504000000000005,32.536100000000005,32.471900000000005,32.6002,32.4399,32.6644C32.359700000000004,32.776700000000005,32.263400000000004,32.888999999999996,32.1511,32.9531C32.087,32.9852,32.022800000000004,33.0333,31.9587,33.0494C31.8945,33.0814,31.8304,33.0975,31.7502,33.1135C31.686,33.1295,31.6058,33.1295,31.5416,33.1295C31.4775,33.1295,31.3973,33.1295,31.3331,33.1135C31.269,33.0975,31.2048,33.0814,31.1407,33.0494C31.0765,33.0173,31.0123,32.9852,30.9482,32.9531C30.8359,32.8729,30.7236,32.776700000000005,30.6595,32.6644C30.6274,32.6002,30.5793,32.536100000000005,30.5632,32.471900000000005C30.5312,32.4078,30.5151,32.343599999999995,30.4991,32.263400000000004C30.483,32.1993,30.483,32.1191,30.483,32.0549L30.483,28.173299999999998C30.483,28.1092,30.483,28.029,30.4991,27.9648C30.5151,27.9007,30.5312,27.8365,30.5632,27.772399999999998C30.5953,27.708199999999998,30.6274,27.644,30.6595,27.579900000000002C30.7397,27.467599999999997,30.8359,27.3553,30.9482,27.2912C31.0123,27.2591,31.0765,27.211,31.1407,27.1949C31.2048,27.1629,31.269,27.1468,31.3492,27.1308C31.4133,27.1147,31.4935,27.1147,31.5577,27.1147C31.6218,27.1147,31.702,27.1147,31.7662,27.1308C31.8304,27.1468,31.8945,27.1629,31.9587,27.1949C32.022800000000004,27.227,32.087,27.2591,32.1511,27.2912C32.263400000000004,27.3714,32.375699999999995,27.467599999999997,32.4399,27.579900000000002C32.471900000000005,27.644,32.519999999999996,27.708199999999998,32.536100000000005,27.772399999999998C32.568200000000004,27.8365,32.584199999999996,27.9007,32.6002,27.9809C32.616299999999995,28.045,32.616299999999995,28.1252,32.616299999999995,28.1894L32.616299999999995,32.0709Z" fill-rule="evenodd" fill="#FFFFFF" fill-opacity="1"/></g></g></g></svg>