<svg xmlns="http://www.w3.org/2000/svg" xmlns:xlink="http://www.w3.org/1999/xlink" fill="none" version="1.1" viewBox="0 0 48 48"><defs><clipPath id="master_svg0_3054_25405"><rect x="12" y="12" width="24" height="24" rx="0"/></clipPath></defs><g><rect x="0" y="0" width="48" height="48" rx="12" fill="#FFC835" fill-opacity="1"/><g clip-path="url(#master_svg0_3054_25405)"><g><g><rect x="12" y="26.31494140625" width="1.8119423389434814" height="7.173644542694092" rx="0.9059711694717407" fill="#FFFFFF" fill-opacity="1"/></g><g><rect x="34.18804931640625" y="26.31494140625" width="1.8119423389434814" height="7.173644542694092" rx="0.9059711694717407" fill="#FFFFFF" fill-opacity="1"/></g><g><path d="M29.53465,20.54139L31.35485,17.38422C31.41525,17.38422,31.47695,17.39383,31.53875,17.39383C32.931349999999995,17.39648,33.97485,16.118949999999998,33.69415,14.75489C33.41345,13.390835,31.95045,12.629057,30.67195,13.181321C29.393549999999998,13.733585,28.94525,15.32101,29.74605,16.4604L27.76795,19.89211C25.287950000000002,19.2077,22.669629999999998,19.20201,20.18666,19.87564L18.21274,16.46315C19.0135,15.32376,18.56525,13.73633,17.28679,13.184066C16.00834,12.631803,14.545278,13.393581,14.2646052,14.75764C13.983932,16.1217,15.02738,17.39923,16.42001,17.39657C16.48179,17.39657,16.542180000000002,17.39657,16.60258,17.386960000000002L18.417270000000002,20.529040000000002C16.05625,21.62718,14.483158,23.3979,14.36648,25.4172L14.356871,25.4172L14.356871,33.289500000000004C14.356871,34.7254,15.52087,35.889399999999995,16.95673,35.889399999999995L30.96905,35.889399999999995C32.40495,35.889399999999995,33.56895,34.7254,33.56895,33.289500000000004L33.56895,25.4172L33.559349999999995,25.4172C33.444050000000004,23.4048,31.88195,21.636789999999998,29.53465,20.54139ZM27.063850000000002,29.5105L20.86888,29.5105C19.89243,29.5105,19.10087,28.718899999999998,19.10087,27.7425C19.10087,26.766,19.89243,25.9745,20.86888,25.9745L27.05695,25.9745C28.03335,25.9745,28.82495,26.766,28.82495,27.7425C28.82495,28.718899999999998,28.03335,29.5105,27.05695,29.5105L27.063850000000002,29.5105Z" fill="#FFFFFF" fill-opacity="1"/></g></g></g></g></svg>
