<?xml version="1.0" encoding="utf-8"?>
<!-- Generator: Adobe Illustrator 26.4.1, SVG Export Plug-In . SVG Version: 6.00 Build 0)  -->
<svg version="1.1" id="图层_1" xmlns="http://www.w3.org/2000/svg" xmlns:xlink="http://www.w3.org/1999/xlink" x="0px" y="0px"
	 viewBox="0 0 48 48" style="enable-background:new 0 0 48 48;" xml:space="preserve">
<style type="text/css">
	.st0{fill:#87D068;}
	.st1{fill:#FFFFFF;}
</style>
<g>
	<g>
		<path class="st0" d="M36,48H12C5.4,48,0,42.6,0,36V12C0,5.4,5.4,0,12,0h24c6.6,0,12,5.4,12,12v24C48,42.6,42.6,48,36,48z"/>
	</g>
	<g>
		<path class="st1" d="M34.4,33.5H25l9.3-9.3c1.2-1.2,1.2-3.3,0-4.5l-6.8-6.8c-1.2-1.2-3.3-1.2-4.5,0L12.9,23.1
			c-1.2,1.2-1.2,3.3,0,4.5l6,6h-6c-0.5,0-0.9,0.4-0.9,0.9c0,0.5,0.4,0.9,0.9,0.9H22c0,0,0,0,0,0c0,0,0,0,0,0h12.4
			c0.5,0,0.9-0.4,0.9-0.9C35.3,33.9,34.9,33.5,34.4,33.5z M17.1,25.5c0.3-0.3,0.9-0.3,1.2,0l3.4,3.4c0.1,0.1,0.3,0.1,0.4,0l6.7-6.7
			c0.3-0.3,0.9-0.3,1.2,0c0.3,0.3,0.3,0.9,0,1.2l-6.7,6.7c-0.4,0.4-0.9,0.6-1.5,0.6c-0.5,0-1.1-0.2-1.5-0.6l-3.4-3.4
			C16.8,26.4,16.8,25.9,17.1,25.5L17.1,25.5z"/>
	</g>
</g>
</svg>
