<?xml version="1.0" encoding="utf-8"?>
<!-- Generator: Adobe Illustrator 26.4.1, SVG Export Plug-In . SVG Version: 6.00 Build 0)  -->
<svg version="1.1" id="图层_1" xmlns="http://www.w3.org/2000/svg" xmlns:xlink="http://www.w3.org/1999/xlink" x="0px" y="0px"
	 viewBox="0 0 48 48" style="enable-background:new 0 0 48 48;" xml:space="preserve">
<style type="text/css">
	.st0{fill:#87D068;}
	.st1{clip-path:url(#SVGID_00000018941778426702510620000006481262296390689922_);}
	.st2{fill:#FFFFFF;}
</style>
<g>
	<g>
		<path class="st0" d="M36,48H12C5.4,48,0,42.6,0,36V12C0,5.4,5.4,0,12,0h24c6.6,0,12,5.4,12,12v24C48,42.6,42.6,48,36,48z"/>
	</g>
	<g>
		<defs>
			<rect id="SVGID_1_" x="12" y="12" width="24" height="24"/>
		</defs>
		<clipPath id="SVGID_00000141444668484078751200000003089482387513471677_">
			<use xlink:href="#SVGID_1_"  style="overflow:visible;"/>
		</clipPath>
		<g style="clip-path:url(#SVGID_00000141444668484078751200000003089482387513471677_);">
			<g>
				<path class="st2" d="M28.5,21c-4.1,0-7.5,3.4-7.5,7.5c0,4.1,3.4,7.5,7.5,7.5c4.1,0,7.5-3.4,7.5-7.5C36,24.4,32.6,21,28.5,21z
					 M30.6,29.4h-1.2v1.2c0,0.5-0.4,0.9-0.9,0.9c-0.5,0-0.9-0.4-0.9-0.9v-1.2h-1.2c-0.5,0-0.9-0.4-0.9-0.9c0-0.5,0.4-0.9,0.9-0.9
					h1.2v-1.2c0-0.5,0.4-0.9,0.9-0.9c0.5,0,0.9,0.4,0.9,0.9v1.2h1.2c0.5,0,0.9,0.4,0.9,0.9C31.5,29,31,29.4,30.6,29.4z"/>
			</g>
			<g>
				<path class="st2" d="M15.3,23.9c0-4.8,3.9-8.7,8.7-8.7c0.6,0,1.2,0.1,1.8,0.2c-1.3-2.1-3.7-3.4-6.3-3.4c-4.1,0-7.5,3.4-7.5,7.5
					c0,2.7,1.4,5,3.5,6.3C15.3,25.2,15.3,24.6,15.3,23.9z"/>
			</g>
			<g>
				<path class="st2" d="M19.8,28.5c0-4.8,3.9-8.7,8.7-8.7c0.6,0,1.3,0.1,1.9,0.2c-1.3-2.1-3.7-3.6-6.4-3.6c-4.1,0-7.5,3.4-7.5,7.5
					c0,2.7,1.4,5,3.5,6.3C19.8,29.7,19.8,29.1,19.8,28.5z"/>
			</g>
		</g>
	</g>
</g>
</svg>
