<?xml version="1.0" encoding="utf-8"?>
<!-- Generator: Adobe Illustrator 25.0.0, SVG Export Plug-In . SVG Version: 6.00 Build 0)  -->
<svg version="1.1" id="图层_1" xmlns="http://www.w3.org/2000/svg" xmlns:xlink="http://www.w3.org/1999/xlink" x="0px" y="0px"
	 viewBox="0 0 1024 1024" style="enable-background:new 0 0 1024 1024;" xml:space="preserve">
<style type="text/css">
	.st0{opacity:0.1;fill:#1F8EEC;}
	.st1{fill:#FFFFFF;stroke:#1F8EEC;stroke-width:32;stroke-linecap:round;stroke-linejoin:round;stroke-miterlimit:10;}
	.st2{opacity:0.5;fill:none;stroke:#1F8EEC;stroke-width:16;stroke-linecap:round;stroke-linejoin:round;stroke-miterlimit:10;}
	.st3{fill:#1F8EEC;}
</style>
<circle class="st0" cx="512" cy="512" r="448"/>
<g>
	<g>
		<path class="st1" d="M800,688H224V264c0-13.2,10.8-24,24-24h528c13.2,0,24,10.8,24,24V688z"/>
		<path class="st1" d="M832,784H192c-35.2,0-64-28.8-64-64v-32h768v32C896,755.2,867.2,784,832,784z"/>
		<path class="st2" d="M736,624H288V337.78c0-18.58,15.2-33.78,33.78-33.78h380.44c18.58,0,33.78,15.2,33.78,33.78V624z"/>
		<g>
			<g>
				<path class="st3" d="M401.74,515.64c0-1.04,0.04-2.6,0.13-4.67c0.08-2.08,0.13-3.63,0.13-4.66c0-0.21-0.13-0.32-0.39-0.32
					c-0.27,0-0.67,0.01-1.2,0.04c-0.53,0.03-0.93,0.04-1.19,0.04c-0.27,0-0.67-0.01-1.2-0.04c-0.53-0.02-0.93-0.04-1.19-0.04
					c-0.22,0-0.34,0.14-0.34,0.42c0,0.65,0.03,1.63,0.09,2.93c0.06,1.3,0.09,2.27,0.09,2.92c0,0.31-0.11,0.5-0.32,0.55
					c-0.3,0.07-1.41,0.11-3.33,0.11c-2.06,0-3.2-0.04-3.44-0.11c-0.17-0.06-0.26-0.24-0.26-0.55c0-0.67,0.05-1.68,0.15-3.01
					c0.1-1.34,0.15-2.34,0.15-3.02c0-0.16-0.08-0.24-0.23-0.24c-0.29,0-0.72,0.01-1.3,0.04c-0.58,0.03-1.01,0.04-1.29,0.04
					c-0.28,0-0.7-0.01-1.26-0.04c-0.56-0.02-0.98-0.04-1.26-0.04c-0.19,0-0.28,0.1-0.28,0.29c0,1.04,0.04,2.6,0.13,4.68
					c0.09,2.08,0.13,3.64,0.13,4.68c0,0.98-0.05,2.44-0.14,4.39c-0.09,1.95-0.14,3.41-0.14,4.38c0,0.23,0.13,0.37,0.39,0.42
					c0.33,0.05,1.1,0.08,2.31,0.08c1.4,0,2.24-0.03,2.52-0.08c0.24-0.05,0.36-0.2,0.36-0.47c0-0.7-0.02-1.75-0.07-3.14
					c-0.04-1.39-0.07-2.43-0.07-3.13c0-0.36,0.1-0.56,0.3-0.61c0.31-0.07,1.4-0.1,3.28-0.1c1.86,0,2.94,0.03,3.25,0.1
					c0.2,0.06,0.3,0.26,0.3,0.61c0,0.71-0.03,1.77-0.1,3.19c-0.07,1.42-0.1,2.48-0.1,3.19c0,0.19,0.12,0.31,0.37,0.36
					c0.25,0.05,1.07,0.08,2.48,0.08c0.99,0,1.76-0.03,2.31-0.08c0.22-0.02,0.34-0.04,0.38-0.07c0.08-0.05,0.12-0.16,0.12-0.35
					c0-0.97-0.05-2.42-0.14-4.38C401.78,518.08,401.74,516.62,401.74,515.64z"/>
				<path class="st3" d="M431.7,506.28c0-0.2-0.13-0.29-0.39-0.29c-0.28,0-0.69,0.01-1.23,0.04c-0.54,0.03-0.95,0.04-1.23,0.04
					s-0.7-0.01-1.26-0.04c-0.56-0.02-0.98-0.04-1.25-0.04c-0.21,0-0.31,0.1-0.31,0.29c0,0.96,0.03,2.4,0.09,4.31
					c0.06,1.92,0.09,3.35,0.09,4.31c0,1.14-0.08,3.52-0.24,7.14c-0.08,1.72-0.12,2.51-0.12,2.36c0,0.22,0.13,0.36,0.39,0.42
					c0.36,0.07,1.19,0.11,2.5,0.11c0.97,0,1.75-0.04,2.33-0.11c0.22-0.03,0.33-0.05,0.35-0.05c0.08-0.05,0.12-0.16,0.12-0.34
					c0-1.06-0.03-2.64-0.08-4.77c-0.05-2.12-0.08-3.71-0.08-4.76c0-0.96,0.05-2.4,0.15-4.31
					C431.65,508.68,431.7,507.24,431.7,506.28z"/>
				<path class="st3" d="M468.48,508.14c0-0.2,0.01-0.53,0.03-1.01c0.02-0.43,0.03-0.77,0.03-1.01c-0.01-0.15-0.03-0.24-0.05-0.26
					c-0.03-0.02-0.13-0.03-0.31-0.03c-0.01,0-0.6,0.05-1.76,0.13c-2.17,0.17-3.65,0.26-4.46,0.26c-2.84,0-4.98-0.09-6.43-0.28
					c-0.11-0.01-0.17-0.01-0.19-0.01c-0.15,0-0.26,0.34-0.32,1.01c-0.04,0.42-0.07,0.84-0.09,1.26c-0.02,0.14-0.1,0.52-0.24,1.14
					c-0.13,0.57-0.19,0.92-0.19,1.03c0,0.09,0.07,0.14,0.22,0.14c1.07,0,2.49-0.09,4.28-0.27c0.07,2.42,0.11,3.97,0.11,4.67
					c0,1.06-0.04,2.64-0.13,4.75c-0.09,2.11-0.13,3.7-0.13,4.75c0,0.23,0.13,0.37,0.38,0.42c0.47,0.07,1.28,0.11,2.43,0.11
					c1.04,0,1.83-0.04,2.36-0.11c0.22-0.03,0.35-0.05,0.38-0.07c0.08-0.05,0.12-0.15,0.12-0.32c0-1.06-0.04-2.64-0.13-4.77
					c-0.08-2.12-0.13-3.71-0.13-4.76c0-0.9,0.03-2.48,0.08-4.74c2.35,0.13,3.7,0.2,4.04,0.2c0.2,0,0.3-0.09,0.3-0.27
					c0-0.21-0.03-0.54-0.09-0.97C468.51,508.69,468.48,508.36,468.48,508.14z"/>
				<path class="st3" d="M500.62,505.49c-2.77,0-5.06,0.97-6.89,2.91c-1.79,1.9-2.68,4.24-2.68,7.02c0,2.77,0.9,5.11,2.68,7
					c1.83,1.93,4.12,2.9,6.89,2.9c2.78,0,5.08-0.96,6.9-2.87c1.78-1.89,2.67-4.23,2.67-7.02c0-2.76-0.9-5.11-2.7-7.02
					C505.65,506.46,503.36,505.49,500.62,505.49z M503.84,518.77c-0.89,1.01-1.96,1.52-3.22,1.52c-1.35,0-2.45-0.48-3.29-1.44
					c-0.8-0.91-1.19-2.05-1.19-3.42c0-1.28,0.43-2.41,1.28-3.4c0.88-1.02,1.95-1.53,3.21-1.53c1.32,0,2.41,0.49,3.26,1.48
					c0.81,0.94,1.22,2.08,1.22,3.42C505.1,516.68,504.68,517.8,503.84,518.77z"/>
				<path class="st3" d="M540.05,513.45c-0.65-0.8-0.97-1.47-0.97-2.01c0-0.61,0.29-1.08,0.87-1.42c0.48-0.29,1.05-0.44,1.69-0.44
					c0.09,0,0.22,0.01,0.39,0.04c0.17,0.03,0.29,0.04,0.36,0.04c0.16,0,0.24-0.08,0.24-0.23c0-0.04-0.01-0.08-0.04-0.14
					c-0.85-1.71-1.39-2.89-1.62-3.54c-0.08-0.22-0.19-0.32-0.32-0.32c-0.05,0-0.13,0-0.23,0.01c-1.8,0.27-3.32,0.85-4.55,1.75
					c-1.51,1.08-2.27,2.44-2.27,4.08c0,1.13,0.31,2.16,0.93,3.09c0.09,0.14,0.66,0.81,1.72,2.03c0.61,0.72,0.91,1.36,0.91,1.95
					c0,0.91-0.47,1.6-1.4,2.07c-0.42,0.21-1.28,0.46-2.58,0.75c-0.13,0.03-0.2,0.09-0.2,0.19c0,0.28,0.35,1.05,1.06,2.3
					c0.71,1.26,1.16,1.89,1.37,1.89c0.05,0,0.1-0.01,0.17-0.01c1.92-0.31,3.56-1.04,4.9-2.19c1.53-1.3,2.3-2.85,2.3-4.67
					c0-0.97-0.32-1.96-0.95-2.94C541.79,515.64,541.19,514.88,540.05,513.45z"/>
				<path class="st3" d="M579.92,520.17c-0.47,0-1.17,0.04-2.1,0.13c-0.94,0.08-1.64,0.13-2.11,0.13c-1.33,0-1.98,0-1.96,0
					c-0.99-0.06-1.57-0.26-1.72-0.61c-0.09-0.2-0.13-0.63-0.13-1.32c0-0.51,0-0.79,0.01-0.83c0.06-0.18,0.28-0.27,0.65-0.27h1.42
					c1.82,0,2.98,0.03,3.49,0.08l1.21,0.14c0.26,0,0.39-0.09,0.39-0.27c0-0.72,0.03-1.43,0.11-2.15c0.16-1.56,0.24-2.24,0.24-2.05
					c0-0.21-0.11-0.31-0.32-0.31c-0.18,0-0.42,0.02-0.72,0.06c-0.4,0.04-0.64,0.06-0.74,0.07c-1.15,0.06-2.29,0.09-3.42,0.09
					c-0.17,0-0.38,0.01-0.65,0.02c-0.26,0.01-0.43,0.02-0.52,0.02c-0.43,0-0.72-0.08-0.87-0.26c-0.18-0.2-0.27-0.6-0.27-1.21
					c0-0.58,0.02-0.93,0.07-1.04c0.11-0.22,0.4-0.33,0.87-0.33c1.9,0,4.04,0.1,6.42,0.29c0.13,0.01,0.23,0.01,0.28,0.01
					c0.18,0,0.27-0.09,0.27-0.28c0-0.22-0.05-0.86-0.14-1.9c-0.09-1.04-0.16-1.67-0.21-1.87c-0.07-0.35-0.34-0.52-0.8-0.52
					c-0.65,0-1.64,0.02-2.95,0.05c-1.32,0.04-2.3,0.06-2.95,0.06c-0.66,0-1.66-0.02-2.99-0.06c-1.33-0.03-2.32-0.05-2.99-0.05
					c-0.24,0-0.35,0.1-0.34,0.31l0.01,0.19c0.07,1.42,0.12,2.49,0.15,3.21c0.11,2.78,0.16,4.69,0.16,5.71c0,1-0.06,2.51-0.17,4.52
					c-0.11,2.01-0.17,3.52-0.17,4.52c0,0.26,0.15,0.39,0.44,0.39c0.68,0,1.7,0,3.06,0.01c1.36,0.01,2.39,0.01,3.07,0.01
					c3.16,0,5.07,0.04,5.72,0.13c0.19,0.03,0.32,0.04,0.4,0.04c0.19,0,0.34-0.09,0.44-0.26c0.12-0.22,0.27-0.88,0.43-2
					c0.15-1.03,0.23-1.74,0.23-2.12C580.22,520.33,580.12,520.17,579.92,520.17z"/>
				<path class="st3" d="M617.96,515.82c-2.12-5.51-3.4-8.73-3.84-9.67c-0.14-0.29-0.3-0.44-0.47-0.44c-0.23,0-0.58,0.02-1.05,0.05
					c-0.47,0.03-0.83,0.05-1.07,0.05c-0.25,0-0.63-0.02-1.13-0.07c-0.51-0.05-0.88-0.07-1.12-0.07c-0.14,0-0.27,0.17-0.38,0.51
					c-0.19,0.59-1.38,3.85-3.57,9.79c-2.02,5.49-3.03,8.35-3.03,8.58c0,0.26,0.69,0.39,2.06,0.39c1.74,0,2.76-0.04,3.06-0.11
					c0.24-0.06,0.45-0.47,0.62-1.21c0.19-0.82,0.36-1.29,0.51-1.44c0.1-0.08,0.91-0.12,2.43-0.12c2.26,0,3.45,0.03,3.6,0.09
					c0.17,0.09,0.41,0.78,0.71,2.07c0.08,0.34,0.27,0.54,0.58,0.61c0.37,0.07,1.19,0.11,2.47,0.11c1.4,0,2.23-0.04,2.5-0.11
					c0.22-0.06,0.33-0.17,0.33-0.34C621.16,524.25,620.1,521.36,617.96,515.82z M613.12,517.36c-0.06,0.14-0.39,0.21-0.98,0.21
					c-0.64,0-1.09-0.01-1.37-0.02c-0.54-0.02-0.81-0.11-0.81-0.27c0-0.24,0.24-1.06,0.73-2.46c0.45-1.32,0.76-2.17,0.95-2.57
					c0.19,0.36,0.48,1.18,0.89,2.47c0.41,1.33,0.62,2.15,0.62,2.44C613.15,517.25,613.14,517.31,613.12,517.36z"/>
			</g>
			<g>
				<path class="st3" d="M609.87,419.4c-0.24,0.58-3.88-0.59-10.43-2.14c-3.27-0.75-7.31-1.52-11.95-1.81
					c-4.63-0.28-9.9,0.07-15.17,2c-5.31,1.91-10.31,5.62-15.49,10.45c-2.62,2.38-5.35,5.02-8.66,7.51
					c-3.27,2.46-7.39,4.81-12.16,5.58c-1.18,0.25-2.37,0.28-3.58,0.37c-1.84,0-2.65-0.28-3.23-0.24c-0.59,0.01-0.6,0.09-0.63,0.12
					c-0.03,0.03-0.1,0.09-0.2,0.25c-0.08,0.11-0.3,0.51-0.32,0.58c-0.01,0.1-0.02,0.08,0.03,0.17c0.12,0.29,0.53,0.89,1.1,1.49
					l0.45,0.46l0.39,0.29l0.37,0.31l0.55,0.33c0.68,0.46,1.6,0.88,2.45,1.33c3.66,1.68,7.84,3.1,12.08,4.47
					c4.26,1.37,8.66,2.67,13.15,4.03c2.73,0.83,5.44,1.66,8.16,2.58c0.68,0.22,1.36,0.46,2.04,0.71l1.88,0.67l1.19,0.41
					c0.64,0.24,1.27,0.51,1.86,0.85c1.16,0.67,2.13,1.63,2.65,2.84c0.43,1.01,0.63,2.13,0.61,3.26c0,0.53-0.07,1.22-0.11,1.59
					l-0.12,0.88c-0.13,0.97-0.19,1.95-0.2,2.92c-0.02,0.98,0.03,1.95,0.13,2.92c0.04,0.48,0.12,0.96,0.19,1.44l0.12,0.71
					c0.03,0.18,0.13,0.62,0.11,0.52c0,0.06,0.01,0.14,0.03,0.25c0.07,0.13,0.14,0.03,0.19-0.04l0.08-0.1
					c0.02-0.04-0.02,0.05,0.05-0.1l0.27-0.56l0.54-1.11c0.36-0.74,0.72-1.48,1.08-2.22c0.43-0.84,0.83-1.7,1.75-2.85
					c0.97-1.19,2.27-2.11,3.72-2.51c0.72-0.21,1.48-0.28,2.23-0.25c0.72,0.02,1.59,0.19,2.07,0.33c1.1,0.31,1.88,0.65,2.61,0.95
					c0.75,0.31,1.49,0.62,2.23,0.93c5.86,2.56,11.18,5.62,15.9,8.91c9.44,6.63,16.36,14.32,20.96,21.34
					c4.64,7.03,6.97,13.37,8.13,17.73c1.15,4.39,1.22,6.87,0.82,6.96c-0.46,0.12-1.36-2.14-3.2-6.1c-1.85-3.95-4.73-9.62-9.6-15.84
					c-4.84-6.21-11.68-12.94-20.71-18.71c-4.52-2.86-9.55-5.5-15.05-7.71c-0.69-0.26-1.39-0.53-2.09-0.8
					c-0.72-0.28-1.4-0.53-1.82-0.62c-0.28-0.06-0.19-0.03-0.26-0.04c-0.04,0-0.07,0.01-0.1,0.03c-0.06,0.03-0.12,0.08-0.14,0.14
					c-0.26,0.28-1.05,2.08-1.71,3.52c-1.08,2.35-2.18,4.72-3.28,7.11c-0.96,1.87-2.16,2.5-3.05,2.91c-0.51,0.22-1.31,0.4-2.11,0.37
					c-0.8-0.01-1.61-0.25-2.12-0.51c-1.02-0.51-2.15-1.5-2.96-3.34c-0.82-1.79-1.5-3.84-2.04-5.96l-0.25-1.11l-0.17-0.93
					c-0.1-0.62-0.21-1.25-0.27-1.88c-0.15-1.26-0.23-2.54-0.22-3.83c0-1.29,0.08-2.58,0.23-3.88l0.1-0.82
					c0.02-0.19,0.01-0.08,0.01-0.12l-0.01-0.01l-0.02,0l-0.01,0l-0.77-0.25l-2.05-0.72c-0.62-0.23-1.26-0.44-1.91-0.65
					c-2.57-0.86-5.25-1.67-7.95-2.5c-4.45-1.35-8.89-2.68-13.27-4.11c-4.39-1.46-8.71-2.93-13.03-4.98c-1.1-0.58-2.16-1.08-3.3-1.85
					l-0.83-0.54l-0.89-0.73l-0.86-0.75l-0.67-0.71c-0.88-0.99-1.8-2.12-2.51-3.81c-0.8-1.87-0.82-4.17,0-6.02
					c0.39-0.9,0.7-1.42,1.23-2.17c0.5-0.7,1.17-1.4,1.99-1.99c1.67-1.22,3.82-1.56,5.29-1.47c1.49,0.06,2.7,0.36,2.91,0.31
					c0.84-0.06,1.68-0.03,2.49-0.2c6.57-0.9,12.06-6.14,17.61-10.8c2.79-2.35,5.65-4.62,8.69-6.5c3.03-1.88,6.21-3.36,9.39-4.32
					c6.39-1.92,12.44-1.82,17.44-1.08c5.02,0.76,9.15,2.04,12.41,3.29C606.86,416.81,610.06,418.96,609.87,419.4z"/>
			</g>
		</g>
	</g>
</g>
</svg>
