<?xml version="1.0" encoding="utf-8"?>
<!-- Generator: Adobe Illustrator 25.0.0, SVG Export Plug-In . SVG Version: 6.00 Build 0)  -->
<svg version="1.1" id="图层_1" xmlns="http://www.w3.org/2000/svg" xmlns:xlink="http://www.w3.org/1999/xlink" x="0px" y="0px"
	 viewBox="0 0 200 200" style="enable-background:new 0 0 200 200;" xml:space="preserve">
<style type="text/css">
	.st0{fill:#182AAE;}
	.st1{fill:#1A4BC0;}
	.st2{clip-path:url(#XMLID_3_);fill:url(#SVGID_1_);}
	.st3{clip-path:url(#XMLID_3_);fill:url(#SVGID_2_);}
	.st4{clip-path:url(#XMLID_3_);fill:url(#SVGID_3_);}
	.st5{fill:url(#SVGID_4_);}
	.st6{opacity:0.2;}
	.st7{fill:#FFFFFF;}
	.st8{filter:url(#Adobe_OpacityMaskFilter);}
	.st9{opacity:0.8;fill:url(#SVGID_6_);}
	.st10{opacity:0.8;fill:url(#SVGID_7_);}
	.st11{mask:url(#SVGID_5_);}
	.st12{fill:url(#SVGID_8_);}
	.st13{opacity:0.6;fill:#1A4BC0;}
	.st14{fill:url(#SVGID_9_);}
	.st15{enable-background:new    ;}
	.st16{fill:url(#SVGID_10_);}
	.st17{fill:url(#SVGID_11_);}
	.st18{fill:#AAAAAA;}
	.st19{fill:url(#SVGID_15_);}
	.st20{fill:url(#SVGID_16_);}
	.st21{fill:#64EDDC;}
	.st22{fill:url(#SVGID_17_);}
	.st23{fill:url(#SVGID_18_);}
	.st24{fill:url(#SVGID_19_);}
	.st25{fill:url(#SVGID_23_);}
	.st26{fill:url(#SVGID_24_);}
	.st27{fill:#1459C6;}
	.st28{fill:#29F8FF;}
	.st29{filter:url(#Adobe_OpacityMaskFilter_1_);}
	.st30{fill:url(#SVGID_26_);}
	.st31{fill:url(#SVGID_27_);}
	.st32{fill:url(#SVGID_28_);}
	.st33{fill:url(#SVGID_29_);}
	.st34{mask:url(#SVGID_25_);}
	.st35{fill:#35D3BC;}
</style>
<g>
	<g>
		<path id="XMLID_31_" class="st0" d="M170,126.3h-33.6l-50.1-18.1c-2.1-0.8-5.6-0.8-7.7,0l-14.9,5.4H30v26.2h0
			c0,0.6,0.4,1.1,1.3,1.5l81.5,29.5c2.6,1.2,6.9,1.2,9.4,0l46.3-16.8c1-0.4,1.4-1,1.3-1.5h0V126.3z"/>
		<path id="XMLID_30_" class="st1" d="M170,125.6h-33.6l-50.1-18.1c-2.1-0.8-5.6-0.8-7.7,0l-14.9,5.4H30v26.2h0
			c0,0.6,0.4,1.1,1.3,1.5l81.5,29.5c2.6,1.2,6.9,1.2,9.4,0l46.3-16.8c1-0.4,1.4-1,1.3-1.5h0V125.6z"/>
		<g>
			<defs>
				<path id="XMLID_29_" d="M170,123.7h-33.6l-50.1-18.1c-2.1-0.8-5.6-0.8-7.7,0L63.6,111H30v26.2h0c0,0.6,0.4,1.1,1.3,1.5
					l81.5,29.5c2.6,1.2,6.9,1.2,9.4,0l46.3-16.8c1-0.4,1.4-1,1.3-1.5h0V123.7z"/>
			</defs>
			<linearGradient id="XMLID_2_" gradientUnits="userSpaceOnUse" x1="30" y1="137.0994" x2="169.9911" y2="137.0994">
				<stop  offset="0" style="stop-color:#AFDAFE"/>
				<stop  offset="1" style="stop-color:#6FA7EE"/>
			</linearGradient>
			<use xlink:href="#XMLID_29_"  style="overflow:visible;fill:url(#XMLID_2_);"/>
			<clipPath id="XMLID_3_">
				<use xlink:href="#XMLID_29_"  style="overflow:visible;"/>
			</clipPath>
			<linearGradient id="SVGID_1_" gradientUnits="userSpaceOnUse" x1="111.5627" y1="156.3399" x2="121.9641" y2="156.3399">
				<stop  offset="0" style="stop-color:#D0EAFE;stop-opacity:0"/>
				<stop  offset="0.5" style="stop-color:#D4ECFE"/>
				<stop  offset="1" style="stop-color:#D1EBFE;stop-opacity:0.1594"/>
			</linearGradient>
			<rect x="111.6" y="139.4" class="st2" width="10.4" height="33.8"/>
			<linearGradient id="SVGID_2_" gradientUnits="userSpaceOnUse" x1="24.7993" y1="127.7919" x2="35.2007" y2="127.7919">
				<stop  offset="0" style="stop-color:#D0EAFE;stop-opacity:0"/>
				<stop  offset="0.5" style="stop-color:#D4ECFE"/>
				<stop  offset="1" style="stop-color:#D1EBFE;stop-opacity:0.1594"/>
			</linearGradient>
			<rect x="24.8" y="110.9" class="st3" width="10.4" height="33.8"/>
			<linearGradient id="SVGID_3_" gradientUnits="userSpaceOnUse" x1="164.7993" y1="136.8115" x2="175.2007" y2="136.8115">
				<stop  offset="0" style="stop-color:#D0EAFE;stop-opacity:0"/>
				<stop  offset="0.5" style="stop-color:#D4ECFE"/>
				<stop  offset="1" style="stop-color:#D1EBFE;stop-opacity:0.1594"/>
			</linearGradient>
			<rect x="164.8" y="119.9" class="st4" width="10.4" height="33.8"/>
		</g>
		<linearGradient id="SVGID_4_" gradientUnits="userSpaceOnUse" x1="30" y1="117.3892" x2="170" y2="117.3892">
			<stop  offset="0" style="stop-color:#C6E4FF"/>
			<stop  offset="1" style="stop-color:#BADFFE"/>
		</linearGradient>
		<path class="st5" d="M112.9,142.1l-81.5-29.5c-2.1-0.9-1.7-2.5,0.9-3.4l46.3-16.8c2.1-0.8,5.6-0.8,7.7,0l81.6,29.5
			c2.6,0.9,3,2.5,0.9,3.4l-46.3,16.8C119.7,143.3,115.5,143.3,112.9,142.1z"/>
		<g class="st6">
			<path class="st7" d="M82.4,92.1c1.4,0,2.8,0.2,3.8,0.6l81.6,29.5c1.3,0.5,2,1.1,2,1.7c0,0.5-0.4,0.9-1.2,1.2l-46.3,16.8
				c-1.2,0.5-2.9,0.9-4.6,0.9c-1.8,0-3.4-0.3-4.6-0.9l-81.5-29.5c-0.8-0.4-1.2-0.8-1.2-1.3c0-0.6,0.8-1.2,2-1.7l46.3-16.8
				C79.6,92.3,81,92.1,82.4,92.1 M82.4,91.8c-1.4,0-2.8,0.2-3.8,0.6l-46.3,16.8c-2.6,0.9-3,2.5-0.9,3.4l81.5,29.5
				c1.3,0.6,3,0.9,4.7,0.9c1.7,0,3.4-0.3,4.7-0.9l46.3-16.8c2.1-0.9,1.7-2.5-0.9-3.4L86.2,92.4C85.2,92,83.8,91.8,82.4,91.8
				L82.4,91.8z"/>
		</g>
		<defs>
			<filter id="Adobe_OpacityMaskFilter" filterUnits="userSpaceOnUse" x="30" y="91.8" width="140" height="51.1">
				<feColorMatrix  type="matrix" values="1 0 0 0 0  0 1 0 0 0  0 0 1 0 0  0 0 0 1 0"/>
			</filter>
		</defs>
		<mask maskUnits="userSpaceOnUse" x="30" y="91.8" width="140" height="51.1" id="SVGID_5_">
			<g class="st8">
				<linearGradient id="SVGID_6_" gradientUnits="userSpaceOnUse" x1="116.5713" y1="141.523" x2="166.4854" y2="141.523">
					<stop  offset="0.2" style="stop-color:#000000"/>
					<stop  offset="0.5" style="stop-color:#FFFFFF"/>
					<stop  offset="0.8" style="stop-color:#000000"/>
				</linearGradient>
				<rect x="116.6" y="124" class="st9" width="49.9" height="35.1"/>
				<linearGradient id="SVGID_7_" gradientUnits="userSpaceOnUse" x1="31.2843" y1="127.3881" x2="113.4793" y2="127.3881">
					<stop  offset="0.2" style="stop-color:#000000"/>
					<stop  offset="0.5" style="stop-color:#FFFFFF"/>
					<stop  offset="0.8" style="stop-color:#000000"/>
				</linearGradient>
				<rect x="31.3" y="109.8" class="st10" width="82.2" height="35.1"/>
			</g>
		</mask>
		<g class="st11">
			<path class="st7" d="M82.4,92.6c1.4,0,2.7,0.2,3.6,0.5l81.6,29.5c1.2,0.4,1.7,1,1.7,1.2c0,0.2-0.3,0.5-0.9,0.8l-46.3,16.8l0,0
				l0,0c-1.1,0.5-2.8,0.8-4.4,0.8c-1.7,0-3.3-0.3-4.4-0.8l0,0l0,0l-81.5-29.5c-0.6-0.3-0.9-0.6-0.9-0.8c0-0.2,0.5-0.8,1.7-1.2
				l46.3-16.8C79.7,92.8,81,92.6,82.4,92.6 M82.4,91.8c-1.4,0-2.8,0.2-3.8,0.6l-46.3,16.8c-2.6,0.9-3,2.5-0.9,3.4l81.5,29.5
				c1.3,0.6,3,0.9,4.7,0.9c1.7,0,3.4-0.3,4.7-0.9l46.3-16.8c2.1-0.9,1.7-2.5-0.9-3.4L86.2,92.4C85.2,92,83.8,91.8,82.4,91.8
				L82.4,91.8z"/>
		</g>
	</g>
	<linearGradient id="SVGID_8_" gradientUnits="userSpaceOnUse" x1="68.6327" y1="116.8154" x2="134.81" y2="116.8154">
		<stop  offset="0" style="stop-color:#5DCBFF"/>
		<stop  offset="1" style="stop-color:#2E71DD"/>
	</linearGradient>
	<path class="st12" d="M133.5,119.6l-26.6,9.6c-1.8,0.6-3.7,0.6-5.4,0l-31.5-11.5c-1.8-0.6-1.8-3.1,0-3.8l26.4-9.5
		c1.8-0.6,3.7-0.6,5.4,0l31.7,11.4C135.3,116.5,135.3,119,133.5,119.6z"/>
	<path class="st13" d="M70,114.6l26.4-9.5c1.8-0.6,3.7-0.6,5.4,0l31.7,11.4c0.8,0.3,1.2,0.9,1.3,1.6c0.1-0.9-0.3-1.8-1.3-2.2
		l-31.7-11.4c-1.8-0.6-3.7-0.6-5.4,0L70,114c-1,0.4-1.4,1.3-1.3,2.2C68.8,115.5,69.2,114.9,70,114.6z"/>
	<g>
		<g>
			<linearGradient id="SVGID_9_" gradientUnits="userSpaceOnUse" x1="143.1535" y1="123.3889" x2="155.1564" y2="123.3889">
				<stop  offset="0" style="stop-color:#5DCBFF"/>
				<stop  offset="1" style="stop-color:#2E71DD"/>
			</linearGradient>
			<path class="st14" d="M152.9,121c2.6,1.1,3,3,0.9,4.3c-2.1,1.3-5.9,1.5-8.4,0.4c-2.6-1.1-3-3-0.9-4.3
				C146.6,120.1,150.4,119.9,152.9,121z"/>
		</g>
		<g>
			<g class="st15">
				<linearGradient id="SVGID_10_" gradientUnits="userSpaceOnUse" x1="145.0105" y1="106.4116" x2="153.3038" y2="106.4116">
					<stop  offset="0" style="stop-color:#D1EAFE"/>
					<stop  offset="0.8" style="stop-color:#79AFF0"/>
					<stop  offset="1" style="stop-color:#A6D4FC"/>
				</linearGradient>
				<path class="st16" d="M153.3,122.6c0-0.1,0-0.1,0-0.2c0,0,0,0,0,0L153,88.3c0,0.1,0,0.2,0,0.3c0,0,0,0,0,0
					c0,0.1-0.1,0.2-0.1,0.3c0,0,0,0,0,0c-0.1,0.1-0.1,0.2-0.2,0.3c0,0,0,0-0.1,0.1c-0.1,0.1-0.2,0.2-0.3,0.3c-0.1,0-0.2,0.1-0.2,0.1
					c-0.2,0.1-0.3,0.2-0.5,0.2c-0.1,0-0.2,0.1-0.3,0.1c-0.2,0.1-0.4,0.1-0.5,0.2c-0.1,0-0.2,0.1-0.3,0.1c-0.1,0-0.1,0-0.2,0
					c-0.2,0-0.4,0.1-0.6,0.1c0,0,0,0,0,0c-0.3,0-0.5,0-0.8,0c0,0,0,0,0,0c-0.2,0-0.5,0-0.7-0.1c0,0,0,0-0.1,0
					c-0.2,0-0.4-0.1-0.7-0.1c0,0-0.1,0-0.1,0c-0.2-0.1-0.4-0.1-0.6-0.2c-1-0.4-1.5-1-1.5-1.6l0.3,34.1c0,0.6,0.5,1.2,1.5,1.6
					c0,0,0,0,0,0c0.1,0.1,0.3,0.1,0.4,0.1c0.1,0,0.1,0,0.2,0c0,0,0.1,0,0.1,0c0,0,0.1,0,0.1,0c0.1,0,0.2,0,0.3,0.1
					c0.1,0,0.1,0,0.2,0c0,0,0,0,0.1,0c0,0,0.1,0,0.1,0c0.1,0,0.2,0,0.3,0c0.1,0,0.2,0,0.3,0c0,0,0,0,0,0c0,0,0,0,0,0
					c0.1,0,0.2,0,0.4,0c0.1,0,0.3,0,0.4,0c0,0,0,0,0,0c0,0,0,0,0,0c0.1,0,0.3,0,0.4,0c0.1,0,0.1,0,0.2,0c0.1,0,0.1,0,0.2,0
					c0,0,0.1,0,0.1,0c0.1,0,0.1,0,0.2,0c0.2,0,0.4-0.1,0.5-0.2c0.1,0,0.2-0.1,0.3-0.1c0.2-0.1,0.3-0.2,0.5-0.2c0,0,0.1,0,0.1-0.1
					c0,0,0.1,0,0.1-0.1c0.1-0.1,0.2-0.1,0.3-0.2c0,0,0.1-0.1,0.1-0.1c0,0,0,0,0.1-0.1c0,0,0,0,0.1-0.1c0.1-0.1,0.1-0.1,0.1-0.2
					c0,0,0,0,0,0c0,0,0,0,0,0c0,0,0-0.1,0.1-0.1c0-0.1,0.1-0.1,0.1-0.2c0,0,0,0,0,0c0,0,0,0,0,0
					C153.3,122.7,153.3,122.6,153.3,122.6z"/>
				<linearGradient id="SVGID_11_" gradientUnits="userSpaceOnUse" x1="145.0105" y1="88.3266" x2="153.0117" y2="88.3266">
					<stop  offset="0" style="stop-color:#5DCBFF"/>
					<stop  offset="1" style="stop-color:#2E71DD"/>
				</linearGradient>
				<path class="st17" d="M151.5,86.7c1.7,0.7,2,2,0.7,2.9c-1.4,0.9-3.9,1.1-5.6,0.4c-1.7-0.7-2-2-0.7-2.9
					C147.2,86.1,149.7,86,151.5,86.7z"/>
				<g class="st15">
					<defs>
						<path id="SVGID_12_" class="st15" d="M151.5,86.7c1.7,0.7,2,2,0.7,2.9c-1.4,0.9-3.9,1.1-5.6,0.4c-1.7-0.7-2-2-0.7-2.9
							C147.2,86.1,149.7,86,151.5,86.7z"/>
					</defs>
					<linearGradient id="SVGID_13_" gradientUnits="userSpaceOnUse" x1="145.0105" y1="88.3266" x2="153.0117" y2="88.3266">
						<stop  offset="0" style="stop-color:#5DCBFF"/>
						<stop  offset="1" style="stop-color:#2E71DD"/>
					</linearGradient>
					<use xlink:href="#SVGID_12_"  style="overflow:visible;fill:url(#SVGID_13_);"/>
					<clipPath id="SVGID_14_">
						<use xlink:href="#SVGID_12_"  style="overflow:visible;"/>
					</clipPath>
				</g>
			</g>
		</g>
		<g>
			<g class="st15">
				<g>
					
						<ellipse transform="matrix(1 -8.564752e-03 8.564752e-03 1 -0.4557 1.2757)" class="st18" cx="148.7" cy="53.8" rx="2" ry="1"/>
					<linearGradient id="SVGID_15_" gradientUnits="userSpaceOnUse" x1="146.7131" y1="53.8432" x2="150.7127" y2="53.8432">
						<stop  offset="0" style="stop-color:#5DCBFF"/>
						<stop  offset="1" style="stop-color:#2E71DD"/>
					</linearGradient>
					<path class="st19" d="M149.9,53c0.9,0.4,1,1,0.3,1.5c-0.7,0.5-1.9,0.5-2.8,0.2c-0.9-0.4-1-1-0.3-1.5
						C147.8,52.7,149.1,52.7,149.9,53z"/>
				</g>
				<linearGradient id="SVGID_16_" gradientUnits="userSpaceOnUse" x1="146.7131" y1="71.4137" x2="151.0048" y2="71.4137">
					<stop  offset="0" style="stop-color:#D1EAFE"/>
					<stop  offset="0.8" style="stop-color:#79AFF0"/>
					<stop  offset="1" style="stop-color:#A6D4FC"/>
				</linearGradient>
				<path class="st20" d="M151,86.2l-0.3-32.4c0,0.1,0,0.2-0.1,0.3c0,0,0,0,0,0c-0.1,0.1-0.2,0.2-0.3,0.3c-0.2,0.1-0.3,0.2-0.6,0.2
					c0,0-0.1,0-0.1,0c-0.2,0.1-0.4,0.1-0.6,0.1c0,0,0,0,0,0c-0.3,0-0.5,0-0.8,0c0,0,0,0,0,0c-0.2,0-0.5-0.1-0.7-0.2
					c-0.5-0.2-0.8-0.5-0.8-0.8L147,88c0,0.3,0.3,0.6,0.8,0.8c0,0,0,0,0,0c0.1,0,0.1,0.1,0.2,0.1c0.1,0,0.1,0,0.2,0
					c0.1,0,0.1,0,0.2,0c0,0,0.1,0,0.1,0c0,0,0,0,0,0c0,0,0,0,0,0c0.1,0,0.1,0,0.2,0c0.1,0,0.1,0,0.2,0c0.1,0,0.1,0,0.2,0
					c0.1,0,0.1,0,0.2,0c0,0,0,0,0,0c0,0,0,0,0,0c0.1,0,0.1,0,0.2,0c0.1,0,0.2,0,0.3,0c0.1,0,0.1,0,0.2,0c0,0,0.1,0,0.1,0
					c0.2-0.1,0.4-0.1,0.5-0.2c0,0,0,0,0,0c0,0,0.1-0.1,0.1-0.1c0,0,0.1-0.1,0.1-0.1c0,0,0.1-0.1,0.1-0.1c0,0,0,0,0,0c0,0,0,0,0,0
					c0,0,0,0,0-0.1c0,0,0-0.1,0-0.1c0,0,0-0.1,0-0.1c0,0,0-0.1,0-0.1L151,86.2z"/>
			</g>
		</g>
	</g>
	<g>
		<g>
			<path class="st1" d="M102.2,143.8c1.2,0.4,2.2,2,2.2,3.6c0,1.5-0.9,2.4-2.1,2c-1.2-0.4-2.2-2-2.2-3.6
				C100.1,144.3,101,143.4,102.2,143.8z"/>
		</g>
		<g>
			<path class="st1" d="M94.2,140.9c1.2,0.4,2.2,2,2.2,3.6c0,1.5-0.9,2.4-2.1,2c-1.2-0.4-2.2-2-2.2-3.6
				C92.1,141.4,93,140.5,94.2,140.9z"/>
		</g>
		<g>
			<path class="st1" d="M86.5,138.1c1.2,0.4,2.2,2,2.2,3.6c0,1.5-0.9,2.4-2.1,2c-1.2-0.4-2.2-2-2.2-3.6
				C84.3,138.5,85.3,137.6,86.5,138.1z"/>
		</g>
	</g>
	<polygon class="st21" points="37.4,120.7 52.9,126.4 52.9,135.6 37.4,129.9 	"/>
	<g>
		<g>
			<linearGradient id="SVGID_17_" gradientUnits="userSpaceOnUse" x1="77.4852" y1="98.8167" x2="89.4881" y2="98.8167">
				<stop  offset="0" style="stop-color:#5DCBFF"/>
				<stop  offset="1" style="stop-color:#2E71DD"/>
			</linearGradient>
			<path class="st22" d="M87.3,96.5c2.6,1.1,3,3,0.9,4.3c-2.1,1.3-5.9,1.5-8.4,0.4c-2.6-1.1-3-3-0.9-4.3
				C80.9,95.6,84.7,95.4,87.3,96.5z"/>
		</g>
		<g>
			<g class="st15">
				<linearGradient id="SVGID_18_" gradientUnits="userSpaceOnUse" x1="79.3421" y1="81.8395" x2="87.6354" y2="81.8395">
					<stop  offset="0" style="stop-color:#D1EAFE"/>
					<stop  offset="0.8" style="stop-color:#79AFF0"/>
					<stop  offset="1" style="stop-color:#A6D4FC"/>
				</linearGradient>
				<path class="st23" d="M87.6,98c0-0.1,0-0.1,0-0.2c0,0,0,0,0,0l-0.3-34.1c0,0.1,0,0.2,0,0.3c0,0,0,0,0,0c0,0.1-0.1,0.2-0.1,0.3
					c0,0,0,0,0,0c-0.1,0.1-0.1,0.2-0.2,0.3c0,0,0,0-0.1,0.1c-0.1,0.1-0.2,0.2-0.3,0.3c-0.1,0-0.2,0.1-0.2,0.1
					c-0.2,0.1-0.3,0.2-0.5,0.2c-0.1,0-0.2,0.1-0.3,0.1c-0.2,0.1-0.4,0.1-0.5,0.2c-0.1,0-0.2,0.1-0.3,0.1c-0.1,0-0.1,0-0.2,0
					c-0.2,0-0.4,0.1-0.6,0.1c0,0,0,0,0,0c-0.3,0-0.5,0-0.8,0c0,0,0,0,0,0c-0.2,0-0.5,0-0.7-0.1c0,0,0,0-0.1,0
					c-0.2,0-0.4-0.1-0.7-0.1c0,0-0.1,0-0.1,0c-0.2-0.1-0.4-0.1-0.6-0.2c-1-0.4-1.5-1-1.5-1.6l0.3,34.1c0,0.6,0.5,1.2,1.5,1.6
					c0,0,0,0,0,0c0.1,0.1,0.3,0.1,0.4,0.1c0.1,0,0.1,0,0.2,0c0,0,0.1,0,0.1,0c0,0,0.1,0,0.1,0c0.1,0,0.2,0,0.3,0.1
					c0.1,0,0.1,0,0.2,0c0,0,0,0,0.1,0c0,0,0.1,0,0.1,0c0.1,0,0.2,0,0.3,0c0.1,0,0.2,0,0.3,0c0,0,0,0,0,0c0,0,0,0,0,0
					c0.1,0,0.2,0,0.4,0c0.1,0,0.3,0,0.4,0c0,0,0,0,0,0c0,0,0,0,0,0c0.1,0,0.3,0,0.4,0c0.1,0,0.1,0,0.2,0c0.1,0,0.1,0,0.2,0
					c0,0,0.1,0,0.1,0c0.1,0,0.1,0,0.2,0c0.2,0,0.4-0.1,0.5-0.2c0.1,0,0.2-0.1,0.3-0.1c0.2-0.1,0.3-0.2,0.5-0.2c0,0,0.1,0,0.1-0.1
					c0,0,0.1,0,0.1-0.1c0.1-0.1,0.2-0.1,0.3-0.2c0,0,0.1-0.1,0.1-0.1c0,0,0,0,0.1-0.1c0,0,0,0,0.1-0.1c0.1-0.1,0.1-0.1,0.1-0.2
					c0,0,0,0,0,0c0,0,0,0,0,0c0,0,0-0.1,0.1-0.1c0-0.1,0.1-0.1,0.1-0.2c0,0,0,0,0,0c0,0,0,0,0,0C87.6,98.1,87.6,98.1,87.6,98z"/>
				<linearGradient id="SVGID_19_" gradientUnits="userSpaceOnUse" x1="79.3421" y1="63.7545" x2="87.3434" y2="63.7545">
					<stop  offset="0" style="stop-color:#5DCBFF"/>
					<stop  offset="1" style="stop-color:#2E71DD"/>
				</linearGradient>
				<path class="st24" d="M85.8,62.1c1.7,0.7,2,2,0.7,2.9c-1.4,0.9-3.9,1.1-5.6,0.4c-1.7-0.7-2-2-0.7-2.9
					C81.6,61.6,84.1,61.4,85.8,62.1z"/>
				<g class="st15">
					<defs>
						<path id="SVGID_20_" class="st15" d="M85.8,62.1c1.7,0.7,2,2,0.7,2.9c-1.4,0.9-3.9,1.1-5.6,0.4c-1.7-0.7-2-2-0.7-2.9
							C81.6,61.6,84.1,61.4,85.8,62.1z"/>
					</defs>
					<linearGradient id="SVGID_21_" gradientUnits="userSpaceOnUse" x1="79.3421" y1="63.7545" x2="87.3434" y2="63.7545">
						<stop  offset="0" style="stop-color:#5DCBFF"/>
						<stop  offset="1" style="stop-color:#2E71DD"/>
					</linearGradient>
					<use xlink:href="#SVGID_20_"  style="overflow:visible;fill:url(#SVGID_21_);"/>
					<clipPath id="SVGID_22_">
						<use xlink:href="#SVGID_20_"  style="overflow:visible;"/>
					</clipPath>
				</g>
			</g>
		</g>
		<g>
			<g class="st15">
				<g>
					<ellipse transform="matrix(1 -8.564752e-03 8.564752e-03 1 -0.2477 0.7123)" class="st18" cx="83" cy="29.3" rx="2" ry="1"/>
					<linearGradient id="SVGID_23_" gradientUnits="userSpaceOnUse" x1="81.0448" y1="29.2711" x2="85.0444" y2="29.2711">
						<stop  offset="0" style="stop-color:#5DCBFF"/>
						<stop  offset="1" style="stop-color:#2E71DD"/>
					</linearGradient>
					<path class="st25" d="M84.3,28.4c0.9,0.4,1,1,0.3,1.5c-0.7,0.5-1.9,0.5-2.8,0.2c-0.9-0.4-1-1-0.3-1.5
						C82.2,28.2,83.4,28.1,84.3,28.4z"/>
				</g>
				<linearGradient id="SVGID_24_" gradientUnits="userSpaceOnUse" x1="81.0448" y1="46.8416" x2="85.3364" y2="46.8416">
					<stop  offset="0" style="stop-color:#D1EAFE"/>
					<stop  offset="0.8" style="stop-color:#79AFF0"/>
					<stop  offset="1" style="stop-color:#A6D4FC"/>
				</linearGradient>
				<path class="st26" d="M85.3,61.7L85,29.3c0,0.1,0,0.2-0.1,0.3c0,0,0,0,0,0c-0.1,0.1-0.2,0.2-0.3,0.3c-0.2,0.1-0.3,0.2-0.6,0.2
					c0,0-0.1,0-0.1,0c-0.2,0.1-0.4,0.1-0.6,0.1c0,0,0,0,0,0c-0.3,0-0.5,0-0.8,0c0,0,0,0,0,0c-0.2,0-0.5-0.1-0.7-0.2
					c-0.5-0.2-0.8-0.5-0.8-0.8l0.3,34.1c0,0.3,0.3,0.6,0.8,0.8c0,0,0,0,0,0c0.1,0,0.1,0.1,0.2,0.1c0.1,0,0.1,0,0.2,0
					c0.1,0,0.1,0,0.2,0c0,0,0.1,0,0.1,0c0,0,0,0,0,0c0,0,0,0,0,0c0.1,0,0.1,0,0.2,0c0.1,0,0.1,0,0.2,0c0.1,0,0.1,0,0.2,0
					c0.1,0,0.1,0,0.2,0c0,0,0,0,0,0c0,0,0,0,0,0c0.1,0,0.1,0,0.2,0c0.1,0,0.2,0,0.3,0c0.1,0,0.1,0,0.2,0c0,0,0.1,0,0.1,0
					c0.2-0.1,0.4-0.1,0.5-0.2c0,0,0,0,0,0c0,0,0.1-0.1,0.1-0.1c0,0,0.1-0.1,0.1-0.1c0,0,0.1-0.1,0.1-0.1c0,0,0,0,0,0c0,0,0,0,0,0
					c0,0,0,0,0-0.1c0,0,0-0.1,0-0.1c0,0,0-0.1,0-0.1c0,0,0-0.1,0-0.1L85.3,61.7z"/>
			</g>
		</g>
	</g>
	<g>
		<g>
			<path class="st27" d="M108.5,112.5c1.4,0.5,1.4,1.4-0.1,2c-1.5,0.6-3.9,0.6-5.4,0.1c-1.4-0.5-1.4-1.4,0.2-2
				C104.6,112,107,111.9,108.5,112.5z M104.1,114.1c0.9,0.3,2.3,0.3,3.2,0c0.9-0.3,1-0.9,0.1-1.2c-0.9-0.3-2.3-0.3-3.2,0
				C103.2,113.2,103.2,113.8,104.1,114.1"/>
			<path class="st27" d="M93,118.6c0.9,0.5,0.7,1.3-0.6,1.8c-1.5,0.6-3.9,0.6-5.3,0.1c-1.4-0.5-1.4-1.4,0.1-2
				c1.3-0.5,3.3-0.6,4.8-0.2c-0.1,0-0.1,0.1-0.2,0.1c-0.3,0.1-0.3,0.3,0,0.4c0.3,0.1,0.8,0.1,1.1,0C92.8,118.6,92.9,118.6,93,118.6z
				 M88.1,120c0.9,0.3,2.3,0.3,3.2,0c0.9-0.3,1-0.9,0.1-1.2c-0.9-0.3-2.3-0.3-3.2,0C87.3,119.1,87.2,119.7,88.1,120"/>
			<path class="st27" d="M102.6,118.6c0.1,0,0.1,0,0.1,0.1c0.1,0.1,0.1,0.2-0.2,0.3s-0.6,0.1-0.9,0.1c-0.1,0-0.1,0-0.2,0l-1.2-0.4
				c-1-0.4-2.4-0.5-3.7-0.5c-1.3,0-2.6,0.2-3.6,0.5c-0.1,0-0.1,0-0.2,0.1c-0.3,0.1-0.8,0.1-1.1,0c-0.3-0.1-0.3-0.3,0-0.4
				c0.1,0,0.1-0.1,0.2-0.1c0,0,0,0,0.1,0c1.1-0.4,2.5-0.6,3.8-0.7c2-0.1,4,0.1,5.5,0.6L102.6,118.6z"/>
			<path class="st27" d="M104,114.5l-8.2,3c-1.4,0.1-2.7,0.3-3.8,0.7l11-4L104,114.5z"/>
			<path class="st27" d="M117.2,117.3c1.4,0.5,1.4,1.4-0.1,2c-1.3,0.5-3.3,0.6-4.7,0.2c-0.2,0-0.4-0.1-0.6-0.2
				c-0.1,0-0.2-0.1-0.3-0.1c-1.2-0.5-1-1.3,0.4-1.9C113.4,116.8,115.8,116.7,117.2,117.3z M112.8,118.9c0.9,0.3,2.3,0.3,3.2,0
				c0.9-0.3,1-0.9,0.1-1.2c-0.9-0.3-2.3-0.3-3.2,0C112,118,112,118.6,112.8,118.9"/>
			<path class="st27" d="M112.3,119.5c0,0.1-0.1,0.1-0.2,0.2c-2.4,0.9-6.3,0.9-8.6,0.1l-1.7-0.6c-0.1,0-0.1,0-0.1-0.1
				c0.3,0,0.6,0,0.9-0.1s0.3-0.2,0.2-0.3c0.1,0,0.1,0,0.2,0l1.7,0.6c0.9,0.3,2,0.5,3.2,0.4c1.2,0,2.4-0.2,3.3-0.5
				c0.1,0,0.2-0.1,0.4-0.1c0.1,0,0.2,0.1,0.3,0.1C111.9,119.4,112.1,119.4,112.3,119.5z"/>
		</g>
		<g>
			<g>
				<g>
					<path class="st28" d="M108.5,112c1.4,0.5,1.4,1.4-0.1,2c-1.5,0.6-3.9,0.6-5.4,0.1c-1.4-0.5-1.4-1.4,0.2-2
						C104.6,111.5,107,111.4,108.5,112z M104.1,113.6c0.9,0.3,2.3,0.3,3.2,0c0.9-0.3,1-0.9,0.1-1.2c-0.9-0.3-2.3-0.3-3.2,0
						C103.2,112.7,103.2,113.3,104.1,113.6"/>
				</g>
				<g>
					<path class="st28" d="M93,118.1c0.9,0.5,0.7,1.3-0.6,1.8c-1.5,0.6-3.9,0.6-5.3,0.1c-1.4-0.5-1.4-1.4,0.1-2
						c1.3-0.5,3.3-0.6,4.8-0.2c-0.1,0-0.1,0.1-0.2,0.1c-0.3,0.1-0.3,0.3,0,0.4c0.3,0.1,0.8,0.1,1.1,0
						C92.8,118.1,92.9,118.1,93,118.1z M88.1,119.5c0.9,0.3,2.3,0.3,3.2,0c0.9-0.3,1-0.9,0.1-1.2c-0.9-0.3-2.3-0.3-3.2,0
						C87.3,118.6,87.2,119.2,88.1,119.5"/>
				</g>
				<g>
					<path class="st28" d="M102.6,118.1c0.1,0,0.1,0,0.1,0.1c0.1,0.1,0.1,0.2-0.2,0.3s-0.6,0.1-0.9,0.1c-0.1,0-0.1,0-0.2,0l-1.2-0.4
						c-1-0.4-2.4-0.5-3.7-0.5c-1.3,0-2.6,0.2-3.6,0.5c-0.1,0-0.1,0-0.2,0.1c-0.3,0.1-0.8,0.1-1.1,0c-0.3-0.1-0.3-0.3,0-0.4
						c0.1,0,0.1-0.1,0.2-0.1c0,0,0,0,0.1,0c1.1-0.4,2.5-0.6,3.8-0.7c2-0.1,4,0.1,5.5,0.6L102.6,118.1z"/>
				</g>
				<g>
					<path class="st28" d="M104,114l-8.2,3c-1.4,0.1-2.7,0.3-3.8,0.7l11-4L104,114z"/>
				</g>
				<g>
					<path class="st28" d="M117.2,116.8c1.4,0.5,1.4,1.4-0.1,2c-1.3,0.5-3.3,0.6-4.7,0.2c-0.2,0-0.4-0.1-0.6-0.2
						c-0.1,0-0.2-0.1-0.3-0.1c-1.2-0.5-1-1.3,0.4-1.9C113.4,116.3,115.8,116.2,117.2,116.8z M112.8,118.4c0.9,0.3,2.3,0.3,3.2,0
						c0.9-0.3,1-0.9,0.1-1.2c-0.9-0.3-2.3-0.3-3.2,0C112,117.5,112,118.1,112.8,118.4"/>
				</g>
				<g>
					<path class="st28" d="M112.3,119c0,0.1-0.1,0.1-0.2,0.2c-2.4,0.9-6.3,0.9-8.6,0.1l-1.7-0.6c-0.1,0-0.1,0-0.1-0.1
						c0.3,0,0.6,0,0.9-0.1s0.3-0.2,0.2-0.3c0.1,0,0.1,0,0.2,0l1.7,0.6c0.9,0.3,2,0.5,3.2,0.4c1.2,0,2.4-0.2,3.3-0.5
						c0.1,0,0.2-0.1,0.4-0.1c0.1,0,0.2,0.1,0.3,0.1C111.9,118.9,112.1,118.9,112.3,119z"/>
				</g>
			</g>
		</g>
	</g>
	<defs>
		<filter id="Adobe_OpacityMaskFilter_1_" filterUnits="userSpaceOnUse" x="68.4" y="103.7" width="66.7" height="26.2">
			<feColorMatrix  type="matrix" values="1 0 0 0 0  0 1 0 0 0  0 0 1 0 0  0 0 0 1 0"/>
		</filter>
	</defs>
	<mask maskUnits="userSpaceOnUse" x="68.4" y="103.7" width="66.7" height="26.2" id="SVGID_25_">
		<g class="st29">
			<linearGradient id="SVGID_26_" gradientUnits="userSpaceOnUse" x1="104.7593" y1="110.2001" x2="124.4893" y2="110.2001">
				<stop  offset="0" style="stop-color:#000000"/>
				<stop  offset="0.5" style="stop-color:#FFFFFF"/>
				<stop  offset="1" style="stop-color:#000000"/>
			</linearGradient>
			<rect x="104.8" y="103.6" class="st30" width="19.7" height="13.3"/>
			<linearGradient id="SVGID_27_" gradientUnits="userSpaceOnUse" x1="108.1458" y1="125.0896" x2="127.4341" y2="125.0896">
				<stop  offset="0" style="stop-color:#000000"/>
				<stop  offset="0.5" style="stop-color:#FFFFFF"/>
				<stop  offset="1" style="stop-color:#000000"/>
			</linearGradient>
			<rect x="108.1" y="120.6" class="st31" width="19.3" height="9"/>
			<linearGradient id="SVGID_28_" gradientUnits="userSpaceOnUse" x1="74.1336" y1="109.243" x2="91.655" y2="109.243">
				<stop  offset="0" style="stop-color:#000000"/>
				<stop  offset="0.5" style="stop-color:#FFFFFF"/>
				<stop  offset="1" style="stop-color:#000000"/>
			</linearGradient>
			<rect x="74.1" y="105.6" class="st32" width="17.5" height="7.2"/>
			<linearGradient id="SVGID_29_" gradientUnits="userSpaceOnUse" x1="85.1765" y1="126.8104" x2="102.109" y2="126.8104">
				<stop  offset="0" style="stop-color:#000000"/>
				<stop  offset="0.5" style="stop-color:#FFFFFF"/>
				<stop  offset="1" style="stop-color:#000000"/>
			</linearGradient>
			<rect x="85.2" y="120.6" class="st33" width="16.9" height="12.4"/>
		</g>
	</mask>
	<g class="st34">
		<path class="st7" d="M99.1,104c0.9,0,1.8,0.2,2.7,0.5l31.7,11.4c1.8,0.6,1.8,3.1,0,3.8l-26.6,9.6c-0.9,0.3-1.8,0.5-2.7,0.5
			c-0.9,0-1.9-0.2-2.7-0.5l-31.5-11.5c-1.8-0.6-1.8-3.1,0-3.8l26.4-9.5C97.2,104.1,98.2,104,99.1,104 M99.1,103.7L99.1,103.7
			c-1,0-1.9,0.2-2.8,0.5l-26.4,9.5c-0.9,0.3-1.5,1.2-1.5,2.1c0,1,0.6,1.8,1.5,2.1l31.5,11.5c0.9,0.3,1.9,0.5,2.8,0.5
			c1,0,1.9-0.2,2.8-0.5l26.6-9.6c0.9-0.3,1.5-1.2,1.5-2.1s-0.6-1.8-1.5-2.1l-31.7-11.4C101,103.9,100,103.7,99.1,103.7L99.1,103.7z"
			/>
	</g>
	<polygon class="st35" points="37.8,121.4 52.9,126.9 52.9,126.4 37.4,120.7 37.4,129.9 37.8,130 	"/>
</g>
</svg>
