<?xml version="1.0" encoding="utf-8"?>
<!-- Generator: Adobe Illustrator 25.0.0, SVG Export Plug-In . SVG Version: 6.00 Build 0)  -->
<svg version="1.1" id="图层_1" xmlns="http://www.w3.org/2000/svg" xmlns:xlink="http://www.w3.org/1999/xlink" x="0px" y="0px"
	 viewBox="0 0 200 200" style="enable-background:new 0 0 200 200;" xml:space="preserve">
<style type="text/css">
	.st0{clip-path:url(#XMLID_3_);fill:url(#SVGID_1_);}
	.st1{clip-path:url(#XMLID_3_);fill:url(#SVGID_2_);}
	.st2{clip-path:url(#XMLID_3_);fill:url(#SVGID_3_);}
	.st3{fill:url(#SVGID_4_);}
	.st4{filter:url(#Adobe_OpacityMaskFilter);}
	.st5{fill:url(#SVGID_6_);}
	.st6{fill:url(#SVGID_7_);}
	.st7{mask:url(#SVGID_5_);fill:none;stroke:#FFFFFF;stroke-width:0.5;stroke-miterlimit:10;}
	.st8{clip-path:url(#XMLID_5_);fill:url(#SVGID_8_);}
	.st9{clip-path:url(#XMLID_5_);fill:url(#SVGID_9_);}
	.st10{clip-path:url(#XMLID_5_);fill:url(#SVGID_10_);}
	.st11{fill:url(#SVGID_11_);}
	.st12{filter:url(#Adobe_OpacityMaskFilter_1_);}
	.st13{fill:url(#SVGID_13_);}
	.st14{fill:url(#SVGID_14_);}
	.st15{mask:url(#SVGID_12_);fill:none;stroke:#FFFFFF;stroke-width:0.5;stroke-miterlimit:10;}
	.st16{fill:#182AAE;}
	.st17{fill:#1A4BC0;}
	.st18{clip-path:url(#XMLID_15_);fill:url(#SVGID_15_);}
	.st19{clip-path:url(#XMLID_15_);fill:url(#SVGID_16_);}
	.st20{clip-path:url(#XMLID_15_);fill:url(#SVGID_17_);}
	.st21{fill:url(#SVGID_18_);}
	.st22{opacity:0.2;}
	.st23{fill:#FFFFFF;}
	.st24{fill:none;stroke:#FFFFFF;stroke-width:2;stroke-linecap:round;stroke-linejoin:round;stroke-miterlimit:10;}
	.st25{filter:url(#Adobe_OpacityMaskFilter_2_);}
	.st26{opacity:0.15;mask:url(#SVGID_19_);}
	.st27{clip-path:url(#XMLID_17_);fill:url(#SVGID_20_);}
	.st28{clip-path:url(#XMLID_17_);fill:url(#SVGID_21_);}
	.st29{clip-path:url(#XMLID_17_);fill:url(#SVGID_22_);}
</style>
<g>
	<g>
		<g>
			<g>
				<defs>
					<path id="XMLID_14_" d="M170,105.9h-36l-29.9-10.8c-2.3-0.8-6-0.8-8.2,0L66,105.9H30V134h0c-0.1,0.6,0.4,1.2,1.4,1.6l63.5,23
						c2.8,1.2,7.3,1.2,10.1,0l63.5-23c1-0.5,1.5-1,1.4-1.6h0V105.9z"/>
				</defs>
				<linearGradient id="XMLID_2_" gradientUnits="userSpaceOnUse" x1="30" y1="127.0417" x2="169.9905" y2="127.0417">
					<stop  offset="0" style="stop-color:#B8DFFE"/>
					<stop  offset="1" style="stop-color:#6FA7EE"/>
				</linearGradient>
				<use xlink:href="#XMLID_14_"  style="overflow:visible;fill:url(#XMLID_2_);"/>
				<clipPath id="XMLID_3_">
					<use xlink:href="#XMLID_14_"  style="overflow:visible;"/>
				</clipPath>
				<linearGradient id="SVGID_1_" gradientUnits="userSpaceOnUse" x1="93.5231" y1="145.8125" x2="104.6551" y2="145.8125">
					<stop  offset="0" style="stop-color:#D0EAFE;stop-opacity:0"/>
					<stop  offset="0.5" style="stop-color:#D4ECFE"/>
					<stop  offset="1" style="stop-color:#D1EBFE;stop-opacity:0.1594"/>
				</linearGradient>
				<rect x="93.5" y="127.7" class="st0" width="11.1" height="36.2"/>
				<linearGradient id="SVGID_2_" gradientUnits="userSpaceOnUse" x1="24.434" y1="123.8725" x2="35.566" y2="123.8725">
					<stop  offset="0" style="stop-color:#D0EAFE;stop-opacity:0"/>
					<stop  offset="0.5" style="stop-color:#D4ECFE"/>
					<stop  offset="1" style="stop-color:#D1EBFE;stop-opacity:0.1594"/>
				</linearGradient>
				<rect x="24.4" y="105.7" class="st1" width="11.1" height="36.2"/>
				<linearGradient id="SVGID_3_" gradientUnits="userSpaceOnUse" x1="164.434" y1="119.9413" x2="175.566" y2="119.9413">
					<stop  offset="0" style="stop-color:#D0EAFE;stop-opacity:0"/>
					<stop  offset="0.5" style="stop-color:#D4ECFE"/>
					<stop  offset="1" style="stop-color:#D1EBFE;stop-opacity:0.1594"/>
				</linearGradient>
				<rect x="164.4" y="101.8" class="st2" width="11.1" height="36.2"/>
			</g>
			<linearGradient id="SVGID_4_" gradientUnits="userSpaceOnUse" x1="30" y1="105.9043" x2="170" y2="105.9043">
				<stop  offset="0" style="stop-color:#5DCBFF"/>
				<stop  offset="1" style="stop-color:#2E71DD"/>
			</linearGradient>
			<path class="st3" d="M94.9,130.5l-63.5-23c-2.2-1-1.8-2.6,0.9-3.6L95.9,81c2.3-0.8,6-0.8,8.2,0l63.5,22.9c2.7,1,3.2,2.6,0.9,3.6
				l-63.5,23C102.3,131.8,97.7,131.8,94.9,130.5z"/>
		</g>
		<defs>
			<filter id="Adobe_OpacityMaskFilter" filterUnits="userSpaceOnUse" x="29.8" y="103.7" width="140.5" height="28">
				<feColorMatrix  type="matrix" values="1 0 0 0 0  0 1 0 0 0  0 0 1 0 0  0 0 0 1 0"/>
			</filter>
		</defs>
		<mask maskUnits="userSpaceOnUse" x="29.8" y="103.7" width="140.5" height="28" id="SVGID_5_">
			<g class="st4">
				<g>
					<linearGradient id="SVGID_6_" gradientUnits="userSpaceOnUse" x1="101.2279" y1="120.9126" x2="158.8149" y2="99.2127">
						<stop  offset="0" style="stop-color:#000000"/>
						<stop  offset="0.5" style="stop-color:#FFFFFF"/>
						<stop  offset="1" style="stop-color:#000000"/>
					</linearGradient>
					<path class="st5" d="M169,53.5h-62.4c-3.3,0-6,2.7-6,6v95.3c0,3.3,2.7,6,6,6H169c3.3,0,6-2.7,6-6V59.5
						C175,56.2,172.3,53.5,169,53.5z"/>
				</g>
				<linearGradient id="SVGID_7_" gradientUnits="userSpaceOnUse" x1="41.0977" y1="124.316" x2="94.4166" y2="144.9606">
					<stop  offset="0" style="stop-color:#000000"/>
					<stop  offset="0.5" style="stop-color:#FFFFFF"/>
					<stop  offset="1" style="stop-color:#000000"/>
				</linearGradient>
				<path class="st6" d="M93.8,188.6H38.8c-2.9,0-5.2-2.3-5.2-5.2V84.7c0-2.9,2.3-5.2,5.2-5.2h54.9c2.9,0,5.2,2.3,5.2,5.2v98.7
					C99,186.3,96.7,188.6,93.8,188.6z"/>
			</g>
		</mask>
		<path class="st7" d="M167.6,103.9c2.7,1,3.2,2.6,0.9,3.6l-63.5,23c-2.8,1.2-7.3,1.2-10.1,0l-63.5-23c-2.2-1-1.8-2.6,0.9-3.6"/>
	</g>
	<g>
		<g>
			<g>
				<defs>
					<path id="XMLID_13_" d="M170,71h-36l-29.9-10.8c-2.3-0.8-6-0.8-8.2,0L66,71H30v28.1h0c-0.1,0.6,0.4,1.2,1.4,1.6l63.5,23
						c2.8,1.2,7.3,1.2,10.1,0l63.5-23c1-0.5,1.5-1,1.4-1.6h0V71z"/>
				</defs>
				<linearGradient id="XMLID_4_" gradientUnits="userSpaceOnUse" x1="30" y1="92.146" x2="169.9905" y2="92.146">
					<stop  offset="0" style="stop-color:#B8DFFE"/>
					<stop  offset="1" style="stop-color:#6FA7EE"/>
				</linearGradient>
				<use xlink:href="#XMLID_13_"  style="overflow:visible;fill:url(#XMLID_4_);"/>
				<clipPath id="XMLID_5_">
					<use xlink:href="#XMLID_13_"  style="overflow:visible;"/>
				</clipPath>
				<linearGradient id="SVGID_8_" gradientUnits="userSpaceOnUse" x1="93.5231" y1="110.9169" x2="104.6551" y2="110.9169">
					<stop  offset="0" style="stop-color:#D0EAFE;stop-opacity:0"/>
					<stop  offset="0.5" style="stop-color:#D4ECFE"/>
					<stop  offset="1" style="stop-color:#D1EBFE;stop-opacity:0.1594"/>
				</linearGradient>
				<rect x="93.5" y="92.8" class="st8" width="11.1" height="36.2"/>
				<linearGradient id="SVGID_9_" gradientUnits="userSpaceOnUse" x1="24.434" y1="88.9769" x2="35.566" y2="88.9769">
					<stop  offset="0" style="stop-color:#D0EAFE;stop-opacity:0"/>
					<stop  offset="0.5" style="stop-color:#D4ECFE"/>
					<stop  offset="1" style="stop-color:#D1EBFE;stop-opacity:0.1594"/>
				</linearGradient>
				<rect x="24.4" y="70.9" class="st9" width="11.1" height="36.2"/>
				<linearGradient id="SVGID_10_" gradientUnits="userSpaceOnUse" x1="164.434" y1="85.0457" x2="175.566" y2="85.0457">
					<stop  offset="0" style="stop-color:#D0EAFE;stop-opacity:0"/>
					<stop  offset="0.5" style="stop-color:#D4ECFE"/>
					<stop  offset="1" style="stop-color:#D1EBFE;stop-opacity:0.1594"/>
				</linearGradient>
				<rect x="164.4" y="66.9" class="st10" width="11.1" height="36.2"/>
			</g>
			<linearGradient id="SVGID_11_" gradientUnits="userSpaceOnUse" x1="30" y1="71.0087" x2="170" y2="71.0087">
				<stop  offset="0" style="stop-color:#5DCBFF"/>
				<stop  offset="1" style="stop-color:#2E71DD"/>
			</linearGradient>
			<path class="st11" d="M94.9,95.6l-63.5-23c-2.2-1-1.8-2.6,0.9-3.6l63.5-22.9c2.3-0.8,6-0.8,8.2,0L167.6,69c2.7,1,3.2,2.6,0.9,3.6
				l-63.5,23C102.3,96.9,97.7,96.9,94.9,95.6z"/>
		</g>
		<defs>
			<filter id="Adobe_OpacityMaskFilter_1_" filterUnits="userSpaceOnUse" x="29.8" y="68.8" width="140.5" height="28">
				<feColorMatrix  type="matrix" values="1 0 0 0 0  0 1 0 0 0  0 0 1 0 0  0 0 0 1 0"/>
			</filter>
		</defs>
		<mask maskUnits="userSpaceOnUse" x="29.8" y="68.8" width="140.5" height="28" id="SVGID_12_">
			<g class="st12">
				<g>
					<linearGradient id="SVGID_13_" gradientUnits="userSpaceOnUse" x1="101.2279" y1="86.017" x2="158.8149" y2="64.3171">
						<stop  offset="0" style="stop-color:#000000"/>
						<stop  offset="0.5" style="stop-color:#FFFFFF"/>
						<stop  offset="1" style="stop-color:#000000"/>
					</linearGradient>
					<path class="st13" d="M169,18.6h-62.4c-3.3,0-6,2.7-6,6v95.3c0,3.3,2.7,6,6,6H169c3.3,0,6-2.7,6-6V24.6
						C175,21.3,172.3,18.6,169,18.6z"/>
				</g>
				<linearGradient id="SVGID_14_" gradientUnits="userSpaceOnUse" x1="41.0977" y1="89.4203" x2="94.4166" y2="110.0649">
					<stop  offset="0" style="stop-color:#000000"/>
					<stop  offset="0.5" style="stop-color:#FFFFFF"/>
					<stop  offset="1" style="stop-color:#000000"/>
				</linearGradient>
				<path class="st14" d="M93.8,153.7H38.8c-2.9,0-5.2-2.3-5.2-5.2V49.8c0-2.9,2.3-5.2,5.2-5.2h54.9c2.9,0,5.2,2.3,5.2,5.2v98.7
					C99,151.4,96.7,153.7,93.8,153.7z"/>
			</g>
		</mask>
		<path class="st15" d="M167.6,69c2.7,1,3.2,2.6,0.9,3.6l-63.5,23c-2.8,1.2-7.3,1.2-10.1,0l-63.5-23c-2.2-1-1.8-2.6,0.9-3.6"/>
	</g>
	<g>
		<path id="XMLID_7_" class="st16" d="M150.3,60.8h-25.9L103,53c-1.6-0.6-4.3-0.6-5.9,0l-21.5,7.8H49.7v10.2h0c0,0.4,0.3,0.9,1,1.2
			l45.6,16.5c2,0.9,5.3,0.9,7.3,0l45.6-16.5c0.7-0.3,1.1-0.8,1-1.2h0V60.8z"/>
		<path id="XMLID_12_" class="st17" d="M150.3,60.2h-25.9L103,52.5c-1.6-0.6-4.3-0.6-5.9,0l-21.5,7.8H49.7v10.2h0
			c0,0.4,0.3,0.9,1,1.2l45.6,16.5c2,0.9,5.3,0.9,7.3,0l45.6-16.5c0.7-0.3,1.1-0.8,1-1.2h0V60.2z"/>
		<g>
			<defs>
				<path id="XMLID_11_" d="M150.3,58.8h-25.9L103,51c-1.6-0.6-4.3-0.6-5.9,0l-21.5,7.8H49.7v10.2h0c0,0.4,0.3,0.9,1,1.2l45.6,16.5
					c2,0.9,5.3,0.9,7.3,0l45.6-16.5c0.7-0.3,1.1-0.8,1-1.2h0V58.8z"/>
			</defs>
			<linearGradient id="XMLID_6_" gradientUnits="userSpaceOnUse" x1="49.6946" y1="68.9296" x2="150.2985" y2="68.9296">
				<stop  offset="0" style="stop-color:#AFDAFE"/>
				<stop  offset="1" style="stop-color:#6FA7EE"/>
			</linearGradient>
			<use xlink:href="#XMLID_11_"  style="overflow:visible;fill:url(#XMLID_6_);"/>
			<clipPath id="XMLID_15_">
				<use xlink:href="#XMLID_11_"  style="overflow:visible;"/>
			</clipPath>
			<linearGradient id="SVGID_15_" gradientUnits="userSpaceOnUse" x1="95.3454" y1="82.4193" x2="103.3454" y2="82.4193">
				<stop  offset="0" style="stop-color:#D0EAFE;stop-opacity:0"/>
				<stop  offset="0.5" style="stop-color:#D4ECFE"/>
				<stop  offset="1" style="stop-color:#D1EBFE;stop-opacity:0.1594"/>
			</linearGradient>
			<rect x="95.3" y="74.4" class="st18" width="8" height="16"/>
			<linearGradient id="SVGID_16_" gradientUnits="userSpaceOnUse" x1="45.6946" y1="66.6521" x2="53.6946" y2="66.6521">
				<stop  offset="0" style="stop-color:#D0EAFE;stop-opacity:0"/>
				<stop  offset="0.5" style="stop-color:#D4ECFE"/>
				<stop  offset="1" style="stop-color:#D1EBFE;stop-opacity:0.1594"/>
			</linearGradient>
			<rect x="45.7" y="58.7" class="st19" width="8" height="16"/>
			<linearGradient id="SVGID_17_" gradientUnits="userSpaceOnUse" x1="146.3054" y1="63.827" x2="154.3054" y2="63.827">
				<stop  offset="0" style="stop-color:#D0EAFE;stop-opacity:0"/>
				<stop  offset="0.5" style="stop-color:#D4ECFE"/>
				<stop  offset="1" style="stop-color:#D1EBFE;stop-opacity:0.1594"/>
			</linearGradient>
			<rect x="146.3" y="55.8" class="st20" width="8" height="16"/>
		</g>
		<linearGradient id="SVGID_18_" gradientUnits="userSpaceOnUse" x1="49.6946" y1="58.7701" x2="150.3054" y2="58.7701">
			<stop  offset="0" style="stop-color:#C6E4FF"/>
			<stop  offset="1" style="stop-color:#BADFFE"/>
		</linearGradient>
		<path class="st21" d="M96.4,76.5L50.7,60c-1.6-0.7-1.3-1.9,0.7-2.6L97,40.9c1.6-0.6,4.3-0.6,5.9,0l45.6,16.5
			c2,0.7,2.3,1.9,0.7,2.6l-45.6,16.5C101.6,77.4,98.4,77.4,96.4,76.5z"/>
		<g class="st22">
			<path class="st23" d="M100,40.7c1.1,0,2.1,0.2,2.9,0.4l45.6,16.5c0.9,0.3,1.5,0.8,1.5,1.2c0,0.3-0.3,0.6-0.9,0.9l-45.7,16.5
				c-0.9,0.4-2.2,0.6-3.5,0.6c-1.3,0-2.6-0.2-3.5-0.7L50.8,59.7c-0.6-0.3-0.9-0.6-0.9-0.9c0-0.4,0.6-0.9,1.5-1.2l45.6-16.5
				C97.9,40.8,98.9,40.7,100,40.7 M100,40.4c-1.1,0-2.1,0.1-3,0.4L51.4,57.3c-2,0.7-2.3,1.9-0.7,2.6l45.6,16.5
				c1,0.4,2.3,0.7,3.6,0.7c1.3,0,2.6-0.2,3.6-0.7L149.3,60c1.6-0.7,1.3-1.9-0.7-2.6L103,40.9C102.1,40.6,101.1,40.4,100,40.4
				L100,40.4z"/>
		</g>
	</g>
	<line class="st24" x1="53.1" y1="66" x2="95.9" y2="81.4"/>
	<line class="st24" x1="147.3" y1="66" x2="104.4" y2="81.4"/>
	<g>
		<g>
			<path class="st17" d="M163.1,81.8c-0.4,0.2-0.7,0.8-0.7,1.2l0,13c0,0.4,0.3,0.6,0.7,0.4c0.4-0.2,0.7-0.8,0.7-1.2l0-13
				C163.8,81.8,163.5,81.6,163.1,81.8z"/>
		</g>
		<g>
			<path class="st17" d="M155.8,84.7c-0.4,0.2-0.7,0.8-0.7,1.2l0,13c0,0.4,0.3,0.6,0.7,0.4c0.4-0.2,0.7-0.8,0.7-1.2l0-13
				C156.5,84.6,156.2,84.5,155.8,84.7z"/>
		</g>
		<g>
			<path class="st17" d="M148.5,87.5c-0.4,0.2-0.7,0.8-0.7,1.2l0,13c0,0.4,0.3,0.6,0.7,0.4c0.4-0.2,0.7-0.8,0.7-1.2l0-13
				C149.2,87.4,148.9,87.3,148.5,87.5z"/>
		</g>
		<g>
			<path class="st17" d="M141.3,90c-0.4,0.2-0.7,0.8-0.7,1.2l0,13c0,0.4,0.3,0.6,0.7,0.4c0.4-0.2,0.7-0.8,0.7-1.2l0-13
				C142,90,141.7,89.8,141.3,90z"/>
		</g>
		<g>
			<path class="st17" d="M134.1,92.7c-0.4,0.2-0.7,0.8-0.7,1.2l0,13c0,0.4,0.3,0.6,0.7,0.4c0.4-0.2,0.7-0.8,0.7-1.2l0-13
				C134.8,92.6,134.5,92.5,134.1,92.7z"/>
		</g>
		<g>
			<path class="st17" d="M126.7,95.4c-0.4,0.2-0.7,0.8-0.7,1.2l0,13c0,0.4,0.3,0.6,0.7,0.4c0.4-0.2,0.7-0.8,0.7-1.2l0-13
				C127.4,95.4,127.1,95.2,126.7,95.4z"/>
		</g>
		<g>
			<path class="st17" d="M119.6,98.1c-0.4,0.2-0.7,0.8-0.7,1.2l0,13c0,0.4,0.3,0.6,0.7,0.4c0.4-0.2,0.7-0.8,0.7-1.2l0-13
				C120.3,98.1,120,97.9,119.6,98.1z"/>
		</g>
		<g>
			<path class="st17" d="M112.5,100.7c-0.4,0.2-0.7,0.8-0.7,1.2l0,13c0,0.4,0.3,0.6,0.7,0.4c0.4-0.2,0.7-0.8,0.7-1.2l0-13
				C113.2,100.6,112.9,100.5,112.5,100.7z"/>
		</g>
	</g>
	<g>
		<g>
			<path class="st17" d="M163.1,116.7c-0.4,0.2-0.7,0.8-0.7,1.2l0,13c0,0.4,0.3,0.6,0.7,0.4c0.4-0.2,0.7-0.8,0.7-1.2l0-13
				C163.8,116.7,163.5,116.5,163.1,116.7z"/>
		</g>
		<g>
			<path class="st17" d="M155.8,119.6c-0.4,0.2-0.7,0.8-0.7,1.2l0,13c0,0.4,0.3,0.6,0.7,0.4c0.4-0.2,0.7-0.8,0.7-1.2l0-13
				C156.5,119.5,156.2,119.4,155.8,119.6z"/>
		</g>
		<g>
			<path class="st17" d="M148.5,122.4c-0.4,0.2-0.7,0.8-0.7,1.2l0,13c0,0.4,0.3,0.6,0.7,0.4c0.4-0.2,0.7-0.8,0.7-1.2l0-13
				C149.2,122.3,148.9,122.2,148.5,122.4z"/>
		</g>
		<g>
			<path class="st17" d="M141.3,124.9c-0.4,0.2-0.7,0.8-0.7,1.2l0,13c0,0.4,0.3,0.6,0.7,0.4c0.4-0.2,0.7-0.8,0.7-1.2l0-13
				C142,124.9,141.7,124.7,141.3,124.9z"/>
		</g>
		<g>
			<path class="st17" d="M134.1,127.6c-0.4,0.2-0.7,0.8-0.7,1.2l0,13c0,0.4,0.3,0.6,0.7,0.4c0.4-0.2,0.7-0.8,0.7-1.2l0-13
				C134.8,127.5,134.5,127.4,134.1,127.6z"/>
		</g>
		<g>
			<path class="st17" d="M126.7,130.3c-0.4,0.2-0.7,0.8-0.7,1.2l0,13c0,0.4,0.3,0.6,0.7,0.4c0.4-0.2,0.7-0.8,0.7-1.2l0-13
				C127.4,130.3,127.1,130.1,126.7,130.3z"/>
		</g>
		<g>
			<path class="st17" d="M119.6,133c-0.4,0.2-0.7,0.8-0.7,1.2l0,13c0,0.4,0.3,0.6,0.7,0.4c0.4-0.2,0.7-0.8,0.7-1.2l0-13
				C120.3,133,120,132.8,119.6,133z"/>
		</g>
		<g>
			<path class="st17" d="M112.5,135.6c-0.4,0.2-0.7,0.8-0.7,1.2l0,13c0,0.4,0.3,0.6,0.7,0.4c0.4-0.2,0.7-0.8,0.7-1.2l0-13
				C113.2,135.5,112.9,135.4,112.5,135.6z"/>
		</g>
	</g>
	<g>
		<g>
			<path class="st17" d="M83.6,102.7c1,0.4,1.8,1.7,1.8,3c0,1.3-0.8,2-1.8,1.7L51.9,95.8c-1-0.4-1.8-1.7-1.8-3c0-1.3,0.8-2,1.8-1.7
				L83.6,102.7z"/>
		</g>
		<g>
			<path class="st17" d="M39.3,86.3c1.2,0.4,2.2,2,2.2,3.6c0,1.5-0.9,2.4-2.1,2c-1.2-0.4-2.2-2-2.2-3.6
				C37.2,86.8,38.1,85.9,39.3,86.3z"/>
		</g>
		<g>
			<path class="st17" d="M45.2,89.7c0.6,0.2,1.1,1,1.1,1.8c0,0.8-0.5,1.2-1.1,1c-0.6-0.2-1.1-1-1.1-1.8
				C44.1,89.9,44.6,89.4,45.2,89.7z"/>
		</g>
	</g>
	<g>
		<g>
			<path class="st17" d="M83.6,138.1c1,0.4,1.8,1.7,1.8,3c0,1.3-0.8,2-1.8,1.7l-31.7-11.5c-1-0.4-1.8-1.7-1.8-3c0-1.3,0.8-2,1.8-1.7
				L83.6,138.1z"/>
		</g>
		<g>
			<path class="st17" d="M39.3,121.8c1.2,0.4,2.2,2,2.2,3.6c0,1.5-0.9,2.4-2.1,2c-1.2-0.4-2.2-2-2.2-3.6
				C37.2,122.2,38.1,121.3,39.3,121.8z"/>
		</g>
		<g>
			<path class="st17" d="M45.2,125.1c0.6,0.2,1.1,1,1.1,1.8c0,0.8-0.5,1.2-1.1,1s-1.1-1-1.1-1.8C44.1,125.3,44.6,124.9,45.2,125.1z"
				/>
		</g>
	</g>
	<defs>
		<filter id="Adobe_OpacityMaskFilter_2_" filterUnits="userSpaceOnUse" x="45.7" y="70.3" width="108.6" height="41.5">
			<feColorMatrix  type="matrix" values="1 0 0 0 0  0 1 0 0 0  0 0 1 0 0  0 0 0 1 0"/>
		</filter>
	</defs>
	<mask maskUnits="userSpaceOnUse" x="45.7" y="70.3" width="108.6" height="41.5" id="SVGID_19_">
		<g class="st25">
			<path class="st23" d="M94.9,96.6l-63.5-23c-2.2-1-1.8-2.6,0.9-3.6l63.5-22.9c2.3-0.8,6-0.8,8.2,0L167.6,70c2.7,1,3.2,2.6,0.9,3.6
				l-63.5,23C102.3,97.8,97.7,97.8,94.9,96.6z"/>
		</g>
	</mask>
	<g class="st26">
		<g>
			<path id="XMLID_10_" class="st16" d="M150.3,90.7l-25.9,20L103,103c-1.6-0.6-4.3-0.6-5.9,0l-21.5,7.8l-25.9-20V70.9h0
				c0,0.4,0.3,0.9,1,1.2l45.6,16.5c2,0.9,5.3,0.9,7.3,0l45.6-16.5c0.7-0.3,1.1-0.8,1-1.2h0V90.7z"/>
			<path id="XMLID_9_" class="st17" d="M150.3,90.2l-25.9,20l-21.5-7.8c-1.6-0.6-4.3-0.6-5.9,0l-21.5,7.8l-25.9-20V70.4h0
				c0,0.4,0.3,0.9,1,1.2L96.4,88c2,0.9,5.3,0.9,7.3,0l45.6-16.5c0.7-0.3,1.1-0.8,1-1.2h0V90.2z"/>
			<g>
				<defs>
					<path id="XMLID_8_" d="M150.3,91.7l-25.9,20L103,104c-1.6-0.6-4.3-0.6-5.9,0l-21.5,7.8l-25.9-20V71.9h0c0,0.4,0.3,0.9,1,1.2
						l45.6,16.5c2,0.9,5.3,0.9,7.3,0l45.6-16.5c0.7-0.3,1.1-0.8,1-1.2h0V91.7z"/>
				</defs>
				<linearGradient id="XMLID_16_" gradientUnits="userSpaceOnUse" x1="49.6946" y1="91.8257" x2="150.2985" y2="91.8257">
					<stop  offset="0" style="stop-color:#AFDAFE"/>
					<stop  offset="1" style="stop-color:#6FA7EE"/>
				</linearGradient>
				<use xlink:href="#XMLID_8_"  style="overflow:visible;fill:url(#XMLID_16_);"/>
				<clipPath id="XMLID_17_">
					<use xlink:href="#XMLID_8_"  style="overflow:visible;"/>
				</clipPath>
				<linearGradient id="SVGID_20_" gradientUnits="userSpaceOnUse" x1="95.3454" y1="93.7461" x2="103.3454" y2="93.7461">
					<stop  offset="0" style="stop-color:#D0EAFE;stop-opacity:0"/>
					<stop  offset="0.5" style="stop-color:#D4ECFE"/>
					<stop  offset="1" style="stop-color:#D1EBFE;stop-opacity:0.1594"/>
				</linearGradient>
				<rect x="95.3" y="85.8" class="st27" width="8" height="16"/>
				<linearGradient id="SVGID_21_" gradientUnits="userSpaceOnUse" x1="45.6946" y1="77.2651" x2="53.6946" y2="77.2651">
					<stop  offset="0" style="stop-color:#D0EAFE;stop-opacity:0"/>
					<stop  offset="0.5" style="stop-color:#D4ECFE"/>
					<stop  offset="1" style="stop-color:#D1EBFE;stop-opacity:0.1594"/>
				</linearGradient>
				<rect x="45.7" y="70.3" class="st28" width="8" height="14"/>
				<linearGradient id="SVGID_22_" gradientUnits="userSpaceOnUse" x1="146.3054" y1="78.1055" x2="154.3054" y2="78.1055">
					<stop  offset="0" style="stop-color:#D0EAFE;stop-opacity:0"/>
					<stop  offset="0.5" style="stop-color:#D4ECFE"/>
					<stop  offset="1" style="stop-color:#D1EBFE;stop-opacity:0.1594"/>
				</linearGradient>
				<rect x="146.3" y="71.1" class="st29" width="8" height="14"/>
			</g>
			<g class="st22">
				<path class="st23" d="M100,73.6c1.1,0,2.1,0.2,2.9,0.4l45.6,16.5c0.9,0.3,1.5,0.8,1.5,1.2c0,0.3-0.3,0.6-0.9,0.9l-45.7,16.5
					c-0.9,0.4-2.2,0.6-3.5,0.6s-2.6-0.2-3.5-0.7L50.8,92.7c-0.6-0.3-0.9-0.6-0.9-0.9c0-0.4,0.6-0.9,1.5-1.2l45.6-16.5
					C97.9,73.8,98.9,73.6,100,73.6 M100,73.4c-1.1,0-2.1,0.1-3,0.4L51.4,90.3c-2,0.7-2.3,1.9-0.7,2.6l45.6,16.5
					c1,0.4,2.3,0.7,3.6,0.7c1.3,0,2.6-0.2,3.6-0.7l45.6-16.5c1.6-0.7,1.3-1.9-0.7-2.6L103,73.8C102.1,73.5,101.1,73.4,100,73.4
					L100,73.4z"/>
			</g>
		</g>
		<line class="st24" x1="53.1" y1="78.4" x2="95.9" y2="93.9"/>
		<line class="st24" x1="147.3" y1="78.4" x2="104.4" y2="93.9"/>
	</g>
</g>
</svg>
