<?xml version="1.0" encoding="utf-8"?>
<!-- Generator: Adobe Illustrator 25.0.0, SVG Export Plug-In . SVG Version: 6.00 Build 0)  -->
<svg version="1.1" id="图层_1" xmlns="http://www.w3.org/2000/svg" xmlns:xlink="http://www.w3.org/1999/xlink" x="0px" y="0px"
	 viewBox="0 0 24 24" style="enable-background:new 0 0 24 24;" xml:space="preserve">
<style type="text/css">
	.st0{fill:#8BCF70;}
</style>0
<path class="st0" d="M20.7,8.1c-1.5-1.5-4.4-4.4-4.4-4.4c-1.2-1.2-2.5-1.4-3.4-0.7c-0.5,0.4-0.7,0.9-0.8,1.4c-0.1,0.5-0.4,1-0.8,1.3
	l-0.1,0.1c-2,1.5-4.3,2.8-6.8,3.2C3.9,9.2,3.3,9.5,3,10c-0.6,0.9-0.4,2.1,0.3,2.9l3.4,3.4c0,0,0,0,0,0l-3.1,3.1
	c-0.3,0.3-0.3,0.8,0,1.1c0.1,0.1,0.3,0.2,0.5,0.2c0.2,0,0.4-0.1,0.5-0.2l3.1-3.1c0,0,0,0,0,0l2.9,2.9c1.3,1.3,2.5,1.5,3.4,0.9
	c0.4-0.3,0.7-0.7,0.9-1.2c0.6-2.3,1.4-4.6,2.8-6.5l0.5-0.7c0.3-0.4,0.8-0.8,1.3-0.8c0.5-0.1,1.1-0.3,1.4-0.8
	C21.7,10.2,21.5,8.9,20.7,8.1z"/>
</svg>
