<?xml version="1.0" encoding="utf-8"?>
<!-- Generator: Adobe Illustrator 25.0.0, SVG Export Plug-In . SVG Version: 6.00 Build 0)  -->
<svg version="1.1" id="图层_1" xmlns="http://www.w3.org/2000/svg" xmlns:xlink="http://www.w3.org/1999/xlink" x="0px" y="0px"
	 viewBox="0 0 1024 1024" style="enable-background:new 0 0 1024 1024;" xml:space="preserve">
<style type="text/css">
	.st0{clip-path:url(#SVGID_1_);}
	.st1{clip-path:url(#SVGID_2_);}
	.st2{fill:#434343;}
	.st3{opacity:0.4;}
	.st4{clip-path:url(#SVGID_3_);}
	.st5{fill:#FFFFFF;}
</style>
<g>
	<g>
		<g>
			<defs>
				<rect id="SVGID_7_" x="96" y="96" width="832" height="832"/>
			</defs>
			<clipPath id="SVGID_1_">
				<use xlink:href="#SVGID_7_"  style="overflow:visible;"/>
			</clipPath>
			<g id="组_279" class="st0">
				<g id="组_278" transform="translate(8 2)">
					<g>
						<g>
							<g>
								<defs>
									<rect id="SVGID_9_" x="192" y="120" width="624" height="780"/>
								</defs>
								<clipPath id="SVGID_2_">
									<use xlink:href="#SVGID_9_"  style="overflow:visible;"/>
								</clipPath>
								<g id="组_277" class="st1">
									<g id="路径_149">
										<path class="st2" d="M270,120c-43,0.1-77.9,35-78,78v624c0.1,43,35,77.9,78,78h468c43-0.1,77.9-35,78-78V352.1L584,120
											H270z"/>
									</g>
									<g id="组_276" transform="translate(30.15)" class="st3">
										<g id="组_275">
											<g>
												<g>
													<g>
														<defs>
															<rect id="SVGID_11_" x="553.8" y="120" width="232.1" height="232.1"/>
														</defs>
														<clipPath id="SVGID_3_">
															<use xlink:href="#SVGID_11_"  style="overflow:visible;"/>
														</clipPath>
														<g id="组_274" class="st4">
															<g id="路径_150">
																<path class="st5" d="M631.8,352.1h154L553.8,120v154.1C553.9,317.1,588.8,351.9,631.8,352.1"/>
															</g>
														</g>
													</g>
												</g>
											</g>
										</g>
									</g>
									<g id="矩形_151">
										<path class="st5" d="M363.3,683.7c-2.1,0-4.2-0.8-5.7-2.4l-39-39c-3.2-3.2-3.2-8.3,0-11.5l39-39c3-3,8.4-3,11.5,0l39,39
											c1.5,1.5,2.4,3.6,2.4,5.7c0,2.2-0.9,4.2-2.4,5.7l-39,39C367.4,682.9,365.4,683.7,363.3,683.7z M335.8,636.6l27.5,27.5
											l27.5-27.5l-27.5-27.5L335.8,636.6z"/>
									</g>
									<g id="矩形_152">
										<path class="st5" d="M558.3,664.2h-92.9c-4.5,0-8.1-3.6-8.1-8.1v-39c0-4.5,3.6-8.1,8.1-8.1h92.9c4.5,0,8.1,3.6,8.1,8.1v39
											C566.4,660.5,562.8,664.2,558.3,664.2z M473.5,647.9h76.7v-22.8h-76.7V647.9z"/>
									</g>
									<g id="矩形_153">
										<path class="st5" d="M558.3,754.5h-92.9c-4.5,0-8.1-3.6-8.1-8.1v-39c0-4.5,3.6-8.1,8.1-8.1h92.9c4.5,0,8.1,3.6,8.1,8.1v39
											C566.4,750.9,562.8,754.5,558.3,754.5z M473.5,738.3h76.7v-22.8h-76.7V738.3z"/>
									</g>
									<g id="路径_151">
										<path class="st5" d="M382.8,531.9c0,10.8-8.7,19.5-19.5,19.5s-19.5-8.7-19.5-19.5s8.7-19.5,19.5-19.5
											S382.8,521.1,382.8,531.9"/>
									</g>
									<g id="椭圆_35">
										<path class="st5" d="M363.3,559.5c-15.2,0-27.6-12.4-27.6-27.6s12.4-27.6,27.6-27.6s27.6,12.4,27.6,27.6
											S378.5,559.5,363.3,559.5z M363.3,520.5c-6.3,0-11.4,5.1-11.4,11.4s5.1,11.4,11.4,11.4s11.4-5.1,11.4-11.4
											S369.5,520.5,363.3,520.5z"/>
									</g>
									<g id="直线_91">
										<path class="st5" d="M363.3,605.7c-4.5,0-8.1-3.6-8.1-8.1v-85.2c0-4.5,3.6-8.1,8.1-8.1s8.1,3.6,8.1,8.1v85.2
											C371.4,602.1,367.8,605.7,363.3,605.7z"/>
									</g>
									<g id="直线_92">
										<path class="st5" d="M464.2,644.7h-62c-4.5,0-8.1-3.6-8.1-8.1s3.6-8.1,8.1-8.1h62c4.5,0,8.1,3.6,8.1,8.1
											S468.7,644.7,464.2,644.7z"/>
									</g>
									<g id="直线_93">
										<path class="st5" d="M363.3,735c-4.5,0-8.1-3.6-8.1-8.1v-51.3c0-4.5,3.6-8.1,8.1-8.1s8.1,3.6,8.1,8.1v51.3
											C371.4,731.4,367.8,735,363.3,735z"/>
									</g>
									<g id="直线_94">
										<path class="st5" d="M464.2,735H363.7c-4.5,0-8.1-3.6-8.1-8.1s3.6-8.1,8.1-8.1h100.5c4.5,0,8.1,3.6,8.1,8.1
											S468.7,735,464.2,735z"/>
									</g>
								</g>
							</g>
						</g>
					</g>
				</g>
			</g>
		</g>
	</g>
</g>
</svg>
