<?xml version="1.0" encoding="utf-8"?>
<!-- Generator: Adobe Illustrator 25.0.0, SVG Export Plug-In . SVG Version: 6.00 Build 0)  -->
<svg version="1.1" id="图层_1" xmlns="http://www.w3.org/2000/svg" xmlns:xlink="http://www.w3.org/1999/xlink" x="0px" y="0px"
	 viewBox="0 0 1024 1024" style="enable-background:new 0 0 1024 1024;" xml:space="preserve">
<style type="text/css">
	.st0{clip-path:url(#SVGID_1_);}
	.st1{clip-path:url(#SVGID_2_);}
	.st2{fill:#EA4845;}
	.st3{opacity:0.4;}
	.st4{clip-path:url(#SVGID_3_);}
	.st5{fill:#FFFFFF;}
</style>
<g>
	<g>
		<g>
			<defs>
				<rect id="SVGID_7_" x="96" y="96" width="832" height="832"/>
			</defs>
			<clipPath id="SVGID_1_">
				<use xlink:href="#SVGID_7_"  style="overflow:visible;"/>
			</clipPath>
			<g id="组_301" class="st0">
				<g id="组_300" transform="translate(8 2)">
					<g>
						<g>
							<g>
								<defs>
									<rect id="SVGID_9_" x="192" y="120" width="624" height="780"/>
								</defs>
								<clipPath id="SVGID_2_">
									<use xlink:href="#SVGID_9_"  style="overflow:visible;"/>
								</clipPath>
								<g id="组_299" class="st1">
									<g id="路径_159">
										<path class="st2" d="M270,120c-43,0.1-77.9,35-78,78v624c0.1,43,35,77.9,78,78h468c43-0.1,77.9-35,78-78V352.1L584,120
											H270z"/>
									</g>
									<g id="组_298" transform="translate(30.15)" class="st3">
										<g id="组_297">
											<g>
												<g>
													<g>
														<defs>
															<rect id="SVGID_11_" x="553.8" y="120" width="232.1" height="232.1"/>
														</defs>
														<clipPath id="SVGID_3_">
															<use xlink:href="#SVGID_11_"  style="overflow:visible;"/>
														</clipPath>
														<g id="组_296" class="st4">
															<g id="路径_160">
																<path class="st5" d="M631.8,352.1h154L553.8,120v154.1C553.9,317.1,588.8,351.9,631.8,352.1"/>
															</g>
														</g>
													</g>
												</g>
											</g>
										</g>
									</g>
									<g id="路径_161">
										<path class="st5" d="M541.4,693.4c-0.3,0-0.6,0-0.9-0.1c-24.1-2.7-46.6-12.3-65.2-27.9c-0.5-0.2-0.9-0.5-1.3-0.7
											c-13.2-9.8-25.5-20.9-36.6-32.9c-6.5-7.1-12.7-14.7-18.4-22.5c-22.5-30.5-35.1-62.8-33.9-86.3c0.1-5.5,1.7-11.2,4.7-16.1
											c2.3-3.9,7.3-5.1,11.1-2.8c3.9,2.3,5.1,7.3,2.8,11.1c-1.5,2.5-2.3,5.4-2.4,8.4c-1.1,19.8,10.7,48.9,30.7,76.1
											c5.4,7.4,11.1,14.5,17.2,21.1c10.1,10.9,21.2,21,33.2,30c0.7,0.3,1.4,0.7,2,1.2c16.3,14.1,36.3,22.8,57.7,25.1
											c4.5,0.5,7.7,4.5,7.2,9C549,690.3,545.5,693.4,541.4,693.4z"/>
									</g>
									<g id="路径_162">
										<path class="st5" d="M353.9,750.1c-2.3,0-4.5-0.9-6.1-2.8c-3-3.4-2.6-8.5,0.7-11.5c0.7-0.6,1.3-1.3,1.9-1.9
											c13.8-16.6,26-34.9,36.1-54.2c0.4-0.7,0.8-1.3,1.3-1.9c6.5-13,12-25.2,16.9-37.3c5-12.4,9.3-25.3,13-38.2
											c8.5-25.7,12.4-52,11.7-78.7c0-2.2-0.4-4.1-1.1-5.9c-1.7-4.1,0.2-8.9,4.3-10.6c4.1-1.8,8.9,0.2,10.6,4.3
											c1.6,3.8,2.4,7.9,2.4,12.1c0.7,28.3-3.4,56.5-12.4,83.6c-3.7,13.1-8.3,26.5-13.5,39.5c-5.3,13.1-11.4,26.4-18.5,40.5
											c-0.4,0.8-0.9,1.5-1.5,2.1c-10.4,19.6-22.9,38.2-37.1,55.3c-1.2,1.4-2.3,2.5-3.6,3.6C357.7,749.4,355.8,750.1,353.9,750.1
											z M394.2,683.5h0.1H394.2z"/>
									</g>
									<g id="路径_163">
										<path class="st5" d="M329.6,723.5c-2.2,0-4.4-0.9-6-2.6c-3-3.3-2.8-8.4,0.5-11.5c2.3-2.1,4.8-3.9,7.6-5.3
											c18.5-11,38.7-20.6,59.4-28.3c0.5-0.2,0.9-0.3,1.4-0.4c9.6-3.8,20.5-7.6,35.3-12.2c19.1-5.9,35.3-10.1,49.5-13
											c0.4-0.1,0.7-0.1,1.1-0.1c20.4-4.4,41.2-6.8,62-7.1h1.9c4.5,0,8.1,3.6,8.1,8.1s-3.6,8.1-8.1,8.1h-1.8
											c-19.9,0.3-39.9,2.6-59.5,6.9c-0.6,0.1-1.2,0.2-1.7,0.2c-12.5,2.6-28.2,6.8-46.8,12.5c-14.9,4.7-25.8,8.4-35.2,12.2
											c-0.6,0.2-1.2,0.4-1.8,0.5c-19.4,7.3-38.3,16.3-56.1,26.9c-1.9,1-3.2,1.9-4.4,3C333.5,722.8,331.6,723.5,329.6,723.5z"/>
									</g>
									<g id="路径_164">
										<path class="st5" d="M436,522.7c-3.1,0-6.1-1.8-7.5-4.9c-2.2-5.1-7.2-8.4-12.8-8.4c0,0-0.1,0-0.2,0
											c-4.8,0-9.2,2.3-11.9,6.2c-2.5,3.7-7.6,4.7-11.3,2.1c-3.7-2.5-4.7-7.6-2.1-11.3c5.7-8.3,15.1-13.3,25.2-13.3
											c0.1,0,0.2,0,0.4,0c12,0,22.8,7.1,27.6,18.2c1.8,4.1-0.1,8.9-4.2,10.7C438.1,522.5,437,522.7,436,522.7z"/>
									</g>
									<g id="路径_165">
										<path class="st5" d="M342.7,754.5c-0.1,0-0.2,0-0.3,0c-7.5-0.1-14-2.9-18.8-7.9s-7.5-11.6-7.4-18.5
											c-0.1-6.8,2.7-13.6,7.7-18.5c3.2-3.1,8.4-3.1,11.5,0.1c3.1,3.2,3.1,8.3-0.1,11.5c-1.9,1.8-2.9,4.4-2.9,6.9
											c-0.1,5.6,4.3,10.1,9.7,10.2c2.6,0.2,4.8-0.8,6.4-2.3c3.3-3,8.4-2.8,11.5,0.5c3,3.3,2.8,8.4-0.5,11.5
											C354.9,752.2,349,754.5,342.7,754.5z"/>
									</g>
									<g id="路径_166">
										<path class="st5" d="M541.6,693.4l-0.1-16.2c4.8,0,8.7-3.9,8.7-8.7c0.1-4.9-3.6-8.9-8.3-9.2c-4.5-0.3-7.9-4.1-7.6-8.6
											c0.3-4.5,4.1-8,8.6-7.6c13.4,0.9,23.8,12.1,23.6,25.5C566.5,682.1,555.3,693.3,541.6,693.4z"/>
									</g>
								</g>
							</g>
						</g>
					</g>
				</g>
			</g>
		</g>
	</g>
</g>
</svg>
