<?xml version="1.0" standalone="no"?><!DOCTYPE svg PUBLIC "-//W3C//DTD SVG 1.1//EN" "http://www.w3.org/Graphics/SVG/1.1/DTD/svg11.dtd"><svg t="1639131642703" class="icon" viewBox="0 0 1024 1024" version="1.1" xmlns="http://www.w3.org/2000/svg" p-id="11682" xmlns:xlink="http://www.w3.org/1999/xlink"><defs><style type="text/css"></style></defs><path d="M256 85.333333c-46.933333 0-85.333333 38.4-85.333333 85.333334v682.666666c0 46.933333 38.4 85.333333 85.333333 85.333334h512c46.933333 0 85.333333-38.4 85.333333-85.333334V337.066667L601.6 85.333333H256z" fill="#B9C2CE" p-id="11683"></path><path d="M686.933333 337.066667H853.333333L601.6 85.333333v166.4c0 46.933333 38.4 85.333333 85.333333 85.333334z" fill="#FFFFFF" opacity=".4" p-id="11684"></path><path d="M533.333333 524.8V644.266667l12.8 25.6c0 4.266667 4.266667 8.533333 4.266667 8.533333V750.933333c8.533333-4.266667 12.8-12.8 12.8-25.6v-170.666666c-4.266667-12.8-17.066667-25.6-29.866667-29.866667zM512 652.8v-119.466667c0-12.8-8.533333-21.333333-21.333333-21.333333H422.4v29.866667h-29.866667V512H337.066667c-12.8 0-21.333333 8.533333-21.333334 21.333333v213.333334c0 12.8 8.533333 21.333333 21.333334 21.333333h170.666666c12.8 0 21.333333-8.533333 21.333334-21.333333V682.666667l-17.066667-29.866667z m-59.733333-76.8h-29.866667v29.866667h29.866667V695.466667H392.533333v-59.733334h29.866667v-29.866666h-29.866667v-29.866667h29.866667v-29.866667h29.866667v29.866667z" fill="#FFFFFF" p-id="11685"></path></svg>
