<svg t="1626148982812" class="icon" viewBox="0 0 1024 1024" version="1.1" xmlns="http://www.w3.org/2000/svg" p-id="10915"><path d="M256 85.333333c-46.933333 0-85.333333 38.4-85.333333 85.333334v682.666666c0 46.933333 38.4 85.333333 85.333333 85.333334h512c46.933333 0 85.333333-38.4 85.333333-85.333334V337.066667L601.6 85.333333H256z" fill="#33C481" p-id="10916"></path><path d="M686.933333 337.066667H853.333333L601.6 85.333333v166.4c0 46.933333 38.4 85.333333 85.333333 85.333334z" fill="#FFFFFF" opacity=".4" p-id="10917"></path><path d="M345.6 759.466667L422.4 640l-72.533333-110.933333h42.666666l34.133334 55.466666c4.266667 8.533333 12.8 17.066667 12.8 25.6 4.266667-8.533333 12.8-17.066667 17.066666-25.6l34.133334-55.466666h42.666666L460.8 640l76.8 123.733333h-42.666667l-42.666666-72.533333-12.8-21.333333L384 759.466667h-38.4z" fill="#FFFFFF" p-id="10918"></path></svg>