<?xml version="1.0" standalone="no"?><!DOCTYPE svg PUBLIC "-//W3C//DTD SVG 1.1//EN" "http://www.w3.org/Graphics/SVG/1.1/DTD/svg11.dtd"><svg t="1624964747859" class="icon" viewBox="0 0 1024 1024" version="1.1" xmlns="http://www.w3.org/2000/svg" p-id="1522" xmlns:xlink="http://www.w3.org/1999/xlink" width="1024" height="1024"><defs><style type="text/css"></style></defs><path d="M594.944 0l335.12448 341.31968v563.2c0 65.9968-52.50048 119.48032-117.29408 119.48032H209.54624c-64.7936 0-117.2992-53.5296-117.2992-119.48032V119.48032C92.25216 53.48352 144.75776 0 209.55136 0H594.944z" fill="#424242" p-id="1523"></path><path d="M930.06848 341.31968h-211.9168c-64.74752 0-123.20768-59.48928-123.20768-125.4912V0l335.12448 341.31968z" fill="#FFFFFF" fill-opacity=".4" p-id="1524"></path><path d="M504.45824 580.608c49.52576 0 90.3424 40.86784 90.3424 92.02176 0 50.45248-40.81664 92.06784-90.3424 92.06784a86.10816 86.10816 0 0 1-51.57376-16.384c-6.05184-4.096-7.35232-12.94336-3.34848-19.08736a13.5424 13.5424 0 0 1 18.75456-3.39456c10.70592 7.44448 23.41376 11.58656 36.16768 11.58656 34.816 0 63.58016-29.32224 63.58016-64.78848 0-35.47136-28.76416-64.7936-63.58016-64.7936-32.768 0-60.1856 25.97376-63.30368 58.6496l-0.32256 6.144c0 50.45248-40.82176 92.06784-90.34752 92.06784-49.52576 0-90.38848-41.61536-90.38848-92.06784 0-50.4576 40.86272-92.02176 90.38848-92.02176 17.408 0 34.11968 4.74624 48.87552 14.2848 6.04672 4.096 8.00256 12.288 3.99872 19.08736a13.5936 13.5936 0 0 1-18.75456 4.096 60.8768 60.8768 0 0 0-34.11968-10.24c-34.816 0-63.58016 29.32224-63.58016 64.7936 0 35.46624 28.76416 64.78848 63.58016 64.78848 34.816 0 63.58016-29.32224 63.58016-64.78848 0-50.4576 40.82176-92.02176 90.3936-92.02176z" fill="#FFFFFF" p-id="1525"></path></svg>