<?xml version="1.0" standalone="no"?><!DOCTYPE svg PUBLIC "-//W3C//DTD SVG 1.1//EN" "http://www.w3.org/Graphics/SVG/1.1/DTD/svg11.dtd"><svg t="1625032843298" class="icon" viewBox="0 0 1024 1024" version="1.1" xmlns="http://www.w3.org/2000/svg" p-id="4865" xmlns:xlink="http://www.w3.org/1999/xlink" width="1024" height="1024"><defs><style type="text/css"></style></defs><path d="M520.533333 230.4l34.133334 72.533333c12.8 29.866667 42.666667 46.933333 76.8 46.933334h174.933333c21.333333 0 38.4 4.266667 55.466667 12.8V294.4c0-34.133333-29.866667-64-64-64h-277.333334z" fill="#F9B552" p-id="4866"></path><path d="M844.8 349.866667h-209.066667c-34.133333 0-64-17.066667-76.8-46.933334L512 213.333333c-12.8-29.866667-42.666667-46.933333-76.8-46.933333h-256c-46.933333 0-85.333333 38.4-85.333333 85.333333v529.066667c0 46.933333 38.4 85.333333 85.333333 85.333333h661.333333c46.933333 0 85.333333-38.4 85.333334-85.333333v-341.333333c4.266667-51.2-34.133333-89.6-81.066667-89.6z" fill="#FFCF5C" p-id="4867"></path></svg>