<?xml version="1.0" standalone="no"?><!DOCTYPE svg PUBLIC "-//W3C//DTD SVG 1.1//EN" "http://www.w3.org/Graphics/SVG/1.1/DTD/svg11.dtd"><svg t="1624964488544" class="icon" viewBox="0 0 1208 1024" version="1.1" xmlns="http://www.w3.org/2000/svg" p-id="907" xmlns:xlink="http://www.w3.org/1999/xlink" width="1208" height="1024"><defs><style type="text/css"></style></defs><path d="M132.51584 120.4736h879.4368c33.26976 0 60.2368 26.96704 60.2368 60.23168v409.6c0 33.26976-26.96704 60.2368-60.2368 60.2368H132.51584c-33.26464 0-60.23168-26.96704-60.23168-60.2368v-409.6c0-33.26464 26.96704-60.2368 60.23168-60.2368z" fill="#F9B552" p-id="908"></path><path d="M469.8368 0c73.18528 0 132.51584 59.33056 132.51584 132.51584v84.3264h469.8368c73.18528 0 132.51584 59.33568 132.51584 132.52096v542.12096c0 73.18528-59.33056 132.51584-132.51584 132.51584H132.51584A132.51584 132.51584 0 0 1 0 891.48416V349.3632c0-4.03456 0.1792-8.06912 0.54272-12.04736A134.25664 134.25664 0 0 1 0 325.2736V132.51584C0 59.33056 59.33056 0 132.51584 0h337.32096z" fill="#FFCF5C" p-id="909"></path></svg>