<?xml version="1.0" standalone="no"?><!DOCTYPE svg PUBLIC "-//W3C//DTD SVG 1.1//EN" "http://www.w3.org/Graphics/SVG/1.1/DTD/svg11.dtd"><svg t="1625028315575" class="icon" viewBox="0 0 1024 1024" version="1.1" xmlns="http://www.w3.org/2000/svg" p-id="10051" xmlns:xlink="http://www.w3.org/1999/xlink" width="1024" height="1024"><defs><style type="text/css"></style></defs><path d="M256 85.333333c-46.933333 0-85.333333 38.4-85.333333 85.333334v682.666666c0 46.933333 38.4 85.333333 85.333333 85.333334h512c46.933333 0 85.333333-38.4 85.333333-85.333334V337.066667L601.6 85.333333H256z" fill="#925DF1" p-id="10052"></path><path d="M686.933333 337.066667H853.333333L601.6 85.333333v166.4c0 46.933333 38.4 85.333333 85.333333 85.333334z" fill="#FFFFFF" opacity=".4" p-id="10053"></path><path d="M541.866667 610.133333c-17.066667 0-29.866667 12.8-34.133334 29.866667h-29.866666c0-12.8-8.533333-21.333333-12.8-29.866667l17.066666-29.866666c17.066667-4.266667 29.866667-17.066667 29.866667-38.4s-17.066667-38.4-38.4-38.4-38.4 17.066667-38.4 38.4c0 17.066667 8.533333 29.866667 21.333333 34.133333l-12.8 21.333333c-4.266667 0-8.533333-4.266667-12.8-4.266666-12.8 0-21.333333 4.266667-29.866666 12.8l-29.866667-38.4c4.266667-8.533333 8.533333-12.8 8.533333-21.333334 0-21.333333-17.066667-38.4-38.4-38.4s-38.4 17.066667-38.4 38.4 17.066667 38.4 38.4 38.4c4.266667 0 8.533333 0 12.8-4.266666l34.133334 42.666666c0 8.533333-4.266667 12.8-4.266667 21.333334s4.266667 17.066667 8.533333 25.6l-34.133333 29.866666c-4.266667-4.266667-8.533333-4.266667-17.066667-4.266666-21.333333 0-38.4 17.066667-38.4 38.4s17.066667 38.4 38.4 38.4 38.4-17.066667 38.4-38.4c0-8.533333-4.266667-12.8-4.266666-21.333334l34.133333-29.866666c8.533333 4.266667 12.8 4.266667 21.333333 4.266666 4.266667 0 8.533333 0 12.8-4.266666l17.066667 25.6c-8.533333 8.533333-12.8 17.066667-12.8 29.866666 0 21.333333 17.066667 38.4 38.4 38.4s38.4-17.066667 38.4-38.4-17.066667-38.4-38.4-38.4h-4.266667l-21.333333-29.866666c4.266667-4.266667 8.533333-12.8 12.8-17.066667h29.866667c4.266667 17.066667 17.066667 25.6 34.133333 25.6 21.333333 0 38.4-17.066667 38.4-38.4s-12.8-29.866667-34.133333-29.866667z m-68.266667-85.333333c8.533333 0 17.066667 8.533333 17.066667 17.066667s-8.533333 17.066667-17.066667 17.066666-17.066667-8.533333-17.066667-17.066666 8.533333-17.066667 17.066667-17.066667z m-149.333333 17.066667c0-8.533333 8.533333-17.066667 17.066666-17.066667s17.066667 8.533333 17.066667 17.066667-4.266667 17.066667-17.066667 17.066666-17.066667-4.266667-17.066666-17.066666z m179.2 200.533333c0 8.533333-8.533333 17.066667-17.066667 17.066667s-17.066667-8.533333-17.066667-17.066667 8.533333-17.066667 17.066667-17.066667 17.066667 8.533333 17.066667 17.066667z m-162.133334 8.533333c-8.533333 0-17.066667-8.533333-17.066666-17.066666s8.533333-17.066667 17.066666-17.066667 17.066667 8.533333 17.066667 17.066667-4.266667 17.066667-17.066667 17.066666z m64-106.666666c0-12.8 12.8-25.6 25.6-25.6s25.6 12.8 25.6 25.6-12.8 25.6-25.6 25.6-25.6-12.8-25.6-25.6z m136.533334 21.333333c-8.533333 0-17.066667-8.533333-17.066667-17.066667s8.533333-17.066667 17.066667-17.066666 17.066667 8.533333 17.066666 17.066666-4.266667 17.066667-17.066666 17.066667z" fill="#FFFFFF" p-id="10054"></path></svg>