<?xml version="1.0" standalone="no"?><!DOCTYPE svg PUBLIC "-//W3C//DTD SVG 1.1//EN" "http://www.w3.org/Graphics/SVG/1.1/DTD/svg11.dtd"><svg t="1625028321516" class="icon" viewBox="0 0 1024 1024" version="1.1" xmlns="http://www.w3.org/2000/svg" p-id="10195" xmlns:xlink="http://www.w3.org/1999/xlink"><defs><style type="text/css"></style></defs><path d="M256 85.333333c-46.933333 0-85.333333 38.4-85.333333 85.333334v682.666666c0 46.933333 38.4 85.333333 85.333333 85.333334h512c46.933333 0 85.333333-38.4 85.333333-85.333334V337.066667L601.6 85.333333H256z" fill="#989FA5" p-id="10196"></path><path d="M686.933333 337.066667H853.333333L601.6 85.333333v166.4c0 46.933333 38.4 85.333333 85.333333 85.333334z" fill="#FFFFFF" opacity=".4" p-id="10197"></path><path d="M486.4 780.8h-170.666667c-4.266667 0-8.533333-4.266667-8.533333-8.533333s4.266667-8.533333 8.533333-8.533334h170.666667c4.266667 0 8.533333 4.266667 8.533333 8.533334s-4.266667 8.533333-8.533333 8.533333zM571.733333 695.466667h-256c-4.266667 0-8.533333-4.266667-8.533333-8.533334s4.266667-8.533333 8.533333-8.533333h256c4.266667 0 8.533333 4.266667 8.533334 8.533333s-4.266667 8.533333-8.533334 8.533334zM571.733333 610.133333h-256c-4.266667 0-8.533333-4.266667-8.533333-8.533333s4.266667-8.533333 8.533333-8.533333h256c4.266667 0 8.533333 4.266667 8.533334 8.533333s-4.266667 8.533333-8.533334 8.533333zM571.733333 524.8h-256c-4.266667 0-8.533333-4.266667-8.533333-8.533333s4.266667-8.533333 8.533333-8.533334h256c4.266667 0 8.533333 4.266667 8.533334 8.533334s-4.266667 8.533333-8.533334 8.533333z" fill="#FFFFFF" p-id="10198"></path></svg>
