<?xml version="1.0" standalone="no"?><!DOCTYPE svg PUBLIC "-//W3C//DTD SVG 1.1//EN" "http://www.w3.org/Graphics/SVG/1.1/DTD/svg11.dtd"><svg t="1639131674043" class="icon" viewBox="0 0 1024 1024" version="1.1" xmlns="http://www.w3.org/2000/svg" p-id="11971" xmlns:xlink="http://www.w3.org/1999/xlink"><defs><style type="text/css"></style></defs><path d="M256 85.333333c-46.933333 0-85.333333 38.4-85.333333 85.333334v682.666666c0 46.933333 38.4 85.333333 85.333333 85.333334h512c46.933333 0 85.333333-38.4 85.333333-85.333334V337.066667L601.6 85.333333H256z" fill="#EA4845" p-id="11972"></path><path d="M686.933333 337.066667H853.333333L601.6 85.333333v166.4c0 46.933333 38.4 85.333333 85.333333 85.333334z" fill="#FFFFFF" opacity=".4" p-id="11973"></path><path d="M554.666667 657.066667c-21.333333 0-42.666667 4.266667-68.266667 8.533333-12.8-8.533333-21.333333-21.333333-34.133333-29.866667l-17.066667-17.066666c12.8-42.666667 12.8-72.533333 12.8-85.333334 0-4.266667 0-8.533333-4.266667-12.8-4.266667-12.8-17.066667-21.333333-29.866666-21.333333-12.8 0-21.333333 4.266667-29.866667 17.066667 0-4.266667-4.266667 4.266667-4.266667 8.533333 0 25.6 12.8 59.733333 34.133334 89.6l-12.8 38.4c-4.266667 12.8-12.8 25.6-17.066667 38.4-21.333333 8.533333-42.666667 17.066667-64 29.866667-4.266667 0-4.266667 4.266667-8.533333 4.266666-4.266667 4.266667-8.533333 12.8-8.533334 21.333334 0 17.066667 12.8 29.866667 29.866667 29.866666 8.533333 0 12.8-4.266667 21.333333-8.533333l4.266667-4.266667c17.066667-17.066667 29.866667-38.4 38.4-59.733333 12.8-4.266667 21.333333-8.533333 34.133333-12.8 17.066667-4.266667 34.133333-8.533333 46.933334-12.8 25.6 17.066667 51.2 29.866667 68.266666 29.866667 17.066667 0 29.866667-12.8 29.866667-29.866667 4.266667-8.533333-4.266667-21.333333-21.333333-21.333333z m-38.4 21.333333c12.8 0 25.6-4.266667 38.4-4.266667 4.266667 0 8.533333 4.266667 8.533333 8.533334s-4.266667 8.533333-8.533333 8.533333c-12.8 0-25.6-4.266667-38.4-12.8z m-110.933334-157.866667c4.266667-8.533333 17.066667-8.533333 21.333334 0v4.266667c0 17.066667 0 38.4-8.533334 64-12.8-21.333333-21.333333-46.933333-21.333333-64 4.266667 0 4.266667-4.266667 8.533333-4.266667zM341.333333 759.466667c-4.266667 4.266667-12.8 0-12.8-8.533334 0-4.266667 0-4.266667 4.266667-8.533333l4.266667-4.266667c8.533333-4.266667 21.333333-12.8 34.133333-17.066666-12.8 12.8-21.333333 25.6-29.866667 38.4z m85.333334-81.066667c-4.266667 0-12.8 4.266667-17.066667 4.266667 4.266667-8.533333 8.533333-12.8 8.533333-21.333334 4.266667-8.533333 4.266667-17.066667 8.533334-25.6l8.533333 8.533334 21.333333 21.333333c-4.266667 4.266667-17.066667 8.533333-29.866666 12.8z" fill="#FFFFFF" p-id="11974"></path></svg>
