<?xml version="1.0" standalone="no"?><!DOCTYPE svg PUBLIC "-//W3C//DTD SVG 1.1//EN" "http://www.w3.org/Graphics/SVG/1.1/DTD/svg11.dtd"><svg t="1639131622718" class="icon" viewBox="0 0 1024 1024" version="1.1" xmlns="http://www.w3.org/2000/svg" p-id="11457" xmlns:xlink="http://www.w3.org/1999/xlink"><defs><style type="text/css"></style></defs><path d="M256 85.333333c-46.933333 0-85.333333 38.4-85.333333 85.333334v682.666666c0 46.933333 38.4 85.333333 85.333333 85.333334h512c46.933333 0 85.333333-38.4 85.333333-85.333334V337.066667L601.6 85.333333H256z" fill="#53CBAE" p-id="11458"></path><path d="M686.933333 337.066667H853.333333L601.6 85.333333v166.4c0 46.933333 38.4 85.333333 85.333333 85.333334z" fill="#FFFFFF" opacity=".4" p-id="11459"></path><path d="M550.4 503.466667h-213.333333c-17.066667 0-34.133333 12.8-34.133334 34.133333v213.333333c0 17.066667 12.8 34.133333 34.133334 34.133334h213.333333c17.066667 0 34.133333-12.8 34.133333-34.133334v-213.333333c-4.266667-17.066667-17.066667-34.133333-34.133333-34.133333z m-68.266667 68.266666c17.066667 0 29.866667 12.8 29.866667 29.866667s-12.8 29.866667-29.866667 29.866667-29.866667-12.8-29.866666-29.866667 12.8-29.866667 29.866666-29.866667z m76.8 179.2c0 4.266667-4.266667 8.533333-8.533333 8.533334h-213.333333c-4.266667 0-8.533333-4.266667-8.533334-8.533334V725.333333L384 665.6c12.8-12.8 29.866667-12.8 38.4 0l59.733333 59.733333 21.333334-21.333333c12.8-12.8 29.866667-12.8 38.4 0l21.333333 21.333333v25.6z" fill="#FFFFFF" p-id="11460"></path></svg>
