<?xml version="1.0" standalone="no"?><!DOCTYPE svg PUBLIC "-//W3C//DTD SVG 1.1//EN" "http://www.w3.org/Graphics/SVG/1.1/DTD/svg11.dtd"><svg t="1625904723976" class="icon" viewBox="0 0 1024 1024" version="1.1" xmlns="http://www.w3.org/2000/svg" p-id="5142" xmlns:xlink="http://www.w3.org/1999/xlink"><defs><style type="text/css"></style></defs><path d="M208.50324948 98.14070655a39.70462592 39.70462592 0 0 0-28.9701507 12.41577865C171.94621747 118.83367123 167.11812845 129.18015316 167.11812845 139.52663591v744.94672818a39.70462592 39.70462592 0 0 0 12.41577864 28.97015071 40.85728849 40.85728849 0 0 0 28.97015071 12.41577865h606.99255288a39.70462592 39.70462592 0 0 0 28.97014989-12.41577865 40.85809681 40.85809681 0 0 0 12.41577946-28.97015071V332.661512L622.36254291 98.14070655z" fill="#EB734C" p-id="5143"></path><path d="M856.88254003 332.66070368H663.74847227a42.43108545 42.43108545 0 0 1-41.38592936-41.38592935V98.14070655z" fill="#FCB7A0" p-id="5144"></path><path d="M374.04696685 390.75215998h158.92196856c91.27294918 0 136.90901921 38.65704486 136.90901919 116.5070495 0 78.38753699-46.17360239 117.58049677-137.98004153 117.58049678H432.56844906v149.25851564h-58.52229052V390.75215998z m58.52229052 49.93147741v134.22459147h95.56754742c28.99278365 0 49.93147739-5.36885465 63.35442113-16.10737066 12.88541218-10.73770849 19.86524647-27.91852724 19.86524649-51.54245704s-6.97983429-40.80393942-20.40196971-50.46820064q-20.13360768-16.10656316-62.81688959-16.10737146H432.56925737z" fill="#FFFFFF" p-id="5145"></path></svg>