<?xml version="1.0" standalone="no"?><!DOCTYPE svg PUBLIC "-//W3C//DTD SVG 1.1//EN" "http://www.w3.org/Graphics/SVG/1.1/DTD/svg11.dtd"><svg t="1625028309807" class="icon" viewBox="0 0 1024 1024" version="1.1" xmlns="http://www.w3.org/2000/svg" p-id="9907" xmlns:xlink="http://www.w3.org/1999/xlink"><defs><style type="text/css"></style></defs><path d="M256 85.333333c-46.933333 0-85.333333 38.4-85.333333 85.333334v682.666666c0 46.933333 38.4 85.333333 85.333333 85.333334h512c46.933333 0 85.333333-38.4 85.333333-85.333334V337.066667L601.6 85.333333H256z" fill="#009F4E" p-id="9908"></path><path d="M686.933333 337.066667H853.333333L601.6 85.333333v166.4c0 46.933333 38.4 85.333333 85.333333 85.333334z" fill="#FFFFFF" opacity=".4" p-id="9909"></path><path d="M550.4 503.466667h-213.333333c-17.066667 0-34.133333 12.8-34.133334 34.133333v213.333333c0 17.066667 12.8 34.133333 34.133334 34.133334h213.333333c17.066667 0 34.133333-12.8 34.133333-34.133334v-213.333333c-4.266667-21.333333-17.066667-34.133333-34.133333-34.133333z m-140.8 170.666666v-64h64v64H409.6z m64 21.333334v64H409.6v-64h64z m-149.333333-85.333334h64v64H324.266667v-64z m170.666666 0h64v64h-64v-64z m-157.866666-85.333333h213.333333c4.266667 0 8.533333 4.266667 8.533333 8.533333v51.2H324.266667v-51.2c0-4.266667 8.533333-8.533333 12.8-8.533333z m-12.8 226.133333v-51.2h64v64H337.066667c-4.266667-4.266667-12.8-8.533333-12.8-12.8z m226.133333 8.533334h-51.2v-64h64v51.2c-4.266667 8.533333-8.533333 12.8-12.8 12.8z" fill="#FFFFFF" p-id="9910"></path></svg>