<?xml version="1.0" standalone="no"?><!DOCTYPE svg PUBLIC "-//W3C//DTD SVG 1.1//EN" "http://www.w3.org/Graphics/SVG/1.1/DTD/svg11.dtd"><svg t="1639159873742" class="icon" viewBox="0 0 1024 1024" version="1.1" xmlns="http://www.w3.org/2000/svg" p-id="6397" xmlns:xlink="http://www.w3.org/1999/xlink"><defs><style type="text/css"></style></defs><path d="M825.79673853 930.64640269c6.95018441 0 13.65506865-2.78007339 18.56108018-7.68608673s7.68608673-11.61089669 7.68608674-18.56108017V281.66271181c0-6.2142821-2.20770606-12.18326401-6.21428302-16.9257433L708.70657208 102.67502091c-4.98777944-5.8872149-12.34679808-9.32142361-20.03288389-9.3214236h-490.43771991c-6.95018441 0-13.65506865 2.78007339-18.56108018 7.68608673s-7.68608673 11.61089669-7.68608674 18.56108017v784.79847158c0 6.95018441 2.78007339 13.65506865 7.68608674 18.56108016s11.61089669 7.68608673 18.56108018 7.68608674h627.56077025z" fill="#72A9FE" p-id="6398"></path><path d="M852.04390546 284.60631927v-2.94360746c0-6.2142821-2.20770606-12.18326401-6.21428301-16.9257433L708.70657208 102.67502091c-4.98777944-5.8872149-12.34679808-9.32142361-20.03288389-9.3214236h-1.22650357v191.25272196h164.59672084z" p-id="6399"></path><path d="M585.40212443 355.98880136c0-19.62404967 15.86277379-35.4868244 35.48682348-35.48682348s35.4868244 15.86277379 35.48682439 35.48682348-15.86277379 35.4868244-35.48682439 35.4868244-35.4868244-15.86277379-35.48682348-35.4868244z m-277.43500924 285.69346335h408.18024254l-111.20295066-147.26214331c-4.66071225-6.13251599-11.85619683-9.73025782-19.54228264-9.73025781-7.68608673 0-14.96333834 3.59774274-19.54228356 9.73025781l-43.33644428 57.48211418-62.06105849-118.80727037c-4.2518771-8.09492095-12.59209916-13.1644665-21.74998872-13.16446741-9.15789046 0-17.49811157 5.06954647-21.74998868 13.16446741l-108.99524551 208.5872995z" fill="#FFFFFF" p-id="6400"></path><path d="M428.67955406 802.4195883v-32.54321602h-10.38439314v-14.30920305l11.28382859-0.98120248 2.20770603-19.6240506h16.189841v19.6240506h18.15224595v15.20863848h-18.15224595v32.54321604c0 8.42198813 3.43420869 12.34679808 9.9755589 12.34679899 2.37123917 0 5.23307963-0.81766842 7.19548459-1.55357073l3.18890852 14.06390196c-3.92480994 1.30826968-9.07612344 2.78007339-15.5357066 2.78007431-17.41634454 0-24.12122789-10.95676137-24.12122789-27.5554375zM479.21148289 732.26360886c0-6.29604912 4.82424539-10.46616012 11.52912967-10.46615921 6.5413502 0 11.44736262 4.17011101 11.4473626 10.46615921 0 6.05074895-4.82424539 10.54792717-11.4473626 10.54792717-6.70488334 0-11.52912966-4.49717821-11.52912967-10.54792717z m1.88063795 22.32235789h19.21521639v73.5901872h-19.21521639v-73.5901872zM606.11367329 738.31435781c-2.61654027-0.89943546-5.39661367-1.55357074-7.84961989-1.55357073-5.80544788 0-8.9125894 3.43420869-8.9125894 11.52912962v6.29605005h13.90036886v15.20863849h-13.90036886v58.38154871h-19.21521544v-58.29978167h-26.49246799v58.29978167H524.26503104v-58.29978167h-9.81202484v-14.30920306l9.81202484-0.81766934v-5.15131259c0-15.1268724 7.76785283-26.65600112 26.41070097-26.65600204 5.8872149 0 11.28382856 1.30826968 14.88157131 2.78007433l-3.51597571 14.30920303c-2.61654027-1.14473655-5.15131351-1.79887091-8.91258937-1.79887183-5.64191475 0-9.48495764 3.84304291-9.48495767 11.44736264v4.90601333h26.49246799v-5.88721583c0-15.37217258 7.11371848-27.14660236 25.51126551-27.14660236 5.80544788 0 10.79322732 1.30826968 14.06390195 2.61654025l-3.59774273 14.145669z" fill="#FFFFFF" p-id="6401"></path></svg>
