<svg t="1625965307816" class="icon" viewBox="0 0 1024 1024" version="1.1" xmlns="http://www.w3.org/2000/svg" p-id="5186"><path d="M157.55422847 260.93639894h708.89154306c32.51369263 0 59.08291044 26.56921781 59.08291046 59.08291044v472.61159243c0 32.46200152-26.56921781 59.03121935-59.08291046 59.03121935H157.55422847A59.23798371 59.23798371 0 0 1 98.47131801 792.68259288V260.93639894h59.08291046z" fill="#F7D154" p-id="5187"></path><path d="M497.21634964 260.93639894S494.26995777 172.33787884 408.61782952 172.33787884H187.06983813C101.41770988 172.33787884 98.47131801 260.93639894 98.47131801 260.93639894h398.74503163z" fill="#ECC049" p-id="5188"></path><path d="M169.56948774 333.95339175h684.86102452c8.19762251 0 13.71064349 5.46508168 13.71064347 13.66270422v13.71064348H155.81090492v-13.71064348c0-8.19762251 5.513021-13.66270419 13.71064349-13.66270422zM389.32329822 612.04934607h66.25213048v80.53804575c0 19.84687555 16.10760914 35.90654541 35.90654538 35.90654538h41.22780912a35.90654541 35.90654541 0 0 0 35.85860606-35.85860608v-80.58598505h66.06037321a21.18917632 21.18917632 0 0 0 15.81997329-35.28333431l0.14381793-0.14381793-123.20403425-123.20403422-0.04793929 0.04793928a21.14123699 21.14123699 0 0 0-31.40025001 1.43817942l-118.41010291 118.41010292a21.23711564 21.23711564 0 0 0 11.79307099 38.73496484z" fill="#FFFFFF" p-id="5189"></path></svg>
