<svg t="1626148886435" class="icon" viewBox="0 0 1024 1024" version="1.1" xmlns="http://www.w3.org/2000/svg" p-id="10512"><path d="M256 85.333333c-46.933333 0-85.333333 38.4-85.333333 85.333334v682.666666c0 46.933333 38.4 85.333333 85.333333 85.333334h512c46.933333 0 85.333333-38.4 85.333333-85.333334V337.066667L601.6 85.333333H256z" fill="#41A5EE" p-id="10513"></path><path d="M686.933333 337.066667H853.333333L601.6 85.333333v166.4c0 46.933333 38.4 85.333333 85.333333 85.333334z" fill="#FFFFFF" opacity=".4" p-id="10514"></path><path d="M362.666667 759.466667L298.666667 524.8h38.4l34.133333 132.266667 12.8 55.466666c0-4.266667 4.266667-17.066667 12.8-46.933333l34.133333-136.533333h38.4l29.866667 136.533333 8.533333 42.666667 12.8-46.933334 34.133334-132.266666h34.133333l-64 230.4h-38.4l-34.133333-140.8-8.533334-38.4-42.666666 179.2h-38.4z" fill="#FFFFFF" p-id="10515"></path></svg>