<svg width="477" height="240" viewBox="0 0 477 240" fill="none" xmlns="http://www.w3.org/2000/svg">
<path d="M497.766 238.379C494.331 238.379 491.037 237.357 488.609 235.539C486.18 233.721 484.816 231.254 484.816 228.683V168.083C484.816 165.511 486.18 163.045 488.609 161.227C491.037 159.408 494.331 158.387 497.766 158.387H518V76.6132H497.766C494.331 76.6132 491.037 75.5916 488.609 73.7733C486.18 71.9549 484.816 69.4887 484.816 66.9172V6.31718C484.816 3.74564 486.18 1.27943 488.609 -0.538925C491.037 -2.35728 494.331 -3.37882 497.766 -3.37882H518V-34H484.816V-13.0748C484.816 -10.5033 483.451 -8.03707 481.023 -6.21871C478.594 -4.40036 475.3 -3.37882 471.866 -3.37882H390.928C387.494 -3.37882 384.2 -4.40036 381.771 -6.21871C379.342 -8.03707 377.978 -10.5033 377.978 -13.0748V-34H271.141V-13.0748C271.141 -10.5033 269.776 -8.03707 267.348 -6.21871C264.919 -4.40036 261.625 -3.37882 258.191 -3.37882H177.253C173.819 -3.37882 170.525 -4.40036 168.096 -6.21871C165.667 -8.03707 164.303 -10.5033 164.303 -13.0748V-34H57.4656V-13.0748C57.4656 -10.5033 56.1012 -8.03707 53.6727 -6.21871C51.2441 -4.40036 47.9502 -3.37882 44.5156 -3.37882H0V77.504H44.5156C47.9502 77.504 51.2441 78.5255 53.6727 80.3439C56.1012 82.1622 57.4656 84.6285 57.4656 87.2V147.8C57.4656 150.372 56.1012 152.838 53.6727 154.656C51.2441 156.474 47.9502 157.496 44.5156 157.496H0V238.664H44.5156C47.9502 238.664 51.2441 239.685 53.6727 241.504C56.1012 243.322 57.4656 245.788 57.4656 248.36V269H164.303V248.36C164.303 245.788 165.667 243.322 168.096 241.504C170.525 239.685 173.819 238.664 177.253 238.664H258.191C261.625 238.664 264.919 239.685 267.348 241.504C269.776 243.322 271.141 245.788 271.141 248.36V269H377.978V248.36C377.978 245.788 379.342 243.322 381.771 241.504C384.2 239.685 387.494 238.664 390.928 238.664H471.866C475.3 238.664 478.594 239.685 481.023 241.504C483.451 243.322 484.816 245.788 484.816 248.36V269H518V238.379H497.766ZM271.141 6.31718C271.141 3.74564 272.505 1.27943 274.934 -0.538925C277.362 -2.35728 280.656 -3.37882 284.091 -3.37882H365.028C368.463 -3.37882 371.757 -2.35728 374.185 -0.538925C376.614 1.27943 377.978 3.74564 377.978 6.31718V66.9172C377.978 69.4887 376.614 71.9549 374.185 73.7733C371.757 75.5916 368.463 76.6132 365.028 76.6132H284.091C280.656 76.6132 277.362 75.5916 274.934 73.7733C272.505 71.9549 271.141 69.4887 271.141 66.9172V6.31718ZM57.4656 6.31718C57.4656 3.74564 58.83 1.27943 61.2586 -0.538925C63.6872 -2.35728 66.9811 -3.37882 70.4156 -3.37882H151.353C154.788 -3.37882 158.082 -2.35728 160.51 -0.538925C162.939 1.27943 164.303 3.74564 164.303 6.31718V66.9172C164.303 69.4887 162.939 71.9549 160.51 73.7733C158.082 75.5916 154.788 76.6132 151.353 76.6132H70.4156C66.9811 76.6132 63.6872 75.5916 61.2586 73.7733C58.83 71.9549 57.4656 69.4887 57.4656 66.9172V6.31718ZM164.303 228.683C164.303 231.254 162.939 233.721 160.51 235.539C158.082 237.357 154.788 238.379 151.353 238.379H70.4156C66.9811 238.379 63.6872 237.357 61.2586 235.539C58.83 233.721 57.4656 231.254 57.4656 228.683V168.083C57.4656 165.511 58.83 163.045 61.2586 161.227C63.6872 159.408 66.9811 158.387 70.4156 158.387H151.353C154.788 158.387 158.082 159.408 160.51 161.227C162.939 163.045 164.303 165.511 164.303 168.083V228.683ZM258.191 157.496H177.253C173.819 157.496 170.525 156.474 168.096 154.656C165.667 152.838 164.303 150.372 164.303 147.8V87.2C164.303 84.6285 165.667 82.1622 168.096 80.3439C170.525 78.5255 173.819 77.504 177.253 77.504H258.191C261.625 77.504 264.919 78.5255 267.348 80.3439C269.776 82.1622 271.141 84.6285 271.141 87.2V147.8C271.141 150.372 269.776 152.838 267.348 154.656C264.919 156.474 261.625 157.496 258.191 157.496ZM377.978 228.683C377.978 231.254 376.614 233.721 374.185 235.539C371.757 237.357 368.463 238.379 365.028 238.379H284.091C280.656 238.379 277.362 237.357 274.934 235.539C272.505 233.721 271.141 231.254 271.141 228.683V168.083C271.141 165.511 272.505 163.045 274.934 161.227C277.362 159.408 280.656 158.387 284.091 158.387H365.028C368.463 158.387 371.757 159.408 374.185 161.227C376.614 163.045 377.978 165.511 377.978 168.083V228.683ZM471.866 157.496H390.928C387.494 157.496 384.2 156.474 381.771 154.656C379.342 152.838 377.978 150.372 377.978 147.8V87.2C377.978 84.6285 379.342 82.1622 381.771 80.3439C384.2 78.5255 387.494 77.504 390.928 77.504H471.866C475.3 77.504 478.594 78.5255 481.023 80.3439C483.451 82.1622 484.816 84.6285 484.816 87.2V147.8C484.816 150.372 483.451 152.838 481.023 154.656C478.594 156.474 475.3 157.496 471.866 157.496Z" fill="url(#paint0_linear_131_5843)"/>
<defs>
<linearGradient id="paint0_linear_131_5843" x1="467.936" y1="117" x2="26.0335" y2="117" gradientUnits="userSpaceOnUse">
<stop stop-color="white" stop-opacity="0.15"/>
<stop offset="1" stop-color="white" stop-opacity="0"/>
</linearGradient>
</defs>
</svg>
