<svg width="413" height="240" viewBox="0 0 413 240" fill="none" xmlns="http://www.w3.org/2000/svg">
<path d="M438.844 238.379C436.271 238.379 433.804 237.357 431.985 235.539C430.166 233.721 429.144 231.254 429.144 228.683V168.083C429.144 165.511 430.166 163.045 431.985 161.227C433.804 159.408 436.271 158.387 438.844 158.387H454V76.6132H438.844C436.271 76.6132 433.804 75.5916 431.985 73.7733C430.166 71.9549 429.144 69.4887 429.144 66.9172V6.31718C429.144 3.74564 430.166 1.27943 431.985 -0.538925C433.804 -2.35728 436.271 -3.37882 438.844 -3.37882H454V-34H429.144V-13.0748C429.144 -10.5033 428.122 -8.03707 426.303 -6.21871C424.484 -4.40036 422.016 -3.37882 419.444 -3.37882H358.819C356.246 -3.37882 353.779 -4.40036 351.96 -6.21871C350.141 -8.03707 349.119 -10.5033 349.119 -13.0748V-34H269.094V-13.0748C269.094 -10.5033 268.072 -8.03707 266.253 -6.21871C264.434 -4.40036 261.966 -3.37882 259.394 -3.37882H198.769C196.196 -3.37882 193.729 -4.40036 191.91 -6.21871C190.091 -8.03707 189.069 -10.5033 189.069 -13.0748V-34H109.044V-13.0748C109.044 -10.5033 108.022 -8.03707 106.203 -6.21871C104.384 -4.40036 101.916 -3.37882 99.3438 -3.37882H66V77.504H99.3438C101.916 77.504 104.384 78.5255 106.203 80.3439C108.022 82.1622 109.044 84.6285 109.044 87.2V147.8C109.044 150.372 108.022 152.838 106.203 154.656C104.384 156.474 101.916 157.496 99.3438 157.496H66V238.664H99.3438C101.916 238.664 104.384 239.685 106.203 241.504C108.022 243.322 109.044 245.788 109.044 248.36V269H189.069V248.36C189.069 245.788 190.091 243.322 191.91 241.504C193.729 239.685 196.196 238.664 198.769 238.664H259.394C261.966 238.664 264.434 239.685 266.253 241.504C268.072 243.322 269.094 245.788 269.094 248.36V269H349.119V248.36C349.119 245.788 350.141 243.322 351.96 241.504C353.779 239.685 356.246 238.664 358.819 238.664H419.444C422.016 238.664 424.484 239.685 426.303 241.504C428.122 243.322 429.144 245.788 429.144 248.36V269H454V238.379H438.844ZM269.094 6.31718C269.094 3.74564 270.116 1.27943 271.935 -0.538925C273.754 -2.35728 276.221 -3.37882 278.794 -3.37882H339.419C341.991 -3.37882 344.459 -2.35728 346.278 -0.538925C348.097 1.27943 349.119 3.74564 349.119 6.31718V66.9172C349.119 69.4887 348.097 71.9549 346.278 73.7733C344.459 75.5916 341.991 76.6132 339.419 76.6132H278.794C276.221 76.6132 273.754 75.5916 271.935 73.7733C270.116 71.9549 269.094 69.4887 269.094 66.9172V6.31718ZM109.044 6.31718C109.044 3.74564 110.066 1.27943 111.885 -0.538925C113.704 -2.35728 116.171 -3.37882 118.744 -3.37882H179.369C181.941 -3.37882 184.409 -2.35728 186.228 -0.538925C188.047 1.27943 189.069 3.74564 189.069 6.31718V66.9172C189.069 69.4887 188.047 71.9549 186.228 73.7733C184.409 75.5916 181.941 76.6132 179.369 76.6132H118.744C116.171 76.6132 113.704 75.5916 111.885 73.7733C110.066 71.9549 109.044 69.4887 109.044 66.9172V6.31718ZM189.069 228.683C189.069 231.254 188.047 233.721 186.228 235.539C184.409 237.357 181.941 238.379 179.369 238.379H118.744C116.171 238.379 113.704 237.357 111.885 235.539C110.066 233.721 109.044 231.254 109.044 228.683V168.083C109.044 165.511 110.066 163.045 111.885 161.227C113.704 159.408 116.171 158.387 118.744 158.387H179.369C181.941 158.387 184.409 159.408 186.228 161.227C188.047 163.045 189.069 165.511 189.069 168.083V228.683ZM259.394 157.496H198.769C196.196 157.496 193.729 156.474 191.91 154.656C190.091 152.838 189.069 150.372 189.069 147.8V87.2C189.069 84.6285 190.091 82.1622 191.91 80.3439C193.729 78.5255 196.196 77.504 198.769 77.504H259.394C261.966 77.504 264.434 78.5255 266.253 80.3439C268.072 82.1622 269.094 84.6285 269.094 87.2V147.8C269.094 150.372 268.072 152.838 266.253 154.656C264.434 156.474 261.966 157.496 259.394 157.496ZM349.119 228.683C349.119 231.254 348.097 233.721 346.278 235.539C344.459 237.357 341.991 238.379 339.419 238.379H278.794C276.221 238.379 273.754 237.357 271.935 235.539C270.116 233.721 269.094 231.254 269.094 228.683V168.083C269.094 165.511 270.116 163.045 271.935 161.227C273.754 159.408 276.221 158.387 278.794 158.387H339.419C341.991 158.387 344.459 159.408 346.278 161.227C348.097 163.045 349.119 165.511 349.119 168.083V228.683ZM419.444 157.496H358.819C356.246 157.496 353.779 156.474 351.96 154.656C350.141 152.838 349.119 150.372 349.119 147.8V87.2C349.119 84.6285 350.141 82.1622 351.96 80.3439C353.779 78.5255 356.246 77.504 358.819 77.504H419.444C422.016 77.504 424.484 78.5255 426.303 80.3439C428.122 82.1622 429.144 84.6285 429.144 87.2V147.8C429.144 150.372 428.122 152.838 426.303 154.656C424.484 156.474 422.016 157.496 419.444 157.496Z" fill="url(#paint0_linear_131_5843)"/>
<path d="M347 197V53C347 44.1634 339.837 37 331 37H43C34.1634 37 27 44.1634 27 53V197" stroke="white" stroke-dasharray="6 6"/>
<rect x="1" y="90" width="54" height="54" rx="7" fill="#58A738" stroke="white" stroke-width="2"/>
<rect x="77" y="90" width="138" height="54" rx="27" fill="#58A738" stroke="white" stroke-width="2"/>
<rect x="237" y="90" width="138" height="54" rx="27" fill="#2E3533" stroke="#888C8A" stroke-width="2"/>
<defs>
<linearGradient id="paint0_linear_131_5843" x1="416.5" y1="117" x2="85.5" y2="117" gradientUnits="userSpaceOnUse">
<stop stop-color="white" stop-opacity="0.15"/>
<stop offset="1" stop-color="white" stop-opacity="0"/>
</linearGradient>
</defs>
</svg>
