<svg width="364" height="430" viewBox="0 0 364 430" fill="none" xmlns="http://www.w3.org/2000/svg">
<g clip-path="url(#clip0_117_3310)">
<rect width="364" height="430" rx="20" fill="#222827"/>
<rect x="20" y="38" width="353" height="402" rx="10" fill="#2A312E"/>
<rect x="38" y="56" width="326" height="374" fill="#252B2A"/>
<path d="M139.68 205.668H353.345" stroke="#373C31" stroke-width="2" stroke-dasharray="12 12"/>
<path d="M139.68 270.657H353.345" stroke="#373C31" stroke-width="2" stroke-dasharray="12 12"/>
<path d="M139.68 335.646H353.345" stroke="#373C31" stroke-width="2" stroke-dasharray="12 12"/>
<rect x="94.5" y="140.5" width="269" height="260" rx="8.5" stroke="#373C31"/>
<rect x="271" y="161" width="18" height="177" rx="9" transform="rotate(90 271 161)" fill="#B54F4D"/>
<rect x="218.656" y="219.584" width="18.2707" height="124.657" rx="9.13534" transform="rotate(90 218.656 219.584)" fill="#2E65C9"/>
<rect x="329" y="295" width="18" height="235" rx="9" transform="rotate(90 329 295)" fill="#58A738"/>
<rect x="163" y="360" width="18" height="69" rx="9" transform="rotate(90 163 360)" fill="#58A738"/>
<path opacity="0.8" d="M114.009 108.545V126H110.318V112.048H110.216L106.219 114.554V111.281L110.54 108.545H114.009ZM118.157 126V123.341L124.37 117.588C124.898 117.077 125.342 116.616 125.7 116.207C126.063 115.798 126.339 115.398 126.526 115.006C126.714 114.608 126.808 114.179 126.808 113.719C126.808 113.207 126.691 112.767 126.458 112.398C126.225 112.023 125.907 111.736 125.504 111.537C125.1 111.332 124.643 111.23 124.131 111.23C123.597 111.23 123.131 111.338 122.734 111.554C122.336 111.77 122.029 112.08 121.813 112.483C121.597 112.886 121.489 113.366 121.489 113.923H117.987C117.987 112.781 118.245 111.79 118.762 110.949C119.279 110.108 120.004 109.457 120.935 108.997C121.867 108.537 122.941 108.307 124.157 108.307C125.407 108.307 126.495 108.528 127.421 108.972C128.353 109.409 129.077 110.017 129.594 110.795C130.112 111.574 130.37 112.466 130.37 113.472C130.37 114.131 130.239 114.781 129.978 115.423C129.722 116.065 129.265 116.778 128.606 117.562C127.947 118.341 127.018 119.276 125.819 120.366L123.271 122.864V122.983H130.6V126H118.157Z" fill="white"/>
<path opacity="0.8" d="M202.009 108.545V126H198.318V112.048H198.216L194.219 114.554V111.281L198.54 108.545H202.009ZM212.609 126.239C211.336 126.239 210.202 126.02 209.208 125.582C208.219 125.139 207.438 124.531 206.864 123.759C206.296 122.98 206.004 122.082 205.987 121.065H209.702C209.725 121.491 209.864 121.866 210.12 122.19C210.381 122.509 210.728 122.756 211.16 122.932C211.592 123.108 212.077 123.196 212.617 123.196C213.18 123.196 213.677 123.097 214.109 122.898C214.54 122.699 214.879 122.423 215.123 122.071C215.367 121.719 215.489 121.312 215.489 120.852C215.489 120.386 215.359 119.974 215.097 119.616C214.842 119.253 214.472 118.969 213.989 118.764C213.512 118.56 212.944 118.457 212.285 118.457H210.657V115.747H212.285C212.842 115.747 213.333 115.651 213.759 115.457C214.191 115.264 214.526 114.997 214.765 114.656C215.004 114.31 215.123 113.906 215.123 113.446C215.123 113.009 215.018 112.625 214.808 112.295C214.603 111.96 214.313 111.699 213.938 111.511C213.569 111.324 213.137 111.23 212.643 111.23C212.143 111.23 211.685 111.321 211.271 111.503C210.856 111.679 210.523 111.932 210.273 112.261C210.023 112.591 209.89 112.977 209.873 113.42H206.336C206.353 112.415 206.64 111.528 207.197 110.761C207.754 109.994 208.504 109.395 209.447 108.963C210.396 108.526 211.467 108.307 212.66 108.307C213.864 108.307 214.918 108.526 215.822 108.963C216.725 109.401 217.427 109.991 217.927 110.736C218.433 111.474 218.683 112.304 218.677 113.224C218.683 114.202 218.379 115.017 217.765 115.67C217.157 116.324 216.364 116.739 215.387 116.915V117.051C216.671 117.216 217.648 117.662 218.319 118.389C218.995 119.111 219.33 120.014 219.325 121.099C219.33 122.094 219.043 122.977 218.464 123.75C217.89 124.523 217.097 125.131 216.086 125.574C215.075 126.017 213.915 126.239 212.609 126.239Z" fill="white"/>
<path opacity="0.8" d="M302.009 108.545V126H298.318V112.048H298.216L294.219 114.554V111.281L298.54 108.545H302.009ZM305.893 122.932V120.026L313.18 108.545H315.685V112.568H314.202L309.609 119.838V119.974H319.964V122.932H305.893ZM314.271 126V122.045L314.339 120.759V108.545H317.799V126H314.271Z" fill="white"/>
<path d="M304.626 50.0405L296.48 72.4085L270.366 24.2194L323.234 38.5224L304.626 50.0405Z" fill="#58A738" stroke="white" stroke-width="2"/>
</g>
<defs>
<clipPath id="clip0_117_3310">
<rect width="364" height="430" rx="20" fill="white"/>
</clipPath>
</defs>
</svg>
