<svg width="364" height="430" viewBox="0 0 364 430" fill="none" xmlns="http://www.w3.org/2000/svg">
<g clip-path="url(#clip0_117_2585)">
<rect width="364" height="430" rx="20" fill="#222827"/>
<rect x="20" y="98" width="353" height="351" rx="10" fill="#2A312E"/>
<rect x="38" y="116" width="326" height="314" fill="#252B2A"/>
<g filter="url(#filter0_d_117_2585)">
<g clip-path="url(#clip1_117_2585)">
<rect x="58" y="79" width="267" height="147" rx="10" fill="#58A738"/>
<path opacity="0.1" d="M324 80L54 226H324V80Z" fill="black"/>
<g clip-path="url(#clip2_117_2585)">
<path d="M300.44 164.191C301.122 164.549 301.464 165.09 301.464 165.815C301.464 166.54 301.122 167.081 300.44 167.439L292.168 171.778C291.715 172.016 291.227 172.135 290.706 172.135C290.185 172.135 289.698 172.016 289.244 171.778L280.766 167.332C280.129 166.997 279.811 166.491 279.811 165.815C279.811 165.139 280.129 164.633 280.765 164.299L289.244 159.852C289.698 159.614 290.185 159.495 290.706 159.495C291.227 159.495 291.714 159.614 292.168 159.851L300.44 164.191ZM299.639 165.495L291.367 161.156C290.926 160.925 290.486 160.925 290.045 161.156L281.568 165.602C281.478 165.649 281.434 165.72 281.434 165.815C281.434 165.91 281.478 165.98 281.567 166.027L290.045 170.474C290.486 170.704 290.926 170.704 291.367 170.474L299.639 166.134C299.773 166.064 299.84 165.957 299.84 165.815C299.84 165.672 299.773 165.566 299.639 165.495Z" fill="white"/>
<path d="M301.053 170.67L292.7 175.051C292.082 175.376 291.418 175.538 290.707 175.538C289.996 175.538 289.332 175.376 288.714 175.051L280.36 170.67C280.314 170.646 280.271 170.618 280.23 170.586C280.19 170.553 280.153 170.518 280.121 170.479C280.088 170.44 280.06 170.399 280.036 170.355C280.012 170.311 279.993 170.265 279.978 170.217C279.964 170.17 279.955 170.122 279.951 170.073C279.948 170.023 279.949 169.975 279.955 169.926C279.962 169.877 279.974 169.829 279.99 169.782C280.007 169.735 280.029 169.691 280.055 169.648C280.081 169.605 280.112 169.565 280.147 169.528C280.182 169.49 280.22 169.457 280.262 169.426C280.304 169.396 280.349 169.37 280.396 169.348C280.444 169.326 280.494 169.308 280.545 169.295C280.596 169.282 280.649 169.274 280.702 169.27C280.755 169.266 280.808 169.268 280.861 169.274C280.914 169.28 280.965 169.291 281.016 169.306C281.067 169.322 281.115 169.341 281.161 169.366L289.515 173.747C290.31 174.164 291.105 174.164 291.899 173.747L300.252 169.366C300.299 169.341 300.347 169.322 300.398 169.306C300.448 169.291 300.5 169.28 300.553 169.274C300.606 169.268 300.659 169.266 300.712 169.27C300.765 169.274 300.817 169.282 300.869 169.295C300.92 169.308 300.97 169.326 301.017 169.348C301.065 169.37 301.11 169.396 301.152 169.426C301.194 169.457 301.232 169.49 301.267 169.528C301.302 169.565 301.332 169.605 301.359 169.648C301.385 169.691 301.407 169.735 301.423 169.782C301.44 169.829 301.452 169.877 301.458 169.926C301.465 169.975 301.466 170.023 301.462 170.073C301.458 170.122 301.449 170.17 301.435 170.217C301.421 170.265 301.402 170.311 301.378 170.355C301.354 170.399 301.326 170.44 301.293 170.479C301.26 170.518 301.224 170.553 301.183 170.586C301.143 170.618 301.1 170.646 301.053 170.67Z" fill="white"/>
<path d="M301.053 174.073L293.23 178.176C292.448 178.587 291.607 178.793 290.707 178.793C289.807 178.793 288.965 178.587 288.182 178.176L280.36 174.073C280.314 174.049 280.271 174.021 280.23 173.989C280.19 173.957 280.153 173.921 280.121 173.882C280.088 173.843 280.06 173.802 280.036 173.758C280.012 173.714 279.993 173.668 279.978 173.621C279.964 173.573 279.955 173.525 279.951 173.476C279.948 173.427 279.949 173.378 279.955 173.329C279.962 173.28 279.974 173.232 279.99 173.185C280.007 173.139 280.029 173.094 280.055 173.051C280.081 173.008 280.112 172.968 280.147 172.931C280.182 172.894 280.22 172.86 280.262 172.83C280.304 172.799 280.349 172.773 280.397 172.751C280.444 172.729 280.494 172.711 280.545 172.698C280.596 172.685 280.649 172.677 280.702 172.673C280.755 172.67 280.808 172.671 280.861 172.677C280.914 172.683 280.965 172.694 281.016 172.709C281.067 172.725 281.115 172.745 281.161 172.769L288.984 176.872C289.518 177.152 290.093 177.293 290.707 177.293C291.321 177.293 291.895 177.152 292.429 176.872L300.252 172.769C300.299 172.745 300.347 172.725 300.398 172.709C300.448 172.694 300.5 172.683 300.553 172.677C300.606 172.671 300.659 172.67 300.712 172.673C300.765 172.677 300.817 172.685 300.869 172.698C300.92 172.711 300.97 172.729 301.017 172.751C301.065 172.773 301.11 172.799 301.152 172.83C301.194 172.86 301.232 172.894 301.267 172.931C301.302 172.968 301.332 173.008 301.359 173.051C301.385 173.094 301.407 173.139 301.423 173.185C301.44 173.232 301.452 173.28 301.458 173.329C301.465 173.378 301.466 173.427 301.462 173.476C301.458 173.525 301.449 173.573 301.435 173.621C301.421 173.668 301.402 173.714 301.378 173.758C301.354 173.802 301.326 173.843 301.293 173.882C301.26 173.921 301.224 173.957 301.183 173.989C301.143 174.021 301.1 174.049 301.053 174.073Z" fill="white"/>
</g>
<path d="M96.017 155.091V190H88.6364V162.097H88.4318L80.4375 167.108V160.562L89.0795 155.091H96.017ZM104.314 190V184.682L116.74 173.176C117.797 172.153 118.683 171.233 119.399 170.415C120.126 169.597 120.678 168.795 121.053 168.011C121.428 167.216 121.615 166.358 121.615 165.438C121.615 164.415 121.382 163.534 120.916 162.795C120.45 162.045 119.814 161.472 119.007 161.074C118.2 160.665 117.286 160.46 116.263 160.46C115.195 160.46 114.263 160.676 113.467 161.108C112.672 161.54 112.058 162.159 111.626 162.966C111.195 163.773 110.979 164.733 110.979 165.847H103.973C103.973 163.562 104.49 161.58 105.524 159.898C106.558 158.216 108.007 156.915 109.871 155.994C111.734 155.074 113.882 154.614 116.314 154.614C118.814 154.614 120.99 155.057 122.842 155.943C124.706 156.818 126.155 158.034 127.189 159.591C128.223 161.148 128.74 162.932 128.74 164.943C128.74 166.261 128.479 167.562 127.956 168.847C127.445 170.131 126.53 171.557 125.212 173.125C123.893 174.682 122.036 176.551 119.638 178.733L114.541 183.727V183.966H129.2V190H104.314Z" fill="white"/>
<path d="M78.5284 116.406V115.273H85.2827V116.406H82.5597V124H81.2472V116.406H78.5284ZM87.6871 124.145C87.2724 124.145 86.8974 124.068 86.5621 123.915C86.2269 123.759 85.9613 123.533 85.7653 123.237C85.5721 122.942 85.4755 122.58 85.4755 122.151C85.4755 121.781 85.5465 121.477 85.6886 121.239C85.8306 121 86.0224 120.811 86.2638 120.672C86.5053 120.533 86.7752 120.428 87.0735 120.357C87.3718 120.286 87.6758 120.232 87.9854 120.195C88.3775 120.149 88.6957 120.112 88.94 120.084C89.1843 120.053 89.3619 120.003 89.4727 119.935C89.5835 119.866 89.6388 119.756 89.6388 119.602V119.572C89.6388 119.2 89.5337 118.912 89.3235 118.707C89.1161 118.503 88.8065 118.401 88.3945 118.401C87.9656 118.401 87.6275 118.496 87.3803 118.686C87.136 118.874 86.967 119.082 86.8732 119.312L85.6758 119.04C85.8178 118.642 86.0252 118.321 86.2979 118.077C86.5735 117.83 86.8903 117.651 87.2482 117.54C87.6062 117.426 87.9826 117.369 88.3775 117.369C88.6388 117.369 88.9158 117.401 89.2085 117.463C89.5039 117.523 89.7795 117.634 90.0352 117.795C90.2937 117.957 90.5053 118.189 90.6701 118.49C90.8349 118.788 90.9173 119.176 90.9173 119.653V124H89.6729V123.105H89.6218C89.5394 123.27 89.4158 123.432 89.2511 123.591C89.0863 123.75 88.8746 123.882 88.6161 123.987C88.3576 124.092 88.0479 124.145 87.6871 124.145ZM87.9641 123.122C88.3164 123.122 88.6175 123.053 88.8675 122.913C89.1204 122.774 89.3121 122.592 89.4428 122.368C89.5763 122.141 89.6431 121.898 89.6431 121.639V120.795C89.5977 120.841 89.5096 120.884 89.3789 120.923C89.2511 120.96 89.1048 120.993 88.94 121.021C88.7752 121.047 88.6147 121.071 88.4585 121.094C88.3022 121.114 88.1715 121.131 88.0664 121.145C87.8192 121.176 87.5934 121.229 87.3888 121.303C87.1871 121.376 87.0252 121.483 86.9031 121.622C86.7837 121.759 86.7241 121.94 86.7241 122.168C86.7241 122.483 86.8406 122.722 87.0735 122.884C87.3065 123.043 87.6033 123.122 87.9641 123.122ZM97.5192 119.053L96.3643 119.257C96.3161 119.109 96.2393 118.969 96.1342 118.835C96.032 118.702 95.8928 118.592 95.7166 118.507C95.5405 118.422 95.3203 118.379 95.0561 118.379C94.6953 118.379 94.3942 118.46 94.1527 118.622C93.9112 118.781 93.7905 118.987 93.7905 119.24C93.7905 119.459 93.8714 119.635 94.0334 119.768C94.1953 119.902 94.4567 120.011 94.8175 120.097L95.8572 120.335C96.4595 120.474 96.9084 120.689 97.2038 120.979C97.4993 121.268 97.647 121.645 97.647 122.108C97.647 122.5 97.5334 122.849 97.3061 123.156C97.0817 123.46 96.7678 123.699 96.3643 123.872C95.9638 124.045 95.4993 124.132 94.9709 124.132C94.2379 124.132 93.6399 123.976 93.1768 123.663C92.7138 123.348 92.4297 122.901 92.3246 122.321L93.5561 122.134C93.6328 122.455 93.7905 122.697 94.0291 122.862C94.2678 123.024 94.5788 123.105 94.9624 123.105C95.38 123.105 95.7138 123.018 95.9638 122.845C96.2138 122.669 96.3388 122.455 96.3388 122.202C96.3388 121.997 96.2621 121.825 96.1087 121.686C95.9581 121.547 95.7266 121.442 95.4141 121.371L94.3061 121.128C93.6953 120.989 93.2436 120.767 92.951 120.463C92.6612 120.159 92.5163 119.774 92.5163 119.308C92.5163 118.922 92.6243 118.584 92.8402 118.294C93.0561 118.004 93.3544 117.778 93.7351 117.616C94.1158 117.452 94.5518 117.369 95.0433 117.369C95.7507 117.369 96.3075 117.523 96.7138 117.83C97.12 118.134 97.3885 118.541 97.5192 119.053ZM100.22 121.78L100.211 120.224H100.433L103.041 117.455H104.566L101.592 120.608H101.392L100.22 121.78ZM99.0479 124V115.273H100.322V124H99.0479ZM103.181 124L100.838 120.889L101.716 119.999L104.745 124H103.181ZM110.632 119.053L109.478 119.257C109.429 119.109 109.353 118.969 109.248 118.835C109.145 118.702 109.006 118.592 108.83 118.507C108.654 118.422 108.434 118.379 108.169 118.379C107.809 118.379 107.507 118.46 107.266 118.622C107.025 118.781 106.904 118.987 106.904 119.24C106.904 119.459 106.985 119.635 107.147 119.768C107.309 119.902 107.57 120.011 107.931 120.097L108.971 120.335C109.573 120.474 110.022 120.689 110.317 120.979C110.613 121.268 110.76 121.645 110.76 122.108C110.76 122.5 110.647 122.849 110.419 123.156C110.195 123.46 109.881 123.699 109.478 123.872C109.077 124.045 108.613 124.132 108.084 124.132C107.351 124.132 106.753 123.976 106.29 123.663C105.827 123.348 105.543 122.901 105.438 122.321L106.669 122.134C106.746 122.455 106.904 122.697 107.142 122.862C107.381 123.024 107.692 123.105 108.076 123.105C108.493 123.105 108.827 123.018 109.077 122.845C109.327 122.669 109.452 122.455 109.452 122.202C109.452 121.997 109.375 121.825 109.222 121.686C109.071 121.547 108.84 121.442 108.527 121.371L107.419 121.128C106.809 120.989 106.357 120.767 106.064 120.463C105.775 120.159 105.63 119.774 105.63 119.308C105.63 118.922 105.738 118.584 105.953 118.294C106.169 118.004 106.468 117.778 106.848 117.616C107.229 117.452 107.665 117.369 108.157 117.369C108.864 117.369 109.421 117.523 109.827 117.83C110.233 118.134 110.502 118.541 110.632 119.053ZM118.392 117.455V118.477H114.817V117.455H118.392ZM115.776 115.886H117.05V122.078C117.05 122.325 117.087 122.511 117.161 122.636C117.235 122.759 117.33 122.842 117.446 122.888C117.566 122.93 117.695 122.952 117.834 122.952C117.936 122.952 118.026 122.945 118.103 122.93C118.179 122.916 118.239 122.905 118.282 122.896L118.512 123.949C118.438 123.977 118.333 124.006 118.196 124.034C118.06 124.065 117.89 124.082 117.685 124.085C117.35 124.091 117.037 124.031 116.748 123.906C116.458 123.781 116.223 123.588 116.044 123.327C115.865 123.065 115.776 122.737 115.776 122.342V115.886ZM122.489 124.132C121.875 124.132 121.339 123.991 120.882 123.71C120.425 123.429 120.07 123.036 119.817 122.53C119.564 122.024 119.438 121.433 119.438 120.757C119.438 120.078 119.564 119.484 119.817 118.976C120.07 118.467 120.425 118.072 120.882 117.791C121.339 117.51 121.875 117.369 122.489 117.369C123.102 117.369 123.638 117.51 124.095 117.791C124.553 118.072 124.908 118.467 125.161 118.976C125.413 119.484 125.54 120.078 125.54 120.757C125.54 121.433 125.413 122.024 125.161 122.53C124.908 123.036 124.553 123.429 124.095 123.71C123.638 123.991 123.102 124.132 122.489 124.132ZM122.493 123.062C122.891 123.062 123.22 122.957 123.482 122.747C123.743 122.537 123.936 122.257 124.061 121.908C124.189 121.558 124.253 121.173 124.253 120.753C124.253 120.335 124.189 119.952 124.061 119.602C123.936 119.25 123.743 118.967 123.482 118.754C123.22 118.541 122.891 118.435 122.493 118.435C122.092 118.435 121.76 118.541 121.496 118.754C121.234 118.967 121.04 119.25 120.912 119.602C120.787 119.952 120.724 120.335 120.724 120.753C120.724 121.173 120.787 121.558 120.912 121.908C121.04 122.257 121.234 122.537 121.496 122.747C121.76 122.957 122.092 123.062 122.493 123.062ZM130.24 124V115.273H131.514V118.516H131.591C131.665 118.379 131.771 118.222 131.911 118.043C132.05 117.864 132.243 117.707 132.49 117.574C132.737 117.438 133.064 117.369 133.47 117.369C133.999 117.369 134.47 117.503 134.885 117.77C135.3 118.037 135.625 118.422 135.861 118.925C136.099 119.428 136.219 120.033 136.219 120.74C136.219 121.447 136.101 122.054 135.865 122.56C135.629 123.062 135.305 123.45 134.893 123.723C134.482 123.993 134.011 124.128 133.483 124.128C133.085 124.128 132.76 124.061 132.507 123.928C132.257 123.794 132.061 123.638 131.919 123.459C131.777 123.28 131.668 123.121 131.591 122.982H131.484V124H130.24ZM131.489 120.727C131.489 121.187 131.555 121.591 131.689 121.938C131.822 122.284 132.016 122.555 132.268 122.751C132.521 122.945 132.831 123.041 133.197 123.041C133.578 123.041 133.896 122.94 134.152 122.739C134.408 122.534 134.601 122.257 134.732 121.908C134.865 121.558 134.932 121.165 134.932 120.727C134.932 120.295 134.866 119.908 134.736 119.564C134.608 119.22 134.415 118.949 134.156 118.75C133.901 118.551 133.581 118.452 133.197 118.452C132.828 118.452 132.516 118.547 132.26 118.737C132.007 118.928 131.815 119.193 131.685 119.534C131.554 119.875 131.489 120.273 131.489 120.727ZM140.471 124.132C139.826 124.132 139.27 123.994 138.804 123.719C138.341 123.44 137.983 123.05 137.73 122.547C137.48 122.041 137.355 121.449 137.355 120.77C137.355 120.099 137.48 119.509 137.73 118.997C137.983 118.486 138.336 118.087 138.787 117.8C139.242 117.513 139.773 117.369 140.381 117.369C140.75 117.369 141.108 117.43 141.455 117.553C141.801 117.675 142.113 117.866 142.388 118.128C142.664 118.389 142.881 118.729 143.04 119.146C143.199 119.561 143.279 120.065 143.279 120.659V121.111H138.076V120.156H142.03C142.03 119.821 141.962 119.524 141.826 119.266C141.689 119.004 141.498 118.798 141.25 118.648C141.006 118.497 140.719 118.422 140.39 118.422C140.032 118.422 139.719 118.51 139.452 118.686C139.188 118.859 138.983 119.087 138.838 119.368C138.696 119.646 138.625 119.949 138.625 120.276V121.021C138.625 121.459 138.702 121.831 138.855 122.138C139.012 122.445 139.229 122.679 139.507 122.841C139.786 123 140.111 123.08 140.483 123.08C140.725 123.08 140.945 123.045 141.144 122.977C141.343 122.906 141.515 122.801 141.659 122.662C141.804 122.523 141.915 122.351 141.992 122.146L143.198 122.364C143.101 122.719 142.928 123.03 142.678 123.297C142.431 123.561 142.12 123.767 141.745 123.915C141.373 124.06 140.948 124.132 140.471 124.132ZM150.625 124.132C149.992 124.132 149.446 123.989 148.989 123.702C148.534 123.412 148.185 123.013 147.941 122.504C147.696 121.996 147.574 121.413 147.574 120.757C147.574 120.092 147.699 119.506 147.949 118.997C148.199 118.486 148.551 118.087 149.006 117.8C149.461 117.513 149.996 117.369 150.613 117.369C151.11 117.369 151.553 117.462 151.942 117.646C152.331 117.828 152.645 118.084 152.884 118.413C153.125 118.743 153.269 119.128 153.314 119.568H152.074C152.006 119.261 151.85 118.997 151.605 118.776C151.364 118.554 151.04 118.443 150.634 118.443C150.279 118.443 149.968 118.537 149.701 118.724C149.436 118.909 149.23 119.173 149.083 119.517C148.935 119.858 148.861 120.261 148.861 120.727C148.861 121.205 148.934 121.616 149.078 121.963C149.223 122.31 149.428 122.578 149.692 122.768C149.959 122.959 150.273 123.054 150.634 123.054C150.875 123.054 151.094 123.01 151.29 122.922C151.489 122.831 151.655 122.702 151.789 122.534C151.925 122.366 152.02 122.165 152.074 121.929H153.314C153.269 122.352 153.131 122.73 152.901 123.062C152.671 123.395 152.363 123.656 151.976 123.847C151.593 124.037 151.142 124.132 150.625 124.132ZM157.434 124.132C156.82 124.132 156.285 123.991 155.827 123.71C155.37 123.429 155.015 123.036 154.762 122.53C154.509 122.024 154.383 121.433 154.383 120.757C154.383 120.078 154.509 119.484 154.762 118.976C155.015 118.467 155.37 118.072 155.827 117.791C156.285 117.51 156.82 117.369 157.434 117.369C158.048 117.369 158.583 117.51 159.04 117.791C159.498 118.072 159.853 118.467 160.106 118.976C160.359 119.484 160.485 120.078 160.485 120.757C160.485 121.433 160.359 122.024 160.106 122.53C159.853 123.036 159.498 123.429 159.04 123.71C158.583 123.991 158.048 124.132 157.434 124.132ZM157.438 123.062C157.836 123.062 158.165 122.957 158.427 122.747C158.688 122.537 158.881 122.257 159.006 121.908C159.134 121.558 159.198 121.173 159.198 120.753C159.198 120.335 159.134 119.952 159.006 119.602C158.881 119.25 158.688 118.967 158.427 118.754C158.165 118.541 157.836 118.435 157.438 118.435C157.038 118.435 156.705 118.541 156.441 118.754C156.18 118.967 155.985 119.25 155.857 119.602C155.732 119.952 155.67 120.335 155.67 120.753C155.67 121.173 155.732 121.558 155.857 121.908C155.985 122.257 156.18 122.537 156.441 122.747C156.705 122.957 157.038 123.062 157.438 123.062ZM161.907 124V117.455H163.13V118.52H163.211C163.348 118.159 163.571 117.878 163.88 117.676C164.19 117.472 164.561 117.369 164.993 117.369C165.43 117.369 165.797 117.472 166.092 117.676C166.39 117.881 166.61 118.162 166.752 118.52H166.821C166.977 118.17 167.225 117.892 167.566 117.685C167.907 117.474 168.314 117.369 168.785 117.369C169.379 117.369 169.863 117.555 170.238 117.928C170.616 118.3 170.805 118.861 170.805 119.611V124H169.531V119.73C169.531 119.287 169.41 118.966 169.169 118.767C168.927 118.568 168.639 118.469 168.304 118.469C167.889 118.469 167.566 118.597 167.336 118.852C167.106 119.105 166.991 119.43 166.991 119.828V124H165.721V119.649C165.721 119.294 165.61 119.009 165.389 118.793C165.167 118.577 164.879 118.469 164.524 118.469C164.282 118.469 164.059 118.533 163.855 118.661C163.653 118.786 163.49 118.96 163.365 119.185C163.243 119.409 163.181 119.669 163.181 119.964V124H161.907ZM172.513 126.455V117.455H173.757V118.516H173.864C173.938 118.379 174.044 118.222 174.183 118.043C174.322 117.864 174.516 117.707 174.763 117.574C175.01 117.438 175.337 117.369 175.743 117.369C176.271 117.369 176.743 117.503 177.158 117.77C177.572 118.037 177.898 118.422 178.134 118.925C178.372 119.428 178.491 120.033 178.491 120.74C178.491 121.447 178.374 122.054 178.138 122.56C177.902 123.062 177.578 123.45 177.166 123.723C176.754 123.993 176.284 124.128 175.756 124.128C175.358 124.128 175.033 124.061 174.78 123.928C174.53 123.794 174.334 123.638 174.192 123.459C174.05 123.28 173.94 123.121 173.864 122.982H173.787V126.455H172.513ZM173.761 120.727C173.761 121.187 173.828 121.591 173.962 121.938C174.095 122.284 174.288 122.555 174.541 122.751C174.794 122.945 175.104 123.041 175.47 123.041C175.851 123.041 176.169 122.94 176.425 122.739C176.68 122.534 176.874 122.257 177.004 121.908C177.138 121.558 177.205 121.165 177.205 120.727C177.205 120.295 177.139 119.908 177.009 119.564C176.881 119.22 176.688 118.949 176.429 118.75C176.173 118.551 175.854 118.452 175.47 118.452C175.101 118.452 174.788 118.547 174.533 118.737C174.28 118.928 174.088 119.193 173.957 119.534C173.827 119.875 173.761 120.273 173.761 120.727ZM181.193 115.273V124H179.919V115.273H181.193ZM185.728 124.132C185.083 124.132 184.528 123.994 184.062 123.719C183.599 123.44 183.241 123.05 182.988 122.547C182.738 122.041 182.613 121.449 182.613 120.77C182.613 120.099 182.738 119.509 182.988 118.997C183.241 118.486 183.593 118.087 184.045 117.8C184.5 117.513 185.031 117.369 185.639 117.369C186.008 117.369 186.366 117.43 186.713 117.553C187.059 117.675 187.37 117.866 187.646 118.128C187.922 118.389 188.139 118.729 188.298 119.146C188.457 119.561 188.537 120.065 188.537 120.659V121.111H183.333V120.156H187.288C187.288 119.821 187.22 119.524 187.083 119.266C186.947 119.004 186.755 118.798 186.508 118.648C186.264 118.497 185.977 118.422 185.647 118.422C185.289 118.422 184.977 118.51 184.71 118.686C184.446 118.859 184.241 119.087 184.096 119.368C183.954 119.646 183.883 119.949 183.883 120.276V121.021C183.883 121.459 183.96 121.831 184.113 122.138C184.27 122.445 184.487 122.679 184.765 122.841C185.044 123 185.369 123.08 185.741 123.08C185.983 123.08 186.203 123.045 186.402 122.977C186.6 122.906 186.772 122.801 186.917 122.662C187.062 122.523 187.173 122.351 187.25 122.146L188.456 122.364C188.359 122.719 188.186 123.03 187.936 123.297C187.689 123.561 187.377 123.767 187.002 123.915C186.63 124.06 186.206 124.132 185.728 124.132ZM193.006 117.455V118.477H189.43V117.455H193.006ZM190.389 115.886H191.663V122.078C191.663 122.325 191.7 122.511 191.774 122.636C191.848 122.759 191.943 122.842 192.06 122.888C192.179 122.93 192.308 122.952 192.447 122.952C192.55 122.952 192.639 122.945 192.716 122.93C192.793 122.916 192.852 122.905 192.895 122.896L193.125 123.949C193.051 123.977 192.946 124.006 192.81 124.034C192.673 124.065 192.503 124.082 192.298 124.085C191.963 124.091 191.651 124.031 191.361 123.906C191.071 123.781 190.837 123.588 190.658 123.327C190.479 123.065 190.389 122.737 190.389 122.342V115.886ZM197.166 124.132C196.521 124.132 195.966 123.994 195.5 123.719C195.037 123.44 194.679 123.05 194.426 122.547C194.176 122.041 194.051 121.449 194.051 120.77C194.051 120.099 194.176 119.509 194.426 118.997C194.679 118.486 195.031 118.087 195.483 117.8C195.937 117.513 196.468 117.369 197.076 117.369C197.446 117.369 197.804 117.43 198.15 117.553C198.497 117.675 198.808 117.866 199.083 118.128C199.359 118.389 199.576 118.729 199.735 119.146C199.895 119.561 199.974 120.065 199.974 120.659V121.111H194.771V120.156H198.725C198.725 119.821 198.657 119.524 198.521 119.266C198.385 119.004 198.193 118.798 197.946 118.648C197.701 118.497 197.414 118.422 197.085 118.422C196.727 118.422 196.414 118.51 196.147 118.686C195.883 118.859 195.679 119.087 195.534 119.368C195.392 119.646 195.321 119.949 195.321 120.276V121.021C195.321 121.459 195.397 121.831 195.551 122.138C195.707 122.445 195.924 122.679 196.203 122.841C196.481 123 196.806 123.08 197.179 123.08C197.42 123.08 197.64 123.045 197.839 122.977C198.038 122.906 198.21 122.801 198.355 122.662C198.5 122.523 198.61 122.351 198.687 122.146L199.893 122.364C199.797 122.719 199.623 123.03 199.373 123.297C199.126 123.561 198.815 123.767 198.44 123.915C198.068 124.06 197.643 124.132 197.166 124.132ZM203.838 124.128C203.31 124.128 202.838 123.993 202.423 123.723C202.011 123.45 201.688 123.062 201.452 122.56C201.219 122.054 201.102 121.447 201.102 120.74C201.102 120.033 201.22 119.428 201.456 118.925C201.695 118.422 202.021 118.037 202.436 117.77C202.851 117.503 203.321 117.369 203.847 117.369C204.253 117.369 204.58 117.438 204.827 117.574C205.077 117.707 205.27 117.864 205.406 118.043C205.545 118.222 205.653 118.379 205.73 118.516H205.807V115.273H207.081V124H205.837V122.982H205.73C205.653 123.121 205.543 123.28 205.398 123.459C205.256 123.638 205.06 123.794 204.81 123.928C204.56 124.061 204.236 124.128 203.838 124.128ZM204.119 123.041C204.486 123.041 204.795 122.945 205.048 122.751C205.304 122.555 205.497 122.284 205.628 121.938C205.761 121.591 205.828 121.187 205.828 120.727C205.828 120.273 205.763 119.875 205.632 119.534C205.501 119.193 205.31 118.928 205.057 118.737C204.804 118.547 204.491 118.452 204.119 118.452C203.736 118.452 203.416 118.551 203.161 118.75C202.905 118.949 202.712 119.22 202.581 119.564C202.453 119.908 202.389 120.295 202.389 120.727C202.389 121.165 202.455 121.558 202.585 121.908C202.716 122.257 202.909 122.534 203.165 122.739C203.423 122.94 203.741 123.041 204.119 123.041Z" fill="white"/>
</g>
</g>
<g filter="url(#filter1_d_117_2585)">
<rect x="276" y="48" width="66" height="66" rx="10" fill="#2E3533"/>
</g>
<path fill-rule="evenodd" clip-rule="evenodd" d="M319.586 81.0006C319.856 80.1148 320 79.1802 320 78.2143C320 72.5731 315.075 68 309 68C302.925 68 298 72.5731 298 78.2143C298 79.1802 298.144 80.1148 298.414 81.0006C294.864 81.0465 292 83.9388 292 87.5C292 91.0899 294.91 94 298.5 94H319.5C323.09 94 326 91.0899 326 87.5C326 83.9388 323.136 81.0465 319.586 81.0006Z" fill="#58A738"/>
<path d="M345 143C345 127.536 357.536 115 373 115V259C357.536 259 345 246.464 345 231V143Z" fill="#2E65C9"/>
<rect x="99" y="359" width="279" height="10" rx="5" fill="#303B39"/>
<rect x="99" y="359" width="199.705" height="10" rx="5" fill="#58A738"/>
<rect x="99" y="337" width="152.716" height="6" rx="3" fill="#303B39"/>
<rect x="99" y="305" width="279" height="16" rx="8" fill="#303B39"/>
</g>
<defs>
<filter id="filter0_d_117_2585" x="14" y="49" width="355" height="235" filterUnits="userSpaceOnUse" color-interpolation-filters="sRGB">
<feFlood flood-opacity="0" result="BackgroundImageFix"/>
<feColorMatrix in="SourceAlpha" type="matrix" values="0 0 0 0 0 0 0 0 0 0 0 0 0 0 0 0 0 0 127 0" result="hardAlpha"/>
<feOffset dy="14"/>
<feGaussianBlur stdDeviation="22"/>
<feComposite in2="hardAlpha" operator="out"/>
<feColorMatrix type="matrix" values="0 0 0 0 0 0 0 0 0 0 0 0 0 0 0 0 0 0 0.15 0"/>
<feBlend mode="normal" in2="BackgroundImageFix" result="effect1_dropShadow_117_2585"/>
<feBlend mode="normal" in="SourceGraphic" in2="effect1_dropShadow_117_2585" result="shape"/>
</filter>
<filter id="filter1_d_117_2585" x="252" y="28" width="114" height="114" filterUnits="userSpaceOnUse" color-interpolation-filters="sRGB">
<feFlood flood-opacity="0" result="BackgroundImageFix"/>
<feColorMatrix in="SourceAlpha" type="matrix" values="0 0 0 0 0 0 0 0 0 0 0 0 0 0 0 0 0 0 127 0" result="hardAlpha"/>
<feMorphology radius="8" operator="dilate" in="SourceAlpha" result="effect1_dropShadow_117_2585"/>
<feOffset dy="4"/>
<feGaussianBlur stdDeviation="8"/>
<feComposite in2="hardAlpha" operator="out"/>
<feColorMatrix type="matrix" values="0 0 0 0 0 0 0 0 0 0 0 0 0 0 0 0 0 0 0.12 0"/>
<feBlend mode="normal" in2="BackgroundImageFix" result="effect1_dropShadow_117_2585"/>
<feBlend mode="normal" in="SourceGraphic" in2="effect1_dropShadow_117_2585" result="shape"/>
</filter>
<clipPath id="clip0_117_2585">
<rect width="364" height="430" rx="20" fill="white"/>
</clipPath>
<clipPath id="clip1_117_2585">
<rect x="58" y="79" width="267" height="147" rx="10" fill="white"/>
</clipPath>
<clipPath id="clip2_117_2585">
<rect width="22.7246" height="20.2876" fill="white" transform="translate(279.275 159)"/>
</clipPath>
</defs>
</svg>
