<svg id="图层_1" data-name="图层 1" xmlns="http://www.w3.org/2000/svg" viewBox="0 0 160.43 177.25"><defs><style>.cls-1{fill:#d0f5ef;opacity:0.3;}.cls-2{opacity:0.6;}.cls-3{fill:#32d5bd;}.cls-4{fill:#b2ceff;opacity:0.4;}.cls-5{fill:#fff;}.cls-6{fill:#6a9fff;}</style></defs><title>2018.1.29-价格页图标设计</title><path class="cls-1" d="M157.22,113.53c4.26,2.45,4.28,6.47.05,8.93L73.81,171c-4.23,2.46-11.17,2.46-15.42,0L3.22,139.11c-4.26-2.46-4.28-6.48-.05-8.93l83.46-48.5c4.23-2.46,11.17-2.46,15.42,0Z"/><g class="cls-2"><path class="cls-3" d="M157.27,122.46,73.81,171c-4.23,2.46-11.17,2.46-15.42,0L3.22,139.11C1.08,137.87,0,136.24,0,134.61v4.45c0,1.63,1.06,3.26,3.2,4.49l55.18,31.86c4.25,2.45,11.19,2.45,15.41,0l83.47-48.51c2.1-1.22,3.15-2.82,3.16-4.43V118C160.42,119.63,159.37,121.24,157.27,122.46Z"/></g><polygon class="cls-4" points="96.96 65.42 96.98 72.75 59.65 94.31 59.63 86.97 96.96 65.42"/><path class="cls-5" d="M107.45,22.17c2.8-1.61,5.09-.31,5.1,2.91l.25,81.43a11.2,11.2,0,0,1-5.07,8.77L52.75,147c-2.8,1.61-5.09.3-5.1-2.91L47.4,62.69a11.18,11.18,0,0,1,5.07-8.77ZM59.57,65.51l0,14.67,25.3-14.61,0-14.67L59.57,65.51m37.5,38.76,0-7.33L59.72,118.49l0,7.34,37.33-21.56m0-15.76,0-7.33L59.67,102.73l0,7.34L97,88.51m0-15.75,0-7.34L59.63,87l0,7.34L97,72.76"/><polygon class="cls-4" points="97.05 96.94 97.07 104.27 59.74 125.83 59.72 118.49 97.05 96.94"/><polygon class="cls-4" points="97 81.18 97.03 88.51 59.7 110.07 59.67 102.73 97 81.18"/><polygon class="cls-4" points="84.87 50.9 84.91 65.57 59.61 80.18 59.57 65.51 84.87 50.9"/><path class="cls-6" d="M108.46,21.71h0a3.72,3.72,0,0,1,.77-.18l.13,0h.45l.23,0,.2,0,.28.07.14,0a3.39,3.39,0,0,1,.39.18L106.13,19a1.88,1.88,0,0,0-.38-.18l-.14,0-.28-.08h-.2l-.23,0a1.47,1.47,0,0,0-.21,0h-.38a4.73,4.73,0,0,0-.77.18h0a5.16,5.16,0,0,0-.81.36l-.07,0-.13.07-55,31.75a6.5,6.5,0,0,0-.94.64l-.05,0-.43.39c-.17.16-.35.31-.51.49s-.27.31-.4.46-.31.36-.46.56l-.35.52c-.14.2-.28.4-.4.61s-.2.37-.3.56-.2.36-.28.55c0,0,0,.06,0,.09-.14.31-.25.62-.36.94l-.13.34a.08.08,0,0,0,0,0c0,.11-.05.22-.08.33a7.2,7.2,0,0,0-.19.77s0,.07,0,.11,0,.27,0,.4a5.54,5.54,0,0,0-.07.57c0,.12,0,.24,0,.36l.25,81.43a4.8,4.8,0,0,0,.05.78c0,.07,0,.12,0,.18a3.4,3.4,0,0,0,.07.34,4.43,4.43,0,0,0,.18.55,2.39,2.39,0,0,0,.13.28,3,3,0,0,0,.29.46c.05.06.1.14.15.19a2.3,2.3,0,0,0,.57.47l4.94,2.87a2.3,2.3,0,0,1-.57-.47c-.06-.06-.1-.13-.15-.19a3,3,0,0,1-.3-.46c0-.09-.09-.19-.13-.28a3.2,3.2,0,0,1-.17-.55,3.38,3.38,0,0,1-.08-.34,5.69,5.69,0,0,1-.09-1L47.4,62.69a7.45,7.45,0,0,1,.08-.93c0-.14,0-.27.05-.4,0-.29.12-.59.2-.89,0-.1.05-.21.08-.32s.1-.26.15-.39c.11-.31.22-.62.36-.93s.21-.43.32-.64.19-.38.29-.56.27-.41.4-.61.23-.36.35-.53.31-.37.46-.55.26-.32.4-.47.34-.32.52-.48.28-.27.43-.39a6.89,6.89,0,0,1,1-.68l55-31.75.21-.11A6.08,6.08,0,0,1,108.46,21.71Z"/><path class="cls-5" d="M98.85,3.37c2.1-1.21,3.83-.22,3.84,2.19l0,11.91-45,26,0-11.91a8.43,8.43,0,0,1,3.82-6.61Z"/><path class="cls-6" d="M99.68,3a3,3,0,0,1,.61-.14,2.41,2.41,0,0,1,.38,0,1.42,1.42,0,0,1,.29,0,2.1,2.1,0,0,1,.61.21L96.63.25A1.8,1.8,0,0,0,96,0h0a2.17,2.17,0,0,0-.26,0,2.28,2.28,0,0,0-.37,0h0a4.17,4.17,0,0,0-.56.14h-.07a5.54,5.54,0,0,0-.67.3l-.09.06L56.59,22.05a6.43,6.43,0,0,0-.71.49l0,0c-.11.09-.22.2-.33.3s-.26.23-.38.36-.2.24-.3.36a4.71,4.71,0,0,0-.35.41c-.09.13-.18.26-.26.4a4.4,4.4,0,0,0-.3.45l-.23.43c-.07.13-.15.27-.21.41l0,.07a6.09,6.09,0,0,0-.27.71,2.77,2.77,0,0,0-.1.26v0L53,27c-.05.2-.11.39-.14.59a.22.22,0,0,0,0,.08c0,.1,0,.2,0,.3s0,.29,0,.43,0,.18,0,.27l0,11.91,4.93,2.87,0-11.91c0-.23,0-.47,0-.7s0-.2,0-.3a5.43,5.43,0,0,1,.16-.67c0-.08,0-.16,0-.24s.08-.18.11-.28.17-.48.27-.72.16-.32.25-.47.14-.29.22-.43.2-.31.3-.46.17-.27.27-.39.23-.28.34-.42l.3-.35.39-.37.33-.3a6.09,6.09,0,0,1,.74-.51L98.85,3.37A4,4,0,0,1,99.62,3Z"/><polygon class="cls-5" points="124.71 93.04 130.13 95.79 116.69 119.97 106.76 114.76 110.5 108.35 115.01 110.77 124.71 93.04"/><path class="cls-3" d="M117.76,87c9.41-5.43,17.07-1.08,17.1,9.74s-7.58,24-17,29.43-17.07,1.07-17.1-9.74S108.34,92.47,117.76,87ZM116.69,120l13.44-24.18L124.71,93l-9.78,17.66-4.47-2.39-3.66,6.49,9.89,5.17"/></svg>