<svg id="图层_1" data-name="图层 1" xmlns="http://www.w3.org/2000/svg" xmlns:xlink="http://www.w3.org/1999/xlink" viewBox="0 0 195.52 175.37"><defs><style>.cls-1{fill:#fff;}.cls-2{fill:#d4e5ff;}.cls-3{fill:#c2d6f9;opacity:0.6;}.cls-4{fill:#6a9fff;}.cls-5{fill:#32d5bd;}.cls-6{fill:#d5fbf5;}.cls-7{opacity:0.5;fill:url(#未命名的渐变_13);}.cls-8{opacity:0.3;fill:url(#未命名的渐变_15);}</style><linearGradient id="未命名的渐变_13" x1="74.09" y1="78.9" x2="69.38" y2="157.84" gradientUnits="userSpaceOnUse"><stop offset="0" stop-color="#c2d6f9" stop-opacity="0"/><stop offset="1" stop-color="#b2ceff"/></linearGradient><linearGradient id="未命名的渐变_15" x1="134.32" y1="79.23" x2="145.8" y2="171.77" gradientUnits="userSpaceOnUse"><stop offset="0" stop-color="#c2d6f9" stop-opacity="0"/><stop offset="1" stop-color="#b2ceff"/></linearGradient></defs><title>2018.1.29-价格页图标设计</title><g id="_编组_" data-name="&lt;编组&gt;"><path class="cls-1" d="M144.67,106.9,83,142.73A4.36,4.36,0,0,1,76.42,139l0-88.12a12.68,12.68,0,0,1,6.31-11L144.61,4A4.24,4.24,0,0,1,151,7.62V95.94A12.68,12.68,0,0,1,144.67,106.9Z"/></g><path id="_复合路径_" data-name="&lt;复合路径&gt;" class="cls-2" d="M138.51,28.15c2.08-1.2,3.8-.23,3.8,2.17l.09,31.12A8.34,8.34,0,0,1,138.62,68L92,94.94c-2.09,1.21-3.8.23-3.81-2.17l-.09-31.12a8.38,8.38,0,0,1,3.78-6.55ZM95,61.79l0,5.91,24.67-14.24V47.55L95,61.79m33.55,3.65V62.49L95.09,81.82v3l33.48-19.33M95.07,73v3l18-10.39V62.57L95.07,73"/><polygon id="_路径_" data-name="&lt;路径&gt;" class="cls-3" points="116.18 102.23 116.19 105.98 91.37 120.63 91.36 116.88 116.18 102.23"/><polygon id="_路径_2" data-name="&lt;路径&gt;" class="cls-3" points="143.83 86.55 143.84 90.3 119.03 104.94 119.02 101.19 143.83 86.55"/><path class="cls-4" d="M145.72,3.52h0a5,5,0,0,1,.88-.2l.15,0h.52l.26,0a1.66,1.66,0,0,1,.22,0l.33.08.15.05a2.48,2.48,0,0,1,.44.2L143.08.39a3.55,3.55,0,0,0-.44-.21l-.16,0a3,3,0,0,0-.32-.09h-.23a2.06,2.06,0,0,0-.26,0h-.58L141,0a5,5,0,0,0-.87.21h0a6.48,6.48,0,0,0-.91.4l-.09,0L139,.78,76.39,36.91a8.43,8.43,0,0,0-1.07.73l0,0c-.17.13-.33.3-.49.45s-.4.35-.58.54-.31.36-.46.54-.36.41-.52.63-.27.39-.4.59-.32.46-.46.69-.22.43-.33.65-.23.41-.33.62c0,0,0,.07,0,.1-.16.35-.28.71-.41,1.07,0,.13-.11.26-.15.39a.09.09,0,0,0,0,0c0,.12-.06.24-.09.37-.08.29-.17.59-.22.88,0,0,0,.08,0,.12s0,.31-.05.46-.07.43-.08.65,0,.27,0,.41l.28,89a6.19,6.19,0,0,0,.06.88A1.29,1.29,0,0,0,71,137c0,.13,0,.25.08.38a4.23,4.23,0,0,0,.21.63,2.92,2.92,0,0,0,.48.84A1.63,1.63,0,0,0,72,139a2.74,2.74,0,0,0,.64.54l5.62,3.26a3,3,0,0,1-.65-.54,2.11,2.11,0,0,1-.17-.22,3.89,3.89,0,0,1-.34-.52c0-.1-.09-.21-.14-.32a3.58,3.58,0,0,1-.2-.63c0-.12-.07-.25-.09-.38a6.22,6.22,0,0,1-.1-1.09l-.28-89a9.82,9.82,0,0,1,.08-1.06c0-.15,0-.3.06-.46a9.56,9.56,0,0,1,.23-1c0-.12,0-.24.09-.37s.11-.29.17-.44c.12-.36.25-.71.4-1.06s.25-.49.37-.73.22-.43.34-.64.3-.47.45-.69.26-.41.4-.6.35-.42.53-.63.29-.37.45-.53.39-.37.59-.55.32-.31.49-.45A10.14,10.14,0,0,1,82,40.17L144.58,4.05l.23-.12A6,6,0,0,1,145.72,3.52Z"/><path class="cls-5" d="M40.82,69c.07-.11.13-.22.19-.33l.07-.11a.77.77,0,0,0,.07-.16,1.24,1.24,0,0,0,.1-.2l.12-.31c0-.07.05-.14.07-.2s.06-.23.08-.34,0-.12,0-.17a2.77,2.77,0,0,0,0-.49,1.89,1.89,0,0,0-.14-.79,1.16,1.16,0,0,0-.4-.49l-2.68-1.73a1.43,1.43,0,0,1,.55,1.28,4.22,4.22,0,0,1,0,.49c0,.06,0,.11,0,.17s-.05.22-.08.34-.05.13-.07.2l-.12.31-.1.21c0,.09-.09.18-.14.27s-.13.21-.2.32l-.14.22-.24.3c0,.06-.1.13-.16.19a2.76,2.76,0,0,1-.3.29l-.14.14a4,4,0,0,1-.49.35l-.24.13-.08,0-.16.07-.09,0L36,69l-.09,0-.13,0h-.4l-.12,0-.06,0a.8.8,0,0,1-.16-.08l2.67,1.72a.51.51,0,0,0,.16.09l.06,0,.12,0h.41l.12,0h.1l.14,0,.09,0L39,70.6l.08,0,.25-.14a4.71,4.71,0,0,0,.48-.34L40,70c.1-.1.2-.19.29-.29s.11-.13.16-.19a2.34,2.34,0,0,0,.24-.31Z"/><path class="cls-5" d="M30.81,74.18l.06-.2a3.37,3.37,0,0,0,.09-.34.9.9,0,0,0,0-.16A2.92,2.92,0,0,0,31,73a1.44,1.44,0,0,0-.55-1.27L27.82,70a1.44,1.44,0,0,1,.55,1.28,2.81,2.81,0,0,1-.05.49,1.36,1.36,0,0,1,0,.17,2.37,2.37,0,0,1-.08.34c0,.06,0,.13-.07.2s-.07.2-.12.31a1.24,1.24,0,0,1-.1.2,1.71,1.71,0,0,1-.14.27c-.06.11-.12.22-.19.33l-.15.21a2.34,2.34,0,0,1-.24.31c-.05.06-.1.13-.16.19l-.29.29-.15.14a3.54,3.54,0,0,1-.48.34l-.25.14-.08,0-.16.07-.09,0-.14,0H25.3l-.13,0h-.41l-.12,0-.06,0a.65.65,0,0,1-.16-.09L27.09,77l.17.09.06,0,.12,0h.08l.11,0h.22l.12,0h.09l.14,0,.09,0,.16-.07.08,0a2,2,0,0,0,.25-.14,3.27,3.27,0,0,0,.48-.35,1,1,0,0,0,.15-.14l.3-.28a1.46,1.46,0,0,1,.16-.19l.24-.31.14-.22a3.45,3.45,0,0,0,.2-.32l.06-.11.08-.16.09-.2C30.73,74.39,30.77,74.29,30.81,74.18Z"/><path class="cls-5" d="M20.24,80.53c0-.06.05-.13.07-.2a3.38,3.38,0,0,0,.08-.34s0-.11,0-.17a2.7,2.7,0,0,0,0-.49,1.81,1.81,0,0,0-.14-.78,1.05,1.05,0,0,0-.41-.49l-2.67-1.73a1.41,1.41,0,0,1,.55,1.27,4.38,4.38,0,0,1,0,.5c0,.05,0,.11,0,.16s0,.23-.08.35l-.07.19-.12.32c0,.07-.07.13-.1.2s-.09.18-.14.27a3.45,3.45,0,0,1-.2.32,1.64,1.64,0,0,1-.14.22l-.24.31-.16.18a2.65,2.65,0,0,1-.29.29l-.15.14a4.85,4.85,0,0,1-.48.35l-.25.14-.09,0-.15.07-.1,0-.13,0h-.1l-.12,0H14.4l-.13,0H14.2l-.13,0H14l-.16-.09,2.67,1.73a.8.8,0,0,0,.16.08l.06,0,.12,0H17l.12,0h.21l.12,0,.1,0,.14,0,.09,0,.16-.06.08,0,.25-.13a3.27,3.27,0,0,0,.48-.35l.15-.14a2.65,2.65,0,0,0,.29-.29,1.46,1.46,0,0,0,.16-.19,2.25,2.25,0,0,0,.24-.3l.15-.22a3.37,3.37,0,0,0,.19-.32l.07-.11a1.11,1.11,0,0,0,.07-.16c0-.07.07-.14.1-.2Z"/><polygon class="cls-5" points="9.23 105.74 11.9 107.47 11.92 99.53 9.25 97.81 9.23 105.74"/><path class="cls-5" d="M41.06,50.73l.56-.29.31-.14.5-.22.33-.13c.16-.06.31-.13.47-.18l.34-.12.44-.14.35-.09.41-.11.35-.07.39-.08.34,0,.39,0,.38,0L47,49c.13,0,.25,0,.37,0h.32l.37,0a2.58,2.58,0,0,1,.29,0,2.08,2.08,0,0,1,.36.06l.29.05c.12,0,.23.06.35.09l.26.07.36.12.23.09.37.17.19.09a5.64,5.64,0,0,1,.53.31l-2.67-1.73A5.64,5.64,0,0,0,48,48.1L47.85,48l-.37-.17-.23-.08-.36-.13-.26-.07-.36-.09-.28,0c-.12,0-.24-.05-.36-.06l-.3,0-.36,0h-.69l-.33,0c-.13,0-.26,0-.38,0h0l-.36,0-.34,0-.4.08-.35.07-.41.11-.35.09-.43.15-.35.11-.46.18-.33.13-.5.22c-.1,0-.21.09-.31.15s-.37.18-.56.28l-.27.14c-.27.15-.55.3-.83.47L15,63c-.27.16-.54.34-.82.52l-.26.18-.54.37-.32.24-.48.36-.33.26-.46.38-.32.27-.45.4-.32.29-.45.42L10,67l-.46.47-.26.27-.55.59-.16.18c-.24.26-.47.53-.69.8l-.18.22-.49.6L7,70.4l-.4.53c-.09.12-.17.24-.26.35l-.37.52c-.08.12-.17.24-.25.37l-.35.52-.24.37c-.12.18-.23.36-.34.54L4.52,74l-.33.56c-.07.12-.14.24-.2.36l-.35.63a2,2,0,0,1-.14.25l0,0-.14.27c-.09.19-.19.38-.29.57L2.9,77c-.08.18-.17.35-.25.52l-.15.35c-.08.17-.15.34-.22.51l-.15.35-.21.51-.13.34c-.07.18-.14.36-.2.54l-.12.32-.21.63-.07.22c-.09.28-.18.57-.26.85,0,.07,0,.14-.05.2-.06.22-.12.44-.17.65s0,.21-.08.31l-.12.54c0,.11,0,.23-.07.34l-.09.51c0,.11,0,.23-.06.34s-.06.34-.08.5,0,.23,0,.34,0,.34,0,.51l0,.32c0,.18,0,.36,0,.55a2.45,2.45,0,0,0,0,.27c0,.27,0,.53,0,.8,0,4.11,1.37,7,3.67,8.5l2.67,1.73C4.05,97.05,2.66,94.14,2.67,90c0-.27,0-.54,0-.81a2.45,2.45,0,0,0,0-.27c0-.18,0-.36,0-.54l0-.32.06-.51c0-.11,0-.23,0-.34s.05-.33.08-.5L3,86.4c0-.17.06-.34.1-.51l.06-.34c0-.18.09-.36.13-.54s0-.21.07-.31.11-.43.17-.65l.06-.2c.08-.28.16-.57.25-.85l.08-.23q.09-.31.21-.63c0-.1.07-.21.11-.31l.2-.54c0-.12.09-.23.13-.34l.21-.52L5,80.08c.07-.17.15-.34.22-.5s.1-.23.16-.35l.24-.52a3.18,3.18,0,0,1,.16-.32c.09-.19.19-.38.29-.58s.09-.17.13-.26l.16-.3.35-.63.21-.36a6.32,6.32,0,0,1,.33-.56c.07-.13.15-.25.22-.37s.23-.36.34-.54L8,74.42l.35-.53.25-.36L9,73l.26-.35.4-.53.24-.31.5-.61.17-.21.69-.8.16-.18.55-.59.26-.27.47-.47.3-.29.44-.42.32-.29.45-.4L14.5,67l.47-.38.32-.26.49-.37.31-.23.54-.37.27-.19c.27-.18.54-.35.82-.51L40,51.34l.84-.48Z"/><path class="cls-6" d="M40,51.34c8.28-5,15-1.71,14.95,7.3S48.15,79,39.86,84L19,96.48l-7.13,11,0-7.94c-5.44.84-9.27-2.69-9.25-9.5,0-9,6.76-20.35,15.05-25.32ZM18.22,83.13a5,5,0,0,0,2.25-3.8c0-1.35-1-1.84-2.24-1.09A5,5,0,0,0,16,82c0,1.35,1,1.85,2.24,1.1m10.56-6.35A5,5,0,0,0,31,73c0-1.35-1-1.83-2.24-1.09a5,5,0,0,0-2.26,3.8c0,1.35,1,1.84,2.24,1.09m10.57-6.35a5,5,0,0,0,2.25-3.79c0-1.35-1-1.84-2.24-1.1a5,5,0,0,0-2.25,3.8c0,1.35,1,1.84,2.24,1.09"/><polygon class="cls-7" points="100.32 175.37 43.89 142 43.89 48.91 100.32 82.28 100.32 175.37"/><polygon class="cls-8" points="175.23 131.94 100.32 175.37 100.32 82.28 175.23 38.85 175.23 131.94"/><path class="cls-5" d="M188,103.58l-2.4-1.55a.78.78,0,0,1,.3.7,2.83,2.83,0,0,1,0,.29h0a2.68,2.68,0,0,1-.07.27,1,1,0,0,0,0,.1,1.34,1.34,0,0,1-.07.18,1.51,1.51,0,0,1-.09.18l-.06.12-.09.14-.09.13a1.47,1.47,0,0,1-.1.13l-.11.13-.11.11-.12.11-.12.09-.15.1a1.34,1.34,0,0,1-.24.12l-.08,0-.16,0h-.2l-.09,0a.44.44,0,0,1-.16-.06h0l2.41,1.55.11.06h0l.09,0h.26l.1,0,.08,0h0a1.06,1.06,0,0,0,.21-.11l0,0,.11-.08.12-.09.12-.11a1.14,1.14,0,0,0,.11-.11l.11-.13.1-.12.09-.14.09-.14v0a.31.31,0,0,0,.05-.1.76.76,0,0,0,.09-.18s0,0,0,0a.88.88,0,0,0,.05-.15.42.42,0,0,0,0-.1v0l.06-.25h0a1.37,1.37,0,0,0,0-.28h0A.79.79,0,0,0,188,103.58Z"/><path class="cls-5" d="M182.15,107.07l-2.41-1.55a.78.78,0,0,1,.31.7,1.5,1.5,0,0,1,0,.29h0a2.68,2.68,0,0,1-.07.27l0,.1c0,.06,0,.12-.07.17l-.09.19s0,.08-.07.12a1.1,1.1,0,0,1-.09.14l-.09.13a1.47,1.47,0,0,1-.1.13l-.11.13-.11.11-.12.11-.12.09-.14.1-.25.12-.08,0-.15,0h-.08a.48.48,0,0,1-.12,0l-.1,0a.39.39,0,0,1-.15-.06l2.4,1.55.11.06h0l.1,0h.25a.45.45,0,0,0,.11,0l.07,0h0l.22-.11,0,0,.1-.08.12-.09.12-.11.12-.11a1.47,1.47,0,0,0,.1-.13l.1-.12a1.1,1.1,0,0,0,.09-.14,1.1,1.1,0,0,0,.09-.14l0,0s0-.07,0-.1l.09-.18s0,0,0,0l.06-.14,0-.1v0a1.29,1.29,0,0,0,.06-.25h0a1.41,1.41,0,0,0,0-.28h0a1.1,1.1,0,0,0-.08-.43A.6.6,0,0,0,182.15,107.07Z"/><path class="cls-5" d="M176.34,110.56l-2.4-1.55a.78.78,0,0,1,.3.7,1.5,1.5,0,0,1,0,.29h0c0,.09,0,.18-.06.28a1,1,0,0,0,0,.1c0,.05,0,.11-.07.17l-.09.19-.06.12-.09.14-.09.13-.11.13-.1.12-.12.12-.11.1-.13.1-.14.1a1.42,1.42,0,0,1-.25.12l-.07,0-.16,0h-.2l-.1,0a.94.94,0,0,1-.15-.06h0l2.4,1.55.11,0h0l.09,0H175l.1,0,.07,0h0l.22-.11,0,0,.11-.08.12-.09.11-.11.12-.11a1.13,1.13,0,0,0,.1-.13l.11-.13.09-.13.09-.14v0l0-.1.09-.18s0,0,0,0,0-.09,0-.14a1,1,0,0,1,0-.1v0a1.29,1.29,0,0,0,.06-.25h0c0-.1,0-.19,0-.28h0a1.1,1.1,0,0,0-.08-.43A.6.6,0,0,0,176.34,110.56Z"/><path class="cls-6" d="M187.3,95.92c4.55-2.74,8.23-.94,8.22,4,0,3.75-2.13,8.22-5.14,11.36v4.36l-3.9-1.33L175,121.2c-4.55,2.73-8.23.93-8.21-4s3.71-11.18,8.26-13.92Zm-12,17.47a2.75,2.75,0,0,0,1.24-2.09c0-.74-.55-1-1.23-.6a2.74,2.74,0,0,0-1.24,2.09c0,.74.55,1,1.23.6m11.61-7a2.71,2.71,0,0,0,1.24-2.08c0-.75-.55-1-1.23-.61a2.75,2.75,0,0,0-1.24,2.09c0,.74.55,1,1.23.6m-5.8,3.49a2.77,2.77,0,0,0,1.24-2.09c0-.74-.55-1-1.24-.6a2.78,2.78,0,0,0-1.24,2.09c0,.74.56,1,1.24.6"/><path class="cls-5" d="M188.4,95.35l.56-.24.29-.1a5.34,5.34,0,0,1,.53-.16l.25-.07c.22,0,.43-.08.63-.1l.12,0a5.48,5.48,0,0,1,.7,0c.1,0,.2,0,.3,0a2.73,2.73,0,0,1,.4,0l.29.08a2.4,2.4,0,0,1,.38.12l.12,0a3.84,3.84,0,0,1,.53.28l-2.4-1.56a4.58,4.58,0,0,0-.54-.28l-.11,0-.1,0-.29-.07-.28-.08a2.73,2.73,0,0,0-.4-.05l-.3,0H189a4.61,4.61,0,0,0-.64,0l-.12,0a5.06,5.06,0,0,0-.52.08l-.11,0-.25.07c-.18,0-.35.09-.54.15l-.28.11-.21.07-.36.16-.25.12a8.72,8.72,0,0,0-.84.46l-12.23,7.34-.25.16-.3.2-.41.29-.41.31-.41.33-.39.34-.39.36c-.13.12-.26.25-.38.38l-.38.39-.36.4c-.12.14-.24.27-.35.41s-.23.29-.34.43l-.34.44-.31.44-.31.46-.3.46-.28.47-.09.14c-.06.1-.1.2-.16.3l-.3.57c-.08.15-.15.3-.22.45s-.18.38-.26.57l-.1.21-.12.3c0,.13-.11.27-.15.4s-.14.37-.2.56-.09.26-.13.39a.69.69,0,0,1-.05.13c0,.16-.08.33-.13.49s0,.21-.08.31c-.07.3-.14.6-.19.89v0h0c-.06.32-.1.64-.13,1a2.81,2.81,0,0,0,0,.29c0,.21,0,.42,0,.63v0c0,2.26.76,3.86,2,4.68l2.4,1.55c-1.26-.82-2-2.42-2-4.68q0-.33,0-.66a2.81,2.81,0,0,1,0-.29c0-.31.07-.63.13-1v0c.06-.3.12-.6.19-.9a2.81,2.81,0,0,0,.08-.31l.18-.62c0-.13.08-.26.13-.38s.13-.38.2-.57l.15-.4c.07-.17.14-.34.22-.51s.17-.38.26-.57.14-.3.22-.45l.3-.56c.08-.15.16-.3.25-.45l.28-.46.3-.47.31-.45.32-.45c.1-.15.22-.29.33-.44l.34-.42.35-.42c.12-.13.24-.27.37-.4l.37-.39.38-.38.39-.35.39-.35.41-.32.41-.32.41-.29.55-.36,12.23-7.34c.28-.17.56-.32.84-.46Z"/></svg>