<svg id="图层_1" data-name="图层 1" xmlns="http://www.w3.org/2000/svg" xmlns:xlink="http://www.w3.org/1999/xlink" viewBox="0 0 174.92 169.69"><defs><style>.cls-1{fill:#32d5bd;}.cls-2,.cls-4{fill:#fff;}.cls-2,.cls-5,.cls-8{opacity:0.8;}.cls-3{fill:#6a9fff;}.cls-6{opacity:0.5;}.cls-7{opacity:0.3;}.cls-8{fill:url(#未命名的渐变_9);}</style><linearGradient id="未命名的渐变_9" x1="69.35" y1="158.59" x2="172.94" y2="83.69" gradientUnits="userSpaceOnUse"><stop offset="0" stop-color="#69dbca" stop-opacity="0"/><stop offset="1" stop-color="#32d5bd"/></linearGradient></defs><title>2018.1.29-价格页图标设计</title><path class="cls-1" d="M96.25,82.64l3.81-2.2,0,8.66-3.81,2.2,0,6.8L87,103.48l0-6.81-17.24,10,0-8.77c.74-2.14,1.52-4.31,2.32-6.48S73.75,86.72,74.8,84s1.84-4.82,2.39-6.24,1.49-3.86,2.86-7.36,2.22-5.66,2.53-6.48l13.6-7.84ZM87,88l-.06-18.83-.4.23q-6,15.31-8.92,23.89v.12L87,88"/><path class="cls-2" d="M109.72,10.91a3.24,3.24,0,0,1,3.22-.33l5.86,3.34c1.77,1,1.78,4.33,0,7.38a9.18,9.18,0,0,1-3.21,3.37,3.22,3.22,0,0,1-3.21.33l-5.86-3.34c-1.77-1-1.78-4.33,0-7.38A9.24,9.24,0,0,1,109.72,10.91Z"/><path class="cls-1" d="M52.33,80.63q6-3.48,9.73-2.16c2.47.88,3.71,3.06,3.72,6.57a16.11,16.11,0,0,1-.18,2.35c-.12.82-.25,1.55-.4,2.2a18,18,0,0,1-.72,2.28c-.34.87-.61,1.56-.82,2.07s-.57,1.24-1.06,2.19-.84,1.62-1,2-.6,1.07-1.18,2.08-.94,1.65-1.08,1.92L52.53,114.3v.4l14-8.1,0,8.65-27,15.61,0-6.78,12.94-22.55c.62-1.08,1.11-1.94,1.46-2.58s.75-1.45,1.21-2.42a15.88,15.88,0,0,0,1-2.69,8.88,8.88,0,0,0,.32-2.33A2.59,2.59,0,0,0,55.24,89a3.18,3.18,0,0,0-3.08.43,8.26,8.26,0,0,0-3.08,3.2,8.55,8.55,0,0,0-1.15,4.12c0,.09,0,.21,0,.38s0,.27,0,.31l-9.33,5.39v-.62A18.53,18.53,0,0,1,39.11,98a23.35,23.35,0,0,1,1.58-4.61,29.46,29.46,0,0,1,2.65-4.64,27.2,27.2,0,0,1,3.89-4.38A29,29,0,0,1,52.33,80.63Z"/><path class="cls-3" d="M107.06,7.16a3.23,3.23,0,0,0-3.21.34,9.08,9.08,0,0,0-3.2,3.37,9.76,9.76,0,0,0-1.24,3.41,5.13,5.13,0,0,0,.26,2.82,2.71,2.71,0,0,0,.42.67,2.25,2.25,0,0,0,.58.48l5.87,3.41c-1.77-1-1.78-4.33,0-7.38a9.24,9.24,0,0,1,3.2-3.37,3.24,3.24,0,0,1,3.22-.33Z"/><path class="cls-3" d="M12.8,120.56c0,16,5.69,27.26,14.8,32.56l5.88,3.41C24.36,151.23,18.71,140,18.67,124c-.09-29.55,19-65,43.77-83.17l-5.87-3.42C31.77,55.54,12.71,91,12.8,120.56Z"/><path class="cls-3" d="M44.24,32.33l5.87,3.41c-1.26-.73-2-2.27-2-4.46a15.4,15.4,0,0,1,7-12.07L80.74,4.37c1.94-1.12,3.7-1.22,5-.48L79.84.47c-1.28-.74-3-.64-5,.48L49.16,15.79a15.42,15.42,0,0,0-7,12.07C42.2,30.06,43,31.6,44.24,32.33Z"/><polygon class="cls-3" points="62.44 40.8 62.42 32.06 61.53 31.54 56.56 34.41 56.57 37.38 62.44 40.8"/><path class="cls-3" d="M73.26,28.34l0,5.86h0c.8-.39,1.6-.76,2.38-1.1l.79-.32L78,32.15l.93-.33,1.39-.48,1-.29c.43-.13.87-.26,1.29-.37l1-.24c.42-.1.83-.21,1.24-.29s.66-.12,1-.18.79-.15,1.19-.21.66-.08,1-.12.77-.1,1.15-.13l1-.06,1.12-.06h1l1.09,0,.93.06,1.06.09.91.12c.34.05.68.1,1,.17l.89.17q.5.11,1,.24l.85.23,1,.31.83.29.92.38c.27.11.53.22.79.35l.9.44.75.41.26.13L99.5,29.39C92.49,25.31,83.41,24.79,73.26,28.34Z"/><path class="cls-4" d="M86.49,69.42q-6,15.31-8.92,23.89v.12L87,88l-.06-18.83Z"/><g class="cls-5"><path class="cls-4" d="M73.28,34.2l0-8.4a6,6,0,0,0-.08-1l7.61-4.39a15.45,15.45,0,0,0,7-12.07c0-4.42-3.17-6.22-7-4L55,19.21a15.4,15.4,0,0,0-7,12.07c0,4.41,3.16,6.21,7,4L62.49,31a7.79,7.79,0,0,0-.07,1.07l0,8.74h0C37.64,59,18.58,94.42,18.67,124c.09,32.21,22.89,45.21,50.92,29s50.68-55.42,50.59-87.63C120.1,34.7,99.44,21.45,73.28,34.2ZM39.57,130.86l0-6.78,12.94-22.55c.62-1.08,1.11-1.94,1.46-2.58s.75-1.45,1.21-2.42a15.88,15.88,0,0,0,1-2.69,8.88,8.88,0,0,0,.32-2.33A2.59,2.59,0,0,0,55.24,89a3.18,3.18,0,0,0-3.08.43,8.26,8.26,0,0,0-3.08,3.2,8.55,8.55,0,0,0-1.15,4.12c0,.09,0,.21,0,.38s0,.27,0,.31l-9.33,5.39v-.62A18.53,18.53,0,0,1,39.11,98a23.35,23.35,0,0,1,1.58-4.61,29.46,29.46,0,0,1,2.65-4.64,27.2,27.2,0,0,1,3.89-4.38,29,29,0,0,1,5.1-3.73q6-3.48,9.73-2.16c2.47.88,3.71,3.06,3.72,6.57a16.11,16.11,0,0,1-.18,2.35c-.12.82-.25,1.55-.4,2.2a18,18,0,0,1-.72,2.28c-.34.87-.61,1.56-.82,2.07s-.57,1.24-1.06,2.19-.84,1.62-1,2-.6,1.07-1.18,2.08-.94,1.65-1.08,1.91l-6.77,12.2v.4l14-8.1,0,8.65ZM96.3,98.1,87,103.48l0-6.81-17.24,10,0-8.77c.74-2.14,1.52-4.31,2.32-6.48S73.75,86.72,74.8,84s1.84-4.82,2.39-6.24,1.49-3.86,2.86-7.36,2.22-5.66,2.53-6.48l13.6-7.84.07,26.58,3.81-2.2,0,8.66-3.81,2.2Z"/></g><g class="cls-6"><path class="cls-1" d="M1.63,135C3,144,11,158.59,35.13,151.71s66.74-29.33,91-49.06L114.25,85l50.26,5.38-11,46.68-9.17-11.16S87.54,164,45,169.12-3.74,143.61,1.63,135Z"/></g><path class="cls-1" d="M1.63,135a30.17,30.17,0,0,1,7.53-8.87l6.22,16s-4.64,1.71-4.33,8.1C11.05,150.16,3.3,147.75,1.63,135Z"/><g class="cls-7"><path class="cls-8" d="M104.53,79.06l14.61,21.75c-14.15,11.52-28.36,20-47.85,30.38,2.41,4.72,6,8.53,9.43,15.84,1.34,4,3.41,10.25,3.6,14.61,0,.11.68,3.45.69,3.55a408.18,408.18,0,0,0,60.22-30.87l13.49,13.75,16.2-64.45Z"/></g></svg>