<svg id="图层_1" data-name="图层 1" xmlns="http://www.w3.org/2000/svg" xmlns:xlink="http://www.w3.org/1999/xlink" viewBox="0 0 178.37 184.57"><defs><style>.cls-1,.cls-2{fill:#95b6f3;}.cls-1{opacity:0.1;}.cls-3{opacity:0.5;fill:url(#未命名的渐变_7);}.cls-4{opacity:0.8;fill:url(#未命名的渐变_4);}.cls-5,.cls-8{fill:#fff;}.cls-6{fill:#7fddcd;}.cls-7{fill:#26bda2;}.cls-8{opacity:0.9;}.cls-9{fill:#bdebe5;}</style><linearGradient id="未命名的渐变_7" x1="109.21" y1="65.23" x2="121.36" y2="163.19" gradientUnits="userSpaceOnUse"><stop offset="0" stop-color="#c2d6f9" stop-opacity="0"/><stop offset="1" stop-color="#95b6f3"/></linearGradient><linearGradient id="未命名的渐变_4" x1="48.26" y1="67.22" x2="43.39" y2="148.98" xlink:href="#未命名的渐变_7"/></defs><title>2018.1.29-价格页图标设计</title><path class="cls-1" d="M176.52,102.57c2.45,1.41,2.46,3.73,0,5.15l-9.78,5.68L114.35,83.13l9.78-5.68a9.87,9.87,0,0,1,8.89,0Z"/><path class="cls-2" d="M176.55,107.72l-9.78,5.68L114.35,83.13l0,5.17,52.42,30.26,9.78-5.68a3.11,3.11,0,0,0,1.82-2.56l0-5.16A3.14,3.14,0,0,1,176.55,107.72Z"/><path class="cls-1" d="M167,119.65c3.26,1.88,3.28,5,0,6.84L78.37,178a13.07,13.07,0,0,1-11.81,0L2.47,141c-3.25-1.88-3.27-5,0-6.84L91.08,82.65a13.07,13.07,0,0,1,11.81,0Z"/><path class="cls-2" d="M167,126.49,78.37,178a10.68,10.68,0,0,1-1.18.56l-.22.09c-.4.14-.82.27-1.25.38l-.26.05c-.36.08-.72.14-1.09.19l-.42.06a14.09,14.09,0,0,1-1.45.08h-.19c-.43,0-.85,0-1.27-.07-.16,0-.31,0-.47-.06s-.61-.09-.9-.15-.49-.11-.72-.18-.5-.14-.74-.22a6.47,6.47,0,0,1-.66-.26,8.13,8.13,0,0,1-1-.46L2.47,141c-.23-.14-.45-.28-.65-.43l-.18-.14-.39-.33-.16-.17c-.12-.12-.22-.24-.32-.36a1.34,1.34,0,0,0-.11-.14,3.86,3.86,0,0,1-.31-.51l0-.08a4.13,4.13,0,0,1-.19-.52,1.24,1.24,0,0,1,0-.16,3.07,3.07,0,0,1-.07-.6l0,5.16a3.07,3.07,0,0,0,.07.6c0,.05,0,.1,0,.16A3.52,3.52,0,0,0,.3,144a.64.64,0,0,0,0,.07v0a3.09,3.09,0,0,0,.32.51l.1.14c.1.12.2.24.32.36l.16.17.39.33.18.14a6.85,6.85,0,0,0,.66.43l64.08,37c.2.11.4.22.62.32s.25.09.37.14a6.47,6.47,0,0,0,.66.26c.24.08.49.16.74.22s.47.13.72.18l.33.08.57.07c.16,0,.31,0,.47.06.42,0,.84.07,1.27.07h.19a13.94,13.94,0,0,0,1.45-.08l.42-.06c.23,0,.46-.05.68-.09l.41-.1.26-.05A12.14,12.14,0,0,0,77,183.8l.22-.08a10.68,10.68,0,0,0,1.18-.56L167,131.65a4.17,4.17,0,0,0,2.42-3.4v-5.16C169.42,124.32,168.62,125.55,167,126.49Z"/><polygon class="cls-3" points="152.52 121.03 73.21 167 73.21 68.45 152.52 22.47 152.52 121.03"/><polygon class="cls-4" points="73.21 167 19.21 134.84 19.21 36.29 73.21 68.45 73.21 167"/><path class="cls-5" d="M113.92,3.46c2.27-1.3,4.12-.25,4.13,2.36l.12,43a9.06,9.06,0,0,1-4.1,7.1L36.55,100.71c-2.27,1.31-4.13.25-4.14-2.35l-.12-43a9.07,9.07,0,0,1,4.11-7.11Z"/><polygon class="cls-6" points="83.96 53.53 83.98 60.78 50.68 80.01 50.65 72.76 83.96 53.53"/><polygon class="cls-6" points="83.9 35.19 83.93 42.12 50.63 61.35 50.6 54.42 83.9 35.19"/><path class="cls-7" d="M112.12.28a2.89,2.89,0,0,0-2.93.28L31.8,45.06a9.07,9.07,0,0,0-4.1,7.1l.12,43a3.8,3.8,0,0,0,.33,1.64,2.12,2.12,0,0,0,.87,1l4.6,3.17a2.89,2.89,0,0,1-1.21-2.63l-.12-43a9.07,9.07,0,0,1,4.11-7.11L113.92,3.46a2.94,2.94,0,0,1,2.93-.28Z"/><polygon class="cls-7" points="100.44 23.24 102.22 24.15 95.07 36.97 91.02 34.42 92.79 31.47 95.06 32.9 100.44 23.24"/><polygon class="cls-7" points="100.5 41.89 102.27 42.8 95.12 55.62 91.08 53.07 92.84 50.12 95.11 51.55 100.5 41.89"/><path class="cls-8" d="M140.46,65.87c1.54-.89,2.8-.17,2.8,1.6l.08,29.23a6.14,6.14,0,0,1-2.78,4.83L87.89,131.94c-1.54.88-2.8.16-2.81-1.6L85,101.11a6.18,6.18,0,0,1,2.79-4.83Z"/><polygon class="cls-7" points="131.3 79.31 132.51 79.92 127.65 88.64 124.9 86.9 126.1 84.9 127.64 85.87 131.3 79.31"/><polygon class="cls-9" points="120.1 98.91 120.12 104.81 97.49 117.87 97.47 111.98 120.1 98.91"/><polygon class="cls-9" points="120.06 86.45 120.08 92.14 97.46 105.2 97.44 99.51 120.06 86.45"/><polygon class="cls-7" points="131.34 91.97 132.54 92.59 127.68 101.3 124.94 99.57 126.14 97.57 127.68 98.54 131.34 91.97"/><path class="cls-7" d="M139,63.66a2,2,0,0,0-2,.2L84.33,94.26a6.15,6.15,0,0,0-2.79,4.83l.08,29.23a2.66,2.66,0,0,0,.22,1.12,1.51,1.51,0,0,0,.6.67l3.46,2a2,2,0,0,1-.82-1.79L85,101.11a6.18,6.18,0,0,1,2.79-4.83l52.67-30.41a2,2,0,0,1,2-.19Z"/></svg>