<svg id="图层_1" data-name="图层 1" xmlns="http://www.w3.org/2000/svg" viewBox="0 0 214.43 179.28"><defs><style>.cls-1{fill:#95b6f3;}.cls-2{opacity:0.2;}.cls-3{opacity:0.3;}.cls-4{fill:#5082f3;}.cls-5{fill:#fff;}.cls-6{fill:#bdebe5;}.cls-7{fill:#26bda2;}</style></defs><title>2018.1.29-价格页图标设计</title><path class="cls-1" d="M167.83,160.49c-30.88,17.94-81.1,17.95-112.18,0-14.42-8.32-22.17-19-23.27-29.94-1.25,12.67,6.51,25.59,23.27,35.27,31.08,18,81.3,17.94,112.18,0,16.55-9.62,24.17-22.44,22.9-35C189.66,141.6,182.05,152.23,167.83,160.49Z"/><g class="cls-2"><ellipse class="cls-1" cx="111.55" cy="128.01" rx="45.95" ry="79.32" transform="translate(-16.77 239.2) rotate(-89.84)"/></g><g class="cls-3"><ellipse class="cls-1" cx="111.56" cy="130.04" rx="19.8" ry="41.97" transform="translate(-18.7 241.34) rotate(-89.89)"/></g><path class="cls-4" d="M192.59,54.93c0-1.71.85-2.82,2.57-2.82s2.59,1.11,2.59,2.82v5.81c0,1.71-.86,2.84-2.59,2.84s-2.57-1.13-2.57-2.84Zm1.23,5.89c0,1,.44,1.62,1.34,1.62s1.33-.61,1.33-1.62v-6c0-1-.42-1.64-1.33-1.64s-1.34.61-1.34,1.64Z"/><path class="cls-4" d="M202.84,54.26a3.34,3.34,0,0,1-1.56.48v-1a1.89,1.89,0,0,0,1.92-1.49h.87V63.47h-1.23Z"/><path class="cls-4" d="M207.48,54.93c0-1.71.85-2.82,2.57-2.82s2.58,1.11,2.58,2.82v5.81c0,1.71-.85,2.84-2.58,2.84s-2.57-1.13-2.57-2.84Zm1.23,5.89c0,1,.44,1.62,1.34,1.62s1.33-.61,1.33-1.62v-6c0-1-.42-1.64-1.33-1.64s-1.34.61-1.34,1.64Z"/><path class="cls-4" d="M195,70.63a3.3,3.3,0,0,1-1.56.48v-1a1.91,1.91,0,0,0,1.93-1.49h.87V79.84H195Z"/><path class="cls-4" d="M199.62,71.3c0-1.71.85-2.82,2.57-2.82s2.59,1.11,2.59,2.82v5.8c0,1.72-.85,2.85-2.59,2.85s-2.57-1.13-2.57-2.85Zm1.24,5.88c0,1,.43,1.63,1.33,1.63s1.34-.61,1.34-1.63V71.24c0-1-.42-1.64-1.34-1.64s-1.33.61-1.33,1.64Z"/><path class="cls-4" d="M192.59,87.67c0-1.72.85-2.82,2.57-2.82s2.59,1.1,2.59,2.82v5.8c0,1.72-.86,2.85-2.59,2.85s-2.57-1.13-2.57-2.85Zm1.23,5.88c0,1,.44,1.63,1.34,1.63s1.33-.61,1.33-1.63V87.61c0-1-.42-1.64-1.33-1.64s-1.34.61-1.34,1.64Z"/><path class="cls-4" d="M202.84,87a3.34,3.34,0,0,1-1.56.48v-1A1.9,1.9,0,0,0,203.2,85h.87V96.21h-1.23Z"/><path class="cls-4" d="M209.87,87a3.3,3.3,0,0,1-1.56.48v-1A1.92,1.92,0,0,0,210.24,85h.87V96.21h-1.24Z"/><g class="cls-2"><ellipse class="cls-1" cx="202.65" cy="109.4" rx="4.36" ry="11.78" transform="translate(92.97 311.89) rotate(-89.92)"/></g><g class="cls-2"><ellipse class="cls-1" cx="17.11" cy="161.09" rx="5.29" ry="17.11" transform="translate(-144 178.03) rotate(-89.94)"/></g><path class="cls-4" d="M2.64,103.42c0-2.33,1.15-3.83,3.47-3.83s3.5,1.5,3.5,3.83v7.84c0,2.33-1.15,3.85-3.5,3.85s-3.47-1.52-3.47-3.85Zm1.67,8c0,1.37.59,2.2,1.8,2.2s1.81-.83,1.81-2.2v-8c0-1.39-.57-2.21-1.81-2.21s-1.8.82-1.8,2.21Z"/><path class="cls-4" d="M16.49,102.51a4.68,4.68,0,0,1-2.1.65v-1.39a2.6,2.6,0,0,0,2.6-2h1.18V115H16.49Z"/><path class="cls-4" d="M22.77,103.42c0-2.33,1.15-3.83,3.48-3.83s3.5,1.5,3.5,3.83v7.84c0,2.33-1.16,3.85-3.5,3.85s-3.48-1.52-3.48-3.85Zm1.67,8c0,1.37.59,2.2,1.81,2.2s1.8-.83,1.8-2.2v-8c0-1.39-.56-2.21-1.8-2.21s-1.81.82-1.81,2.21Z"/><path class="cls-4" d="M5.87,124.65a4.68,4.68,0,0,1-2.1.65v-1.39a2.6,2.6,0,0,0,2.6-2H7.55V137.1H5.87Z"/><path class="cls-4" d="M12.15,125.56c0-2.33,1.15-3.83,3.48-3.83s3.5,1.5,3.5,3.83v7.84c0,2.33-1.16,3.85-3.5,3.85s-3.48-1.52-3.48-3.85Zm1.67,7.95c0,1.37.59,2.2,1.81,2.2s1.8-.83,1.8-2.2v-8c0-1.39-.56-2.21-1.8-2.21s-1.81.82-1.81,2.21Z"/><path class="cls-5" d="M149.79,44.66c4.49-2.59,8.18-.49,8.19,4.67l.13,45.51c0,5.16-3.65,11.51-8.14,14.1l-67.51,39c-4.49,2.6-8.18.49-8.2-4.67l-.13-45.51c0-5.16,3.66-11.51,8.14-14.1Zm-33.63,68.05a16.88,16.88,0,0,0,7.66-13.26c0-3.21-1.52-5.16-3.76-5.4L120,84c0-2.49-1.79-3.5-4-2.25a8.64,8.64,0,0,0-3.92,6.79l0,10.08a16.59,16.59,0,0,0-3.71,9.72c0,4.88,3.46,6.84,7.69,4.4"/><path class="cls-6" d="M120.06,94.05,120,84c0-2.49-1.79-3.5-4-2.25a8.64,8.64,0,0,0-3.92,6.79l0,10.08a16.59,16.59,0,0,0-3.71,9.72c0,4.88,3.46,6.84,7.69,4.4a16.88,16.88,0,0,0,7.66-13.26C123.81,96.24,122.3,94.29,120.06,94.05Z"/><path class="cls-7" d="M146.47,38.8c-1.49-.86-3.55-.75-5.8.56l-67.52,39C68.66,80.93,65,87.28,65,92.43l.13,45.51c0,2.57.92,4.38,2.39,5.24l9.12,5.3c-1.46-.86-2.38-2.67-2.39-5.23l-.13-45.51c0-5.16,3.66-11.51,8.14-14.1l67.52-39c2.26-1.31,4.31-1.42,5.8-.56Z"/><path class="cls-7" d="M131.55,29.73c0-4.9-1.75-8.36-4.55-10l-9.12-5.31c2.8,1.63,4.53,5.09,4.55,10l0,18.15,9.12,5.3Z"/><path class="cls-5" d="M115.87,8.86c14.34-8.28,26-1.62,26.09,14.86L142,41.87l-10.42,6,0-18.15c0-9.87-7-13.87-15.65-8.9s-15.56,17-15.53,26.91l0,18.15L90,71.9l0-18.15C89.91,37.27,101.53,17.14,115.87,8.86Z"/><path class="cls-7" d="M125.25,1.76C120.52-1,114-.61,106.75,3.56,92.41,11.84,80.78,32,80.83,48.45l0,18.15L90,71.9l0-18.15c0-16.48,11.58-36.61,25.92-44.89,7.22-4.17,13.77-4.55,18.5-1.8Z"/></svg>