<svg id="图层_1" data-name="图层 1" xmlns="http://www.w3.org/2000/svg" viewBox="0 0 122.14 143.44"><defs><style>.cls-1{fill:#fff;opacity:0.6;}.cls-2{fill:#26bda2;}.cls-3{fill:#5082f3;}.cls-4{fill:#d1e2ff;}</style></defs><title>2018.1.29-价格页图标设计</title><path class="cls-1" d="M50.68,72.29c24.18-14,43.83-4.73,43.9,20.61L7.05,143.44C7,118.1,26.51,86.25,50.68,72.29Z"/><path class="cls-2" d="M76.17,64.57c-8-4.67-19.64-3.82-32.53,3.62C19.46,82.15-.07,114,0,139.34l7.05,4.1C7,118.1,26.51,86.24,50.68,72.29c12.89-7.44,24.5-8.29,32.53-3.62Z"/><path class="cls-2" d="M60,1.57C55.75-.89,49.91-.54,43.45,3.18,30.63,10.59,20.27,28.54,20.31,43.27a20.32,20.32,0,0,0,2.81,11,12.73,12.73,0,0,0,1.15,1.53c.21.23.43.46.65.67a11.51,11.51,0,0,0,2.17,1.65l7.05,4.09c-4.17-2.42-6.76-7.57-6.78-14.89,0-14.74,10.32-32.69,23.14-40.09C57,3.55,62.8,3.21,67,5.66Z"/><path class="cls-1" d="M50.5,7.28C63.33-.12,73.76,5.83,73.8,20.56S63.48,53.24,50.65,60.65,27.4,62.11,27.36,47.37,37.68,14.68,50.5,7.28Z"/><path class="cls-3" d="M105,100.62c0-.1,0-.2,0-.3a6.38,6.38,0,0,0-.12-.63c0-.1,0-.2-.08-.3a4.44,4.44,0,0,0-.19-.55l-.09-.25a6.25,6.25,0,0,0-.33-.63.21.21,0,0,1,0-.06,3.88,3.88,0,0,0-.54-.66l-.15-.14a3.42,3.42,0,0,0-.61-.47,4.43,4.43,0,0,0-3.37-.39,8.48,8.48,0,0,1,.32,2.31A17.19,17.19,0,0,1,92,112.06a8.43,8.43,0,0,1-2.24.92,4.47,4.47,0,0,0,2,2.72l.3.14a2.06,2.06,0,0,0,.26.12l.33.1.27.07c.12,0,.24,0,.36.05a2.85,2.85,0,0,0,.29,0c.13,0,.26,0,.38,0h.31a3.2,3.2,0,0,0,.41-.07l.31,0,.45-.13.31-.09.54-.21.24-.1a8.85,8.85,0,0,0,.8-.42,13,13,0,0,0,2.33-1.74,16.93,16.93,0,0,0,2-2.32,18.1,18.1,0,0,0,1.66-2.7,17.18,17.18,0,0,0,.84-1.92,13.87,13.87,0,0,0,.93-4.83A8.19,8.19,0,0,0,105,100.62Z"/><polygon class="cls-3" points="84.71 88.56 109.61 74.18 104.31 71.1 79.41 85.47 67.03 117.45 79.55 135.04 84.85 138.13 72.33 120.53 84.71 88.56"/><path class="cls-4" d="M109.61,74.18l12.53,17.59-12.39,32-24.9,14.38-12.52-17.6,12.38-32Zm-12.35,41c4.32-2.49,7.82-8.54,7.8-13.51s-3.53-7-7.85-4.48a17.21,17.21,0,0,0-7.81,13.52c0,5,3.53,7,7.86,4.47"/></svg>