<svg xmlns="http://www.w3.org/2000/svg" fill="none" width="48" height="48"><defs><clipPath id="prefix__a"><rect x="12" y="12" width="24" height="24" rx="0"/></clipPath></defs><rect width="48" height="48" rx="12" fill="#9D95E5"/><g clip-path="url(#prefix__a)"><path d="M35.623 12.187c.286.18.43.519.36.85l-3.426 20.549a.837.837 0 01-1.165.633l-6.059-2.475-3.237 3.943a.786.786 0 01-.662.302.751.751 0 01-.303-.058.8.8 0 01-.402-.316.863.863 0 01-.159-.49v-4.662l11.556-14.175-14.304 12.376-5.282-2.173a.793.793 0 01-.535-.734.784.784 0 01.432-.791l22.265-12.85a.88.88 0 01.431-.116c.174.03.34.093.49.187z" fill="#FFF"/></g></svg>