<svg viewBox="0 0 1024 1024" version="1.1" xmlns="http://www.w3.org/2000/svg">
    <path d="M1023.573333 730.1376c0 162.061653-131.37408 293.435733-293.435733 293.435733h-436.701867C131.377493 1023.573333 0 892.199253 0 730.1376v-436.701867C0 131.375787 131.377493 0 293.435733 0h436.701867C892.199253 0 1023.573333 131.375787 1023.573333 293.435733v436.701867z" fill="#3290FF"></path>
    <path d="M511.812267 285.600427a1.6896 1.6896 0 0 1 0.861866 0.242346c0.438613 0.28672 0.781653 0.698027 0.98816 1.179307l252.29312 445.948587a3.67616 3.67616 0 0 1 0 3.623253l-0.339626 0.585387-0.319147 0.595626c-0.211627 0.382293-0.617813 0.626347-1.466027 0.626347H259.283627a1.194667 1.194667 0 0 1-1.06496-0.626347l-0.31744-0.595626-0.341334-0.585387a3.84 3.84 0 0 1 0.172374-3.92192l252.368213-446.097067c0.34304-0.6144 0.996693-0.991573 1.703253-0.976213m0-42.472107a44.35456 44.35456 0 0 0-38.90176 22.985387L220.777813 711.758507a46.13632 46.13632 0 0 0 0 46.047573 43.685547 43.685547 0 0 0 38.50752 23.067307h504.992427a43.67872 43.67872 0 0 0 38.519467-23.067307 46.13632 46.13632 0 0 0 0-46.047573l-252.2112-445.646507a44.43648 44.43648 0 0 0-38.826667-22.985387h0.044373z m0 0" fill="#FFFFFF"></path>
    <path d="M540.29312 455.277227c-0.29696-15.42656-12.888747-27.772587-28.317013-27.772587s-28.018347 12.346027-28.315307 27.772587c0 0.817493 0 1.626453 0.11776 2.423466l6.9632 153.294507h42.473813l6.9632-153.294507c0.075093-0.79872 0.114347-1.605973 0.114347-2.423466z m0 0M483.662507 667.620693c0 15.63136 12.675413 28.311893 28.310186 28.311894 15.63648 0 28.3136-12.680533 28.3136-28.311894 0-15.63648-12.67712-28.315307-28.3136-28.315306-15.63648 0-28.310187 12.67712-28.310186 28.315306z m0 0" fill="#FFFFFF"></path>
</svg>
