<svg
    t="1758615909894"
    class="icon"
    viewBox="0 0 1024 1024"
    version="1.1"
    xmlns="http://www.w3.org/2000/svg"
    p-id="46324"
    width="1024"
    height="1024"
>
    <path
        d="M0 0m256 0l512 0q256 0 256 256l0 512q0 256-256 256l-512 0q-256 0-256-256l0-512q0-256 256-256Z"
        fill="#2F80ED"
        p-id="46325"
        data-spm-anchor-id="a313x.search_index.0.i9.662f3a81WMCCXl"
    />
    <path
        d="M797.866667 0l12.8 29.866667A605.866667 605.866667 0 0 1 853.333333 256a605.866667 605.866667 0 0 1-42.666666 226.133333 588.8 588.8 0 0 1-132.266667 196.266667 588.8 588.8 0 0 1-196.266667 132.266667A605.866667 605.866667 0 0 1 256 853.333333a605.866667 605.866667 0 0 1-226.133333-42.666666l-29.866667-12.8V256a256 256 0 0 1 256-256h541.866667z"
        fill="#2F80ED"
        p-id="46326"
        data-spm-anchor-id="a313x.search_index.0.i6.662f3a81WMCCXl"
    />
    <path
        d="M1024 388.266667V768a256 256 0 0 1-256 256H341.333333v-42.666667a605.866667 605.866667 0 0 1 42.666667-226.133333 618.666667 618.666667 0 0 1 328.533333-328.533333A605.866667 605.866667 0 0 1 938.666667 384z"
        fill="#2F80ED"
        p-id="46327"
        data-spm-anchor-id="a313x.search_index.0.i10.662f3a81WMCCXl"
    />
    <path
        d="M358.4 844.8a708.266667 708.266667 0 0 1 25.6-89.6 618.666667 618.666667 0 0 1 328.533333-328.533333l123.733334-34.133334a708.266667 708.266667 0 0 1-25.6 89.6 588.8 588.8 0 0 1-132.266667 196.266667 588.8 588.8 0 0 1-196.266667 132.266667z"
        fill="#2F80ED"
        p-id="46328"
        data-spm-anchor-id="a313x.search_index.0.i12.662f3a81WMCCXl"
    />
    <path
        d="M290.133333 738.133333h443.733334a38.4 38.4 0 0 1 34.133333 38.4 38.4 38.4 0 0 1-34.133333 34.133334H290.133333a38.4 38.4 0 0 1-34.133333-34.133334 38.4 38.4 0 0 1 34.133333-38.4z m149.333334-110.933333v-170.666667H256L512 213.333333l256 243.2h-183.466667v170.666667a42.666667 42.666667 0 0 1-42.666666 42.666667h-59.733334a42.666667 42.666667 0 0 1-42.666666-42.666667z"
        fill="#FFFFFF"
        p-id="46329"
    />
</svg>