<svg xmlns="http://www.w3.org/2000/svg" xmlns:xlink="http://www.w3.org/1999/xlink" fill="none" version="1.1" viewBox="0 0 48 48"><defs><clipPath id="master_svg0_3054_25667"><rect x="12" y="12" width="24" height="24" rx="0"/></clipPath></defs><g><rect x="0" y="0" width="48" height="48" rx="12" fill="#FFC835" fill-opacity="1"/><g clip-path="url(#master_svg0_3054_25667)"><g><path d="M33.400099999999995,12C34.0625,12,34.599599999999995,12.537033,34.599599999999995,13.1995L34.599599999999995,34.799099999999996C34.6004,35.4621,34.0631,36,33.400099999999995,36L16.59993,36C14.61174,36,13,34.3883,13,32.400099999999995L13,15.59993C13,13.61174,14.61174,12,16.59993,12L33.400099999999995,12ZM32.1991,31.1991L16.59993,31.1991C15.953240000000001,31.2215,15.440570000000001,31.7523,15.440570000000001,32.3994C15.440570000000001,33.0464,15.953240000000001,33.577200000000005,16.59993,33.599599999999995L32.1991,33.599599999999995L32.1991,31.1991ZM23.799799999999998,22.799799999999998C21.8116,22.799799999999998,20.19986,24.4115,20.19986,26.3997L27.3997,26.3997C27.3997,24.4115,25.788,22.799799999999998,23.799799999999998,22.799799999999998ZM23.799799999999998,16.799419999999998C22.47406,16.799419999999998,21.39935,17.87413,21.39935,19.19986C21.39935,20.525579999999998,22.47406,21.60029,23.799799999999998,21.60029C25.125500000000002,21.60029,26.200200000000002,20.525579999999998,26.200200000000002,19.19986C26.1994,17.87446,25.1252,16.80022,23.799799999999998,16.799419999999998Z" fill="#FFFFFF" fill-opacity="1"/></g></g></g></svg>
