<svg xmlns="http://www.w3.org/2000/svg" xmlns:xlink="http://www.w3.org/1999/xlink" fill="none" version="1.1" viewBox="0 0 48 48"><defs><clipPath id="master_svg0_3054_25545"><rect x="12" y="12" width="24" height="24" rx="0"/></clipPath></defs><g><rect x="0" y="0" width="48" height="48" rx="12" fill="#9D95E5" fill-opacity="1"/><g clip-path="url(#master_svg0_3054_25545)"><g><g><path d="M27.3699,31.3292C26.4274,32.2528,24.9169,32.2452,23.983800000000002,31.3121C23.0507,30.379,23.043100000000003,28.8686,23.9667,27.926099999999998L32.3201,19.578400000000002L32.3201,15.27301C32.3201,13.46482,30.8539,11.999210349,29.0457,12L15.27301,12C13.46538,11.999999784513,12,13.46538,12,15.27301L12,32.6318C11.999209911,34.44,13.46482,35.9063,15.27301,35.9063L29.0457,35.9063C30.8541,35.9063,32.3201,34.4403,32.3201,32.6318L32.3201,26.3789L27.3699,31.3292ZM17.74958,20.06886C17.25443,20.06886,16.85304,19.66746,16.85304,19.17232C16.85304,18.67717,17.25443,18.27578,17.74958,18.27578L23.1288,18.27578C23.624000000000002,18.27578,24.025399999999998,18.67717,24.025399999999998,19.17232C24.025399999999998,19.66746,23.624000000000002,20.06886,23.1288,20.06886L17.74958,20.06886Z" fill="#FFFFFF" fill-opacity="1"/></g><g transform="matrix(0.7071067690849304,0.7071067690849304,-0.7071067690849304,0.7071067690849304,23.826460884525744,-18.843463462634503)"><rect x="34.65930366516113" y="19.33935022354126" width="1.8960309028625488" height="14.49763011932373" rx="0.9480154514312744" fill="#FFFFFF" fill-opacity="1"/></g></g></g></g></svg>
