<?xml version="1.0" encoding="utf-8"?>
<!-- Generator: Adobe Illustrator 26.1.0, SVG Export Plug-In . SVG Version: 6.00 Build 0)  -->
<svg version="1.1" id="图层_1" xmlns="http://www.w3.org/2000/svg" xmlns:xlink="http://www.w3.org/1999/xlink" x="0px" y="0px"
	 viewBox="0 0 48 48" style="enable-background:new 0 0 48 48;" xml:space="preserve">
<style type="text/css">
	.st0{fill:#72A1F7;}
	.st1{fill:#FFFFFF;}
</style>
<path class="st0" d="M36,48H12C5.4,48,0,42.6,0,36V12C0,5.4,5.4,0,12,0h24c6.6,0,12,5.4,12,12v24C48,42.6,42.6,48,36,48z"/>
<g>
	<path class="st1" d="M34.6,26.5c-1.9-1.1-1.9-3.8,0-4.9c0.6-0.3,0.8-1.1,0.5-1.7l-1.9-3.3c-0.3-0.6-1.1-0.8-1.7-0.5
		c-1.9,1.1-4.3-0.3-4.3-2.5c0-0.7-0.6-1.3-1.3-1.3h-3.8c-0.7,0-1.3,0.6-1.3,1.3c0,2.2-2.4,3.6-4.3,2.5l0,0c-0.6-0.3-1.4-0.1-1.7,0.5
		L13,19.8c-0.3,0.6-0.1,1.4,0.5,1.7l0,0c1.9,1.1,1.9,3.8,0,4.9c-0.6,0.3-0.8,1.1-0.5,1.7l1.9,3.3c0.3,0.6,1.1,0.8,1.7,0.5
		c1.9-1.1,4.3,0.3,4.3,2.5v0c0,0.7,0.6,1.3,1.3,1.3h3.8c0.7,0,1.3-0.6,1.3-1.3v0c0-2.2,2.4-3.6,4.3-2.5h0c0.6,0.3,1.4,0.1,1.7-0.5
		l1.9-3.3C35.4,27.6,35.2,26.8,34.6,26.5z M24,26.6c-1.4,0-2.6-1.2-2.6-2.6c0-1.4,1.2-2.6,2.6-2.6c1.4,0,2.6,1.2,2.6,2.6
		C26.6,25.4,25.4,26.6,24,26.6z"/>
</g>
</svg>
