<?xml version="1.0" standalone="no"?><!DOCTYPE svg PUBLIC "-//W3C//DTD SVG 1.1//EN" "http://www.w3.org/Graphics/SVG/1.1/DTD/svg11.dtd"><svg t="1701947484494" class="icon" viewBox="0 0 1024 1024" version="1.1" xmlns="http://www.w3.org/2000/svg" p-id="14371" xmlns:xlink="http://www.w3.org/1999/xlink" width="128" height="128"><path d="M671.1 405.7C524.4 405.7 405 525.1 405 671.8s119.4 266.1 266.1 266.1 266.1-119.4 266.1-266.1-119.4-266.1-266.1-266.1z m74.5 298.1H703v42.6c0 17.6-14.3 31.9-31.9 31.9-17.6 0-31.9-14.3-31.9-31.9v-42.6h-42.6c-17.6 0-31.9-14.3-31.9-31.9 0-17.6 14.3-31.9 31.9-31.9h42.6v-42.6c0-17.6 14.3-31.9 31.9-31.9 17.6 0 31.9 14.3 31.9 31.9V640h42.6c17.6 0 31.9 14.3 31.9 31.9 0 17.6-14.3 31.9-31.9 31.9zM202.6 509.7c0-170.2 138.5-308.7 308.7-308.7 22.3 0 44 2.5 65 7-47.5-73.3-129.8-122-223.4-122C206.2 86 86.8 205.4 86.8 352.1c0 94.1 49.3 176.8 123.2 224.1-4.7-21.4-7.4-43.6-7.4-66.5z" p-id="14372" fill="#1296db"></path><path d="M362.4 671.8c0-170.2 138.5-308.7 308.7-308.7 22.9 0 45.2 2.7 66.6 7.4-46.9-76-130.7-127-226.4-127-146.7 0-266.1 119.4-266.1 266.1 0 94.2 49.4 177 123.5 224.3-4.2-20-6.3-40.8-6.3-62.1z" p-id="14373" fill="#1296db"></path></svg>