<?xml version="1.0" standalone="no"?><!DOCTYPE svg PUBLIC "-//W3C//DTD SVG 1.1//EN" "http://www.w3.org/Graphics/SVG/1.1/DTD/svg11.dtd"><svg t="1624439278143" class="icon" viewBox="0 0 1024 1024" version="1.1" xmlns="http://www.w3.org/2000/svg" p-id="3159" xmlns:xlink="http://www.w3.org/1999/xlink"><defs><style type="text/css"></style></defs><path d="M768 938.666667H256c-93.866667 0-170.666667-76.8-170.666667-170.666667V256c0-93.866667 76.8-170.666667 170.666667-170.666667h512c93.866667 0 170.666667 76.8 170.666667 170.666667v512c0 93.866667-76.8 170.666667-170.666667 170.666667z" fill="#8BCF70" p-id="3160"></path><path d="M721.066667 332.8c-29.866667-29.866667-72.533333-55.466667-115.2-68.266667-17.066667-4.266667-42.666667-8.533333-64-8.533333H226.133333v128l89.6 89.6v-128h226.133334c21.333333 0 46.933333 4.266667 64 12.8 17.066667 8.533333 34.133333 21.333333 51.2 34.133333 29.866667 29.866667 46.933333 72.533333 46.933333 115.2s-17.066667 85.333333-46.933333 115.2c-29.866667 29.866667-72.533333 46.933333-115.2 46.933334h-98.133334L354.133333 768h187.733334c140.8 0 256-115.2 256-256 0-72.533333-29.866667-132.266667-76.8-179.2z" fill="#FFFFFF" p-id="3161"></path><path d="M610.133333 384v128l-166.4 166.4L354.133333 768l-128-128v-128l89.6 89.6 38.4 38.4z" fill="#FFDD33" p-id="3162"></path></svg>