<?xml version="1.0" standalone="no"?><!DOCTYPE svg PUBLIC "-//W3C//DTD SVG 1.1//EN" "http://www.w3.org/Graphics/SVG/1.1/DTD/svg11.dtd"><svg t="1622421950278" class="icon" viewBox="0 0 1024 1024" version="1.1" xmlns="http://www.w3.org/2000/svg" p-id="30122" xmlns:xlink="http://www.w3.org/1999/xlink" width="48" height="48"><defs><style type="text/css"></style></defs><path d="M102.4 102.4m102.4 0l614.4 0q102.4 0 102.4 102.4l0 614.4q0 102.4-102.4 102.4l-614.4 0q-102.4 0-102.4-102.4l0-614.4q0-102.4 102.4-102.4Z" fill="#9ED979" p-id="30123"></path><path d="M512 230.4c-114.090667 0-204.8 89.258667-204.8 201.6a200.746667 200.746667 0 0 0 117.034667 181.418667v48.981333c0 17.28 11.690667 28.8 29.269333 28.8h116.992c17.578667 0 29.269333-11.52 29.269333-28.8v-48.981333a200.746667 200.746667 0 0 0 117.034667-181.418667C716.8 319.658667 626.090667 230.4 512 230.4zM580.266667 732.16h-136.533334c-20.48 0-34.133333 12.288-34.133333 30.72s13.653333 30.72 34.133333 30.72h136.533334c20.48 0 34.133333-12.288 34.133333-30.72s-13.653333-30.72-34.133333-30.72z" fill="#FFFFFF" p-id="30124"></path></svg>