<?xml version="1.0" standalone="no"?><!DOCTYPE svg PUBLIC "-//W3C//DTD SVG 1.1//EN" "http://www.w3.org/Graphics/SVG/1.1/DTD/svg11.dtd"><svg t="1622448314339" class="icon" viewBox="0 0 1024 1024" version="1.1" xmlns="http://www.w3.org/2000/svg" p-id="2852" width="128" height="128" xmlns:xlink="http://www.w3.org/1999/xlink"><defs><style type="text/css"></style></defs><path d="M387.264 473.68h-192c-52.928 0-96-43.072-96-96v-192c0-52.928 43.072-96 96-96h192c52.928 0 96 43.072 96 96v192c0 52.96-43.072 96-96 96z m-192-320c-17.632 0-32 14.368-32 32v192c0 17.632 14.368 32 32 32h192c17.632 0 32-14.368 32-32v-192c0-17.632-14.368-32-32-32h-192z m192 768h-192c-52.928 0-96-43.072-96-96v-192c0-52.928 43.072-96 96-96h192c52.928 0 96 43.072 96 96v192c0 52.96-43.072 96-96 96z m-192-320c-17.632 0-32 14.336-32 32v192c0 17.664 14.368 32 32 32h192c17.632 0 32-14.336 32-32v-192c0-17.664-14.368-32-32-32h-192z m636.864-128h-192c-52.928 0-96-43.072-96-96v-192c0-52.928 43.072-96 96-96h192c52.928 0 96 43.072 96 96v192c0 52.96-43.072 96-96 96z m-192-320c-17.664 0-32 14.368-32 32v192c0 17.632 14.336 32 32 32h192c17.664 0 32-14.368 32-32v-192c0-17.632-14.336-32-32-32h-192z m192 768h-192c-52.928 0-96-43.072-96-96v-192c0-52.928 43.072-96 96-96h192c52.928 0 96 43.072 96 96v192c0 52.96-43.072 96-96 96z m-192-320c-17.664 0-32 14.336-32 32v192c0 17.664 14.336 32 32 32h192c17.664 0 32-14.336 32-32v-192c0-17.664-14.336-32-32-32h-192z" p-id="2853" fill="#515a6e"></path></svg>