<?xml version="1.0" standalone="no"?><!DOCTYPE svg PUBLIC "-//W3C//DTD SVG 1.1//EN" "http://www.w3.org/Graphics/SVG/1.1/DTD/svg11.dtd"><svg t="1622448571867" class="icon" viewBox="0 0 1024 1024" version="1.1" xmlns="http://www.w3.org/2000/svg" p-id="7934" width="128" height="128" xmlns:xlink="http://www.w3.org/1999/xlink"><defs><style type="text/css"></style></defs><path d="M936.19430083 441.30094987c20.7383885 0 37.70616053 7.06990501 50.90331611 21.20971504S1006.89335097 493.14692043 1006.89335097 512s-7.06990501 35.34952507-21.20971503 49.48933509-30.63625552 21.20971504-49.48933511 21.20971504H87.80569917c-18.85307957 0-35.34952507-7.06990501-49.48933511-21.20971504S17.10664903 530.85307957 17.10664903 512s6.59857847-35.34952507 19.79573403-49.48933509S67.06731066 441.30094987 87.80569917 441.30094987h848.38860166zM87.80569917 299.90284958c-18.85307957 0-35.34952507-7.06990501-49.48933511-21.20971504S17.10664903 248.05687901 17.10664903 229.20379943s6.59857847-35.34952507 19.79573403-49.4893351S67.06731066 158.5047493 87.80569917 158.5047493h848.38860166c20.7383885 0 37.70616053 7.06990501 50.90331611 21.20971503S1006.89335097 210.35071986 1006.89335097 229.20379943s-7.06990501 35.34952507-21.20971503 49.48933511-30.63625552 21.20971504-49.48933511 21.20971504H87.80569917z m848.38860166 424.19430084c20.7383885 0 37.70616053 7.06990501 50.90331611 21.20971504S1006.89335097 775.94312099 1006.89335097 794.79620057s-7.06990501 35.34952507-21.20971503 49.4893351-30.63625552 21.20971504-49.48933511 21.20971503H87.80569917c-18.85307957 0-35.34952507-7.06990501-49.48933511-21.20971503S17.10664903 813.64928014 17.10664903 794.79620057s6.59857847-35.34952507 19.79573403-49.48933511S67.06731066 724.09715042 87.80569917 724.09715042h848.38860166z" fill="#515a6e" p-id="7935"></path></svg>